<?xml version="1.0" encoding="utf-8" standalone="no"?>
<!DOCTYPE svg PUBLIC "-//W3C//DTD SVG 1.1//EN"
  "http://www.w3.org/Graphics/SVG/1.1/DTD/svg11.dtd">
<svg xmlns:xlink="http://www.w3.org/1999/xlink" width="615.553841pt" height="323.683069pt" viewBox="0 0 615.553841 323.683069" xmlns="http://www.w3.org/2000/svg" version="1.1">
 <metadata>
  <rdf:RDF xmlns:dc="http://purl.org/dc/elements/1.1/" xmlns:cc="http://creativecommons.org/ns#" xmlns:rdf="http://www.w3.org/1999/02/22-rdf-syntax-ns#">
   <cc:Work>
    <dc:type rdf:resource="http://purl.org/dc/dcmitype/StillImage"/>
    <dc:date>2024-11-25T06:04:28.977751</dc:date>
    <dc:format>image/svg+xml</dc:format>
    <dc:creator>
     <cc:Agent>
      <dc:title>Matplotlib v3.7.2, https://matplotlib.org/</dc:title>
     </cc:Agent>
    </dc:creator>
   </cc:Work>
  </rdf:RDF>
 </metadata>
 <defs>
  <style type="text/css">*{stroke-linejoin: round; stroke-linecap: butt}</style>
 </defs>
 <g id="figure_1">
  <g id="patch_1">
   <path d="M -0 323.683069 
L 615.553841 323.683069 
L 615.553841 0 
L -0 0 
z
" style="fill: #ffffff"/>
  </g>
  <g id="axes_1">
   <g id="patch_2">
    <path d="M 41.471875 293.281966 
L 599.471875 293.281966 
L 599.471875 16.081966 
L 41.471875 16.081966 
z
" style="fill: #ffffff"/>
   </g>
   <g id="line2d_1">
    <path d="M 68.043304 293.281966 
L 68.043304 16.081966 
" clip-path="url(#pcd275f54f2)" style="fill: none; stroke-dasharray: 5.55,2.4; stroke-dashoffset: 0; stroke: #000000; stroke-opacity: 0.5; stroke-width: 1.5"/>
   </g>
   <g id="line2d_2">
    <path d="M 174.329018 293.281966 
L 174.329018 16.081966 
" clip-path="url(#pcd275f54f2)" style="fill: none; stroke-dasharray: 5.55,2.4; stroke-dashoffset: 0; stroke: #000000; stroke-opacity: 0.5; stroke-width: 1.5"/>
   </g>
   <g id="line2d_3">
    <path d="M 280.614732 293.281966 
L 280.614732 16.081966 
" clip-path="url(#pcd275f54f2)" style="fill: none; stroke-dasharray: 5.55,2.4; stroke-dashoffset: 0; stroke: #000000; stroke-opacity: 0.5; stroke-width: 1.5"/>
   </g>
   <g id="line2d_4">
    <path d="M 386.900446 293.281966 
L 386.900446 16.081966 
" clip-path="url(#pcd275f54f2)" style="fill: none; stroke-dasharray: 5.55,2.4; stroke-dashoffset: 0; stroke: #000000; stroke-opacity: 0.5; stroke-width: 1.5"/>
   </g>
   <g id="line2d_5">
    <path d="M 493.186161 293.281966 
L 493.186161 16.081966 
" clip-path="url(#pcd275f54f2)" style="fill: none; stroke-dasharray: 5.55,2.4; stroke-dashoffset: 0; stroke: #000000; stroke-opacity: 0.5; stroke-width: 1.5"/>
   </g>
   <g id="line2d_6">
    <path d="M 41.471875 20.452862 
L 44.14237 19.326876 
L 49.483361 19.027757 
L 52.153856 19.19681 
L 54.824352 19.186114 
L 57.494847 17.918871 
L 60.165342 19.260832 
L 62.835838 18.536406 
L 65.506333 18.807575 
L 68.176828 72.888809 
L 70.847324 69.563499 
L 73.517819 69.185826 
L 76.188314 64.966344 
L 78.85881 62.378673 
L 81.529305 60.291212 
L 84.1998 58.589915 
L 86.870296 56.718616 
L 89.540791 55.197686 
L 92.211286 53.128142 
L 94.881782 52.01801 
L 97.552277 50.050911 
L 100.222772 48.683003 
L 102.893268 47.152887 
L 105.563763 45.376888 
L 108.234258 44.079147 
L 110.904754 42.96492 
L 113.575249 40.580676 
L 116.245744 40.94357 
L 118.91624 40.695785 
L 121.586735 38.159829 
L 124.25723 36.280471 
L 126.927726 36.545266 
L 129.598221 37.036857 
L 132.268716 34.26911 
L 134.939212 34.22861 
L 137.609707 32.717214 
L 140.280202 33.227337 
L 142.950698 31.425107 
L 145.621193 32.299846 
L 148.291688 30.079542 
L 150.962184 30.474272 
L 153.632679 28.889871 
L 156.303174 29.716199 
L 158.97367 29.7467 
L 161.644165 27.406221 
L 164.31466 28.075777 
L 166.985156 26.016263 
L 169.655651 27.443563 
L 172.326146 26.674203 
L 174.996642 79.765374 
L 177.667137 77.369429 
L 180.337632 73.551462 
L 183.008128 71.210427 
L 185.678623 68.646545 
L 188.349118 66.273957 
L 191.019614 63.144992 
L 193.690109 61.941932 
L 196.360604 59.704197 
L 199.0311 58.035952 
L 201.701595 54.678768 
L 204.37209 52.748316 
L 207.042586 52.617483 
L 209.713081 49.695409 
L 212.383576 49.997718 
L 215.054072 47.26765 
L 217.724567 46.34291 
L 220.395062 43.762118 
L 223.065558 43.027595 
L 225.736053 41.193953 
L 228.406548 40.471869 
L 231.077044 39.87452 
L 233.747539 39.507554 
L 236.418034 37.698922 
L 241.759025 37.266305 
L 244.42952 35.39369 
L 247.100016 35.759142 
L 249.770511 33.585802 
L 252.441006 32.683415 
L 255.111502 32.464325 
L 257.781997 32.826939 
L 260.452492 31.350789 
L 263.122988 31.549361 
L 265.793483 29.478416 
L 271.134474 28.905526 
L 273.804969 29.096885 
L 276.475464 27.25033 
L 279.14596 28.505428 
L 281.816455 79.954563 
L 287.157446 74.639678 
L 289.827941 70.431012 
L 292.498436 68.868921 
L 295.168932 68.049207 
L 297.839427 64.268374 
L 300.509922 59.885047 
L 303.180418 60.23984 
L 305.850913 59.042727 
L 311.191904 54.774121 
L 313.862399 53.882609 
L 316.532894 50.808312 
L 319.20339 48.4464 
L 321.873885 49.078588 
L 324.54438 44.049996 
L 327.214876 46.414914 
L 329.885371 43.138294 
L 332.555866 41.996534 
L 335.226362 41.215279 
L 337.896857 38.387653 
L 340.567352 38.922989 
L 343.237848 38.205031 
L 345.908343 36.524047 
L 348.578838 36.056222 
L 351.249334 35.92337 
L 353.919829 35.516164 
L 356.590324 33.521928 
L 359.26082 33.8269 
L 361.931315 30.187214 
L 364.60181 32.047334 
L 367.272306 32.750134 
L 369.942801 30.306439 
L 372.613296 29.584143 
L 375.283792 29.781342 
L 377.954287 28.366274 
L 380.624782 30.139565 
L 385.965773 27.477104 
L 388.636268 80.856544 
L 391.306764 76.789236 
L 393.977259 75.755428 
L 396.647754 72.213435 
L 399.31825 70.230151 
L 401.988745 65.456522 
L 404.65924 63.341165 
L 407.329736 62.041699 
L 410.000231 58.169537 
L 412.670726 56.087086 
L 415.341222 56.512823 
L 418.011717 53.895243 
L 420.682212 51.635743 
L 423.352708 50.998643 
L 426.023203 48.872831 
L 428.693698 46.577574 
L 431.364194 45.713827 
L 434.034689 43.460701 
L 436.705184 43.610283 
L 442.046175 42.712549 
L 444.71667 40.056555 
L 447.387166 39.406018 
L 450.057661 38.295624 
L 452.728156 36.738499 
L 455.398652 35.663603 
L 458.069147 34.976638 
L 460.739642 34.985556 
L 463.410138 34.744255 
L 466.080633 32.545383 
L 468.751128 30.950601 
L 471.421624 31.87107 
L 474.092119 30.294768 
L 476.762614 30.571293 
L 479.43311 29.284569 
L 482.103605 29.323191 
L 484.7741 29.022547 
L 487.444596 28.431834 
L 490.115091 28.460334 
L 492.785586 29.766192 
L 495.456082 78.673063 
L 498.126577 75.200822 
L 500.797072 74.738341 
L 503.467568 71.370599 
L 506.138063 66.216972 
L 508.808558 65.99903 
L 511.479054 62.898295 
L 514.149549 61.394971 
L 519.49054 56.479592 
L 522.161035 54.778258 
L 524.83153 55.038008 
L 527.502026 52.787325 
L 530.172521 49.5404 
L 532.843016 47.902141 
L 535.513512 48.025116 
L 538.184007 45.330858 
L 540.854502 43.398702 
L 543.524998 44.217442 
L 546.195493 41.924249 
L 551.536484 39.055198 
L 554.206979 39.396184 
L 556.877474 38.564709 
L 559.54797 34.648308 
L 562.218465 35.575049 
L 564.88896 33.772958 
L 567.559456 34.024296 
L 570.229951 33.621957 
L 572.900446 32.939583 
L 572.900446 32.939583 
" clip-path="url(#pcd275f54f2)" style="fill: none; stroke: #008000; stroke-width: 1.5; stroke-linecap: square"/>
   </g>
   <g id="line2d_7">
    <path d="M 41.471875 22.584337 
L 44.14237 22.517996 
L 46.812866 21.058884 
L 49.483361 21.564427 
L 52.153856 20.765112 
L 54.824352 22.216697 
L 57.494847 21.431284 
L 60.165342 21.2345 
L 62.835838 21.707604 
L 65.506333 76.650758 
L 68.176828 75.730473 
L 70.847324 76.785157 
L 73.517819 74.906333 
L 76.188314 76.542891 
L 84.1998 75.638119 
L 86.870296 76.718433 
L 89.540791 78.126979 
L 92.211286 74.62981 
L 94.881782 76.558751 
L 97.552277 74.30107 
L 100.222772 76.233337 
L 102.893268 76.370969 
L 105.563763 77.549845 
L 108.234258 75.956435 
L 110.904754 75.419452 
L 113.575249 75.152838 
L 116.245744 75.475663 
L 118.91624 74.867186 
L 121.586735 76.572651 
L 124.25723 76.785592 
L 126.927726 75.870717 
L 129.598221 76.545637 
L 132.268716 77.6927 
L 134.939212 75.789831 
L 137.609707 74.603489 
L 140.280202 75.416952 
L 142.950698 74.772231 
L 145.621193 75.772767 
L 148.291688 74.799058 
L 150.962184 77.191843 
L 153.632679 75.474354 
L 156.303174 77.266225 
L 158.97367 76.743935 
L 161.644165 76.108173 
L 164.31466 75.969467 
L 166.985156 74.934193 
L 169.655651 77.173004 
L 172.326146 131.137242 
L 174.996642 130.203116 
L 177.667137 129.012686 
L 183.008128 129.627006 
L 185.678623 130.534971 
L 188.349118 129.693658 
L 191.019614 129.154029 
L 193.690109 130.86037 
L 196.360604 130.295682 
L 199.0311 130.82485 
L 201.701595 130.792766 
L 204.37209 130.944407 
L 207.042586 130.165506 
L 209.713081 128.288951 
L 212.383576 130.831266 
L 217.724567 128.886537 
L 220.395062 130.484985 
L 223.065558 130.588281 
L 225.736053 129.329661 
L 228.406548 129.172462 
L 231.077044 128.817803 
L 236.418034 130.382658 
L 239.08853 129.823521 
L 241.759025 129.46302 
L 244.42952 129.27899 
L 247.100016 130.635799 
L 249.770511 129.224235 
L 252.441006 129.617301 
L 255.111502 128.860661 
L 257.781997 130.748953 
L 260.452492 129.727074 
L 263.122988 130.956019 
L 265.793483 130.595616 
L 268.463978 129.981768 
L 271.134474 130.84838 
L 273.804969 130.07107 
L 276.475464 129.822796 
L 279.14596 185.014372 
L 281.816455 185.01514 
L 284.48695 185.235125 
L 287.157446 184.90628 
L 289.827941 185.25214 
L 292.498436 182.93932 
L 295.168932 183.563436 
L 297.839427 183.282963 
L 303.180418 184.757418 
L 305.850913 184.040446 
L 308.521408 185.863208 
L 311.191904 185.461512 
L 313.862399 184.671979 
L 316.532894 184.137327 
L 319.20339 187.486012 
L 321.873885 184.123389 
L 324.54438 184.215922 
L 327.214876 184.893947 
L 329.885371 184.991094 
L 335.226362 184.638032 
L 337.896857 185.438616 
L 340.567352 182.897509 
L 343.237848 183.399971 
L 345.908343 184.374177 
L 348.578838 184.645438 
L 351.249334 185.178853 
L 353.919829 184.574715 
L 356.590324 186.310509 
L 359.26082 183.95173 
L 361.931315 184.461635 
L 364.60181 185.486634 
L 367.272306 185.34568 
L 369.942801 184.58293 
L 372.613296 183.57235 
L 375.283792 184.593198 
L 377.954287 185.884302 
L 380.624782 185.527516 
L 383.295278 183.921182 
L 385.965773 238.252225 
L 388.636268 239.928333 
L 391.306764 238.595181 
L 393.977259 238.617726 
L 396.647754 239.197801 
L 399.31825 238.901327 
L 401.988745 238.476911 
L 407.329736 238.763295 
L 410.000231 239.629115 
L 412.670726 238.327849 
L 415.341222 239.495123 
L 418.011717 239.694718 
L 420.682212 238.578166 
L 423.352708 239.022343 
L 426.023203 237.874283 
L 428.693698 238.863516 
L 431.364194 239.524585 
L 434.034689 238.604963 
L 436.705184 238.774276 
L 439.37568 239.598777 
L 442.046175 238.978636 
L 444.71667 239.072829 
L 447.387166 238.876946 
L 450.057661 239.660638 
L 452.728156 241.095057 
L 455.398652 239.353982 
L 458.069147 238.83336 
L 460.739642 237.792748 
L 463.410138 239.888389 
L 466.080633 238.252444 
L 468.751128 239.342157 
L 471.421624 240.266347 
L 474.092119 238.642041 
L 476.762614 237.925341 
L 479.43311 237.646991 
L 482.103605 238.000206 
L 484.7741 239.008139 
L 487.444596 238.804567 
L 490.115091 240.292112 
L 492.785586 289.205495 
L 572.900446 289.205495 
L 572.900446 289.205495 
" clip-path="url(#pcd275f54f2)" style="fill: none; stroke: #ff0000; stroke-width: 1.5; stroke-linecap: square"/>
   </g>
   <g id="mpl_toolkits.axisartist.axis_artist_1">
    <defs>
     <path id="m8f7bb4647f" d="M 0 0 
L 0 -3.5 
" style="stroke: #000000; stroke-width: 0.8"/>
    </defs>
    <g>
     <use xlink:href="#m8f7bb4647f" x="68.043304" y="290.564319" style="fill: none; stroke: #000000; stroke-width: 0.8"/>
    </g>
    <g>
     <use xlink:href="#m8f7bb4647f" x="174.329018" y="290.564319" style="fill: none; stroke: #000000; stroke-width: 0.8"/>
    </g>
    <g>
     <use xlink:href="#m8f7bb4647f" x="280.614732" y="290.564319" style="fill: none; stroke: #000000; stroke-width: 0.8"/>
    </g>
    <g>
     <use xlink:href="#m8f7bb4647f" x="386.900446" y="290.564319" style="fill: none; stroke: #000000; stroke-width: 0.8"/>
    </g>
    <g>
     <use xlink:href="#m8f7bb4647f" x="493.186161" y="290.564319" style="fill: none; stroke: #000000; stroke-width: 0.8"/>
    </g>
    <g id="text_1">
     <!-- Session 1 -->
     <g transform="translate(44.195647 301.662756) scale(0.1 -0.1)">
      <defs>
       <path id="DejaVuSans-53" d="M 3425 4513 
L 3425 3897 
Q 3066 4069 2747 4153 
Q 2428 4238 2131 4238 
Q 1616 4238 1336 4038 
Q 1056 3838 1056 3469 
Q 1056 3159 1242 3001 
Q 1428 2844 1947 2747 
L 2328 2669 
Q 3034 2534 3370 2195 
Q 3706 1856 3706 1288 
Q 3706 609 3251 259 
Q 2797 -91 1919 -91 
Q 1588 -91 1214 -16 
Q 841 59 441 206 
L 441 856 
Q 825 641 1194 531 
Q 1563 422 1919 422 
Q 2459 422 2753 634 
Q 3047 847 3047 1241 
Q 3047 1584 2836 1778 
Q 2625 1972 2144 2069 
L 1759 2144 
Q 1053 2284 737 2584 
Q 422 2884 422 3419 
Q 422 4038 858 4394 
Q 1294 4750 2059 4750 
Q 2388 4750 2728 4690 
Q 3069 4631 3425 4513 
z
" transform="scale(0.015625)"/>
       <path id="DejaVuSans-65" d="M 3597 1894 
L 3597 1613 
L 953 1613 
Q 991 1019 1311 708 
Q 1631 397 2203 397 
Q 2534 397 2845 478 
Q 3156 559 3463 722 
L 3463 178 
Q 3153 47 2828 -22 
Q 2503 -91 2169 -91 
Q 1331 -91 842 396 
Q 353 884 353 1716 
Q 353 2575 817 3079 
Q 1281 3584 2069 3584 
Q 2775 3584 3186 3129 
Q 3597 2675 3597 1894 
z
M 3022 2063 
Q 3016 2534 2758 2815 
Q 2500 3097 2075 3097 
Q 1594 3097 1305 2825 
Q 1016 2553 972 2059 
L 3022 2063 
z
" transform="scale(0.015625)"/>
       <path id="DejaVuSans-73" d="M 2834 3397 
L 2834 2853 
Q 2591 2978 2328 3040 
Q 2066 3103 1784 3103 
Q 1356 3103 1142 2972 
Q 928 2841 928 2578 
Q 928 2378 1081 2264 
Q 1234 2150 1697 2047 
L 1894 2003 
Q 2506 1872 2764 1633 
Q 3022 1394 3022 966 
Q 3022 478 2636 193 
Q 2250 -91 1575 -91 
Q 1294 -91 989 -36 
Q 684 19 347 128 
L 347 722 
Q 666 556 975 473 
Q 1284 391 1588 391 
Q 1994 391 2212 530 
Q 2431 669 2431 922 
Q 2431 1156 2273 1281 
Q 2116 1406 1581 1522 
L 1381 1569 
Q 847 1681 609 1914 
Q 372 2147 372 2553 
Q 372 3047 722 3315 
Q 1072 3584 1716 3584 
Q 2034 3584 2315 3537 
Q 2597 3491 2834 3397 
z
" transform="scale(0.015625)"/>
       <path id="DejaVuSans-69" d="M 603 3500 
L 1178 3500 
L 1178 0 
L 603 0 
L 603 3500 
z
M 603 4863 
L 1178 4863 
L 1178 4134 
L 603 4134 
L 603 4863 
z
" transform="scale(0.015625)"/>
       <path id="DejaVuSans-6f" d="M 1959 3097 
Q 1497 3097 1228 2736 
Q 959 2375 959 1747 
Q 959 1119 1226 758 
Q 1494 397 1959 397 
Q 2419 397 2687 759 
Q 2956 1122 2956 1747 
Q 2956 2369 2687 2733 
Q 2419 3097 1959 3097 
z
M 1959 3584 
Q 2709 3584 3137 3096 
Q 3566 2609 3566 1747 
Q 3566 888 3137 398 
Q 2709 -91 1959 -91 
Q 1206 -91 779 398 
Q 353 888 353 1747 
Q 353 2609 779 3096 
Q 1206 3584 1959 3584 
z
" transform="scale(0.015625)"/>
       <path id="DejaVuSans-6e" d="M 3513 2113 
L 3513 0 
L 2938 0 
L 2938 2094 
Q 2938 2591 2744 2837 
Q 2550 3084 2163 3084 
Q 1697 3084 1428 2787 
Q 1159 2491 1159 1978 
L 1159 0 
L 581 0 
L 581 3500 
L 1159 3500 
L 1159 2956 
Q 1366 3272 1645 3428 
Q 1925 3584 2291 3584 
Q 2894 3584 3203 3211 
Q 3513 2838 3513 2113 
z
" transform="scale(0.015625)"/>
       <path id="DejaVuSans-20" transform="scale(0.015625)"/>
       <path id="DejaVuSans-31" d="M 794 531 
L 1825 531 
L 1825 4091 
L 703 3866 
L 703 4441 
L 1819 4666 
L 2450 4666 
L 2450 531 
L 3481 531 
L 3481 0 
L 794 0 
L 794 531 
z
" transform="scale(0.015625)"/>
      </defs>
      <use xlink:href="#DejaVuSans-53"/>
      <use xlink:href="#DejaVuSans-65" x="63.476562"/>
      <use xlink:href="#DejaVuSans-73" x="125"/>
      <use xlink:href="#DejaVuSans-73" x="177.099609"/>
      <use xlink:href="#DejaVuSans-69" x="229.199219"/>
      <use xlink:href="#DejaVuSans-6f" x="256.982422"/>
      <use xlink:href="#DejaVuSans-6e" x="318.164062"/>
      <use xlink:href="#DejaVuSans-20" x="381.542969"/>
      <use xlink:href="#DejaVuSans-31" x="413.330078"/>
     </g>
    </g>
    <g id="text_2">
     <!-- Session 2 -->
     <g transform="translate(150.481362 301.662756) scale(0.1 -0.1)">
      <defs>
       <path id="DejaVuSans-32" d="M 1228 531 
L 3431 531 
L 3431 0 
L 469 0 
L 469 531 
Q 828 903 1448 1529 
Q 2069 2156 2228 2338 
Q 2531 2678 2651 2914 
Q 2772 3150 2772 3378 
Q 2772 3750 2511 3984 
Q 2250 4219 1831 4219 
Q 1534 4219 1204 4116 
Q 875 4013 500 3803 
L 500 4441 
Q 881 4594 1212 4672 
Q 1544 4750 1819 4750 
Q 2544 4750 2975 4387 
Q 3406 4025 3406 3419 
Q 3406 3131 3298 2873 
Q 3191 2616 2906 2266 
Q 2828 2175 2409 1742 
Q 1991 1309 1228 531 
z
" transform="scale(0.015625)"/>
      </defs>
      <use xlink:href="#DejaVuSans-53"/>
      <use xlink:href="#DejaVuSans-65" x="63.476562"/>
      <use xlink:href="#DejaVuSans-73" x="125"/>
      <use xlink:href="#DejaVuSans-73" x="177.099609"/>
      <use xlink:href="#DejaVuSans-69" x="229.199219"/>
      <use xlink:href="#DejaVuSans-6f" x="256.982422"/>
      <use xlink:href="#DejaVuSans-6e" x="318.164062"/>
      <use xlink:href="#DejaVuSans-20" x="381.542969"/>
      <use xlink:href="#DejaVuSans-32" x="413.330078"/>
     </g>
    </g>
    <g id="text_3">
     <!-- Session 3 -->
     <g transform="translate(256.767076 301.662756) scale(0.1 -0.1)">
      <defs>
       <path id="DejaVuSans-33" d="M 2597 2516 
Q 3050 2419 3304 2112 
Q 3559 1806 3559 1356 
Q 3559 666 3084 287 
Q 2609 -91 1734 -91 
Q 1441 -91 1130 -33 
Q 819 25 488 141 
L 488 750 
Q 750 597 1062 519 
Q 1375 441 1716 441 
Q 2309 441 2620 675 
Q 2931 909 2931 1356 
Q 2931 1769 2642 2001 
Q 2353 2234 1838 2234 
L 1294 2234 
L 1294 2753 
L 1863 2753 
Q 2328 2753 2575 2939 
Q 2822 3125 2822 3475 
Q 2822 3834 2567 4026 
Q 2313 4219 1838 4219 
Q 1578 4219 1281 4162 
Q 984 4106 628 3988 
L 628 4550 
Q 988 4650 1302 4700 
Q 1616 4750 1894 4750 
Q 2613 4750 3031 4423 
Q 3450 4097 3450 3541 
Q 3450 3153 3228 2886 
Q 3006 2619 2597 2516 
z
" transform="scale(0.015625)"/>
      </defs>
      <use xlink:href="#DejaVuSans-53"/>
      <use xlink:href="#DejaVuSans-65" x="63.476562"/>
      <use xlink:href="#DejaVuSans-73" x="125"/>
      <use xlink:href="#DejaVuSans-73" x="177.099609"/>
      <use xlink:href="#DejaVuSans-69" x="229.199219"/>
      <use xlink:href="#DejaVuSans-6f" x="256.982422"/>
      <use xlink:href="#DejaVuSans-6e" x="318.164062"/>
      <use xlink:href="#DejaVuSans-20" x="381.542969"/>
      <use xlink:href="#DejaVuSans-33" x="413.330078"/>
     </g>
    </g>
    <g id="text_4">
     <!-- Session 4 -->
     <g transform="translate(363.05279 301.662756) scale(0.1 -0.1)">
      <defs>
       <path id="DejaVuSans-34" d="M 2419 4116 
L 825 1625 
L 2419 1625 
L 2419 4116 
z
M 2253 4666 
L 3047 4666 
L 3047 1625 
L 3713 1625 
L 3713 1100 
L 3047 1100 
L 3047 0 
L 2419 0 
L 2419 1100 
L 313 1100 
L 313 1709 
L 2253 4666 
z
" transform="scale(0.015625)"/>
      </defs>
      <use xlink:href="#DejaVuSans-53"/>
      <use xlink:href="#DejaVuSans-65" x="63.476562"/>
      <use xlink:href="#DejaVuSans-73" x="125"/>
      <use xlink:href="#DejaVuSans-73" x="177.099609"/>
      <use xlink:href="#DejaVuSans-69" x="229.199219"/>
      <use xlink:href="#DejaVuSans-6f" x="256.982422"/>
      <use xlink:href="#DejaVuSans-6e" x="318.164062"/>
      <use xlink:href="#DejaVuSans-20" x="381.542969"/>
      <use xlink:href="#DejaVuSans-34" x="413.330078"/>
     </g>
    </g>
    <g id="text_5">
     <!-- Session 5 -->
     <g transform="translate(469.338504 301.662756) scale(0.1 -0.1)">
      <defs>
       <path id="DejaVuSans-35" d="M 691 4666 
L 3169 4666 
L 3169 4134 
L 1269 4134 
L 1269 2991 
Q 1406 3038 1543 3061 
Q 1681 3084 1819 3084 
Q 2600 3084 3056 2656 
Q 3513 2228 3513 1497 
Q 3513 744 3044 326 
Q 2575 -91 1722 -91 
Q 1428 -91 1123 -41 
Q 819 9 494 109 
L 494 744 
Q 775 591 1075 516 
Q 1375 441 1709 441 
Q 2250 441 2565 725 
Q 2881 1009 2881 1497 
Q 2881 1984 2565 2268 
Q 2250 2553 1709 2553 
Q 1456 2553 1204 2497 
Q 953 2441 691 2322 
L 691 4666 
z
" transform="scale(0.015625)"/>
      </defs>
      <use xlink:href="#DejaVuSans-53"/>
      <use xlink:href="#DejaVuSans-65" x="63.476562"/>
      <use xlink:href="#DejaVuSans-73" x="125"/>
      <use xlink:href="#DejaVuSans-73" x="177.099609"/>
      <use xlink:href="#DejaVuSans-69" x="229.199219"/>
      <use xlink:href="#DejaVuSans-6f" x="256.982422"/>
      <use xlink:href="#DejaVuSans-6e" x="318.164062"/>
      <use xlink:href="#DejaVuSans-20" x="381.542969"/>
      <use xlink:href="#DejaVuSans-35" x="413.330078"/>
     </g>
    </g>
    <g id="patch_3">
     <path d="M 41.471875 290.564319 
L 599.471875 290.564319 
L 608.353841 290.564319 
" style="fill: none; stroke: #000000; stroke-linecap: round"/>
     <path d="M 604.353841 288.564319 
L 608.353841 290.564319 
L 604.353841 292.564319 
z
" style="stroke: #000000; stroke-linecap: round"/>
    </g>
    <g id="text_6">
     <!-- Time -->
     <g transform="translate(308.238281 314.403381) scale(0.1 -0.1)">
      <defs>
       <path id="DejaVuSans-54" d="M -19 4666 
L 3928 4666 
L 3928 4134 
L 2272 4134 
L 2272 0 
L 1638 0 
L 1638 4134 
L -19 4134 
L -19 4666 
z
" transform="scale(0.015625)"/>
       <path id="DejaVuSans-6d" d="M 3328 2828 
Q 3544 3216 3844 3400 
Q 4144 3584 4550 3584 
Q 5097 3584 5394 3201 
Q 5691 2819 5691 2113 
L 5691 0 
L 5113 0 
L 5113 2094 
Q 5113 2597 4934 2840 
Q 4756 3084 4391 3084 
Q 3944 3084 3684 2787 
Q 3425 2491 3425 1978 
L 3425 0 
L 2847 0 
L 2847 2094 
Q 2847 2600 2669 2842 
Q 2491 3084 2119 3084 
Q 1678 3084 1418 2786 
Q 1159 2488 1159 1978 
L 1159 0 
L 581 0 
L 581 3500 
L 1159 3500 
L 1159 2956 
Q 1356 3278 1631 3431 
Q 1906 3584 2284 3584 
Q 2666 3584 2933 3390 
Q 3200 3197 3328 2828 
z
" transform="scale(0.015625)"/>
      </defs>
      <use xlink:href="#DejaVuSans-54"/>
      <use xlink:href="#DejaVuSans-69" x="57.958984"/>
      <use xlink:href="#DejaVuSans-6d" x="85.742188"/>
      <use xlink:href="#DejaVuSans-65" x="183.154297"/>
     </g>
    </g>
   </g>
   <g id="mpl_toolkits.axisartist.axis_artist_2">
    <defs>
     <path id="m2d74d14546" d="M 0 0 
L 3.5 0 
" style="stroke: #000000; stroke-width: 0.8"/>
    </defs>
    <g>
     <use xlink:href="#m2d74d14546" x="41.471875" y="290.564319" style="fill: none; stroke: #000000; stroke-width: 0.8"/>
    </g>
    <g>
     <use xlink:href="#m2d74d14546" x="41.471875" y="222.623142" style="fill: none; stroke: #000000; stroke-width: 0.8"/>
    </g>
    <g>
     <use xlink:href="#m2d74d14546" x="41.471875" y="154.681966" style="fill: none; stroke: #000000; stroke-width: 0.8"/>
    </g>
    <g>
     <use xlink:href="#m2d74d14546" x="41.471875" y="86.74079" style="fill: none; stroke: #000000; stroke-width: 0.8"/>
    </g>
    <g>
     <use xlink:href="#m2d74d14546" x="41.471875" y="18.799613" style="fill: none; stroke: #000000; stroke-width: 0.8"/>
    </g>
    <g id="text_7">
     <!-- 0 -->
     <g transform="translate(31.609375 293.323694) scale(0.1 -0.1)">
      <defs>
       <path id="DejaVuSans-30" d="M 2034 4250 
Q 1547 4250 1301 3770 
Q 1056 3291 1056 2328 
Q 1056 1369 1301 889 
Q 1547 409 2034 409 
Q 2525 409 2770 889 
Q 3016 1369 3016 2328 
Q 3016 3291 2770 3770 
Q 2525 4250 2034 4250 
z
M 2034 4750 
Q 2819 4750 3233 4129 
Q 3647 3509 3647 2328 
Q 3647 1150 3233 529 
Q 2819 -91 2034 -91 
Q 1250 -91 836 529 
Q 422 1150 422 2328 
Q 422 3509 836 4129 
Q 1250 4750 2034 4750 
z
" transform="scale(0.015625)"/>
      </defs>
      <use xlink:href="#DejaVuSans-30"/>
     </g>
    </g>
    <g id="text_8">
     <!-- 1/4 -->
     <g transform="translate(21.878125 225.382517) scale(0.1 -0.1)">
      <defs>
       <path id="DejaVuSans-2f" d="M 1625 4666 
L 2156 4666 
L 531 -594 
L 0 -594 
L 1625 4666 
z
" transform="scale(0.015625)"/>
      </defs>
      <use xlink:href="#DejaVuSans-31"/>
      <use xlink:href="#DejaVuSans-2f" x="63.623047"/>
      <use xlink:href="#DejaVuSans-34" x="97.314453"/>
     </g>
    </g>
    <g id="text_9">
     <!-- 1/2 -->
     <g transform="translate(21.878125 157.441341) scale(0.1 -0.1)">
      <use xlink:href="#DejaVuSans-31"/>
      <use xlink:href="#DejaVuSans-2f" x="63.623047"/>
      <use xlink:href="#DejaVuSans-32" x="97.314453"/>
     </g>
    </g>
    <g id="text_10">
     <!-- 3/4 -->
     <g transform="translate(21.878125 89.500165) scale(0.1 -0.1)">
      <use xlink:href="#DejaVuSans-33"/>
      <use xlink:href="#DejaVuSans-2f" x="63.623047"/>
      <use xlink:href="#DejaVuSans-34" x="97.314453"/>
     </g>
    </g>
    <g id="text_11">
     <!-- 1 -->
     <g transform="translate(31.609375 21.558988) scale(0.1 -0.1)">
      <use xlink:href="#DejaVuSans-31"/>
     </g>
    </g>
    <g id="patch_4">
     <path d="M 41.471875 293.281966 
L 41.471875 16.081966 
L 41.471875 7.2 
" style="fill: none; stroke: #000000; stroke-linecap: round"/>
     <path d="M 39.471875 11.2 
L 41.471875 7.2 
L 43.471875 11.2 
z
" style="stroke: #000000; stroke-linecap: round"/>
    </g>
    <g id="text_12">
     <!-- DNA Quality -->
     <g transform="translate(14.798438 185.148372) rotate(-90) scale(0.1 -0.1)">
      <defs>
       <path id="DejaVuSans-44" d="M 1259 4147 
L 1259 519 
L 2022 519 
Q 2988 519 3436 956 
Q 3884 1394 3884 2338 
Q 3884 3275 3436 3711 
Q 2988 4147 2022 4147 
L 1259 4147 
z
M 628 4666 
L 1925 4666 
Q 3281 4666 3915 4102 
Q 4550 3538 4550 2338 
Q 4550 1131 3912 565 
Q 3275 0 1925 0 
L 628 0 
L 628 4666 
z
" transform="scale(0.015625)"/>
       <path id="DejaVuSans-4e" d="M 628 4666 
L 1478 4666 
L 3547 763 
L 3547 4666 
L 4159 4666 
L 4159 0 
L 3309 0 
L 1241 3903 
L 1241 0 
L 628 0 
L 628 4666 
z
" transform="scale(0.015625)"/>
       <path id="DejaVuSans-41" d="M 2188 4044 
L 1331 1722 
L 3047 1722 
L 2188 4044 
z
M 1831 4666 
L 2547 4666 
L 4325 0 
L 3669 0 
L 3244 1197 
L 1141 1197 
L 716 0 
L 50 0 
L 1831 4666 
z
" transform="scale(0.015625)"/>
       <path id="DejaVuSans-51" d="M 2522 4238 
Q 1834 4238 1429 3725 
Q 1025 3213 1025 2328 
Q 1025 1447 1429 934 
Q 1834 422 2522 422 
Q 3209 422 3611 934 
Q 4013 1447 4013 2328 
Q 4013 3213 3611 3725 
Q 3209 4238 2522 4238 
z
M 3406 84 
L 4238 -825 
L 3475 -825 
L 2784 -78 
Q 2681 -84 2626 -87 
Q 2572 -91 2522 -91 
Q 1538 -91 948 567 
Q 359 1225 359 2328 
Q 359 3434 948 4092 
Q 1538 4750 2522 4750 
Q 3503 4750 4090 4092 
Q 4678 3434 4678 2328 
Q 4678 1516 4351 937 
Q 4025 359 3406 84 
z
" transform="scale(0.015625)"/>
       <path id="DejaVuSans-75" d="M 544 1381 
L 544 3500 
L 1119 3500 
L 1119 1403 
Q 1119 906 1312 657 
Q 1506 409 1894 409 
Q 2359 409 2629 706 
Q 2900 1003 2900 1516 
L 2900 3500 
L 3475 3500 
L 3475 0 
L 2900 0 
L 2900 538 
Q 2691 219 2414 64 
Q 2138 -91 1772 -91 
Q 1169 -91 856 284 
Q 544 659 544 1381 
z
M 1991 3584 
L 1991 3584 
z
" transform="scale(0.015625)"/>
       <path id="DejaVuSans-61" d="M 2194 1759 
Q 1497 1759 1228 1600 
Q 959 1441 959 1056 
Q 959 750 1161 570 
Q 1363 391 1709 391 
Q 2188 391 2477 730 
Q 2766 1069 2766 1631 
L 2766 1759 
L 2194 1759 
z
M 3341 1997 
L 3341 0 
L 2766 0 
L 2766 531 
Q 2569 213 2275 61 
Q 1981 -91 1556 -91 
Q 1019 -91 701 211 
Q 384 513 384 1019 
Q 384 1609 779 1909 
Q 1175 2209 1959 2209 
L 2766 2209 
L 2766 2266 
Q 2766 2663 2505 2880 
Q 2244 3097 1772 3097 
Q 1472 3097 1187 3025 
Q 903 2953 641 2809 
L 641 3341 
Q 956 3463 1253 3523 
Q 1550 3584 1831 3584 
Q 2591 3584 2966 3190 
Q 3341 2797 3341 1997 
z
" transform="scale(0.015625)"/>
       <path id="DejaVuSans-6c" d="M 603 4863 
L 1178 4863 
L 1178 0 
L 603 0 
L 603 4863 
z
" transform="scale(0.015625)"/>
       <path id="DejaVuSans-74" d="M 1172 4494 
L 1172 3500 
L 2356 3500 
L 2356 3053 
L 1172 3053 
L 1172 1153 
Q 1172 725 1289 603 
Q 1406 481 1766 481 
L 2356 481 
L 2356 0 
L 1766 0 
Q 1100 0 847 248 
Q 594 497 594 1153 
L 594 3053 
L 172 3053 
L 172 3500 
L 594 3500 
L 594 4494 
L 1172 4494 
z
" transform="scale(0.015625)"/>
       <path id="DejaVuSans-79" d="M 2059 -325 
Q 1816 -950 1584 -1140 
Q 1353 -1331 966 -1331 
L 506 -1331 
L 506 -850 
L 844 -850 
Q 1081 -850 1212 -737 
Q 1344 -625 1503 -206 
L 1606 56 
L 191 3500 
L 800 3500 
L 1894 763 
L 2988 3500 
L 3597 3500 
L 2059 -325 
z
" transform="scale(0.015625)"/>
      </defs>
      <use xlink:href="#DejaVuSans-44"/>
      <use xlink:href="#DejaVuSans-4e" x="77.001953"/>
      <use xlink:href="#DejaVuSans-41" x="151.806641"/>
      <use xlink:href="#DejaVuSans-20" x="220.214844"/>
      <use xlink:href="#DejaVuSans-51" x="252.001953"/>
      <use xlink:href="#DejaVuSans-75" x="330.712891"/>
      <use xlink:href="#DejaVuSans-61" x="394.091797"/>
      <use xlink:href="#DejaVuSans-6c" x="455.371094"/>
      <use xlink:href="#DejaVuSans-69" x="483.154297"/>
      <use xlink:href="#DejaVuSans-74" x="510.9375"/>
      <use xlink:href="#DejaVuSans-79" x="550.146484"/>
     </g>
    </g>
   </g>
   <g id="legend_1">
    <g id="patch_5">
     <path d="M 501.329688 170.860091 
L 592.471875 170.860091 
Q 594.471875 170.860091 594.471875 168.860091 
L 594.471875 140.503841 
Q 594.471875 138.503841 592.471875 138.503841 
L 501.329688 138.503841 
Q 499.329688 138.503841 499.329688 140.503841 
L 499.329688 168.860091 
Q 499.329688 170.860091 501.329688 170.860091 
z
" style="fill: #ffffff; opacity: 0.8; stroke: #cccccc; stroke-linejoin: miter"/>
    </g>
    <g id="line2d_8">
     <path d="M 503.329688 146.602279 
L 513.329688 146.602279 
L 523.329688 146.602279 
" style="fill: none; stroke: #008000; stroke-width: 1.5; stroke-linecap: square"/>
    </g>
    <g id="text_13">
     <!-- Healthy cell -->
     <g transform="translate(531.329688 150.102279) scale(0.1 -0.1)">
      <defs>
       <path id="DejaVuSans-48" d="M 628 4666 
L 1259 4666 
L 1259 2753 
L 3553 2753 
L 3553 4666 
L 4184 4666 
L 4184 0 
L 3553 0 
L 3553 2222 
L 1259 2222 
L 1259 0 
L 628 0 
L 628 4666 
z
" transform="scale(0.015625)"/>
       <path id="DejaVuSans-68" d="M 3513 2113 
L 3513 0 
L 2938 0 
L 2938 2094 
Q 2938 2591 2744 2837 
Q 2550 3084 2163 3084 
Q 1697 3084 1428 2787 
Q 1159 2491 1159 1978 
L 1159 0 
L 581 0 
L 581 4863 
L 1159 4863 
L 1159 2956 
Q 1366 3272 1645 3428 
Q 1925 3584 2291 3584 
Q 2894 3584 3203 3211 
Q 3513 2838 3513 2113 
z
" transform="scale(0.015625)"/>
       <path id="DejaVuSans-63" d="M 3122 3366 
L 3122 2828 
Q 2878 2963 2633 3030 
Q 2388 3097 2138 3097 
Q 1578 3097 1268 2742 
Q 959 2388 959 1747 
Q 959 1106 1268 751 
Q 1578 397 2138 397 
Q 2388 397 2633 464 
Q 2878 531 3122 666 
L 3122 134 
Q 2881 22 2623 -34 
Q 2366 -91 2075 -91 
Q 1284 -91 818 406 
Q 353 903 353 1747 
Q 353 2603 823 3093 
Q 1294 3584 2113 3584 
Q 2378 3584 2631 3529 
Q 2884 3475 3122 3366 
z
" transform="scale(0.015625)"/>
      </defs>
      <use xlink:href="#DejaVuSans-48"/>
      <use xlink:href="#DejaVuSans-65" x="75.195312"/>
      <use xlink:href="#DejaVuSans-61" x="136.71875"/>
      <use xlink:href="#DejaVuSans-6c" x="197.998047"/>
      <use xlink:href="#DejaVuSans-74" x="225.78125"/>
      <use xlink:href="#DejaVuSans-68" x="264.990234"/>
      <use xlink:href="#DejaVuSans-79" x="328.369141"/>
      <use xlink:href="#DejaVuSans-20" x="387.548828"/>
      <use xlink:href="#DejaVuSans-63" x="419.335938"/>
      <use xlink:href="#DejaVuSans-65" x="474.316406"/>
      <use xlink:href="#DejaVuSans-6c" x="535.839844"/>
      <use xlink:href="#DejaVuSans-6c" x="563.623047"/>
     </g>
    </g>
    <g id="line2d_9">
     <path d="M 503.329688 161.280404 
L 513.329688 161.280404 
L 523.329688 161.280404 
" style="fill: none; stroke: #ff0000; stroke-width: 1.5; stroke-linecap: square"/>
    </g>
    <g id="text_14">
     <!-- Tumor cell -->
     <g transform="translate(531.329688 164.780404) scale(0.1 -0.1)">
      <defs>
       <path id="DejaVuSans-72" d="M 2631 2963 
Q 2534 3019 2420 3045 
Q 2306 3072 2169 3072 
Q 1681 3072 1420 2755 
Q 1159 2438 1159 1844 
L 1159 0 
L 581 0 
L 581 3500 
L 1159 3500 
L 1159 2956 
Q 1341 3275 1631 3429 
Q 1922 3584 2338 3584 
Q 2397 3584 2469 3576 
Q 2541 3569 2628 3553 
L 2631 2963 
z
" transform="scale(0.015625)"/>
      </defs>
      <use xlink:href="#DejaVuSans-54"/>
      <use xlink:href="#DejaVuSans-75" x="45.958984"/>
      <use xlink:href="#DejaVuSans-6d" x="109.337891"/>
      <use xlink:href="#DejaVuSans-6f" x="206.75"/>
      <use xlink:href="#DejaVuSans-72" x="267.931641"/>
      <use xlink:href="#DejaVuSans-20" x="309.044922"/>
      <use xlink:href="#DejaVuSans-63" x="340.832031"/>
      <use xlink:href="#DejaVuSans-65" x="395.8125"/>
      <use xlink:href="#DejaVuSans-6c" x="457.335938"/>
      <use xlink:href="#DejaVuSans-6c" x="485.119141"/>
     </g>
    </g>
   </g>
  </g>
 </g>
 <defs>
  <clipPath id="pcd275f54f2">
   <rect x="41.471875" y="16.081966" width="558" height="277.2"/>
  </clipPath>
 </defs>
</svg>
