<?xml version="1.0" encoding="UTF-8" standalone="no"?>
<!-- Created with Inkscape (http://www.inkscape.org/) -->

<svg
   version="1.1"
   id="svg1"
   width="181.33333"
   height="778.56665"
   viewBox="0 0 181.33333 778.56665"
   sodipodi:docname="_fluence_leaf_sequencing_legend.svg"
   inkscape:version="1.3.2 (091e20e, 2023-11-25, custom)"
   xmlns:inkscape="http://www.inkscape.org/namespaces/inkscape"
   xmlns:sodipodi="http://sodipodi.sourceforge.net/DTD/sodipodi-0.dtd"
   xmlns="http://www.w3.org/2000/svg"
   xmlns:svg="http://www.w3.org/2000/svg">
  <defs
     id="defs1">
    <clipPath
       clipPathUnits="userSpaceOnUse"
       id="clipPath2">
      <path
         d="M 0,0 H 136 V 584 H 0 Z"
         id="path2" />
    </clipPath>
    <clipPath
       clipPathUnits="userSpaceOnUse"
       id="clipPath4">
      <path
         d="m 0,409 h 136 v 61 H 0 Z"
         transform="scale(1.3333333)"
         id="path4" />
    </clipPath>
    <clipPath
       clipPathUnits="userSpaceOnUse"
       id="clipPath6">
      <path
         d="m 0,409 h 136 v 61 H 0 Z"
         id="path6" />
    </clipPath>
    <clipPath
       clipPathUnits="userSpaceOnUse"
       id="clipPath8">
      <path
         d="m 0,409 h 136 v 61 H 0 Z"
         id="path8" />
    </clipPath>
    <clipPath
       clipPathUnits="userSpaceOnUse"
       id="clipPath10">
      <path
         d="m 0,409 h 136 v 61 H 0 Z"
         id="path10" />
    </clipPath>
    <clipPath
       clipPathUnits="userSpaceOnUse"
       id="clipPath12">
      <path
         d="m 0,409 h 136 v 61 H 0 Z"
         id="path12" />
    </clipPath>
    <clipPath
       clipPathUnits="userSpaceOnUse"
       id="clipPath14">
      <path
         d="m 0,409 h 136 v 61 H 0 Z"
         id="path14" />
    </clipPath>
    <clipPath
       clipPathUnits="userSpaceOnUse"
       id="clipPath16">
      <path
         d="m 0,409 h 136 v 61 H 0 Z"
         id="path16" />
    </clipPath>
    <clipPath
       clipPathUnits="userSpaceOnUse"
       id="clipPath18">
      <path
         d="m 0,409 h 136 v 61 H 0 Z"
         id="path18" />
    </clipPath>
    <clipPath
       clipPathUnits="userSpaceOnUse"
       id="clipPath20">
      <path
         d="m 0,409 h 136 v 61 H 0 Z"
         id="path20" />
    </clipPath>
    <clipPath
       clipPathUnits="userSpaceOnUse"
       id="clipPath22">
      <path
         d="m 0,409 h 136 v 61 H 0 Z"
         id="path22" />
    </clipPath>
    <clipPath
       clipPathUnits="userSpaceOnUse"
       id="clipPath24">
      <path
         d="m 0,409 h 136 v 61 H 0 Z"
         id="path24" />
    </clipPath>
    <clipPath
       clipPathUnits="userSpaceOnUse"
       id="clipPath26">
      <path
         d="m 0,409 h 136 v 61 H 0 Z"
         id="path26" />
    </clipPath>
    <clipPath
       clipPathUnits="userSpaceOnUse"
       id="clipPath28">
      <path
         d="m 0,409 h 136 v 61 H 0 Z"
         id="path28" />
    </clipPath>
    <clipPath
       clipPathUnits="userSpaceOnUse"
       id="clipPath30">
      <path
         d="m 0,409 h 136 v 61 H 0 Z"
         id="path30" />
    </clipPath>
    <clipPath
       clipPathUnits="userSpaceOnUse"
       id="clipPath32">
      <path
         d="m 0,409 h 136 v 61 H 0 Z"
         id="path32" />
    </clipPath>
    <clipPath
       clipPathUnits="userSpaceOnUse"
       id="clipPath34">
      <path
         d="m 0,409 h 136 v 61 H 0 Z"
         id="path34" />
    </clipPath>
    <clipPath
       clipPathUnits="userSpaceOnUse"
       id="clipPath36">
      <path
         d="m 0,409 h 136 v 61 H 0 Z"
         id="path36" />
    </clipPath>
    <clipPath
       clipPathUnits="userSpaceOnUse"
       id="clipPath38">
      <path
         d="m 0,409 h 136 v 61 H 0 Z"
         id="path38" />
    </clipPath>
    <clipPath
       clipPathUnits="userSpaceOnUse"
       id="clipPath40">
      <path
         d="m 0,409 h 136 v 61 H 0 Z"
         id="path40" />
    </clipPath>
    <clipPath
       clipPathUnits="userSpaceOnUse"
       id="clipPath42">
      <path
         d="m 0,409 h 136 v 61 H 0 Z"
         id="path42" />
    </clipPath>
    <clipPath
       clipPathUnits="userSpaceOnUse"
       id="clipPath44">
      <path
         d="m 0,409 h 136 v 61 H 0 Z"
         id="path44" />
    </clipPath>
    <clipPath
       clipPathUnits="userSpaceOnUse"
       id="clipPath46">
      <path
         d="m 0,409 h 136 v 61 H 0 Z"
         id="path46" />
    </clipPath>
    <clipPath
       clipPathUnits="userSpaceOnUse"
       id="clipPath48">
      <path
         d="m 0,409 h 136 v 61 H 0 Z"
         id="path48" />
    </clipPath>
    <clipPath
       clipPathUnits="userSpaceOnUse"
       id="clipPath50">
      <path
         d="m 0,409 h 136 v 61 H 0 Z"
         id="path50" />
    </clipPath>
    <clipPath
       clipPathUnits="userSpaceOnUse"
       id="clipPath52">
      <path
         d="m 0,409 h 136 v 61 H 0 Z"
         id="path52" />
    </clipPath>
    <clipPath
       clipPathUnits="userSpaceOnUse"
       id="clipPath54">
      <path
         d="m 0,409 h 136 v 61 H 0 Z"
         id="path54" />
    </clipPath>
    <clipPath
       clipPathUnits="userSpaceOnUse"
       id="clipPath56">
      <path
         d="m 0,409 h 136 v 61 H 0 Z"
         id="path56" />
    </clipPath>
    <clipPath
       clipPathUnits="userSpaceOnUse"
       id="clipPath58">
      <path
         d="m 0,409 h 136 v 61 H 0 Z"
         id="path58" />
    </clipPath>
    <clipPath
       clipPathUnits="userSpaceOnUse"
       id="clipPath60">
      <path
         d="m 0,409 h 136 v 61 H 0 Z"
         id="path60" />
    </clipPath>
    <clipPath
       clipPathUnits="userSpaceOnUse"
       id="clipPath62">
      <path
         d="m 0,409 h 136 v 61 H 0 Z"
         id="path62" />
    </clipPath>
    <clipPath
       clipPathUnits="userSpaceOnUse"
       id="clipPath64">
      <path
         d="m 0,409 h 136 v 61 H 0 Z"
         id="path64" />
    </clipPath>
    <clipPath
       clipPathUnits="userSpaceOnUse"
       id="clipPath66">
      <path
         d="m 0,409 h 136 v 61 H 0 Z"
         id="path66" />
    </clipPath>
    <clipPath
       clipPathUnits="userSpaceOnUse"
       id="clipPath68">
      <path
         d="m 0,409 h 136 v 61 H 0 Z"
         id="path68" />
    </clipPath>
    <clipPath
       clipPathUnits="userSpaceOnUse"
       id="clipPath70">
      <path
         d="m 0,409 h 136 v 61 H 0 Z"
         id="path70" />
    </clipPath>
    <clipPath
       clipPathUnits="userSpaceOnUse"
       id="clipPath72">
      <path
         d="m 0,409 h 136 v 61 H 0 Z"
         id="path72" />
    </clipPath>
    <clipPath
       clipPathUnits="userSpaceOnUse"
       id="clipPath74">
      <path
         d="m 0,409 h 136 v 61 H 0 Z"
         id="path74" />
    </clipPath>
    <clipPath
       clipPathUnits="userSpaceOnUse"
       id="clipPath76">
      <path
         d="M 0,0 H 136 V 584 H 0 Z"
         id="path76" />
    </clipPath>
    <clipPath
       clipPathUnits="userSpaceOnUse"
       id="clipPath78">
      <path
         d="m 0,129 h 136 v 61 H 0 Z"
         transform="scale(1.3333333)"
         id="path78" />
    </clipPath>
    <clipPath
       clipPathUnits="userSpaceOnUse"
       id="clipPath80">
      <path
         d="m 0,129 h 136 v 61 H 0 Z"
         id="path80" />
    </clipPath>
    <clipPath
       clipPathUnits="userSpaceOnUse"
       id="clipPath82">
      <path
         d="m 0,129 h 136 v 61 H 0 Z"
         id="path82" />
    </clipPath>
    <clipPath
       clipPathUnits="userSpaceOnUse"
       id="clipPath84">
      <path
         d="m 0,129 h 136 v 61 H 0 Z"
         id="path84" />
    </clipPath>
    <clipPath
       clipPathUnits="userSpaceOnUse"
       id="clipPath86">
      <path
         d="m 0,129 h 136 v 61 H 0 Z"
         id="path86" />
    </clipPath>
    <clipPath
       clipPathUnits="userSpaceOnUse"
       id="clipPath88">
      <path
         d="m 0,129 h 136 v 61 H 0 Z"
         id="path88" />
    </clipPath>
    <clipPath
       clipPathUnits="userSpaceOnUse"
       id="clipPath90">
      <path
         d="m 0,129 h 136 v 61 H 0 Z"
         id="path90" />
    </clipPath>
    <clipPath
       clipPathUnits="userSpaceOnUse"
       id="clipPath92">
      <path
         d="m 0,129 h 136 v 61 H 0 Z"
         id="path92" />
    </clipPath>
    <clipPath
       clipPathUnits="userSpaceOnUse"
       id="clipPath94">
      <path
         d="m 0,129 h 136 v 61 H 0 Z"
         id="path94" />
    </clipPath>
    <clipPath
       clipPathUnits="userSpaceOnUse"
       id="clipPath96">
      <path
         d="m 0,129 h 136 v 61 H 0 Z"
         id="path96" />
    </clipPath>
    <clipPath
       clipPathUnits="userSpaceOnUse"
       id="clipPath98">
      <path
         d="m 0,129 h 136 v 61 H 0 Z"
         id="path98" />
    </clipPath>
    <clipPath
       clipPathUnits="userSpaceOnUse"
       id="clipPath100">
      <path
         d="m 0,129 h 136 v 61 H 0 Z"
         id="path100" />
    </clipPath>
    <clipPath
       clipPathUnits="userSpaceOnUse"
       id="clipPath102">
      <path
         d="m 0,129 h 136 v 61 H 0 Z"
         id="path102" />
    </clipPath>
    <clipPath
       clipPathUnits="userSpaceOnUse"
       id="clipPath104">
      <path
         d="m 0,129 h 136 v 61 H 0 Z"
         id="path104" />
    </clipPath>
    <clipPath
       clipPathUnits="userSpaceOnUse"
       id="clipPath106">
      <path
         d="m 0,129 h 136 v 61 H 0 Z"
         id="path106" />
    </clipPath>
    <clipPath
       clipPathUnits="userSpaceOnUse"
       id="clipPath108">
      <path
         d="m 0,129 h 136 v 61 H 0 Z"
         id="path108" />
    </clipPath>
    <clipPath
       clipPathUnits="userSpaceOnUse"
       id="clipPath110">
      <path
         d="m 0,129 h 136 v 61 H 0 Z"
         id="path110" />
    </clipPath>
    <clipPath
       clipPathUnits="userSpaceOnUse"
       id="clipPath112">
      <path
         d="m 0,129 h 136 v 61 H 0 Z"
         id="path112" />
    </clipPath>
    <clipPath
       clipPathUnits="userSpaceOnUse"
       id="clipPath114">
      <path
         d="m 0,129 h 136 v 61 H 0 Z"
         id="path114" />
    </clipPath>
    <clipPath
       clipPathUnits="userSpaceOnUse"
       id="clipPath116">
      <path
         d="m 0,129 h 136 v 61 H 0 Z"
         id="path116" />
    </clipPath>
    <clipPath
       clipPathUnits="userSpaceOnUse"
       id="clipPath118">
      <path
         d="m 0,129 h 136 v 61 H 0 Z"
         id="path118" />
    </clipPath>
    <clipPath
       clipPathUnits="userSpaceOnUse"
       id="clipPath120">
      <path
         d="m 0,129 h 136 v 61 H 0 Z"
         id="path120" />
    </clipPath>
    <clipPath
       clipPathUnits="userSpaceOnUse"
       id="clipPath122">
      <path
         d="m 0,129 h 136 v 61 H 0 Z"
         id="path122" />
    </clipPath>
    <clipPath
       clipPathUnits="userSpaceOnUse"
       id="clipPath124">
      <path
         d="m 0,129 h 136 v 61 H 0 Z"
         id="path124" />
    </clipPath>
    <clipPath
       clipPathUnits="userSpaceOnUse"
       id="clipPath126">
      <path
         d="m 0,129 h 136 v 61 H 0 Z"
         id="path126" />
    </clipPath>
    <clipPath
       clipPathUnits="userSpaceOnUse"
       id="clipPath128">
      <path
         d="m 0,129 h 136 v 61 H 0 Z"
         id="path128" />
    </clipPath>
    <clipPath
       clipPathUnits="userSpaceOnUse"
       id="clipPath130">
      <path
         d="m 0,129 h 136 v 61 H 0 Z"
         id="path130" />
    </clipPath>
    <clipPath
       clipPathUnits="userSpaceOnUse"
       id="clipPath132">
      <path
         d="m 0,129 h 136 v 61 H 0 Z"
         id="path132" />
    </clipPath>
    <clipPath
       clipPathUnits="userSpaceOnUse"
       id="clipPath134">
      <path
         d="m 0,129 h 136 v 61 H 0 Z"
         id="path134" />
    </clipPath>
    <clipPath
       clipPathUnits="userSpaceOnUse"
       id="clipPath136">
      <path
         d="m 0,129 h 136 v 61 H 0 Z"
         id="path136" />
    </clipPath>
    <clipPath
       clipPathUnits="userSpaceOnUse"
       id="clipPath138">
      <path
         d="m 0,129 h 136 v 61 H 0 Z"
         id="path138" />
    </clipPath>
    <clipPath
       clipPathUnits="userSpaceOnUse"
       id="clipPath140">
      <path
         d="m 0,129 h 136 v 61 H 0 Z"
         id="path140" />
    </clipPath>
    <clipPath
       clipPathUnits="userSpaceOnUse"
       id="clipPath142">
      <path
         d="m 0,129 h 136 v 61 H 0 Z"
         id="path142" />
    </clipPath>
  </defs>
  <sodipodi:namedview
     id="namedview1"
     pagecolor="#ffffff"
     bordercolor="#000000"
     borderopacity="0.25"
     inkscape:showpageshadow="2"
     inkscape:pageopacity="0.0"
     inkscape:pagecheckerboard="0"
     inkscape:deskcolor="#d1d1d1"
     inkscape:zoom="0.7383797"
     inkscape:cx="81.936163"
     inkscape:cy="264.76892"
     inkscape:window-width="1920"
     inkscape:window-height="1009"
     inkscape:window-x="-8"
     inkscape:window-y="-8"
     inkscape:window-maximized="1"
     inkscape:current-layer="g1">
    <inkscape:page
       x="0"
       y="0"
       inkscape:label="1"
       id="page1"
       width="181.33333"
       height="778.56665"
       margin="0"
       bleed="0" />
  </sodipodi:namedview>
  <g
     id="g1"
     inkscape:groupmode="layer"
     inkscape:label="1">
    <g
       id="g3"
       clip-path="url(#clipPath4)">
      <path
         d="m 7.953,455.668 h 120.094 c 1.336,0 2,-0.664 2,-2 v -28.344 c 0,-1.332 -0.664,-2 -2,-2 H 7.953 c -1.332,0 -2,0.668 -2,2 v 28.344 c 0,1.336 0.668,2 2,2 z"
         style="fill:none;stroke:#cccccc;stroke-width:1;stroke-linecap:butt;stroke-linejoin:miter;stroke-miterlimit:10;stroke-dasharray:none;stroke-opacity:0.8"
         transform="scale(1.3333333)"
         clip-path="url(#clipPath2)"
         id="path3" />
      <path
         id="path1"
         d="m 7.953,455.668 h 120.094 c 1.336,0 2,-0.664 2,-2 v -28.344 c 0,-1.332 -0.664,-2 -2,-2 H 7.953 c -1.332,0 -2,0.668 -2,2 v 28.344 c 0,1.336 0.668,2 2,2 z"
         style="fill:#ffffff;fill-opacity:0.8;fill-rule:nonzero;stroke:none"
         transform="scale(1.3333333)" />
      <g
         id="g146">
        <path
           id="path7"
           d="m 38.895,427.316 h 0.898 v 7.602 h -0.898 z"
           style="fill:#000000;fill-opacity:1;fill-rule:nonzero;stroke:none"
           transform="scale(1.3333333)"
           clip-path="url(#clipPath8)" />
        <path
           id="path9"
           d="m 46.355,431.957 v 0.441 h -4.132 c 0.043,0.622 0.222,1.098 0.562,1.418 0.328,0.321 0.789,0.481 1.391,0.481 0.34,0 0.679,-0.039 1,-0.117 0.32,-0.082 0.648,-0.211 0.969,-0.391 v 0.848 c -0.321,0.14 -0.649,0.25 -0.989,0.312 -0.344,0.059 -0.691,0.098 -1.031,0.098 -0.879,0 -1.57,-0.25 -2.082,-0.75 -0.508,-0.5 -0.758,-1.188 -0.758,-2.059 0,-0.89 0.238,-1.601 0.719,-2.129 0.48,-0.519 1.141,-0.793 1.961,-0.793 0.738,0 1.32,0.243 1.75,0.711 0.418,0.481 0.64,1.121 0.64,1.93 z m -0.902,-0.258 c -0.008,-0.492 -0.148,-0.883 -0.41,-1.179 -0.27,-0.293 -0.629,-0.442 -1.07,-0.442 -0.5,0 -0.899,0.149 -1.2,0.43 -0.3,0.281 -0.48,0.68 -0.519,1.191 z"
           style="fill:#000000;fill-opacity:1;fill-rule:nonzero;stroke:none"
           transform="scale(1.3333333)"
           clip-path="url(#clipPath10)" />
        <path
           id="path11"
           d="m 50.594,427.316 v 0.75 h -0.86 c -0.32,0 -0.55,0.071 -0.672,0.204 -0.128,0.128 -0.191,0.359 -0.191,0.699 v 0.48 h 1.481 v 0.699 h -1.481 v 4.77 h -0.898 v -4.77 h -0.86 v -0.699 h 0.86 v -0.383 c 0,-0.597 0.14,-1.046 0.422,-1.328 0.277,-0.281 0.726,-0.422 1.347,-0.422 z"
           style="fill:#000000;fill-opacity:1;fill-rule:nonzero;stroke:none"
           transform="scale(1.3333333)"
           clip-path="url(#clipPath12)" />
        <path
           id="path13"
           d="m 52.062,427.898 v 1.551 h 1.852 v 0.699 h -1.852 v 2.969 c 0,0.449 0.063,0.742 0.184,0.86 0.117,0.132 0.367,0.191 0.75,0.191 h 0.918 v 0.75 h -0.918 c -0.703,0 -1.184,-0.129 -1.441,-0.391 -0.262,-0.257 -0.391,-0.73 -0.391,-1.41 v -2.969 h -0.66 v -0.699 h 0.66 v -1.551 z"
           style="fill:#000000;fill-opacity:1;fill-rule:nonzero;stroke:none"
           transform="scale(1.3333333)"
           clip-path="url(#clipPath14)" />
        <path
           id="path15"
           d="m 58.273,427.316 h 0.898 v 7.602 h -0.898 z"
           style="fill:#000000;fill-opacity:1;fill-rule:nonzero;stroke:none"
           transform="scale(1.3333333)"
           clip-path="url(#clipPath16)" />
        <path
           id="path17"
           d="m 65.734,431.957 v 0.441 h -4.132 c 0.043,0.622 0.222,1.098 0.562,1.418 0.328,0.321 0.789,0.481 1.391,0.481 0.34,0 0.679,-0.039 1,-0.117 0.32,-0.082 0.648,-0.211 0.968,-0.391 v 0.848 c -0.32,0.14 -0.648,0.25 -0.988,0.312 -0.344,0.059 -0.691,0.098 -1.031,0.098 -0.879,0 -1.57,-0.25 -2.082,-0.75 -0.508,-0.5 -0.758,-1.188 -0.758,-2.059 0,-0.89 0.238,-1.601 0.719,-2.129 0.48,-0.519 1.14,-0.793 1.961,-0.793 0.738,0 1.32,0.243 1.75,0.711 0.418,0.481 0.64,1.121 0.64,1.93 z m -0.902,-0.258 c -0.008,-0.492 -0.148,-0.883 -0.41,-1.179 -0.27,-0.293 -0.629,-0.442 -1.07,-0.442 -0.5,0 -0.899,0.149 -1.2,0.43 -0.3,0.281 -0.48,0.68 -0.519,1.191 z"
           style="fill:#000000;fill-opacity:1;fill-rule:nonzero;stroke:none"
           transform="scale(1.3333333)"
           clip-path="url(#clipPath18)" />
        <path
           id="path19"
           d="m 69.691,432.168 c -0.73,0 -1.23,0.09 -1.507,0.25 -0.282,0.172 -0.422,0.449 -0.422,0.852 0,0.32 0.101,0.578 0.308,0.757 0.211,0.192 0.5,0.282 0.864,0.282 0.5,0 0.898,-0.172 1.199,-0.532 0.301,-0.347 0.449,-0.82 0.449,-1.41 v -0.199 z m 1.789,-0.371 v 3.121 h -0.898 v -0.828 c -0.211,0.34 -0.469,0.578 -0.77,0.726 -0.3,0.153 -0.679,0.231 -1.121,0.231 -0.558,0 -1.007,-0.149 -1.339,-0.457 -0.329,-0.313 -0.489,-0.731 -0.489,-1.262 0,-0.609 0.199,-1.07 0.617,-1.39 0.411,-0.309 1.02,-0.469 1.84,-0.469 h 1.262 v -0.09 c 0,-0.41 -0.141,-0.731 -0.41,-0.961 -0.27,-0.219 -0.649,-0.34 -1.141,-0.34 -0.32,0 -0.621,0.039 -0.918,0.121 -0.301,0.078 -0.582,0.188 -0.851,0.328 v -0.828 c 0.32,-0.121 0.64,-0.222 0.949,-0.281 0.312,-0.059 0.609,-0.102 0.91,-0.102 0.789,0 1.379,0.211 1.77,0.622 0.39,0.41 0.589,1.031 0.589,1.859 z"
           style="fill:#000000;fill-opacity:1;fill-rule:nonzero;stroke:none"
           transform="scale(1.3333333)"
           clip-path="url(#clipPath20)" />
        <path
           id="path21"
           d="m 76.105,427.316 v 0.75 h -0.859 c -0.32,0 -0.551,0.071 -0.672,0.204 -0.129,0.128 -0.191,0.359 -0.191,0.699 v 0.48 h 1.48 v 0.699 h -1.48 v 4.77 h -0.899 v -4.77 h -0.859 v -0.699 h 0.859 v -0.383 c 0,-0.597 0.141,-1.046 0.422,-1.328 0.278,-0.281 0.727,-0.422 1.348,-0.422 z"
           style="fill:#000000;fill-opacity:1;fill-rule:nonzero;stroke:none"
           transform="scale(1.3333333)"
           clip-path="url(#clipPath22)" />
        <path
           id="path23"
           d="m 80.902,434.098 v 2.89 h -0.898 v -7.539 h 0.898 v 0.828 c 0.18,-0.32 0.422,-0.558 0.711,-0.718 0.289,-0.161 0.641,-0.243 1.039,-0.243 0.66,0 1.203,0.274 1.621,0.793 0.411,0.528 0.622,1.219 0.622,2.079 0,0.859 -0.211,1.558 -0.622,2.082 -0.418,0.519 -0.961,0.777 -1.621,0.777 -0.398,0 -0.75,-0.078 -1.039,-0.231 -0.289,-0.148 -0.531,-0.386 -0.711,-0.718 z m 3.063,-1.91 c 0,-0.661 -0.141,-1.168 -0.41,-1.551 -0.282,-0.379 -0.653,-0.571 -1.121,-0.571 -0.481,0 -0.852,0.192 -1.122,0.571 -0.277,0.383 -0.41,0.89 -0.41,1.551 0,0.66 0.133,1.179 0.41,1.558 0.27,0.383 0.641,0.563 1.122,0.563 0.468,0 0.839,-0.18 1.121,-0.563 0.269,-0.379 0.41,-0.898 0.41,-1.558 z"
           style="fill:#000000;fill-opacity:1;fill-rule:nonzero;stroke:none"
           transform="scale(1.3333333)"
           clip-path="url(#clipPath24)" />
        <path
           id="path25"
           d="m 88.5,430.078 c -0.48,0 -0.859,0.192 -1.137,0.57 -0.281,0.379 -0.422,0.891 -0.422,1.54 0,0.66 0.129,1.171 0.411,1.55 0.281,0.379 0.66,0.559 1.148,0.559 0.48,0 0.863,-0.18 1.141,-0.559 0.281,-0.379 0.421,-0.89 0.421,-1.55 0,-0.641 -0.14,-1.161 -0.421,-1.54 -0.278,-0.378 -0.661,-0.57 -1.141,-0.57 z m 0,-0.762 c 0.781,0 1.391,0.262 1.84,0.762 0.441,0.512 0.672,1.211 0.672,2.11 0,0.902 -0.231,1.601 -0.672,2.101 -0.449,0.508 -1.059,0.758 -1.84,0.758 -0.789,0 -1.41,-0.25 -1.848,-0.758 -0.441,-0.5 -0.66,-1.199 -0.66,-2.101 0,-0.899 0.219,-1.598 0.66,-2.11 0.438,-0.5 1.059,-0.762 1.848,-0.762 z"
           style="fill:#000000;fill-opacity:1;fill-rule:nonzero;stroke:none"
           transform="scale(1.3333333)"
           clip-path="url(#clipPath26)" />
        <path
           id="path27"
           d="m 95.992,429.609 v 0.848 c -0.258,-0.117 -0.519,-0.219 -0.789,-0.289 -0.281,-0.059 -0.562,-0.102 -0.851,-0.102 -0.45,0 -0.79,0.071 -1.008,0.211 -0.223,0.141 -0.332,0.34 -0.332,0.61 0,0.211 0.082,0.371 0.242,0.492 0.16,0.117 0.48,0.238 0.957,0.34 l 0.312,0.07 c 0.641,0.141 1.09,0.34 1.36,0.578 0.258,0.25 0.398,0.602 0.398,1.039 0,0.512 -0.199,0.91 -0.597,1.203 -0.403,0.297 -0.961,0.438 -1.661,0.438 -0.3,0 -0.601,-0.027 -0.921,-0.078 -0.321,-0.051 -0.649,-0.129 -1,-0.25 v -0.93 c 0.332,0.18 0.66,0.309 0.98,0.391 0.32,0.09 0.641,0.129 0.961,0.129 0.418,0 0.75,-0.071 0.98,-0.211 0.219,-0.141 0.34,-0.352 0.34,-0.621 0,-0.239 -0.09,-0.43 -0.25,-0.559 -0.16,-0.129 -0.519,-0.262 -1.082,-0.379 l -0.308,-0.07 c -0.559,-0.121 -0.969,-0.301 -1.211,-0.539 -0.25,-0.242 -0.371,-0.571 -0.371,-1 0,-0.512 0.183,-0.91 0.543,-1.192 0.359,-0.281 0.878,-0.422 1.558,-0.422 0.332,0 0.641,0.032 0.942,0.082 0.289,0.051 0.558,0.122 0.808,0.211 z"
           style="fill:#000000;fill-opacity:1;fill-rule:nonzero;stroke:none"
           transform="scale(1.3333333)"
           clip-path="url(#clipPath28)" />
        <path
           id="path29"
           d="m 97.715,429.449 h 0.898 v 5.469 h -0.898 z m 0,-2.133 h 0.898 v 1.141 h -0.898 z"
           style="fill:#000000;fill-opacity:1;fill-rule:nonzero;stroke:none"
           transform="scale(1.3333333)"
           clip-path="url(#clipPath30)" />
        <path
           id="path31"
           d="m 101.383,427.898 v 1.551 h 1.851 v 0.699 h -1.851 v 2.969 c 0,0.449 0.062,0.742 0.183,0.86 0.118,0.132 0.368,0.191 0.75,0.191 h 0.918 v 0.75 h -0.918 c -0.703,0 -1.183,-0.129 -1.441,-0.391 -0.262,-0.257 -0.391,-0.73 -0.391,-1.41 v -2.969 h -0.66 v -0.699 h 0.66 v -1.551 z"
           style="fill:#000000;fill-opacity:1;fill-rule:nonzero;stroke:none"
           transform="scale(1.3333333)"
           clip-path="url(#clipPath32)" />
        <path
           id="path33"
           d="m 104.414,429.449 h 0.898 v 5.469 h -0.898 z m 0,-2.133 h 0.898 v 1.141 h -0.898 z"
           style="fill:#000000;fill-opacity:1;fill-rule:nonzero;stroke:none"
           transform="scale(1.3333333)"
           clip-path="url(#clipPath34)" />
        <path
           id="path35"
           d="m 109.312,430.078 c -0.48,0 -0.859,0.192 -1.136,0.57 -0.281,0.379 -0.422,0.891 -0.422,1.54 0,0.66 0.129,1.171 0.41,1.55 0.281,0.379 0.66,0.559 1.148,0.559 0.481,0 0.864,-0.18 1.141,-0.559 0.281,-0.379 0.422,-0.89 0.422,-1.55 0,-0.641 -0.141,-1.161 -0.422,-1.54 -0.277,-0.378 -0.66,-0.57 -1.141,-0.57 z m 0,-0.762 c 0.782,0 1.391,0.262 1.84,0.762 0.442,0.512 0.672,1.211 0.672,2.11 0,0.902 -0.23,1.601 -0.672,2.101 -0.449,0.508 -1.058,0.758 -1.84,0.758 -0.789,0 -1.41,-0.25 -1.847,-0.758 -0.442,-0.5 -0.66,-1.199 -0.66,-2.101 0,-0.899 0.218,-1.598 0.66,-2.11 0.437,-0.5 1.058,-0.762 1.847,-0.762 z"
           style="fill:#000000;fill-opacity:1;fill-rule:nonzero;stroke:none"
           transform="scale(1.3333333)"
           clip-path="url(#clipPath36)" />
        <path
           id="path37"
           d="m 117.859,431.617 v 3.301 h -0.898 v -3.27 c 0,-0.519 -0.109,-0.902 -0.309,-1.16 -0.203,-0.261 -0.5,-0.39 -0.902,-0.39 -0.488,0 -0.867,0.16 -1.148,0.468 -0.282,0.313 -0.422,0.731 -0.422,1.262 v 3.09 h -0.899 v -5.469 h 0.899 v 0.848 c 0.211,-0.32 0.461,-0.57 0.761,-0.731 0.289,-0.16 0.629,-0.25 1.008,-0.25 0.621,0 1.102,0.204 1.422,0.59 0.32,0.391 0.488,0.961 0.488,1.711 z"
           style="fill:#000000;fill-opacity:1;fill-rule:nonzero;stroke:none"
           transform="scale(1.3333333)"
           clip-path="url(#clipPath38)" />
      </g>
      <g
         id="g147">
        <path
           id="path5"
           d="m 9.953,431.418 h 20"
           style="fill:none;stroke:#1f77b4;stroke-width:1.5;stroke-linecap:square;stroke-linejoin:round;stroke-miterlimit:10;stroke-dasharray:none;stroke-opacity:1"
           transform="scale(1.3333333)"
           clip-path="url(#clipPath6)" />
        <path
           id="path39"
           d="m 9.953,446.09 h 20"
           style="fill:none;stroke:#1faf59;stroke-width:1.5;stroke-linecap:square;stroke-linejoin:round;stroke-miterlimit:10;stroke-dasharray:none;stroke-opacity:1"
           transform="scale(1.3333333)"
           clip-path="url(#clipPath40)" />
      </g>
      <g
         id="g145">
        <path
           id="path41"
           d="m 42.062,444.961 c -0.097,-0.063 -0.21,-0.102 -0.328,-0.133 -0.121,-0.019 -0.25,-0.039 -0.39,-0.039 -0.512,0 -0.903,0.172 -1.172,0.5 -0.277,0.332 -0.41,0.801 -0.41,1.422 v 2.879 h -0.899 v -5.469 h 0.899 v 0.848 c 0.179,-0.328 0.429,-0.578 0.73,-0.739 0.301,-0.16 0.672,-0.242 1.11,-0.242 0.062,0 0.132,0.012 0.21,0.012 0.071,0.012 0.153,0.02 0.25,0.039 z"
           style="fill:#000000;fill-opacity:1;fill-rule:nonzero;stroke:none"
           transform="scale(1.3333333)"
           clip-path="url(#clipPath42)" />
        <path
           id="path43"
           d="m 43.008,444.121 h 0.898 v 5.469 h -0.898 z m 0,-2.133 h 0.898 v 1.141 h -0.898 z"
           style="fill:#000000;fill-opacity:1;fill-rule:nonzero;stroke:none"
           transform="scale(1.3333333)"
           clip-path="url(#clipPath44)" />
        <path
           id="path45"
           d="m 49.383,446.789 c 0,-0.641 -0.141,-1.148 -0.399,-1.508 -0.269,-0.363 -0.652,-0.543 -1.129,-0.543 -0.48,0 -0.863,0.18 -1.132,0.543 -0.27,0.36 -0.399,0.867 -0.399,1.508 0,0.652 0.129,1.152 0.399,1.512 0.269,0.359 0.652,0.539 1.132,0.539 0.477,0 0.86,-0.18 1.129,-0.539 0.258,-0.36 0.399,-0.86 0.399,-1.512 z m 0.902,2.121 c 0,0.918 -0.211,1.61 -0.621,2.07 -0.422,0.45 -1.051,0.68 -1.898,0.68 -0.321,0 -0.614,-0.031 -0.891,-0.07 -0.281,-0.051 -0.563,-0.121 -0.82,-0.219 V 450.5 c 0.257,0.141 0.519,0.238 0.777,0.309 0.262,0.07 0.523,0.109 0.793,0.109 0.578,0 1.02,-0.156 1.32,-0.457 0.289,-0.313 0.438,-0.77 0.438,-1.391 v -0.441 c -0.188,0.32 -0.43,0.562 -0.719,0.723 -0.289,0.16 -0.629,0.238 -1.031,0.238 -0.68,0 -1.219,-0.25 -1.629,-0.762 -0.41,-0.508 -0.609,-1.187 -0.609,-2.039 0,-0.84 0.199,-1.519 0.609,-2.027 0.41,-0.512 0.949,-0.774 1.629,-0.774 0.402,0 0.742,0.082 1.031,0.242 0.289,0.161 0.531,0.399 0.719,0.719 v -0.828 h 0.902 z"
           style="fill:#000000;fill-opacity:1;fill-rule:nonzero;stroke:none"
           transform="scale(1.3333333)"
           clip-path="url(#clipPath46)" />
        <path
           id="path47"
           d="m 56.684,446.289 v 3.301 h -0.899 v -3.27 c 0,-0.519 -0.109,-0.902 -0.308,-1.16 -0.204,-0.262 -0.5,-0.39 -0.903,-0.39 -0.488,0 -0.867,0.16 -1.148,0.468 -0.281,0.313 -0.422,0.731 -0.422,1.262 v 3.09 h -0.899 v -7.602 h 0.899 v 2.981 c 0.211,-0.321 0.461,-0.571 0.762,-0.731 0.289,-0.16 0.629,-0.25 1.007,-0.25 0.622,0 1.102,0.203 1.422,0.59 0.321,0.391 0.489,0.961 0.489,1.711 z"
           style="fill:#000000;fill-opacity:1;fill-rule:nonzero;stroke:none"
           transform="scale(1.3333333)"
           clip-path="url(#clipPath48)" />
        <path
           id="path49"
           d="m 59.363,442.57 v 1.551 h 1.852 v 0.699 h -1.852 v 2.969 c 0,0.449 0.063,0.742 0.184,0.859 0.117,0.133 0.367,0.192 0.75,0.192 h 0.918 v 0.75 h -0.918 c -0.703,0 -1.184,-0.129 -1.442,-0.391 -0.261,-0.258 -0.39,-0.73 -0.39,-1.41 v -2.969 h -0.66 v -0.699 h 0.66 v -1.551 z"
           style="fill:#000000;fill-opacity:1;fill-rule:nonzero;stroke:none"
           transform="scale(1.3333333)"
           clip-path="url(#clipPath50)" />
        <path
           id="path51"
           d="m 65.574,441.988 h 0.898 v 7.602 h -0.898 z"
           style="fill:#000000;fill-opacity:1;fill-rule:nonzero;stroke:none"
           transform="scale(1.3333333)"
           clip-path="url(#clipPath52)" />
        <path
           id="path53"
           d="m 73.035,446.629 v 0.441 h -4.133 c 0.043,0.621 0.223,1.098 0.563,1.418 0.328,0.321 0.789,0.481 1.39,0.481 0.34,0 0.68,-0.039 1,-0.117 0.321,-0.082 0.649,-0.211 0.969,-0.391 v 0.848 c -0.32,0.14 -0.648,0.25 -0.988,0.312 -0.344,0.059 -0.691,0.098 -1.031,0.098 -0.879,0 -1.571,-0.25 -2.082,-0.75 -0.508,-0.5 -0.758,-1.188 -0.758,-2.059 0,-0.89 0.238,-1.601 0.719,-2.129 0.48,-0.519 1.14,-0.793 1.961,-0.793 0.738,0 1.32,0.242 1.75,0.711 0.417,0.481 0.64,1.121 0.64,1.93 z m -0.902,-0.258 c -0.008,-0.492 -0.149,-0.883 -0.41,-1.18 -0.27,-0.293 -0.629,-0.441 -1.071,-0.441 -0.5,0 -0.898,0.148 -1.199,0.43 -0.301,0.281 -0.48,0.679 -0.519,1.191 z"
           style="fill:#000000;fill-opacity:1;fill-rule:nonzero;stroke:none"
           transform="scale(1.3333333)"
           clip-path="url(#clipPath54)" />
        <path
           id="path55"
           d="m 76.996,446.84 c -0.73,0 -1.23,0.09 -1.508,0.25 -0.281,0.172 -0.422,0.449 -0.422,0.851 0,0.321 0.102,0.579 0.309,0.758 0.211,0.192 0.5,0.281 0.863,0.281 0.5,0 0.899,-0.171 1.2,-0.531 0.3,-0.347 0.449,-0.82 0.449,-1.41 v -0.199 z m 1.789,-0.371 v 3.121 h -0.898 v -0.828 c -0.211,0.34 -0.469,0.578 -0.77,0.726 -0.301,0.153 -0.679,0.231 -1.121,0.231 -0.558,0 -1.008,-0.149 -1.34,-0.457 -0.328,-0.313 -0.488,-0.731 -0.488,-1.262 0,-0.609 0.199,-1.07 0.617,-1.391 0.41,-0.308 1.02,-0.468 1.84,-0.468 h 1.262 v -0.09 c 0,-0.41 -0.141,-0.731 -0.41,-0.961 -0.27,-0.219 -0.649,-0.34 -1.141,-0.34 -0.32,0 -0.621,0.039 -0.918,0.121 -0.301,0.078 -0.582,0.188 -0.852,0.328 v -0.828 c 0.321,-0.121 0.641,-0.223 0.95,-0.281 0.312,-0.059 0.609,-0.102 0.91,-0.102 0.789,0 1.379,0.211 1.769,0.621 0.391,0.411 0.59,1.032 0.59,1.86 z"
           style="fill:#000000;fill-opacity:1;fill-rule:nonzero;stroke:none"
           transform="scale(1.3333333)"
           clip-path="url(#clipPath56)" />
        <path
           id="path57"
           d="m 83.406,441.988 v 0.75 h -0.859 c -0.32,0 -0.551,0.071 -0.672,0.203 -0.129,0.129 -0.191,0.36 -0.191,0.7 v 0.48 h 1.48 v 0.699 h -1.48 v 4.77 h -0.899 v -4.77 h -0.859 v -0.699 h 0.859 v -0.383 c 0,-0.597 0.141,-1.047 0.422,-1.328 0.277,-0.281 0.727,-0.422 1.348,-0.422 z"
           style="fill:#000000;fill-opacity:1;fill-rule:nonzero;stroke:none"
           transform="scale(1.3333333)"
           clip-path="url(#clipPath58)" />
        <path
           id="path59"
           d="m 88.203,448.77 v 2.89 h -0.898 v -7.539 h 0.898 v 0.828 c 0.18,-0.32 0.422,-0.558 0.711,-0.719 0.289,-0.16 0.641,-0.242 1.039,-0.242 0.66,0 1.203,0.274 1.621,0.793 0.41,0.528 0.621,1.219 0.621,2.078 0,0.86 -0.211,1.559 -0.621,2.082 -0.418,0.52 -0.961,0.778 -1.621,0.778 -0.398,0 -0.75,-0.078 -1.039,-0.231 -0.289,-0.148 -0.531,-0.386 -0.711,-0.718 z m 3.063,-1.911 c 0,-0.66 -0.141,-1.168 -0.411,-1.55 -0.281,-0.379 -0.652,-0.571 -1.121,-0.571 -0.48,0 -0.851,0.192 -1.121,0.571 -0.277,0.382 -0.41,0.89 -0.41,1.55 0,0.661 0.133,1.18 0.41,1.559 0.27,0.383 0.641,0.562 1.121,0.562 0.469,0 0.84,-0.179 1.121,-0.562 0.27,-0.379 0.411,-0.898 0.411,-1.559 z"
           style="fill:#000000;fill-opacity:1;fill-rule:nonzero;stroke:none"
           transform="scale(1.3333333)"
           clip-path="url(#clipPath60)" />
        <path
           id="path61"
           d="m 95.805,444.75 c -0.481,0 -0.86,0.191 -1.137,0.57 -0.281,0.379 -0.422,0.891 -0.422,1.539 0,0.661 0.129,1.172 0.41,1.551 0.282,0.379 0.66,0.559 1.149,0.559 0.48,0 0.863,-0.18 1.14,-0.559 0.282,-0.379 0.422,-0.89 0.422,-1.551 0,-0.64 -0.14,-1.16 -0.422,-1.539 -0.277,-0.379 -0.66,-0.57 -1.14,-0.57 z m 0,-0.762 c 0.781,0 1.39,0.262 1.84,0.762 0.441,0.512 0.671,1.211 0.671,2.109 0,0.903 -0.23,1.602 -0.671,2.102 -0.45,0.508 -1.059,0.758 -1.84,0.758 -0.789,0 -1.41,-0.25 -1.848,-0.758 -0.441,-0.5 -0.66,-1.199 -0.66,-2.102 0,-0.898 0.219,-1.597 0.66,-2.109 0.438,-0.5 1.059,-0.762 1.848,-0.762 z"
           style="fill:#000000;fill-opacity:1;fill-rule:nonzero;stroke:none"
           transform="scale(1.3333333)"
           clip-path="url(#clipPath62)" />
        <path
           id="path63"
           d="m 103.293,444.281 v 0.848 c -0.258,-0.117 -0.52,-0.219 -0.789,-0.289 -0.281,-0.059 -0.563,-0.102 -0.852,-0.102 -0.449,0 -0.789,0.071 -1.007,0.211 -0.223,0.141 -0.333,0.34 -0.333,0.61 0,0.211 0.083,0.371 0.243,0.492 0.16,0.117 0.48,0.238 0.957,0.34 l 0.312,0.07 c 0.641,0.141 1.09,0.34 1.36,0.578 0.257,0.25 0.398,0.602 0.398,1.039 0,0.512 -0.199,0.91 -0.598,1.203 -0.402,0.297 -0.961,0.438 -1.66,0.438 -0.301,0 -0.601,-0.028 -0.922,-0.078 -0.32,-0.051 -0.648,-0.129 -1,-0.25 v -0.93 c 0.332,0.18 0.66,0.309 0.981,0.391 0.32,0.089 0.64,0.128 0.961,0.128 0.418,0 0.75,-0.07 0.98,-0.21 0.219,-0.141 0.34,-0.352 0.34,-0.622 0,-0.238 -0.09,-0.429 -0.25,-0.558 -0.16,-0.129 -0.519,-0.262 -1.082,-0.379 l -0.309,-0.07 c -0.558,-0.121 -0.968,-0.301 -1.211,-0.539 -0.25,-0.243 -0.371,-0.571 -0.371,-1 0,-0.512 0.184,-0.911 0.543,-1.192 0.36,-0.281 0.879,-0.422 1.559,-0.422 0.332,0 0.641,0.032 0.941,0.082 0.289,0.051 0.559,0.121 0.809,0.211 z"
           style="fill:#000000;fill-opacity:1;fill-rule:nonzero;stroke:none"
           transform="scale(1.3333333)"
           clip-path="url(#clipPath64)" />
        <path
           id="path65"
           d="m 105.016,444.121 h 0.898 v 5.469 h -0.898 z m 0,-2.133 h 0.898 v 1.141 h -0.898 z"
           style="fill:#000000;fill-opacity:1;fill-rule:nonzero;stroke:none"
           transform="scale(1.3333333)"
           clip-path="url(#clipPath66)" />
        <path
           id="path67"
           d="m 108.684,442.57 v 1.551 h 1.851 v 0.699 h -1.851 v 2.969 c 0,0.449 0.062,0.742 0.183,0.859 0.117,0.133 0.367,0.192 0.75,0.192 h 0.918 v 0.75 h -0.918 c -0.703,0 -1.183,-0.129 -1.441,-0.391 -0.262,-0.258 -0.391,-0.73 -0.391,-1.41 v -2.969 h -0.66 v -0.699 h 0.66 v -1.551 z"
           style="fill:#000000;fill-opacity:1;fill-rule:nonzero;stroke:none"
           transform="scale(1.3333333)"
           clip-path="url(#clipPath68)" />
        <path
           id="path69"
           d="m 111.715,444.121 h 0.898 v 5.469 h -0.898 z m 0,-2.133 h 0.898 v 1.141 h -0.898 z"
           style="fill:#000000;fill-opacity:1;fill-rule:nonzero;stroke:none"
           transform="scale(1.3333333)"
           clip-path="url(#clipPath70)" />
        <path
           id="path71"
           d="m 116.613,444.75 c -0.48,0 -0.859,0.191 -1.136,0.57 -0.282,0.379 -0.422,0.891 -0.422,1.539 0,0.661 0.129,1.172 0.41,1.551 0.281,0.379 0.66,0.559 1.148,0.559 0.481,0 0.864,-0.18 1.141,-0.559 0.281,-0.379 0.422,-0.89 0.422,-1.551 0,-0.64 -0.141,-1.16 -0.422,-1.539 -0.277,-0.379 -0.66,-0.57 -1.141,-0.57 z m 0,-0.762 c 0.782,0 1.391,0.262 1.84,0.762 0.442,0.512 0.672,1.211 0.672,2.109 0,0.903 -0.23,1.602 -0.672,2.102 -0.449,0.508 -1.058,0.758 -1.84,0.758 -0.789,0 -1.41,-0.25 -1.847,-0.758 -0.442,-0.5 -0.661,-1.199 -0.661,-2.102 0,-0.898 0.219,-1.597 0.661,-2.109 0.437,-0.5 1.058,-0.762 1.847,-0.762 z"
           style="fill:#000000;fill-opacity:1;fill-rule:nonzero;stroke:none"
           transform="scale(1.3333333)"
           clip-path="url(#clipPath72)" />
        <path
           id="path73"
           d="m 125.164,446.289 v 3.301 h -0.898 v -3.27 c 0,-0.519 -0.11,-0.902 -0.309,-1.16 -0.203,-0.262 -0.5,-0.39 -0.902,-0.39 -0.489,0 -0.867,0.16 -1.149,0.468 -0.281,0.313 -0.422,0.731 -0.422,1.262 v 3.09 h -0.898 v -5.469 h 0.898 v 0.848 c 0.211,-0.321 0.461,-0.571 0.762,-0.731 0.289,-0.16 0.629,-0.25 1.008,-0.25 0.621,0 1.101,0.203 1.422,0.59 0.32,0.391 0.488,0.961 0.488,1.711 z"
           style="fill:#000000;fill-opacity:1;fill-rule:nonzero;stroke:none"
           transform="scale(1.3333333)"
           clip-path="url(#clipPath74)" />
      </g>
    </g>
    <g
       id="g77"
       clip-path="url(#clipPath78)">
      <path
         d="m 7.953,175.723 h 119.844 c 1.336,0 2,-0.664 2,-2 v -28.344 c 0,-1.332 -0.664,-2 -2,-2 H 7.953 c -1.332,0 -2,0.668 -2,2 v 28.344 c 0,1.336 0.668,2 2,2 z"
         style="fill:none;stroke:#cccccc;stroke-width:1;stroke-linecap:butt;stroke-linejoin:miter;stroke-miterlimit:10;stroke-dasharray:none;stroke-opacity:0.8"
         transform="scale(1.3333333)"
         clip-path="url(#clipPath76)"
         id="path77" />
      <path
         id="path75"
         d="m 7.953,175.723 h 119.844 c 1.336,0 2,-0.664 2,-2 v -28.344 c 0,-1.332 -0.664,-2 -2,-2 H 7.953 c -1.332,0 -2,0.668 -2,2 v 28.344 c 0,1.336 0.668,2 2,2 z"
         style="fill:#ffffff;fill-opacity:0.8;fill-rule:nonzero;stroke:none"
         transform="scale(1.3333333)" />
      <g
         id="g142">
        <path
           id="path81"
           d="m 41.895,148.352 c -0.723,0 -1.293,0.269 -1.711,0.8 -0.422,0.539 -0.629,1.262 -0.629,2.18 0,0.922 0.207,1.652 0.629,2.18 0.418,0.539 0.988,0.8 1.711,0.8 0.707,0 1.277,-0.261 1.699,-0.8 0.418,-0.528 0.629,-1.258 0.629,-2.18 0,-0.918 -0.211,-1.641 -0.629,-2.18 -0.422,-0.531 -0.992,-0.8 -1.699,-0.8 z m 0,-0.801 c 1.019,0 1.828,0.351 2.449,1.031 0.609,0.68 0.918,1.602 0.918,2.75 0,1.16 -0.309,2.07 -0.918,2.75 -0.621,0.68 -1.43,1.02 -2.449,1.02 -1.032,0 -1.852,-0.34 -2.461,-1.02 -0.622,-0.68 -0.922,-1.59 -0.922,-2.75 0,-1.148 0.3,-2.07 0.922,-2.75 0.609,-0.68 1.429,-1.031 2.461,-1.031 z"
           style="fill:#000000;fill-opacity:1;fill-rule:nonzero;stroke:none"
           transform="scale(1.3333333)"
           clip-path="url(#clipPath82)" />
        <path
           id="path83"
           d="m 47.633,154.152 v 2.891 h -0.899 v -7.539 h 0.899 v 0.828 c 0.179,-0.32 0.422,-0.559 0.711,-0.719 0.289,-0.16 0.64,-0.242 1.039,-0.242 0.66,0 1.203,0.274 1.621,0.793 0.41,0.527 0.621,1.219 0.621,2.078 0,0.86 -0.211,1.559 -0.621,2.082 -0.418,0.52 -0.961,0.778 -1.621,0.778 -0.399,0 -0.75,-0.079 -1.039,-0.231 -0.289,-0.148 -0.532,-0.387 -0.711,-0.719 z m 3.062,-1.91 c 0,-0.66 -0.14,-1.168 -0.41,-1.551 -0.281,-0.379 -0.652,-0.57 -1.121,-0.57 -0.48,0 -0.852,0.191 -1.121,0.57 -0.277,0.383 -0.41,0.891 -0.41,1.551 0,0.66 0.133,1.18 0.41,1.559 0.269,0.383 0.641,0.562 1.121,0.562 0.469,0 0.84,-0.179 1.121,-0.562 0.27,-0.379 0.41,-0.899 0.41,-1.559 z"
           style="fill:#000000;fill-opacity:1;fill-rule:nonzero;stroke:none"
           transform="scale(1.3333333)"
           clip-path="url(#clipPath84)" />
        <path
           id="path85"
           d="m 54.004,147.953 v 1.551 h 1.851 v 0.699 h -1.851 v 2.969 c 0,0.449 0.062,0.742 0.184,0.859 0.117,0.133 0.367,0.192 0.75,0.192 h 0.917 v 0.75 h -0.917 c -0.704,0 -1.184,-0.129 -1.442,-0.391 -0.262,-0.258 -0.391,-0.73 -0.391,-1.41 v -2.969 h -0.66 v -0.699 h 0.66 v -1.551 z"
           style="fill:#000000;fill-opacity:1;fill-rule:nonzero;stroke:none"
           transform="scale(1.3333333)"
           clip-path="url(#clipPath86)" />
        <path
           id="path87"
           d="m 57.035,149.504 h 0.899 v 5.469 h -0.899 z m 0,-2.133 h 0.899 v 1.141 h -0.899 z"
           style="fill:#000000;fill-opacity:1;fill-rule:nonzero;stroke:none"
           transform="scale(1.3333333)"
           clip-path="url(#clipPath88)" />
        <path
           id="path89"
           d="m 64.074,150.551 c 0.223,-0.399 0.492,-0.688 0.801,-0.887 0.309,-0.191 0.68,-0.293 1.109,-0.293 0.563,0 1,0.203 1.313,0.602 0.308,0.398 0.469,0.968 0.469,1.699 v 3.301 h -0.903 v -3.27 c 0,-0.519 -0.097,-0.91 -0.277,-1.172 -0.191,-0.25 -0.473,-0.379 -0.852,-0.379 -0.468,0 -0.839,0.16 -1.109,0.469 -0.27,0.313 -0.398,0.731 -0.398,1.262 v 3.09 h -0.903 v -3.27 c 0,-0.519 -0.097,-0.91 -0.277,-1.172 -0.192,-0.25 -0.481,-0.379 -0.863,-0.379 -0.457,0 -0.829,0.16 -1.098,0.469 -0.27,0.313 -0.402,0.731 -0.402,1.262 v 3.09 h -0.899 v -5.469 h 0.899 v 0.848 c 0.203,-0.329 0.453,-0.579 0.742,-0.739 0.277,-0.16 0.621,-0.242 1.019,-0.242 0.399,0 0.731,0.102 1.008,0.301 0.281,0.199 0.481,0.5 0.621,0.879 z"
           style="fill:#000000;fill-opacity:1;fill-rule:nonzero;stroke:none"
           transform="scale(1.3333333)"
           clip-path="url(#clipPath90)" />
        <path
           id="path91"
           d="m 72.043,152.223 c -0.731,0 -1.231,0.089 -1.508,0.25 -0.281,0.172 -0.422,0.449 -0.422,0.851 0,0.321 0.102,0.578 0.309,0.758 0.211,0.191 0.5,0.281 0.863,0.281 0.5,0 0.899,-0.172 1.199,-0.531 0.301,-0.348 0.45,-0.82 0.45,-1.41 v -0.199 z m 1.789,-0.371 v 3.121 h -0.898 v -0.828 c -0.211,0.339 -0.469,0.578 -0.77,0.726 -0.301,0.152 -0.68,0.231 -1.121,0.231 -0.559,0 -1.008,-0.149 -1.34,-0.457 -0.328,-0.313 -0.488,-0.731 -0.488,-1.262 0,-0.61 0.199,-1.071 0.617,-1.391 0.41,-0.308 1.02,-0.469 1.84,-0.469 h 1.262 v -0.089 c 0,-0.411 -0.141,-0.731 -0.411,-0.961 -0.269,-0.219 -0.648,-0.34 -1.14,-0.34 -0.321,0 -0.621,0.039 -0.918,0.121 -0.301,0.078 -0.582,0.187 -0.852,0.328 v -0.828 c 0.321,-0.121 0.641,-0.223 0.949,-0.281 0.313,-0.059 0.61,-0.102 0.911,-0.102 0.789,0 1.379,0.211 1.769,0.621 0.391,0.41 0.59,1.031 0.59,1.86 z"
           style="fill:#000000;fill-opacity:1;fill-rule:nonzero;stroke:none"
           transform="scale(1.3333333)"
           clip-path="url(#clipPath92)" />
        <path
           id="path93"
           d="m 75.688,147.371 h 0.898 v 7.602 h -0.898 z"
           style="fill:#000000;fill-opacity:1;fill-rule:nonzero;stroke:none"
           transform="scale(1.3333333)"
           clip-path="url(#clipPath94)" />
        <path
           id="path95"
           d="m 84.414,147.371 v 0.75 h -0.859 c -0.321,0 -0.551,0.07 -0.672,0.203 -0.129,0.129 -0.192,0.36 -0.192,0.699 v 0.481 h 1.481 v 0.699 h -1.481 v 4.77 h -0.898 v -4.77 h -0.859 v -0.699 h 0.859 v -0.383 c 0,-0.598 0.141,-1.047 0.422,-1.328 0.277,-0.281 0.726,-0.422 1.347,-0.422 z"
           style="fill:#000000;fill-opacity:1;fill-rule:nonzero;stroke:none"
           transform="scale(1.3333333)"
           clip-path="url(#clipPath96)" />
        <path
           id="path97"
           d="m 85.168,147.371 h 0.898 v 7.602 h -0.898 z"
           style="fill:#000000;fill-opacity:1;fill-rule:nonzero;stroke:none"
           transform="scale(1.3333333)"
           clip-path="url(#clipPath98)" />
        <path
           id="path99"
           d="m 87.855,152.812 v -3.308 h 0.899 v 3.277 c 0,0.52 0.101,0.903 0.301,1.16 0.199,0.262 0.5,0.391 0.91,0.391 0.48,0 0.867,-0.148 1.148,-0.461 0.282,-0.309 0.422,-0.726 0.422,-1.269 v -3.098 h 0.899 v 5.469 h -0.899 v -0.84 c -0.223,0.34 -0.48,0.578 -0.762,0.738 -0.289,0.152 -0.621,0.231 -1,0.231 -0.628,0 -1.109,-0.188 -1.429,-0.579 -0.328,-0.378 -0.489,-0.949 -0.489,-1.711 z"
           style="fill:#000000;fill-opacity:1;fill-rule:nonzero;stroke:none"
           transform="scale(1.3333333)"
           clip-path="url(#clipPath100)" />
        <path
           id="path101"
           d="m 98.965,152.012 v 0.441 h -4.133 c 0.043,0.621 0.223,1.098 0.563,1.418 0.328,0.32 0.789,0.481 1.39,0.481 0.34,0 0.68,-0.04 1,-0.118 0.32,-0.082 0.649,-0.211 0.969,-0.39 v 0.847 c -0.32,0.141 -0.649,0.25 -0.988,0.313 -0.344,0.058 -0.692,0.098 -1.032,0.098 -0.879,0 -1.57,-0.25 -2.082,-0.75 -0.507,-0.5 -0.757,-1.188 -0.757,-2.059 0,-0.891 0.238,-1.602 0.718,-2.129 0.481,-0.519 1.141,-0.793 1.961,-0.793 0.738,0 1.321,0.242 1.75,0.711 0.418,0.48 0.641,1.121 0.641,1.93 z m -0.903,-0.258 c -0.007,-0.492 -0.148,-0.883 -0.41,-1.18 -0.269,-0.293 -0.629,-0.441 -1.07,-0.441 -0.5,0 -0.898,0.148 -1.199,0.429 -0.301,0.282 -0.481,0.68 -0.52,1.192 z"
           style="fill:#000000;fill-opacity:1;fill-rule:nonzero;stroke:none"
           transform="scale(1.3333333)"
           clip-path="url(#clipPath102)" />
        <path
           id="path103"
           d="m 104.984,151.672 v 3.301 h -0.898 v -3.27 c 0,-0.519 -0.109,-0.902 -0.309,-1.16 -0.203,-0.262 -0.5,-0.391 -0.902,-0.391 -0.488,0 -0.867,0.16 -1.148,0.469 -0.282,0.313 -0.422,0.731 -0.422,1.262 v 3.09 h -0.899 v -5.469 h 0.899 v 0.848 c 0.211,-0.321 0.461,-0.571 0.761,-0.731 0.289,-0.16 0.629,-0.25 1.008,-0.25 0.621,0 1.102,0.203 1.422,0.59 0.32,0.391 0.488,0.961 0.488,1.711 z"
           style="fill:#000000;fill-opacity:1;fill-rule:nonzero;stroke:none"
           transform="scale(1.3333333)"
           clip-path="url(#clipPath104)" />
        <path
           id="path105"
           d="m 110.715,149.711 v 0.84 c -0.258,-0.137 -0.508,-0.239 -0.77,-0.309 -0.257,-0.07 -0.507,-0.109 -0.769,-0.109 -0.578,0 -1.039,0.191 -1.36,0.558 -0.32,0.371 -0.48,0.891 -0.48,1.551 0,0.672 0.16,1.192 0.48,1.559 0.321,0.371 0.782,0.551 1.36,0.551 0.262,0 0.512,-0.028 0.769,-0.098 0.262,-0.07 0.512,-0.18 0.77,-0.32 v 0.828 c -0.258,0.121 -0.52,0.211 -0.777,0.261 -0.274,0.051 -0.563,0.079 -0.864,0.079 -0.816,0 -1.476,-0.25 -1.957,-0.77 -0.492,-0.508 -0.73,-1.211 -0.73,-2.09 0,-0.89 0.238,-1.59 0.73,-2.097 0.488,-0.512 1.16,-0.774 2.02,-0.774 0.277,0 0.551,0.031 0.808,0.09 0.262,0.062 0.52,0.141 0.77,0.25 z"
           style="fill:#000000;fill-opacity:1;fill-rule:nonzero;stroke:none"
           transform="scale(1.3333333)"
           clip-path="url(#clipPath106)" />
        <path
           id="path107"
           d="m 116.957,152.012 v 0.441 h -4.133 c 0.043,0.621 0.223,1.098 0.563,1.418 0.328,0.32 0.789,0.481 1.39,0.481 0.34,0 0.68,-0.04 1,-0.118 0.321,-0.082 0.649,-0.211 0.969,-0.39 v 0.847 c -0.32,0.141 -0.648,0.25 -0.988,0.313 -0.344,0.058 -0.692,0.098 -1.031,0.098 -0.879,0 -1.571,-0.25 -2.082,-0.75 -0.508,-0.5 -0.758,-1.188 -0.758,-2.059 0,-0.891 0.238,-1.602 0.718,-2.129 0.481,-0.519 1.141,-0.793 1.961,-0.793 0.739,0 1.321,0.242 1.75,0.711 0.418,0.48 0.641,1.121 0.641,1.93 z m -0.902,-0.258 c -0.008,-0.492 -0.149,-0.883 -0.41,-1.18 -0.27,-0.293 -0.629,-0.441 -1.071,-0.441 -0.5,0 -0.898,0.148 -1.199,0.429 -0.301,0.282 -0.48,0.68 -0.52,1.192 z"
           style="fill:#000000;fill-opacity:1;fill-rule:nonzero;stroke:none"
           transform="scale(1.3333333)"
           clip-path="url(#clipPath108)" />
      </g>
      <g
         id="g144">
        <path
           id="path79"
           d="m 9.953,151.473 h 20"
           style="fill:none;stroke:#ff0000;stroke-width:5;stroke-linecap:square;stroke-linejoin:round;stroke-miterlimit:10;stroke-dasharray:none;stroke-opacity:0.75"
           transform="scale(1.3333333)"
           clip-path="url(#clipPath80)" />
        <path
           id="path109"
           d="m 9.953,166.145 h 20"
           style="fill:none;stroke:#000000;stroke-width:1.5;stroke-linecap:square;stroke-linejoin:round;stroke-miterlimit:10;stroke-dasharray:none;stroke-opacity:1"
           transform="scale(1.3333333)"
           clip-path="url(#clipPath110)" />
      </g>
      <g
         id="g143">
        <path
           id="path111"
           d="m 39.922,163.164 v 5.672 h 1.191 c 1,0 1.739,-0.223 2.211,-0.68 0.457,-0.461 0.699,-1.183 0.699,-2.16 0,-0.98 -0.242,-1.691 -0.699,-2.152 -0.472,-0.449 -1.211,-0.68 -2.211,-0.68 z m -0.988,-0.809 h 2.031 c 1.41,0 2.449,0.301 3.109,0.879 0.66,0.59 0.988,1.512 0.988,2.762 0,1.258 -0.339,2.18 -1,2.77 -0.66,0.589 -1.699,0.879 -3.097,0.879 h -2.031 z"
           style="fill:#000000;fill-opacity:1;fill-rule:nonzero;stroke:none"
           transform="scale(1.3333333)"
           clip-path="url(#clipPath112)" />
        <path
           id="path113"
           d="m 51.277,166.684 v 0.441 h -4.132 c 0.043,0.621 0.222,1.098 0.562,1.418 0.328,0.32 0.789,0.48 1.391,0.48 0.34,0 0.679,-0.039 1,-0.117 0.32,-0.082 0.648,-0.211 0.968,-0.39 v 0.847 c -0.32,0.141 -0.648,0.25 -0.988,0.313 -0.344,0.058 -0.691,0.097 -1.031,0.097 -0.879,0 -1.57,-0.25 -2.082,-0.75 -0.508,-0.5 -0.758,-1.187 -0.758,-2.058 0,-0.891 0.238,-1.602 0.719,-2.129 0.48,-0.52 1.14,-0.793 1.961,-0.793 0.738,0 1.32,0.242 1.75,0.711 0.418,0.48 0.64,1.121 0.64,1.93 z m -0.902,-0.258 c -0.008,-0.492 -0.148,-0.883 -0.41,-1.18 -0.27,-0.293 -0.629,-0.441 -1.07,-0.441 -0.5,0 -0.899,0.148 -1.2,0.429 -0.3,0.282 -0.48,0.68 -0.519,1.192 z"
           style="fill:#000000;fill-opacity:1;fill-rule:nonzero;stroke:none"
           transform="scale(1.3333333)"
           clip-path="url(#clipPath114)" />
        <path
           id="path115"
           d="m 52.746,162.043 h 0.898 v 7.602 h -0.898 z"
           style="fill:#000000;fill-opacity:1;fill-rule:nonzero;stroke:none"
           transform="scale(1.3333333)"
           clip-path="url(#clipPath116)" />
        <path
           id="path117"
           d="m 55.527,164.176 h 0.899 v 5.469 h -0.899 z m 0,-2.133 h 0.899 v 1.141 h -0.899 z"
           style="fill:#000000;fill-opacity:1;fill-rule:nonzero;stroke:none"
           transform="scale(1.3333333)"
           clip-path="url(#clipPath118)" />
        <path
           id="path119"
           d="m 57.664,164.176 h 0.949 l 1.711,4.59 1.711,-4.59 h 0.949 l -2.05,5.469 h -1.219 z"
           style="fill:#000000;fill-opacity:1;fill-rule:nonzero;stroke:none"
           transform="scale(1.3333333)"
           clip-path="url(#clipPath120)" />
        <path
           id="path121"
           d="m 68.906,166.684 v 0.441 h -4.133 c 0.043,0.621 0.223,1.098 0.563,1.418 0.328,0.32 0.789,0.48 1.391,0.48 0.339,0 0.679,-0.039 1,-0.117 0.32,-0.082 0.648,-0.211 0.968,-0.39 v 0.847 c -0.32,0.141 -0.648,0.25 -0.988,0.313 -0.344,0.058 -0.691,0.097 -1.031,0.097 -0.879,0 -1.571,-0.25 -2.082,-0.75 -0.508,-0.5 -0.758,-1.187 -0.758,-2.058 0,-0.891 0.238,-1.602 0.719,-2.129 0.48,-0.52 1.14,-0.793 1.961,-0.793 0.738,0 1.32,0.242 1.75,0.711 0.418,0.48 0.64,1.121 0.64,1.93 z m -0.902,-0.258 c -0.008,-0.492 -0.149,-0.883 -0.41,-1.18 -0.27,-0.293 -0.629,-0.441 -1.071,-0.441 -0.5,0 -0.898,0.148 -1.199,0.429 -0.301,0.282 -0.48,0.68 -0.519,1.192 z"
           style="fill:#000000;fill-opacity:1;fill-rule:nonzero;stroke:none"
           transform="scale(1.3333333)"
           clip-path="url(#clipPath122)" />
        <path
           id="path123"
           d="m 73.543,165.016 c -0.098,-0.063 -0.211,-0.102 -0.328,-0.133 -0.121,-0.02 -0.25,-0.039 -0.391,-0.039 -0.512,0 -0.902,0.172 -1.172,0.5 -0.277,0.332 -0.41,0.801 -0.41,1.422 v 2.879 h -0.898 v -5.469 h 0.898 v 0.847 c 0.18,-0.328 0.43,-0.578 0.731,-0.738 0.3,-0.16 0.672,-0.242 1.109,-0.242 0.063,0 0.133,0.012 0.211,0.012 0.07,0.011 0.152,0.019 0.25,0.039 z"
           style="fill:#000000;fill-opacity:1;fill-rule:nonzero;stroke:none"
           transform="scale(1.3333333)"
           clip-path="url(#clipPath124)" />
        <path
           id="path125"
           d="m 78.945,166.684 v 0.441 h -4.133 c 0.043,0.621 0.223,1.098 0.563,1.418 0.328,0.32 0.789,0.48 1.391,0.48 0.339,0 0.679,-0.039 1,-0.117 0.32,-0.082 0.648,-0.211 0.968,-0.39 v 0.847 c -0.32,0.141 -0.648,0.25 -0.988,0.313 -0.344,0.058 -0.691,0.097 -1.031,0.097 -0.879,0 -1.57,-0.25 -2.082,-0.75 -0.508,-0.5 -0.758,-1.187 -0.758,-2.058 0,-0.891 0.238,-1.602 0.719,-2.129 0.48,-0.52 1.14,-0.793 1.961,-0.793 0.738,0 1.32,0.242 1.75,0.711 0.418,0.48 0.64,1.121 0.64,1.93 z m -0.902,-0.258 c -0.008,-0.492 -0.148,-0.883 -0.41,-1.18 -0.27,-0.293 -0.629,-0.441 -1.071,-0.441 -0.5,0 -0.898,0.148 -1.199,0.429 -0.301,0.282 -0.48,0.68 -0.519,1.192 z"
           style="fill:#000000;fill-opacity:1;fill-rule:nonzero;stroke:none"
           transform="scale(1.3333333)"
           clip-path="url(#clipPath126)" />
        <path
           id="path127"
           d="m 84.016,165.004 v -2.961 h 0.902 v 7.602 h -0.902 v -0.821 c -0.188,0.332 -0.43,0.571 -0.719,0.719 -0.289,0.152 -0.629,0.23 -1.031,0.23 -0.661,0 -1.2,-0.257 -1.618,-0.777 -0.421,-0.523 -0.621,-1.223 -0.621,-2.082 0,-0.859 0.2,-1.551 0.621,-2.078 0.418,-0.52 0.957,-0.793 1.618,-0.793 0.402,0 0.742,0.082 1.031,0.242 0.289,0.16 0.531,0.399 0.719,0.719 z m -3.059,1.91 c 0,0.66 0.129,1.18 0.398,1.559 0.27,0.382 0.641,0.562 1.122,0.562 0.48,0 0.851,-0.18 1.128,-0.562 0.27,-0.379 0.411,-0.899 0.411,-1.559 0,-0.66 -0.141,-1.168 -0.411,-1.551 -0.277,-0.379 -0.648,-0.57 -1.128,-0.57 -0.481,0 -0.852,0.191 -1.122,0.57 -0.269,0.383 -0.398,0.891 -0.398,1.551 z"
           style="fill:#000000;fill-opacity:1;fill-rule:nonzero;stroke:none"
           transform="scale(1.3333333)"
           clip-path="url(#clipPath128)" />
        <path
           id="path129"
           d="m 92.719,162.043 v 0.75 h -0.86 c -0.32,0 -0.55,0.07 -0.671,0.203 -0.129,0.129 -0.192,0.359 -0.192,0.699 v 0.481 h 1.481 v 0.699 h -1.481 v 4.77 h -0.898 v -4.77 h -0.86 v -0.699 h 0.86 v -0.383 c 0,-0.598 0.14,-1.047 0.422,-1.328 0.277,-0.281 0.726,-0.422 1.347,-0.422 z"
           style="fill:#000000;fill-opacity:1;fill-rule:nonzero;stroke:none"
           transform="scale(1.3333333)"
           clip-path="url(#clipPath130)" />
        <path
           id="path131"
           d="m 93.469,162.043 h 0.898 v 7.602 h -0.898 z"
           style="fill:#000000;fill-opacity:1;fill-rule:nonzero;stroke:none"
           transform="scale(1.3333333)"
           clip-path="url(#clipPath132)" />
        <path
           id="path133"
           d="m 96.156,167.484 v -3.308 h 0.899 v 3.277 c 0,0.52 0.101,0.902 0.3,1.16 0.2,0.262 0.5,0.391 0.911,0.391 0.48,0 0.867,-0.149 1.148,-0.461 0.281,-0.309 0.422,-0.727 0.422,-1.27 v -3.097 h 0.898 v 5.469 h -0.898 v -0.84 c -0.223,0.34 -0.481,0.578 -0.762,0.738 -0.289,0.152 -0.621,0.23 -1,0.23 -0.629,0 -1.109,-0.187 -1.429,-0.578 -0.329,-0.379 -0.489,-0.949 -0.489,-1.711 z"
           style="fill:#000000;fill-opacity:1;fill-rule:nonzero;stroke:none"
           transform="scale(1.3333333)"
           clip-path="url(#clipPath134)" />
        <path
           id="path135"
           d="m 107.266,166.684 v 0.441 h -4.133 c 0.043,0.621 0.222,1.098 0.562,1.418 0.328,0.32 0.789,0.48 1.391,0.48 0.34,0 0.68,-0.039 1,-0.117 0.32,-0.082 0.648,-0.211 0.969,-0.39 v 0.847 c -0.321,0.141 -0.649,0.25 -0.989,0.313 -0.343,0.058 -0.691,0.097 -1.031,0.097 -0.879,0 -1.57,-0.25 -2.082,-0.75 -0.508,-0.5 -0.758,-1.187 -0.758,-2.058 0,-0.891 0.239,-1.602 0.719,-2.129 0.481,-0.52 1.141,-0.793 1.961,-0.793 0.738,0 1.32,0.242 1.75,0.711 0.418,0.48 0.641,1.121 0.641,1.93 z m -0.903,-0.258 c -0.008,-0.492 -0.148,-0.883 -0.41,-1.18 -0.269,-0.293 -0.629,-0.441 -1.07,-0.441 -0.5,0 -0.899,0.148 -1.199,0.429 -0.301,0.282 -0.481,0.68 -0.52,1.192 z"
           style="fill:#000000;fill-opacity:1;fill-rule:nonzero;stroke:none"
           transform="scale(1.3333333)"
           clip-path="url(#clipPath136)" />
        <path
           id="path137"
           d="m 113.285,166.344 v 3.301 h -0.898 v -3.27 c 0,-0.52 -0.11,-0.902 -0.309,-1.16 -0.203,-0.262 -0.5,-0.391 -0.902,-0.391 -0.488,0 -0.867,0.16 -1.149,0.469 -0.281,0.312 -0.422,0.73 -0.422,1.262 v 3.09 h -0.898 v -5.469 h 0.898 v 0.847 c 0.211,-0.32 0.461,-0.57 0.762,-0.73 0.289,-0.16 0.629,-0.25 1.008,-0.25 0.621,0 1.102,0.203 1.422,0.59 0.32,0.39 0.488,0.961 0.488,1.711 z"
           style="fill:#000000;fill-opacity:1;fill-rule:nonzero;stroke:none"
           transform="scale(1.3333333)"
           clip-path="url(#clipPath138)" />
        <path
           id="path139"
           d="m 119.016,164.383 v 0.84 c -0.258,-0.137 -0.508,-0.239 -0.77,-0.309 -0.258,-0.07 -0.508,-0.109 -0.769,-0.109 -0.579,0 -1.039,0.191 -1.36,0.558 -0.32,0.371 -0.48,0.891 -0.48,1.551 0,0.672 0.16,1.191 0.48,1.559 0.321,0.371 0.781,0.55 1.36,0.55 0.261,0 0.511,-0.027 0.769,-0.097 0.262,-0.071 0.512,-0.18 0.77,-0.321 v 0.829 c -0.258,0.121 -0.52,0.211 -0.778,0.261 -0.273,0.051 -0.562,0.078 -0.863,0.078 -0.816,0 -1.477,-0.25 -1.957,-0.769 -0.492,-0.508 -0.73,-1.211 -0.73,-2.09 0,-0.891 0.238,-1.59 0.73,-2.098 0.488,-0.511 1.16,-0.773 2.02,-0.773 0.277,0 0.55,0.031 0.808,0.09 0.262,0.062 0.52,0.14 0.77,0.25 z"
           style="fill:#000000;fill-opacity:1;fill-rule:nonzero;stroke:none"
           transform="scale(1.3333333)"
           clip-path="url(#clipPath140)" />
        <path
           id="path141"
           d="m 125.258,166.684 v 0.441 h -4.133 c 0.043,0.621 0.223,1.098 0.563,1.418 0.328,0.32 0.789,0.48 1.39,0.48 0.34,0 0.68,-0.039 1,-0.117 0.32,-0.082 0.649,-0.211 0.969,-0.39 v 0.847 c -0.32,0.141 -0.649,0.25 -0.988,0.313 -0.344,0.058 -0.692,0.097 -1.032,0.097 -0.879,0 -1.57,-0.25 -2.082,-0.75 -0.507,-0.5 -0.757,-1.187 -0.757,-2.058 0,-0.891 0.238,-1.602 0.718,-2.129 0.481,-0.52 1.141,-0.793 1.961,-0.793 0.738,0 1.321,0.242 1.75,0.711 0.418,0.48 0.641,1.121 0.641,1.93 z m -0.903,-0.258 c -0.007,-0.492 -0.148,-0.883 -0.41,-1.18 -0.269,-0.293 -0.629,-0.441 -1.07,-0.441 -0.5,0 -0.898,0.148 -1.199,0.429 -0.301,0.282 -0.481,0.68 -0.52,1.192 z"
           style="fill:#000000;fill-opacity:1;fill-rule:nonzero;stroke:none"
           transform="scale(1.3333333)"
           clip-path="url(#clipPath142)" />
      </g>
    </g>
  </g>
</svg>
