<?xml version="1.0" encoding="utf-8" standalone="no"?>
<!DOCTYPE svg PUBLIC "-//W3C//DTD SVG 1.1//EN"
  "http://www.w3.org/Graphics/SVG/1.1/DTD/svg11.dtd">
<svg xmlns:xlink="http://www.w3.org/1999/xlink" width="357.54057pt" height="583.918125pt" viewBox="0 0 357.54057 583.918125" xmlns="http://www.w3.org/2000/svg" version="1.1">
 <metadata>
  <rdf:RDF xmlns:dc="http://purl.org/dc/elements/1.1/" xmlns:cc="http://creativecommons.org/ns#" xmlns:rdf="http://www.w3.org/1999/02/22-rdf-syntax-ns#">
   <cc:Work>
    <dc:type rdf:resource="http://purl.org/dc/dcmitype/StillImage"/>
    <dc:date>2024-12-02T11:23:36.526645</dc:date>
    <dc:format>image/svg+xml</dc:format>
    <dc:creator>
     <cc:Agent>
      <dc:title>Matplotlib v3.7.2, https://matplotlib.org/</dc:title>
     </cc:Agent>
    </dc:creator>
   </cc:Work>
  </rdf:RDF>
 </metadata>
 <defs>
  <style type="text/css">*{stroke-linejoin: round; stroke-linecap: butt}</style>
 </defs>
 <g id="figure_1">
  <g id="patch_1">
   <path d="M 0 583.918125 
L 357.54057 583.918125 
L 357.54057 0 
L 0 0 
z
" style="fill: #ffffff"/>
  </g>
  <g id="axes_1">
   <g id="patch_2">
    <path d="M 15.54057 576.718125 
L 350.34057 576.718125 
L 350.34057 302.262679 
L 15.54057 302.262679 
z
" style="fill: #ffffff"/>
   </g>
   <g id="PolyCollection_1">
    <defs>
     <path id="m0755a1447c" d="M 27.21964 -266.136716 
L 27.21964 -266.547806 
L 79.126617 -256.409147 
L 131.033594 -246.270488 
L 182.94057 -166.950565 
L 234.847547 -156.811905 
L 286.754524 -49.747074 
L 338.661501 -26.787629 
L 338.661501 -26.744009 
L 338.661501 -26.744009 
L 286.754524 -36.882669 
L 234.847547 -47.021328 
L 182.94057 -90.807829 
L 131.033594 -100.946488 
L 79.126617 -227.105132 
L 27.21964 -266.136716 
z
" style="stroke: #808080; stroke-opacity: 0.2"/>
    </defs>
    <g clip-path="url(#pe4878e5b1e)">
     <use xlink:href="#m0755a1447c" x="0" y="583.918125" style="fill: #808080; fill-opacity: 0.2; stroke: #808080; stroke-opacity: 0.2"/>
    </g>
   </g>
   <g id="patch_3">
    <path d="M 19.433594 575.459155 
L 23.326617 569.164305 
L 19.472524 569.164305 
L 19.472524 317.370319 
L 19.394664 317.370319 
L 19.394664 569.164305 
L 15.54057 569.164305 
z
" clip-path="url(#pe4878e5b1e)" style="stroke: #000000; stroke-linejoin: miter"/>
   </g>
   <g id="line2d_1">
    <path d="M 27.21964 317.781409 
L 79.126617 356.812993 
L 131.033594 482.971637 
L 182.94057 493.110296 
L 234.847547 536.896797 
L 286.754524 547.035456 
L 338.661501 557.174116 
" clip-path="url(#pe4878e5b1e)" style="fill: none; stroke: #1f77b4; stroke-width: 1.5; stroke-linecap: square"/>
   </g>
   <g id="line2d_2">
    <path d="M 27.21964 317.370319 
L 79.126617 327.508978 
L 131.033594 337.647637 
L 182.94057 416.96756 
L 234.847547 427.10622 
L 286.754524 534.171051 
L 338.661501 557.130496 
" clip-path="url(#pe4878e5b1e)" style="fill: none; stroke: #1faf59; stroke-width: 1.5; stroke-linecap: square"/>
   </g>
   <g id="text_1">
    <!-- Time -->
    <g transform="translate(7.2 312.575874) scale(0.1 -0.1)">
     <defs>
      <path id="DejaVuSans-54" d="M -19 4666 
L 3928 4666 
L 3928 4134 
L 2272 4134 
L 2272 0 
L 1638 0 
L 1638 4134 
L -19 4134 
L -19 4666 
z
" transform="scale(0.015625)"/>
      <path id="DejaVuSans-69" d="M 603 3500 
L 1178 3500 
L 1178 0 
L 603 0 
L 603 3500 
z
M 603 4863 
L 1178 4863 
L 1178 4134 
L 603 4134 
L 603 4863 
z
" transform="scale(0.015625)"/>
      <path id="DejaVuSans-6d" d="M 3328 2828 
Q 3544 3216 3844 3400 
Q 4144 3584 4550 3584 
Q 5097 3584 5394 3201 
Q 5691 2819 5691 2113 
L 5691 0 
L 5113 0 
L 5113 2094 
Q 5113 2597 4934 2840 
Q 4756 3084 4391 3084 
Q 3944 3084 3684 2787 
Q 3425 2491 3425 1978 
L 3425 0 
L 2847 0 
L 2847 2094 
Q 2847 2600 2669 2842 
Q 2491 3084 2119 3084 
Q 1678 3084 1418 2786 
Q 1159 2488 1159 1978 
L 1159 0 
L 581 0 
L 581 3500 
L 1159 3500 
L 1159 2956 
Q 1356 3278 1631 3431 
Q 1906 3584 2284 3584 
Q 2666 3584 2933 3390 
Q 3200 3197 3328 2828 
z
" transform="scale(0.015625)"/>
      <path id="DejaVuSans-65" d="M 3597 1894 
L 3597 1613 
L 953 1613 
Q 991 1019 1311 708 
Q 1631 397 2203 397 
Q 2534 397 2845 478 
Q 3156 559 3463 722 
L 3463 178 
Q 3153 47 2828 -22 
Q 2503 -91 2169 -91 
Q 1331 -91 842 396 
Q 353 884 353 1716 
Q 353 2575 817 3079 
Q 1281 3584 2069 3584 
Q 2775 3584 3186 3129 
Q 3597 2675 3597 1894 
z
M 3022 2063 
Q 3016 2534 2758 2815 
Q 2500 3097 2075 3097 
Q 1594 3097 1305 2825 
Q 1016 2553 972 2059 
L 3022 2063 
z
" transform="scale(0.015625)"/>
     </defs>
     <use xlink:href="#DejaVuSans-54"/>
     <use xlink:href="#DejaVuSans-69" x="57.958984"/>
     <use xlink:href="#DejaVuSans-6d" x="85.742188"/>
     <use xlink:href="#DejaVuSans-65" x="183.154297"/>
    </g>
   </g>
   <g id="text_2">
    <!-- Optimal leaves motion -->
    <g transform="translate(114.974633 573.462679) scale(0.12 -0.12)">
     <defs>
      <path id="DejaVuSans-4f" d="M 2522 4238 
Q 1834 4238 1429 3725 
Q 1025 3213 1025 2328 
Q 1025 1447 1429 934 
Q 1834 422 2522 422 
Q 3209 422 3611 934 
Q 4013 1447 4013 2328 
Q 4013 3213 3611 3725 
Q 3209 4238 2522 4238 
z
M 2522 4750 
Q 3503 4750 4090 4092 
Q 4678 3434 4678 2328 
Q 4678 1225 4090 567 
Q 3503 -91 2522 -91 
Q 1538 -91 948 565 
Q 359 1222 359 2328 
Q 359 3434 948 4092 
Q 1538 4750 2522 4750 
z
" transform="scale(0.015625)"/>
      <path id="DejaVuSans-70" d="M 1159 525 
L 1159 -1331 
L 581 -1331 
L 581 3500 
L 1159 3500 
L 1159 2969 
Q 1341 3281 1617 3432 
Q 1894 3584 2278 3584 
Q 2916 3584 3314 3078 
Q 3713 2572 3713 1747 
Q 3713 922 3314 415 
Q 2916 -91 2278 -91 
Q 1894 -91 1617 61 
Q 1341 213 1159 525 
z
M 3116 1747 
Q 3116 2381 2855 2742 
Q 2594 3103 2138 3103 
Q 1681 3103 1420 2742 
Q 1159 2381 1159 1747 
Q 1159 1113 1420 752 
Q 1681 391 2138 391 
Q 2594 391 2855 752 
Q 3116 1113 3116 1747 
z
" transform="scale(0.015625)"/>
      <path id="DejaVuSans-74" d="M 1172 4494 
L 1172 3500 
L 2356 3500 
L 2356 3053 
L 1172 3053 
L 1172 1153 
Q 1172 725 1289 603 
Q 1406 481 1766 481 
L 2356 481 
L 2356 0 
L 1766 0 
Q 1100 0 847 248 
Q 594 497 594 1153 
L 594 3053 
L 172 3053 
L 172 3500 
L 594 3500 
L 594 4494 
L 1172 4494 
z
" transform="scale(0.015625)"/>
      <path id="DejaVuSans-61" d="M 2194 1759 
Q 1497 1759 1228 1600 
Q 959 1441 959 1056 
Q 959 750 1161 570 
Q 1363 391 1709 391 
Q 2188 391 2477 730 
Q 2766 1069 2766 1631 
L 2766 1759 
L 2194 1759 
z
M 3341 1997 
L 3341 0 
L 2766 0 
L 2766 531 
Q 2569 213 2275 61 
Q 1981 -91 1556 -91 
Q 1019 -91 701 211 
Q 384 513 384 1019 
Q 384 1609 779 1909 
Q 1175 2209 1959 2209 
L 2766 2209 
L 2766 2266 
Q 2766 2663 2505 2880 
Q 2244 3097 1772 3097 
Q 1472 3097 1187 3025 
Q 903 2953 641 2809 
L 641 3341 
Q 956 3463 1253 3523 
Q 1550 3584 1831 3584 
Q 2591 3584 2966 3190 
Q 3341 2797 3341 1997 
z
" transform="scale(0.015625)"/>
      <path id="DejaVuSans-6c" d="M 603 4863 
L 1178 4863 
L 1178 0 
L 603 0 
L 603 4863 
z
" transform="scale(0.015625)"/>
      <path id="DejaVuSans-20" transform="scale(0.015625)"/>
      <path id="DejaVuSans-76" d="M 191 3500 
L 800 3500 
L 1894 563 
L 2988 3500 
L 3597 3500 
L 2284 0 
L 1503 0 
L 191 3500 
z
" transform="scale(0.015625)"/>
      <path id="DejaVuSans-73" d="M 2834 3397 
L 2834 2853 
Q 2591 2978 2328 3040 
Q 2066 3103 1784 3103 
Q 1356 3103 1142 2972 
Q 928 2841 928 2578 
Q 928 2378 1081 2264 
Q 1234 2150 1697 2047 
L 1894 2003 
Q 2506 1872 2764 1633 
Q 3022 1394 3022 966 
Q 3022 478 2636 193 
Q 2250 -91 1575 -91 
Q 1294 -91 989 -36 
Q 684 19 347 128 
L 347 722 
Q 666 556 975 473 
Q 1284 391 1588 391 
Q 1994 391 2212 530 
Q 2431 669 2431 922 
Q 2431 1156 2273 1281 
Q 2116 1406 1581 1522 
L 1381 1569 
Q 847 1681 609 1914 
Q 372 2147 372 2553 
Q 372 3047 722 3315 
Q 1072 3584 1716 3584 
Q 2034 3584 2315 3537 
Q 2597 3491 2834 3397 
z
" transform="scale(0.015625)"/>
      <path id="DejaVuSans-6f" d="M 1959 3097 
Q 1497 3097 1228 2736 
Q 959 2375 959 1747 
Q 959 1119 1226 758 
Q 1494 397 1959 397 
Q 2419 397 2687 759 
Q 2956 1122 2956 1747 
Q 2956 2369 2687 2733 
Q 2419 3097 1959 3097 
z
M 1959 3584 
Q 2709 3584 3137 3096 
Q 3566 2609 3566 1747 
Q 3566 888 3137 398 
Q 2709 -91 1959 -91 
Q 1206 -91 779 398 
Q 353 888 353 1747 
Q 353 2609 779 3096 
Q 1206 3584 1959 3584 
z
" transform="scale(0.015625)"/>
      <path id="DejaVuSans-6e" d="M 3513 2113 
L 3513 0 
L 2938 0 
L 2938 2094 
Q 2938 2591 2744 2837 
Q 2550 3084 2163 3084 
Q 1697 3084 1428 2787 
Q 1159 2491 1159 1978 
L 1159 0 
L 581 0 
L 581 3500 
L 1159 3500 
L 1159 2956 
Q 1366 3272 1645 3428 
Q 1925 3584 2291 3584 
Q 2894 3584 3203 3211 
Q 3513 2838 3513 2113 
z
" transform="scale(0.015625)"/>
     </defs>
     <use xlink:href="#DejaVuSans-4f"/>
     <use xlink:href="#DejaVuSans-70" x="78.710938"/>
     <use xlink:href="#DejaVuSans-74" x="142.1875"/>
     <use xlink:href="#DejaVuSans-69" x="181.396484"/>
     <use xlink:href="#DejaVuSans-6d" x="209.179688"/>
     <use xlink:href="#DejaVuSans-61" x="306.591797"/>
     <use xlink:href="#DejaVuSans-6c" x="367.871094"/>
     <use xlink:href="#DejaVuSans-20" x="395.654297"/>
     <use xlink:href="#DejaVuSans-6c" x="427.441406"/>
     <use xlink:href="#DejaVuSans-65" x="455.224609"/>
     <use xlink:href="#DejaVuSans-61" x="516.748047"/>
     <use xlink:href="#DejaVuSans-76" x="578.027344"/>
     <use xlink:href="#DejaVuSans-65" x="637.207031"/>
     <use xlink:href="#DejaVuSans-73" x="698.730469"/>
     <use xlink:href="#DejaVuSans-20" x="750.830078"/>
     <use xlink:href="#DejaVuSans-6d" x="782.617188"/>
     <use xlink:href="#DejaVuSans-6f" x="880.029297"/>
     <use xlink:href="#DejaVuSans-74" x="941.210938"/>
     <use xlink:href="#DejaVuSans-69" x="980.419922"/>
     <use xlink:href="#DejaVuSans-6f" x="1008.203125"/>
     <use xlink:href="#DejaVuSans-6e" x="1069.384766"/>
    </g>
   </g>
  </g>
  <g id="axes_2">
   <g id="patch_4">
    <path d="M 15.54057 296.773571 
L 350.34057 296.773571 
L 350.34057 22.318125 
L 15.54057 22.318125 
z
" style="fill: #ffffff"/>
   </g>
   <g id="PolyCollection_2">
    <defs>
     <path id="m9b1366a148" d="M 27.21964 -302.252194 
L 27.21964 -302.663284 
L 79.126617 -331.556209 
L 131.033594 -447.576193 
L 182.94057 -378.394828 
L 234.847547 -412.042771 
L 286.754524 -315.116497 
L 338.661501 -302.295712 
L 338.661501 -302.252194 
L 338.661501 -302.252194 
L 286.754524 -302.252194 
L 234.847547 -302.252194 
L 182.94057 -302.252194 
L 131.033594 -302.252194 
L 79.126617 -302.252194 
L 27.21964 -302.252194 
z
" style="stroke: #808080; stroke-opacity: 0.1"/>
    </defs>
    <g clip-path="url(#p12af127a4d)">
     <use xlink:href="#m9b1366a148" x="0" y="583.918125" style="fill: #808080; fill-opacity: 0.1; stroke: #808080; stroke-opacity: 0.1"/>
    </g>
   </g>
   <g id="line2d_3">
    <path d="M 31.112664 281.044943 
L 34.179894 280.815497 
L 37.247124 280.512068 
L 40.314355 280.114887 
L 43.381585 279.600312 
L 46.448816 278.940518 
L 49.516046 278.103302 
L 52.583277 277.052064 
L 55.650507 275.746014 
L 58.717738 274.140655 
L 61.784968 272.188616 
L 64.852198 269.840842 
L 67.919429 267.04821 
L 70.986659 263.763537 
L 74.05389 259.943985 
L 77.12112 255.553786 
L 80.188351 250.567204 
L 83.255581 244.971603 
L 86.322812 238.770445 
L 89.390042 231.986035 
L 92.457272 224.661802 
L 95.524503 216.863885 
L 98.591733 208.681844 
L 101.658964 200.228296 
L 104.726194 191.637371 
L 107.793425 183.061913 
L 110.860655 174.669442 
L 113.927886 166.636979 
L 116.995116 159.144908 
L 120.062346 152.370138 
L 123.129577 146.478897 
L 126.196807 141.619507 
L 129.264038 137.915557 
L 132.331268 135.459825 
L 135.398499 134.30932 
L 138.465729 134.481712 
L 141.53296 135.953365 
L 144.60019 138.659092 
L 147.66742 142.493628 
L 150.734651 147.314773 
L 153.801881 152.948029 
L 156.869112 159.192525 
L 159.936342 165.827965 
L 163.003573 172.622312 
L 166.070803 179.339942 
L 169.138033 185.749973 
L 172.205264 191.634532 
L 175.272494 196.796703 
L 178.339725 201.067949 
L 181.406955 204.314768 
L 184.474186 206.444362 
L 187.541416 207.409076 
L 190.608647 207.209362 
L 193.675877 205.895016 
L 196.743107 203.564469 
L 199.810338 200.36196 
L 202.877568 196.4725 
L 205.944799 192.114668 
L 209.012029 187.531416 
L 212.07926 182.979229 
L 215.14649 178.716154 
L 218.213721 174.989346 
L 221.280951 172.022878 
L 224.348181 170.00662 
L 227.415412 169.086933 
L 230.482642 169.359855 
L 233.549873 170.867251 
L 236.617103 173.596207 
L 239.684334 177.481654 
L 242.751564 182.411989 
L 245.818795 188.237199 
L 248.886025 194.77881 
L 251.953255 201.840873 
L 255.020486 209.221153 
L 258.087716 216.721736 
L 261.154947 224.158352 
L 264.222177 231.367912 
L 267.289408 238.213922 
L 270.356638 244.589655 
L 273.423869 250.41916 
L 276.491099 255.656338 
L 279.558329 260.282431 
L 282.62556 264.302368 
L 285.69279 267.740384 
L 288.760021 270.635364 
L 291.827251 273.03625 
L 294.894482 274.997829 
L 297.961712 276.577079 
L 301.028943 277.830209 
L 304.096173 278.81042 
L 307.163403 279.566365 
L 310.230634 280.141232 
L 313.297864 280.572358 
L 316.365095 280.891255 
L 319.432325 281.123929 
L 322.499556 281.291398 
L 325.566786 281.410316 
L 328.634017 281.493628 
L 331.701247 281.551219 
L 334.768477 281.590504 
" clip-path="url(#p12af127a4d)" style="fill: none; stroke: #ff0000; stroke-opacity: 0.75; stroke-width: 5; stroke-linecap: square"/>
   </g>
   <g id="line2d_4">
    <path d="M 27.21964 281.254841 
L 79.126617 252.361916 
L 131.033594 136.341932 
L 182.94057 205.523297 
L 234.847547 171.875354 
L 286.754524 268.801628 
L 338.661501 281.622413 
" clip-path="url(#p12af127a4d)" style="fill: none; stroke: #000000; stroke-width: 1.5; stroke-linecap: square"/>
   </g>
   <g id="mpl_toolkits.axisartist.axis_artist_1">
    <g id="patch_5">
     <path d="M 15.54057 296.773571 
L 350.34057 296.773571 
" style="fill: none; stroke: #000000; stroke-width: 0.8; stroke-linecap: square"/>
    </g>
   </g>
   <g id="mpl_toolkits.axisartist.axis_artist_2">
    <g id="patch_6">
     <path d="M 15.54057 22.318125 
L 350.34057 22.318125 
" style="fill: none; stroke: #000000; stroke-width: 0.8; stroke-linecap: square"/>
    </g>
   </g>
   <g id="mpl_toolkits.axisartist.axis_artist_3">
    <g id="patch_7">
     <path d="M 15.54057 296.773571 
L 15.54057 22.318125 
" style="fill: none; stroke: #000000; stroke-width: 0.8; stroke-linecap: square"/>
    </g>
   </g>
   <g id="mpl_toolkits.axisartist.axis_artist_4">
    <g id="patch_8">
     <path d="M 350.34057 296.773571 
L 350.34057 22.318125 
" style="fill: none; stroke: #000000; stroke-width: 0.8; stroke-linecap: square"/>
    </g>
   </g>
   <g id="text_3">
    <!-- Fluence 7-pieces linear approximation -->
    <g transform="translate(68.233695 16.318125) scale(0.12 -0.12)">
     <defs>
      <path id="DejaVuSans-46" d="M 628 4666 
L 3309 4666 
L 3309 4134 
L 1259 4134 
L 1259 2759 
L 3109 2759 
L 3109 2228 
L 1259 2228 
L 1259 0 
L 628 0 
L 628 4666 
z
" transform="scale(0.015625)"/>
      <path id="DejaVuSans-75" d="M 544 1381 
L 544 3500 
L 1119 3500 
L 1119 1403 
Q 1119 906 1312 657 
Q 1506 409 1894 409 
Q 2359 409 2629 706 
Q 2900 1003 2900 1516 
L 2900 3500 
L 3475 3500 
L 3475 0 
L 2900 0 
L 2900 538 
Q 2691 219 2414 64 
Q 2138 -91 1772 -91 
Q 1169 -91 856 284 
Q 544 659 544 1381 
z
M 1991 3584 
L 1991 3584 
z
" transform="scale(0.015625)"/>
      <path id="DejaVuSans-63" d="M 3122 3366 
L 3122 2828 
Q 2878 2963 2633 3030 
Q 2388 3097 2138 3097 
Q 1578 3097 1268 2742 
Q 959 2388 959 1747 
Q 959 1106 1268 751 
Q 1578 397 2138 397 
Q 2388 397 2633 464 
Q 2878 531 3122 666 
L 3122 134 
Q 2881 22 2623 -34 
Q 2366 -91 2075 -91 
Q 1284 -91 818 406 
Q 353 903 353 1747 
Q 353 2603 823 3093 
Q 1294 3584 2113 3584 
Q 2378 3584 2631 3529 
Q 2884 3475 3122 3366 
z
" transform="scale(0.015625)"/>
      <path id="DejaVuSans-37" d="M 525 4666 
L 3525 4666 
L 3525 4397 
L 1831 0 
L 1172 0 
L 2766 4134 
L 525 4134 
L 525 4666 
z
" transform="scale(0.015625)"/>
      <path id="DejaVuSans-2d" d="M 313 2009 
L 1997 2009 
L 1997 1497 
L 313 1497 
L 313 2009 
z
" transform="scale(0.015625)"/>
      <path id="DejaVuSans-72" d="M 2631 2963 
Q 2534 3019 2420 3045 
Q 2306 3072 2169 3072 
Q 1681 3072 1420 2755 
Q 1159 2438 1159 1844 
L 1159 0 
L 581 0 
L 581 3500 
L 1159 3500 
L 1159 2956 
Q 1341 3275 1631 3429 
Q 1922 3584 2338 3584 
Q 2397 3584 2469 3576 
Q 2541 3569 2628 3553 
L 2631 2963 
z
" transform="scale(0.015625)"/>
      <path id="DejaVuSans-78" d="M 3513 3500 
L 2247 1797 
L 3578 0 
L 2900 0 
L 1881 1375 
L 863 0 
L 184 0 
L 1544 1831 
L 300 3500 
L 978 3500 
L 1906 2253 
L 2834 3500 
L 3513 3500 
z
" transform="scale(0.015625)"/>
     </defs>
     <use xlink:href="#DejaVuSans-46"/>
     <use xlink:href="#DejaVuSans-6c" x="57.519531"/>
     <use xlink:href="#DejaVuSans-75" x="85.302734"/>
     <use xlink:href="#DejaVuSans-65" x="148.681641"/>
     <use xlink:href="#DejaVuSans-6e" x="210.205078"/>
     <use xlink:href="#DejaVuSans-63" x="273.583984"/>
     <use xlink:href="#DejaVuSans-65" x="328.564453"/>
     <use xlink:href="#DejaVuSans-20" x="390.087891"/>
     <use xlink:href="#DejaVuSans-37" x="421.875"/>
     <use xlink:href="#DejaVuSans-2d" x="485.498047"/>
     <use xlink:href="#DejaVuSans-70" x="521.582031"/>
     <use xlink:href="#DejaVuSans-69" x="585.058594"/>
     <use xlink:href="#DejaVuSans-65" x="612.841797"/>
     <use xlink:href="#DejaVuSans-63" x="674.365234"/>
     <use xlink:href="#DejaVuSans-65" x="729.345703"/>
     <use xlink:href="#DejaVuSans-73" x="790.869141"/>
     <use xlink:href="#DejaVuSans-20" x="842.96875"/>
     <use xlink:href="#DejaVuSans-6c" x="874.755859"/>
     <use xlink:href="#DejaVuSans-69" x="902.539062"/>
     <use xlink:href="#DejaVuSans-6e" x="930.322266"/>
     <use xlink:href="#DejaVuSans-65" x="993.701172"/>
     <use xlink:href="#DejaVuSans-61" x="1055.224609"/>
     <use xlink:href="#DejaVuSans-72" x="1116.503906"/>
     <use xlink:href="#DejaVuSans-20" x="1157.617188"/>
     <use xlink:href="#DejaVuSans-61" x="1189.404297"/>
     <use xlink:href="#DejaVuSans-70" x="1250.683594"/>
     <use xlink:href="#DejaVuSans-70" x="1314.160156"/>
     <use xlink:href="#DejaVuSans-72" x="1377.636719"/>
     <use xlink:href="#DejaVuSans-6f" x="1416.5"/>
     <use xlink:href="#DejaVuSans-78" x="1474.556641"/>
     <use xlink:href="#DejaVuSans-69" x="1533.736328"/>
     <use xlink:href="#DejaVuSans-6d" x="1561.519531"/>
     <use xlink:href="#DejaVuSans-61" x="1658.931641"/>
     <use xlink:href="#DejaVuSans-74" x="1720.210938"/>
     <use xlink:href="#DejaVuSans-69" x="1759.419922"/>
     <use xlink:href="#DejaVuSans-6f" x="1787.203125"/>
     <use xlink:href="#DejaVuSans-6e" x="1848.384766"/>
    </g>
   </g>
  </g>
 </g>
 <defs>
  <clipPath id="pe4878e5b1e">
   <rect x="15.54057" y="302.262679" width="334.8" height="274.455446"/>
  </clipPath>
  <clipPath id="p12af127a4d">
   <rect x="15.54057" y="22.318125" width="334.8" height="274.455446"/>
  </clipPath>
 </defs>
</svg>
