<?xml version="1.0" encoding="utf-8" standalone="no"?>
<!DOCTYPE svg PUBLIC "-//W3C//DTD SVG 1.1//EN"
  "http://www.w3.org/Graphics/SVG/1.1/DTD/svg11.dtd">
<svg xmlns:xlink="http://www.w3.org/1999/xlink" width="357.54057pt" height="583.918125pt" viewBox="0 0 357.54057 583.918125" xmlns="http://www.w3.org/2000/svg" version="1.1">
 <metadata>
  <rdf:RDF xmlns:dc="http://purl.org/dc/elements/1.1/" xmlns:cc="http://creativecommons.org/ns#" xmlns:rdf="http://www.w3.org/1999/02/22-rdf-syntax-ns#">
   <cc:Work>
    <dc:type rdf:resource="http://purl.org/dc/dcmitype/StillImage"/>
    <dc:date>2024-12-02T11:23:37.096212</dc:date>
    <dc:format>image/svg+xml</dc:format>
    <dc:creator>
     <cc:Agent>
      <dc:title>Matplotlib v3.7.2, https://matplotlib.org/</dc:title>
     </cc:Agent>
    </dc:creator>
   </cc:Work>
  </rdf:RDF>
 </metadata>
 <defs>
  <style type="text/css">*{stroke-linejoin: round; stroke-linecap: butt}</style>
 </defs>
 <g id="figure_1">
  <g id="patch_1">
   <path d="M 0 583.918125 
L 357.54057 583.918125 
L 357.54057 0 
L 0 0 
z
" style="fill: #ffffff"/>
  </g>
  <g id="axes_1">
   <g id="patch_2">
    <path d="M 15.54057 576.718125 
L 350.34057 576.718125 
L 350.34057 302.262679 
L 15.54057 302.262679 
z
" style="fill: #ffffff"/>
   </g>
   <g id="PolyCollection_1">
    <defs>
     <path id="m8df488e45f" d="M 27.21964 -266.162785 
L 27.21964 -266.547806 
L 30.365518 -265.883105 
L 33.511395 -265.218404 
L 36.657272 -264.553703 
L 39.80315 -263.889001 
L 42.949027 -263.2243 
L 46.094905 -262.559599 
L 49.240782 -261.894898 
L 52.386659 -261.230196 
L 55.532537 -260.565495 
L 58.678414 -259.900794 
L 61.824291 -259.236093 
L 64.970169 -258.571391 
L 68.116046 -257.90669 
L 71.261924 -257.241989 
L 74.407801 -256.577288 
L 77.553678 -255.912586 
L 80.699556 -255.247885 
L 83.845433 -254.583184 
L 86.99131 -253.918483 
L 90.137188 -253.253781 
L 93.283065 -252.58908 
L 96.428943 -251.924379 
L 99.57482 -251.259678 
L 102.720697 -250.594976 
L 105.866575 -249.930275 
L 109.012452 -249.265574 
L 112.158329 -248.600873 
L 115.304207 -247.936171 
L 118.450084 -247.27147 
L 121.595962 -246.606769 
L 124.741839 -245.942068 
L 127.887716 -245.277366 
L 131.033594 -244.612665 
L 134.179471 -243.947964 
L 137.325349 -243.283263 
L 140.471226 -241.647888 
L 143.617103 -238.770023 
L 146.762981 -234.742799 
L 149.908858 -229.69883 
L 153.054735 -223.805757 
L 156.200613 -217.260314 
L 159.34649 -210.281198 
L 162.492368 -203.101054 
L 165.638245 -195.957891 
L 168.784122 -189.086245 
L 171.93 -182.708367 
L 175.075877 -177.025717 
L 178.221754 -172.211013 
L 181.367632 -168.401086 
L 184.513509 -165.690793 
L 187.659387 -164.12827 
L 190.805264 -163.463568 
L 193.951141 -162.798867 
L 197.097019 -162.134166 
L 200.242896 -161.469465 
L 203.388773 -160.804763 
L 206.534651 -160.140062 
L 209.680528 -159.475361 
L 212.826406 -158.81066 
L 215.972283 -158.145958 
L 219.11816 -157.481257 
L 222.264038 -156.816556 
L 225.409915 -156.151855 
L 228.555792 -155.487153 
L 231.70167 -154.10602 
L 234.847547 -151.507536 
L 237.993425 -147.726857 
L 241.139302 -142.851046 
L 244.285179 -137.011881 
L 247.431057 -130.376231 
L 250.576934 -123.134844 
L 253.722812 -115.490458 
L 256.868689 -107.646151 
L 260.014566 -99.794761 
L 263.160444 -92.11005 
L 266.306321 -84.740053 
L 269.452198 -77.802849 
L 272.598076 -71.384742 
L 275.743953 -65.540645 
L 278.889831 -60.296302 
L 282.035708 -55.651914 
L 285.181585 -51.586642 
L 288.327463 -48.063534 
L 291.47334 -45.034434 
L 294.619217 -42.444545 
L 297.765095 -40.236386 
L 300.910972 -38.353025 
L 304.05685 -36.740512 
L 307.202727 -35.349559 
L 310.348604 -34.136527 
L 313.494482 -33.063838 
L 316.640359 -32.099944 
L 319.786236 -31.218971 
L 322.932114 -30.400157 
L 326.077991 -29.627189 
L 329.223869 -28.887496 
L 332.369746 -28.171578 
L 335.515623 -27.472384 
L 338.661501 -26.784774 
L 338.661501 -26.744009 
L 338.661501 -26.744009 
L 335.515623 -27.408711 
L 332.369746 -28.073412 
L 329.223869 -28.738113 
L 326.077991 -29.402814 
L 322.932114 -30.067516 
L 319.786236 -30.732217 
L 316.640359 -31.396918 
L 313.494482 -32.061619 
L 310.348604 -32.726321 
L 307.202727 -33.391022 
L 304.05685 -34.055723 
L 300.910972 -34.720424 
L 297.765095 -35.385126 
L 294.619217 -36.049827 
L 291.47334 -36.714528 
L 288.327463 -37.379229 
L 285.181585 -38.043931 
L 282.035708 -38.708632 
L 278.889831 -39.373333 
L 275.743953 -40.038034 
L 272.598076 -40.702736 
L 269.452198 -41.367437 
L 266.306321 -42.032138 
L 263.160444 -42.696839 
L 260.014566 -43.361541 
L 256.868689 -44.026242 
L 253.722812 -44.690943 
L 250.576934 -45.355644 
L 247.431057 -46.020346 
L 244.285179 -46.685047 
L 241.139302 -47.349748 
L 237.993425 -48.014449 
L 234.847547 -48.679151 
L 231.70167 -49.343852 
L 228.555792 -50.008553 
L 225.409915 -51.153249 
L 222.264038 -53.41672 
L 219.11816 -56.667432 
L 215.972283 -60.726214 
L 212.826406 -65.375385 
L 209.680528 -70.370112 
L 206.534651 -75.451143 
L 203.388773 -80.358043 
L 200.242896 -84.842082 
L 197.097019 -88.678009 
L 193.951141 -91.674121 
L 190.805264 -93.680201 
L 187.659387 -94.593109 
L 184.513509 -95.25781 
L 181.367632 -95.922512 
L 178.221754 -96.587213 
L 175.075877 -97.251914 
L 171.93 -97.916615 
L 168.784122 -98.581317 
L 165.638245 -99.246018 
L 162.492368 -99.910719 
L 159.34649 -100.57542 
L 156.200613 -101.240122 
L 153.054735 -101.904823 
L 149.908858 -102.569524 
L 146.762981 -103.234225 
L 143.617103 -103.898927 
L 140.471226 -104.563628 
L 137.325349 -105.228329 
L 134.179471 -106.21571 
L 131.033594 -108.50416 
L 127.887716 -112.059197 
L 124.741839 -116.806954 
L 121.595962 -122.638647 
L 118.450084 -129.416436 
L 115.304207 -136.980311 
L 112.158329 -145.155623 
L 109.012452 -153.760792 
L 105.866575 -162.614789 
L 102.720697 -171.544005 
L 99.57482 -180.388163 
L 96.428943 -189.005069 
L 93.283065 -197.27402 
L 90.137188 -205.097864 
L 86.99131 -212.403724 
L 83.845433 -219.142524 
L 80.699556 -225.287499 
L 77.553678 -230.831909 
L 74.407801 -235.786195 
L 71.261924 -240.174817 
L 68.116046 -244.033001 
L 64.970169 -247.403569 
L 61.824291 -250.33402 
L 58.678414 -252.873956 
L 55.532537 -255.072934 
L 52.386659 -256.978758 
L 49.240782 -258.636207 
L 46.094905 -260.086187 
L 42.949027 -261.36523 
L 39.80315 -262.505303 
L 36.657272 -263.53386 
L 33.511395 -264.474065 
L 30.365518 -265.345139 
L 27.21964 -266.162785 
z
" style="stroke: #808080; stroke-opacity: 0.2"/>
    </defs>
    <g clip-path="url(#p40e49488fa)">
     <use xlink:href="#m8df488e45f" x="0" y="583.918125" style="fill: #808080; fill-opacity: 0.2; stroke: #808080; stroke-opacity: 0.2"/>
    </g>
   </g>
   <g id="patch_3">
    <path d="M 19.433594 575.459155 
L 23.326617 569.164305 
L 19.472524 569.164305 
L 19.472524 317.370319 
L 19.394664 317.370319 
L 19.394664 569.164305 
L 15.54057 569.164305 
z
" clip-path="url(#p40e49488fa)" style="stroke: #000000; stroke-linejoin: miter"/>
   </g>
   <g id="line2d_1">
    <path d="M 27.21964 317.75534 
L 30.365518 318.572986 
L 33.511395 319.44406 
L 36.657272 320.384265 
L 39.80315 321.412822 
L 42.949027 322.552895 
L 46.094905 323.831938 
L 49.240782 325.281918 
L 52.386659 326.939367 
L 55.532537 328.845191 
L 58.678414 331.044169 
L 61.824291 333.584105 
L 64.970169 336.514556 
L 68.116046 339.885124 
L 71.261924 343.743308 
L 74.407801 348.13193 
L 77.553678 353.086216 
L 80.699556 358.630626 
L 83.845433 364.775601 
L 86.99131 371.514401 
L 90.137188 378.820261 
L 93.283065 386.644105 
L 96.428943 394.913056 
L 99.57482 403.529962 
L 102.720697 412.37412 
L 105.866575 421.303336 
L 109.012452 430.157333 
L 112.158329 438.762502 
L 115.304207 446.937814 
L 118.450084 454.501689 
L 121.595962 461.279478 
L 124.741839 467.111171 
L 127.887716 471.858928 
L 131.033594 475.413965 
L 134.179471 477.702415 
L 137.325349 478.689796 
L 140.471226 479.354497 
L 143.617103 480.019198 
L 146.762981 480.6839 
L 149.908858 481.348601 
L 153.054735 482.013302 
L 156.200613 482.678003 
L 159.34649 483.342705 
L 162.492368 484.007406 
L 165.638245 484.672107 
L 168.784122 485.336808 
L 171.93 486.00151 
L 175.075877 486.666211 
L 178.221754 487.330912 
L 181.367632 487.995613 
L 184.513509 488.660315 
L 187.659387 489.325016 
L 190.805264 490.237924 
L 193.951141 492.244004 
L 197.097019 495.240116 
L 200.242896 499.076043 
L 203.388773 503.560082 
L 206.534651 508.466982 
L 209.680528 513.548013 
L 212.826406 518.54274 
L 215.972283 523.191911 
L 219.11816 527.250693 
L 222.264038 530.501405 
L 225.409915 532.764876 
L 228.555792 533.909572 
L 231.70167 534.574273 
L 234.847547 535.238974 
L 237.993425 535.903676 
L 241.139302 536.568377 
L 244.285179 537.233078 
L 247.431057 537.897779 
L 250.576934 538.562481 
L 253.722812 539.227182 
L 256.868689 539.891883 
L 260.014566 540.556584 
L 263.160444 541.221286 
L 266.306321 541.885987 
L 269.452198 542.550688 
L 272.598076 543.215389 
L 275.743953 543.880091 
L 278.889831 544.544792 
L 282.035708 545.209493 
L 285.181585 545.874194 
L 288.327463 546.538896 
L 291.47334 547.203597 
L 294.619217 547.868298 
L 297.765095 548.532999 
L 300.910972 549.197701 
L 304.05685 549.862402 
L 307.202727 550.527103 
L 310.348604 551.191804 
L 313.494482 551.856506 
L 316.640359 552.521207 
L 319.786236 553.185908 
L 322.932114 553.850609 
L 326.077991 554.515311 
L 329.223869 555.180012 
L 332.369746 555.844713 
L 335.515623 556.509414 
L 338.661501 557.174116 
" clip-path="url(#p40e49488fa)" style="fill: none; stroke: #1f77b4; stroke-width: 1.5; stroke-linecap: square"/>
   </g>
   <g id="line2d_2">
    <path d="M 27.21964 317.370319 
L 30.365518 318.03502 
L 33.511395 318.699721 
L 36.657272 319.364422 
L 39.80315 320.029124 
L 42.949027 320.693825 
L 46.094905 321.358526 
L 49.240782 322.023227 
L 52.386659 322.687929 
L 55.532537 323.35263 
L 58.678414 324.017331 
L 61.824291 324.682032 
L 64.970169 325.346734 
L 68.116046 326.011435 
L 71.261924 326.676136 
L 74.407801 327.340837 
L 77.553678 328.005539 
L 80.699556 328.67024 
L 83.845433 329.334941 
L 86.99131 329.999642 
L 90.137188 330.664344 
L 93.283065 331.329045 
L 96.428943 331.993746 
L 99.57482 332.658447 
L 102.720697 333.323149 
L 105.866575 333.98785 
L 109.012452 334.652551 
L 112.158329 335.317252 
L 115.304207 335.981954 
L 118.450084 336.646655 
L 121.595962 337.311356 
L 124.741839 337.976057 
L 127.887716 338.640759 
L 131.033594 339.30546 
L 134.179471 339.970161 
L 137.325349 340.634862 
L 140.471226 342.270237 
L 143.617103 345.148102 
L 146.762981 349.175326 
L 149.908858 354.219295 
L 153.054735 360.112368 
L 156.200613 366.657811 
L 159.34649 373.636927 
L 162.492368 380.817071 
L 165.638245 387.960234 
L 168.784122 394.83188 
L 171.93 401.209758 
L 175.075877 406.892408 
L 178.221754 411.707112 
L 181.367632 415.517039 
L 184.513509 418.227332 
L 187.659387 419.789855 
L 190.805264 420.454557 
L 193.951141 421.119258 
L 197.097019 421.783959 
L 200.242896 422.44866 
L 203.388773 423.113362 
L 206.534651 423.778063 
L 209.680528 424.442764 
L 212.826406 425.107465 
L 215.972283 425.772167 
L 219.11816 426.436868 
L 222.264038 427.101569 
L 225.409915 427.76627 
L 228.555792 428.430972 
L 231.70167 429.812105 
L 234.847547 432.410589 
L 237.993425 436.191268 
L 241.139302 441.067079 
L 244.285179 446.906244 
L 247.431057 453.541894 
L 250.576934 460.783281 
L 253.722812 468.427667 
L 256.868689 476.271974 
L 260.014566 484.123364 
L 263.160444 491.808075 
L 266.306321 499.178072 
L 269.452198 506.115276 
L 272.598076 512.533383 
L 275.743953 518.37748 
L 278.889831 523.621823 
L 282.035708 528.266211 
L 285.181585 532.331483 
L 288.327463 535.854591 
L 291.47334 538.883691 
L 294.619217 541.47358 
L 297.765095 543.681739 
L 300.910972 545.5651 
L 304.05685 547.177613 
L 307.202727 548.568566 
L 310.348604 549.781598 
L 313.494482 550.854287 
L 316.640359 551.818181 
L 319.786236 552.699154 
L 322.932114 553.517968 
L 326.077991 554.290936 
L 329.223869 555.030629 
L 332.369746 555.746547 
L 335.515623 556.445741 
L 338.661501 557.133351 
" clip-path="url(#p40e49488fa)" style="fill: none; stroke: #1faf59; stroke-width: 1.5; stroke-linecap: square"/>
   </g>
   <g id="text_1">
    <!-- Time -->
    <g transform="translate(7.2 312.575874) scale(0.1 -0.1)">
     <defs>
      <path id="DejaVuSans-54" d="M -19 4666 
L 3928 4666 
L 3928 4134 
L 2272 4134 
L 2272 0 
L 1638 0 
L 1638 4134 
L -19 4134 
L -19 4666 
z
" transform="scale(0.015625)"/>
      <path id="DejaVuSans-69" d="M 603 3500 
L 1178 3500 
L 1178 0 
L 603 0 
L 603 3500 
z
M 603 4863 
L 1178 4863 
L 1178 4134 
L 603 4134 
L 603 4863 
z
" transform="scale(0.015625)"/>
      <path id="DejaVuSans-6d" d="M 3328 2828 
Q 3544 3216 3844 3400 
Q 4144 3584 4550 3584 
Q 5097 3584 5394 3201 
Q 5691 2819 5691 2113 
L 5691 0 
L 5113 0 
L 5113 2094 
Q 5113 2597 4934 2840 
Q 4756 3084 4391 3084 
Q 3944 3084 3684 2787 
Q 3425 2491 3425 1978 
L 3425 0 
L 2847 0 
L 2847 2094 
Q 2847 2600 2669 2842 
Q 2491 3084 2119 3084 
Q 1678 3084 1418 2786 
Q 1159 2488 1159 1978 
L 1159 0 
L 581 0 
L 581 3500 
L 1159 3500 
L 1159 2956 
Q 1356 3278 1631 3431 
Q 1906 3584 2284 3584 
Q 2666 3584 2933 3390 
Q 3200 3197 3328 2828 
z
" transform="scale(0.015625)"/>
      <path id="DejaVuSans-65" d="M 3597 1894 
L 3597 1613 
L 953 1613 
Q 991 1019 1311 708 
Q 1631 397 2203 397 
Q 2534 397 2845 478 
Q 3156 559 3463 722 
L 3463 178 
Q 3153 47 2828 -22 
Q 2503 -91 2169 -91 
Q 1331 -91 842 396 
Q 353 884 353 1716 
Q 353 2575 817 3079 
Q 1281 3584 2069 3584 
Q 2775 3584 3186 3129 
Q 3597 2675 3597 1894 
z
M 3022 2063 
Q 3016 2534 2758 2815 
Q 2500 3097 2075 3097 
Q 1594 3097 1305 2825 
Q 1016 2553 972 2059 
L 3022 2063 
z
" transform="scale(0.015625)"/>
     </defs>
     <use xlink:href="#DejaVuSans-54"/>
     <use xlink:href="#DejaVuSans-69" x="57.958984"/>
     <use xlink:href="#DejaVuSans-6d" x="85.742188"/>
     <use xlink:href="#DejaVuSans-65" x="183.154297"/>
    </g>
   </g>
   <g id="text_2">
    <!-- Optimal leaves motion -->
    <g transform="translate(114.974633 573.462679) scale(0.12 -0.12)">
     <defs>
      <path id="DejaVuSans-4f" d="M 2522 4238 
Q 1834 4238 1429 3725 
Q 1025 3213 1025 2328 
Q 1025 1447 1429 934 
Q 1834 422 2522 422 
Q 3209 422 3611 934 
Q 4013 1447 4013 2328 
Q 4013 3213 3611 3725 
Q 3209 4238 2522 4238 
z
M 2522 4750 
Q 3503 4750 4090 4092 
Q 4678 3434 4678 2328 
Q 4678 1225 4090 567 
Q 3503 -91 2522 -91 
Q 1538 -91 948 565 
Q 359 1222 359 2328 
Q 359 3434 948 4092 
Q 1538 4750 2522 4750 
z
" transform="scale(0.015625)"/>
      <path id="DejaVuSans-70" d="M 1159 525 
L 1159 -1331 
L 581 -1331 
L 581 3500 
L 1159 3500 
L 1159 2969 
Q 1341 3281 1617 3432 
Q 1894 3584 2278 3584 
Q 2916 3584 3314 3078 
Q 3713 2572 3713 1747 
Q 3713 922 3314 415 
Q 2916 -91 2278 -91 
Q 1894 -91 1617 61 
Q 1341 213 1159 525 
z
M 3116 1747 
Q 3116 2381 2855 2742 
Q 2594 3103 2138 3103 
Q 1681 3103 1420 2742 
Q 1159 2381 1159 1747 
Q 1159 1113 1420 752 
Q 1681 391 2138 391 
Q 2594 391 2855 752 
Q 3116 1113 3116 1747 
z
" transform="scale(0.015625)"/>
      <path id="DejaVuSans-74" d="M 1172 4494 
L 1172 3500 
L 2356 3500 
L 2356 3053 
L 1172 3053 
L 1172 1153 
Q 1172 725 1289 603 
Q 1406 481 1766 481 
L 2356 481 
L 2356 0 
L 1766 0 
Q 1100 0 847 248 
Q 594 497 594 1153 
L 594 3053 
L 172 3053 
L 172 3500 
L 594 3500 
L 594 4494 
L 1172 4494 
z
" transform="scale(0.015625)"/>
      <path id="DejaVuSans-61" d="M 2194 1759 
Q 1497 1759 1228 1600 
Q 959 1441 959 1056 
Q 959 750 1161 570 
Q 1363 391 1709 391 
Q 2188 391 2477 730 
Q 2766 1069 2766 1631 
L 2766 1759 
L 2194 1759 
z
M 3341 1997 
L 3341 0 
L 2766 0 
L 2766 531 
Q 2569 213 2275 61 
Q 1981 -91 1556 -91 
Q 1019 -91 701 211 
Q 384 513 384 1019 
Q 384 1609 779 1909 
Q 1175 2209 1959 2209 
L 2766 2209 
L 2766 2266 
Q 2766 2663 2505 2880 
Q 2244 3097 1772 3097 
Q 1472 3097 1187 3025 
Q 903 2953 641 2809 
L 641 3341 
Q 956 3463 1253 3523 
Q 1550 3584 1831 3584 
Q 2591 3584 2966 3190 
Q 3341 2797 3341 1997 
z
" transform="scale(0.015625)"/>
      <path id="DejaVuSans-6c" d="M 603 4863 
L 1178 4863 
L 1178 0 
L 603 0 
L 603 4863 
z
" transform="scale(0.015625)"/>
      <path id="DejaVuSans-20" transform="scale(0.015625)"/>
      <path id="DejaVuSans-76" d="M 191 3500 
L 800 3500 
L 1894 563 
L 2988 3500 
L 3597 3500 
L 2284 0 
L 1503 0 
L 191 3500 
z
" transform="scale(0.015625)"/>
      <path id="DejaVuSans-73" d="M 2834 3397 
L 2834 2853 
Q 2591 2978 2328 3040 
Q 2066 3103 1784 3103 
Q 1356 3103 1142 2972 
Q 928 2841 928 2578 
Q 928 2378 1081 2264 
Q 1234 2150 1697 2047 
L 1894 2003 
Q 2506 1872 2764 1633 
Q 3022 1394 3022 966 
Q 3022 478 2636 193 
Q 2250 -91 1575 -91 
Q 1294 -91 989 -36 
Q 684 19 347 128 
L 347 722 
Q 666 556 975 473 
Q 1284 391 1588 391 
Q 1994 391 2212 530 
Q 2431 669 2431 922 
Q 2431 1156 2273 1281 
Q 2116 1406 1581 1522 
L 1381 1569 
Q 847 1681 609 1914 
Q 372 2147 372 2553 
Q 372 3047 722 3315 
Q 1072 3584 1716 3584 
Q 2034 3584 2315 3537 
Q 2597 3491 2834 3397 
z
" transform="scale(0.015625)"/>
      <path id="DejaVuSans-6f" d="M 1959 3097 
Q 1497 3097 1228 2736 
Q 959 2375 959 1747 
Q 959 1119 1226 758 
Q 1494 397 1959 397 
Q 2419 397 2687 759 
Q 2956 1122 2956 1747 
Q 2956 2369 2687 2733 
Q 2419 3097 1959 3097 
z
M 1959 3584 
Q 2709 3584 3137 3096 
Q 3566 2609 3566 1747 
Q 3566 888 3137 398 
Q 2709 -91 1959 -91 
Q 1206 -91 779 398 
Q 353 888 353 1747 
Q 353 2609 779 3096 
Q 1206 3584 1959 3584 
z
" transform="scale(0.015625)"/>
      <path id="DejaVuSans-6e" d="M 3513 2113 
L 3513 0 
L 2938 0 
L 2938 2094 
Q 2938 2591 2744 2837 
Q 2550 3084 2163 3084 
Q 1697 3084 1428 2787 
Q 1159 2491 1159 1978 
L 1159 0 
L 581 0 
L 581 3500 
L 1159 3500 
L 1159 2956 
Q 1366 3272 1645 3428 
Q 1925 3584 2291 3584 
Q 2894 3584 3203 3211 
Q 3513 2838 3513 2113 
z
" transform="scale(0.015625)"/>
     </defs>
     <use xlink:href="#DejaVuSans-4f"/>
     <use xlink:href="#DejaVuSans-70" x="78.710938"/>
     <use xlink:href="#DejaVuSans-74" x="142.1875"/>
     <use xlink:href="#DejaVuSans-69" x="181.396484"/>
     <use xlink:href="#DejaVuSans-6d" x="209.179688"/>
     <use xlink:href="#DejaVuSans-61" x="306.591797"/>
     <use xlink:href="#DejaVuSans-6c" x="367.871094"/>
     <use xlink:href="#DejaVuSans-20" x="395.654297"/>
     <use xlink:href="#DejaVuSans-6c" x="427.441406"/>
     <use xlink:href="#DejaVuSans-65" x="455.224609"/>
     <use xlink:href="#DejaVuSans-61" x="516.748047"/>
     <use xlink:href="#DejaVuSans-76" x="578.027344"/>
     <use xlink:href="#DejaVuSans-65" x="637.207031"/>
     <use xlink:href="#DejaVuSans-73" x="698.730469"/>
     <use xlink:href="#DejaVuSans-20" x="750.830078"/>
     <use xlink:href="#DejaVuSans-6d" x="782.617188"/>
     <use xlink:href="#DejaVuSans-6f" x="880.029297"/>
     <use xlink:href="#DejaVuSans-74" x="941.210938"/>
     <use xlink:href="#DejaVuSans-69" x="980.419922"/>
     <use xlink:href="#DejaVuSans-6f" x="1008.203125"/>
     <use xlink:href="#DejaVuSans-6e" x="1069.384766"/>
    </g>
   </g>
  </g>
  <g id="axes_2">
   <g id="patch_4">
    <path d="M 15.54057 296.773571 
L 350.34057 296.773571 
L 350.34057 22.318125 
L 15.54057 22.318125 
z
" style="fill: #ffffff"/>
   </g>
   <g id="PolyCollection_2">
    <defs>
     <path id="mf3b304949f" d="M 27.21964 -302.252194 
L 27.21964 -302.637215 
L 30.365518 -302.79016 
L 33.511395 -302.996533 
L 36.657272 -303.272036 
L 39.80315 -303.635892 
L 42.949027 -304.111264 
L 46.094905 -304.725605 
L 49.240782 -305.510884 
L 52.386659 -306.503632 
L 55.532537 -307.744755 
L 58.678414 -309.279032 
L 61.824291 -311.154267 
L 64.970169 -313.420016 
L 68.116046 -316.125882 
L 71.261924 -319.319365 
L 74.407801 -323.043286 
L 77.553678 -327.332871 
L 80.699556 -332.212579 
L 83.845433 -337.692853 
L 86.99131 -343.766952 
L 90.137188 -350.408111 
L 93.283065 -357.567254 
L 96.428943 -365.171504 
L 99.57482 -373.123708 
L 102.720697 -381.303165 
L 105.866575 -389.56768 
L 109.012452 -397.756976 
L 112.158329 -405.697443 
L 115.304207 -413.208054 
L 118.450084 -420.107228 
L 121.595962 -426.220315 
L 124.741839 -431.387308 
L 127.887716 -435.470363 
L 131.033594 -438.360699 
L 134.179471 -439.984447 
L 137.325349 -440.307127 
L 140.471226 -439.336447 
L 143.617103 -437.123283 
L 146.762981 -433.760761 
L 149.908858 -429.381493 
L 153.054735 -424.153121 
L 156.200613 -418.27238 
L 159.34649 -411.957965 
L 162.492368 -405.442522 
L 165.638245 -398.96406 
L 168.784122 -392.757115 
L 171.93 -387.043938 
L 175.075877 -382.02599 
L 178.221754 -377.875988 
L 181.367632 -374.730761 
L 184.513509 -372.685169 
L 187.659387 -371.787348 
L 190.805264 -372.035561 
L 193.951141 -373.37694 
L 197.097019 -375.70835 
L 200.242896 -378.879577 
L 203.388773 -382.698915 
L 206.534651 -386.941113 
L 209.680528 -391.357442 
L 212.826406 -395.687468 
L 215.972283 -399.671938 
L 219.11816 -403.066018 
L 222.264038 -405.65203 
L 225.409915 -407.2508 
L 228.555792 -407.730794 
L 231.70167 -407.014355 
L 234.847547 -405.080573 
L 237.993425 -401.964595 
L 241.139302 -397.753485 
L 244.285179 -392.579021 
L 247.431057 -386.608072 
L 250.576934 -380.031386 
L 253.722812 -373.051702 
L 256.868689 -365.872096 
L 260.014566 -358.685408 
L 263.160444 -351.665398 
L 266.306321 -344.960101 
L 269.452198 -338.687599 
L 272.598076 -332.934194 
L 275.743953 -327.754797 
L 278.889831 -323.175156 
L 282.035708 -319.195469 
L 285.181585 -315.794898 
L 288.327463 -312.936491 
L 291.47334 -310.572093 
L 294.619217 -308.646905 
L 297.765095 -307.103447 
L 300.910972 -305.884787 
L 304.05685 -304.936975 
L 307.202727 -304.210724 
L 310.348604 -303.662393 
L 313.494482 -303.254406 
L 316.640359 -302.955213 
L 319.786236 -302.738941 
L 322.932114 -302.584829 
L 326.077991 -302.476562 
L 329.223869 -302.40157 
L 332.369746 -302.350353 
L 335.515623 -302.31586 
L 338.661501 -302.292952 
L 338.661501 -302.252194 
L 338.661501 -302.252194 
L 335.515623 -302.252194 
L 332.369746 -302.252194 
L 329.223869 -302.252194 
L 326.077991 -302.252194 
L 322.932114 -302.252194 
L 319.786236 -302.252194 
L 316.640359 -302.252194 
L 313.494482 -302.252194 
L 310.348604 -302.252194 
L 307.202727 -302.252194 
L 304.05685 -302.252194 
L 300.910972 -302.252194 
L 297.765095 -302.252194 
L 294.619217 -302.252194 
L 291.47334 -302.252194 
L 288.327463 -302.252194 
L 285.181585 -302.252194 
L 282.035708 -302.252194 
L 278.889831 -302.252194 
L 275.743953 -302.252194 
L 272.598076 -302.252194 
L 269.452198 -302.252194 
L 266.306321 -302.252194 
L 263.160444 -302.252194 
L 260.014566 -302.252194 
L 256.868689 -302.252194 
L 253.722812 -302.252194 
L 250.576934 -302.252194 
L 247.431057 -302.252194 
L 244.285179 -302.252194 
L 241.139302 -302.252194 
L 237.993425 -302.252194 
L 234.847547 -302.252194 
L 231.70167 -302.252194 
L 228.555792 -302.252194 
L 225.409915 -302.252194 
L 222.264038 -302.252194 
L 219.11816 -302.252194 
L 215.972283 -302.252194 
L 212.826406 -302.252194 
L 209.680528 -302.252194 
L 206.534651 -302.252194 
L 203.388773 -302.252194 
L 200.242896 -302.252194 
L 197.097019 -302.252194 
L 193.951141 -302.252194 
L 190.805264 -302.252194 
L 187.659387 -302.252194 
L 184.513509 -302.252194 
L 181.367632 -302.252194 
L 178.221754 -302.252194 
L 175.075877 -302.252194 
L 171.93 -302.252194 
L 168.784122 -302.252194 
L 165.638245 -302.252194 
L 162.492368 -302.252194 
L 159.34649 -302.252194 
L 156.200613 -302.252194 
L 153.054735 -302.252194 
L 149.908858 -302.252194 
L 146.762981 -302.252194 
L 143.617103 -302.252194 
L 140.471226 -302.252194 
L 137.325349 -302.252194 
L 134.179471 -302.252194 
L 131.033594 -302.252194 
L 127.887716 -302.252194 
L 124.741839 -302.252194 
L 121.595962 -302.252194 
L 118.450084 -302.252194 
L 115.304207 -302.252194 
L 112.158329 -302.252194 
L 109.012452 -302.252194 
L 105.866575 -302.252194 
L 102.720697 -302.252194 
L 99.57482 -302.252194 
L 96.428943 -302.252194 
L 93.283065 -302.252194 
L 90.137188 -302.252194 
L 86.99131 -302.252194 
L 83.845433 -302.252194 
L 80.699556 -302.252194 
L 77.553678 -302.252194 
L 74.407801 -302.252194 
L 71.261924 -302.252194 
L 68.116046 -302.252194 
L 64.970169 -302.252194 
L 61.824291 -302.252194 
L 58.678414 -302.252194 
L 55.532537 -302.252194 
L 52.386659 -302.252194 
L 49.240782 -302.252194 
L 46.094905 -302.252194 
L 42.949027 -302.252194 
L 39.80315 -302.252194 
L 36.657272 -302.252194 
L 33.511395 -302.252194 
L 30.365518 -302.252194 
L 27.21964 -302.252194 
z
" style="stroke: #808080; stroke-opacity: 0.1"/>
    </defs>
    <g clip-path="url(#p37a98c6c3a)">
     <use xlink:href="#mf3b304949f" x="0" y="583.918125" style="fill: #808080; fill-opacity: 0.1; stroke: #808080; stroke-opacity: 0.1"/>
    </g>
   </g>
   <g id="line2d_3">
    <path d="M 31.112664 281.084322 
L 34.179894 280.869426 
L 37.247124 280.585238 
L 40.314355 280.213244 
L 43.381585 279.7313 
L 46.448816 279.113346 
L 49.516046 278.329221 
L 52.583277 277.344646 
L 55.650507 276.121416 
L 58.717738 274.617859 
L 61.784968 272.789605 
L 64.852198 270.590712 
L 67.919429 267.97517 
L 70.986659 264.89879 
L 74.05389 261.321449 
L 77.12112 257.209647 
L 80.188351 252.539282 
L 83.255581 247.298517 
L 86.322812 241.490595 
L 89.390042 235.136408 
L 92.457272 228.276629 
L 95.524503 220.973206 
L 98.591733 213.310016 
L 101.658964 205.392537 
L 104.726194 197.346392 
L 107.793425 189.314733 
L 110.860655 181.454457 
L 113.927886 173.931361 
L 116.995116 166.914387 
L 120.062346 160.569229 
L 123.129577 155.051571 
L 126.196807 150.500332 
L 129.264038 147.031263 
L 132.331268 144.731257 
L 135.398499 143.65371 
L 138.465729 143.815169 
L 141.53296 145.1935 
L 144.60019 147.727647 
L 147.66742 151.319022 
L 150.734651 155.834442 
L 153.801881 161.110473 
L 156.869112 166.958985 
L 159.936342 173.173648 
L 163.003573 179.537143 
L 166.070803 185.828785 
L 169.138033 191.832334 
L 172.205264 197.343732 
L 175.272494 202.178552 
L 178.339725 206.178944 
L 181.406955 209.219871 
L 184.474186 211.21442 
L 187.541416 212.117958 
L 190.608647 211.930909 
L 193.675877 210.69991 
L 196.743107 208.517152 
L 199.810338 205.517725 
L 202.877568 201.874909 
L 205.944799 197.793422 
L 209.012029 193.500809 
L 212.07926 189.237292 
L 215.14649 185.244553 
L 218.213721 181.754075 
L 221.280951 178.975721 
L 224.348181 177.087321 
L 227.415412 176.225955 
L 230.482642 176.481569 
L 233.549873 177.893377 
L 236.617103 180.44928 
L 239.684334 184.088337 
L 242.751564 188.706023 
L 245.818795 194.161837 
L 248.886025 200.288621 
L 251.953255 206.902854 
L 255.020486 213.815125 
L 258.087716 220.84007 
L 261.154947 227.805105 
L 264.222177 234.557482 
L 267.289408 240.969363 
L 270.356638 246.940789 
L 273.423869 252.400625 
L 276.491099 257.305696 
L 279.558329 261.638433 
L 282.62556 265.403451 
L 285.69279 268.623451 
L 288.760021 271.33485 
L 291.827251 273.583488 
L 294.894482 275.420676 
L 297.961712 276.89978 
L 301.028943 278.073445 
L 304.096173 278.991498 
L 307.163403 279.699506 
L 310.230634 280.237918 
L 313.297864 280.641705 
L 316.365095 280.94038 
L 319.432325 281.1583 
L 322.499556 281.315149 
L 325.566786 281.426525 
L 328.634017 281.504554 
L 331.701247 281.558494 
L 334.768477 281.595287 
" clip-path="url(#p37a98c6c3a)" style="fill: none; stroke: #ff0000; stroke-opacity: 0.75; stroke-width: 5; stroke-linecap: square"/>
   </g>
   <g id="line2d_4">
    <path d="M 27.21964 281.28091 
L 30.365518 281.127965 
L 33.511395 280.921592 
L 36.657272 280.646089 
L 39.80315 280.282233 
L 42.949027 279.806861 
L 46.094905 279.19252 
L 49.240782 278.407241 
L 52.386659 277.414493 
L 55.532537 276.17337 
L 58.678414 274.639093 
L 61.824291 272.763858 
L 64.970169 270.498109 
L 68.116046 267.792243 
L 71.261924 264.59876 
L 74.407801 260.874839 
L 77.553678 256.585254 
L 80.699556 251.705546 
L 83.845433 246.225272 
L 86.99131 240.151173 
L 90.137188 233.510014 
L 93.283065 226.350871 
L 96.428943 218.746621 
L 99.57482 210.794417 
L 102.720697 202.61496 
L 105.866575 194.350445 
L 109.012452 186.161149 
L 112.158329 178.220682 
L 115.304207 170.710071 
L 118.450084 163.810897 
L 121.595962 157.69781 
L 124.741839 152.530817 
L 127.887716 148.447762 
L 131.033594 145.557426 
L 134.179471 143.933678 
L 137.325349 143.610998 
L 140.471226 144.581678 
L 143.617103 146.794842 
L 146.762981 150.157364 
L 149.908858 154.536632 
L 153.054735 159.765004 
L 156.200613 165.645745 
L 159.34649 171.96016 
L 162.492368 178.475603 
L 165.638245 184.954065 
L 168.784122 191.16101 
L 171.93 196.874187 
L 175.075877 201.892135 
L 178.221754 206.042137 
L 181.367632 209.187364 
L 184.513509 211.232956 
L 187.659387 212.130777 
L 190.805264 211.882564 
L 193.951141 210.541185 
L 197.097019 208.209775 
L 200.242896 205.038548 
L 203.388773 201.21921 
L 206.534651 196.977012 
L 209.680528 192.560683 
L 212.826406 188.230657 
L 215.972283 184.246187 
L 219.11816 180.852107 
L 222.264038 178.266095 
L 225.409915 176.667325 
L 228.555792 176.187331 
L 231.70167 176.90377 
L 234.847547 178.837552 
L 237.993425 181.95353 
L 241.139302 186.16464 
L 244.285179 191.339104 
L 247.431057 197.310053 
L 250.576934 203.886739 
L 253.722812 210.866423 
L 256.868689 218.046029 
L 260.014566 225.232717 
L 263.160444 232.252727 
L 266.306321 238.958024 
L 269.452198 245.230526 
L 272.598076 250.983931 
L 275.743953 256.163328 
L 278.889831 260.742969 
L 282.035708 264.722656 
L 285.181585 268.123227 
L 288.327463 270.981634 
L 291.47334 273.346032 
L 294.619217 275.27122 
L 297.765095 276.814678 
L 300.910972 278.033338 
L 304.05685 278.98115 
L 307.202727 279.707401 
L 310.348604 280.255732 
L 313.494482 280.663719 
L 316.640359 280.962912 
L 319.786236 281.179184 
L 322.932114 281.333296 
L 326.077991 281.441563 
L 329.223869 281.516555 
L 332.369746 281.567772 
L 335.515623 281.602265 
L 338.661501 281.625173 
" clip-path="url(#p37a98c6c3a)" style="fill: none; stroke: #000000; stroke-width: 1.5; stroke-linecap: square"/>
   </g>
   <g id="mpl_toolkits.axisartist.axis_artist_1">
    <g id="patch_5">
     <path d="M 15.54057 296.773571 
L 350.34057 296.773571 
" style="fill: none; stroke: #000000; stroke-width: 0.8; stroke-linecap: square"/>
    </g>
   </g>
   <g id="mpl_toolkits.axisartist.axis_artist_2">
    <g id="patch_6">
     <path d="M 15.54057 22.318125 
L 350.34057 22.318125 
" style="fill: none; stroke: #000000; stroke-width: 0.8; stroke-linecap: square"/>
    </g>
   </g>
   <g id="mpl_toolkits.axisartist.axis_artist_3">
    <g id="patch_7">
     <path d="M 15.54057 296.773571 
L 15.54057 22.318125 
" style="fill: none; stroke: #000000; stroke-width: 0.8; stroke-linecap: square"/>
    </g>
   </g>
   <g id="mpl_toolkits.axisartist.axis_artist_4">
    <g id="patch_8">
     <path d="M 350.34057 296.773571 
L 350.34057 22.318125 
" style="fill: none; stroke: #000000; stroke-width: 0.8; stroke-linecap: square"/>
    </g>
   </g>
   <g id="text_3">
    <!-- Fluence 100-pieces linear approximation -->
    <g transform="translate(60.598695 16.318125) scale(0.12 -0.12)">
     <defs>
      <path id="DejaVuSans-46" d="M 628 4666 
L 3309 4666 
L 3309 4134 
L 1259 4134 
L 1259 2759 
L 3109 2759 
L 3109 2228 
L 1259 2228 
L 1259 0 
L 628 0 
L 628 4666 
z
" transform="scale(0.015625)"/>
      <path id="DejaVuSans-75" d="M 544 1381 
L 544 3500 
L 1119 3500 
L 1119 1403 
Q 1119 906 1312 657 
Q 1506 409 1894 409 
Q 2359 409 2629 706 
Q 2900 1003 2900 1516 
L 2900 3500 
L 3475 3500 
L 3475 0 
L 2900 0 
L 2900 538 
Q 2691 219 2414 64 
Q 2138 -91 1772 -91 
Q 1169 -91 856 284 
Q 544 659 544 1381 
z
M 1991 3584 
L 1991 3584 
z
" transform="scale(0.015625)"/>
      <path id="DejaVuSans-63" d="M 3122 3366 
L 3122 2828 
Q 2878 2963 2633 3030 
Q 2388 3097 2138 3097 
Q 1578 3097 1268 2742 
Q 959 2388 959 1747 
Q 959 1106 1268 751 
Q 1578 397 2138 397 
Q 2388 397 2633 464 
Q 2878 531 3122 666 
L 3122 134 
Q 2881 22 2623 -34 
Q 2366 -91 2075 -91 
Q 1284 -91 818 406 
Q 353 903 353 1747 
Q 353 2603 823 3093 
Q 1294 3584 2113 3584 
Q 2378 3584 2631 3529 
Q 2884 3475 3122 3366 
z
" transform="scale(0.015625)"/>
      <path id="DejaVuSans-31" d="M 794 531 
L 1825 531 
L 1825 4091 
L 703 3866 
L 703 4441 
L 1819 4666 
L 2450 4666 
L 2450 531 
L 3481 531 
L 3481 0 
L 794 0 
L 794 531 
z
" transform="scale(0.015625)"/>
      <path id="DejaVuSans-30" d="M 2034 4250 
Q 1547 4250 1301 3770 
Q 1056 3291 1056 2328 
Q 1056 1369 1301 889 
Q 1547 409 2034 409 
Q 2525 409 2770 889 
Q 3016 1369 3016 2328 
Q 3016 3291 2770 3770 
Q 2525 4250 2034 4250 
z
M 2034 4750 
Q 2819 4750 3233 4129 
Q 3647 3509 3647 2328 
Q 3647 1150 3233 529 
Q 2819 -91 2034 -91 
Q 1250 -91 836 529 
Q 422 1150 422 2328 
Q 422 3509 836 4129 
Q 1250 4750 2034 4750 
z
" transform="scale(0.015625)"/>
      <path id="DejaVuSans-2d" d="M 313 2009 
L 1997 2009 
L 1997 1497 
L 313 1497 
L 313 2009 
z
" transform="scale(0.015625)"/>
      <path id="DejaVuSans-72" d="M 2631 2963 
Q 2534 3019 2420 3045 
Q 2306 3072 2169 3072 
Q 1681 3072 1420 2755 
Q 1159 2438 1159 1844 
L 1159 0 
L 581 0 
L 581 3500 
L 1159 3500 
L 1159 2956 
Q 1341 3275 1631 3429 
Q 1922 3584 2338 3584 
Q 2397 3584 2469 3576 
Q 2541 3569 2628 3553 
L 2631 2963 
z
" transform="scale(0.015625)"/>
      <path id="DejaVuSans-78" d="M 3513 3500 
L 2247 1797 
L 3578 0 
L 2900 0 
L 1881 1375 
L 863 0 
L 184 0 
L 1544 1831 
L 300 3500 
L 978 3500 
L 1906 2253 
L 2834 3500 
L 3513 3500 
z
" transform="scale(0.015625)"/>
     </defs>
     <use xlink:href="#DejaVuSans-46"/>
     <use xlink:href="#DejaVuSans-6c" x="57.519531"/>
     <use xlink:href="#DejaVuSans-75" x="85.302734"/>
     <use xlink:href="#DejaVuSans-65" x="148.681641"/>
     <use xlink:href="#DejaVuSans-6e" x="210.205078"/>
     <use xlink:href="#DejaVuSans-63" x="273.583984"/>
     <use xlink:href="#DejaVuSans-65" x="328.564453"/>
     <use xlink:href="#DejaVuSans-20" x="390.087891"/>
     <use xlink:href="#DejaVuSans-31" x="421.875"/>
     <use xlink:href="#DejaVuSans-30" x="485.498047"/>
     <use xlink:href="#DejaVuSans-30" x="549.121094"/>
     <use xlink:href="#DejaVuSans-2d" x="612.744141"/>
     <use xlink:href="#DejaVuSans-70" x="648.828125"/>
     <use xlink:href="#DejaVuSans-69" x="712.304688"/>
     <use xlink:href="#DejaVuSans-65" x="740.087891"/>
     <use xlink:href="#DejaVuSans-63" x="801.611328"/>
     <use xlink:href="#DejaVuSans-65" x="856.591797"/>
     <use xlink:href="#DejaVuSans-73" x="918.115234"/>
     <use xlink:href="#DejaVuSans-20" x="970.214844"/>
     <use xlink:href="#DejaVuSans-6c" x="1002.001953"/>
     <use xlink:href="#DejaVuSans-69" x="1029.785156"/>
     <use xlink:href="#DejaVuSans-6e" x="1057.568359"/>
     <use xlink:href="#DejaVuSans-65" x="1120.947266"/>
     <use xlink:href="#DejaVuSans-61" x="1182.470703"/>
     <use xlink:href="#DejaVuSans-72" x="1243.75"/>
     <use xlink:href="#DejaVuSans-20" x="1284.863281"/>
     <use xlink:href="#DejaVuSans-61" x="1316.650391"/>
     <use xlink:href="#DejaVuSans-70" x="1377.929688"/>
     <use xlink:href="#DejaVuSans-70" x="1441.40625"/>
     <use xlink:href="#DejaVuSans-72" x="1504.882812"/>
     <use xlink:href="#DejaVuSans-6f" x="1543.746094"/>
     <use xlink:href="#DejaVuSans-78" x="1601.802734"/>
     <use xlink:href="#DejaVuSans-69" x="1660.982422"/>
     <use xlink:href="#DejaVuSans-6d" x="1688.765625"/>
     <use xlink:href="#DejaVuSans-61" x="1786.177734"/>
     <use xlink:href="#DejaVuSans-74" x="1847.457031"/>
     <use xlink:href="#DejaVuSans-69" x="1886.666016"/>
     <use xlink:href="#DejaVuSans-6f" x="1914.449219"/>
     <use xlink:href="#DejaVuSans-6e" x="1975.630859"/>
    </g>
   </g>
  </g>
 </g>
 <defs>
  <clipPath id="p40e49488fa">
   <rect x="15.54057" y="302.262679" width="334.8" height="274.455446"/>
  </clipPath>
  <clipPath id="p37a98c6c3a">
   <rect x="15.54057" y="22.318125" width="334.8" height="274.455446"/>
  </clipPath>
 </defs>
</svg>
