<?xml version="1.0" encoding="utf-8" standalone="no"?>
<!DOCTYPE svg PUBLIC "-//W3C//DTD SVG 1.1//EN"
  "http://www.w3.org/Graphics/SVG/1.1/DTD/svg11.dtd">
<svg xmlns:xlink="http://www.w3.org/1999/xlink" width="907.2pt" height="251.123478pt" viewBox="0 0 907.2 251.123478" xmlns="http://www.w3.org/2000/svg" version="1.1">
 <metadata>
  <rdf:RDF xmlns:dc="http://purl.org/dc/elements/1.1/" xmlns:cc="http://creativecommons.org/ns#" xmlns:rdf="http://www.w3.org/1999/02/22-rdf-syntax-ns#">
   <cc:Work>
    <dc:type rdf:resource="http://purl.org/dc/dcmitype/StillImage"/>
    <dc:date>2024-11-25T10:13:09.514620</dc:date>
    <dc:format>image/svg+xml</dc:format>
    <dc:creator>
     <cc:Agent>
      <dc:title>Matplotlib v3.7.2, https://matplotlib.org/</dc:title>
     </cc:Agent>
    </dc:creator>
   </cc:Work>
  </rdf:RDF>
 </metadata>
 <defs>
  <style type="text/css">*{stroke-linejoin: round; stroke-linecap: butt}</style>
 </defs>
 <g id="figure_1">
  <g id="patch_1">
   <path d="M 0 251.123478 
L 907.2 251.123478 
L 907.2 0 
L 0 0 
z
" style="fill: #ffffff"/>
  </g>
  <g id="axes_1">
   <g id="patch_2">
    <path d="M 7.2 243.923478 
L 201.286957 243.923478 
L 201.286957 49.836522 
L 7.2 49.836522 
z
" style="fill: #ffffff"/>
   </g>
   <g id="patch_3">
    <path d="M 104.243478 80.162609 
L 7.2 80.162609 
L 7.2 68.032174 
L 104.243478 68.032174 
z
" clip-path="url(#p2b4954af7f)" style="fill: #808080; stroke: #000000; stroke-width: 2; stroke-linejoin: miter"/>
   </g>
   <g id="patch_4">
    <path d="M 104.243478 225.727826 
L 201.286957 225.727826 
L 201.286957 213.597391 
L 104.243478 213.597391 
z
" clip-path="url(#p2b4954af7f)" style="fill: #808080; stroke: #000000; stroke-width: 2; stroke-linejoin: miter"/>
   </g>
   <g id="patch_5">
    <path d="M 104.243478 92.293043 
L 7.2 92.293043 
L 7.2 80.162609 
L 104.243478 80.162609 
z
" clip-path="url(#p2b4954af7f)" style="fill: #808080; stroke: #000000; stroke-width: 2; stroke-linejoin: miter"/>
   </g>
   <g id="patch_6">
    <path d="M 104.243478 213.597391 
L 201.286957 213.597391 
L 201.286957 201.466957 
L 104.243478 201.466957 
z
" clip-path="url(#p2b4954af7f)" style="fill: #808080; stroke: #000000; stroke-width: 2; stroke-linejoin: miter"/>
   </g>
   <g id="patch_7">
    <path d="M 91.142609 104.423478 
L -5.90087 104.423478 
L -5.90087 92.293043 
L 91.142609 92.293043 
z
" clip-path="url(#p2b4954af7f)" style="fill: #808080; stroke: #000000; stroke-width: 2; stroke-linejoin: miter"/>
   </g>
   <g id="patch_8">
    <path d="M 104.243478 201.466957 
L 201.286957 201.466957 
L 201.286957 189.336522 
L 104.243478 189.336522 
z
" clip-path="url(#p2b4954af7f)" style="fill: #808080; stroke: #000000; stroke-width: 2; stroke-linejoin: miter"/>
   </g>
   <g id="patch_9">
    <path d="M 77.556522 116.553913 
L -19.486957 116.553913 
L -19.486957 104.423478 
L 77.556522 104.423478 
z
" clip-path="url(#p2b4954af7f)" style="fill: #808080; stroke: #000000; stroke-width: 2; stroke-linejoin: miter"/>
   </g>
   <g id="patch_10">
    <path d="M 139.664348 189.336522 
L 236.707826 189.336522 
L 236.707826 177.206087 
L 139.664348 177.206087 
z
" clip-path="url(#p2b4954af7f)" style="fill: #808080; stroke: #000000; stroke-width: 2; stroke-linejoin: miter"/>
   </g>
   <g id="patch_11">
    <path d="M 69.307826 128.684348 
L -27.735652 128.684348 
L -27.735652 116.553913 
L 69.307826 116.553913 
z
" clip-path="url(#p2b4954af7f)" style="fill: #808080; stroke: #000000; stroke-width: 2; stroke-linejoin: miter"/>
   </g>
   <g id="patch_12">
    <path d="M 149.368696 177.206087 
L 246.412174 177.206087 
L 246.412174 165.075652 
L 149.368696 165.075652 
z
" clip-path="url(#p2b4954af7f)" style="fill: #808080; stroke: #000000; stroke-width: 2; stroke-linejoin: miter"/>
   </g>
   <g id="patch_13">
    <path d="M 63.970435 140.814783 
L -33.073043 140.814783 
L -33.073043 128.684348 
L 63.970435 128.684348 
z
" clip-path="url(#p2b4954af7f)" style="fill: #808080; stroke: #000000; stroke-width: 2; stroke-linejoin: miter"/>
   </g>
   <g id="patch_14">
    <path d="M 150.33913 165.075652 
L 247.382609 165.075652 
L 247.382609 152.945217 
L 150.33913 152.945217 
z
" clip-path="url(#p2b4954af7f)" style="fill: #808080; stroke: #000000; stroke-width: 2; stroke-linejoin: miter"/>
   </g>
   <g id="patch_15">
    <path d="M 60.088696 152.945217 
L -36.954783 152.945217 
L -36.954783 140.814783 
L 60.088696 140.814783 
z
" clip-path="url(#p2b4954af7f)" style="fill: #808080; stroke: #000000; stroke-width: 2; stroke-linejoin: miter"/>
   </g>
   <g id="patch_16">
    <path d="M 148.398261 152.945217 
L 245.441739 152.945217 
L 245.441739 140.814783 
L 148.398261 140.814783 
z
" clip-path="url(#p2b4954af7f)" style="fill: #808080; stroke: #000000; stroke-width: 2; stroke-linejoin: miter"/>
   </g>
   <g id="patch_17">
    <path d="M 58.147826 165.075652 
L -38.895652 165.075652 
L -38.895652 152.945217 
L 58.147826 152.945217 
z
" clip-path="url(#p2b4954af7f)" style="fill: #808080; stroke: #000000; stroke-width: 2; stroke-linejoin: miter"/>
   </g>
   <g id="patch_18">
    <path d="M 144.516522 140.814783 
L 241.56 140.814783 
L 241.56 128.684348 
L 144.516522 128.684348 
z
" clip-path="url(#p2b4954af7f)" style="fill: #808080; stroke: #000000; stroke-width: 2; stroke-linejoin: miter"/>
   </g>
   <g id="patch_19">
    <path d="M 59.118261 177.206087 
L -37.925217 177.206087 
L -37.925217 165.075652 
L 59.118261 165.075652 
z
" clip-path="url(#p2b4954af7f)" style="fill: #808080; stroke: #000000; stroke-width: 2; stroke-linejoin: miter"/>
   </g>
   <g id="patch_20">
    <path d="M 139.17913 128.684348 
L 236.222609 128.684348 
L 236.222609 116.553913 
L 139.17913 116.553913 
z
" clip-path="url(#p2b4954af7f)" style="fill: #808080; stroke: #000000; stroke-width: 2; stroke-linejoin: miter"/>
   </g>
   <g id="patch_21">
    <path d="M 68.822609 189.336522 
L -28.22087 189.336522 
L -28.22087 177.206087 
L 68.822609 177.206087 
z
" clip-path="url(#p2b4954af7f)" style="fill: #808080; stroke: #000000; stroke-width: 2; stroke-linejoin: miter"/>
   </g>
   <g id="patch_22">
    <path d="M 130.930435 116.553913 
L 227.973913 116.553913 
L 227.973913 104.423478 
L 130.930435 104.423478 
z
" clip-path="url(#p2b4954af7f)" style="fill: #808080; stroke: #000000; stroke-width: 2; stroke-linejoin: miter"/>
   </g>
   <g id="patch_23">
    <path d="M 104.243478 201.466957 
L 7.2 201.466957 
L 7.2 189.336522 
L 104.243478 189.336522 
z
" clip-path="url(#p2b4954af7f)" style="fill: #808080; stroke: #000000; stroke-width: 2; stroke-linejoin: miter"/>
   </g>
   <g id="patch_24">
    <path d="M 117.344348 104.423478 
L 214.387826 104.423478 
L 214.387826 92.293043 
L 117.344348 92.293043 
z
" clip-path="url(#p2b4954af7f)" style="fill: #808080; stroke: #000000; stroke-width: 2; stroke-linejoin: miter"/>
   </g>
   <g id="patch_25">
    <path d="M 104.243478 213.597391 
L 7.2 213.597391 
L 7.2 201.466957 
L 104.243478 201.466957 
z
" clip-path="url(#p2b4954af7f)" style="fill: #808080; stroke: #000000; stroke-width: 2; stroke-linejoin: miter"/>
   </g>
   <g id="patch_26">
    <path d="M 104.243478 92.293043 
L 201.286957 92.293043 
L 201.286957 80.162609 
L 104.243478 80.162609 
z
" clip-path="url(#p2b4954af7f)" style="fill: #808080; stroke: #000000; stroke-width: 2; stroke-linejoin: miter"/>
   </g>
   <g id="patch_27">
    <path d="M 104.243478 225.727826 
L 7.2 225.727826 
L 7.2 213.597391 
L 104.243478 213.597391 
z
" clip-path="url(#p2b4954af7f)" style="fill: #808080; stroke: #000000; stroke-width: 2; stroke-linejoin: miter"/>
   </g>
   <g id="patch_28">
    <path d="M 104.243478 80.162609 
L 201.286957 80.162609 
L 201.286957 68.032174 
L 104.243478 68.032174 
z
" clip-path="url(#p2b4954af7f)" style="fill: #808080; stroke: #000000; stroke-width: 2; stroke-linejoin: miter"/>
   </g>
   <g id="matplotlib.axis_1"/>
   <g id="matplotlib.axis_2"/>
   <g id="PathCollection_1"/>
   <g id="PathCollection_2">
    <path d="M 75.816601 185.341766 
L 77.777075 185.684662 
L 79.737549 185.957471 
L 81.698024 186.173332 
L 83.658498 186.34299 
L 85.618972 186.475273 
L 87.579447 186.577455 
L 89.539921 186.65553 
L 91.500395 186.71443 
L 93.46087 186.758184 
L 95.421344 186.790052 
L 97.381818 186.812618 
L 99.342292 186.827872 
L 101.302767 186.837257 
L 103.263241 186.841718 
L 105.223715 186.841718 
L 107.18419 186.837257 
L 109.144664 186.827872 
L 111.105138 186.812618 
L 113.065613 186.790052 
L 115.026087 186.758184 
L 116.986561 186.71443 
L 118.947036 186.65553 
L 120.90751 186.577455 
L 122.867984 186.475273 
L 124.828458 186.34299 
L 126.788933 186.173332 
L 128.749407 185.957471 
L 130.709881 185.684662 
L 132.670356 185.341766 
L 133.748439 185.109249 
L 134.63083 184.901209 
L 136.591304 184.333032 
L 138.551779 183.622305 
L 139.618772 183.148775 
L 140.512253 182.703946 
L 142.472727 181.505371 
L 142.902597 181.1883 
L 144.433202 179.883416 
L 145.070414 179.227826 
L 146.393676 177.608432 
L 146.628525 177.267352 
L 147.754644 175.306877 
L 148.35415 173.992266 
L 148.607344 173.346403 
L 149.218129 171.385929 
L 149.66913 169.425455 
L 149.982286 167.46498 
L 150.175698 165.504506 
L 150.264428 163.544032 
L 150.261115 161.583557 
L 150.176442 159.623083 
L 150.019499 157.662609 
L 149.798073 155.702134 
L 149.518869 153.74166 
L 149.187694 151.781186 
L 148.809602 149.820711 
L 148.389013 147.860237 
L 148.35415 147.715593 
L 147.897893 145.899763 
L 147.367141 143.939289 
L 146.80268 141.978814 
L 146.393676 140.644109 
L 146.19356 140.01834 
L 145.524314 138.057866 
L 144.828119 136.097391 
L 144.433202 135.036813 
L 144.083029 134.136917 
L 143.284901 132.176443 
L 142.472727 130.234757 
L 142.464502 130.215968 
L 141.562321 128.255494 
L 140.641146 126.29502 
L 140.512253 126.031604 
L 139.6413 124.334545 
L 138.61505 122.374071 
L 138.551779 122.257678 
L 137.49796 120.413597 
L 136.591304 118.857319 
L 136.343128 118.453123 
L 135.10206 116.492648 
L 134.63083 115.76651 
L 133.783879 114.532174 
L 132.670356 112.944556 
L 132.392853 112.5717 
L 130.894556 110.611225 
L 130.709881 110.37593 
L 129.266564 108.650751 
L 128.749407 108.047228 
L 127.503577 106.690277 
L 126.788933 105.931376 
L 125.569056 104.729802 
L 124.828458 104.019493 
L 123.412514 102.769328 
L 122.867984 102.301738 
L 120.961715 100.808854 
L 120.90751 100.767611 
L 118.947036 99.431524 
L 117.983154 98.848379 
L 116.986561 98.264443 
L 115.026087 97.268495 
L 114.136132 96.887905 
L 113.065613 96.445766 
L 111.105138 95.792883 
L 109.144664 95.298667 
L 107.18419 94.966987 
L 106.717821 94.927431 
L 105.223715 94.805789 
L 103.263241 94.805789 
L 101.769135 94.927431 
L 101.302767 94.966987 
L 99.342292 95.298667 
L 97.381818 95.792883 
L 95.421344 96.445766 
L 94.350825 96.887905 
L 93.46087 97.268495 
L 91.500395 98.264443 
L 90.503802 98.848379 
L 89.539921 99.431524 
L 87.579447 100.767611 
L 87.525241 100.808854 
L 85.618972 102.301738 
L 85.074443 102.769328 
L 83.658498 104.019493 
L 82.9179 104.729802 
L 81.698024 105.931376 
L 80.983379 106.690277 
L 79.737549 108.047228 
L 79.220393 108.650751 
L 77.777075 110.37593 
L 77.5924 110.611225 
L 76.094103 112.5717 
L 75.816601 112.944556 
L 74.703078 114.532174 
L 73.856126 115.76651 
L 73.384896 116.492648 
L 72.143828 118.453123 
L 71.895652 118.857319 
L 70.988997 120.413597 
L 69.935178 122.257678 
L 69.871907 122.374071 
L 68.845656 124.334545 
L 67.974704 126.031604 
L 67.84581 126.29502 
L 66.924635 128.255494 
L 66.022455 130.215968 
L 66.014229 130.234757 
L 65.202055 132.176443 
L 64.403928 134.136917 
L 64.053755 135.036813 
L 63.658838 136.097391 
L 62.962643 138.057866 
L 62.293397 140.01834 
L 62.093281 140.644109 
L 61.684277 141.978814 
L 61.119816 143.939289 
L 60.589063 145.899763 
L 60.132806 147.715593 
L 60.097943 147.860237 
L 59.677354 149.820711 
L 59.299263 151.781186 
L 58.968088 153.74166 
L 58.688884 155.702134 
L 58.467457 157.662609 
L 58.310515 159.623083 
L 58.225842 161.583557 
L 58.222529 163.544032 
L 58.311259 165.504506 
L 58.50467 167.46498 
L 58.817827 169.425455 
L 59.268828 171.385929 
L 59.879613 173.346403 
L 60.132806 173.992266 
L 60.732313 175.306877 
L 61.858431 177.267352 
L 62.093281 177.608432 
L 63.416543 179.227826 
L 64.053755 179.883416 
L 65.58436 181.1883 
L 66.014229 181.505371 
L 67.974704 182.703946 
L 68.868184 183.148775 
L 69.935178 183.622305 
L 71.895652 184.333032 
L 73.856126 184.901209 
L 74.738517 185.109249 
L 75.816601 185.341766 
z
" clip-path="url(#p2b4954af7f)" style="fill: none; stroke: #ffff17; stroke-opacity: 0.8; stroke-width: 3"/>
   </g>
   <g id="PathCollection_3">
    <path d="M 87.579447 175.563128 
L 89.539921 175.874174 
L 91.500395 176.127025 
L 93.46087 176.330104 
L 95.421344 176.490106 
L 97.381818 176.612272 
L 99.342292 176.700583 
L 101.302767 176.757912 
L 103.263241 176.786119 
L 105.223715 176.786119 
L 107.18419 176.757912 
L 109.144664 176.700583 
L 111.105138 176.612272 
L 113.065613 176.490106 
L 115.026087 176.330104 
L 116.986561 176.127025 
L 118.947036 175.874174 
L 120.90751 175.563128 
L 122.239898 175.306877 
L 122.867984 175.175294 
L 124.828458 174.682512 
L 126.788933 174.08293 
L 128.749407 173.353539 
L 128.765763 173.346403 
L 130.709881 172.39407 
L 132.39583 171.385929 
L 132.670356 171.198076 
L 134.63083 169.596571 
L 134.807608 169.425455 
L 136.512448 167.46498 
L 136.591304 167.355334 
L 137.728103 165.504506 
L 138.551779 163.78051 
L 138.649241 163.544032 
L 139.283323 161.583557 
L 139.734798 159.623083 
L 140.027791 157.662609 
L 140.182357 155.702134 
L 140.215306 153.74166 
L 140.14083 151.781186 
L 139.970996 149.820711 
L 139.716129 147.860237 
L 139.385115 145.899763 
L 138.985645 143.939289 
L 138.551779 142.098835 
L 138.522113 141.978814 
L 137.962061 140.01834 
L 137.347818 138.057866 
L 136.684309 136.097391 
L 136.591304 135.846615 
L 135.92434 134.136917 
L 135.11292 132.176443 
L 134.63083 131.080105 
L 134.229878 130.215968 
L 133.266346 128.255494 
L 132.670356 127.099154 
L 132.231383 126.29502 
L 131.108461 124.334545 
L 130.709881 123.66969 
L 129.883531 122.374071 
L 128.749407 120.660524 
L 128.574659 120.413597 
L 127.123741 118.453123 
L 126.788933 118.018059 
L 125.525628 116.492648 
L 124.828458 115.681735 
L 123.756887 114.532174 
L 122.867984 113.614706 
L 121.762127 112.5717 
L 120.90751 111.796995 
L 119.45922 110.611225 
L 118.947036 110.208532 
L 116.986561 108.840298 
L 116.673727 108.650751 
L 115.026087 107.695615 
L 113.065613 106.731433 
L 112.961824 106.690277 
L 111.105138 105.988032 
L 109.144664 105.425312 
L 107.18419 105.046835 
L 105.223715 104.856584 
L 103.263241 104.856584 
L 101.302767 105.046835 
L 99.342292 105.425312 
L 97.381818 105.988032 
L 95.525132 106.690277 
L 95.421344 106.731433 
L 93.46087 107.695615 
L 91.813229 108.650751 
L 91.500395 108.840298 
L 89.539921 110.208532 
L 89.027736 110.611225 
L 87.579447 111.796995 
L 86.724829 112.5717 
L 85.618972 113.614706 
L 84.73007 114.532174 
L 83.658498 115.681735 
L 82.961328 116.492648 
L 81.698024 118.018059 
L 81.363216 118.453123 
L 79.912297 120.413597 
L 79.737549 120.660524 
L 78.603425 122.374071 
L 77.777075 123.66969 
L 77.378495 124.334545 
L 76.255573 126.29502 
L 75.816601 127.099154 
L 75.220611 128.255494 
L 74.257079 130.215968 
L 73.856126 131.080105 
L 73.374037 132.176443 
L 72.562616 134.136917 
L 71.895652 135.846615 
L 71.802648 136.097391 
L 71.139139 138.057866 
L 70.524895 140.01834 
L 69.964843 141.978814 
L 69.935178 142.098835 
L 69.501311 143.939289 
L 69.101841 145.899763 
L 68.770828 147.860237 
L 68.515961 149.820711 
L 68.346127 151.781186 
L 68.27165 153.74166 
L 68.304599 155.702134 
L 68.459166 157.662609 
L 68.752159 159.623083 
L 69.203633 161.583557 
L 69.837716 163.544032 
L 69.935178 163.78051 
L 70.758853 165.504506 
L 71.895652 167.355334 
L 71.974509 167.46498 
L 73.679349 169.425455 
L 73.856126 169.596571 
L 75.816601 171.198076 
L 76.091127 171.385929 
L 77.777075 172.39407 
L 79.721193 173.346403 
L 79.737549 173.353539 
L 81.698024 174.08293 
L 83.658498 174.682512 
L 85.618972 175.175294 
L 86.247058 175.306877 
L 87.579447 175.563128 
z
" clip-path="url(#p2b4954af7f)" style="fill: none; stroke: #ff5900; stroke-opacity: 0.8; stroke-width: 3"/>
   </g>
   <g id="PathCollection_4">
    <path d="M 91.500395 165.799702 
L 93.46087 166.284691 
L 95.421344 166.667749 
L 97.381818 166.961037 
L 99.342292 167.173614 
L 101.302767 167.311911 
L 103.263241 167.380053 
L 105.223715 167.380053 
L 107.18419 167.311911 
L 109.144664 167.173614 
L 111.105138 166.961037 
L 113.065613 166.667749 
L 115.026087 166.284691 
L 116.986561 165.799702 
L 117.957991 165.504506 
L 118.947036 165.16877 
L 120.90751 164.356829 
L 122.513802 163.544032 
L 122.867984 163.338451 
L 124.828458 161.972802 
L 125.296083 161.583557 
L 126.788933 160.099096 
L 127.192177 159.623083 
L 128.53269 157.662609 
L 128.749407 157.256745 
L 129.459612 155.702134 
L 130.107808 153.74166 
L 130.533246 151.781186 
L 130.709881 150.297753 
L 130.759247 149.820711 
L 130.814115 147.860237 
L 130.732097 145.899763 
L 130.709881 145.693072 
L 130.510357 143.939289 
L 130.167288 141.978814 
L 129.717613 140.01834 
L 129.172146 138.057866 
L 128.749407 136.760749 
L 128.519054 136.097391 
L 127.737457 134.136917 
L 126.878522 132.176443 
L 126.788933 131.992614 
L 125.859877 130.215968 
L 124.828458 128.378298 
L 124.753956 128.255494 
L 123.459603 126.29502 
L 122.867984 125.455235 
L 122.006281 124.334545 
L 120.90751 122.993264 
L 120.347433 122.374071 
L 118.947036 120.920748 
L 118.399309 120.413597 
L 116.986561 119.185279 
L 116.023763 118.453123 
L 115.026087 117.74036 
L 113.065613 116.549496 
L 112.950049 116.492648 
L 111.105138 115.642952 
L 109.144664 114.95414 
L 107.36512 114.532174 
L 107.18419 114.492098 
L 105.223715 114.274576 
L 103.263241 114.274576 
L 101.302767 114.492098 
L 101.121837 114.532174 
L 99.342292 114.95414 
L 97.381818 115.642952 
L 95.536908 116.492648 
L 95.421344 116.549496 
L 93.46087 117.74036 
L 92.463193 118.453123 
L 91.500395 119.185279 
L 90.087647 120.413597 
L 89.539921 120.920748 
L 88.139523 122.374071 
L 87.579447 122.993264 
L 86.480675 124.334545 
L 85.618972 125.455235 
L 85.027354 126.29502 
L 83.733 128.255494 
L 83.658498 128.378298 
L 82.62708 130.215968 
L 81.698024 131.992614 
L 81.608435 132.176443 
L 80.749499 134.136917 
L 79.967903 136.097391 
L 79.737549 136.760749 
L 79.314811 138.057866 
L 78.769344 140.01834 
L 78.319669 141.978814 
L 77.9766 143.939289 
L 77.777075 145.693072 
L 77.75486 145.899763 
L 77.672842 147.860237 
L 77.72771 149.820711 
L 77.777075 150.297753 
L 77.95371 151.781186 
L 78.379149 153.74166 
L 79.027345 155.702134 
L 79.737549 157.256745 
L 79.954267 157.662609 
L 81.29478 159.623083 
L 81.698024 160.099096 
L 83.190873 161.583557 
L 83.658498 161.972802 
L 85.618972 163.338451 
L 85.973154 163.544032 
L 87.579447 164.356829 
L 89.539921 165.16877 
L 90.528966 165.504506 
L 91.500395 165.799702 
z
" clip-path="url(#p2b4954af7f)" style="fill: none; stroke: #d70000; stroke-opacity: 0.8; stroke-width: 3"/>
   </g>
   <g id="PathCollection_5">
    <path d="M 101.302767 155.949314 
L 103.263241 156.116335 
L 105.223715 156.116335 
L 107.18419 155.949314 
L 108.612005 155.702134 
L 109.144664 155.595618 
L 111.105138 154.991754 
L 113.065613 154.145835 
L 113.782076 153.74166 
L 115.026087 152.886025 
L 116.282432 151.781186 
L 116.986561 150.980533 
L 117.808655 149.820711 
L 118.785488 147.860237 
L 118.947036 147.343174 
L 119.319711 145.899763 
L 119.541925 143.939289 
L 119.5084 141.978814 
L 119.248138 140.01834 
L 118.947036 138.757855 
L 118.760842 138.057866 
L 118.018272 136.097391 
L 117.088865 134.136917 
L 116.986561 133.959709 
L 115.815115 132.176443 
L 115.026087 131.140246 
L 114.202941 130.215968 
L 113.065613 129.100272 
L 112.01714 128.255494 
L 111.105138 127.606792 
L 109.144664 126.536506 
L 108.492848 126.29502 
L 107.18419 125.86623 
L 105.223715 125.541826 
L 103.263241 125.541826 
L 101.302767 125.86623 
L 99.994109 126.29502 
L 99.342292 126.536506 
L 97.381818 127.606792 
L 96.469817 128.255494 
L 95.421344 129.100272 
L 94.284015 130.215968 
L 93.46087 131.140246 
L 92.671841 132.176443 
L 91.500395 133.959709 
L 91.398091 134.136917 
L 90.468684 136.097391 
L 89.726115 138.057866 
L 89.539921 138.757855 
L 89.238819 140.01834 
L 88.978556 141.978814 
L 88.945031 143.939289 
L 89.167246 145.899763 
L 89.539921 147.343174 
L 89.701468 147.860237 
L 90.678302 149.820711 
L 91.500395 150.980533 
L 92.204524 151.781186 
L 93.46087 152.886025 
L 94.70488 153.74166 
L 95.421344 154.145835 
L 97.381818 154.991754 
L 99.342292 155.595618 
L 99.874952 155.702134 
L 101.302767 155.949314 
z
" clip-path="url(#p2b4954af7f)" style="fill: none; stroke: #710000; stroke-opacity: 0.8; stroke-width: 3"/>
   </g>
   <g id="PathCollection_6"/>
   <g id="patch_29">
    <path d="M 7.2 243.923478 
L 7.2 49.836522 
" style="fill: none; stroke: #000000; stroke-width: 0.8; stroke-linejoin: miter; stroke-linecap: square"/>
   </g>
   <g id="patch_30">
    <path d="M 201.286957 243.923478 
L 201.286957 49.836522 
" style="fill: none; stroke: #000000; stroke-width: 0.8; stroke-linejoin: miter; stroke-linecap: square"/>
   </g>
   <g id="patch_31">
    <path d="M 7.2 243.923478 
L 201.286957 243.923478 
" style="fill: none; stroke: #000000; stroke-width: 0.8; stroke-linejoin: miter; stroke-linecap: square"/>
   </g>
   <g id="patch_32">
    <path d="M 7.2 49.836522 
L 201.286957 49.836522 
" style="fill: none; stroke: #000000; stroke-width: 0.8; stroke-linejoin: miter; stroke-linecap: square"/>
   </g>
   <g id="text_1">
    <!-- Level set 1 -->
    <g transform="translate(71.602541 43.836522) scale(0.12 -0.12)">
     <defs>
      <path id="DejaVuSans-4c" d="M 628 4666 
L 1259 4666 
L 1259 531 
L 3531 531 
L 3531 0 
L 628 0 
L 628 4666 
z
" transform="scale(0.015625)"/>
      <path id="DejaVuSans-65" d="M 3597 1894 
L 3597 1613 
L 953 1613 
Q 991 1019 1311 708 
Q 1631 397 2203 397 
Q 2534 397 2845 478 
Q 3156 559 3463 722 
L 3463 178 
Q 3153 47 2828 -22 
Q 2503 -91 2169 -91 
Q 1331 -91 842 396 
Q 353 884 353 1716 
Q 353 2575 817 3079 
Q 1281 3584 2069 3584 
Q 2775 3584 3186 3129 
Q 3597 2675 3597 1894 
z
M 3022 2063 
Q 3016 2534 2758 2815 
Q 2500 3097 2075 3097 
Q 1594 3097 1305 2825 
Q 1016 2553 972 2059 
L 3022 2063 
z
" transform="scale(0.015625)"/>
      <path id="DejaVuSans-76" d="M 191 3500 
L 800 3500 
L 1894 563 
L 2988 3500 
L 3597 3500 
L 2284 0 
L 1503 0 
L 191 3500 
z
" transform="scale(0.015625)"/>
      <path id="DejaVuSans-6c" d="M 603 4863 
L 1178 4863 
L 1178 0 
L 603 0 
L 603 4863 
z
" transform="scale(0.015625)"/>
      <path id="DejaVuSans-20" transform="scale(0.015625)"/>
      <path id="DejaVuSans-73" d="M 2834 3397 
L 2834 2853 
Q 2591 2978 2328 3040 
Q 2066 3103 1784 3103 
Q 1356 3103 1142 2972 
Q 928 2841 928 2578 
Q 928 2378 1081 2264 
Q 1234 2150 1697 2047 
L 1894 2003 
Q 2506 1872 2764 1633 
Q 3022 1394 3022 966 
Q 3022 478 2636 193 
Q 2250 -91 1575 -91 
Q 1294 -91 989 -36 
Q 684 19 347 128 
L 347 722 
Q 666 556 975 473 
Q 1284 391 1588 391 
Q 1994 391 2212 530 
Q 2431 669 2431 922 
Q 2431 1156 2273 1281 
Q 2116 1406 1581 1522 
L 1381 1569 
Q 847 1681 609 1914 
Q 372 2147 372 2553 
Q 372 3047 722 3315 
Q 1072 3584 1716 3584 
Q 2034 3584 2315 3537 
Q 2597 3491 2834 3397 
z
" transform="scale(0.015625)"/>
      <path id="DejaVuSans-74" d="M 1172 4494 
L 1172 3500 
L 2356 3500 
L 2356 3053 
L 1172 3053 
L 1172 1153 
Q 1172 725 1289 603 
Q 1406 481 1766 481 
L 2356 481 
L 2356 0 
L 1766 0 
Q 1100 0 847 248 
Q 594 497 594 1153 
L 594 3053 
L 172 3053 
L 172 3500 
L 594 3500 
L 594 4494 
L 1172 4494 
z
" transform="scale(0.015625)"/>
      <path id="DejaVuSans-31" d="M 794 531 
L 1825 531 
L 1825 4091 
L 703 3866 
L 703 4441 
L 1819 4666 
L 2450 4666 
L 2450 531 
L 3481 531 
L 3481 0 
L 794 0 
L 794 531 
z
" transform="scale(0.015625)"/>
     </defs>
     <use xlink:href="#DejaVuSans-4c"/>
     <use xlink:href="#DejaVuSans-65" x="53.962891"/>
     <use xlink:href="#DejaVuSans-76" x="115.486328"/>
     <use xlink:href="#DejaVuSans-65" x="174.666016"/>
     <use xlink:href="#DejaVuSans-6c" x="236.189453"/>
     <use xlink:href="#DejaVuSans-20" x="263.972656"/>
     <use xlink:href="#DejaVuSans-73" x="295.759766"/>
     <use xlink:href="#DejaVuSans-65" x="347.859375"/>
     <use xlink:href="#DejaVuSans-74" x="409.382812"/>
     <use xlink:href="#DejaVuSans-20" x="448.591797"/>
     <use xlink:href="#DejaVuSans-31" x="480.378906"/>
    </g>
   </g>
  </g>
  <g id="axes_2">
   <g id="patch_33">
    <path d="M 240.104348 243.923478 
L 434.191304 243.923478 
L 434.191304 49.836522 
L 240.104348 49.836522 
z
" style="fill: #ffffff"/>
   </g>
   <g id="patch_34">
    <path d="M 337.147826 80.162609 
L 240.104348 80.162609 
L 240.104348 68.032174 
L 337.147826 68.032174 
z
" clip-path="url(#pd46b5a4433)" style="fill: #808080; stroke: #000000; stroke-width: 2; stroke-linejoin: miter"/>
   </g>
   <g id="patch_35">
    <path d="M 337.147826 225.727826 
L 434.191304 225.727826 
L 434.191304 213.597391 
L 337.147826 213.597391 
z
" clip-path="url(#pd46b5a4433)" style="fill: #808080; stroke: #000000; stroke-width: 2; stroke-linejoin: miter"/>
   </g>
   <g id="patch_36">
    <path d="M 337.147826 92.293043 
L 240.104348 92.293043 
L 240.104348 80.162609 
L 337.147826 80.162609 
z
" clip-path="url(#pd46b5a4433)" style="fill: #808080; stroke: #000000; stroke-width: 2; stroke-linejoin: miter"/>
   </g>
   <g id="patch_37">
    <path d="M 337.147826 213.597391 
L 434.191304 213.597391 
L 434.191304 201.466957 
L 337.147826 201.466957 
z
" clip-path="url(#pd46b5a4433)" style="fill: #808080; stroke: #000000; stroke-width: 2; stroke-linejoin: miter"/>
   </g>
   <g id="patch_38">
    <path d="M 337.147826 104.423478 
L 240.104348 104.423478 
L 240.104348 92.293043 
L 337.147826 92.293043 
z
" clip-path="url(#pd46b5a4433)" style="fill: #808080; stroke: #000000; stroke-width: 2; stroke-linejoin: miter"/>
   </g>
   <g id="patch_39">
    <path d="M 337.147826 201.466957 
L 434.191304 201.466957 
L 434.191304 189.336522 
L 337.147826 189.336522 
z
" clip-path="url(#pd46b5a4433)" style="fill: #808080; stroke: #000000; stroke-width: 2; stroke-linejoin: miter"/>
   </g>
   <g id="patch_40">
    <path d="M 321.62087 116.553913 
L 224.577391 116.553913 
L 224.577391 104.423478 
L 321.62087 104.423478 
z
" clip-path="url(#pd46b5a4433)" style="fill: #808080; stroke: #000000; stroke-width: 2; stroke-linejoin: miter"/>
   </g>
   <g id="patch_41">
    <path d="M 337.147826 189.336522 
L 434.191304 189.336522 
L 434.191304 177.206087 
L 337.147826 177.206087 
z
" clip-path="url(#pd46b5a4433)" style="fill: #808080; stroke: #000000; stroke-width: 2; stroke-linejoin: miter"/>
   </g>
   <g id="patch_42">
    <path d="M 310.946087 128.684348 
L 213.902609 128.684348 
L 213.902609 116.553913 
L 310.946087 116.553913 
z
" clip-path="url(#pd46b5a4433)" style="fill: #808080; stroke: #000000; stroke-width: 2; stroke-linejoin: miter"/>
   </g>
   <g id="patch_43">
    <path d="M 365.775652 177.206087 
L 462.81913 177.206087 
L 462.81913 165.075652 
L 365.775652 165.075652 
z
" clip-path="url(#pd46b5a4433)" style="fill: #808080; stroke: #000000; stroke-width: 2; stroke-linejoin: miter"/>
   </g>
   <g id="patch_44">
    <path d="M 305.123478 140.814783 
L 208.08 140.814783 
L 208.08 128.684348 
L 305.123478 128.684348 
z
" clip-path="url(#pd46b5a4433)" style="fill: #808080; stroke: #000000; stroke-width: 2; stroke-linejoin: miter"/>
   </g>
   <g id="patch_45">
    <path d="M 373.053913 165.075652 
L 470.097391 165.075652 
L 470.097391 152.945217 
L 373.053913 152.945217 
z
" clip-path="url(#pd46b5a4433)" style="fill: #808080; stroke: #000000; stroke-width: 2; stroke-linejoin: miter"/>
   </g>
   <g id="patch_46">
    <path d="M 301.726957 152.945217 
L 204.683478 152.945217 
L 204.683478 140.814783 
L 301.726957 140.814783 
z
" clip-path="url(#pd46b5a4433)" style="fill: #808080; stroke: #000000; stroke-width: 2; stroke-linejoin: miter"/>
   </g>
   <g id="patch_47">
    <path d="M 372.568696 152.945217 
L 469.612174 152.945217 
L 469.612174 140.814783 
L 372.568696 140.814783 
z
" clip-path="url(#pd46b5a4433)" style="fill: #808080; stroke: #000000; stroke-width: 2; stroke-linejoin: miter"/>
   </g>
   <g id="patch_48">
    <path d="M 301.241739 165.075652 
L 204.198261 165.075652 
L 204.198261 152.945217 
L 301.241739 152.945217 
z
" clip-path="url(#pd46b5a4433)" style="fill: #808080; stroke: #000000; stroke-width: 2; stroke-linejoin: miter"/>
   </g>
   <g id="patch_49">
    <path d="M 369.172174 140.814783 
L 466.215652 140.814783 
L 466.215652 128.684348 
L 369.172174 128.684348 
z
" clip-path="url(#pd46b5a4433)" style="fill: #808080; stroke: #000000; stroke-width: 2; stroke-linejoin: miter"/>
   </g>
   <g id="patch_50">
    <path d="M 308.52 177.206087 
L 211.476522 177.206087 
L 211.476522 165.075652 
L 308.52 165.075652 
z
" clip-path="url(#pd46b5a4433)" style="fill: #808080; stroke: #000000; stroke-width: 2; stroke-linejoin: miter"/>
   </g>
   <g id="patch_51">
    <path d="M 363.349565 128.684348 
L 460.393043 128.684348 
L 460.393043 116.553913 
L 363.349565 116.553913 
z
" clip-path="url(#pd46b5a4433)" style="fill: #808080; stroke: #000000; stroke-width: 2; stroke-linejoin: miter"/>
   </g>
   <g id="patch_52">
    <path d="M 337.147826 189.336522 
L 240.104348 189.336522 
L 240.104348 177.206087 
L 337.147826 177.206087 
z
" clip-path="url(#pd46b5a4433)" style="fill: #808080; stroke: #000000; stroke-width: 2; stroke-linejoin: miter"/>
   </g>
   <g id="patch_53">
    <path d="M 352.674783 116.553913 
L 449.718261 116.553913 
L 449.718261 104.423478 
L 352.674783 104.423478 
z
" clip-path="url(#pd46b5a4433)" style="fill: #808080; stroke: #000000; stroke-width: 2; stroke-linejoin: miter"/>
   </g>
   <g id="patch_54">
    <path d="M 337.147826 201.466957 
L 240.104348 201.466957 
L 240.104348 189.336522 
L 337.147826 189.336522 
z
" clip-path="url(#pd46b5a4433)" style="fill: #808080; stroke: #000000; stroke-width: 2; stroke-linejoin: miter"/>
   </g>
   <g id="patch_55">
    <path d="M 337.147826 104.423478 
L 434.191304 104.423478 
L 434.191304 92.293043 
L 337.147826 92.293043 
z
" clip-path="url(#pd46b5a4433)" style="fill: #808080; stroke: #000000; stroke-width: 2; stroke-linejoin: miter"/>
   </g>
   <g id="patch_56">
    <path d="M 337.147826 213.597391 
L 240.104348 213.597391 
L 240.104348 201.466957 
L 337.147826 201.466957 
z
" clip-path="url(#pd46b5a4433)" style="fill: #808080; stroke: #000000; stroke-width: 2; stroke-linejoin: miter"/>
   </g>
   <g id="patch_57">
    <path d="M 337.147826 92.293043 
L 434.191304 92.293043 
L 434.191304 80.162609 
L 337.147826 80.162609 
z
" clip-path="url(#pd46b5a4433)" style="fill: #808080; stroke: #000000; stroke-width: 2; stroke-linejoin: miter"/>
   </g>
   <g id="patch_58">
    <path d="M 337.147826 225.727826 
L 240.104348 225.727826 
L 240.104348 213.597391 
L 337.147826 213.597391 
z
" clip-path="url(#pd46b5a4433)" style="fill: #808080; stroke: #000000; stroke-width: 2; stroke-linejoin: miter"/>
   </g>
   <g id="patch_59">
    <path d="M 337.147826 80.162609 
L 434.191304 80.162609 
L 434.191304 68.032174 
L 337.147826 68.032174 
z
" clip-path="url(#pd46b5a4433)" style="fill: #808080; stroke: #000000; stroke-width: 2; stroke-linejoin: miter"/>
   </g>
   <g id="matplotlib.axis_3"/>
   <g id="matplotlib.axis_4"/>
   <g id="PathCollection_7"/>
   <g id="PathCollection_8">
    <path d="M 308.720949 185.341766 
L 310.681423 185.684662 
L 312.641897 185.957471 
L 314.602372 186.173332 
L 316.562846 186.34299 
L 318.52332 186.475273 
L 320.483794 186.577455 
L 322.444269 186.65553 
L 324.404743 186.71443 
L 326.365217 186.758184 
L 328.325692 186.790052 
L 330.286166 186.812618 
L 332.24664 186.827872 
L 334.207115 186.837257 
L 336.167589 186.841718 
L 338.128063 186.841718 
L 340.088538 186.837257 
L 342.049012 186.827872 
L 344.009486 186.812618 
L 345.96996 186.790052 
L 347.930435 186.758184 
L 349.890909 186.71443 
L 351.851383 186.65553 
L 353.811858 186.577455 
L 355.772332 186.475273 
L 357.732806 186.34299 
L 359.693281 186.173332 
L 361.653755 185.957471 
L 363.614229 185.684662 
L 365.574704 185.341766 
L 366.652787 185.109249 
L 367.535178 184.901209 
L 369.495652 184.333032 
L 371.456126 183.622305 
L 372.52312 183.148775 
L 373.416601 182.703946 
L 375.377075 181.505371 
L 375.806944 181.1883 
L 377.337549 179.883416 
L 377.974762 179.227826 
L 379.298024 177.608432 
L 379.532873 177.267352 
L 380.658991 175.306877 
L 381.258498 173.992266 
L 381.511692 173.346403 
L 382.122477 171.385929 
L 382.573478 169.425455 
L 382.886634 167.46498 
L 383.080046 165.504506 
L 383.168776 163.544032 
L 383.165463 161.583557 
L 383.08079 159.623083 
L 382.923847 157.662609 
L 382.702421 155.702134 
L 382.423217 153.74166 
L 382.092042 151.781186 
L 381.71395 149.820711 
L 381.293361 147.860237 
L 381.258498 147.715593 
L 380.802241 145.899763 
L 380.271489 143.939289 
L 379.707028 141.978814 
L 379.298024 140.644109 
L 379.097907 140.01834 
L 378.428662 138.057866 
L 377.732466 136.097391 
L 377.337549 135.036813 
L 376.987377 134.136917 
L 376.189249 132.176443 
L 375.377075 130.234757 
L 375.368849 130.215968 
L 374.466669 128.255494 
L 373.545494 126.29502 
L 373.416601 126.031604 
L 372.545648 124.334545 
L 371.519398 122.374071 
L 371.456126 122.257678 
L 370.402308 120.413597 
L 369.495652 118.857319 
L 369.247476 118.453123 
L 368.006408 116.492648 
L 367.535178 115.76651 
L 366.688226 114.532174 
L 365.574704 112.944556 
L 365.297201 112.5717 
L 363.798904 110.611225 
L 363.614229 110.37593 
L 362.170911 108.650751 
L 361.653755 108.047228 
L 360.407925 106.690277 
L 359.693281 105.931376 
L 358.473404 104.729802 
L 357.732806 104.019493 
L 356.316862 102.769328 
L 355.772332 102.301738 
L 353.866063 100.808854 
L 353.811858 100.767611 
L 351.851383 99.431524 
L 350.887502 98.848379 
L 349.890909 98.264443 
L 347.930435 97.268495 
L 347.04048 96.887905 
L 345.96996 96.445766 
L 344.009486 95.792883 
L 342.049012 95.298667 
L 340.088538 94.966987 
L 339.622169 94.927431 
L 338.128063 94.805789 
L 336.167589 94.805789 
L 334.673483 94.927431 
L 334.207115 94.966987 
L 332.24664 95.298667 
L 330.286166 95.792883 
L 328.325692 96.445766 
L 327.255173 96.887905 
L 326.365217 97.268495 
L 324.404743 98.264443 
L 323.40815 98.848379 
L 322.444269 99.431524 
L 320.483794 100.767611 
L 320.429589 100.808854 
L 318.52332 102.301738 
L 317.978791 102.769328 
L 316.562846 104.019493 
L 315.822248 104.729802 
L 314.602372 105.931376 
L 313.887727 106.690277 
L 312.641897 108.047228 
L 312.124741 108.650751 
L 310.681423 110.37593 
L 310.496748 110.611225 
L 308.998451 112.5717 
L 308.720949 112.944556 
L 307.607426 114.532174 
L 306.760474 115.76651 
L 306.289244 116.492648 
L 305.048176 118.453123 
L 304.8 118.857319 
L 303.893344 120.413597 
L 302.839526 122.257678 
L 302.776255 122.374071 
L 301.750004 124.334545 
L 300.879051 126.031604 
L 300.750158 126.29502 
L 299.828983 128.255494 
L 298.926803 130.215968 
L 298.918577 130.234757 
L 298.106403 132.176443 
L 297.308275 134.136917 
L 296.958103 135.036813 
L 296.563186 136.097391 
L 295.866991 138.057866 
L 295.197745 140.01834 
L 294.997628 140.644109 
L 294.588624 141.978814 
L 294.024164 143.939289 
L 293.493411 145.899763 
L 293.037154 147.715593 
L 293.002291 147.860237 
L 292.581702 149.820711 
L 292.203611 151.781186 
L 291.872436 153.74166 
L 291.593231 155.702134 
L 291.371805 157.662609 
L 291.214863 159.623083 
L 291.130189 161.583557 
L 291.126876 163.544032 
L 291.215606 165.504506 
L 291.409018 167.46498 
L 291.722175 169.425455 
L 292.173175 171.385929 
L 292.783961 173.346403 
L 293.037154 173.992266 
L 293.636661 175.306877 
L 294.762779 177.267352 
L 294.997628 177.608432 
L 296.32089 179.227826 
L 296.958103 179.883416 
L 298.488708 181.1883 
L 298.918577 181.505371 
L 300.879051 182.703946 
L 301.772532 183.148775 
L 302.839526 183.622305 
L 304.8 184.333032 
L 306.760474 184.901209 
L 307.642865 185.109249 
L 308.720949 185.341766 
z
" clip-path="url(#pd46b5a4433)" style="fill: none; stroke: #ffff17; stroke-opacity: 0.8; stroke-width: 3"/>
   </g>
   <g id="PathCollection_9">
    <path d="M 320.483794 175.563128 
L 322.444269 175.874174 
L 324.404743 176.127025 
L 326.365217 176.330104 
L 328.325692 176.490106 
L 330.286166 176.612272 
L 332.24664 176.700583 
L 334.207115 176.757912 
L 336.167589 176.786119 
L 338.128063 176.786119 
L 340.088538 176.757912 
L 342.049012 176.700583 
L 344.009486 176.612272 
L 345.96996 176.490106 
L 347.930435 176.330104 
L 349.890909 176.127025 
L 351.851383 175.874174 
L 353.811858 175.563128 
L 355.144246 175.306877 
L 355.772332 175.175294 
L 357.732806 174.682512 
L 359.693281 174.08293 
L 361.653755 173.353539 
L 361.670111 173.346403 
L 363.614229 172.39407 
L 365.300178 171.385929 
L 365.574704 171.198076 
L 367.535178 169.596571 
L 367.711956 169.425455 
L 369.416795 167.46498 
L 369.495652 167.355334 
L 370.632451 165.504506 
L 371.456126 163.78051 
L 371.553589 163.544032 
L 372.187671 161.583557 
L 372.639145 159.623083 
L 372.932139 157.662609 
L 373.086705 155.702134 
L 373.119654 153.74166 
L 373.045178 151.781186 
L 372.875344 149.820711 
L 372.620477 147.860237 
L 372.289463 145.899763 
L 371.889993 143.939289 
L 371.456126 142.098835 
L 371.426461 141.978814 
L 370.866409 140.01834 
L 370.252166 138.057866 
L 369.588657 136.097391 
L 369.495652 135.846615 
L 368.828688 134.136917 
L 368.017268 132.176443 
L 367.535178 131.080105 
L 367.134226 130.215968 
L 366.170693 128.255494 
L 365.574704 127.099154 
L 365.135731 126.29502 
L 364.012809 124.334545 
L 363.614229 123.66969 
L 362.787879 122.374071 
L 361.653755 120.660524 
L 361.479007 120.413597 
L 360.028089 118.453123 
L 359.693281 118.018059 
L 358.429976 116.492648 
L 357.732806 115.681735 
L 356.661235 114.532174 
L 355.772332 113.614706 
L 354.666475 112.5717 
L 353.811858 111.796995 
L 352.363568 110.611225 
L 351.851383 110.208532 
L 349.890909 108.840298 
L 349.578075 108.650751 
L 347.930435 107.695615 
L 345.96996 106.731433 
L 345.866172 106.690277 
L 344.009486 105.988032 
L 342.049012 105.425312 
L 340.088538 105.046835 
L 338.128063 104.856584 
L 336.167589 104.856584 
L 334.207115 105.046835 
L 332.24664 105.425312 
L 330.286166 105.988032 
L 328.42948 106.690277 
L 328.325692 106.731433 
L 326.365217 107.695615 
L 324.717577 108.650751 
L 324.404743 108.840298 
L 322.444269 110.208532 
L 321.932084 110.611225 
L 320.483794 111.796995 
L 319.629177 112.5717 
L 318.52332 113.614706 
L 317.634418 114.532174 
L 316.562846 115.681735 
L 315.865676 116.492648 
L 314.602372 118.018059 
L 314.267563 118.453123 
L 312.816645 120.413597 
L 312.641897 120.660524 
L 311.507773 122.374071 
L 310.681423 123.66969 
L 310.282843 124.334545 
L 309.159921 126.29502 
L 308.720949 127.099154 
L 308.124959 128.255494 
L 307.161426 130.215968 
L 306.760474 131.080105 
L 306.278384 132.176443 
L 305.466964 134.136917 
L 304.8 135.846615 
L 304.706995 136.097391 
L 304.043487 138.057866 
L 303.429243 140.01834 
L 302.869191 141.978814 
L 302.839526 142.098835 
L 302.405659 143.939289 
L 302.006189 145.899763 
L 301.675175 147.860237 
L 301.420308 149.820711 
L 301.250474 151.781186 
L 301.175998 153.74166 
L 301.208947 155.702134 
L 301.363514 157.662609 
L 301.656507 159.623083 
L 302.107981 161.583557 
L 302.742063 163.544032 
L 302.839526 163.78051 
L 303.663201 165.504506 
L 304.8 167.355334 
L 304.878857 167.46498 
L 306.583697 169.425455 
L 306.760474 169.596571 
L 308.720949 171.198076 
L 308.995474 171.385929 
L 310.681423 172.39407 
L 312.625541 173.346403 
L 312.641897 173.353539 
L 314.602372 174.08293 
L 316.562846 174.682512 
L 318.52332 175.175294 
L 319.151406 175.306877 
L 320.483794 175.563128 
z
" clip-path="url(#pd46b5a4433)" style="fill: none; stroke: #ff5900; stroke-opacity: 0.8; stroke-width: 3"/>
   </g>
   <g id="PathCollection_10">
    <path d="M 324.404743 165.799702 
L 326.365217 166.284691 
L 328.325692 166.667749 
L 330.286166 166.961037 
L 332.24664 167.173614 
L 334.207115 167.311911 
L 336.167589 167.380053 
L 338.128063 167.380053 
L 340.088538 167.311911 
L 342.049012 167.173614 
L 344.009486 166.961037 
L 345.96996 166.667749 
L 347.930435 166.284691 
L 349.890909 165.799702 
L 350.862339 165.504506 
L 351.851383 165.16877 
L 353.811858 164.356829 
L 355.41815 163.544032 
L 355.772332 163.338451 
L 357.732806 161.972802 
L 358.200431 161.583557 
L 359.693281 160.099096 
L 360.096525 159.623083 
L 361.437037 157.662609 
L 361.653755 157.256745 
L 362.36396 155.702134 
L 363.012155 153.74166 
L 363.437594 151.781186 
L 363.614229 150.297753 
L 363.663595 149.820711 
L 363.718462 147.860237 
L 363.636444 145.899763 
L 363.614229 145.693072 
L 363.414705 143.939289 
L 363.071635 141.978814 
L 362.62196 140.01834 
L 362.076493 138.057866 
L 361.653755 136.760749 
L 361.423402 136.097391 
L 360.641805 134.136917 
L 359.78287 132.176443 
L 359.693281 131.992614 
L 358.764224 130.215968 
L 357.732806 128.378298 
L 357.658304 128.255494 
L 356.363951 126.29502 
L 355.772332 125.455235 
L 354.910629 124.334545 
L 353.811858 122.993264 
L 353.251781 122.374071 
L 351.851383 120.920748 
L 351.303657 120.413597 
L 349.890909 119.185279 
L 348.928111 118.453123 
L 347.930435 117.74036 
L 345.96996 116.549496 
L 345.854397 116.492648 
L 344.009486 115.642952 
L 342.049012 114.95414 
L 340.269467 114.532174 
L 340.088538 114.492098 
L 338.128063 114.274576 
L 336.167589 114.274576 
L 334.207115 114.492098 
L 334.026185 114.532174 
L 332.24664 114.95414 
L 330.286166 115.642952 
L 328.441255 116.492648 
L 328.325692 116.549496 
L 326.365217 117.74036 
L 325.367541 118.453123 
L 324.404743 119.185279 
L 322.991995 120.413597 
L 322.444269 120.920748 
L 321.043871 122.374071 
L 320.483794 122.993264 
L 319.385023 124.334545 
L 318.52332 125.455235 
L 317.931701 126.29502 
L 316.637348 128.255494 
L 316.562846 128.378298 
L 315.531428 130.215968 
L 314.602372 131.992614 
L 314.512783 132.176443 
L 313.653847 134.136917 
L 312.872251 136.097391 
L 312.641897 136.760749 
L 312.219159 138.057866 
L 311.673692 140.01834 
L 311.224017 141.978814 
L 310.880947 143.939289 
L 310.681423 145.693072 
L 310.659208 145.899763 
L 310.57719 147.860237 
L 310.632057 149.820711 
L 310.681423 150.297753 
L 310.858058 151.781186 
L 311.283497 153.74166 
L 311.931692 155.702134 
L 312.641897 157.256745 
L 312.858615 157.662609 
L 314.199128 159.623083 
L 314.602372 160.099096 
L 316.095221 161.583557 
L 316.562846 161.972802 
L 318.52332 163.338451 
L 318.877502 163.544032 
L 320.483794 164.356829 
L 322.444269 165.16877 
L 323.433314 165.504506 
L 324.404743 165.799702 
z
" clip-path="url(#pd46b5a4433)" style="fill: none; stroke: #d70000; stroke-opacity: 0.8; stroke-width: 3"/>
   </g>
   <g id="PathCollection_11">
    <path d="M 334.207115 155.949314 
L 336.167589 156.116335 
L 338.128063 156.116335 
L 340.088538 155.949314 
L 341.516353 155.702134 
L 342.049012 155.595618 
L 344.009486 154.991754 
L 345.96996 154.145835 
L 346.686424 153.74166 
L 347.930435 152.886025 
L 349.18678 151.781186 
L 349.890909 150.980533 
L 350.713003 149.820711 
L 351.689836 147.860237 
L 351.851383 147.343174 
L 352.224059 145.899763 
L 352.446273 143.939289 
L 352.412748 141.978814 
L 352.152486 140.01834 
L 351.851383 138.757855 
L 351.665189 138.057866 
L 350.92262 136.097391 
L 349.993213 134.136917 
L 349.890909 133.959709 
L 348.719463 132.176443 
L 347.930435 131.140246 
L 347.107289 130.215968 
L 345.96996 129.100272 
L 344.921487 128.255494 
L 344.009486 127.606792 
L 342.049012 126.536506 
L 341.397195 126.29502 
L 340.088538 125.86623 
L 338.128063 125.541826 
L 336.167589 125.541826 
L 334.207115 125.86623 
L 332.898457 126.29502 
L 332.24664 126.536506 
L 330.286166 127.606792 
L 329.374165 128.255494 
L 328.325692 129.100272 
L 327.188363 130.215968 
L 326.365217 131.140246 
L 325.576189 132.176443 
L 324.404743 133.959709 
L 324.302439 134.136917 
L 323.373032 136.097391 
L 322.630463 138.057866 
L 322.444269 138.757855 
L 322.143166 140.01834 
L 321.882904 141.978814 
L 321.849379 143.939289 
L 322.071593 145.899763 
L 322.444269 147.343174 
L 322.605816 147.860237 
L 323.582649 149.820711 
L 324.404743 150.980533 
L 325.108872 151.781186 
L 326.365217 152.886025 
L 327.609228 153.74166 
L 328.325692 154.145835 
L 330.286166 154.991754 
L 332.24664 155.595618 
L 332.779299 155.702134 
L 334.207115 155.949314 
z
" clip-path="url(#pd46b5a4433)" style="fill: none; stroke: #710000; stroke-opacity: 0.8; stroke-width: 3"/>
   </g>
   <g id="PathCollection_12"/>
   <g id="patch_60">
    <path d="M 240.104348 243.923478 
L 240.104348 49.836522 
" style="fill: none; stroke: #000000; stroke-width: 0.8; stroke-linejoin: miter; stroke-linecap: square"/>
   </g>
   <g id="patch_61">
    <path d="M 434.191304 243.923478 
L 434.191304 49.836522 
" style="fill: none; stroke: #000000; stroke-width: 0.8; stroke-linejoin: miter; stroke-linecap: square"/>
   </g>
   <g id="patch_62">
    <path d="M 240.104348 243.923478 
L 434.191304 243.923478 
" style="fill: none; stroke: #000000; stroke-width: 0.8; stroke-linejoin: miter; stroke-linecap: square"/>
   </g>
   <g id="patch_63">
    <path d="M 240.104348 49.836522 
L 434.191304 49.836522 
" style="fill: none; stroke: #000000; stroke-width: 0.8; stroke-linejoin: miter; stroke-linecap: square"/>
   </g>
   <g id="text_2">
    <!-- Level set 2 -->
    <g transform="translate(304.506889 43.836522) scale(0.12 -0.12)">
     <defs>
      <path id="DejaVuSans-32" d="M 1228 531 
L 3431 531 
L 3431 0 
L 469 0 
L 469 531 
Q 828 903 1448 1529 
Q 2069 2156 2228 2338 
Q 2531 2678 2651 2914 
Q 2772 3150 2772 3378 
Q 2772 3750 2511 3984 
Q 2250 4219 1831 4219 
Q 1534 4219 1204 4116 
Q 875 4013 500 3803 
L 500 4441 
Q 881 4594 1212 4672 
Q 1544 4750 1819 4750 
Q 2544 4750 2975 4387 
Q 3406 4025 3406 3419 
Q 3406 3131 3298 2873 
Q 3191 2616 2906 2266 
Q 2828 2175 2409 1742 
Q 1991 1309 1228 531 
z
" transform="scale(0.015625)"/>
     </defs>
     <use xlink:href="#DejaVuSans-4c"/>
     <use xlink:href="#DejaVuSans-65" x="53.962891"/>
     <use xlink:href="#DejaVuSans-76" x="115.486328"/>
     <use xlink:href="#DejaVuSans-65" x="174.666016"/>
     <use xlink:href="#DejaVuSans-6c" x="236.189453"/>
     <use xlink:href="#DejaVuSans-20" x="263.972656"/>
     <use xlink:href="#DejaVuSans-73" x="295.759766"/>
     <use xlink:href="#DejaVuSans-65" x="347.859375"/>
     <use xlink:href="#DejaVuSans-74" x="409.382812"/>
     <use xlink:href="#DejaVuSans-20" x="448.591797"/>
     <use xlink:href="#DejaVuSans-32" x="480.378906"/>
    </g>
   </g>
  </g>
  <g id="axes_3">
   <g id="patch_64">
    <path d="M 473.008696 243.923478 
L 667.095652 243.923478 
L 667.095652 49.836522 
L 473.008696 49.836522 
z
" style="fill: #ffffff"/>
   </g>
   <g id="patch_65">
    <path d="M 570.052174 80.162609 
L 473.008696 80.162609 
L 473.008696 68.032174 
L 570.052174 68.032174 
z
" clip-path="url(#p3dbf116a80)" style="fill: #808080; stroke: #000000; stroke-width: 2; stroke-linejoin: miter"/>
   </g>
   <g id="patch_66">
    <path d="M 570.052174 225.727826 
L 667.095652 225.727826 
L 667.095652 213.597391 
L 570.052174 213.597391 
z
" clip-path="url(#p3dbf116a80)" style="fill: #808080; stroke: #000000; stroke-width: 2; stroke-linejoin: miter"/>
   </g>
   <g id="patch_67">
    <path d="M 570.052174 92.293043 
L 473.008696 92.293043 
L 473.008696 80.162609 
L 570.052174 80.162609 
z
" clip-path="url(#p3dbf116a80)" style="fill: #808080; stroke: #000000; stroke-width: 2; stroke-linejoin: miter"/>
   </g>
   <g id="patch_68">
    <path d="M 570.052174 213.597391 
L 667.095652 213.597391 
L 667.095652 201.466957 
L 570.052174 201.466957 
z
" clip-path="url(#p3dbf116a80)" style="fill: #808080; stroke: #000000; stroke-width: 2; stroke-linejoin: miter"/>
   </g>
   <g id="patch_69">
    <path d="M 570.052174 104.423478 
L 473.008696 104.423478 
L 473.008696 92.293043 
L 570.052174 92.293043 
z
" clip-path="url(#p3dbf116a80)" style="fill: #808080; stroke: #000000; stroke-width: 2; stroke-linejoin: miter"/>
   </g>
   <g id="patch_70">
    <path d="M 570.052174 201.466957 
L 667.095652 201.466957 
L 667.095652 189.336522 
L 570.052174 189.336522 
z
" clip-path="url(#p3dbf116a80)" style="fill: #808080; stroke: #000000; stroke-width: 2; stroke-linejoin: miter"/>
   </g>
   <g id="patch_71">
    <path d="M 570.052174 116.553913 
L 473.008696 116.553913 
L 473.008696 104.423478 
L 570.052174 104.423478 
z
" clip-path="url(#p3dbf116a80)" style="fill: #808080; stroke: #000000; stroke-width: 2; stroke-linejoin: miter"/>
   </g>
   <g id="patch_72">
    <path d="M 570.052174 189.336522 
L 667.095652 189.336522 
L 667.095652 177.206087 
L 570.052174 177.206087 
z
" clip-path="url(#p3dbf116a80)" style="fill: #808080; stroke: #000000; stroke-width: 2; stroke-linejoin: miter"/>
   </g>
   <g id="patch_73">
    <path d="M 553.554783 128.684348 
L 456.511304 128.684348 
L 456.511304 116.553913 
L 553.554783 116.553913 
z
" clip-path="url(#p3dbf116a80)" style="fill: #808080; stroke: #000000; stroke-width: 2; stroke-linejoin: miter"/>
   </g>
   <g id="patch_74">
    <path d="M 570.052174 177.206087 
L 667.095652 177.206087 
L 667.095652 165.075652 
L 570.052174 165.075652 
z
" clip-path="url(#p3dbf116a80)" style="fill: #808080; stroke: #000000; stroke-width: 2; stroke-linejoin: miter"/>
   </g>
   <g id="patch_75">
    <path d="M 546.276522 140.814783 
L 449.233043 140.814783 
L 449.233043 128.684348 
L 546.276522 128.684348 
z
" clip-path="url(#p3dbf116a80)" style="fill: #808080; stroke: #000000; stroke-width: 2; stroke-linejoin: miter"/>
   </g>
   <g id="patch_76">
    <path d="M 593.827826 165.075652 
L 690.871304 165.075652 
L 690.871304 152.945217 
L 593.827826 152.945217 
z
" clip-path="url(#p3dbf116a80)" style="fill: #808080; stroke: #000000; stroke-width: 2; stroke-linejoin: miter"/>
   </g>
   <g id="patch_77">
    <path d="M 543.365217 152.945217 
L 446.321739 152.945217 
L 446.321739 140.814783 
L 543.365217 140.814783 
z
" clip-path="url(#p3dbf116a80)" style="fill: #808080; stroke: #000000; stroke-width: 2; stroke-linejoin: miter"/>
   </g>
   <g id="patch_78">
    <path d="M 596.73913 152.945217 
L 693.782609 152.945217 
L 693.782609 140.814783 
L 596.73913 140.814783 
z
" clip-path="url(#p3dbf116a80)" style="fill: #808080; stroke: #000000; stroke-width: 2; stroke-linejoin: miter"/>
   </g>
   <g id="patch_79">
    <path d="M 546.276522 165.075652 
L 449.233043 165.075652 
L 449.233043 152.945217 
L 546.276522 152.945217 
z
" clip-path="url(#p3dbf116a80)" style="fill: #808080; stroke: #000000; stroke-width: 2; stroke-linejoin: miter"/>
   </g>
   <g id="patch_80">
    <path d="M 593.827826 140.814783 
L 690.871304 140.814783 
L 690.871304 128.684348 
L 593.827826 128.684348 
z
" clip-path="url(#p3dbf116a80)" style="fill: #808080; stroke: #000000; stroke-width: 2; stroke-linejoin: miter"/>
   </g>
   <g id="patch_81">
    <path d="M 570.052174 177.206087 
L 473.008696 177.206087 
L 473.008696 165.075652 
L 570.052174 165.075652 
z
" clip-path="url(#p3dbf116a80)" style="fill: #808080; stroke: #000000; stroke-width: 2; stroke-linejoin: miter"/>
   </g>
   <g id="patch_82">
    <path d="M 586.549565 128.684348 
L 683.593043 128.684348 
L 683.593043 116.553913 
L 586.549565 116.553913 
z
" clip-path="url(#p3dbf116a80)" style="fill: #808080; stroke: #000000; stroke-width: 2; stroke-linejoin: miter"/>
   </g>
   <g id="patch_83">
    <path d="M 570.052174 189.336522 
L 473.008696 189.336522 
L 473.008696 177.206087 
L 570.052174 177.206087 
z
" clip-path="url(#p3dbf116a80)" style="fill: #808080; stroke: #000000; stroke-width: 2; stroke-linejoin: miter"/>
   </g>
   <g id="patch_84">
    <path d="M 570.052174 116.553913 
L 667.095652 116.553913 
L 667.095652 104.423478 
L 570.052174 104.423478 
z
" clip-path="url(#p3dbf116a80)" style="fill: #808080; stroke: #000000; stroke-width: 2; stroke-linejoin: miter"/>
   </g>
   <g id="patch_85">
    <path d="M 570.052174 201.466957 
L 473.008696 201.466957 
L 473.008696 189.336522 
L 570.052174 189.336522 
z
" clip-path="url(#p3dbf116a80)" style="fill: #808080; stroke: #000000; stroke-width: 2; stroke-linejoin: miter"/>
   </g>
   <g id="patch_86">
    <path d="M 570.052174 104.423478 
L 667.095652 104.423478 
L 667.095652 92.293043 
L 570.052174 92.293043 
z
" clip-path="url(#p3dbf116a80)" style="fill: #808080; stroke: #000000; stroke-width: 2; stroke-linejoin: miter"/>
   </g>
   <g id="patch_87">
    <path d="M 570.052174 213.597391 
L 473.008696 213.597391 
L 473.008696 201.466957 
L 570.052174 201.466957 
z
" clip-path="url(#p3dbf116a80)" style="fill: #808080; stroke: #000000; stroke-width: 2; stroke-linejoin: miter"/>
   </g>
   <g id="patch_88">
    <path d="M 570.052174 92.293043 
L 667.095652 92.293043 
L 667.095652 80.162609 
L 570.052174 80.162609 
z
" clip-path="url(#p3dbf116a80)" style="fill: #808080; stroke: #000000; stroke-width: 2; stroke-linejoin: miter"/>
   </g>
   <g id="patch_89">
    <path d="M 570.052174 225.727826 
L 473.008696 225.727826 
L 473.008696 213.597391 
L 570.052174 213.597391 
z
" clip-path="url(#p3dbf116a80)" style="fill: #808080; stroke: #000000; stroke-width: 2; stroke-linejoin: miter"/>
   </g>
   <g id="patch_90">
    <path d="M 570.052174 80.162609 
L 667.095652 80.162609 
L 667.095652 68.032174 
L 570.052174 68.032174 
z
" clip-path="url(#p3dbf116a80)" style="fill: #808080; stroke: #000000; stroke-width: 2; stroke-linejoin: miter"/>
   </g>
   <g id="matplotlib.axis_5"/>
   <g id="matplotlib.axis_6"/>
   <g id="PathCollection_13"/>
   <g id="PathCollection_14">
    <path d="M 541.625296 185.341766 
L 543.585771 185.684662 
L 545.546245 185.957471 
L 547.506719 186.173332 
L 549.467194 186.34299 
L 551.427668 186.475273 
L 553.388142 186.577455 
L 555.348617 186.65553 
L 557.309091 186.71443 
L 559.269565 186.758184 
L 561.23004 186.790052 
L 563.190514 186.812618 
L 565.150988 186.827872 
L 567.111462 186.837257 
L 569.071937 186.841718 
L 571.032411 186.841718 
L 572.992885 186.837257 
L 574.95336 186.827872 
L 576.913834 186.812618 
L 578.874308 186.790052 
L 580.834783 186.758184 
L 582.795257 186.71443 
L 584.755731 186.65553 
L 586.716206 186.577455 
L 588.67668 186.475273 
L 590.637154 186.34299 
L 592.597628 186.173332 
L 594.558103 185.957471 
L 596.518577 185.684662 
L 598.479051 185.341766 
L 599.557135 185.109249 
L 600.439526 184.901209 
L 602.4 184.333032 
L 604.360474 183.622305 
L 605.427468 183.148775 
L 606.320949 182.703946 
L 608.281423 181.505371 
L 608.711292 181.1883 
L 610.241897 179.883416 
L 610.87911 179.227826 
L 612.202372 177.608432 
L 612.437221 177.267352 
L 613.563339 175.306877 
L 614.162846 173.992266 
L 614.416039 173.346403 
L 615.026825 171.385929 
L 615.477825 169.425455 
L 615.790982 167.46498 
L 615.984394 165.504506 
L 616.073124 163.544032 
L 616.069811 161.583557 
L 615.985137 159.623083 
L 615.828195 157.662609 
L 615.606769 155.702134 
L 615.327564 153.74166 
L 614.996389 151.781186 
L 614.618298 149.820711 
L 614.197709 147.860237 
L 614.162846 147.715593 
L 613.706589 145.899763 
L 613.175836 143.939289 
L 612.611376 141.978814 
L 612.202372 140.644109 
L 612.002255 140.01834 
L 611.333009 138.057866 
L 610.636814 136.097391 
L 610.241897 135.036813 
L 609.891725 134.136917 
L 609.093597 132.176443 
L 608.281423 130.234757 
L 608.273197 130.215968 
L 607.371017 128.255494 
L 606.449842 126.29502 
L 606.320949 126.031604 
L 605.449996 124.334545 
L 604.423745 122.374071 
L 604.360474 122.257678 
L 603.306656 120.413597 
L 602.4 118.857319 
L 602.151824 118.453123 
L 600.910756 116.492648 
L 600.439526 115.76651 
L 599.592574 114.532174 
L 598.479051 112.944556 
L 598.201549 112.5717 
L 596.703252 110.611225 
L 596.518577 110.37593 
L 595.075259 108.650751 
L 594.558103 108.047228 
L 593.312273 106.690277 
L 592.597628 105.931376 
L 591.377752 104.729802 
L 590.637154 104.019493 
L 589.221209 102.769328 
L 588.67668 102.301738 
L 586.770411 100.808854 
L 586.716206 100.767611 
L 584.755731 99.431524 
L 583.79185 98.848379 
L 582.795257 98.264443 
L 580.834783 97.268495 
L 579.944827 96.887905 
L 578.874308 96.445766 
L 576.913834 95.792883 
L 574.95336 95.298667 
L 572.992885 94.966987 
L 572.526517 94.927431 
L 571.032411 94.805789 
L 569.071937 94.805789 
L 567.577831 94.927431 
L 567.111462 94.966987 
L 565.150988 95.298667 
L 563.190514 95.792883 
L 561.23004 96.445766 
L 560.15952 96.887905 
L 559.269565 97.268495 
L 557.309091 98.264443 
L 556.312498 98.848379 
L 555.348617 99.431524 
L 553.388142 100.767611 
L 553.333937 100.808854 
L 551.427668 102.301738 
L 550.883138 102.769328 
L 549.467194 104.019493 
L 548.726596 104.729802 
L 547.506719 105.931376 
L 546.792075 106.690277 
L 545.546245 108.047228 
L 545.029089 108.650751 
L 543.585771 110.37593 
L 543.401096 110.611225 
L 541.902799 112.5717 
L 541.625296 112.944556 
L 540.511774 114.532174 
L 539.664822 115.76651 
L 539.193592 116.492648 
L 537.952524 118.453123 
L 537.704348 118.857319 
L 536.797692 120.413597 
L 535.743874 122.257678 
L 535.680602 122.374071 
L 534.654352 124.334545 
L 533.783399 126.031604 
L 533.654506 126.29502 
L 532.733331 128.255494 
L 531.831151 130.215968 
L 531.822925 130.234757 
L 531.010751 132.176443 
L 530.212623 134.136917 
L 529.862451 135.036813 
L 529.467534 136.097391 
L 528.771338 138.057866 
L 528.102093 140.01834 
L 527.901976 140.644109 
L 527.492972 141.978814 
L 526.928511 143.939289 
L 526.397759 145.899763 
L 525.941502 147.715593 
L 525.906639 147.860237 
L 525.48605 149.820711 
L 525.107958 151.781186 
L 524.776783 153.74166 
L 524.497579 155.702134 
L 524.276153 157.662609 
L 524.11921 159.623083 
L 524.034537 161.583557 
L 524.031224 163.544032 
L 524.119954 165.504506 
L 524.313366 167.46498 
L 524.626522 169.425455 
L 525.077523 171.385929 
L 525.688308 173.346403 
L 525.941502 173.992266 
L 526.541009 175.306877 
L 527.667127 177.267352 
L 527.901976 177.608432 
L 529.225238 179.227826 
L 529.862451 179.883416 
L 531.393056 181.1883 
L 531.822925 181.505371 
L 533.783399 182.703946 
L 534.67688 183.148775 
L 535.743874 183.622305 
L 537.704348 184.333032 
L 539.664822 184.901209 
L 540.547213 185.109249 
L 541.625296 185.341766 
z
" clip-path="url(#p3dbf116a80)" style="fill: none; stroke: #ffff17; stroke-opacity: 0.8; stroke-width: 3"/>
   </g>
   <g id="PathCollection_15">
    <path d="M 553.388142 175.563128 
L 555.348617 175.874174 
L 557.309091 176.127025 
L 559.269565 176.330104 
L 561.23004 176.490106 
L 563.190514 176.612272 
L 565.150988 176.700583 
L 567.111462 176.757912 
L 569.071937 176.786119 
L 571.032411 176.786119 
L 572.992885 176.757912 
L 574.95336 176.700583 
L 576.913834 176.612272 
L 578.874308 176.490106 
L 580.834783 176.330104 
L 582.795257 176.127025 
L 584.755731 175.874174 
L 586.716206 175.563128 
L 588.048594 175.306877 
L 588.67668 175.175294 
L 590.637154 174.682512 
L 592.597628 174.08293 
L 594.558103 173.353539 
L 594.574459 173.346403 
L 596.518577 172.39407 
L 598.204526 171.385929 
L 598.479051 171.198076 
L 600.439526 169.596571 
L 600.616303 169.425455 
L 602.321143 167.46498 
L 602.4 167.355334 
L 603.536799 165.504506 
L 604.360474 163.78051 
L 604.457937 163.544032 
L 605.092019 161.583557 
L 605.543493 159.623083 
L 605.836486 157.662609 
L 605.991053 155.702134 
L 606.024002 153.74166 
L 605.949526 151.781186 
L 605.779692 149.820711 
L 605.524825 147.860237 
L 605.193811 145.899763 
L 604.794341 143.939289 
L 604.360474 142.098835 
L 604.330809 141.978814 
L 603.770757 140.01834 
L 603.156513 138.057866 
L 602.493005 136.097391 
L 602.4 135.846615 
L 601.733036 134.136917 
L 600.921616 132.176443 
L 600.439526 131.080105 
L 600.038574 130.215968 
L 599.075041 128.255494 
L 598.479051 127.099154 
L 598.040079 126.29502 
L 596.917157 124.334545 
L 596.518577 123.66969 
L 595.692227 122.374071 
L 594.558103 120.660524 
L 594.383355 120.413597 
L 592.932437 118.453123 
L 592.597628 118.018059 
L 591.334324 116.492648 
L 590.637154 115.681735 
L 589.565582 114.532174 
L 588.67668 113.614706 
L 587.570823 112.5717 
L 586.716206 111.796995 
L 585.267916 110.611225 
L 584.755731 110.208532 
L 582.795257 108.840298 
L 582.482423 108.650751 
L 580.834783 107.695615 
L 578.874308 106.731433 
L 578.77052 106.690277 
L 576.913834 105.988032 
L 574.95336 105.425312 
L 572.992885 105.046835 
L 571.032411 104.856584 
L 569.071937 104.856584 
L 567.111462 105.046835 
L 565.150988 105.425312 
L 563.190514 105.988032 
L 561.333828 106.690277 
L 561.23004 106.731433 
L 559.269565 107.695615 
L 557.621925 108.650751 
L 557.309091 108.840298 
L 555.348617 110.208532 
L 554.836432 110.611225 
L 553.388142 111.796995 
L 552.533525 112.5717 
L 551.427668 113.614706 
L 550.538765 114.532174 
L 549.467194 115.681735 
L 548.770024 116.492648 
L 547.506719 118.018059 
L 547.171911 118.453123 
L 545.720993 120.413597 
L 545.546245 120.660524 
L 544.412121 122.374071 
L 543.585771 123.66969 
L 543.187191 124.334545 
L 542.064269 126.29502 
L 541.625296 127.099154 
L 541.029307 128.255494 
L 540.065774 130.215968 
L 539.664822 131.080105 
L 539.182732 132.176443 
L 538.371312 134.136917 
L 537.704348 135.846615 
L 537.611343 136.097391 
L 536.947834 138.057866 
L 536.333591 140.01834 
L 535.773539 141.978814 
L 535.743874 142.098835 
L 535.310007 143.939289 
L 534.910537 145.899763 
L 534.579523 147.860237 
L 534.324656 149.820711 
L 534.154822 151.781186 
L 534.080346 153.74166 
L 534.113295 155.702134 
L 534.267861 157.662609 
L 534.560855 159.623083 
L 535.012329 161.583557 
L 535.646411 163.544032 
L 535.743874 163.78051 
L 536.567549 165.504506 
L 537.704348 167.355334 
L 537.783205 167.46498 
L 539.488044 169.425455 
L 539.664822 169.596571 
L 541.625296 171.198076 
L 541.899822 171.385929 
L 543.585771 172.39407 
L 545.529889 173.346403 
L 545.546245 173.353539 
L 547.506719 174.08293 
L 549.467194 174.682512 
L 551.427668 175.175294 
L 552.055754 175.306877 
L 553.388142 175.563128 
z
" clip-path="url(#p3dbf116a80)" style="fill: none; stroke: #ff5900; stroke-opacity: 0.8; stroke-width: 3"/>
   </g>
   <g id="PathCollection_16">
    <path d="M 557.309091 165.799702 
L 559.269565 166.284691 
L 561.23004 166.667749 
L 563.190514 166.961037 
L 565.150988 167.173614 
L 567.111462 167.311911 
L 569.071937 167.380053 
L 571.032411 167.380053 
L 572.992885 167.311911 
L 574.95336 167.173614 
L 576.913834 166.961037 
L 578.874308 166.667749 
L 580.834783 166.284691 
L 582.795257 165.799702 
L 583.766686 165.504506 
L 584.755731 165.16877 
L 586.716206 164.356829 
L 588.322498 163.544032 
L 588.67668 163.338451 
L 590.637154 161.972802 
L 591.104779 161.583557 
L 592.597628 160.099096 
L 593.000872 159.623083 
L 594.341385 157.662609 
L 594.558103 157.256745 
L 595.268308 155.702134 
L 595.916503 153.74166 
L 596.341942 151.781186 
L 596.518577 150.297753 
L 596.567943 149.820711 
L 596.62281 147.860237 
L 596.540792 145.899763 
L 596.518577 145.693072 
L 596.319053 143.939289 
L 595.975983 141.978814 
L 595.526308 140.01834 
L 594.980841 138.057866 
L 594.558103 136.760749 
L 594.327749 136.097391 
L 593.546153 134.136917 
L 592.687217 132.176443 
L 592.597628 131.992614 
L 591.668572 130.215968 
L 590.637154 128.378298 
L 590.562652 128.255494 
L 589.268299 126.29502 
L 588.67668 125.455235 
L 587.814977 124.334545 
L 586.716206 122.993264 
L 586.156129 122.374071 
L 584.755731 120.920748 
L 584.208005 120.413597 
L 582.795257 119.185279 
L 581.832459 118.453123 
L 580.834783 117.74036 
L 578.874308 116.549496 
L 578.758745 116.492648 
L 576.913834 115.642952 
L 574.95336 114.95414 
L 573.173815 114.532174 
L 572.992885 114.492098 
L 571.032411 114.274576 
L 569.071937 114.274576 
L 567.111462 114.492098 
L 566.930533 114.532174 
L 565.150988 114.95414 
L 563.190514 115.642952 
L 561.345603 116.492648 
L 561.23004 116.549496 
L 559.269565 117.74036 
L 558.271889 118.453123 
L 557.309091 119.185279 
L 555.896343 120.413597 
L 555.348617 120.920748 
L 553.948219 122.374071 
L 553.388142 122.993264 
L 552.289371 124.334545 
L 551.427668 125.455235 
L 550.836049 126.29502 
L 549.541696 128.255494 
L 549.467194 128.378298 
L 548.435776 130.215968 
L 547.506719 131.992614 
L 547.41713 132.176443 
L 546.558195 134.136917 
L 545.776598 136.097391 
L 545.546245 136.760749 
L 545.123507 138.057866 
L 544.57804 140.01834 
L 544.128365 141.978814 
L 543.785295 143.939289 
L 543.585771 145.693072 
L 543.563556 145.899763 
L 543.481538 147.860237 
L 543.536405 149.820711 
L 543.585771 150.297753 
L 543.762406 151.781186 
L 544.187845 153.74166 
L 544.83604 155.702134 
L 545.546245 157.256745 
L 545.762963 157.662609 
L 547.103475 159.623083 
L 547.506719 160.099096 
L 548.999569 161.583557 
L 549.467194 161.972802 
L 551.427668 163.338451 
L 551.78185 163.544032 
L 553.388142 164.356829 
L 555.348617 165.16877 
L 556.337661 165.504506 
L 557.309091 165.799702 
z
" clip-path="url(#p3dbf116a80)" style="fill: none; stroke: #d70000; stroke-opacity: 0.8; stroke-width: 3"/>
   </g>
   <g id="PathCollection_17">
    <path d="M 567.111462 155.949314 
L 569.071937 156.116335 
L 571.032411 156.116335 
L 572.992885 155.949314 
L 574.420701 155.702134 
L 574.95336 155.595618 
L 576.913834 154.991754 
L 578.874308 154.145835 
L 579.590772 153.74166 
L 580.834783 152.886025 
L 582.091128 151.781186 
L 582.795257 150.980533 
L 583.617351 149.820711 
L 584.594184 147.860237 
L 584.755731 147.343174 
L 585.128407 145.899763 
L 585.350621 143.939289 
L 585.317096 141.978814 
L 585.056834 140.01834 
L 584.755731 138.757855 
L 584.569537 138.057866 
L 583.826968 136.097391 
L 582.897561 134.136917 
L 582.795257 133.959709 
L 581.623811 132.176443 
L 580.834783 131.140246 
L 580.011637 130.215968 
L 578.874308 129.100272 
L 577.825835 128.255494 
L 576.913834 127.606792 
L 574.95336 126.536506 
L 574.301543 126.29502 
L 572.992885 125.86623 
L 571.032411 125.541826 
L 569.071937 125.541826 
L 567.111462 125.86623 
L 565.802805 126.29502 
L 565.150988 126.536506 
L 563.190514 127.606792 
L 562.278513 128.255494 
L 561.23004 129.100272 
L 560.092711 130.215968 
L 559.269565 131.140246 
L 558.480537 132.176443 
L 557.309091 133.959709 
L 557.206787 134.136917 
L 556.27738 136.097391 
L 555.534811 138.057866 
L 555.348617 138.757855 
L 555.047514 140.01834 
L 554.787252 141.978814 
L 554.753727 143.939289 
L 554.975941 145.899763 
L 555.348617 147.343174 
L 555.510164 147.860237 
L 556.486997 149.820711 
L 557.309091 150.980533 
L 558.01322 151.781186 
L 559.269565 152.886025 
L 560.513576 153.74166 
L 561.23004 154.145835 
L 563.190514 154.991754 
L 565.150988 155.595618 
L 565.683647 155.702134 
L 567.111462 155.949314 
z
" clip-path="url(#p3dbf116a80)" style="fill: none; stroke: #710000; stroke-opacity: 0.8; stroke-width: 3"/>
   </g>
   <g id="PathCollection_18"/>
   <g id="patch_91">
    <path d="M 473.008696 243.923478 
L 473.008696 49.836522 
" style="fill: none; stroke: #000000; stroke-width: 0.8; stroke-linejoin: miter; stroke-linecap: square"/>
   </g>
   <g id="patch_92">
    <path d="M 667.095652 243.923478 
L 667.095652 49.836522 
" style="fill: none; stroke: #000000; stroke-width: 0.8; stroke-linejoin: miter; stroke-linecap: square"/>
   </g>
   <g id="patch_93">
    <path d="M 473.008696 243.923478 
L 667.095652 243.923478 
" style="fill: none; stroke: #000000; stroke-width: 0.8; stroke-linejoin: miter; stroke-linecap: square"/>
   </g>
   <g id="patch_94">
    <path d="M 473.008696 49.836522 
L 667.095652 49.836522 
" style="fill: none; stroke: #000000; stroke-width: 0.8; stroke-linejoin: miter; stroke-linecap: square"/>
   </g>
   <g id="text_3">
    <!-- Level set 3 -->
    <g transform="translate(537.411236 43.836522) scale(0.12 -0.12)">
     <defs>
      <path id="DejaVuSans-33" d="M 2597 2516 
Q 3050 2419 3304 2112 
Q 3559 1806 3559 1356 
Q 3559 666 3084 287 
Q 2609 -91 1734 -91 
Q 1441 -91 1130 -33 
Q 819 25 488 141 
L 488 750 
Q 750 597 1062 519 
Q 1375 441 1716 441 
Q 2309 441 2620 675 
Q 2931 909 2931 1356 
Q 2931 1769 2642 2001 
Q 2353 2234 1838 2234 
L 1294 2234 
L 1294 2753 
L 1863 2753 
Q 2328 2753 2575 2939 
Q 2822 3125 2822 3475 
Q 2822 3834 2567 4026 
Q 2313 4219 1838 4219 
Q 1578 4219 1281 4162 
Q 984 4106 628 3988 
L 628 4550 
Q 988 4650 1302 4700 
Q 1616 4750 1894 4750 
Q 2613 4750 3031 4423 
Q 3450 4097 3450 3541 
Q 3450 3153 3228 2886 
Q 3006 2619 2597 2516 
z
" transform="scale(0.015625)"/>
     </defs>
     <use xlink:href="#DejaVuSans-4c"/>
     <use xlink:href="#DejaVuSans-65" x="53.962891"/>
     <use xlink:href="#DejaVuSans-76" x="115.486328"/>
     <use xlink:href="#DejaVuSans-65" x="174.666016"/>
     <use xlink:href="#DejaVuSans-6c" x="236.189453"/>
     <use xlink:href="#DejaVuSans-20" x="263.972656"/>
     <use xlink:href="#DejaVuSans-73" x="295.759766"/>
     <use xlink:href="#DejaVuSans-65" x="347.859375"/>
     <use xlink:href="#DejaVuSans-74" x="409.382812"/>
     <use xlink:href="#DejaVuSans-20" x="448.591797"/>
     <use xlink:href="#DejaVuSans-33" x="480.378906"/>
    </g>
   </g>
  </g>
  <g id="axes_4">
   <g id="patch_95">
    <path d="M 705.913043 243.923478 
L 900 243.923478 
L 900 49.836522 
L 705.913043 49.836522 
z
" style="fill: #ffffff"/>
   </g>
   <g id="patch_96">
    <path d="M 802.956522 80.162609 
L 705.913043 80.162609 
L 705.913043 68.032174 
L 802.956522 68.032174 
z
" clip-path="url(#p6a1c220521)" style="fill: #808080; stroke: #000000; stroke-width: 2; stroke-linejoin: miter"/>
   </g>
   <g id="patch_97">
    <path d="M 802.956522 225.727826 
L 900 225.727826 
L 900 213.597391 
L 802.956522 213.597391 
z
" clip-path="url(#p6a1c220521)" style="fill: #808080; stroke: #000000; stroke-width: 2; stroke-linejoin: miter"/>
   </g>
   <g id="patch_98">
    <path d="M 802.956522 92.293043 
L 705.913043 92.293043 
L 705.913043 80.162609 
L 802.956522 80.162609 
z
" clip-path="url(#p6a1c220521)" style="fill: #808080; stroke: #000000; stroke-width: 2; stroke-linejoin: miter"/>
   </g>
   <g id="patch_99">
    <path d="M 802.956522 213.597391 
L 900 213.597391 
L 900 201.466957 
L 802.956522 201.466957 
z
" clip-path="url(#p6a1c220521)" style="fill: #808080; stroke: #000000; stroke-width: 2; stroke-linejoin: miter"/>
   </g>
   <g id="patch_100">
    <path d="M 802.956522 104.423478 
L 705.913043 104.423478 
L 705.913043 92.293043 
L 802.956522 92.293043 
z
" clip-path="url(#p6a1c220521)" style="fill: #808080; stroke: #000000; stroke-width: 2; stroke-linejoin: miter"/>
   </g>
   <g id="patch_101">
    <path d="M 802.956522 201.466957 
L 900 201.466957 
L 900 189.336522 
L 802.956522 189.336522 
z
" clip-path="url(#p6a1c220521)" style="fill: #808080; stroke: #000000; stroke-width: 2; stroke-linejoin: miter"/>
   </g>
   <g id="patch_102">
    <path d="M 802.956522 116.553913 
L 705.913043 116.553913 
L 705.913043 104.423478 
L 802.956522 104.423478 
z
" clip-path="url(#p6a1c220521)" style="fill: #808080; stroke: #000000; stroke-width: 2; stroke-linejoin: miter"/>
   </g>
   <g id="patch_103">
    <path d="M 802.956522 189.336522 
L 900 189.336522 
L 900 177.206087 
L 802.956522 177.206087 
z
" clip-path="url(#p6a1c220521)" style="fill: #808080; stroke: #000000; stroke-width: 2; stroke-linejoin: miter"/>
   </g>
   <g id="patch_104">
    <path d="M 802.956522 128.684348 
L 705.913043 128.684348 
L 705.913043 116.553913 
L 802.956522 116.553913 
z
" clip-path="url(#p6a1c220521)" style="fill: #808080; stroke: #000000; stroke-width: 2; stroke-linejoin: miter"/>
   </g>
   <g id="patch_105">
    <path d="M 802.956522 177.206087 
L 900 177.206087 
L 900 165.075652 
L 802.956522 165.075652 
z
" clip-path="url(#p6a1c220521)" style="fill: #808080; stroke: #000000; stroke-width: 2; stroke-linejoin: miter"/>
   </g>
   <g id="patch_106">
    <path d="M 789.370435 140.814783 
L 692.326957 140.814783 
L 692.326957 128.684348 
L 789.370435 128.684348 
z
" clip-path="url(#p6a1c220521)" style="fill: #808080; stroke: #000000; stroke-width: 2; stroke-linejoin: miter"/>
   </g>
   <g id="patch_107">
    <path d="M 802.956522 165.075652 
L 900 165.075652 
L 900 152.945217 
L 802.956522 152.945217 
z
" clip-path="url(#p6a1c220521)" style="fill: #808080; stroke: #000000; stroke-width: 2; stroke-linejoin: miter"/>
   </g>
   <g id="patch_108">
    <path d="M 787.914783 152.945217 
L 690.871304 152.945217 
L 690.871304 140.814783 
L 787.914783 140.814783 
z
" clip-path="url(#p6a1c220521)" style="fill: #808080; stroke: #000000; stroke-width: 2; stroke-linejoin: miter"/>
   </g>
   <g id="patch_109">
    <path d="M 817.998261 152.945217 
L 915.041739 152.945217 
L 915.041739 140.814783 
L 817.998261 140.814783 
z
" clip-path="url(#p6a1c220521)" style="fill: #808080; stroke: #000000; stroke-width: 2; stroke-linejoin: miter"/>
   </g>
   <g id="patch_110">
    <path d="M 802.956522 165.075652 
L 705.913043 165.075652 
L 705.913043 152.945217 
L 802.956522 152.945217 
z
" clip-path="url(#p6a1c220521)" style="fill: #808080; stroke: #000000; stroke-width: 2; stroke-linejoin: miter"/>
   </g>
   <g id="patch_111">
    <path d="M 816.542609 140.814783 
L 913.586087 140.814783 
L 913.586087 128.684348 
L 816.542609 128.684348 
z
" clip-path="url(#p6a1c220521)" style="fill: #808080; stroke: #000000; stroke-width: 2; stroke-linejoin: miter"/>
   </g>
   <g id="patch_112">
    <path d="M 802.956522 177.206087 
L 705.913043 177.206087 
L 705.913043 165.075652 
L 802.956522 165.075652 
z
" clip-path="url(#p6a1c220521)" style="fill: #808080; stroke: #000000; stroke-width: 2; stroke-linejoin: miter"/>
   </g>
   <g id="patch_113">
    <path d="M 802.956522 128.684348 
L 900 128.684348 
L 900 116.553913 
L 802.956522 116.553913 
z
" clip-path="url(#p6a1c220521)" style="fill: #808080; stroke: #000000; stroke-width: 2; stroke-linejoin: miter"/>
   </g>
   <g id="patch_114">
    <path d="M 802.956522 189.336522 
L 705.913043 189.336522 
L 705.913043 177.206087 
L 802.956522 177.206087 
z
" clip-path="url(#p6a1c220521)" style="fill: #808080; stroke: #000000; stroke-width: 2; stroke-linejoin: miter"/>
   </g>
   <g id="patch_115">
    <path d="M 802.956522 116.553913 
L 900 116.553913 
L 900 104.423478 
L 802.956522 104.423478 
z
" clip-path="url(#p6a1c220521)" style="fill: #808080; stroke: #000000; stroke-width: 2; stroke-linejoin: miter"/>
   </g>
   <g id="patch_116">
    <path d="M 802.956522 201.466957 
L 705.913043 201.466957 
L 705.913043 189.336522 
L 802.956522 189.336522 
z
" clip-path="url(#p6a1c220521)" style="fill: #808080; stroke: #000000; stroke-width: 2; stroke-linejoin: miter"/>
   </g>
   <g id="patch_117">
    <path d="M 802.956522 104.423478 
L 900 104.423478 
L 900 92.293043 
L 802.956522 92.293043 
z
" clip-path="url(#p6a1c220521)" style="fill: #808080; stroke: #000000; stroke-width: 2; stroke-linejoin: miter"/>
   </g>
   <g id="patch_118">
    <path d="M 802.956522 213.597391 
L 705.913043 213.597391 
L 705.913043 201.466957 
L 802.956522 201.466957 
z
" clip-path="url(#p6a1c220521)" style="fill: #808080; stroke: #000000; stroke-width: 2; stroke-linejoin: miter"/>
   </g>
   <g id="patch_119">
    <path d="M 802.956522 92.293043 
L 900 92.293043 
L 900 80.162609 
L 802.956522 80.162609 
z
" clip-path="url(#p6a1c220521)" style="fill: #808080; stroke: #000000; stroke-width: 2; stroke-linejoin: miter"/>
   </g>
   <g id="patch_120">
    <path d="M 802.956522 225.727826 
L 705.913043 225.727826 
L 705.913043 213.597391 
L 802.956522 213.597391 
z
" clip-path="url(#p6a1c220521)" style="fill: #808080; stroke: #000000; stroke-width: 2; stroke-linejoin: miter"/>
   </g>
   <g id="patch_121">
    <path d="M 802.956522 80.162609 
L 900 80.162609 
L 900 68.032174 
L 802.956522 68.032174 
z
" clip-path="url(#p6a1c220521)" style="fill: #808080; stroke: #000000; stroke-width: 2; stroke-linejoin: miter"/>
   </g>
   <g id="matplotlib.axis_7"/>
   <g id="matplotlib.axis_8"/>
   <g id="PathCollection_19"/>
   <g id="PathCollection_20">
    <path d="M 774.529644 185.341766 
L 776.490119 185.684662 
L 778.450593 185.957471 
L 780.411067 186.173332 
L 782.371542 186.34299 
L 784.332016 186.475273 
L 786.29249 186.577455 
L 788.252964 186.65553 
L 790.213439 186.71443 
L 792.173913 186.758184 
L 794.134387 186.790052 
L 796.094862 186.812618 
L 798.055336 186.827872 
L 800.01581 186.837257 
L 801.976285 186.841718 
L 803.936759 186.841718 
L 805.897233 186.837257 
L 807.857708 186.827872 
L 809.818182 186.812618 
L 811.778656 186.790052 
L 813.73913 186.758184 
L 815.699605 186.71443 
L 817.660079 186.65553 
L 819.620553 186.577455 
L 821.581028 186.475273 
L 823.541502 186.34299 
L 825.501976 186.173332 
L 827.462451 185.957471 
L 829.422925 185.684662 
L 831.383399 185.341766 
L 832.461483 185.109249 
L 833.343874 184.901209 
L 835.304348 184.333032 
L 837.264822 183.622305 
L 838.331816 183.148775 
L 839.225296 182.703946 
L 841.185771 181.505371 
L 841.61564 181.1883 
L 843.146245 179.883416 
L 843.783457 179.227826 
L 845.106719 177.608432 
L 845.341569 177.267352 
L 846.467687 175.306877 
L 847.067194 173.992266 
L 847.320387 173.346403 
L 847.931172 171.385929 
L 848.382173 169.425455 
L 848.69533 167.46498 
L 848.888741 165.504506 
L 848.977471 163.544032 
L 848.974158 161.583557 
L 848.889485 159.623083 
L 848.732543 157.662609 
L 848.511116 155.702134 
L 848.231912 153.74166 
L 847.900737 151.781186 
L 847.522646 149.820711 
L 847.102057 147.860237 
L 847.067194 147.715593 
L 846.610937 145.899763 
L 846.080184 143.939289 
L 845.515723 141.978814 
L 845.106719 140.644109 
L 844.906603 140.01834 
L 844.237357 138.057866 
L 843.541162 136.097391 
L 843.146245 135.036813 
L 842.796072 134.136917 
L 841.997945 132.176443 
L 841.185771 130.234757 
L 841.177545 130.215968 
L 840.275365 128.255494 
L 839.35419 126.29502 
L 839.225296 126.031604 
L 838.354344 124.334545 
L 837.328093 122.374071 
L 837.264822 122.257678 
L 836.211003 120.413597 
L 835.304348 118.857319 
L 835.056172 118.453123 
L 833.815104 116.492648 
L 833.343874 115.76651 
L 832.496922 114.532174 
L 831.383399 112.944556 
L 831.105897 112.5717 
L 829.6076 110.611225 
L 829.422925 110.37593 
L 827.979607 108.650751 
L 827.462451 108.047228 
L 826.216621 106.690277 
L 825.501976 105.931376 
L 824.2821 104.729802 
L 823.541502 104.019493 
L 822.125557 102.769328 
L 821.581028 102.301738 
L 819.674759 100.808854 
L 819.620553 100.767611 
L 817.660079 99.431524 
L 816.696198 98.848379 
L 815.699605 98.264443 
L 813.73913 97.268495 
L 812.849175 96.887905 
L 811.778656 96.445766 
L 809.818182 95.792883 
L 807.857708 95.298667 
L 805.897233 94.966987 
L 805.430865 94.927431 
L 803.936759 94.805789 
L 801.976285 94.805789 
L 800.482179 94.927431 
L 800.01581 94.966987 
L 798.055336 95.298667 
L 796.094862 95.792883 
L 794.134387 96.445766 
L 793.063868 96.887905 
L 792.173913 97.268495 
L 790.213439 98.264443 
L 789.216846 98.848379 
L 788.252964 99.431524 
L 786.29249 100.767611 
L 786.238285 100.808854 
L 784.332016 102.301738 
L 783.787486 102.769328 
L 782.371542 104.019493 
L 781.630944 104.729802 
L 780.411067 105.931376 
L 779.696423 106.690277 
L 778.450593 108.047228 
L 777.933436 108.650751 
L 776.490119 110.37593 
L 776.305444 110.611225 
L 774.807147 112.5717 
L 774.529644 112.944556 
L 773.416121 114.532174 
L 772.56917 115.76651 
L 772.09794 116.492648 
L 770.856872 118.453123 
L 770.608696 118.857319 
L 769.70204 120.413597 
L 768.648221 122.257678 
L 768.58495 122.374071 
L 767.5587 124.334545 
L 766.687747 126.031604 
L 766.558854 126.29502 
L 765.637679 128.255494 
L 764.735498 130.215968 
L 764.727273 130.234757 
L 763.915099 132.176443 
L 763.116971 134.136917 
L 762.766798 135.036813 
L 762.371881 136.097391 
L 761.675686 138.057866 
L 761.00644 140.01834 
L 760.806324 140.644109 
L 760.39732 141.978814 
L 759.832859 143.939289 
L 759.302107 145.899763 
L 758.84585 147.715593 
L 758.810987 147.860237 
L 758.390398 149.820711 
L 758.012306 151.781186 
L 757.681131 153.74166 
L 757.401927 155.702134 
L 757.180501 157.662609 
L 757.023558 159.623083 
L 756.938885 161.583557 
L 756.935572 163.544032 
L 757.024302 165.504506 
L 757.217714 167.46498 
L 757.53087 169.425455 
L 757.981871 171.385929 
L 758.592656 173.346403 
L 758.84585 173.992266 
L 759.445356 175.306877 
L 760.571475 177.267352 
L 760.806324 177.608432 
L 762.129586 179.227826 
L 762.766798 179.883416 
L 764.297403 181.1883 
L 764.727273 181.505371 
L 766.687747 182.703946 
L 767.581228 183.148775 
L 768.648221 183.622305 
L 770.608696 184.333032 
L 772.56917 184.901209 
L 773.451561 185.109249 
L 774.529644 185.341766 
z
" clip-path="url(#p6a1c220521)" style="fill: none; stroke: #ffff17; stroke-opacity: 0.8; stroke-width: 3"/>
   </g>
   <g id="PathCollection_21">
    <path d="M 786.29249 175.563128 
L 788.252964 175.874174 
L 790.213439 176.127025 
L 792.173913 176.330104 
L 794.134387 176.490106 
L 796.094862 176.612272 
L 798.055336 176.700583 
L 800.01581 176.757912 
L 801.976285 176.786119 
L 803.936759 176.786119 
L 805.897233 176.757912 
L 807.857708 176.700583 
L 809.818182 176.612272 
L 811.778656 176.490106 
L 813.73913 176.330104 
L 815.699605 176.127025 
L 817.660079 175.874174 
L 819.620553 175.563128 
L 820.952942 175.306877 
L 821.581028 175.175294 
L 823.541502 174.682512 
L 825.501976 174.08293 
L 827.462451 173.353539 
L 827.478807 173.346403 
L 829.422925 172.39407 
L 831.108873 171.385929 
L 831.383399 171.198076 
L 833.343874 169.596571 
L 833.520651 169.425455 
L 835.225491 167.46498 
L 835.304348 167.355334 
L 836.441147 165.504506 
L 837.264822 163.78051 
L 837.362284 163.544032 
L 837.996367 161.583557 
L 838.447841 159.623083 
L 838.740834 157.662609 
L 838.895401 155.702134 
L 838.92835 153.74166 
L 838.853873 151.781186 
L 838.684039 149.820711 
L 838.429172 147.860237 
L 838.098159 145.899763 
L 837.698689 143.939289 
L 837.264822 142.098835 
L 837.235157 141.978814 
L 836.675105 140.01834 
L 836.060861 138.057866 
L 835.397352 136.097391 
L 835.304348 135.846615 
L 834.637384 134.136917 
L 833.825963 132.176443 
L 833.343874 131.080105 
L 832.942921 130.215968 
L 831.979389 128.255494 
L 831.383399 127.099154 
L 830.944427 126.29502 
L 829.821505 124.334545 
L 829.422925 123.66969 
L 828.596575 122.374071 
L 827.462451 120.660524 
L 827.287703 120.413597 
L 825.836784 118.453123 
L 825.501976 118.018059 
L 824.238672 116.492648 
L 823.541502 115.681735 
L 822.46993 114.532174 
L 821.581028 113.614706 
L 820.475171 112.5717 
L 819.620553 111.796995 
L 818.172264 110.611225 
L 817.660079 110.208532 
L 815.699605 108.840298 
L 815.386771 108.650751 
L 813.73913 107.695615 
L 811.778656 106.731433 
L 811.674868 106.690277 
L 809.818182 105.988032 
L 807.857708 105.425312 
L 805.897233 105.046835 
L 803.936759 104.856584 
L 801.976285 104.856584 
L 800.01581 105.046835 
L 798.055336 105.425312 
L 796.094862 105.988032 
L 794.238176 106.690277 
L 794.134387 106.731433 
L 792.173913 107.695615 
L 790.526273 108.650751 
L 790.213439 108.840298 
L 788.252964 110.208532 
L 787.74078 110.611225 
L 786.29249 111.796995 
L 785.437873 112.5717 
L 784.332016 113.614706 
L 783.443113 114.532174 
L 782.371542 115.681735 
L 781.674372 116.492648 
L 780.411067 118.018059 
L 780.076259 118.453123 
L 778.625341 120.413597 
L 778.450593 120.660524 
L 777.316469 122.374071 
L 776.490119 123.66969 
L 776.091539 124.334545 
L 774.968617 126.29502 
L 774.529644 127.099154 
L 773.933654 128.255494 
L 772.970122 130.215968 
L 772.56917 131.080105 
L 772.08708 132.176443 
L 771.27566 134.136917 
L 770.608696 135.846615 
L 770.515691 136.097391 
L 769.852182 138.057866 
L 769.237939 140.01834 
L 768.677887 141.978814 
L 768.648221 142.098835 
L 768.214355 143.939289 
L 767.814885 145.899763 
L 767.483871 147.860237 
L 767.229004 149.820711 
L 767.05917 151.781186 
L 766.984694 153.74166 
L 767.017643 155.702134 
L 767.172209 157.662609 
L 767.465202 159.623083 
L 767.916677 161.583557 
L 768.550759 163.544032 
L 768.648221 163.78051 
L 769.471897 165.504506 
L 770.608696 167.355334 
L 770.687552 167.46498 
L 772.392392 169.425455 
L 772.56917 169.596571 
L 774.529644 171.198076 
L 774.80417 171.385929 
L 776.490119 172.39407 
L 778.434237 173.346403 
L 778.450593 173.353539 
L 780.411067 174.08293 
L 782.371542 174.682512 
L 784.332016 175.175294 
L 784.960102 175.306877 
L 786.29249 175.563128 
z
" clip-path="url(#p6a1c220521)" style="fill: none; stroke: #ff5900; stroke-opacity: 0.8; stroke-width: 3"/>
   </g>
   <g id="PathCollection_22">
    <path d="M 790.213439 165.799702 
L 792.173913 166.284691 
L 794.134387 166.667749 
L 796.094862 166.961037 
L 798.055336 167.173614 
L 800.01581 167.311911 
L 801.976285 167.380053 
L 803.936759 167.380053 
L 805.897233 167.311911 
L 807.857708 167.173614 
L 809.818182 166.961037 
L 811.778656 166.667749 
L 813.73913 166.284691 
L 815.699605 165.799702 
L 816.671034 165.504506 
L 817.660079 165.16877 
L 819.620553 164.356829 
L 821.226846 163.544032 
L 821.581028 163.338451 
L 823.541502 161.972802 
L 824.009127 161.583557 
L 825.501976 160.099096 
L 825.90522 159.623083 
L 827.245733 157.662609 
L 827.462451 157.256745 
L 828.172655 155.702134 
L 828.820851 153.74166 
L 829.24629 151.781186 
L 829.422925 150.297753 
L 829.47229 149.820711 
L 829.527158 147.860237 
L 829.44514 145.899763 
L 829.422925 145.693072 
L 829.2234 143.939289 
L 828.880331 141.978814 
L 828.430656 140.01834 
L 827.885189 138.057866 
L 827.462451 136.760749 
L 827.232097 136.097391 
L 826.450501 134.136917 
L 825.591565 132.176443 
L 825.501976 131.992614 
L 824.57292 130.215968 
L 823.541502 128.378298 
L 823.467 128.255494 
L 822.172646 126.29502 
L 821.581028 125.455235 
L 820.719325 124.334545 
L 819.620553 122.993264 
L 819.060477 122.374071 
L 817.660079 120.920748 
L 817.112353 120.413597 
L 815.699605 119.185279 
L 814.736807 118.453123 
L 813.73913 117.74036 
L 811.778656 116.549496 
L 811.663092 116.492648 
L 809.818182 115.642952 
L 807.857708 114.95414 
L 806.078163 114.532174 
L 805.897233 114.492098 
L 803.936759 114.274576 
L 801.976285 114.274576 
L 800.01581 114.492098 
L 799.83488 114.532174 
L 798.055336 114.95414 
L 796.094862 115.642952 
L 794.249951 116.492648 
L 794.134387 116.549496 
L 792.173913 117.74036 
L 791.176237 118.453123 
L 790.213439 119.185279 
L 788.800691 120.413597 
L 788.252964 120.920748 
L 786.852567 122.374071 
L 786.29249 122.993264 
L 785.193719 124.334545 
L 784.332016 125.455235 
L 783.740397 126.29502 
L 782.446044 128.255494 
L 782.371542 128.378298 
L 781.340123 130.215968 
L 780.411067 131.992614 
L 780.321478 132.176443 
L 779.462543 134.136917 
L 778.680946 136.097391 
L 778.450593 136.760749 
L 778.027854 138.057866 
L 777.482387 140.01834 
L 777.032712 141.978814 
L 776.689643 143.939289 
L 776.490119 145.693072 
L 776.467903 145.899763 
L 776.385885 147.860237 
L 776.440753 149.820711 
L 776.490119 150.297753 
L 776.666754 151.781186 
L 777.092192 153.74166 
L 777.740388 155.702134 
L 778.450593 157.256745 
L 778.66731 157.662609 
L 780.007823 159.623083 
L 780.411067 160.099096 
L 781.903917 161.583557 
L 782.371542 161.972802 
L 784.332016 163.338451 
L 784.686198 163.544032 
L 786.29249 164.356829 
L 788.252964 165.16877 
L 789.242009 165.504506 
L 790.213439 165.799702 
z
" clip-path="url(#p6a1c220521)" style="fill: none; stroke: #d70000; stroke-opacity: 0.8; stroke-width: 3"/>
   </g>
   <g id="PathCollection_23">
    <path d="M 800.01581 155.949314 
L 801.976285 156.116335 
L 803.936759 156.116335 
L 805.897233 155.949314 
L 807.325048 155.702134 
L 807.857708 155.595618 
L 809.818182 154.991754 
L 811.778656 154.145835 
L 812.49512 153.74166 
L 813.73913 152.886025 
L 814.995476 151.781186 
L 815.699605 150.980533 
L 816.521698 149.820711 
L 817.498532 147.860237 
L 817.660079 147.343174 
L 818.032754 145.899763 
L 818.254969 143.939289 
L 818.221444 141.978814 
L 817.961181 140.01834 
L 817.660079 138.757855 
L 817.473885 138.057866 
L 816.731316 136.097391 
L 815.801909 134.136917 
L 815.699605 133.959709 
L 814.528159 132.176443 
L 813.73913 131.140246 
L 812.915985 130.215968 
L 811.778656 129.100272 
L 810.730183 128.255494 
L 809.818182 127.606792 
L 807.857708 126.536506 
L 807.205891 126.29502 
L 805.897233 125.86623 
L 803.936759 125.541826 
L 801.976285 125.541826 
L 800.01581 125.86623 
L 798.707152 126.29502 
L 798.055336 126.536506 
L 796.094862 127.606792 
L 795.18286 128.255494 
L 794.134387 129.100272 
L 792.997059 130.215968 
L 792.173913 131.140246 
L 791.384885 132.176443 
L 790.213439 133.959709 
L 790.111135 134.136917 
L 789.181728 136.097391 
L 788.439158 138.057866 
L 788.252964 138.757855 
L 787.951862 140.01834 
L 787.6916 141.978814 
L 787.658075 143.939289 
L 787.880289 145.899763 
L 788.252964 147.343174 
L 788.414512 147.860237 
L 789.391345 149.820711 
L 790.213439 150.980533 
L 790.917568 151.781186 
L 792.173913 152.886025 
L 793.417924 153.74166 
L 794.134387 154.145835 
L 796.094862 154.991754 
L 798.055336 155.595618 
L 798.587995 155.702134 
L 800.01581 155.949314 
z
" clip-path="url(#p6a1c220521)" style="fill: none; stroke: #710000; stroke-opacity: 0.8; stroke-width: 3"/>
   </g>
   <g id="PathCollection_24"/>
   <g id="patch_122">
    <path d="M 705.913043 243.923478 
L 705.913043 49.836522 
" style="fill: none; stroke: #000000; stroke-width: 0.8; stroke-linejoin: miter; stroke-linecap: square"/>
   </g>
   <g id="patch_123">
    <path d="M 900 243.923478 
L 900 49.836522 
" style="fill: none; stroke: #000000; stroke-width: 0.8; stroke-linejoin: miter; stroke-linecap: square"/>
   </g>
   <g id="patch_124">
    <path d="M 705.913043 243.923478 
L 900 243.923478 
" style="fill: none; stroke: #000000; stroke-width: 0.8; stroke-linejoin: miter; stroke-linecap: square"/>
   </g>
   <g id="patch_125">
    <path d="M 705.913043 49.836522 
L 900 49.836522 
" style="fill: none; stroke: #000000; stroke-width: 0.8; stroke-linejoin: miter; stroke-linecap: square"/>
   </g>
   <g id="text_4">
    <!-- Level set 4 -->
    <g transform="translate(770.315584 43.836522) scale(0.12 -0.12)">
     <defs>
      <path id="DejaVuSans-34" d="M 2419 4116 
L 825 1625 
L 2419 1625 
L 2419 4116 
z
M 2253 4666 
L 3047 4666 
L 3047 1625 
L 3713 1625 
L 3713 1100 
L 3047 1100 
L 3047 0 
L 2419 0 
L 2419 1100 
L 313 1100 
L 313 1709 
L 2253 4666 
z
" transform="scale(0.015625)"/>
     </defs>
     <use xlink:href="#DejaVuSans-4c"/>
     <use xlink:href="#DejaVuSans-65" x="53.962891"/>
     <use xlink:href="#DejaVuSans-76" x="115.486328"/>
     <use xlink:href="#DejaVuSans-65" x="174.666016"/>
     <use xlink:href="#DejaVuSans-6c" x="236.189453"/>
     <use xlink:href="#DejaVuSans-20" x="263.972656"/>
     <use xlink:href="#DejaVuSans-73" x="295.759766"/>
     <use xlink:href="#DejaVuSans-65" x="347.859375"/>
     <use xlink:href="#DejaVuSans-74" x="409.382812"/>
     <use xlink:href="#DejaVuSans-20" x="448.591797"/>
     <use xlink:href="#DejaVuSans-34" x="480.378906"/>
    </g>
   </g>
  </g>
  <g id="text_5">
   <!-- Leaves positions -->
   <g transform="translate(389.42625 16.318125) scale(0.12 -0.12)">
    <defs>
     <path id="DejaVuSans-61" d="M 2194 1759 
Q 1497 1759 1228 1600 
Q 959 1441 959 1056 
Q 959 750 1161 570 
Q 1363 391 1709 391 
Q 2188 391 2477 730 
Q 2766 1069 2766 1631 
L 2766 1759 
L 2194 1759 
z
M 3341 1997 
L 3341 0 
L 2766 0 
L 2766 531 
Q 2569 213 2275 61 
Q 1981 -91 1556 -91 
Q 1019 -91 701 211 
Q 384 513 384 1019 
Q 384 1609 779 1909 
Q 1175 2209 1959 2209 
L 2766 2209 
L 2766 2266 
Q 2766 2663 2505 2880 
Q 2244 3097 1772 3097 
Q 1472 3097 1187 3025 
Q 903 2953 641 2809 
L 641 3341 
Q 956 3463 1253 3523 
Q 1550 3584 1831 3584 
Q 2591 3584 2966 3190 
Q 3341 2797 3341 1997 
z
" transform="scale(0.015625)"/>
     <path id="DejaVuSans-70" d="M 1159 525 
L 1159 -1331 
L 581 -1331 
L 581 3500 
L 1159 3500 
L 1159 2969 
Q 1341 3281 1617 3432 
Q 1894 3584 2278 3584 
Q 2916 3584 3314 3078 
Q 3713 2572 3713 1747 
Q 3713 922 3314 415 
Q 2916 -91 2278 -91 
Q 1894 -91 1617 61 
Q 1341 213 1159 525 
z
M 3116 1747 
Q 3116 2381 2855 2742 
Q 2594 3103 2138 3103 
Q 1681 3103 1420 2742 
Q 1159 2381 1159 1747 
Q 1159 1113 1420 752 
Q 1681 391 2138 391 
Q 2594 391 2855 752 
Q 3116 1113 3116 1747 
z
" transform="scale(0.015625)"/>
     <path id="DejaVuSans-6f" d="M 1959 3097 
Q 1497 3097 1228 2736 
Q 959 2375 959 1747 
Q 959 1119 1226 758 
Q 1494 397 1959 397 
Q 2419 397 2687 759 
Q 2956 1122 2956 1747 
Q 2956 2369 2687 2733 
Q 2419 3097 1959 3097 
z
M 1959 3584 
Q 2709 3584 3137 3096 
Q 3566 2609 3566 1747 
Q 3566 888 3137 398 
Q 2709 -91 1959 -91 
Q 1206 -91 779 398 
Q 353 888 353 1747 
Q 353 2609 779 3096 
Q 1206 3584 1959 3584 
z
" transform="scale(0.015625)"/>
     <path id="DejaVuSans-69" d="M 603 3500 
L 1178 3500 
L 1178 0 
L 603 0 
L 603 3500 
z
M 603 4863 
L 1178 4863 
L 1178 4134 
L 603 4134 
L 603 4863 
z
" transform="scale(0.015625)"/>
     <path id="DejaVuSans-6e" d="M 3513 2113 
L 3513 0 
L 2938 0 
L 2938 2094 
Q 2938 2591 2744 2837 
Q 2550 3084 2163 3084 
Q 1697 3084 1428 2787 
Q 1159 2491 1159 1978 
L 1159 0 
L 581 0 
L 581 3500 
L 1159 3500 
L 1159 2956 
Q 1366 3272 1645 3428 
Q 1925 3584 2291 3584 
Q 2894 3584 3203 3211 
Q 3513 2838 3513 2113 
z
" transform="scale(0.015625)"/>
    </defs>
    <use xlink:href="#DejaVuSans-4c"/>
    <use xlink:href="#DejaVuSans-65" x="53.962891"/>
    <use xlink:href="#DejaVuSans-61" x="115.486328"/>
    <use xlink:href="#DejaVuSans-76" x="176.765625"/>
    <use xlink:href="#DejaVuSans-65" x="235.945312"/>
    <use xlink:href="#DejaVuSans-73" x="297.46875"/>
    <use xlink:href="#DejaVuSans-20" x="349.568359"/>
    <use xlink:href="#DejaVuSans-70" x="381.355469"/>
    <use xlink:href="#DejaVuSans-6f" x="444.832031"/>
    <use xlink:href="#DejaVuSans-73" x="506.013672"/>
    <use xlink:href="#DejaVuSans-69" x="558.113281"/>
    <use xlink:href="#DejaVuSans-74" x="585.896484"/>
    <use xlink:href="#DejaVuSans-69" x="625.105469"/>
    <use xlink:href="#DejaVuSans-6f" x="652.888672"/>
    <use xlink:href="#DejaVuSans-6e" x="714.070312"/>
    <use xlink:href="#DejaVuSans-73" x="777.449219"/>
   </g>
  </g>
 </g>
 <defs>
  <clipPath id="p2b4954af7f">
   <rect x="7.2" y="49.836522" width="194.086957" height="194.086957"/>
  </clipPath>
  <clipPath id="pd46b5a4433">
   <rect x="240.104348" y="49.836522" width="194.086957" height="194.086957"/>
  </clipPath>
  <clipPath id="p3dbf116a80">
   <rect x="473.008696" y="49.836522" width="194.086957" height="194.086957"/>
  </clipPath>
  <clipPath id="p6a1c220521">
   <rect x="705.913043" y="49.836522" width="194.086957" height="194.086957"/>
  </clipPath>
 </defs>
</svg>
