<?xml version="1.0" encoding="utf-8" standalone="no"?>
<!DOCTYPE svg PUBLIC "-//W3C//DTD SVG 1.1//EN"
  "http://www.w3.org/Graphics/SVG/1.1/DTD/svg11.dtd">
<!-- Created with matplotlib (https://matplotlib.org/) -->
<svg height="277.314375pt" version="1.1" viewBox="0 0 805.511932 277.314375" width="805.511932pt" xmlns="http://www.w3.org/2000/svg" xmlns:xlink="http://www.w3.org/1999/xlink">
 <metadata>
  <rdf:RDF xmlns:cc="http://creativecommons.org/ns#" xmlns:dc="http://purl.org/dc/elements/1.1/" xmlns:rdf="http://www.w3.org/1999/02/22-rdf-syntax-ns#">
   <cc:Work>
    <dc:type rdf:resource="http://purl.org/dc/dcmitype/StillImage"/>
    <dc:date>2023-04-19T11:36:09.589385</dc:date>
    <dc:format>image/svg+xml</dc:format>
    <dc:creator>
     <cc:Agent>
      <dc:title>Matplotlib v3.3.2, https://matplotlib.org/</dc:title>
     </cc:Agent>
    </dc:creator>
   </cc:Work>
  </rdf:RDF>
 </metadata>
 <defs>
  <style type="text/css">*{stroke-linecap:butt;stroke-linejoin:round;}</style>
 </defs>
 <g id="figure_1">
  <g id="patch_1">
   <path d="M 0 277.314375 
L 805.511932 277.314375 
L 805.511932 0 
L 0 0 
z
" style="fill:none;"/>
  </g>
  <g id="axes_1">
   <g id="patch_2">
    <path d="M 40.603125 239.758125 
L 344.966761 239.758125 
L 344.966761 22.318125 
L 40.603125 22.318125 
z
" style="fill:#ffffff;"/>
   </g>
   <g id="matplotlib.axis_1">
    <g id="xtick_1">
     <g id="line2d_1">
      <defs>
       <path d="M 0 0 
L 0 3.5 
" id="m48c782b917" style="stroke:#000000;stroke-width:0.8;"/>
      </defs>
      <g>
       <use style="stroke:#000000;stroke-width:0.8;" x="54.403245" xlink:href="#m48c782b917" y="239.758125"/>
      </g>
     </g>
     <g id="text_1">
      <!-- 0 -->
      <g transform="translate(51.221995 254.356562)scale(0.1 -0.1)">
       <defs>
        <path d="M 31.78125 66.40625 
Q 24.171875 66.40625 20.328125 58.90625 
Q 16.5 51.421875 16.5 36.375 
Q 16.5 21.390625 20.328125 13.890625 
Q 24.171875 6.390625 31.78125 6.390625 
Q 39.453125 6.390625 43.28125 13.890625 
Q 47.125 21.390625 47.125 36.375 
Q 47.125 51.421875 43.28125 58.90625 
Q 39.453125 66.40625 31.78125 66.40625 
z
M 31.78125 74.21875 
Q 44.046875 74.21875 50.515625 64.515625 
Q 56.984375 54.828125 56.984375 36.375 
Q 56.984375 17.96875 50.515625 8.265625 
Q 44.046875 -1.421875 31.78125 -1.421875 
Q 19.53125 -1.421875 13.0625 8.265625 
Q 6.59375 17.96875 6.59375 36.375 
Q 6.59375 54.828125 13.0625 64.515625 
Q 19.53125 74.21875 31.78125 74.21875 
z
" id="DejaVuSans-48"/>
       </defs>
       <use xlink:href="#DejaVuSans-48"/>
      </g>
     </g>
    </g>
    <g id="xtick_2">
     <g id="line2d_2">
      <g>
       <use style="stroke:#000000;stroke-width:0.8;" x="109.749006" xlink:href="#m48c782b917" y="239.758125"/>
      </g>
     </g>
     <g id="text_2">
      <!-- 20 -->
      <g transform="translate(103.386506 254.356562)scale(0.1 -0.1)">
       <defs>
        <path d="M 19.1875 8.296875 
L 53.609375 8.296875 
L 53.609375 0 
L 7.328125 0 
L 7.328125 8.296875 
Q 12.9375 14.109375 22.625 23.890625 
Q 32.328125 33.6875 34.8125 36.53125 
Q 39.546875 41.84375 41.421875 45.53125 
Q 43.3125 49.21875 43.3125 52.78125 
Q 43.3125 58.59375 39.234375 62.25 
Q 35.15625 65.921875 28.609375 65.921875 
Q 23.96875 65.921875 18.8125 64.3125 
Q 13.671875 62.703125 7.8125 59.421875 
L 7.8125 69.390625 
Q 13.765625 71.78125 18.9375 73 
Q 24.125 74.21875 28.421875 74.21875 
Q 39.75 74.21875 46.484375 68.546875 
Q 53.21875 62.890625 53.21875 53.421875 
Q 53.21875 48.921875 51.53125 44.890625 
Q 49.859375 40.875 45.40625 35.40625 
Q 44.1875 33.984375 37.640625 27.21875 
Q 31.109375 20.453125 19.1875 8.296875 
z
" id="DejaVuSans-50"/>
       </defs>
       <use xlink:href="#DejaVuSans-50"/>
       <use x="63.623047" xlink:href="#DejaVuSans-48"/>
      </g>
     </g>
    </g>
    <g id="xtick_3">
     <g id="line2d_3">
      <g>
       <use style="stroke:#000000;stroke-width:0.8;" x="165.094767" xlink:href="#m48c782b917" y="239.758125"/>
      </g>
     </g>
     <g id="text_3">
      <!-- 40 -->
      <g transform="translate(158.732267 254.356562)scale(0.1 -0.1)">
       <defs>
        <path d="M 37.796875 64.3125 
L 12.890625 25.390625 
L 37.796875 25.390625 
z
M 35.203125 72.90625 
L 47.609375 72.90625 
L 47.609375 25.390625 
L 58.015625 25.390625 
L 58.015625 17.1875 
L 47.609375 17.1875 
L 47.609375 0 
L 37.796875 0 
L 37.796875 17.1875 
L 4.890625 17.1875 
L 4.890625 26.703125 
z
" id="DejaVuSans-52"/>
       </defs>
       <use xlink:href="#DejaVuSans-52"/>
       <use x="63.623047" xlink:href="#DejaVuSans-48"/>
      </g>
     </g>
    </g>
    <g id="xtick_4">
     <g id="line2d_4">
      <g>
       <use style="stroke:#000000;stroke-width:0.8;" x="220.440528" xlink:href="#m48c782b917" y="239.758125"/>
      </g>
     </g>
     <g id="text_4">
      <!-- 60 -->
      <g transform="translate(214.078028 254.356562)scale(0.1 -0.1)">
       <defs>
        <path d="M 33.015625 40.375 
Q 26.375 40.375 22.484375 35.828125 
Q 18.609375 31.296875 18.609375 23.390625 
Q 18.609375 15.53125 22.484375 10.953125 
Q 26.375 6.390625 33.015625 6.390625 
Q 39.65625 6.390625 43.53125 10.953125 
Q 47.40625 15.53125 47.40625 23.390625 
Q 47.40625 31.296875 43.53125 35.828125 
Q 39.65625 40.375 33.015625 40.375 
z
M 52.59375 71.296875 
L 52.59375 62.3125 
Q 48.875 64.0625 45.09375 64.984375 
Q 41.3125 65.921875 37.59375 65.921875 
Q 27.828125 65.921875 22.671875 59.328125 
Q 17.53125 52.734375 16.796875 39.40625 
Q 19.671875 43.65625 24.015625 45.921875 
Q 28.375 48.1875 33.59375 48.1875 
Q 44.578125 48.1875 50.953125 41.515625 
Q 57.328125 34.859375 57.328125 23.390625 
Q 57.328125 12.15625 50.6875 5.359375 
Q 44.046875 -1.421875 33.015625 -1.421875 
Q 20.359375 -1.421875 13.671875 8.265625 
Q 6.984375 17.96875 6.984375 36.375 
Q 6.984375 53.65625 15.1875 63.9375 
Q 23.390625 74.21875 37.203125 74.21875 
Q 40.921875 74.21875 44.703125 73.484375 
Q 48.484375 72.75 52.59375 71.296875 
z
" id="DejaVuSans-54"/>
       </defs>
       <use xlink:href="#DejaVuSans-54"/>
       <use x="63.623047" xlink:href="#DejaVuSans-48"/>
      </g>
     </g>
    </g>
    <g id="xtick_5">
     <g id="line2d_5">
      <g>
       <use style="stroke:#000000;stroke-width:0.8;" x="275.786289" xlink:href="#m48c782b917" y="239.758125"/>
      </g>
     </g>
     <g id="text_5">
      <!-- 80 -->
      <g transform="translate(269.423789 254.356562)scale(0.1 -0.1)">
       <defs>
        <path d="M 31.78125 34.625 
Q 24.75 34.625 20.71875 30.859375 
Q 16.703125 27.09375 16.703125 20.515625 
Q 16.703125 13.921875 20.71875 10.15625 
Q 24.75 6.390625 31.78125 6.390625 
Q 38.8125 6.390625 42.859375 10.171875 
Q 46.921875 13.96875 46.921875 20.515625 
Q 46.921875 27.09375 42.890625 30.859375 
Q 38.875 34.625 31.78125 34.625 
z
M 21.921875 38.8125 
Q 15.578125 40.375 12.03125 44.71875 
Q 8.5 49.078125 8.5 55.328125 
Q 8.5 64.0625 14.71875 69.140625 
Q 20.953125 74.21875 31.78125 74.21875 
Q 42.671875 74.21875 48.875 69.140625 
Q 55.078125 64.0625 55.078125 55.328125 
Q 55.078125 49.078125 51.53125 44.71875 
Q 48 40.375 41.703125 38.8125 
Q 48.828125 37.15625 52.796875 32.3125 
Q 56.78125 27.484375 56.78125 20.515625 
Q 56.78125 9.90625 50.3125 4.234375 
Q 43.84375 -1.421875 31.78125 -1.421875 
Q 19.734375 -1.421875 13.25 4.234375 
Q 6.78125 9.90625 6.78125 20.515625 
Q 6.78125 27.484375 10.78125 32.3125 
Q 14.796875 37.15625 21.921875 38.8125 
z
M 18.3125 54.390625 
Q 18.3125 48.734375 21.84375 45.5625 
Q 25.390625 42.390625 31.78125 42.390625 
Q 38.140625 42.390625 41.71875 45.5625 
Q 45.3125 48.734375 45.3125 54.390625 
Q 45.3125 60.0625 41.71875 63.234375 
Q 38.140625 66.40625 31.78125 66.40625 
Q 25.390625 66.40625 21.84375 63.234375 
Q 18.3125 60.0625 18.3125 54.390625 
z
" id="DejaVuSans-56"/>
       </defs>
       <use xlink:href="#DejaVuSans-56"/>
       <use x="63.623047" xlink:href="#DejaVuSans-48"/>
      </g>
     </g>
    </g>
    <g id="xtick_6">
     <g id="line2d_6">
      <g>
       <use style="stroke:#000000;stroke-width:0.8;" x="331.132051" xlink:href="#m48c782b917" y="239.758125"/>
      </g>
     </g>
     <g id="text_6">
      <!-- 100 -->
      <g transform="translate(321.588301 254.356562)scale(0.1 -0.1)">
       <defs>
        <path d="M 12.40625 8.296875 
L 28.515625 8.296875 
L 28.515625 63.921875 
L 10.984375 60.40625 
L 10.984375 69.390625 
L 28.421875 72.90625 
L 38.28125 72.90625 
L 38.28125 8.296875 
L 54.390625 8.296875 
L 54.390625 0 
L 12.40625 0 
z
" id="DejaVuSans-49"/>
       </defs>
       <use xlink:href="#DejaVuSans-49"/>
       <use x="63.623047" xlink:href="#DejaVuSans-48"/>
       <use x="127.246094" xlink:href="#DejaVuSans-48"/>
      </g>
     </g>
    </g>
    <g id="text_7">
     <!-- Volume (%) -->
     <g transform="translate(163.946662 268.034687)scale(0.1 -0.1)">
      <defs>
       <path d="M 28.609375 0 
L 0.78125 72.90625 
L 11.078125 72.90625 
L 34.1875 11.53125 
L 57.328125 72.90625 
L 67.578125 72.90625 
L 39.796875 0 
z
" id="DejaVuSans-86"/>
       <path d="M 30.609375 48.390625 
Q 23.390625 48.390625 19.1875 42.75 
Q 14.984375 37.109375 14.984375 27.296875 
Q 14.984375 17.484375 19.15625 11.84375 
Q 23.34375 6.203125 30.609375 6.203125 
Q 37.796875 6.203125 41.984375 11.859375 
Q 46.1875 17.53125 46.1875 27.296875 
Q 46.1875 37.015625 41.984375 42.703125 
Q 37.796875 48.390625 30.609375 48.390625 
z
M 30.609375 56 
Q 42.328125 56 49.015625 48.375 
Q 55.71875 40.765625 55.71875 27.296875 
Q 55.71875 13.875 49.015625 6.21875 
Q 42.328125 -1.421875 30.609375 -1.421875 
Q 18.84375 -1.421875 12.171875 6.21875 
Q 5.515625 13.875 5.515625 27.296875 
Q 5.515625 40.765625 12.171875 48.375 
Q 18.84375 56 30.609375 56 
z
" id="DejaVuSans-111"/>
       <path d="M 9.421875 75.984375 
L 18.40625 75.984375 
L 18.40625 0 
L 9.421875 0 
z
" id="DejaVuSans-108"/>
       <path d="M 8.5 21.578125 
L 8.5 54.6875 
L 17.484375 54.6875 
L 17.484375 21.921875 
Q 17.484375 14.15625 20.5 10.265625 
Q 23.53125 6.390625 29.59375 6.390625 
Q 36.859375 6.390625 41.078125 11.03125 
Q 45.3125 15.671875 45.3125 23.6875 
L 45.3125 54.6875 
L 54.296875 54.6875 
L 54.296875 0 
L 45.3125 0 
L 45.3125 8.40625 
Q 42.046875 3.421875 37.71875 1 
Q 33.40625 -1.421875 27.6875 -1.421875 
Q 18.265625 -1.421875 13.375 4.4375 
Q 8.5 10.296875 8.5 21.578125 
z
M 31.109375 56 
z
" id="DejaVuSans-117"/>
       <path d="M 52 44.1875 
Q 55.375 50.25 60.0625 53.125 
Q 64.75 56 71.09375 56 
Q 79.640625 56 84.28125 50.015625 
Q 88.921875 44.046875 88.921875 33.015625 
L 88.921875 0 
L 79.890625 0 
L 79.890625 32.71875 
Q 79.890625 40.578125 77.09375 44.375 
Q 74.3125 48.1875 68.609375 48.1875 
Q 61.625 48.1875 57.5625 43.546875 
Q 53.515625 38.921875 53.515625 30.90625 
L 53.515625 0 
L 44.484375 0 
L 44.484375 32.71875 
Q 44.484375 40.625 41.703125 44.40625 
Q 38.921875 48.1875 33.109375 48.1875 
Q 26.21875 48.1875 22.15625 43.53125 
Q 18.109375 38.875 18.109375 30.90625 
L 18.109375 0 
L 9.078125 0 
L 9.078125 54.6875 
L 18.109375 54.6875 
L 18.109375 46.1875 
Q 21.1875 51.21875 25.484375 53.609375 
Q 29.78125 56 35.6875 56 
Q 41.65625 56 45.828125 52.96875 
Q 50 49.953125 52 44.1875 
z
" id="DejaVuSans-109"/>
       <path d="M 56.203125 29.59375 
L 56.203125 25.203125 
L 14.890625 25.203125 
Q 15.484375 15.921875 20.484375 11.0625 
Q 25.484375 6.203125 34.421875 6.203125 
Q 39.59375 6.203125 44.453125 7.46875 
Q 49.3125 8.734375 54.109375 11.28125 
L 54.109375 2.78125 
Q 49.265625 0.734375 44.1875 -0.34375 
Q 39.109375 -1.421875 33.890625 -1.421875 
Q 20.796875 -1.421875 13.15625 6.1875 
Q 5.515625 13.8125 5.515625 26.8125 
Q 5.515625 40.234375 12.765625 48.109375 
Q 20.015625 56 32.328125 56 
Q 43.359375 56 49.78125 48.890625 
Q 56.203125 41.796875 56.203125 29.59375 
z
M 47.21875 32.234375 
Q 47.125 39.59375 43.09375 43.984375 
Q 39.0625 48.390625 32.421875 48.390625 
Q 24.90625 48.390625 20.390625 44.140625 
Q 15.875 39.890625 15.1875 32.171875 
z
" id="DejaVuSans-101"/>
       <path id="DejaVuSans-32"/>
       <path d="M 31 75.875 
Q 24.46875 64.65625 21.28125 53.65625 
Q 18.109375 42.671875 18.109375 31.390625 
Q 18.109375 20.125 21.3125 9.0625 
Q 24.515625 -2 31 -13.1875 
L 23.1875 -13.1875 
Q 15.875 -1.703125 12.234375 9.375 
Q 8.59375 20.453125 8.59375 31.390625 
Q 8.59375 42.28125 12.203125 53.3125 
Q 15.828125 64.359375 23.1875 75.875 
z
" id="DejaVuSans-40"/>
       <path d="M 72.703125 32.078125 
Q 68.453125 32.078125 66.03125 28.46875 
Q 63.625 24.859375 63.625 18.40625 
Q 63.625 12.0625 66.03125 8.421875 
Q 68.453125 4.78125 72.703125 4.78125 
Q 76.859375 4.78125 79.265625 8.421875 
Q 81.6875 12.0625 81.6875 18.40625 
Q 81.6875 24.8125 79.265625 28.4375 
Q 76.859375 32.078125 72.703125 32.078125 
z
M 72.703125 38.28125 
Q 80.421875 38.28125 84.953125 32.90625 
Q 89.5 27.546875 89.5 18.40625 
Q 89.5 9.28125 84.9375 3.921875 
Q 80.375 -1.421875 72.703125 -1.421875 
Q 64.890625 -1.421875 60.34375 3.921875 
Q 55.8125 9.28125 55.8125 18.40625 
Q 55.8125 27.59375 60.375 32.9375 
Q 64.9375 38.28125 72.703125 38.28125 
z
M 22.3125 68.015625 
Q 18.109375 68.015625 15.6875 64.375 
Q 13.28125 60.75 13.28125 54.390625 
Q 13.28125 47.953125 15.671875 44.328125 
Q 18.0625 40.71875 22.3125 40.71875 
Q 26.5625 40.71875 28.96875 44.328125 
Q 31.390625 47.953125 31.390625 54.390625 
Q 31.390625 60.6875 28.953125 64.34375 
Q 26.515625 68.015625 22.3125 68.015625 
z
M 66.40625 74.21875 
L 74.21875 74.21875 
L 28.609375 -1.421875 
L 20.796875 -1.421875 
z
M 22.3125 74.21875 
Q 30.03125 74.21875 34.609375 68.875 
Q 39.203125 63.53125 39.203125 54.390625 
Q 39.203125 45.171875 34.640625 39.84375 
Q 30.078125 34.515625 22.3125 34.515625 
Q 14.546875 34.515625 10.03125 39.859375 
Q 5.515625 45.21875 5.515625 54.390625 
Q 5.515625 63.484375 10.046875 68.84375 
Q 14.59375 74.21875 22.3125 74.21875 
z
" id="DejaVuSans-37"/>
       <path d="M 8.015625 75.875 
L 15.828125 75.875 
Q 23.140625 64.359375 26.78125 53.3125 
Q 30.421875 42.28125 30.421875 31.390625 
Q 30.421875 20.453125 26.78125 9.375 
Q 23.140625 -1.703125 15.828125 -13.1875 
L 8.015625 -13.1875 
Q 14.5 -2 17.703125 9.0625 
Q 20.90625 20.125 20.90625 31.390625 
Q 20.90625 42.671875 17.703125 53.65625 
Q 14.5 64.65625 8.015625 75.875 
z
" id="DejaVuSans-41"/>
      </defs>
      <use xlink:href="#DejaVuSans-86"/>
      <use x="60.658203" xlink:href="#DejaVuSans-111"/>
      <use x="121.839844" xlink:href="#DejaVuSans-108"/>
      <use x="149.623047" xlink:href="#DejaVuSans-117"/>
      <use x="213.001953" xlink:href="#DejaVuSans-109"/>
      <use x="310.414062" xlink:href="#DejaVuSans-101"/>
      <use x="371.9375" xlink:href="#DejaVuSans-32"/>
      <use x="403.724609" xlink:href="#DejaVuSans-40"/>
      <use x="442.738281" xlink:href="#DejaVuSans-37"/>
      <use x="537.757812" xlink:href="#DejaVuSans-41"/>
     </g>
    </g>
   </g>
   <g id="matplotlib.axis_2">
    <g id="ytick_1">
     <g id="line2d_7">
      <defs>
       <path d="M 0 0 
L -3.5 0 
" id="me65d07fa58" style="stroke:#000000;stroke-width:0.8;"/>
      </defs>
      <g>
       <use style="stroke:#000000;stroke-width:0.8;" x="40.603125" xlink:href="#me65d07fa58" y="230.175708"/>
      </g>
     </g>
     <g id="text_8">
      <!-- 0 -->
      <g transform="translate(27.240625 233.974927)scale(0.1 -0.1)">
       <use xlink:href="#DejaVuSans-48"/>
      </g>
     </g>
    </g>
    <g id="ytick_2">
     <g id="line2d_8">
      <g>
       <use style="stroke:#000000;stroke-width:0.8;" x="40.603125" xlink:href="#me65d07fa58" y="198.366591"/>
      </g>
     </g>
     <g id="text_9">
      <!-- 10 -->
      <g transform="translate(20.878125 202.16581)scale(0.1 -0.1)">
       <use xlink:href="#DejaVuSans-49"/>
       <use x="63.623047" xlink:href="#DejaVuSans-48"/>
      </g>
     </g>
    </g>
    <g id="ytick_3">
     <g id="line2d_9">
      <g>
       <use style="stroke:#000000;stroke-width:0.8;" x="40.603125" xlink:href="#me65d07fa58" y="166.557473"/>
      </g>
     </g>
     <g id="text_10">
      <!-- 20 -->
      <g transform="translate(20.878125 170.356692)scale(0.1 -0.1)">
       <use xlink:href="#DejaVuSans-50"/>
       <use x="63.623047" xlink:href="#DejaVuSans-48"/>
      </g>
     </g>
    </g>
    <g id="ytick_4">
     <g id="line2d_10">
      <g>
       <use style="stroke:#000000;stroke-width:0.8;" x="40.603125" xlink:href="#me65d07fa58" y="134.748356"/>
      </g>
     </g>
     <g id="text_11">
      <!-- 30 -->
      <g transform="translate(20.878125 138.547574)scale(0.1 -0.1)">
       <defs>
        <path d="M 40.578125 39.3125 
Q 47.65625 37.796875 51.625 33 
Q 55.609375 28.21875 55.609375 21.1875 
Q 55.609375 10.40625 48.1875 4.484375 
Q 40.765625 -1.421875 27.09375 -1.421875 
Q 22.515625 -1.421875 17.65625 -0.515625 
Q 12.796875 0.390625 7.625 2.203125 
L 7.625 11.71875 
Q 11.71875 9.328125 16.59375 8.109375 
Q 21.484375 6.890625 26.8125 6.890625 
Q 36.078125 6.890625 40.9375 10.546875 
Q 45.796875 14.203125 45.796875 21.1875 
Q 45.796875 27.640625 41.28125 31.265625 
Q 36.765625 34.90625 28.71875 34.90625 
L 20.21875 34.90625 
L 20.21875 43.015625 
L 29.109375 43.015625 
Q 36.375 43.015625 40.234375 45.921875 
Q 44.09375 48.828125 44.09375 54.296875 
Q 44.09375 59.90625 40.109375 62.90625 
Q 36.140625 65.921875 28.71875 65.921875 
Q 24.65625 65.921875 20.015625 65.03125 
Q 15.375 64.15625 9.8125 62.3125 
L 9.8125 71.09375 
Q 15.4375 72.65625 20.34375 73.4375 
Q 25.25 74.21875 29.59375 74.21875 
Q 40.828125 74.21875 47.359375 69.109375 
Q 53.90625 64.015625 53.90625 55.328125 
Q 53.90625 49.265625 50.4375 45.09375 
Q 46.96875 40.921875 40.578125 39.3125 
z
" id="DejaVuSans-51"/>
       </defs>
       <use xlink:href="#DejaVuSans-51"/>
       <use x="63.623047" xlink:href="#DejaVuSans-48"/>
      </g>
     </g>
    </g>
    <g id="ytick_5">
     <g id="line2d_11">
      <g>
       <use style="stroke:#000000;stroke-width:0.8;" x="40.603125" xlink:href="#me65d07fa58" y="102.939238"/>
      </g>
     </g>
     <g id="text_12">
      <!-- 40 -->
      <g transform="translate(20.878125 106.738457)scale(0.1 -0.1)">
       <use xlink:href="#DejaVuSans-52"/>
       <use x="63.623047" xlink:href="#DejaVuSans-48"/>
      </g>
     </g>
    </g>
    <g id="ytick_6">
     <g id="line2d_12">
      <g>
       <use style="stroke:#000000;stroke-width:0.8;" x="40.603125" xlink:href="#me65d07fa58" y="71.13012"/>
      </g>
     </g>
     <g id="text_13">
      <!-- 50 -->
      <g transform="translate(20.878125 74.929339)scale(0.1 -0.1)">
       <defs>
        <path d="M 10.796875 72.90625 
L 49.515625 72.90625 
L 49.515625 64.59375 
L 19.828125 64.59375 
L 19.828125 46.734375 
Q 21.96875 47.46875 24.109375 47.828125 
Q 26.265625 48.1875 28.421875 48.1875 
Q 40.625 48.1875 47.75 41.5 
Q 54.890625 34.8125 54.890625 23.390625 
Q 54.890625 11.625 47.5625 5.09375 
Q 40.234375 -1.421875 26.90625 -1.421875 
Q 22.3125 -1.421875 17.546875 -0.640625 
Q 12.796875 0.140625 7.71875 1.703125 
L 7.71875 11.625 
Q 12.109375 9.234375 16.796875 8.0625 
Q 21.484375 6.890625 26.703125 6.890625 
Q 35.15625 6.890625 40.078125 11.328125 
Q 45.015625 15.765625 45.015625 23.390625 
Q 45.015625 31 40.078125 35.4375 
Q 35.15625 39.890625 26.703125 39.890625 
Q 22.75 39.890625 18.8125 39.015625 
Q 14.890625 38.140625 10.796875 36.28125 
z
" id="DejaVuSans-53"/>
       </defs>
       <use xlink:href="#DejaVuSans-53"/>
       <use x="63.623047" xlink:href="#DejaVuSans-48"/>
      </g>
     </g>
    </g>
    <g id="ytick_7">
     <g id="line2d_13">
      <g>
       <use style="stroke:#000000;stroke-width:0.8;" x="40.603125" xlink:href="#me65d07fa58" y="39.321003"/>
      </g>
     </g>
     <g id="text_14">
      <!-- 60 -->
      <g transform="translate(20.878125 43.120221)scale(0.1 -0.1)">
       <use xlink:href="#DejaVuSans-54"/>
       <use x="63.623047" xlink:href="#DejaVuSans-48"/>
      </g>
     </g>
    </g>
    <g id="text_15">
     <!-- Dose (Gy) -->
     <g transform="translate(14.798438 155.952969)rotate(-90)scale(0.1 -0.1)">
      <defs>
       <path d="M 19.671875 64.796875 
L 19.671875 8.109375 
L 31.59375 8.109375 
Q 46.6875 8.109375 53.6875 14.9375 
Q 60.6875 21.78125 60.6875 36.53125 
Q 60.6875 51.171875 53.6875 57.984375 
Q 46.6875 64.796875 31.59375 64.796875 
z
M 9.8125 72.90625 
L 30.078125 72.90625 
Q 51.265625 72.90625 61.171875 64.09375 
Q 71.09375 55.28125 71.09375 36.53125 
Q 71.09375 17.671875 61.125 8.828125 
Q 51.171875 0 30.078125 0 
L 9.8125 0 
z
" id="DejaVuSans-68"/>
       <path d="M 44.28125 53.078125 
L 44.28125 44.578125 
Q 40.484375 46.53125 36.375 47.5 
Q 32.28125 48.484375 27.875 48.484375 
Q 21.1875 48.484375 17.84375 46.4375 
Q 14.5 44.390625 14.5 40.28125 
Q 14.5 37.15625 16.890625 35.375 
Q 19.28125 33.59375 26.515625 31.984375 
L 29.59375 31.296875 
Q 39.15625 29.25 43.1875 25.515625 
Q 47.21875 21.78125 47.21875 15.09375 
Q 47.21875 7.46875 41.1875 3.015625 
Q 35.15625 -1.421875 24.609375 -1.421875 
Q 20.21875 -1.421875 15.453125 -0.5625 
Q 10.6875 0.296875 5.421875 2 
L 5.421875 11.28125 
Q 10.40625 8.6875 15.234375 7.390625 
Q 20.0625 6.109375 24.8125 6.109375 
Q 31.15625 6.109375 34.5625 8.28125 
Q 37.984375 10.453125 37.984375 14.40625 
Q 37.984375 18.0625 35.515625 20.015625 
Q 33.0625 21.96875 24.703125 23.78125 
L 21.578125 24.515625 
Q 13.234375 26.265625 9.515625 29.90625 
Q 5.8125 33.546875 5.8125 39.890625 
Q 5.8125 47.609375 11.28125 51.796875 
Q 16.75 56 26.8125 56 
Q 31.78125 56 36.171875 55.265625 
Q 40.578125 54.546875 44.28125 53.078125 
z
" id="DejaVuSans-115"/>
       <path d="M 59.515625 10.40625 
L 59.515625 29.984375 
L 43.40625 29.984375 
L 43.40625 38.09375 
L 69.28125 38.09375 
L 69.28125 6.78125 
Q 63.578125 2.734375 56.6875 0.65625 
Q 49.8125 -1.421875 42 -1.421875 
Q 24.90625 -1.421875 15.25 8.5625 
Q 5.609375 18.5625 5.609375 36.375 
Q 5.609375 54.25 15.25 64.234375 
Q 24.90625 74.21875 42 74.21875 
Q 49.125 74.21875 55.546875 72.453125 
Q 61.96875 70.703125 67.390625 67.28125 
L 67.390625 56.78125 
Q 61.921875 61.421875 55.765625 63.765625 
Q 49.609375 66.109375 42.828125 66.109375 
Q 29.4375 66.109375 22.71875 58.640625 
Q 16.015625 51.171875 16.015625 36.375 
Q 16.015625 21.625 22.71875 14.15625 
Q 29.4375 6.6875 42.828125 6.6875 
Q 48.046875 6.6875 52.140625 7.59375 
Q 56.25 8.5 59.515625 10.40625 
z
" id="DejaVuSans-71"/>
       <path d="M 32.171875 -5.078125 
Q 28.375 -14.84375 24.75 -17.8125 
Q 21.140625 -20.796875 15.09375 -20.796875 
L 7.90625 -20.796875 
L 7.90625 -13.28125 
L 13.1875 -13.28125 
Q 16.890625 -13.28125 18.9375 -11.515625 
Q 21 -9.765625 23.484375 -3.21875 
L 25.09375 0.875 
L 2.984375 54.6875 
L 12.5 54.6875 
L 29.59375 11.921875 
L 46.6875 54.6875 
L 56.203125 54.6875 
z
" id="DejaVuSans-121"/>
      </defs>
      <use xlink:href="#DejaVuSans-68"/>
      <use x="77.001953" xlink:href="#DejaVuSans-111"/>
      <use x="138.183594" xlink:href="#DejaVuSans-115"/>
      <use x="190.283203" xlink:href="#DejaVuSans-101"/>
      <use x="251.806641" xlink:href="#DejaVuSans-32"/>
      <use x="283.59375" xlink:href="#DejaVuSans-40"/>
      <use x="322.607422" xlink:href="#DejaVuSans-71"/>
      <use x="400.097656" xlink:href="#DejaVuSans-121"/>
      <use x="459.277344" xlink:href="#DejaVuSans-41"/>
     </g>
    </g>
   </g>
   <g id="line2d_14"/>
   <g id="line2d_15">
    <path clip-path="url(#p3a3cdb3812)" d="M 54.437836 125.811336 
L 54.679973 125.897489 
L 54.956702 126.85011 
L 55.129658 129.209001 
L 55.302613 129.255366 
L 55.579342 130.179981 
L 55.752298 132.455171 
L 55.994435 132.571768 
L 56.201982 133.31292 
L 56.374937 135.458225 
L 56.617075 135.627449 
L 56.824622 136.350163 
L 57.032168 138.495529 
L 57.239715 138.654153 
L 57.447262 139.347533 
L 57.654808 141.420166 
L 57.931537 141.588304 
L 58.139084 142.223323 
L 58.34663 144.153276 
L 58.519586 144.228041 
L 58.865497 145.422176 
L 59.107634 146.943157 
L 59.211408 146.991888 
L 59.522728 147.898393 
L 59.937821 149.644889 
L 60.145367 149.846232 
L 60.422096 150.975369 
L 60.560461 152.092566 
L 60.83719 152.265843 
L 61.148509 153.347329 
L 61.321465 154.530457 
L 61.701967 155.002976 
L 62.117061 156.962458 
L 62.393789 157.381118 
L 62.601336 158.106198 
L 62.7397 159.264476 
L 62.947246 159.413539 
L 63.293158 160.265349 
L 63.431522 161.451881 
L 63.604478 161.543652 
L 63.98498 162.43605 
L 64.123343 163.634771 
L 64.2963 163.717096 
L 64.676801 164.526193 
L 64.849757 165.743534 
L 64.988121 165.825161 
L 65.403214 166.811042 
L 65.541579 167.771416 
L 65.714535 167.90823 
L 65.852898 168.006298 
L 66.095036 168.623481 
L 66.233401 169.686232 
L 66.406357 169.795689 
L 66.786858 170.470485 
L 66.925222 171.348389 
L 67.063587 171.413604 
L 67.201952 171.568322 
L 67.47868 171.683943 
L 67.859183 171.91104 
L 68.585596 172.288372 
L 68.723961 172.394213 
L 68.931507 172.576287 
L 69.104462 173.123279 
L 69.381191 173.195763 
L 69.588738 173.411369 
L 69.900059 173.478526 
L 70.142195 173.753773 
L 70.280559 173.846879 
L 70.557289 173.983965 
L 70.799427 174.040613 
L 71.145338 174.160736 
L 71.56043 174.645838 
L 71.698795 174.939188 
L 72.044706 175.018152 
L 72.425209 175.802671 
L 72.978666 176.001642 
L 73.359168 176.299725 
L 73.70508 176.751355 
L 73.947217 176.846626 
L 74.466083 177.680199 
L 74.708221 177.811321 
L 75.330861 178.220462 
L 75.503816 178.501327 
L 76.022683 178.955347 
L 76.299412 179.46634 
L 76.714505 179.706367 
L 78.132739 180.803209 
L 78.547834 181.338519 
L 78.72079 181.445837 
L 79.03211 181.53712 
L 79.274247 181.645954 
L 79.481793 181.995341 
L 80.31198 182.795517 
L 80.554116 183.108555 
L 81.003802 183.207637 
L 81.764805 183.802735 
L 81.93776 184.015964 
L 82.283671 184.132628 
L 83.044677 184.854384 
L 83.701906 185.108495 
L 83.874861 185.323868 
L 83.944043 185.367324 
L 84.082408 185.548361 
L 85.293099 186.440969 
L 85.396873 186.5493 
L 85.535235 186.678814 
L 85.742781 186.73903 
L 86.157874 187.07843 
L 86.918879 187.761499 
L 87.437746 188.051382 
L 87.610701 188.205714 
L 87.645295 188.212179 
L 87.818247 188.462414 
L 88.26793 188.644221 
L 88.475479 188.942856 
L 88.579251 189.058143 
L 88.82139 189.339799 
L 88.994345 189.420847 
L 89.340256 190.02612 
L 89.409438 190.082347 
L 89.582393 190.752255 
L 89.997488 191.063844 
L 90.377989 192.131979 
L 90.550942 192.183192 
L 91.208176 193.47534 
L 91.311951 193.585843 
L 91.830817 194.711252 
L 91.934589 194.76369 
L 92.591818 195.981765 
L 92.730185 196.094956 
L 93.318233 197.14183 
L 93.422007 197.237457 
L 93.871693 198.199955 
L 94.044648 198.275827 
L 94.667286 199.310266 
L 95.047785 199.843513 
L 95.255334 200.349291 
L 95.462883 200.465528 
L 95.566657 200.580045 
L 95.912568 201.988581 
L 96.05093 221.350489 
L 96.881117 221.522481 
L 97.29621 221.583415 
L 98.576079 221.709562 
L 100.720726 221.850887 
L 104.594929 222.13967 
L 104.802477 222.175691 
L 107.638952 222.496365 
L 107.881089 222.537544 
L 110.613783 222.936918 
L 111.201831 223.032628 
L 112.170383 223.183789 
L 112.412525 223.233297 
L 114.557167 223.715114 
L 114.730122 223.756856 
L 115.352763 223.871018 
L 121.95966 225.260128 
L 122.201802 225.354326 
L 122.651487 225.522892 
L 123.170354 225.807959 
L 124.208082 226.210205 
L 125.280413 226.328446 
L 126.421915 226.455041 
L 141.711181 227.376408 
L 180.695356 228.278225 
L 257.902686 229.028164 
L 271.739126 229.144073 
L 283.915198 229.237075 
L 325.77043 229.53928 
L 331.132051 229.661366 
L 331.132051 229.661366 
" style="fill:none;stroke:#ff7f0e;stroke-linecap:square;stroke-width:1.5;"/>
   </g>
   <g id="line2d_16">
    <path clip-path="url(#p3a3cdb3812)" d="M 54.437836 32.201761 
L 54.749156 32.312146 
L 54.88752 32.838856 
L 55.095067 38.37423 
L 55.268022 38.477238 
L 55.371796 38.635128 
L 55.440978 39.035096 
L 55.648524 44.143334 
L 55.856071 44.239607 
L 56.029026 46.118008 
L 56.271164 49.872977 
L 56.547893 50.567309 
L 56.75544 55.44075 
L 56.962986 55.541439 
L 57.239715 58.362208 
L 57.378079 60.954404 
L 57.41267 60.971476 
L 57.585626 61.304633 
L 57.689399 61.324667 
L 57.758582 61.577435 
L 58.03531 66.563287 
L 58.277448 66.715389 
L 58.415812 67.650828 
L 58.450403 68.141778 
L 58.588768 71.49394 
L 58.830906 71.673393 
L 59.003861 72.057951 
L 59.073044 72.094572 
L 59.418954 76.547198 
L 59.522728 76.660968 
L 59.730274 77.443747 
L 59.868639 78.901867 
L 60.007003 81.37334 
L 60.249141 81.525575 
L 60.52587 83.255041 
L 60.664233 86.11419 
L 60.940963 86.331477 
L 61.148509 87.811803 
L 61.286874 90.661936 
L 61.459829 90.681338 
L 61.771149 92.075099 
L 61.909513 95.098472 
L 62.082469 95.141585 
L 62.324607 95.909086 
L 62.42838 97.59681 
L 62.566745 99.381996 
L 62.705109 99.448916 
L 63.016429 100.699213 
L 63.05102 101.218703 
L 63.189385 103.631774 
L 63.36234 103.676743 
L 63.604478 104.669808 
L 63.67366 104.910296 
L 63.812024 107.653635 
L 63.98498 107.709877 
L 64.2963 108.811373 
L 64.434664 109.9653 
L 64.711393 110.24224 
L 64.918939 111.401846 
L 65.091894 111.495923 
L 65.472397 112.911597 
L 65.610762 114.205323 
L 65.749125 114.272729 
L 66.025854 115.235117 
L 66.267992 115.304707 
L 66.613903 116.364024 
L 66.82145 118.268708 
L 67.098179 118.819346 
L 67.236542 118.951985 
L 67.617045 119.28507 
L 67.859183 121.560611 
L 67.997547 122.186312 
L 68.135912 122.234582 
L 68.274276 122.379525 
L 68.516413 122.431011 
L 68.931507 123.406662 
L 69.139053 126.092267 
L 69.277418 126.184512 
L 69.588738 126.979424 
L 69.796284 129.89817 
L 70.003832 130.014216 
L 70.107605 130.17389 
L 70.211377 130.587054 
L 70.418924 133.540049 
L 70.59188 133.573272 
L 70.972382 135.311444 
L 71.145338 136.860583 
L 71.52584 137.599338 
L 71.56043 137.621889 
L 71.733386 138.947953 
L 71.767976 138.957666 
L 72.010115 140.217404 
L 72.183071 140.306603 
L 72.49439 141.813181 
L 72.77112 143.474519 
L 72.978666 143.641807 
L 73.462941 146.571328 
L 73.635896 146.661989 
L 74.016398 148.993354 
L 74.154763 149.474069 
L 74.293128 149.536664 
L 74.742812 151.173484 
L 74.881177 152.369153 
L 75.157906 152.585058 
L 75.400043 153.78899 
L 75.572997 155.118609 
L 75.780543 155.228442 
L 76.126457 156.848942 
L 76.334003 157.889961 
L 76.437776 157.961292 
L 76.749098 158.633818 
L 77.440917 159.036881 
L 77.579282 159.16705 
L 77.856009 159.285147 
L 78.305695 159.577903 
L 78.582425 159.777474 
L 78.72079 159.934782 
L 78.928336 160.046332 
L 79.066701 160.174293 
L 79.205063 160.355973 
L 79.481793 160.470308 
L 79.896885 160.619716 
L 80.415751 161.065697 
L 80.761665 161.309376 
L 81.107576 161.529758 
L 81.245941 161.603395 
L 81.453484 161.840527 
L 81.488078 161.854797 
L 81.62644 162.061134 
L 81.868579 162.177082 
L 82.179897 162.63038 
L 82.387446 162.755326 
L 82.871722 162.881146 
L 83.044677 163.0081 
L 83.978636 163.938491 
L 84.117001 164.02471 
L 84.393728 164.189821 
L 84.774232 164.810456 
L 84.981778 164.897282 
L 85.154734 165.223668 
L 85.431464 165.333198 
L 85.604419 165.532369 
L 86.019509 165.654372 
L 86.192467 165.962466 
L 87.472336 167.150715 
L 87.645295 167.305487 
L 87.818247 167.572664 
L 88.302523 167.794708 
L 88.475479 167.848645 
L 88.683025 167.970933 
L 88.890571 168.270436 
L 89.09812 168.502285 
L 89.305663 168.722581 
L 89.582393 168.833676 
L 89.755349 169.017079 
L 90.481761 169.711429 
L 90.931447 169.905873 
L 91.104402 170.049446 
L 91.208176 170.09757 
L 91.381132 170.395149 
L 92.072954 170.874718 
L 92.2805 171.589095 
L 92.522637 172.550702 
L 92.626411 173.165318 
L 92.799366 177.784977 
L 92.937729 179.758765 
L 93.179871 181.5863 
L 93.214459 181.677525 
L 93.629551 185.461634 
L 93.664144 185.559733 
L 94.010055 188.905003 
L 95.566657 209.74675 
L 95.843382 216.490944 
L 96.016337 216.58597 
L 96.189293 216.711219 
L 96.569797 217.011089 
L 97.01948 217.204249 
L 97.29621 217.390001 
L 97.953438 217.61692 
L 98.126399 217.812989 
L 98.645263 218.024326 
L 98.818221 218.149845 
L 99.164132 218.28791 
L 99.371676 218.405868 
L 99.75218 218.515483 
L 100.167267 218.714135 
L 100.582364 218.826184 
L 100.962863 218.989994 
L 101.308774 219.107028 
L 101.723872 219.303247 
L 102.242738 219.50928 
L 102.830786 219.843995 
L 103.21129 219.96905 
L 103.557201 220.110932 
L 105.494299 220.794304 
L 107.327629 220.971971 
L 112.032021 221.35482 
L 112.965979 221.459938 
L 114.280437 221.615726 
L 118.915648 222.549679 
L 119.538288 223.182382 
L 119.780425 223.294042 
L 119.953381 223.411665 
L 120.160929 223.546214 
L 120.264704 223.63314 
L 120.645203 224.23667 
L 120.887345 224.416901 
L 121.094888 224.52569 
L 121.267843 224.821389 
L 121.579161 224.927735 
L 121.821298 225.071039 
L 121.95966 225.18198 
L 122.51312 225.589855 
L 123.101168 225.68993 
L 123.274128 225.740659 
L 124.519405 225.867047 
L 125.695505 225.977838 
L 126.387327 226.018082 
L 129.292978 226.179435 
L 146.588528 227.208478 
L 154.994161 227.431969 
L 158.937555 227.586259 
L 162.500434 227.717207 
L 163.399805 227.756963 
L 166.962684 227.876484 
L 172.946951 228.001572 
L 184.362014 228.184877 
L 223.034861 228.723198 
L 257.245447 229.085693 
L 263.471866 229.149096 
L 279.591311 229.279512 
L 304.46232 229.468569 
L 331.132051 229.874489 
L 331.132051 229.874489 
" style="fill:none;stroke:#2ca02c;stroke-linecap:square;stroke-width:1.5;"/>
   </g>
   <g id="patch_3">
    <path d="M 40.603125 239.758125 
L 40.603125 22.318125 
" style="fill:none;stroke:#000000;stroke-linecap:square;stroke-linejoin:miter;stroke-width:0.8;"/>
   </g>
   <g id="patch_4">
    <path d="M 344.966761 239.758125 
L 344.966761 22.318125 
" style="fill:none;stroke:#000000;stroke-linecap:square;stroke-linejoin:miter;stroke-width:0.8;"/>
   </g>
   <g id="patch_5">
    <path d="M 40.603125 239.758125 
L 344.966761 239.758125 
" style="fill:none;stroke:#000000;stroke-linecap:square;stroke-linejoin:miter;stroke-width:0.8;"/>
   </g>
   <g id="patch_6">
    <path d="M 40.603125 22.318125 
L 344.966761 22.318125 
" style="fill:none;stroke:#000000;stroke-linecap:square;stroke-linejoin:miter;stroke-width:0.8;"/>
   </g>
   <g id="legend_1">
    <g id="patch_7">
     <path d="M 727.421307 54.674375 
L 796.311932 54.674375 
Q 798.311932 54.674375 798.311932 52.674375 
L 798.311932 24.318125 
Q 798.311932 22.318125 796.311932 22.318125 
L 727.421307 22.318125 
Q 725.421307 22.318125 725.421307 24.318125 
L 725.421307 52.674375 
Q 725.421307 54.674375 727.421307 54.674375 
z
" style="fill:#ffffff;opacity:0.8;stroke:#cccccc;stroke-linejoin:miter;"/>
    </g>
    <g id="line2d_17">
     <path d="M 729.421307 30.416562 
L 749.421307 30.416562 
" style="fill:none;stroke:#ff7f0e;stroke-linecap:square;stroke-width:1.5;"/>
    </g>
    <g id="line2d_18"/>
    <g id="text_16">
     <!-- PTV -->
     <g transform="translate(757.421307 33.916562)scale(0.1 -0.1)">
      <defs>
       <path d="M 19.671875 64.796875 
L 19.671875 37.40625 
L 32.078125 37.40625 
Q 38.96875 37.40625 42.71875 40.96875 
Q 46.484375 44.53125 46.484375 51.125 
Q 46.484375 57.671875 42.71875 61.234375 
Q 38.96875 64.796875 32.078125 64.796875 
z
M 9.8125 72.90625 
L 32.078125 72.90625 
Q 44.34375 72.90625 50.609375 67.359375 
Q 56.890625 61.8125 56.890625 51.125 
Q 56.890625 40.328125 50.609375 34.8125 
Q 44.34375 29.296875 32.078125 29.296875 
L 19.671875 29.296875 
L 19.671875 0 
L 9.8125 0 
z
" id="DejaVuSans-80"/>
       <path d="M -0.296875 72.90625 
L 61.375 72.90625 
L 61.375 64.59375 
L 35.5 64.59375 
L 35.5 0 
L 25.59375 0 
L 25.59375 64.59375 
L -0.296875 64.59375 
z
" id="DejaVuSans-84"/>
      </defs>
      <use xlink:href="#DejaVuSans-80"/>
      <use x="60.302734" xlink:href="#DejaVuSans-84"/>
      <use x="121.386719" xlink:href="#DejaVuSans-86"/>
     </g>
    </g>
    <g id="line2d_19">
     <path d="M 729.421307 45.094687 
L 749.421307 45.094687 
" style="fill:none;stroke:#2ca02c;stroke-linecap:square;stroke-width:1.5;"/>
    </g>
    <g id="line2d_20"/>
    <g id="text_17">
     <!-- ORGAN -->
     <g transform="translate(757.421307 48.594687)scale(0.1 -0.1)">
      <defs>
       <path d="M 39.40625 66.21875 
Q 28.65625 66.21875 22.328125 58.203125 
Q 16.015625 50.203125 16.015625 36.375 
Q 16.015625 22.609375 22.328125 14.59375 
Q 28.65625 6.59375 39.40625 6.59375 
Q 50.140625 6.59375 56.421875 14.59375 
Q 62.703125 22.609375 62.703125 36.375 
Q 62.703125 50.203125 56.421875 58.203125 
Q 50.140625 66.21875 39.40625 66.21875 
z
M 39.40625 74.21875 
Q 54.734375 74.21875 63.90625 63.9375 
Q 73.09375 53.65625 73.09375 36.375 
Q 73.09375 19.140625 63.90625 8.859375 
Q 54.734375 -1.421875 39.40625 -1.421875 
Q 24.03125 -1.421875 14.8125 8.828125 
Q 5.609375 19.09375 5.609375 36.375 
Q 5.609375 53.65625 14.8125 63.9375 
Q 24.03125 74.21875 39.40625 74.21875 
z
" id="DejaVuSans-79"/>
       <path d="M 44.390625 34.1875 
Q 47.5625 33.109375 50.5625 29.59375 
Q 53.5625 26.078125 56.59375 19.921875 
L 66.609375 0 
L 56 0 
L 46.6875 18.703125 
Q 43.0625 26.03125 39.671875 28.421875 
Q 36.28125 30.8125 30.421875 30.8125 
L 19.671875 30.8125 
L 19.671875 0 
L 9.8125 0 
L 9.8125 72.90625 
L 32.078125 72.90625 
Q 44.578125 72.90625 50.734375 67.671875 
Q 56.890625 62.453125 56.890625 51.90625 
Q 56.890625 45.015625 53.6875 40.46875 
Q 50.484375 35.9375 44.390625 34.1875 
z
M 19.671875 64.796875 
L 19.671875 38.921875 
L 32.078125 38.921875 
Q 39.203125 38.921875 42.84375 42.21875 
Q 46.484375 45.515625 46.484375 51.90625 
Q 46.484375 58.296875 42.84375 61.546875 
Q 39.203125 64.796875 32.078125 64.796875 
z
" id="DejaVuSans-82"/>
       <path d="M 34.1875 63.1875 
L 20.796875 26.90625 
L 47.609375 26.90625 
z
M 28.609375 72.90625 
L 39.796875 72.90625 
L 67.578125 0 
L 57.328125 0 
L 50.6875 18.703125 
L 17.828125 18.703125 
L 11.1875 0 
L 0.78125 0 
z
" id="DejaVuSans-65"/>
       <path d="M 9.8125 72.90625 
L 23.09375 72.90625 
L 55.421875 11.921875 
L 55.421875 72.90625 
L 64.984375 72.90625 
L 64.984375 0 
L 51.703125 0 
L 19.390625 60.984375 
L 19.390625 0 
L 9.8125 0 
z
" id="DejaVuSans-78"/>
      </defs>
      <use xlink:href="#DejaVuSans-79"/>
      <use x="78.710938" xlink:href="#DejaVuSans-82"/>
      <use x="148.193359" xlink:href="#DejaVuSans-71"/>
      <use x="225.683594" xlink:href="#DejaVuSans-65"/>
      <use x="294.091797" xlink:href="#DejaVuSans-78"/>
     </g>
    </g>
   </g>
  </g>
  <g id="axes_2">
   <g id="patch_8">
    <path d="M 405.839489 239.758125 
L 710.203125 239.758125 
L 710.203125 22.318125 
L 405.839489 22.318125 
z
" style="fill:#ffffff;"/>
   </g>
   <g id="matplotlib.axis_3">
    <g id="xtick_7">
     <g id="line2d_21">
      <g>
       <use style="stroke:#000000;stroke-width:0.8;" x="419.257528" xlink:href="#m48c782b917" y="239.758125"/>
      </g>
     </g>
     <g id="text_18">
      <!-- 0 -->
      <g transform="translate(416.076278 254.356562)scale(0.1 -0.1)">
       <use xlink:href="#DejaVuSans-48"/>
      </g>
     </g>
    </g>
    <g id="xtick_8">
     <g id="line2d_22">
      <g>
       <use style="stroke:#000000;stroke-width:0.8;" x="463.258479" xlink:href="#m48c782b917" y="239.758125"/>
      </g>
     </g>
     <g id="text_19">
      <!-- 10 -->
      <g transform="translate(456.895979 254.356562)scale(0.1 -0.1)">
       <use xlink:href="#DejaVuSans-49"/>
       <use x="63.623047" xlink:href="#DejaVuSans-48"/>
      </g>
     </g>
    </g>
    <g id="xtick_9">
     <g id="line2d_23">
      <g>
       <use style="stroke:#000000;stroke-width:0.8;" x="507.25943" xlink:href="#m48c782b917" y="239.758125"/>
      </g>
     </g>
     <g id="text_20">
      <!-- 20 -->
      <g transform="translate(500.89693 254.356562)scale(0.1 -0.1)">
       <use xlink:href="#DejaVuSans-50"/>
       <use x="63.623047" xlink:href="#DejaVuSans-48"/>
      </g>
     </g>
    </g>
    <g id="xtick_10">
     <g id="line2d_24">
      <g>
       <use style="stroke:#000000;stroke-width:0.8;" x="551.26038" xlink:href="#m48c782b917" y="239.758125"/>
      </g>
     </g>
     <g id="text_21">
      <!-- 30 -->
      <g transform="translate(544.89788 254.356562)scale(0.1 -0.1)">
       <use xlink:href="#DejaVuSans-51"/>
       <use x="63.623047" xlink:href="#DejaVuSans-48"/>
      </g>
     </g>
    </g>
    <g id="xtick_11">
     <g id="line2d_25">
      <g>
       <use style="stroke:#000000;stroke-width:0.8;" x="595.261331" xlink:href="#m48c782b917" y="239.758125"/>
      </g>
     </g>
     <g id="text_22">
      <!-- 40 -->
      <g transform="translate(588.898831 254.356562)scale(0.1 -0.1)">
       <use xlink:href="#DejaVuSans-52"/>
       <use x="63.623047" xlink:href="#DejaVuSans-48"/>
      </g>
     </g>
    </g>
    <g id="xtick_12">
     <g id="line2d_26">
      <g>
       <use style="stroke:#000000;stroke-width:0.8;" x="639.262282" xlink:href="#m48c782b917" y="239.758125"/>
      </g>
     </g>
     <g id="text_23">
      <!-- 50 -->
      <g transform="translate(632.899782 254.356562)scale(0.1 -0.1)">
       <use xlink:href="#DejaVuSans-53"/>
       <use x="63.623047" xlink:href="#DejaVuSans-48"/>
      </g>
     </g>
    </g>
    <g id="xtick_13">
     <g id="line2d_27">
      <g>
       <use style="stroke:#000000;stroke-width:0.8;" x="683.263233" xlink:href="#m48c782b917" y="239.758125"/>
      </g>
     </g>
     <g id="text_24">
      <!-- 60 -->
      <g transform="translate(676.900733 254.356562)scale(0.1 -0.1)">
       <use xlink:href="#DejaVuSans-54"/>
       <use x="63.623047" xlink:href="#DejaVuSans-48"/>
      </g>
     </g>
    </g>
    <g id="text_25">
     <!-- Dose (Gy) -->
     <g transform="translate(533.106463 268.034687)scale(0.1 -0.1)">
      <use xlink:href="#DejaVuSans-68"/>
      <use x="77.001953" xlink:href="#DejaVuSans-111"/>
      <use x="138.183594" xlink:href="#DejaVuSans-115"/>
      <use x="190.283203" xlink:href="#DejaVuSans-101"/>
      <use x="251.806641" xlink:href="#DejaVuSans-32"/>
      <use x="283.59375" xlink:href="#DejaVuSans-40"/>
      <use x="322.607422" xlink:href="#DejaVuSans-71"/>
      <use x="400.097656" xlink:href="#DejaVuSans-121"/>
      <use x="459.277344" xlink:href="#DejaVuSans-41"/>
     </g>
    </g>
   </g>
   <g id="matplotlib.axis_4">
    <g id="ytick_8">
     <g id="line2d_28">
      <g>
       <use style="stroke:#000000;stroke-width:0.8;" x="405.839489" xlink:href="#me65d07fa58" y="229.899201"/>
      </g>
     </g>
     <g id="text_26">
      <!-- 0 -->
      <g transform="translate(392.476989 233.69842)scale(0.1 -0.1)">
       <use xlink:href="#DejaVuSans-48"/>
      </g>
     </g>
    </g>
    <g id="ytick_9">
     <g id="line2d_29">
      <g>
       <use style="stroke:#000000;stroke-width:0.8;" x="405.839489" xlink:href="#me65d07fa58" y="190.359713"/>
      </g>
     </g>
     <g id="text_27">
      <!-- 20 -->
      <g transform="translate(386.114489 194.158932)scale(0.1 -0.1)">
       <use xlink:href="#DejaVuSans-50"/>
       <use x="63.623047" xlink:href="#DejaVuSans-48"/>
      </g>
     </g>
    </g>
    <g id="ytick_10">
     <g id="line2d_30">
      <g>
       <use style="stroke:#000000;stroke-width:0.8;" x="405.839489" xlink:href="#me65d07fa58" y="150.820225"/>
      </g>
     </g>
     <g id="text_28">
      <!-- 40 -->
      <g transform="translate(386.114489 154.619444)scale(0.1 -0.1)">
       <use xlink:href="#DejaVuSans-52"/>
       <use x="63.623047" xlink:href="#DejaVuSans-48"/>
      </g>
     </g>
    </g>
    <g id="ytick_11">
     <g id="line2d_31">
      <g>
       <use style="stroke:#000000;stroke-width:0.8;" x="405.839489" xlink:href="#me65d07fa58" y="111.280737"/>
      </g>
     </g>
     <g id="text_29">
      <!-- 60 -->
      <g transform="translate(386.114489 115.079956)scale(0.1 -0.1)">
       <use xlink:href="#DejaVuSans-54"/>
       <use x="63.623047" xlink:href="#DejaVuSans-48"/>
      </g>
     </g>
    </g>
    <g id="ytick_12">
     <g id="line2d_32">
      <g>
       <use style="stroke:#000000;stroke-width:0.8;" x="405.839489" xlink:href="#me65d07fa58" y="71.741249"/>
      </g>
     </g>
     <g id="text_30">
      <!-- 80 -->
      <g transform="translate(386.114489 75.540468)scale(0.1 -0.1)">
       <use xlink:href="#DejaVuSans-56"/>
       <use x="63.623047" xlink:href="#DejaVuSans-48"/>
      </g>
     </g>
    </g>
    <g id="ytick_13">
     <g id="line2d_33">
      <g>
       <use style="stroke:#000000;stroke-width:0.8;" x="405.839489" xlink:href="#me65d07fa58" y="32.201761"/>
      </g>
     </g>
     <g id="text_31">
      <!-- 100 -->
      <g transform="translate(379.751989 36.00098)scale(0.1 -0.1)">
       <use xlink:href="#DejaVuSans-49"/>
       <use x="63.623047" xlink:href="#DejaVuSans-48"/>
       <use x="127.246094" xlink:href="#DejaVuSans-48"/>
      </g>
     </g>
    </g>
    <g id="text_32">
     <!-- Volume (%) -->
     <g transform="translate(373.672301 159.876406)rotate(-90)scale(0.1 -0.1)">
      <use xlink:href="#DejaVuSans-86"/>
      <use x="60.658203" xlink:href="#DejaVuSans-111"/>
      <use x="121.839844" xlink:href="#DejaVuSans-108"/>
      <use x="149.623047" xlink:href="#DejaVuSans-117"/>
      <use x="213.001953" xlink:href="#DejaVuSans-109"/>
      <use x="310.414062" xlink:href="#DejaVuSans-101"/>
      <use x="371.9375" xlink:href="#DejaVuSans-32"/>
      <use x="403.724609" xlink:href="#DejaVuSans-40"/>
      <use x="442.738281" xlink:href="#DejaVuSans-37"/>
      <use x="537.757812" xlink:href="#DejaVuSans-41"/>
     </g>
    </g>
   </g>
   <g id="line2d_34">
    <path clip-path="url(#pbac3f34c84)" d="M 563.62279 229.874489 
L 563.503617 229.701503 
L 562.185874 229.503806 
L 558.922017 229.355533 
L 558.858729 229.256684 
L 557.579726 229.058987 
L 554.426574 228.910714 
L 554.271212 228.762441 
L 553.245991 228.614167 
L 550.226884 228.441182 
L 550.205307 228.367046 
L 549.04463 228.169348 
L 546.052959 227.996363 
L 546.009821 227.922226 
L 544.898426 227.724529 
L 542.020179 227.551544 
L 541.351203 227.27971 
L 538.019954 226.933739 
L 537.829964 226.834891 
L 535.564975 226.661905 
L 534.391542 226.538344 
L 534.324133 226.464208 
L 532.79537 226.217086 
L 530.755233 225.994676 
L 530.535047 225.895827 
L 530.375774 225.796979 
L 528.81386 225.599282 
L 527.248958 225.475721 
L 527.147156 225.35216 
L 525.532772 225.080326 
L 523.844886 224.932053 
L 523.756882 224.857916 
L 522.894669 224.635507 
L 520.533401 224.413097 
L 520.448251 224.33896 
L 518.949918 224.042414 
L 517.329642 223.918853 
L 517.265238 223.844717 
L 515.963206 223.54817 
L 514.318794 223.42461 
L 514.071802 223.276336 
L 512.960516 223.053927 
L 511.297438 222.905654 
L 511.188469 222.831517 
L 509.403482 222.534971 
L 508.378043 222.41141 
L 508.272423 222.337274 
L 506.908673 222.040728 
L 505.572702 221.917166 
L 505.493577 221.84303 
L 504.40156 221.546484 
L 502.924888 221.422923 
L 502.811514 221.348787 
L 502.416537 221.175801 
L 500.370828 220.805119 
L 500.082872 220.48386 
L 499.871985 220.335587 
L 499.584206 220.014329 
L 499.419612 219.866056 
L 499.331826 219.742494 
L 498.109095 219.248252 
L 497.88969 219.099978 
L 497.769534 218.951705 
L 497.685668 218.828143 
L 497.30385 218.630447 
L 496.91056 218.21034 
L 496.791504 218.037354 
L 496.452681 217.765521 
L 495.721164 217.592535 
L 495.606011 217.41955 
L 495.555933 217.295989 
L 494.440735 216.974731 
L 494.195497 216.653472 
L 494.149607 216.529911 
L 493.692215 216.332214 
L 491.643904 215.319016 
L 491.563017 215.195453 
L 491.178136 214.997757 
L 491.126237 214.948332 
L 490.702961 214.800059 
L 490.643735 214.676498 
L 489.135524 214.058694 
L 488.934956 213.762147 
L 488.180796 213.416178 
L 488.022097 213.218479 
L 487.891846 213.144344 
L 487.624729 212.971358 
L 486.664637 212.526538 
L 486.538368 212.304128 
L 486.387819 212.131143 
L 485.845641 211.933447 
L 485.606039 211.785174 
L 485.515916 211.661613 
L 484.364631 211.216793 
L 484.257471 210.944958 
L 484.060599 210.747261 
L 483.784041 210.574277 
L 483.566813 210.426004 
L 483.109429 210.228306 
L 482.994381 210.030608 
L 482.591246 209.808198 
L 481.998206 209.511652 
L 481.934402 209.412803 
L 481.814712 209.289242 
L 481.701098 209.091546 
L 481.240118 208.795001 
L 480.948944 208.671438 
L 480.895702 208.597302 
L 480.594415 208.473742 
L 480.503323 208.350181 
L 480.112542 208.152482 
L 479.754966 207.831223 
L 479.751089 207.806512 
L 479.379426 207.633525 
L 479.268712 207.435829 
L 477.744518 206.546191 
L 477.661281 206.397918 
L 477.313827 206.175508 
L 477.304885 206.150794 
L 476.944451 206.002524 
L 476.836003 205.804825 
L 476.383147 205.607129 
L 475.745069 205.310582 
L 475.632957 205.187021 
L 473.734197 204.692777 
L 473.637926 204.593928 
L 473.125756 204.420944 
L 471.882699 204.198534 
L 471.811858 204.074975 
L 469.892493 203.556017 
L 469.713129 203.48188 
L 468.314839 203.160621 
L 468.242303 203.086486 
L 466.445062 202.567532 
L 466.270343 202.468681 
L 465.004088 202.172136 
L 464.94075 202.073285 
L 463.285322 201.554331 
L 463.119255 201.480194 
L 461.965561 201.183648 
L 461.884704 201.084799 
L 460.510622 200.664693 
L 460.446915 200.590556 
L 459.472984 200.29401 
L 458.248248 200.244583 
L 431.461685 200.121022 
L 431.109736 199.132537 
L 430.989336 198.440595 
L 430.877479 197.773367 
L 430.761878 196.686032 
L 430.519497 194.882039 
L 430.454609 194.659631 
L 430.226872 193.399312 
L 430.01114 192.410825 
L 429.937509 191.941291 
L 429.833578 191.768306 
L 429.619723 190.507988 
L 429.190551 189.5195 
L 428.976163 188.728708 
L 428.886828 188.506299 
L 428.72734 188.110903 
L 428.517366 187.567236 
L 428.411413 187.418965 
L 427.774418 185.911521 
L 427.644481 185.590261 
L 427.54023 185.392563 
L 426.166303 181.883434 
L 426.067989 181.68574 
L 425.920321 181.438618 
L 425.523511 180.969085 
L 424.910024 180.499555 
L 424.260782 177.509383 
L 423.90872 174.914604 
L 423.788072 173.975537 
L 423.720588 173.357729 
L 423.547634 171.998566 
L 423.429691 170.787667 
L 423.300185 169.576768 
L 422.760596 160.952219 
L 422.540015 156.504026 
L 422.466954 155.095437 
L 422.225751 150.152993 
L 422.048226 145.432973 
L 421.906605 140.663518 
L 421.792857 136.31418 
L 421.536937 125.811503 
L 420.788234 80.810622 
L 420.507208 62.400048 
L 420.149629 36.724087 
L 420.032033 33.264397 
L 419.969008 32.201761 
L 419.969008 32.201761 
" style="fill:none;stroke:#ff7f0e;stroke-dasharray:5.55,2.4;stroke-dashoffset:0;stroke-opacity:0.666667;stroke-width:1.5;"/>
   </g>
   <g id="line2d_35">
    <path clip-path="url(#pbac3f34c84)" d="M 693.111145 229.874489 
L 692.992475 229.701503 
L 692.755117 229.602655 
L 692.229864 229.55323 
L 684.570552 229.380245 
L 684.21199 229.20726 
L 681.654556 229.133123 
L 676.518336 228.935426 
L 676.459421 228.861289 
L 672.655094 228.713016 
L 668.668515 228.589455 
L 668.666886 228.564743 
L 667.70643 228.367046 
L 660.931421 228.169348 
L 660.82581 228.070499 
L 656.923894 227.872802 
L 653.314542 227.749241 
L 652.844746 227.600968 
L 652.82598 227.551544 
L 651.153922 227.477407 
L 645.436001 227.205573 
L 645.369096 227.131436 
L 644.075121 227.032588 
L 638.273761 226.71133 
L 637.928174 226.563056 
L 631.623918 226.26651 
L 631.489588 226.217086 
L 631.276871 226.167662 
L 631.211678 226.14295 
L 624.965481 225.772267 
L 624.882446 225.722843 
L 622.490109 225.525145 
L 618.510965 225.401584 
L 618.463699 225.278023 
L 617.664245 225.154462 
L 612.242059 224.90734 
L 612.217452 224.857916 
L 610.28949 224.635507 
L 606.092947 224.487234 
L 606.047677 224.413097 
L 604.489875 224.215399 
L 604.263143 224.190687 
L 600.171658 224.017702 
L 599.648082 223.844717 
L 597.641314 223.721156 
L 594.30304 223.597595 
L 594.241154 223.498746 
L 592.534804 223.276336 
L 588.733801 223.152776 
L 588.662196 223.053927 
L 587.138518 222.831517 
L 585.483799 222.707956 
L 585.159227 222.534971 
L 583.554679 222.361986 
L 583.258389 222.213713 
L 581.466755 221.991303 
L 579.660333 221.867742 
L 579.583928 221.793606 
L 578.252036 221.571196 
L 578.156411 221.422923 
L 576.691078 221.175801 
L 573.989611 221.002816 
L 573.842977 220.879255 
L 573.1112 220.730982 
L 572.650451 220.459148 
L 568.425475 220.063753 
L 568.298731 219.816632 
L 566.94913 219.520085 
L 563.230239 219.347101 
L 563.106584 219.272963 
L 562.006996 219.050553 
L 557.95347 218.852856 
L 557.588152 218.679871 
L 555.852211 218.581023 
L 552.913941 218.383325 
L 552.885851 218.333901 
L 550.481471 218.062066 
L 548.210179 217.913794 
L 548.105928 217.839657 
L 547.31667 217.666672 
L 547.285475 217.64196 
L 545.023164 217.468974 
L 543.591031 217.221852 
L 543.571762 217.19714 
L 541.05911 216.950019 
L 539.189652 216.801746 
L 539.128261 216.678184 
L 537.998477 216.529911 
L 534.927555 216.307502 
L 534.780476 216.159229 
L 530.305923 215.590848 
L 529.859307 215.516712 
L 529.744069 215.492 
L 526.886502 215.294302 
L 526.783324 215.121317 
L 524.921831 214.898907 
L 523.063719 214.750635 
L 522.952821 214.651787 
L 522.930664 214.627075 
L 520.225068 214.355239 
L 519.249036 214.231678 
L 519.150365 214.157542 
L 518.193324 213.885707 
L 518.105589 213.712723 
L 517.887971 213.589162 
L 517.786539 213.515027 
L 517.479558 213.317328 
L 517.470687 213.218479 
L 517.228622 213.070207 
L 516.089161 212.279416 
L 515.792075 212.155855 
L 515.500938 211.711037 
L 515.094825 211.488627 
L 514.860505 211.340354 
L 514.724387 211.142656 
L 514.239401 210.895534 
L 514.118968 210.747261 
L 514.001758 210.697836 
L 513.764552 210.549563 
L 513.47804 210.426004 
L 513.401022 210.302443 
L 512.524071 209.931759 
L 512.344824 209.561076 
L 512.127206 209.412803 
L 512.122162 209.388091 
L 511.712901 209.239817 
L 511.543431 209.042121 
L 509.967031 208.325467 
L 509.676046 208.201906 
L 509.555941 208.053633 
L 509.081604 207.880649 
L 508.968213 207.757086 
L 508.775563 207.633525 
L 508.646905 207.509966 
L 508.543652 207.361693 
L 508.508672 207.31227 
L 507.742259 207.114572 
L 507.405803 206.818024 
L 507.385787 206.768601 
L 506.992128 206.620328 
L 505.605961 205.780114 
L 505.304217 205.409431 
L 504.858331 205.236444 
L 504.7122 205.162307 
L 504.263906 204.939899 
L 503.175917 204.396232 
L 502.929538 204.173822 
L 502.362481 203.605441 
L 501.9161 203.457166 
L 501.820929 203.308896 
L 501.287467 202.987636 
L 499.876148 202.765226 
L 498.118923 202.592242 
L 486.470338 202.196846 
L 485.520843 202.122712 
L 481.12068 201.925014 
L 481.109661 201.87559 
L 480.29471 201.826163 
L 471.266608 201.356633 
L 463.035964 201.035376 
L 462.023885 200.985952 
L 456.732211 200.812964 
L 454.334033 200.714117 
L 438.061609 200.195159 
L 438.046731 200.145736 
L 437.810314 199.997463 
L 437.64043 199.923326 
L 437.351971 199.651494 
L 437.087095 199.354949 
L 436.901222 199.18196 
L 436.751813 199.0584 
L 436.629863 198.786568 
L 436.347219 198.638293 
L 435.387095 197.526245 
L 435.28589 197.427398 
L 434.259697 195.994091 
L 434.159017 195.919953 
L 434.025082 195.746969 
L 433.82363 195.549271 
L 433.514032 195.252725 
L 433.376206 195.030313 
L 433.179943 194.783192 
L 432.240956 193.424026 
L 431.879634 191.570608 
L 431.403254 188.555723 
L 431.332947 188.259178 
L 431.190158 187.394251 
L 430.508579 185.120732 
L 430.381018 184.923033 
L 430.164013 184.675912 
L 430.010547 184.40408 
L 429.738405 183.761562 
L 429.585055 183.662711 
L 428.949585 183.415589 
L 428.769242 183.168467 
L 428.437682 182.946059 
L 428.307739 182.847208 
L 427.287563 182.501239 
L 426.886218 182.204694 
L 426.573816 181.982285 
L 425.542419 181.092645 
L 425.373292 180.573688 
L 425.187798 179.511064 
L 425.046568 178.868549 
L 424.543698 173.9014 
L 424.381165 172.245688 
L 424.315452 171.800864 
L 424.178252 170.911224 
L 424.088969 170.268706 
L 423.848955 168.612995 
L 423.763332 168.094041 
L 423.610589 167.006703 
L 423.561842 166.561887 
L 423.10559 159.444774 
L 422.975866 157.146545 
L 422.879438 155.737947 
L 422.723714 153.662126 
L 422.660135 152.723066 
L 422.190533 142.492225 
L 421.960376 135.844642 
L 421.887401 134.040656 
L 421.663572 126.256327 
L 421.590484 123.192011 
L 421.473136 118.323708 
L 421.309085 111.601992 
L 421.032456 99.221196 
L 420.900343 92.845457 
L 420.810482 87.45819 
L 420.638333 78.092283 
L 420.544472 72.927431 
L 420.378329 60.942024 
L 420.310008 56.815087 
L 420.171828 47.078497 
L 420.133268 45.398056 
L 419.729279 32.399456 
L 419.674199 32.201761 
L 419.674199 32.201761 
" style="fill:none;stroke:#2ca02c;stroke-dasharray:5.55,2.4;stroke-dashoffset:0;stroke-opacity:0.666667;stroke-width:1.5;"/>
   </g>
   <g id="line2d_36">
    <path clip-path="url(#pbac3f34c84)" d="M 563.621515 229.874489 
L 563.514359 229.701503 
L 562.203885 229.503806 
L 558.92811 229.355533 
L 558.86765 229.256684 
L 557.607128 229.058987 
L 554.446523 228.910714 
L 554.295131 228.762441 
L 553.263028 228.614167 
L 550.252322 228.441182 
L 550.242545 228.367046 
L 549.061953 228.169348 
L 546.065195 227.996363 
L 546.02852 227.922226 
L 544.921681 227.724529 
L 542.062444 227.551544 
L 541.391672 227.27971 
L 538.104575 226.933739 
L 537.906176 226.834891 
L 535.597152 226.661905 
L 534.511706 226.538344 
L 534.434554 226.464208 
L 532.919285 226.217086 
L 530.904788 225.994676 
L 530.798807 225.92054 
L 528.823158 225.599282 
L 527.432762 225.475721 
L 527.055158 225.253311 
L 524.915838 225.055613 
L 524.062798 224.932053 
L 523.965957 224.857916 
L 522.447667 224.586082 
L 520.773746 224.388384 
L 519.901319 224.141263 
L 517.628592 223.894141 
L 517.295971 223.745868 
L 516.245883 223.54817 
L 514.63311 223.42461 
L 514.532946 223.325761 
L 513.2797 223.053927 
L 511.664392 222.930366 
L 511.538253 222.831517 
L 509.711253 222.534971 
L 508.766473 222.41141 
L 508.660308 222.337274 
L 507.251641 222.040728 
L 506.000535 221.917166 
L 505.911927 221.84303 
L 504.779307 221.546484 
L 503.381198 221.422923 
L 503.381114 221.398211 
L 502.293091 221.052241 
L 500.834271 220.92868 
L 500.749817 220.681558 
L 499.670028 220.162602 
L 499.407787 219.964904 
L 499.146603 219.866056 
L 498.499028 219.717782 
L 498.014193 219.174115 
L 497.835256 218.926993 
L 497.738927 218.852856 
L 496.602874 218.43275 
L 496.198606 218.259764 
L 496.083746 217.963218 
L 495.334286 217.592535 
L 495.32367 217.567823 
L 494.534421 217.41955 
L 494.410262 217.246565 
L 494.040311 217.07358 
L 493.731887 216.826458 
L 491.796128 215.986243 
L 491.611039 215.862682 
L 491.125809 215.590848 
L 490.95623 215.467288 
L 489.831264 215.195453 
L 489.691872 214.997757 
L 489.546573 214.775347 
L 489.309719 214.602361 
L 488.007121 214.182255 
L 487.94928 214.108117 
L 487.822981 213.959845 
L 487.727138 213.81157 
L 487.403859 213.638586 
L 487.29335 213.539738 
L 486.566877 213.34204 
L 486.504156 213.193768 
L 485.854315 212.823085 
L 485.734705 212.650098 
L 484.983352 212.254704 
L 484.901034 212.155855 
L 484.49307 211.958159 
L 484.132171 211.859309 
L 483.938283 211.711037 
L 483.836607 211.587476 
L 483.538312 211.414489 
L 483.43033 211.241505 
L 483.125476 211.068519 
L 482.836916 210.944958 
L 482.110149 210.747261 
L 482.040676 210.524851 
L 481.973289 210.376579 
L 481.708144 210.154169 
L 481.591106 210.030608 
L 481.14449 209.832911 
L 481.068898 209.684637 
L 480.664497 209.536364 
L 480.239567 208.967985 
L 479.772549 208.770287 
L 479.278725 208.473742 
L 479.176558 208.350181 
L 477.812296 207.386405 
L 477.703038 207.31227 
L 477.490212 207.188707 
L 477.057486 207.015723 
L 476.956386 206.86745 
L 475.674689 206.027235 
L 475.321503 205.829539 
L 475.212123 205.557704 
L 474.945958 205.335294 
L 474.684015 205.162307 
L 474.390395 205.038746 
L 473.931194 204.865762 
L 473.817774 204.692777 
L 473.714537 204.495079 
L 473.633033 204.420944 
L 472.668952 203.877276 
L 472.560848 203.729002 
L 472.111172 203.358319 
L 471.972465 203.234758 
L 471.440837 202.913501 
L 471.219019 202.691091 
L 470.916716 202.542818 
L 470.156505 201.999151 
L 469.337278 201.801453 
L 469.266278 201.677892 
L 467.676672 201.060086 
L 467.672304 201.035376 
L 466.524753 200.73883 
L 466.456107 200.590556 
L 464.550041 200.269297 
L 464.116995 200.244583 
L 431.385948 200.121022 
L 431.234463 199.775053 
L 431.154089 199.577357 
L 430.953717 199.18196 
L 430.504047 197.921638 
L 430.325573 197.303837 
L 430.214837 196.809593 
L 429.664506 194.560784 
L 429.514184 193.720571 
L 429.323653 192.830931 
L 429.195318 192.114275 
L 429.096309 191.694169 
L 428.338438 187.27069 
L 428.290924 187.072992 
L 428.144429 186.455188 
L 427.794539 184.997171 
L 427.659195 184.577064 
L 427.413195 183.712138 
L 427.2558 183.440303 
L 427.025177 182.550663 
L 426.844899 182.056419 
L 426.731201 181.68574 
L 426.278747 180.894947 
L 425.612039 180.474841 
L 424.885584 180.351276 
L 424.770869 180.030025 
L 424.601009 179.436926 
L 424.49222 178.942687 
L 424.432418 178.621427 
L 424.307884 177.805925 
L 424.159547 176.842147 
L 423.852148 174.618055 
L 423.829945 174.370933 
L 423.695914 173.333019 
L 423.029211 166.240624 
L 422.918302 164.21423 
L 422.772176 161.372329 
L 422.65433 158.505715 
L 422.189297 149.238647 
L 421.654438 131.025767 
L 421.462494 122.796607 
L 421.283896 114.221478 
L 421.052036 98.628113 
L 421.026223 96.700551 
L 420.905637 88.71852 
L 420.531739 61.485695 
L 420.274635 42.037206 
L 420.230556 39.368294 
L 420.047882 32.720711 
L 420.005771 32.201761 
L 420.005771 32.201761 
" style="fill:none;stroke:#ff7f0e;stroke-dasharray:1.5,2.475;stroke-dashoffset:0;stroke-opacity:0.666667;stroke-width:1.5;"/>
   </g>
   <g id="line2d_37">
    <path clip-path="url(#pbac3f34c84)" d="M 696.368414 229.874489 
L 696.079829 229.602655 
L 693.188121 229.528518 
L 687.328886 229.330821 
L 687.22544 229.256684 
L 686.46444 229.157835 
L 678.853906 228.960138 
L 678.823223 228.861289 
L 675.020004 228.713016 
L 670.608176 228.589455 
L 670.505133 228.515319 
L 669.675146 228.367046 
L 662.448301 228.169348 
L 662.387757 228.095212 
L 659.251575 227.872802 
L 654.58396 227.749241 
L 654.098302 227.600968 
L 653.858108 227.526831 
L 653.733278 227.502119 
L 646.654158 227.27971 
L 645.881811 227.0573 
L 639.385048 226.760754 
L 638.796145 226.563056 
L 632.341915 226.26651 
L 632.324928 226.241798 
L 631.173274 226.068813 
L 625.443334 225.796979 
L 625.378863 225.722843 
L 622.98807 225.525145 
L 618.929097 225.401584 
L 618.577015 225.203887 
L 616.682404 225.080326 
L 612.499793 224.956765 
L 612.479701 224.857916 
L 610.564428 224.635507 
L 606.308332 224.487234 
L 606.275635 224.413097 
L 604.479855 224.190687 
L 600.346256 224.017702 
L 599.875352 223.844717 
L 597.858815 223.721156 
L 594.42641 223.597595 
L 594.371926 223.498746 
L 592.705575 223.276336 
L 588.867947 223.152776 
L 588.424553 222.955079 
L 587.23953 222.831517 
L 583.613208 222.707956 
L 583.364605 222.584395 
L 583.1204 222.510259 
L 579.213549 222.361986 
L 578.24178 222.238425 
L 578.180615 222.164289 
L 576.733914 221.941879 
L 573.084563 221.793606 
L 573.019302 221.694758 
L 571.620858 221.49706 
L 568.382152 221.348787 
L 568.346065 221.249938 
L 566.968484 221.052241 
L 563.648673 220.903968 
L 562.603083 220.656845 
L 559.734454 220.533284 
L 559.616825 220.409723 
L 558.576077 220.261451 
L 555.895432 220.113178 
L 555.715564 219.989617 
L 555.693139 219.964904 
L 552.343351 219.668358 
L 551.959804 219.569509 
L 551.089425 219.470661 
L 548.579198 219.347101 
L 548.447595 219.272963 
L 547.304308 219.075266 
L 545.396261 218.926993 
L 544.846736 218.803432 
L 544.469123 218.581023 
L 541.299044 218.309188 
L 541.23876 218.185627 
L 538.8018 217.938505 
L 537.970379 217.814945 
L 537.922877 217.691384 
L 537.748985 217.543111 
L 537.230847 217.295989 
L 534.705691 216.702897 
L 533.668535 216.159229 
L 532.268177 215.887396 
L 532.197101 215.739121 
L 532.110767 215.689697 
L 531.275938 215.294302 
L 531.097446 215.146029 
L 530.081549 214.898907 
L 530.048852 214.775347 
L 528.616602 214.404665 
L 528.154074 214.281102 
L 528.057367 214.157542 
L 527.719291 213.81157 
L 526.244239 213.539738 
L 525.919592 213.391466 
L 525.811034 213.243191 
L 525.146288 213.070207 
L 525.044949 212.946646 
L 523.045784 212.229992 
L 522.214346 212.106431 
L 521.980925 211.785174 
L 521.518691 211.538052 
L 520.248727 211.340354 
L 520.095144 211.093232 
L 518.228749 210.327155 
L 518.019171 210.129457 
L 517.309274 209.956472 
L 516.215578 209.536364 
L 516.168504 209.462227 
L 515.721888 209.215105 
L 515.478237 209.165681 
L 514.995633 208.992697 
L 514.990824 208.967985 
L 514.449835 208.819712 
L 514.156281 208.572591 
L 513.859622 208.44903 
L 513.529486 208.325467 
L 513.410942 208.177194 
L 512.649581 207.930072 
L 512.500262 207.757086 
L 512.376791 207.658239 
L 511.751867 207.460541 
L 511.747965 207.435829 
L 510.818494 207.213421 
L 510.599911 207.065146 
L 510.511831 206.892162 
L 510.39113 206.793313 
L 509.869015 206.620328 
L 508.919234 206.42263 
L 508.723646 206.274357 
L 507.708345 205.656553 
L 506.946447 205.50828 
L 506.902613 205.384719 
L 506.396847 205.162307 
L 505.874094 205.038746 
L 505.628781 204.915185 
L 505.517638 204.841048 
L 505.034288 204.643354 
L 504.989103 204.519793 
L 503.488605 204.099685 
L 503.284726 203.976124 
L 503.168213 203.778425 
L 502.622514 203.432456 
L 501.742425 203.234758 
L 501.366256 202.962925 
L 501.196173 202.913501 
L 500.973201 202.864076 
L 500.507651 202.765226 
L 497.496316 202.518105 
L 488.298891 202.34512 
L 479.758118 201.850877 
L 478.526512 201.727316 
L 475.686145 201.579041 
L 475.617708 201.529618 
L 471.406012 201.356633 
L 460.66204 200.936525 
L 460.470233 200.911815 
L 455.076435 200.714117 
L 441.886523 200.31872 
L 435.416689 200.145736 
L 434.736946 199.0584 
L 434.638382 198.910129 
L 434.545399 198.71243 
L 434.391637 198.539442 
L 434.311475 198.366458 
L 434.1964 198.218187 
L 433.995926 197.72394 
L 433.692465 197.081429 
L 433.585844 196.908441 
L 432.96898 194.288948 
L 432.661274 192.657946 
L 432.566981 192.237836 
L 432.341447 191.175216 
L 432.270305 190.977517 
L 432.103636 190.013744 
L 431.986957 189.593634 
L 431.847861 188.827559 
L 431.749341 188.531009 
L 431.558542 187.59195 
L 431.389061 187.072992 
L 430.708792 185.194869 
L 430.529364 184.997171 
L 430.310221 184.577064 
L 430.228175 184.42879 
L 430.047288 184.231092 
L 428.739438 182.698937 
L 428.613819 182.575376 
L 427.9033 182.451815 
L 427.010758 182.328254 
L 426.447886 182.031709 
L 425.882572 181.537465 
L 425.509963 181.315057 
L 425.081781 179.535774 
L 424.945435 178.250749 
L 424.707167 175.977225 
L 424.429866 173.061187 
L 424.370012 172.369245 
L 424.236647 171.084209 
L 424.19546 170.664103 
L 424.121889 170.120439 
L 423.877773 168.514147 
L 423.792621 167.921057 
L 423.295299 163.250449 
L 422.729751 153.909248 
L 422.292162 145.877789 
L 421.617796 124.625307 
L 421.381601 114.641595 
L 421.313915 111.725553 
L 420.757242 84.566877 
L 420.622931 77.375623 
L 420.558307 72.037798 
L 420.428057 62.3259 
L 420.370673 58.050696 
L 420.11488 42.259622 
L 419.74668 32.473604 
L 419.710475 32.201761 
L 419.710475 32.201761 
" style="fill:none;stroke:#2ca02c;stroke-dasharray:1.5,2.475;stroke-dashoffset:0;stroke-opacity:0.666667;stroke-width:1.5;"/>
   </g>
   <g id="patch_9">
    <path d="M 405.839489 239.758125 
L 405.839489 22.318125 
" style="fill:none;stroke:#000000;stroke-linecap:square;stroke-linejoin:miter;stroke-width:0.8;"/>
   </g>
   <g id="patch_10">
    <path d="M 710.203125 239.758125 
L 710.203125 22.318125 
" style="fill:none;stroke:#000000;stroke-linecap:square;stroke-linejoin:miter;stroke-width:0.8;"/>
   </g>
   <g id="patch_11">
    <path d="M 405.839489 239.758125 
L 710.203125 239.758125 
" style="fill:none;stroke:#000000;stroke-linecap:square;stroke-linejoin:miter;stroke-width:0.8;"/>
   </g>
   <g id="patch_12">
    <path d="M 405.839489 22.318125 
L 710.203125 22.318125 
" style="fill:none;stroke:#000000;stroke-linecap:square;stroke-linejoin:miter;stroke-width:0.8;"/>
   </g>
   <g id="text_33">
    <!-- dotted: dose 1 ;  dashed: dose 2 -->
    <g transform="translate(460.778182 16.318125)scale(0.12 -0.12)">
     <defs>
      <path d="M 45.40625 46.390625 
L 45.40625 75.984375 
L 54.390625 75.984375 
L 54.390625 0 
L 45.40625 0 
L 45.40625 8.203125 
Q 42.578125 3.328125 38.25 0.953125 
Q 33.9375 -1.421875 27.875 -1.421875 
Q 17.96875 -1.421875 11.734375 6.484375 
Q 5.515625 14.40625 5.515625 27.296875 
Q 5.515625 40.1875 11.734375 48.09375 
Q 17.96875 56 27.875 56 
Q 33.9375 56 38.25 53.625 
Q 42.578125 51.265625 45.40625 46.390625 
z
M 14.796875 27.296875 
Q 14.796875 17.390625 18.875 11.75 
Q 22.953125 6.109375 30.078125 6.109375 
Q 37.203125 6.109375 41.296875 11.75 
Q 45.40625 17.390625 45.40625 27.296875 
Q 45.40625 37.203125 41.296875 42.84375 
Q 37.203125 48.484375 30.078125 48.484375 
Q 22.953125 48.484375 18.875 42.84375 
Q 14.796875 37.203125 14.796875 27.296875 
z
" id="DejaVuSans-100"/>
      <path d="M 18.3125 70.21875 
L 18.3125 54.6875 
L 36.8125 54.6875 
L 36.8125 47.703125 
L 18.3125 47.703125 
L 18.3125 18.015625 
Q 18.3125 11.328125 20.140625 9.421875 
Q 21.96875 7.515625 27.59375 7.515625 
L 36.8125 7.515625 
L 36.8125 0 
L 27.59375 0 
Q 17.1875 0 13.234375 3.875 
Q 9.28125 7.765625 9.28125 18.015625 
L 9.28125 47.703125 
L 2.6875 47.703125 
L 2.6875 54.6875 
L 9.28125 54.6875 
L 9.28125 70.21875 
z
" id="DejaVuSans-116"/>
      <path d="M 11.71875 12.40625 
L 22.015625 12.40625 
L 22.015625 0 
L 11.71875 0 
z
M 11.71875 51.703125 
L 22.015625 51.703125 
L 22.015625 39.3125 
L 11.71875 39.3125 
z
" id="DejaVuSans-58"/>
      <path d="M 11.71875 51.703125 
L 22.015625 51.703125 
L 22.015625 39.3125 
L 11.71875 39.3125 
z
M 11.71875 12.40625 
L 22.015625 12.40625 
L 22.015625 4 
L 14.015625 -11.625 
L 7.71875 -11.625 
L 11.71875 4 
z
" id="DejaVuSans-59"/>
      <path d="M 34.28125 27.484375 
Q 23.390625 27.484375 19.1875 25 
Q 14.984375 22.515625 14.984375 16.5 
Q 14.984375 11.71875 18.140625 8.90625 
Q 21.296875 6.109375 26.703125 6.109375 
Q 34.1875 6.109375 38.703125 11.40625 
Q 43.21875 16.703125 43.21875 25.484375 
L 43.21875 27.484375 
z
M 52.203125 31.203125 
L 52.203125 0 
L 43.21875 0 
L 43.21875 8.296875 
Q 40.140625 3.328125 35.546875 0.953125 
Q 30.953125 -1.421875 24.3125 -1.421875 
Q 15.921875 -1.421875 10.953125 3.296875 
Q 6 8.015625 6 15.921875 
Q 6 25.140625 12.171875 29.828125 
Q 18.359375 34.515625 30.609375 34.515625 
L 43.21875 34.515625 
L 43.21875 35.40625 
Q 43.21875 41.609375 39.140625 45 
Q 35.0625 48.390625 27.6875 48.390625 
Q 23 48.390625 18.546875 47.265625 
Q 14.109375 46.140625 10.015625 43.890625 
L 10.015625 52.203125 
Q 14.9375 54.109375 19.578125 55.046875 
Q 24.21875 56 28.609375 56 
Q 40.484375 56 46.34375 49.84375 
Q 52.203125 43.703125 52.203125 31.203125 
z
" id="DejaVuSans-97"/>
      <path d="M 54.890625 33.015625 
L 54.890625 0 
L 45.90625 0 
L 45.90625 32.71875 
Q 45.90625 40.484375 42.875 44.328125 
Q 39.84375 48.1875 33.796875 48.1875 
Q 26.515625 48.1875 22.3125 43.546875 
Q 18.109375 38.921875 18.109375 30.90625 
L 18.109375 0 
L 9.078125 0 
L 9.078125 75.984375 
L 18.109375 75.984375 
L 18.109375 46.1875 
Q 21.34375 51.125 25.703125 53.5625 
Q 30.078125 56 35.796875 56 
Q 45.21875 56 50.046875 50.171875 
Q 54.890625 44.34375 54.890625 33.015625 
z
" id="DejaVuSans-104"/>
     </defs>
     <use xlink:href="#DejaVuSans-100"/>
     <use x="63.476562" xlink:href="#DejaVuSans-111"/>
     <use x="124.658203" xlink:href="#DejaVuSans-116"/>
     <use x="163.867188" xlink:href="#DejaVuSans-116"/>
     <use x="203.076172" xlink:href="#DejaVuSans-101"/>
     <use x="264.599609" xlink:href="#DejaVuSans-100"/>
     <use x="328.076172" xlink:href="#DejaVuSans-58"/>
     <use x="361.767578" xlink:href="#DejaVuSans-32"/>
     <use x="393.554688" xlink:href="#DejaVuSans-100"/>
     <use x="457.03125" xlink:href="#DejaVuSans-111"/>
     <use x="518.212891" xlink:href="#DejaVuSans-115"/>
     <use x="570.3125" xlink:href="#DejaVuSans-101"/>
     <use x="631.835938" xlink:href="#DejaVuSans-32"/>
     <use x="663.623047" xlink:href="#DejaVuSans-49"/>
     <use x="727.246094" xlink:href="#DejaVuSans-32"/>
     <use x="759.033203" xlink:href="#DejaVuSans-59"/>
     <use x="792.724609" xlink:href="#DejaVuSans-32"/>
     <use x="824.511719" xlink:href="#DejaVuSans-32"/>
     <use x="856.298828" xlink:href="#DejaVuSans-100"/>
     <use x="919.775391" xlink:href="#DejaVuSans-97"/>
     <use x="981.054688" xlink:href="#DejaVuSans-115"/>
     <use x="1033.154297" xlink:href="#DejaVuSans-104"/>
     <use x="1096.533203" xlink:href="#DejaVuSans-101"/>
     <use x="1158.056641" xlink:href="#DejaVuSans-100"/>
     <use x="1221.533203" xlink:href="#DejaVuSans-58"/>
     <use x="1255.224609" xlink:href="#DejaVuSans-32"/>
     <use x="1287.011719" xlink:href="#DejaVuSans-100"/>
     <use x="1350.488281" xlink:href="#DejaVuSans-111"/>
     <use x="1411.669922" xlink:href="#DejaVuSans-115"/>
     <use x="1463.769531" xlink:href="#DejaVuSans-101"/>
     <use x="1525.292969" xlink:href="#DejaVuSans-32"/>
     <use x="1557.080078" xlink:href="#DejaVuSans-50"/>
    </g>
   </g>
  </g>
 </g>
 <defs>
  <clipPath id="p3a3cdb3812">
   <rect height="217.44" width="304.363636" x="40.603125" y="22.318125"/>
  </clipPath>
  <clipPath id="pbac3f34c84">
   <rect height="217.44" width="304.363636" x="405.839489" y="22.318125"/>
  </clipPath>
 </defs>
</svg>
