<?xml version="1.0" encoding="UTF-8" standalone="no"?>
<!-- Created with matplotlib (https://matplotlib.org/) -->

<svg
   height="275pt"
   version="1.1"
   viewBox="0 0 450.00001 275.00001"
   width="450pt"
   id="svg175176"
   sodipodi:docname="example_dvh.svg"
   inkscape:version="1.2.1 (9c6d41e410, 2022-07-14)"
   xmlns:inkscape="http://www.inkscape.org/namespaces/inkscape"
   xmlns:sodipodi="http://sodipodi.sourceforge.net/DTD/sodipodi-0.dtd"
   xmlns:xlink="http://www.w3.org/1999/xlink"
   xmlns="http://www.w3.org/2000/svg"
   xmlns:svg="http://www.w3.org/2000/svg"
   xmlns:rdf="http://www.w3.org/1999/02/22-rdf-syntax-ns#"
   xmlns:cc="http://creativecommons.org/ns#"
   xmlns:dc="http://purl.org/dc/elements/1.1/">
  <sodipodi:namedview
     id="namedview175178"
     pagecolor="#ffffff"
     bordercolor="#000000"
     borderopacity="0.25"
     inkscape:showpageshadow="2"
     inkscape:pageopacity="0.0"
     inkscape:pagecheckerboard="0"
     inkscape:deskcolor="#d1d1d1"
     inkscape:document-units="pt"
     showgrid="false"
     inkscape:zoom="0.87432395"
     inkscape:cx="229.32004"
     inkscape:cy="182.42666"
     inkscape:window-width="1920"
     inkscape:window-height="991"
     inkscape:window-x="-9"
     inkscape:window-y="-9"
     inkscape:window-maximized="1"
     inkscape:current-layer="svg175176" />
  <metadata
     id="metadata174514">
    <rdf:RDF>
      <cc:Work>
        <dc:type
           rdf:resource="http://purl.org/dc/dcmitype/StillImage" />
        <dc:date>2023-04-19T11:36:09.589385</dc:date>
        <dc:format>image/svg+xml</dc:format>
        <dc:creator>
          <cc:Agent>
            <dc:title>Matplotlib v3.3.2, https://matplotlib.org/</dc:title>
          </cc:Agent>
        </dc:creator>
      </cc:Work>
    </rdf:RDF>
  </metadata>
  <defs
     id="defs174518">
    <style
       type="text/css"
       id="style174516">*{stroke-linecap:butt;stroke-linejoin:round;}</style>
  </defs>
  <g
     id="legend_1"
     transform="translate(-357.4429,-1.1571888)">
    <g
       id="patch_7">
      <path
         d="m 727.42131,54.674375 h 68.89062 q 2,0 2,-2 v -28.35625 q 0,-2 -2,-2 h -68.89062 q -2,0 -2,2 v 28.35625 q 0,2 2,2 z"
         style="opacity:0.8;fill:#ffffff;stroke:#cccccc;stroke-linejoin:miter"
         id="path174806" />
    </g>
    <g
       id="line2d_17">
      <path
         d="m 729.42131,30.416562 h 20"
         style="fill:none;stroke:#ff7f0e;stroke-width:1.5;stroke-linecap:square"
         id="path174809" />
    </g>
    <g
       id="line2d_18" />
    <g
       id="text_16">
      <!-- PTV -->
      <g
         transform="matrix(0.1,0,0,-0.1,757.42131,33.916562)"
         id="g174823">
        <defs
           id="defs174815">
          <path
             d="M 19.671875,64.796875 V 37.40625 h 12.40625 q 6.890625,0 10.640625,3.5625 3.765625,3.5625 3.765625,10.15625 0,6.546875 -3.765625,10.109375 -3.75,3.5625 -10.640625,3.5625 z M 9.8125,72.90625 h 22.265625 q 12.265625,0 18.53125,-5.546875 6.28125,-5.546875 6.28125,-16.234375 0,-10.796875 -6.28125,-16.3125 -6.265625,-5.515625 -18.53125,-5.515625 H 19.671875 V 0 H 9.8125 Z"
             id="DejaVuSans-80" />
          <path
             d="M -0.296875,72.90625 H 61.375 v -8.3125 H 35.5 V 0 H 25.59375 V 64.59375 H -0.296875 Z"
             id="DejaVuSans-84" />
        </defs>
        <use
           xlink:href="#DejaVuSans-80"
           id="use174817" />
        <use
           x="60.302734"
           xlink:href="#DejaVuSans-84"
           id="use174819" />
        <path
           d="m 149.99609,0 -27.82812,72.90625 h 10.29687 l 23.10938,-61.375 23.14062,61.375 h 10.25 L 161.18359,0 Z"
           id="use174821" />
      </g>
    </g>
    <g
       id="line2d_19">
      <path
         d="m 729.42131,45.094687 h 20"
         style="fill:none;stroke:#2ca02c;stroke-width:1.5;stroke-linecap:square"
         id="path174826" />
    </g>
    <g
       id="line2d_20" />
    <g
       id="text_17">
      <!-- ORGAN -->
      <g
         transform="matrix(0.1,0,0,-0.1,757.42131,48.594687)"
         id="g174846">
        <defs
           id="defs174834">
          <path
             d="m 39.40625,66.21875 q -10.75,0 -17.078125,-8.015625 -6.3125,-8 -6.3125,-21.828125 0,-13.765625 6.3125,-21.78125 6.328125,-8 17.078125,-8 10.734375,0 17.015625,8 6.28125,8.015625 6.28125,21.78125 0,13.828125 -6.28125,21.828125 -6.28125,8.015625 -17.015625,8.015625 z m 0,8 q 15.328125,0 24.5,-10.28125 9.1875,-10.28125 9.1875,-27.5625 0,-17.234375 -9.1875,-27.515625 -9.171875,-10.28125 -24.5,-10.28125 -15.375,0 -24.59375,10.25 Q 5.609375,19.09375 5.609375,36.375 q 0,17.28125 9.203125,27.5625 9.21875,10.28125 24.59375,10.28125 z"
             id="DejaVuSans-79" />
          <path
             d="m 44.390625,34.1875 q 3.171875,-1.078125 6.171875,-4.59375 3,-3.515625 6.03125,-9.671875 L 66.609375,0 H 56 l -9.3125,18.703125 q -3.625,7.328125 -7.015625,9.71875 -3.390625,2.390625 -9.25,2.390625 h -10.75 V 0 H 9.8125 v 72.90625 h 22.265625 q 12.5,0 18.65625,-5.234375 6.15625,-5.21875 6.15625,-15.765625 0,-6.890625 -3.203125,-11.4375 -3.203125,-4.53125 -9.296875,-6.28125 z m -24.71875,30.609375 v -25.875 h 12.40625 q 7.125,0 10.765625,3.296875 3.640625,3.296875 3.640625,9.6875 0,6.390625 -3.640625,9.640625 -3.640625,3.25 -10.765625,3.25 z"
             id="DejaVuSans-82" />
          <path
             d="M 34.1875,63.1875 20.796875,26.90625 h 26.8125 z m -5.578125,9.71875 h 11.1875 L 67.578125,0 h -10.25 L 50.6875,18.703125 H 17.828125 L 11.1875,0 H 0.78125 Z"
             id="DejaVuSans-65" />
          <path
             d="M 9.8125,72.90625 H 23.09375 L 55.421875,11.921875 V 72.90625 h 9.5625 V 0 h -13.28125 l -32.3125,60.984375 V 0 H 9.8125 Z"
             id="DejaVuSans-78" />
        </defs>
        <use
           xlink:href="#DejaVuSans-79"
           id="use174836" />
        <use
           x="78.710938"
           xlink:href="#DejaVuSans-82"
           id="use174838" />
        <path
           d="m 207.70898,10.40625 v 19.578125 h -16.10937 v 8.109375 h 25.875 V 6.78125 q -5.70313,-4.046875 -12.59375,-6.125 -6.875,-2.078125 -14.6875,-2.078125 -17.09375,0 -26.75,9.984375 -9.64063,10 -9.64063,27.8125 0,17.875 9.64063,27.859375 9.65625,9.984375 26.75,9.984375 7.125,0 13.54687,-1.765625 6.42188,-1.75 11.84375,-5.171875 v -10.5 q -5.46875,4.640625 -11.625,6.984375 -6.15625,2.34375 -12.9375,2.34375 -13.39062,0 -20.10937,-7.46875 -6.70313,-7.46875 -6.70313,-22.265625 0,-14.75 6.70313,-22.21875 6.71875,-7.46875 20.10937,-7.46875 5.21875,0 9.3125,0.90625 4.10938,0.90625 7.375,2.8125 z"
           id="use174840" />
        <use
           x="225.68359"
           xlink:href="#DejaVuSans-65"
           id="use174842" />
        <use
           x="294.0918"
           xlink:href="#DejaVuSans-78"
           id="use174844" />
      </g>
    </g>
  </g>
  <g
     id="axes_2"
     transform="translate(-357.4429,-1.1571888)">
    <g
       id="patch_8">
      <path
         d="M 405.83949,239.75812 H 710.20312 V 22.318125 H 405.83949 Z"
         style="fill:#ffffff"
         id="path174851" />
    </g>
    <g
       id="matplotlib.axis_3">
      <g
         id="xtick_7">
        <g
           id="line2d_21">
          <g
             id="g174856">
            <path
               d="m 419.25754,239.75812 v 3.5"
               id="use174854"
               style="stroke:#000000;stroke-width:0.8" />
          </g>
        </g>
        <g
           id="text_18">
          <!-- 0 -->
          <g
             transform="matrix(0.1,0,0,-0.1,416.07628,254.35656)"
             id="g174861">
            <path
               d="m 31.78125,66.40625 q -7.609375,0 -11.453125,-7.5 Q 16.5,51.421875 16.5,36.375 q 0,-14.984375 3.828125,-22.484375 3.84375,-7.5 11.453125,-7.5 7.671875,0 11.5,7.5 3.84375,7.5 3.84375,22.484375 0,15.046875 -3.84375,22.53125 -3.828125,7.5 -11.5,7.5 z m 0,7.8125 q 12.265625,0 18.734375,-9.703125 6.46875,-9.6875 6.46875,-28.140625 0,-18.40625 -6.46875,-28.109375 -6.46875,-9.6875 -18.734375,-9.6875 -12.25,0 -18.71875,9.6875 Q 6.59375,17.96875 6.59375,36.375 q 0,18.453125 6.46875,28.140625 6.46875,9.703125 18.71875,9.703125 z"
               id="use174859" />
          </g>
        </g>
      </g>
      <g
         id="xtick_8">
        <g
           id="line2d_22">
          <g
             id="g174867">
            <path
               d="m 463.25848,239.75812 v 3.5"
               id="use174865"
               style="stroke:#000000;stroke-width:0.8" />
          </g>
        </g>
        <g
           id="text_19">
          <!-- 10 -->
          <g
             transform="matrix(0.1,0,0,-0.1,456.89598,254.35656)"
             id="g174874">
            <path
               d="m 12.40625,8.296875 h 16.109375 v 55.625 L 10.984375,60.40625 v 8.984375 l 17.4375,3.515625 H 38.28125 V 8.296875 H 54.390625 V 0 H 12.40625 Z"
               id="use174870" />
            <path
               d="m 95.404297,66.40625 q -7.609375,0 -11.453125,-7.5 -3.828125,-7.484375 -3.828125,-22.53125 0,-14.984375 3.828125,-22.484375 3.84375,-7.5 11.453125,-7.5 7.671873,0 11.500003,7.5 3.84375,7.5 3.84375,22.484375 0,15.046875 -3.84375,22.53125 -3.82813,7.5 -11.500003,7.5 z m 0,7.8125 q 12.265623,0 18.734373,-9.703125 6.46875,-9.6875 6.46875,-28.140625 0,-18.40625 -6.46875,-28.109375 -6.46875,-9.6875 -18.734373,-9.6875 -12.25,0 -18.71875,9.6875 -6.46875,9.703125 -6.46875,28.109375 0,18.453125 6.46875,28.140625 6.46875,9.703125 18.71875,9.703125 z"
               id="use174872" />
          </g>
        </g>
      </g>
      <g
         id="xtick_9">
        <g
           id="line2d_23">
          <g
             id="g174880">
            <path
               d="m 507.25943,239.75812 v 3.5"
               id="use174878"
               style="stroke:#000000;stroke-width:0.8" />
          </g>
        </g>
        <g
           id="text_20">
          <!-- 20 -->
          <g
             transform="matrix(0.1,0,0,-0.1,500.89693,254.35656)"
             id="g174887">
            <path
               d="M 19.1875,8.296875 H 53.609375 V 0 H 7.328125 v 8.296875 q 5.609375,5.8125 15.296875,15.59375 9.703125,9.796875 12.1875,12.640625 4.734375,5.3125 6.609375,9 1.890625,3.6875 1.890625,7.25 0,5.8125 -4.078125,9.46875 -4.078125,3.671875 -10.625,3.671875 -4.640625,0 -9.796875,-1.609375 -5.140625,-1.609375 -11,-4.890625 v 9.96875 Q 13.765625,71.78125 18.9375,73 q 5.1875,1.21875 9.484375,1.21875 11.328125,0 18.0625,-5.671875 6.734375,-5.65625 6.734375,-15.125 0,-4.5 -1.6875,-8.53125 Q 49.859375,40.875 45.40625,35.40625 44.1875,33.984375 37.640625,27.21875 31.109375,20.453125 19.1875,8.296875 Z"
               id="use174883" />
            <path
               d="m 95.404297,66.40625 q -7.609375,0 -11.453125,-7.5 -3.828125,-7.484375 -3.828125,-22.53125 0,-14.984375 3.828125,-22.484375 3.84375,-7.5 11.453125,-7.5 7.671873,0 11.500003,7.5 3.84375,7.5 3.84375,22.484375 0,15.046875 -3.84375,22.53125 -3.82813,7.5 -11.500003,7.5 z m 0,7.8125 q 12.265623,0 18.734373,-9.703125 6.46875,-9.6875 6.46875,-28.140625 0,-18.40625 -6.46875,-28.109375 -6.46875,-9.6875 -18.734373,-9.6875 -12.25,0 -18.71875,9.6875 -6.46875,9.703125 -6.46875,28.109375 0,18.453125 6.46875,28.140625 6.46875,9.703125 18.71875,9.703125 z"
               id="use174885" />
          </g>
        </g>
      </g>
      <g
         id="xtick_10">
        <g
           id="line2d_24">
          <g
             id="g174893">
            <path
               d="m 551.26038,239.75812 v 3.5"
               id="use174891"
               style="stroke:#000000;stroke-width:0.8" />
          </g>
        </g>
        <g
           id="text_21">
          <!-- 30 -->
          <g
             transform="matrix(0.1,0,0,-0.1,544.89788,254.35656)"
             id="g174900">
            <path
               d="M 40.578125,39.3125 Q 47.65625,37.796875 51.625,33 q 3.984375,-4.78125 3.984375,-11.8125 0,-10.78125 -7.421875,-16.703125 -7.421875,-5.90625 -21.09375,-5.90625 -4.578125,0 -9.4375,0.90625 -4.859375,0.90625 -10.03125,2.71875 v 9.515625 q 4.09375,-2.390625 8.96875,-3.609375 4.890625,-1.21875 10.21875,-1.21875 9.265625,0 14.125,3.65625 4.859375,3.65625 4.859375,10.640625 0,6.453125 -4.515625,10.078125 -4.515625,3.640625 -12.5625,3.640625 h -8.5 v 8.109375 h 8.890625 q 7.265625,0 11.125,2.90625 3.859375,2.90625 3.859375,8.375 0,5.609375 -3.984375,8.609375 -3.96875,3.015625 -11.390625,3.015625 -4.0625,0 -8.703125,-0.890625 Q 15.375,64.15625 9.8125,62.3125 v 8.78125 q 5.625,1.5625 10.53125,2.34375 4.90625,0.78125 9.25,0.78125 11.234375,0 17.765625,-5.109375 6.546875,-5.09375 6.546875,-13.78125 0,-6.0625 -3.46875,-10.234375 -3.46875,-4.171875 -9.859375,-5.78125 z"
               id="use174896" />
            <path
               d="m 95.404297,66.40625 q -7.609375,0 -11.453125,-7.5 -3.828125,-7.484375 -3.828125,-22.53125 0,-14.984375 3.828125,-22.484375 3.84375,-7.5 11.453125,-7.5 7.671873,0 11.500003,7.5 3.84375,7.5 3.84375,22.484375 0,15.046875 -3.84375,22.53125 -3.82813,7.5 -11.500003,7.5 z m 0,7.8125 q 12.265623,0 18.734373,-9.703125 6.46875,-9.6875 6.46875,-28.140625 0,-18.40625 -6.46875,-28.109375 -6.46875,-9.6875 -18.734373,-9.6875 -12.25,0 -18.71875,9.6875 -6.46875,9.703125 -6.46875,28.109375 0,18.453125 6.46875,28.140625 6.46875,9.703125 18.71875,9.703125 z"
               id="use174898" />
          </g>
        </g>
      </g>
      <g
         id="xtick_11">
        <g
           id="line2d_25">
          <g
             id="g174906">
            <path
               d="m 595.26135,239.75812 v 3.5"
               id="use174904"
               style="stroke:#000000;stroke-width:0.8" />
          </g>
        </g>
        <g
           id="text_22">
          <!-- 40 -->
          <g
             transform="matrix(0.1,0,0,-0.1,588.89883,254.35656)"
             id="g174913">
            <path
               d="M 37.796875,64.3125 12.890625,25.390625 h 24.90625 z m -2.59375,8.59375 h 12.40625 V 25.390625 h 10.40625 V 17.1875 H 47.609375 V 0 h -9.8125 V 17.1875 H 4.890625 v 9.515625 z"
               id="use174909" />
            <path
               d="m 95.404297,66.40625 q -7.609375,0 -11.453125,-7.5 -3.828125,-7.484375 -3.828125,-22.53125 0,-14.984375 3.828125,-22.484375 3.84375,-7.5 11.453125,-7.5 7.671873,0 11.500003,7.5 3.84375,7.5 3.84375,22.484375 0,15.046875 -3.84375,22.53125 -3.82813,7.5 -11.500003,7.5 z m 0,7.8125 q 12.265623,0 18.734373,-9.703125 6.46875,-9.6875 6.46875,-28.140625 0,-18.40625 -6.46875,-28.109375 -6.46875,-9.6875 -18.734373,-9.6875 -12.25,0 -18.71875,9.6875 -6.46875,9.703125 -6.46875,28.109375 0,18.453125 6.46875,28.140625 6.46875,9.703125 18.71875,9.703125 z"
               id="use174911" />
          </g>
        </g>
      </g>
      <g
         id="xtick_12">
        <g
           id="line2d_26">
          <g
             id="g174919">
            <path
               d="m 639.26227,239.75812 v 3.5"
               id="use174917"
               style="stroke:#000000;stroke-width:0.8" />
          </g>
        </g>
        <g
           id="text_23">
          <!-- 50 -->
          <g
             transform="matrix(0.1,0,0,-0.1,632.89978,254.35656)"
             id="g174926">
            <path
               d="m 10.796875,72.90625 h 38.71875 v -8.3125 h -29.6875 V 46.734375 q 2.140625,0.734375 4.28125,1.09375 2.15625,0.359375 4.3125,0.359375 Q 40.625,48.1875 47.75,41.5 54.890625,34.8125 54.890625,23.390625 54.890625,11.625 47.5625,5.09375 40.234375,-1.421875 26.90625,-1.421875 q -4.59375,0 -9.359375,0.78125 -4.75,0.78125 -9.828125,2.34375 V 11.625 q 4.390625,-2.390625 9.078125,-3.5625 4.6875,-1.171875 9.90625,-1.171875 8.453125,0 13.375,4.4375 4.9375,4.4375 4.9375,12.0625 0,7.609375 -4.9375,12.046875 -4.921875,4.453125 -13.375,4.453125 -3.953125,0 -7.890625,-0.875 -3.921875,-0.875 -8.015625,-2.734375 z"
               id="use174922" />
            <path
               d="m 95.404297,66.40625 q -7.609375,0 -11.453125,-7.5 -3.828125,-7.484375 -3.828125,-22.53125 0,-14.984375 3.828125,-22.484375 3.84375,-7.5 11.453125,-7.5 7.671873,0 11.500003,7.5 3.84375,7.5 3.84375,22.484375 0,15.046875 -3.84375,22.53125 -3.82813,7.5 -11.500003,7.5 z m 0,7.8125 q 12.265623,0 18.734373,-9.703125 6.46875,-9.6875 6.46875,-28.140625 0,-18.40625 -6.46875,-28.109375 -6.46875,-9.6875 -18.734373,-9.6875 -12.25,0 -18.71875,9.6875 -6.46875,9.703125 -6.46875,28.109375 0,18.453125 6.46875,28.140625 6.46875,9.703125 18.71875,9.703125 z"
               id="use174924" />
          </g>
        </g>
      </g>
      <g
         id="xtick_13">
        <g
           id="line2d_27">
          <g
             id="g174932">
            <path
               d="m 683.26324,239.75812 v 3.5"
               id="use174930"
               style="stroke:#000000;stroke-width:0.8" />
          </g>
        </g>
        <g
           id="text_24">
          <!-- 60 -->
          <g
             transform="matrix(0.1,0,0,-0.1,676.90073,254.35656)"
             id="g174939">
            <path
               d="m 33.015625,40.375 q -6.640625,0 -10.53125,-4.546875 -3.875,-4.53125 -3.875,-12.4375 0,-7.859375 3.875,-12.4375 3.890625,-4.5625 10.53125,-4.5625 6.640625,0 10.515625,4.5625 3.875,4.578125 3.875,12.4375 0,7.90625 -3.875,12.4375 Q 39.65625,40.375 33.015625,40.375 Z M 52.59375,71.296875 V 62.3125 q -3.71875,1.75 -7.5,2.671875 -3.78125,0.9375 -7.5,0.9375 -9.765625,0 -14.921875,-6.59375 -5.140625,-6.59375 -5.875,-19.921875 2.875,4.25 7.21875,6.515625 4.359375,2.265625 9.578125,2.265625 10.984375,0 17.359375,-6.671875 6.375,-6.65625 6.375,-18.125 0,-11.234375 -6.640625,-18.03125 -6.640625,-6.78125 -17.671875,-6.78125 -12.65625,0 -19.34375,9.6875 -6.6875,9.703125 -6.6875,28.109375 0,17.28125 8.203125,27.5625 8.203125,10.28125 22.015625,10.28125 3.71875,0 7.5,-0.734375 3.78125,-0.734375 7.890625,-2.1875 z"
               id="use174935" />
            <path
               d="m 95.404297,66.40625 q -7.609375,0 -11.453125,-7.5 -3.828125,-7.484375 -3.828125,-22.53125 0,-14.984375 3.828125,-22.484375 3.84375,-7.5 11.453125,-7.5 7.671873,0 11.500003,7.5 3.84375,7.5 3.84375,22.484375 0,15.046875 -3.84375,22.53125 -3.82813,7.5 -11.500003,7.5 z m 0,7.8125 q 12.265623,0 18.734373,-9.703125 6.46875,-9.6875 6.46875,-28.140625 0,-18.40625 -6.46875,-28.109375 -6.46875,-9.6875 -18.734373,-9.6875 -12.25,0 -18.71875,9.6875 -6.46875,9.703125 -6.46875,28.109375 0,18.453125 6.46875,28.140625 6.46875,9.703125 18.71875,9.703125 z"
               id="use174937" />
          </g>
        </g>
      </g>
      <g
         id="text_25">
        <!-- Dose (Gy) -->
        <g
           transform="matrix(0.1,0,0,-0.1,533.10646,268.03469)"
           id="g174961">
          <path
             d="M 19.671875,64.796875 V 8.109375 H 31.59375 q 15.09375,0 22.09375,6.828125 7,6.84375 7,21.59375 0,14.640625 -7,21.453125 -7,6.8125 -22.09375,6.8125 z M 9.8125,72.90625 h 20.265625 q 21.1875,0 31.09375,-8.8125 9.921875,-8.8125 9.921875,-27.5625 0,-18.859375 -9.96875,-27.703125 Q 51.171875,0 30.078125,0 H 9.8125 Z"
             id="use174943" />
          <path
             d="m 107.61133,48.390625 q -7.21875,0 -11.421877,-5.640625 -4.203125,-5.640625 -4.203125,-15.453125 0,-9.8125 4.171875,-15.453125 4.187497,-5.640625 11.453127,-5.640625 7.1875,0 11.375,5.65625 4.20312,5.671875 4.20312,15.4375 0,9.71875 -4.20312,15.40625 -4.1875,5.6875 -11.375,5.6875 z m 0,7.609375 q 11.71875,0 18.40625,-7.625 6.70312,-7.609375 6.70312,-21.078125 0,-13.421875 -6.70312,-21.078125 -6.6875,-7.640625 -18.40625,-7.640625 -11.765627,0 -18.437502,7.640625 -6.65625,7.65625 -6.65625,21.078125 0,13.46875 6.65625,21.078125 Q 95.845703,56 107.61133,56 Z"
             id="use174945" />
          <path
             d="m 182.46484,53.078125 v -8.5 q -3.79687,1.953125 -7.90625,2.921875 -4.09375,0.984375 -8.5,0.984375 -6.6875,0 -10.03125,-2.046875 -3.34375,-2.046875 -3.34375,-6.15625 0,-3.125 2.39063,-4.90625 2.39062,-1.78125 9.625,-3.390625 l 3.07812,-0.6875 q 9.5625,-2.046875 13.59375,-5.78125 4.03125,-3.734375 4.03125,-10.421875 0,-7.625 -6.03125,-12.078125 -6.03125,-4.4375 -16.57812,-4.4375 -4.39063,0 -9.15625,0.859375 Q 148.87109,0.296875 143.60547,2 v 9.28125 q 4.98437,-2.59375 9.8125,-3.890625 4.82812,-1.28125 9.57812,-1.28125 6.34375,0 9.75,2.171875 3.42188,2.171875 3.42188,6.125 0,3.65625 -2.46875,5.609375 -2.45313,1.953125 -10.8125,3.765625 l -3.125,0.734375 q -8.34375,1.75 -12.0625,5.390625 -3.70313,3.640625 -3.70313,9.984375 0,7.71875 5.46875,11.90625 Q 154.93359,56 164.99609,56 q 4.96875,0 9.35938,-0.734375 4.40625,-0.71875 8.10937,-2.1875 z"
             id="use174947" />
          <path
             d="m 246.48633,29.59375 v -4.390625 h -41.3125 q 0.59375,-9.28125 5.59375,-14.140625 5,-4.859375 13.9375,-4.859375 5.17187,0 10.03125,1.265625 4.85937,1.265625 9.65625,3.8125 v -8.5 q -4.84375,-2.046875 -9.92188,-3.125 -5.07812,-1.078125 -10.29687,-1.078125 -13.09375,0 -20.73438,7.609375 -7.64062,7.625 -7.64062,20.625 0,13.421875 7.25,21.296875 Q 210.29883,56 222.61133,56 q 11.03125,0 17.45312,-7.109375 6.42188,-7.09375 6.42188,-19.296875 z m -8.98438,2.640625 q -0.0937,7.359375 -4.125,11.75 -4.03125,4.40625 -10.67187,4.40625 -7.51563,0 -12.03125,-4.25 -4.51563,-4.25 -5.20313,-11.96875 z"
             id="use174949" />
          <path
             id="use174951"
             d="" />
          <path
             d="M 314.59375,75.875 Q 308.0625,64.65625 304.875,53.65625 q -3.17188,-10.984375 -3.17188,-22.265625 0,-11.265625 3.20313,-22.328125 3.20312,-11.0625 9.6875,-22.25 h -7.8125 q -7.3125,11.484375 -10.95313,22.5625 -3.64062,11.078125 -3.64062,22.015625 0,10.890625 3.60937,21.921875 3.625,11.046875 10.98438,22.5625 z"
             id="use174953" />
          <path
             d="m 382.12305,10.40625 v 19.578125 h -16.10938 v 8.109375 h 25.875 V 6.78125 q -5.70312,-4.046875 -12.59375,-6.125 -6.875,-2.078125 -14.6875,-2.078125 -17.09375,0 -26.75,9.984375 -9.64062,10 -9.64062,27.8125 0,17.875 9.64062,27.859375 9.65625,9.984375 26.75,9.984375 7.125,0 13.54688,-1.765625 6.42187,-1.75 11.84375,-5.171875 v -10.5 q -5.46875,4.640625 -11.625,6.984375 -6.15625,2.34375 -12.9375,2.34375 -13.39063,0 -20.10938,-7.46875 -6.70312,-7.46875 -6.70312,-22.265625 0,-14.75 6.70312,-22.21875 6.71875,-7.46875 20.10938,-7.46875 5.21875,0 9.3125,0.90625 4.10937,0.90625 7.375,2.8125 z"
             id="use174955" />
          <path
             d="m 432.26953,-5.078125 q -3.79687,-9.765625 -7.42187,-12.734375 -3.60938,-2.984375 -9.65625,-2.984375 h -7.1875 v 7.515625 h 5.28125 q 3.70312,0 5.75,1.765625 2.0625,1.75 4.54687,8.296875 l 1.60938,4.09375 -22.10938,53.8125 h 9.51563 L 429.69141,11.921875 446.78516,54.6875 h 9.51562 z"
             id="use174957" />
          <path
             d="m 467.29297,75.875 h 7.8125 q 7.3125,-11.515625 10.95312,-22.5625 3.64063,-11.03125 3.64063,-21.921875 0,-10.9375 -3.64063,-22.015625 -3.64062,-11.078125 -10.95312,-22.5625 h -7.8125 q 6.48437,11.1875 9.6875,22.25 3.20312,11.0625 3.20312,22.328125 0,11.28125 -3.20312,22.265625 -3.20313,11 -9.6875,22.21875 z"
             id="use174959" />
        </g>
      </g>
    </g>
    <g
       id="matplotlib.axis_4">
      <g
         id="ytick_8">
        <g
           id="line2d_28">
          <g
             id="g174967">
            <path
               d="m 405.83948,229.8992 h -3.5"
               id="use174965"
               style="stroke:#000000;stroke-width:0.8" />
          </g>
        </g>
        <g
           id="text_26">
          <!-- 0 -->
          <g
             transform="matrix(0.1,0,0,-0.1,392.47699,233.69842)"
             id="g174972">
            <path
               d="m 31.78125,66.40625 q -7.609375,0 -11.453125,-7.5 Q 16.5,51.421875 16.5,36.375 q 0,-14.984375 3.828125,-22.484375 3.84375,-7.5 11.453125,-7.5 7.671875,0 11.5,7.5 3.84375,7.5 3.84375,22.484375 0,15.046875 -3.84375,22.53125 -3.828125,7.5 -11.5,7.5 z m 0,7.8125 q 12.265625,0 18.734375,-9.703125 6.46875,-9.6875 6.46875,-28.140625 0,-18.40625 -6.46875,-28.109375 -6.46875,-9.6875 -18.734375,-9.6875 -12.25,0 -18.71875,9.6875 Q 6.59375,17.96875 6.59375,36.375 q 0,18.453125 6.46875,28.140625 6.46875,9.703125 18.71875,9.703125 z"
               id="use174970" />
          </g>
        </g>
      </g>
      <g
         id="ytick_9">
        <g
           id="line2d_29">
          <g
             id="g174978">
            <path
               d="m 405.83948,190.35971 h -3.5"
               id="use174976"
               style="stroke:#000000;stroke-width:0.8" />
          </g>
        </g>
        <g
           id="text_27">
          <!-- 20 -->
          <g
             transform="matrix(0.1,0,0,-0.1,386.11449,194.15893)"
             id="g174985">
            <path
               d="M 19.1875,8.296875 H 53.609375 V 0 H 7.328125 v 8.296875 q 5.609375,5.8125 15.296875,15.59375 9.703125,9.796875 12.1875,12.640625 4.734375,5.3125 6.609375,9 1.890625,3.6875 1.890625,7.25 0,5.8125 -4.078125,9.46875 -4.078125,3.671875 -10.625,3.671875 -4.640625,0 -9.796875,-1.609375 -5.140625,-1.609375 -11,-4.890625 v 9.96875 Q 13.765625,71.78125 18.9375,73 q 5.1875,1.21875 9.484375,1.21875 11.328125,0 18.0625,-5.671875 6.734375,-5.65625 6.734375,-15.125 0,-4.5 -1.6875,-8.53125 Q 49.859375,40.875 45.40625,35.40625 44.1875,33.984375 37.640625,27.21875 31.109375,20.453125 19.1875,8.296875 Z"
               id="use174981" />
            <path
               d="m 95.404297,66.40625 q -7.609375,0 -11.453125,-7.5 -3.828125,-7.484375 -3.828125,-22.53125 0,-14.984375 3.828125,-22.484375 3.84375,-7.5 11.453125,-7.5 7.671873,0 11.500003,7.5 3.84375,7.5 3.84375,22.484375 0,15.046875 -3.84375,22.53125 -3.82813,7.5 -11.500003,7.5 z m 0,7.8125 q 12.265623,0 18.734373,-9.703125 6.46875,-9.6875 6.46875,-28.140625 0,-18.40625 -6.46875,-28.109375 -6.46875,-9.6875 -18.734373,-9.6875 -12.25,0 -18.71875,9.6875 -6.46875,9.703125 -6.46875,28.109375 0,18.453125 6.46875,28.140625 6.46875,9.703125 18.71875,9.703125 z"
               id="use174983" />
          </g>
        </g>
      </g>
      <g
         id="ytick_10">
        <g
           id="line2d_30">
          <g
             id="g174991">
            <path
               d="m 405.83948,150.82022 h -3.5"
               id="use174989"
               style="stroke:#000000;stroke-width:0.8" />
          </g>
        </g>
        <g
           id="text_28">
          <!-- 40 -->
          <g
             transform="matrix(0.1,0,0,-0.1,386.11449,154.61944)"
             id="g174998">
            <path
               d="M 37.796875,64.3125 12.890625,25.390625 h 24.90625 z m -2.59375,8.59375 h 12.40625 V 25.390625 h 10.40625 V 17.1875 H 47.609375 V 0 h -9.8125 V 17.1875 H 4.890625 v 9.515625 z"
               id="use174994" />
            <path
               d="m 95.404297,66.40625 q -7.609375,0 -11.453125,-7.5 -3.828125,-7.484375 -3.828125,-22.53125 0,-14.984375 3.828125,-22.484375 3.84375,-7.5 11.453125,-7.5 7.671873,0 11.500003,7.5 3.84375,7.5 3.84375,22.484375 0,15.046875 -3.84375,22.53125 -3.82813,7.5 -11.500003,7.5 z m 0,7.8125 q 12.265623,0 18.734373,-9.703125 6.46875,-9.6875 6.46875,-28.140625 0,-18.40625 -6.46875,-28.109375 -6.46875,-9.6875 -18.734373,-9.6875 -12.25,0 -18.71875,9.6875 -6.46875,9.703125 -6.46875,28.109375 0,18.453125 6.46875,28.140625 6.46875,9.703125 18.71875,9.703125 z"
               id="use174996" />
          </g>
        </g>
      </g>
      <g
         id="ytick_11">
        <g
           id="line2d_31">
          <g
             id="g175004">
            <path
               d="m 405.83948,111.28074 h -3.5"
               id="use175002"
               style="stroke:#000000;stroke-width:0.8" />
          </g>
        </g>
        <g
           id="text_29">
          <!-- 60 -->
          <g
             transform="matrix(0.1,0,0,-0.1,386.11449,115.07996)"
             id="g175011">
            <path
               d="m 33.015625,40.375 q -6.640625,0 -10.53125,-4.546875 -3.875,-4.53125 -3.875,-12.4375 0,-7.859375 3.875,-12.4375 3.890625,-4.5625 10.53125,-4.5625 6.640625,0 10.515625,4.5625 3.875,4.578125 3.875,12.4375 0,7.90625 -3.875,12.4375 Q 39.65625,40.375 33.015625,40.375 Z M 52.59375,71.296875 V 62.3125 q -3.71875,1.75 -7.5,2.671875 -3.78125,0.9375 -7.5,0.9375 -9.765625,0 -14.921875,-6.59375 -5.140625,-6.59375 -5.875,-19.921875 2.875,4.25 7.21875,6.515625 4.359375,2.265625 9.578125,2.265625 10.984375,0 17.359375,-6.671875 6.375,-6.65625 6.375,-18.125 0,-11.234375 -6.640625,-18.03125 -6.640625,-6.78125 -17.671875,-6.78125 -12.65625,0 -19.34375,9.6875 -6.6875,9.703125 -6.6875,28.109375 0,17.28125 8.203125,27.5625 8.203125,10.28125 22.015625,10.28125 3.71875,0 7.5,-0.734375 3.78125,-0.734375 7.890625,-2.1875 z"
               id="use175007" />
            <path
               d="m 95.404297,66.40625 q -7.609375,0 -11.453125,-7.5 -3.828125,-7.484375 -3.828125,-22.53125 0,-14.984375 3.828125,-22.484375 3.84375,-7.5 11.453125,-7.5 7.671873,0 11.500003,7.5 3.84375,7.5 3.84375,22.484375 0,15.046875 -3.84375,22.53125 -3.82813,7.5 -11.500003,7.5 z m 0,7.8125 q 12.265623,0 18.734373,-9.703125 6.46875,-9.6875 6.46875,-28.140625 0,-18.40625 -6.46875,-28.109375 -6.46875,-9.6875 -18.734373,-9.6875 -12.25,0 -18.71875,9.6875 -6.46875,9.703125 -6.46875,28.109375 0,18.453125 6.46875,28.140625 6.46875,9.703125 18.71875,9.703125 z"
               id="use175009" />
          </g>
        </g>
      </g>
      <g
         id="ytick_12">
        <g
           id="line2d_32">
          <g
             id="g175017">
            <path
               d="m 405.83948,71.741249 h -3.5"
               id="use175015"
               style="stroke:#000000;stroke-width:0.8" />
          </g>
        </g>
        <g
           id="text_30">
          <!-- 80 -->
          <g
             transform="matrix(0.1,0,0,-0.1,386.11449,75.540468)"
             id="g175024">
            <path
               d="m 31.78125,34.625 q -7.03125,0 -11.0625,-3.765625 -4.015625,-3.765625 -4.015625,-10.34375 0,-6.59375 4.015625,-10.359375 4.03125,-3.765625 11.0625,-3.765625 7.03125,0 11.078125,3.78125 4.0625,3.796875 4.0625,10.34375 0,6.578125 -4.03125,10.34375 Q 38.875,34.625 31.78125,34.625 Z m -9.859375,4.1875 Q 15.578125,40.375 12.03125,44.71875 8.5,49.078125 8.5,55.328125 q 0,8.734375 6.21875,13.8125 6.234375,5.078125 17.0625,5.078125 10.890625,0 17.09375,-5.078125 6.203125,-5.078125 6.203125,-13.8125 0,-6.25 -3.546875,-10.609375 Q 48,40.375 41.703125,38.8125 q 7.125,-1.65625 11.09375,-6.5 3.984375,-4.828125 3.984375,-11.796875 0,-10.609375 -6.46875,-16.28125 -6.46875,-5.65625 -18.53125,-5.65625 -12.046875,0 -18.53125,5.65625 -6.46875,5.671875 -6.46875,16.28125 0,6.96875 4,11.796875 4.015625,4.84375 11.140625,6.5 z M 18.3125,54.390625 q 0,-5.65625 3.53125,-8.828125 3.546875,-3.171875 9.9375,-3.171875 6.359375,0 9.9375,3.171875 3.59375,3.171875 3.59375,8.828125 0,5.671875 -3.59375,8.84375 -3.578125,3.171875 -9.9375,3.171875 -6.390625,0 -9.9375,-3.171875 Q 18.3125,60.0625 18.3125,54.390625 Z"
               id="use175020" />
            <path
               d="m 95.404297,66.40625 q -7.609375,0 -11.453125,-7.5 -3.828125,-7.484375 -3.828125,-22.53125 0,-14.984375 3.828125,-22.484375 3.84375,-7.5 11.453125,-7.5 7.671873,0 11.500003,7.5 3.84375,7.5 3.84375,22.484375 0,15.046875 -3.84375,22.53125 -3.82813,7.5 -11.500003,7.5 z m 0,7.8125 q 12.265623,0 18.734373,-9.703125 6.46875,-9.6875 6.46875,-28.140625 0,-18.40625 -6.46875,-28.109375 -6.46875,-9.6875 -18.734373,-9.6875 -12.25,0 -18.71875,9.6875 -6.46875,9.703125 -6.46875,28.109375 0,18.453125 6.46875,28.140625 6.46875,9.703125 18.71875,9.703125 z"
               id="use175022" />
          </g>
        </g>
      </g>
      <g
         id="ytick_13">
        <g
           id="line2d_33">
          <g
             id="g175030">
            <path
               d="m 405.83948,32.201759 h -3.5"
               id="use175028"
               style="stroke:#000000;stroke-width:0.8" />
          </g>
        </g>
        <g
           id="text_31">
          <!-- 100 -->
          <g
             transform="matrix(0.1,0,0,-0.1,379.75199,36.00098)"
             id="g175039">
            <path
               d="m 12.40625,8.296875 h 16.109375 v 55.625 L 10.984375,60.40625 v 8.984375 l 17.4375,3.515625 H 38.28125 V 8.296875 H 54.390625 V 0 H 12.40625 Z"
               id="use175033" />
            <path
               d="m 95.404297,66.40625 q -7.609375,0 -11.453125,-7.5 -3.828125,-7.484375 -3.828125,-22.53125 0,-14.984375 3.828125,-22.484375 3.84375,-7.5 11.453125,-7.5 7.671873,0 11.500003,7.5 3.84375,7.5 3.84375,22.484375 0,15.046875 -3.84375,22.53125 -3.82813,7.5 -11.500003,7.5 z m 0,7.8125 q 12.265623,0 18.734373,-9.703125 6.46875,-9.6875 6.46875,-28.140625 0,-18.40625 -6.46875,-28.109375 -6.46875,-9.6875 -18.734373,-9.6875 -12.25,0 -18.71875,9.6875 -6.46875,9.703125 -6.46875,28.109375 0,18.453125 6.46875,28.140625 6.46875,9.703125 18.71875,9.703125 z"
               id="use175035" />
            <path
               d="m 159.02734,66.40625 q -7.60937,0 -11.45312,-7.5 -3.82813,-7.484375 -3.82813,-22.53125 0,-14.984375 3.82813,-22.484375 3.84375,-7.5 11.45312,-7.5 7.67188,0 11.5,7.5 3.84375,7.5 3.84375,22.484375 0,15.046875 -3.84375,22.53125 -3.82812,7.5 -11.5,7.5 z m 0,7.8125 q 12.26563,0 18.73438,-9.703125 6.46875,-9.6875 6.46875,-28.140625 0,-18.40625 -6.46875,-28.109375 -6.46875,-9.6875 -18.73438,-9.6875 -12.25,0 -18.71875,9.6875 -6.46875,9.703125 -6.46875,28.109375 0,18.453125 6.46875,28.140625 6.46875,9.703125 18.71875,9.703125 z"
               id="use175037" />
          </g>
        </g>
      </g>
      <g
         id="text_32">
        <!-- Volume (%) -->
        <g
           transform="matrix(0,-0.1,-0.1,0,373.6723,159.87641)"
           id="g175063">
          <path
             d="M 28.609375,0 0.78125,72.90625 h 10.296875 l 23.109375,-61.375 23.140625,61.375 h 10.25 L 39.796875,0 Z"
             id="use175043" />
          <path
             d="m 91.267578,48.390625 q -7.21875,0 -11.421875,-5.640625 -4.203125,-5.640625 -4.203125,-15.453125 0,-9.8125 4.171875,-15.453125 4.1875,-5.640625 11.453125,-5.640625 7.1875,0 11.375002,5.65625 4.20312,5.671875 4.20312,15.4375 0,9.71875 -4.20312,15.40625 -4.187502,5.6875 -11.375002,5.6875 z m 0,7.609375 q 11.718752,0 18.406252,-7.625 6.70312,-7.609375 6.70312,-21.078125 0,-13.421875 -6.70312,-21.078125 -6.6875,-7.640625 -18.406252,-7.640625 -11.765625,0 -18.4375,7.640625 -6.65625,7.65625 -6.65625,21.078125 0,13.46875 6.65625,21.078125 Q 79.501953,56 91.267578,56 Z"
             id="use175045" />
          <path
             d="m 131.26172,75.984375 h 8.98437 V 0 h -8.98437 z"
             id="use175047" />
          <path
             d="M 158.12305,21.578125 V 54.6875 h 8.98437 V 21.921875 q 0,-7.765625 3.01563,-11.65625 3.03125,-3.875 9.09375,-3.875 7.26562,0 11.48437,4.640625 4.23438,4.640625 4.23438,12.65625 v 31 h 8.98437 V 0 h -8.98437 V 8.40625 Q 191.66992,3.421875 187.3418,1 q -4.3125,-2.421875 -10.03125,-2.421875 -9.42188,0 -14.3125,5.859375 -4.875,5.859375 -4.875,17.140625 z M 180.73242,56 Z"
             id="use175049" />
          <path
             d="m 265.00195,44.1875 q 3.375,6.0625 8.0625,8.9375 4.6875,2.875 11.03125,2.875 8.54688,0 13.1875,-5.984375 4.64063,-5.96875 4.64063,-17 V 0 h -9.03125 v 32.71875 q 0,7.859375 -2.79688,11.65625 -2.78125,3.8125 -8.48437,3.8125 -6.98438,0 -11.04688,-4.640625 -4.04687,-4.625 -4.04687,-12.640625 V 0 h -9.03125 v 32.71875 q 0,7.90625 -2.78125,11.6875 -2.78125,3.78125 -8.59375,3.78125 -6.89063,0 -10.95313,-4.65625 -4.04687,-4.65625 -4.04687,-12.625 V 0 h -9.03125 v 54.6875 h 9.03125 v -8.5 q 3.07812,5.03125 7.375,7.421875 Q 242.7832,56 248.68945,56 q 5.96875,0 10.14063,-3.03125 4.17187,-3.015625 6.17187,-8.78125 z"
             id="use175051" />
          <path
             d="m 366.61719,29.59375 v -4.390625 h -41.3125 q 0.59375,-9.28125 5.59375,-14.140625 5,-4.859375 13.9375,-4.859375 5.17187,0 10.03125,1.265625 4.85937,1.265625 9.65625,3.8125 v -8.5 q -4.84375,-2.046875 -9.92188,-3.125 -5.07812,-1.078125 -10.29687,-1.078125 -13.09375,0 -20.73438,7.609375 -7.64062,7.625 -7.64062,20.625 0,13.421875 7.25,21.296875 Q 330.42969,56 342.74219,56 q 11.03125,0 17.45312,-7.109375 6.42188,-7.09375 6.42188,-19.296875 z m -8.98438,2.640625 q -0.0937,7.359375 -4.125,11.75 -4.03125,4.40625 -10.67187,4.40625 -7.51563,0 -12.03125,-4.25 -4.51563,-4.25 -5.20313,-11.96875 z"
             id="use175053" />
          <path
             id="use175055"
             d="" />
          <path
             d="m 434.72461,75.875 q -6.53125,-11.21875 -9.71875,-22.21875 -3.17188,-10.984375 -3.17188,-22.265625 0,-11.265625 3.20313,-22.328125 3.20312,-11.0625 9.6875,-22.25 h -7.8125 q -7.3125,11.484375 -10.95313,22.5625 -3.64062,11.078125 -3.64062,22.015625 0,10.890625 3.60937,21.921875 3.625,11.046875 10.98438,22.5625 z"
             id="use175057" />
          <path
             d="m 515.44141,32.078125 q -4.25,0 -6.67188,-3.609375 -2.40625,-3.609375 -2.40625,-10.0625 0,-6.34375 2.40625,-9.984375 2.42188,-3.640625 6.67188,-3.640625 4.15625,0 6.5625,3.640625 2.42187,3.640625 2.42187,9.984375 0,6.40625 -2.42187,10.03125 -2.40625,3.640625 -6.5625,3.640625 z m 0,6.203125 q 7.71875,0 12.25,-5.375 4.54687,-5.359375 4.54687,-14.5 0,-9.125 -4.5625,-14.484375 -4.5625,-5.34375 -12.23437,-5.34375 -7.8125,0 -12.35938,5.34375 -4.53125,5.359375 -4.53125,14.484375 0,9.1875 4.5625,14.53125 4.5625,5.34375 12.32813,5.34375 z m -50.39063,29.734375 q -4.20312,0 -6.625,-3.640625 -2.40625,-3.625 -2.40625,-9.984375 0,-6.4375 2.39063,-10.0625 2.39062,-3.609375 6.64062,-3.609375 4.25,0 6.65625,3.609375 2.42188,3.625 2.42188,10.0625 0,6.296875 -2.4375,9.953125 -2.4375,3.671875 -6.64063,3.671875 z m 44.09375,6.203125 h 7.8125 L 471.34766,-1.421875 h -7.8125 z m -44.09375,0 q 7.71875,0 12.29688,-5.34375 4.59375,-5.34375 4.59375,-14.484375 0,-9.21875 -4.5625,-14.546875 -4.5625,-5.328125 -12.32813,-5.328125 -7.76562,0 -12.28125,5.34375 -4.51562,5.359375 -4.51562,14.53125 0,9.09375 4.53125,14.453125 4.54687,5.375 12.26562,5.375 z"
             id="use175059" />
          <path
             d="m 545.77344,75.875 h 7.8125 q 7.3125,-11.515625 10.95312,-22.5625 3.64063,-11.03125 3.64063,-21.921875 0,-10.9375 -3.64063,-22.015625 -3.64062,-11.078125 -10.95312,-22.5625 h -7.8125 q 6.48437,11.1875 9.6875,22.25 3.20312,11.0625 3.20312,22.328125 0,11.28125 -3.20312,22.265625 -3.20313,11 -9.6875,22.21875 z"
             id="use175061" />
        </g>
      </g>
    </g>
    <g
       id="line2d_34">
      <path
         clip-path="url(#pbac3f34c84)"
         d="m 563.62279,229.87449 -0.11917,-0.17299 -1.31775,-0.19769 -3.26385,-0.14828 -0.0633,-0.0988 -1.279,-0.19769 -3.15316,-0.14828 -0.15536,-0.14827 -1.02522,-0.14827 -3.01911,-0.17299 -0.0216,-0.0741 -1.16068,-0.1977 -2.99167,-0.17299 -0.0431,-0.0741 -1.11139,-0.1977 -2.87825,-0.17299 -0.66898,-0.27183 -3.33125,-0.34597 -0.18999,-0.0988 -2.26499,-0.17299 -1.17343,-0.12356 -0.0674,-0.0741 -1.52876,-0.24712 -2.04014,-0.22241 -0.22018,-0.0988 -0.15928,-0.0988 -1.56191,-0.1977 -1.5649,-0.12356 -0.1018,-0.12356 -1.61439,-0.27183 -1.68788,-0.14828 -0.088,-0.0741 -0.86221,-0.22241 -2.36127,-0.22241 -0.0851,-0.0741 -1.49833,-0.29655 -1.62028,-0.12356 -0.0644,-0.0741 -1.30203,-0.29655 -1.64442,-0.12356 -0.24699,-0.14827 -1.11128,-0.22241 -1.66308,-0.14828 -0.10897,-0.0741 -1.78499,-0.29655 -1.02544,-0.12356 -0.10562,-0.0741 -1.36375,-0.29654 -1.33597,-0.12356 -0.0791,-0.0741 -1.09202,-0.29655 -1.47667,-0.12356 -0.11338,-0.0741 -0.39497,-0.17299 -2.04571,-0.37068 -0.28796,-0.32126 -0.21089,-0.14827 -0.28777,-0.32126 -0.1646,-0.14827 -0.0878,-0.12357 -1.22273,-0.49424 -0.21941,-0.14827 -0.12016,-0.14828 -0.0839,-0.12356 -0.38182,-0.19769 -0.39329,-0.42011 -0.11906,-0.17299 -0.33882,-0.27183 -0.73152,-0.17299 -0.11515,-0.17298 -0.0501,-0.12356 -1.11519,-0.32126 -0.24524,-0.32126 -0.0459,-0.12356 -0.4574,-0.1977 -2.04831,-1.01319 -0.0809,-0.12357 -0.38488,-0.19769 -0.0519,-0.0494 -0.42328,-0.14827 -0.0592,-0.12356 -1.50821,-0.61781 -0.20056,-0.29654 -0.75416,-0.34597 -0.1587,-0.1977 -0.13025,-0.0741 -0.26712,-0.17298 -0.96009,-0.44482 -0.12627,-0.22241 -0.15055,-0.17299 -0.54218,-0.19769 -0.2396,-0.14828 -0.0901,-0.12356 -1.15129,-0.44482 -0.10716,-0.27183 -0.19687,-0.1977 -0.27656,-0.17298 -0.21723,-0.14828 -0.45738,-0.19769 -0.11505,-0.1977 -0.40313,-0.22241 -0.59304,-0.29655 -0.0638,-0.0988 -0.11969,-0.12356 -0.11361,-0.19769 -0.46098,-0.29655 -0.29118,-0.12356 -0.0532,-0.0741 -0.30128,-0.12356 -0.0911,-0.12356 -0.39078,-0.1977 -0.35757,-0.32126 -0.004,-0.0247 -0.37166,-0.17299 -0.11072,-0.19769 -1.52419,-0.88964 -0.0832,-0.14827 -0.34745,-0.22241 -0.009,-0.0247 -0.36044,-0.14827 -0.10845,-0.1977 -0.45285,-0.19769 -0.63808,-0.29655 -0.11211,-0.12356 -1.89876,-0.49424 -0.0963,-0.0988 -0.51217,-0.17299 -1.24306,-0.22241 -0.0708,-0.12356 -1.91937,-0.51895 -0.17936,-0.0741 -1.39829,-0.32126 -0.0725,-0.0741 -1.79724,-0.51896 -0.17472,-0.0988 -1.26625,-0.29654 -0.0633,-0.0989 -1.65543,-0.51895 -0.16607,-0.0741 -1.15369,-0.29654 -0.0809,-0.0988 -1.37408,-0.42011 -0.0637,-0.0741 -0.97393,-0.29655 -1.22473,-0.0494 -26.78657,-0.12356 -0.35194,-0.98848 -0.1204,-0.69195 -0.11186,-0.66722 -0.1156,-1.08734 -0.24238,-1.80399 -0.0649,-0.22241 -0.22774,-1.26032 -0.21573,-0.98849 -0.0736,-0.46953 -0.10393,-0.17298 -0.21386,-1.26032 -0.42917,-0.98849 -0.21439,-0.79079 -0.0893,-0.22241 -0.15949,-0.3954 -0.20997,-0.54366 -0.10596,-0.14828 -0.63699,-1.50744 -0.12994,-0.32126 -0.10425,-0.1977 -1.37393,-3.50913 -0.0983,-0.19769 -0.14767,-0.24712 -0.39681,-0.46954 -0.61349,-0.46953 -0.64924,-2.99017 -0.35206,-2.59478 -0.12065,-0.93906 -0.0675,-0.61781 -0.17296,-1.35916 -0.11794,-1.2109 -0.12951,-1.2109 -0.53958,-8.62455 -0.22059,-4.44819 -0.0731,-1.40859 -0.2412,-4.94245 -0.17752,-4.72002 -0.14162,-4.76945 -0.11375,-4.34934 -0.25592,-10.50268 -0.74871,-45.000878 -0.28102,-18.410574 -0.35758,-25.675961 -0.1176,-3.45969 -0.063,-1.062636 v 0"
         style="fill:none;stroke:#ff7f0e;stroke-width:1.5;stroke-dasharray:5.55, 2.4;stroke-dashoffset:0;stroke-opacity:0.666667"
         id="path175067" />
    </g>
    <g
       id="line2d_35">
      <path
         clip-path="url(#pbac3f34c84)"
         d="m 693.11114,229.87449 -0.11866,-0.17299 -0.23736,-0.0988 -0.52526,-0.0494 -7.65931,-0.17299 -0.35856,-0.17298 -2.55743,-0.0741 -5.13622,-0.19769 -0.0589,-0.0741 -3.80433,-0.14827 -3.98658,-0.12357 -0.002,-0.0247 -0.96046,-0.19769 -6.77501,-0.1977 -0.10561,-0.0988 -3.90192,-0.1977 -3.60935,-0.12356 -0.46979,-0.14827 -0.0188,-0.0494 -1.67206,-0.0741 -5.71792,-0.27184 -0.0669,-0.0741 -1.29398,-0.0988 -5.80136,-0.32126 -0.34559,-0.14827 -6.30425,-0.29655 -0.13433,-0.0494 -0.21272,-0.0494 -0.0652,-0.0247 -6.2462,-0.37068 -0.083,-0.0494 -2.39234,-0.1977 -3.97914,-0.12356 -0.0473,-0.12356 -0.79945,-0.12356 -5.42219,-0.24712 -0.0246,-0.0494 -1.92796,-0.22241 -4.19654,-0.14828 -0.0453,-0.0741 -1.55781,-0.1977 -0.22673,-0.0247 -4.09148,-0.17299 -0.52358,-0.17298 -2.00677,-0.12356 -3.33827,-0.12357 -0.0619,-0.0988 -1.70635,-0.22241 -3.801,-0.12356 -0.0716,-0.0988 -1.52368,-0.22241 -1.65472,-0.12356 -0.32457,-0.17299 -1.60455,-0.17298 -0.29629,-0.14828 -1.79163,-0.22241 -1.80643,-0.12356 -0.0764,-0.0741 -1.33189,-0.22241 -0.0956,-0.14828 -1.46533,-0.24712 -2.70147,-0.17298 -0.14663,-0.12357 -0.73178,-0.14827 -0.46075,-0.27183 -4.22498,-0.3954 -0.12674,-0.24712 -1.3496,-0.29655 -3.71889,-0.17298 -0.12366,-0.0741 -1.09958,-0.22241 -4.05353,-0.19769 -0.36532,-0.17299 -1.73594,-0.0988 -2.93827,-0.19769 -0.0281,-0.0494 -2.40438,-0.27183 -2.27129,-0.14828 -0.10425,-0.0741 -0.78926,-0.17299 -0.0312,-0.0247 -2.26232,-0.17299 -1.43213,-0.24712 -0.0193,-0.0247 -2.51265,-0.24712 -1.86946,-0.14827 -0.0614,-0.12357 -1.12978,-0.14827 -3.07093,-0.22241 -0.14707,-0.14827 -4.47456,-0.56838 -0.44661,-0.0741 -0.11524,-0.0247 -2.85757,-0.1977 -0.10318,-0.17298 -1.86149,-0.22241 -1.85811,-0.14828 -0.1109,-0.0988 -0.0222,-0.0247 -2.70559,-0.27183 -0.97603,-0.12356 -0.0987,-0.0741 -0.95704,-0.27183 -0.0877,-0.17299 -0.21762,-0.12356 -0.10143,-0.0741 -0.30698,-0.1977 -0.009,-0.0988 -0.24207,-0.14827 -1.13946,-0.79079 -0.29709,-0.12357 -0.29113,-0.44481 -0.40611,-0.22241 -0.23433,-0.14828 -0.13611,-0.19769 -0.48499,-0.24713 -0.12043,-0.14827 -0.11721,-0.0494 -0.23721,-0.14828 -0.28651,-0.12356 -0.077,-0.12356 -0.87695,-0.37068 -0.17925,-0.37068 -0.21761,-0.14828 -0.005,-0.0247 -0.40926,-0.14827 -0.16947,-0.1977 -1.5764,-0.71665 -0.29098,-0.12356 -0.12011,-0.14828 -0.47434,-0.17298 -0.11339,-0.12356 -0.19265,-0.12357 -0.12866,-0.12355 -0.10325,-0.14828 -0.035,-0.0494 -0.76641,-0.1977 -0.33646,-0.29655 -0.02,-0.0494 -0.39366,-0.14827 -1.38617,-0.84022 -0.30174,-0.37068 -0.44589,-0.17299 -0.14613,-0.0741 -0.44829,-0.22241 -1.08799,-0.54367 -0.24638,-0.22241 -0.56706,-0.56838 -0.44638,-0.14827 -0.0952,-0.14827 -0.53346,-0.32126 -1.41132,-0.22241 -1.75723,-0.17299 -11.64858,-0.39539 -0.9495,-0.0741 -4.40016,-0.1977 -0.011,-0.0494 -0.81495,-0.0494 -9.0281,-0.46953 -8.23065,-0.32125 -1.01208,-0.0494 -5.29167,-0.17299 -2.39818,-0.0988 -16.27242,-0.51896 -0.0149,-0.0494 -0.23642,-0.14828 -0.16988,-0.0741 -0.28846,-0.27184 -0.26488,-0.29654 -0.18587,-0.17299 -0.14941,-0.12356 -0.12195,-0.27183 -0.28264,-0.14828 -0.96013,-1.11205 -0.1012,-0.0988 -1.02619,-1.43331 -0.10068,-0.0741 -0.13394,-0.17298 -0.20145,-0.1977 -0.3096,-0.29655 -0.13782,-0.22241 -0.19627,-0.24712 -0.93898,-1.35916 -0.36133,-1.85342 -0.47638,-3.01489 -0.0703,-0.29654 -0.14279,-0.86493 -0.68158,-2.27352 -0.12756,-0.1977 -0.21701,-0.24712 -0.15346,-0.27183 -0.27215,-0.64252 -0.15335,-0.0988 -0.63546,-0.24712 -0.18035,-0.24712 -0.33156,-0.22241 -0.12994,-0.0988 -1.02018,-0.34597 -0.40134,-0.29655 -0.3124,-0.22241 -1.0314,-0.88964 -0.16913,-0.51895 -0.18549,-1.06263 -0.14123,-0.64251 -0.50287,-4.96715 -0.16254,-1.65571 -0.0657,-0.44483 -0.1372,-0.88964 -0.0893,-0.64251 -0.24002,-1.65572 -0.0856,-0.51895 -0.15274,-1.08734 -0.0487,-0.44481 -0.45625,-7.11712 -0.12972,-2.29823 -0.0964,-1.40859 -0.15573,-2.07582 -0.0636,-0.93906 -0.46961,-10.23085 -0.23015,-6.64758 -0.073,-1.80398 -0.22383,-7.78433 -0.0731,-3.06432 -0.11734,-4.8683 -0.16406,-6.72172 -0.27662,-12.380794 -0.13212,-6.375739 -0.0899,-5.387267 -0.17215,-9.365907 -0.0939,-5.164852 -0.16614,-11.985407 -0.0683,-4.126937 -0.13818,-9.73659 -0.0386,-1.680441 -0.40399,-12.9986 -0.0551,-0.197695 v 0"
         style="fill:none;stroke:#2ca02c;stroke-width:1.5;stroke-dasharray:5.55, 2.4;stroke-dashoffset:0;stroke-opacity:0.666667"
         id="path175070" />
    </g>
    <g
       id="line2d_36">
      <path
         clip-path="url(#pbac3f34c84)"
         d="m 563.62152,229.87449 -0.10716,-0.17299 -1.31047,-0.19769 -3.27578,-0.14828 -0.0605,-0.0988 -1.26052,-0.19769 -3.16061,-0.14828 -0.15139,-0.14827 -1.0321,-0.14827 -3.01071,-0.17299 -0.01,-0.0741 -1.18059,-0.1977 -2.99675,-0.17299 -0.0367,-0.0741 -1.10684,-0.1977 -2.85924,-0.17299 -0.67077,-0.27183 -3.2871,-0.34597 -0.19839,-0.0988 -2.30903,-0.17299 -1.08544,-0.12356 -0.0772,-0.0741 -1.51527,-0.24712 -2.01449,-0.22241 -0.10598,-0.0741 -1.97565,-0.32126 -1.3904,-0.12356 -0.3776,-0.22241 -2.13932,-0.1977 -0.85304,-0.12356 -0.0968,-0.0741 -1.51829,-0.27184 -1.67392,-0.1977 -0.87243,-0.24712 -2.27273,-0.24712 -0.33262,-0.14827 -1.05009,-0.1977 -1.61277,-0.12356 -0.10016,-0.0988 -1.25325,-0.27183 -1.61531,-0.12356 -0.12614,-0.0988 -1.827,-0.29655 -0.94478,-0.12356 -0.10616,-0.0741 -1.40867,-0.29654 -1.2511,-0.12356 -0.0886,-0.0741 -1.13262,-0.29655 -1.39811,-0.12356 -9e-5,-0.0247 -1.08802,-0.34597 -1.45882,-0.12356 -0.0845,-0.24712 -1.07979,-0.51896 -0.26224,-0.1977 -0.26119,-0.0988 -0.64757,-0.14828 -0.48484,-0.54367 -0.17893,-0.24712 -0.0963,-0.0741 -1.13606,-0.42011 -0.40426,-0.17299 -0.11486,-0.29654 -0.74946,-0.37069 -0.0106,-0.0247 -0.78925,-0.14827 -0.12416,-0.17299 -0.36995,-0.17298 -0.30842,-0.24712 -1.93576,-0.84022 -0.18509,-0.12356 -0.48523,-0.27183 -0.16958,-0.12356 -1.12497,-0.27184 -0.13939,-0.19769 -0.1453,-0.22241 -0.23685,-0.17299 -1.3026,-0.42011 -0.0578,-0.0741 -0.1263,-0.14828 -0.0958,-0.14827 -0.32328,-0.17298 -0.11051,-0.0988 -0.72647,-0.1977 -0.0627,-0.14827 -0.64985,-0.37069 -0.1196,-0.17298 -0.75136,-0.3954 -0.0823,-0.0989 -0.40796,-0.19769 -0.3609,-0.0988 -0.19389,-0.14827 -0.10167,-0.12356 -0.2983,-0.17299 -0.10798,-0.17299 -0.30485,-0.17298 -0.28856,-0.12356 -0.72677,-0.1977 -0.0695,-0.22241 -0.0674,-0.14827 -0.26515,-0.22241 -0.11703,-0.12356 -0.44662,-0.1977 -0.0756,-0.14827 -0.4044,-0.14828 -0.42493,-0.56838 -0.46702,-0.19769 -0.49383,-0.29655 -0.10216,-0.12356 -1.36426,-0.96378 -0.10926,-0.0741 -0.21283,-0.12356 -0.43272,-0.17299 -0.1011,-0.14827 -1.2817,-0.84022 -0.35319,-0.19769 -0.10938,-0.27184 -0.26616,-0.22241 -0.26195,-0.17298 -0.29362,-0.12356 -0.4592,-0.17299 -0.11342,-0.17298 -0.10323,-0.1977 -0.0815,-0.0741 -0.96408,-0.54366 -0.1081,-0.14828 -0.44968,-0.37068 -0.13871,-0.12356 -0.53162,-0.32126 -0.22182,-0.22241 -0.3023,-0.14827 -0.76022,-0.54367 -0.81922,-0.1977 -0.071,-0.12356 -1.58961,-0.6178 -0.004,-0.0247 -1.14755,-0.29655 -0.0686,-0.14827 -1.90607,-0.32126 -0.43305,-0.0247 -32.73104,-0.12356 -0.15149,-0.34597 -0.0804,-0.19769 -0.20037,-0.3954 -0.44967,-1.26032 -0.17848,-0.6178 -0.11073,-0.49425 -0.55033,-2.24881 -0.15033,-0.84021 -0.19053,-0.88964 -0.12833,-0.71666 -0.099,-0.4201 -0.75787,-4.42348 -0.0475,-0.1977 -0.14649,-0.6178 -0.34989,-1.45802 -0.13535,-0.42011 -0.246,-0.86492 -0.15739,-0.27184 -0.23062,-0.88964 -0.18028,-0.49424 -0.1137,-0.37068 -0.45245,-0.79079 -0.66671,-0.42011 -0.72646,-0.12356 -0.11471,-0.32126 -0.16986,-0.59309 -0.10879,-0.49424 -0.0598,-0.32126 -0.12454,-0.81551 -0.14833,-0.96377 -0.3074,-2.2241 -0.0222,-0.24712 -0.13403,-1.03791 -0.6667,-7.0924 -0.11091,-2.02639 -0.14612,-2.8419 -0.11785,-2.86662 -0.46503,-9.26706 -0.53486,-18.21288 -0.19195,-8.22916 -0.17859,-8.57513 -0.23186,-15.593367 -0.0258,-1.927562 -0.12058,-7.982031 -0.3739,-27.232825 -0.25711,-19.448489 -0.0441,-2.668912 -0.18268,-6.647583 -0.0421,-0.51895 v 0"
         style="fill:none;stroke:#ff7f0e;stroke-width:1.5;stroke-dasharray:1.5, 2.475;stroke-dashoffset:0;stroke-opacity:0.666667"
         id="path175073" />
    </g>
    <g
       id="line2d_37">
      <path
         clip-path="url(#pbac3f34c84)"
         d="m 696.36841,229.87449 -0.28858,-0.27184 -2.89171,-0.0741 -5.85923,-0.1977 -0.10345,-0.0741 -0.761,-0.0988 -7.61053,-0.19769 -0.0307,-0.0988 -3.80322,-0.14827 -4.41182,-0.12357 -0.10305,-0.0741 -0.82998,-0.14827 -7.22685,-0.1977 -0.0605,-0.0741 -3.13619,-0.22241 -4.66761,-0.12356 -0.48566,-0.14827 -0.24019,-0.0741 -0.12483,-0.0247 -7.07912,-0.22241 -0.77235,-0.22241 -6.49676,-0.29655 -0.5889,-0.19769 -6.45424,-0.29655 -0.017,-0.0247 -1.15166,-0.17299 -5.72994,-0.27183 -0.0645,-0.0741 -2.39079,-0.1977 -4.05897,-0.12356 -0.35209,-0.19769 -1.89461,-0.12356 -4.18261,-0.12357 -0.0201,-0.0988 -1.91527,-0.22241 -4.2561,-0.14828 -0.0327,-0.0741 -1.79577,-0.22241 -4.1336,-0.17299 -0.47091,-0.17298 -2.01653,-0.12356 -3.43241,-0.12357 -0.0545,-0.0988 -1.66636,-0.22241 -3.83762,-0.12356 -0.4434,-0.1977 -1.18502,-0.12356 -3.62632,-0.12356 -0.24861,-0.12357 -0.2442,-0.0741 -3.90685,-0.14827 -0.97177,-0.12357 -0.0612,-0.0741 -1.4467,-0.22241 -3.64935,-0.14827 -0.0653,-0.0988 -1.39844,-0.1977 -3.23871,-0.14827 -0.0361,-0.0988 -1.37758,-0.1977 -3.31981,-0.14827 -1.04559,-0.24713 -2.86863,-0.12356 -0.11763,-0.12356 -1.04074,-0.14827 -2.68065,-0.14827 -0.17987,-0.12356 -0.0224,-0.0247 -3.34979,-0.29654 -0.38355,-0.0988 -0.87038,-0.0988 -2.51022,-0.12356 -0.13161,-0.0741 -1.14328,-0.19769 -1.90805,-0.14828 -0.54952,-0.12356 -0.37762,-0.22241 -3.17008,-0.27183 -0.0603,-0.12356 -2.43696,-0.24713 -0.83142,-0.12356 -0.0475,-0.12356 -0.1739,-0.14827 -0.51813,-0.24712 -2.52516,-0.59309 -1.03715,-0.54367 -1.40036,-0.27183 -0.0711,-0.14828 -0.0863,-0.0494 -0.83483,-0.3954 -0.17849,-0.14827 -1.0159,-0.24712 -0.0327,-0.12356 -1.43225,-0.37069 -0.46253,-0.12356 -0.0967,-0.12356 -0.33808,-0.34597 -1.47505,-0.27183 -0.32465,-0.14827 -0.10856,-0.14828 -0.66474,-0.17298 -0.10134,-0.12356 -1.99917,-0.71666 -0.83143,-0.12356 -0.23343,-0.32126 -0.46223,-0.24712 -1.26996,-0.1977 -0.15359,-0.24712 -1.86639,-0.76608 -0.20958,-0.19769 -0.7099,-0.17299 -1.09369,-0.42011 -0.0471,-0.0741 -0.44661,-0.24713 -0.24365,-0.0494 -0.48261,-0.17298 -0.005,-0.0247 -0.54099,-0.14827 -0.29355,-0.24712 -0.29666,-0.12356 -0.33013,-0.12356 -0.11855,-0.14828 -0.76136,-0.24712 -0.14932,-0.17298 -0.12347,-0.0988 -0.62492,-0.1977 -0.004,-0.0247 -0.92948,-0.22241 -0.21858,-0.14827 -0.0881,-0.17299 -0.1207,-0.0988 -0.52212,-0.17298 -0.94978,-0.1977 -0.19558,-0.14827 -1.01531,-0.61781 -0.76189,-0.14827 -0.0438,-0.12356 -0.50576,-0.22241 -0.52276,-0.12356 -0.24531,-0.12357 -0.11114,-0.0741 -0.48335,-0.1977 -0.0452,-0.12356 -1.5005,-0.42011 -0.20387,-0.12356 -0.11652,-0.1977 -0.5457,-0.34596 -0.88008,-0.1977 -0.37617,-0.27183 -0.17009,-0.0494 -0.22297,-0.0494 -0.46555,-0.0988 -3.01133,-0.24713 -9.19743,-0.17298 -8.54077,-0.49424 -1.23161,-0.12356 -2.84037,-0.14828 -0.0684,-0.0494 -4.2117,-0.17299 -10.74397,-0.42011 -0.19181,-0.0247 -5.3938,-0.19769 -13.18991,-0.3954 -6.46983,-0.17298 -0.67974,-1.08734 -0.0986,-0.14827 -0.093,-0.1977 -0.15376,-0.17299 -0.0802,-0.17298 -0.11507,-0.14827 -0.20047,-0.49425 -0.30346,-0.64251 -0.10663,-0.17299 -0.61686,-2.61949 -0.30771,-1.631 -0.0943,-0.42011 -0.22553,-1.06262 -0.0711,-0.1977 -0.16666,-0.96378 -0.11668,-0.42011 -0.1391,-0.76607 -0.0985,-0.29655 -0.1908,-0.93906 -0.16948,-0.51896 -0.68027,-1.87812 -0.17943,-0.1977 -0.21914,-0.42011 -0.082,-0.14827 -0.18089,-0.1977 -1.30785,-1.53215 -0.12562,-0.12356 -0.71052,-0.12357 -0.89254,-0.12356 -0.56287,-0.29654 -0.56532,-0.49425 -0.37261,-0.2224 -0.42818,-1.77929 -0.13635,-1.28502 -0.23826,-2.27353 -0.2773,-2.91603 -0.0599,-0.69195 -0.13336,-1.28503 -0.0412,-0.42011 -0.0736,-0.54366 -0.24412,-1.60629 -0.0851,-0.59309 -0.49732,-4.67061 -0.56555,-9.3412 -0.43759,-8.03146 -0.67436,-21.25248 -0.2362,-9.98372 -0.0677,-2.91604 -0.55667,-27.158673 -0.13431,-7.191254 -0.0646,-5.337825 -0.13025,-9.711898 -0.0574,-4.275204 -0.25579,-15.791074 -0.3682,-9.786018 -0.0362,-0.271843 v 0"
         style="fill:none;stroke:#2ca02c;stroke-width:1.5;stroke-dasharray:1.5, 2.475;stroke-dashoffset:0;stroke-opacity:0.666667"
         id="path175076" />
    </g>
    <g
       id="patch_9">
      <path
         d="M 405.83949,239.75812 V 22.318125"
         style="fill:none;stroke:#000000;stroke-width:0.8;stroke-linecap:square;stroke-linejoin:miter"
         id="path175079" />
    </g>
    <g
       id="patch_10">
      <path
         d="M 710.20312,239.75812 V 22.318125"
         style="fill:none;stroke:#000000;stroke-width:0.8;stroke-linecap:square;stroke-linejoin:miter"
         id="path175082" />
    </g>
    <g
       id="patch_11">
      <path
         d="M 405.83949,239.75812 H 710.20312"
         style="fill:none;stroke:#000000;stroke-width:0.8;stroke-linecap:square;stroke-linejoin:miter"
         id="path175085" />
    </g>
    <g
       id="patch_12">
      <path
         d="M 405.83949,22.318125 H 710.20312"
         style="fill:none;stroke:#000000;stroke-width:0.8;stroke-linecap:square;stroke-linejoin:miter"
         id="path175088" />
    </g>
    <g
       id="text_33">
      <!-- dotted: dose 1 ;  dashed: dose 2 -->
      <g
         transform="matrix(0.12,0,0,-0.12,460.77818,16.318125)"
         id="g175163">
        <defs
           id="defs175097">
          <path
             d="m 45.40625,46.390625 v 29.59375 h 8.984375 V 0 H 45.40625 v 8.203125 q -2.828125,-4.875 -7.15625,-7.25 -4.3125,-2.375 -10.375,-2.375 -9.90625,0 -16.140625,7.90625 -6.21875,7.921875 -6.21875,20.8125 0,12.890625 6.21875,20.796875 Q 17.96875,56 27.875,56 q 6.0625,0 10.375,-2.375 4.328125,-2.359375 7.15625,-7.234375 z M 14.796875,27.296875 q 0,-9.90625 4.078125,-15.546875 4.078125,-5.640625 11.203125,-5.640625 7.125,0 11.21875,5.640625 4.109375,5.640625 4.109375,15.546875 0,9.90625 -4.109375,15.546875 -4.09375,5.640625 -11.21875,5.640625 -7.125,0 -11.203125,-5.640625 -4.078125,-5.640625 -4.078125,-15.546875 z"
             id="DejaVuSans-100" />
          <path
             d="M 18.3125,70.21875 V 54.6875 h 18.5 v -6.984375 h -18.5 v -29.6875 q 0,-6.6875 1.828125,-8.59375 1.828125,-1.90625 7.453125,-1.90625 H 36.8125 V 0 H 27.59375 Q 17.1875,0 13.234375,3.875 9.28125,7.765625 9.28125,18.015625 v 29.6875 H 2.6875 V 54.6875 h 6.59375 v 15.53125 z"
             id="DejaVuSans-116" />
          <path
             d="M 11.71875,12.40625 H 22.015625 V 0 H 11.71875 Z m 0,39.296875 H 22.015625 V 39.3125 H 11.71875 Z"
             id="DejaVuSans-58" />
          <path
             d="M 11.71875,51.703125 H 22.015625 V 39.3125 H 11.71875 Z m 0,-39.296875 H 22.015625 V 4 l -8,-15.625 H 7.71875 l 4,15.625 z"
             id="DejaVuSans-59" />
          <path
             d="m 34.28125,27.484375 q -10.890625,0 -15.09375,-2.484375 -4.203125,-2.484375 -4.203125,-8.5 0,-4.78125 3.15625,-7.59375 3.15625,-2.796875 8.5625,-2.796875 7.484375,0 12,5.296875 4.515625,5.296875 4.515625,14.078125 v 2 z m 17.921875,3.71875 V 0 H 43.21875 v 8.296875 q -3.078125,-4.96875 -7.671875,-7.34375 -4.59375,-2.375 -11.234375,-2.375 -8.390625,0 -13.359375,4.71875 Q 6,8.015625 6,15.921875 q 0,9.21875 6.171875,13.90625 6.1875,4.6875 18.4375,4.6875 H 43.21875 v 0.890625 q 0,6.203125 -4.078125,9.59375 -4.078125,3.390625 -11.453125,3.390625 -4.6875,0 -9.140625,-1.125 -4.4375,-1.125 -8.53125,-3.375 v 8.3125 q 4.921875,1.90625 9.5625,2.84375 Q 24.21875,56 28.609375,56 q 11.875,0 17.734375,-6.15625 5.859375,-6.140625 5.859375,-18.640625 z"
             id="DejaVuSans-97" />
          <path
             d="M 54.890625,33.015625 V 0 H 45.90625 v 32.71875 q 0,7.765625 -3.03125,11.609375 -3.03125,3.859375 -9.078125,3.859375 -7.28125,0 -11.484375,-4.640625 -4.203125,-4.625 -4.203125,-12.640625 V 0 h -9.03125 v 75.984375 h 9.03125 V 46.1875 q 3.234375,4.9375 7.59375,7.375 4.375,2.4375 10.09375,2.4375 9.421875,0 14.25,-5.828125 4.84375,-5.828125 4.84375,-17.15625 z"
             id="DejaVuSans-104" />
        </defs>
        <use
           xlink:href="#DejaVuSans-100"
           id="use175099" />
        <path
           d="m 94.085937,48.390625 q -7.21875,0 -11.421875,-5.640625 -4.203125,-5.640625 -4.203125,-15.453125 0,-9.8125 4.171875,-15.453125 4.1875,-5.640625 11.453125,-5.640625 7.187503,0 11.375003,5.65625 4.20312,5.671875 4.20312,15.4375 0,9.71875 -4.20312,15.40625 -4.1875,5.6875 -11.375003,5.6875 z m 0,7.609375 q 11.718753,0 18.406253,-7.625 6.70312,-7.609375 6.70312,-21.078125 0,-13.421875 -6.70312,-21.078125 -6.6875,-7.640625 -18.406253,-7.640625 -11.765625,0 -18.4375,7.640625 -6.65625,7.65625 -6.65625,21.078125 0,13.46875 6.65625,21.078125 Q 82.320312,56 94.085937,56 Z"
           id="use175101" />
        <use
           x="124.6582"
           xlink:href="#DejaVuSans-116"
           id="use175103" />
        <use
           x="163.86719"
           xlink:href="#DejaVuSans-116"
           id="use175105" />
        <path
           d="m 259.2793,29.59375 v -4.390625 h -41.3125 q 0.59375,-9.28125 5.59375,-14.140625 5,-4.859375 13.9375,-4.859375 5.17187,0 10.03125,1.265625 4.85937,1.265625 9.65625,3.8125 v -8.5 q -4.84375,-2.046875 -9.92188,-3.125 -5.07812,-1.078125 -10.29687,-1.078125 -13.09375,0 -20.73438,7.609375 -7.64062,7.625 -7.64062,20.625 0,13.421875 7.25,21.296875 Q 223.0918,56 235.4043,56 q 11.03125,0 17.45312,-7.109375 6.42188,-7.09375 6.42188,-19.296875 z m -8.98438,2.640625 q -0.0937,7.359375 -4.125,11.75 -4.03125,4.40625 -10.67187,4.40625 -7.51563,0 -12.03125,-4.25 -4.51563,-4.25 -5.20313,-11.96875 z"
           id="use175107" />
        <use
           x="264.59961"
           xlink:href="#DejaVuSans-100"
           id="use175109" />
        <use
           x="328.07617"
           xlink:href="#DejaVuSans-58"
           id="use175111" />
        <path
           id="use175113"
           d="" />
        <use
           x="393.55469"
           xlink:href="#DejaVuSans-100"
           id="use175115" />
        <path
           d="m 487.64062,48.390625 q -7.21875,0 -11.42187,-5.640625 -4.20313,-5.640625 -4.20313,-15.453125 0,-9.8125 4.17188,-15.453125 4.1875,-5.640625 11.45312,-5.640625 7.1875,0 11.375,5.65625 4.20313,5.671875 4.20313,15.4375 0,9.71875 -4.20313,15.40625 -4.1875,5.6875 -11.375,5.6875 z m 0,7.609375 q 11.71875,0 18.40625,-7.625 6.70313,-7.609375 6.70313,-21.078125 0,-13.421875 -6.70313,-21.078125 -6.6875,-7.640625 -18.40625,-7.640625 -11.76562,0 -18.4375,7.640625 -6.65625,7.65625 -6.65625,21.078125 0,13.46875 6.65625,21.078125 Q 475.875,56 487.64062,56 Z"
           id="use175117" />
        <path
           d="m 562.49414,53.078125 v -8.5 q -3.79687,1.953125 -7.90625,2.921875 -4.09375,0.984375 -8.5,0.984375 -6.6875,0 -10.03125,-2.046875 -3.34375,-2.046875 -3.34375,-6.15625 0,-3.125 2.39063,-4.90625 2.39062,-1.78125 9.625,-3.390625 l 3.07812,-0.6875 q 9.5625,-2.046875 13.59375,-5.78125 4.03125,-3.734375 4.03125,-10.421875 0,-7.625 -6.03125,-12.078125 -6.03125,-4.4375 -16.57812,-4.4375 -4.39063,0 -9.15625,0.859375 Q 528.90039,0.296875 523.63477,2 v 9.28125 q 4.98437,-2.59375 9.8125,-3.890625 4.82812,-1.28125 9.57812,-1.28125 6.34375,0 9.75,2.171875 3.42188,2.171875 3.42188,6.125 0,3.65625 -2.46875,5.609375 -2.45313,1.953125 -10.8125,3.765625 l -3.125,0.734375 q -8.34375,1.75 -12.0625,5.390625 -3.70313,3.640625 -3.70313,9.984375 0,7.71875 5.46875,11.90625 Q 534.96289,56 545.02539,56 q 4.96875,0 9.35938,-0.734375 4.40625,-0.71875 8.10937,-2.1875 z"
           id="use175119" />
        <path
           d="m 626.51562,29.59375 v -4.390625 h -41.3125 q 0.59375,-9.28125 5.59375,-14.140625 5,-4.859375 13.9375,-4.859375 5.17188,0 10.03125,1.265625 4.85938,1.265625 9.65625,3.8125 v -8.5 q -4.84375,-2.046875 -9.92187,-3.125 -5.07813,-1.078125 -10.29688,-1.078125 -13.09375,0 -20.73437,7.609375 -7.64063,7.625 -7.64063,20.625 0,13.421875 7.25,21.296875 Q 590.32812,56 602.64062,56 q 11.03125,0 17.45313,-7.109375 6.42187,-7.09375 6.42187,-19.296875 z m -8.98437,2.640625 q -0.0937,7.359375 -4.125,11.75 -4.03125,4.40625 -10.67188,4.40625 -7.51562,0 -12.03125,-4.25 -4.51562,-4.25 -5.20312,-11.96875 z"
           id="use175121" />
        <path
           id="use175123"
           d="" />
        <path
           d="m 676.0293,8.296875 h 16.10937 v 55.625 L 674.60742,60.40625 v 8.984375 l 17.4375,3.515625 h 9.85938 V 8.296875 h 16.10937 V 0 H 676.0293 Z"
           id="use175125" />
        <path
           id="use175127"
           d="" />
        <use
           x="759.0332"
           xlink:href="#DejaVuSans-59"
           id="use175129" />
        <path
           id="use175131"
           d="" />
        <path
           id="use175133"
           d="" />
        <use
           x="856.29883"
           xlink:href="#DejaVuSans-100"
           id="use175135" />
        <use
           x="919.77539"
           xlink:href="#DejaVuSans-97"
           id="use175137" />
        <path
           d="m 1025.3359,53.078125 v -8.5 q -3.7968,1.953125 -7.9062,2.921875 -4.0938,0.984375 -8.5,0.984375 -6.6875,0 -10.03126,-2.046875 -3.34375,-2.046875 -3.34375,-6.15625 0,-3.125 2.39062,-4.90625 2.39059,-1.78125 9.62499,-3.390625 l 3.0781,-0.6875 q 9.5625,-2.046875 13.5938,-5.78125 4.0312,-3.734375 4.0312,-10.421875 0,-7.625 -6.0312,-12.078125 -6.0313,-4.4375 -16.5781,-4.4375 -4.3907,0 -9.15629,0.859375 Q 991.74219,0.296875 986.47656,2 v 9.28125 q 4.98438,-2.59375 9.8125,-3.890625 4.82814,-1.28125 9.57814,-1.28125 6.3437,0 9.75,2.171875 3.4219,2.171875 3.4219,6.125 0,3.65625 -2.4688,5.609375 -2.4531,1.953125 -10.8125,3.765625 l -3.125,0.734375 q -8.34374,1.75 -12.06249,5.390625 -3.70312,3.640625 -3.70312,9.984375 0,7.71875 5.46875,11.90625 Q 997.80469,56 1007.8672,56 q 4.9687,0 9.3594,-0.734375 4.4062,-0.71875 8.1093,-2.1875 z"
           id="use175139" />
        <use
           x="1033.1543"
           xlink:href="#DejaVuSans-104"
           id="use175141" />
        <path
           d="m 1152.7363,29.59375 v -4.390625 h -41.3125 q 0.5938,-9.28125 5.5938,-14.140625 5,-4.859375 13.9375,-4.859375 5.1719,0 10.0312,1.265625 4.8594,1.265625 9.6563,3.8125 v -8.5 q -4.8438,-2.046875 -9.9219,-3.125 -5.0781,-1.078125 -10.2969,-1.078125 -13.0937,0 -20.7343,7.609375 -7.6407,7.625 -7.6407,20.625 0,13.421875 7.25,21.296875 Q 1116.5488,56 1128.8613,56 q 11.0313,0 17.4532,-7.109375 6.4218,-7.09375 6.4218,-19.296875 z m -8.9843,2.640625 q -0.094,7.359375 -4.125,11.75 -4.0313,4.40625 -10.6719,4.40625 -7.5156,0 -12.0313,-4.25 -4.5156,-4.25 -5.2031,-11.96875 z"
           id="use175143" />
        <use
           x="1158.0566"
           xlink:href="#DejaVuSans-100"
           id="use175145" />
        <use
           x="1221.5332"
           xlink:href="#DejaVuSans-58"
           id="use175147" />
        <path
           id="use175149"
           d="" />
        <use
           x="1287.0117"
           xlink:href="#DejaVuSans-100"
           id="use175151" />
        <path
           d="m 1381.0977,48.390625 q -7.2188,0 -11.4219,-5.640625 -4.2031,-5.640625 -4.2031,-15.453125 0,-9.8125 4.1718,-15.453125 4.1875,-5.640625 11.4532,-5.640625 7.1875,0 11.375,5.65625 4.2031,5.671875 4.2031,15.4375 0,9.71875 -4.2031,15.40625 -4.1875,5.6875 -11.375,5.6875 z m 0,7.609375 q 11.7187,0 18.4062,-7.625 6.7031,-7.609375 6.7031,-21.078125 0,-13.421875 -6.7031,-21.078125 -6.6875,-7.640625 -18.4062,-7.640625 -11.7657,0 -18.4375,7.640625 -6.6563,7.65625 -6.6563,21.078125 0,13.46875 6.6563,21.078125 6.6718,7.625 18.4375,7.625 z"
           id="use175153" />
        <path
           d="m 1455.9512,53.078125 v -8.5 q -3.7969,1.953125 -7.9063,2.921875 -4.0937,0.984375 -8.5,0.984375 -6.6875,0 -10.0312,-2.046875 -3.3438,-2.046875 -3.3438,-6.15625 0,-3.125 2.3906,-4.90625 2.3907,-1.78125 9.625,-3.390625 l 3.0782,-0.6875 q 9.5625,-2.046875 13.5937,-5.78125 4.0313,-3.734375 4.0313,-10.421875 0,-7.625 -6.0313,-12.078125 -6.0312,-4.4375 -16.5781,-4.4375 -4.3906,0 -9.1563,0.859375 -4.7656,0.859375 -10.0312,2.5625 v 9.28125 q 4.9844,-2.59375 9.8125,-3.890625 4.8281,-1.28125 9.5781,-1.28125 6.3438,0 9.75,2.171875 3.4219,2.171875 3.4219,6.125 0,3.65625 -2.4688,5.609375 -2.4531,1.953125 -10.8125,3.765625 l -3.125,0.734375 q -8.3437,1.75 -12.0625,5.390625 -3.7031,3.640625 -3.7031,9.984375 0,7.71875 5.4688,11.90625 Q 1428.4199,56 1438.4824,56 q 4.9688,0 9.3594,-0.734375 4.4062,-0.71875 8.1094,-2.1875 z"
           id="use175155" />
        <path
           d="m 1519.9727,29.59375 v -4.390625 h -41.3125 q 0.5937,-9.28125 5.5937,-14.140625 5,-4.859375 13.9375,-4.859375 5.1719,0 10.0313,1.265625 4.8593,1.265625 9.6562,3.8125 v -8.5 q -4.8437,-2.046875 -9.9219,-3.125 -5.0781,-1.078125 -10.2968,-1.078125 -13.0938,0 -20.7344,7.609375 -7.6406,7.625 -7.6406,20.625 0,13.421875 7.25,21.296875 Q 1483.7852,56 1496.0977,56 q 11.0312,0 17.4531,-7.109375 6.4219,-7.09375 6.4219,-19.296875 z m -8.9844,2.640625 q -0.094,7.359375 -4.125,11.75 -4.0313,4.40625 -10.6719,4.40625 -7.5156,0 -12.0312,-4.25 -4.5157,-4.25 -5.2032,-11.96875 z"
           id="use175157" />
        <path
           id="use175159"
           d="" />
        <path
           d="m 1576.2676,8.296875 h 34.4219 V 0 h -46.2813 v 8.296875 q 5.6094,5.8125 15.2969,15.59375 9.7031,9.796875 12.1875,12.640625 4.7344,5.3125 6.6094,9 1.8906,3.6875 1.8906,7.25 0,5.8125 -4.0781,9.46875 -4.0782,3.671875 -10.625,3.671875 -4.6407,0 -9.7969,-1.609375 -5.1406,-1.609375 -11,-4.890625 v 9.96875 q 5.9531,2.390625 11.125,3.609375 5.1875,1.21875 9.4844,1.21875 11.3281,0 18.0625,-5.671875 6.7343,-5.65625 6.7343,-15.125 0,-4.5 -1.6875,-8.53125 -1.6718,-4.015625 -6.125,-9.484375 -1.2187,-1.421875 -7.7656,-8.1875 -6.5312,-6.765625 -18.4531,-18.921875 z"
           id="use175161" />
      </g>
    </g>
  </g>
  <defs
     id="defs175174">
    <clipPath
       id="p3a3cdb3812">
      <rect
         height="217.44"
         width="304.36365"
         x="40.603127"
         y="22.318125"
         id="rect175168" />
    </clipPath>
    <clipPath
       id="pbac3f34c84">
      <rect
         height="217.44"
         width="304.36365"
         x="405.83948"
         y="22.318125"
         id="rect175171" />
    </clipPath>
  </defs>
</svg>
