<?xml version="1.0" encoding="utf-8" standalone="no"?>
<!DOCTYPE svg PUBLIC "-//W3C//DTD SVG 1.1//EN"
  "http://www.w3.org/Graphics/SVG/1.1/DTD/svg11.dtd">
<!-- Created with matplotlib (https://matplotlib.org/) -->
<svg height="314.667469pt" version="1.1" viewBox="0 0 489.3325 314.667469" width="489.3325pt" xmlns="http://www.w3.org/2000/svg" xmlns:xlink="http://www.w3.org/1999/xlink">
 <metadata>
  <rdf:RDF xmlns:cc="http://creativecommons.org/ns#" xmlns:dc="http://purl.org/dc/elements/1.1/" xmlns:rdf="http://www.w3.org/1999/02/22-rdf-syntax-ns#">
   <cc:Work>
    <dc:type rdf:resource="http://purl.org/dc/dcmitype/StillImage"/>
    <dc:date>2024-02-20T13:51:38.322692</dc:date>
    <dc:format>image/svg+xml</dc:format>
    <dc:creator>
     <cc:Agent>
      <dc:title>Matplotlib v3.3.2, https://matplotlib.org/</dc:title>
     </cc:Agent>
    </dc:creator>
   </cc:Work>
  </rdf:RDF>
 </metadata>
 <defs>
  <style type="text/css">*{stroke-linecap:butt;stroke-linejoin:round;}</style>
 </defs>
 <g id="figure_1">
  <g id="patch_1">
   <path d="M 0 314.667469 
L 489.3325 314.667469 
L 489.3325 0 
L 0 0 
z
" style="fill:#ffffff;"/>
  </g>
  <g id="axes_1">
   <g id="patch_2">
    <path d="M 43.78125 277.111219 
L 400.90125 277.111219 
L 400.90125 10.999219 
L 43.78125 10.999219 
z
" style="fill:#ffffff;"/>
   </g>
   <g id="matplotlib.axis_1">
    <g id="xtick_1">
     <g id="line2d_1">
      <path clip-path="url(#pf772862b5c)" d="M 43.78125 277.111219 
L 43.78125 10.999219 
" style="fill:none;stroke:#808080;stroke-linecap:square;stroke-width:0.8;"/>
     </g>
     <g id="line2d_2">
      <defs>
       <path d="M 0 0 
L 0 3.5 
" id="ma5eafcc780" style="stroke:#000000;stroke-width:0.8;"/>
      </defs>
      <g>
       <use style="stroke:#000000;stroke-width:0.8;" x="43.78125" xlink:href="#ma5eafcc780" y="277.111219"/>
      </g>
     </g>
     <g id="text_1">
      <!-- 0 -->
      <g transform="translate(40.6 291.709656)scale(0.1 -0.1)">
       <defs>
        <path d="M 31.78125 66.40625 
Q 24.171875 66.40625 20.328125 58.90625 
Q 16.5 51.421875 16.5 36.375 
Q 16.5 21.390625 20.328125 13.890625 
Q 24.171875 6.390625 31.78125 6.390625 
Q 39.453125 6.390625 43.28125 13.890625 
Q 47.125 21.390625 47.125 36.375 
Q 47.125 51.421875 43.28125 58.90625 
Q 39.453125 66.40625 31.78125 66.40625 
z
M 31.78125 74.21875 
Q 44.046875 74.21875 50.515625 64.515625 
Q 56.984375 54.828125 56.984375 36.375 
Q 56.984375 17.96875 50.515625 8.265625 
Q 44.046875 -1.421875 31.78125 -1.421875 
Q 19.53125 -1.421875 13.0625 8.265625 
Q 6.59375 17.96875 6.59375 36.375 
Q 6.59375 54.828125 13.0625 64.515625 
Q 19.53125 74.21875 31.78125 74.21875 
z
" id="DejaVuSans-48"/>
       </defs>
       <use xlink:href="#DejaVuSans-48"/>
      </g>
     </g>
    </g>
    <g id="xtick_2">
     <g id="line2d_3">
      <path clip-path="url(#pf772862b5c)" d="M 83.508645 277.111219 
L 83.508645 10.999219 
" style="fill:none;stroke:#808080;stroke-linecap:square;stroke-width:0.8;"/>
     </g>
     <g id="line2d_4">
      <g>
       <use style="stroke:#000000;stroke-width:0.8;" x="83.508645" xlink:href="#ma5eafcc780" y="277.111219"/>
      </g>
     </g>
     <g id="text_2">
      <!-- 10 -->
      <g transform="translate(77.146145 291.709656)scale(0.1 -0.1)">
       <defs>
        <path d="M 12.40625 8.296875 
L 28.515625 8.296875 
L 28.515625 63.921875 
L 10.984375 60.40625 
L 10.984375 69.390625 
L 28.421875 72.90625 
L 38.28125 72.90625 
L 38.28125 8.296875 
L 54.390625 8.296875 
L 54.390625 0 
L 12.40625 0 
z
" id="DejaVuSans-49"/>
       </defs>
       <use xlink:href="#DejaVuSans-49"/>
       <use x="63.623047" xlink:href="#DejaVuSans-48"/>
      </g>
     </g>
    </g>
    <g id="xtick_3">
     <g id="line2d_5">
      <path clip-path="url(#pf772862b5c)" d="M 123.23604 277.111219 
L 123.23604 10.999219 
" style="fill:none;stroke:#808080;stroke-linecap:square;stroke-width:0.8;"/>
     </g>
     <g id="line2d_6">
      <g>
       <use style="stroke:#000000;stroke-width:0.8;" x="123.23604" xlink:href="#ma5eafcc780" y="277.111219"/>
      </g>
     </g>
     <g id="text_3">
      <!-- 20 -->
      <g transform="translate(116.87354 291.709656)scale(0.1 -0.1)">
       <defs>
        <path d="M 19.1875 8.296875 
L 53.609375 8.296875 
L 53.609375 0 
L 7.328125 0 
L 7.328125 8.296875 
Q 12.9375 14.109375 22.625 23.890625 
Q 32.328125 33.6875 34.8125 36.53125 
Q 39.546875 41.84375 41.421875 45.53125 
Q 43.3125 49.21875 43.3125 52.78125 
Q 43.3125 58.59375 39.234375 62.25 
Q 35.15625 65.921875 28.609375 65.921875 
Q 23.96875 65.921875 18.8125 64.3125 
Q 13.671875 62.703125 7.8125 59.421875 
L 7.8125 69.390625 
Q 13.765625 71.78125 18.9375 73 
Q 24.125 74.21875 28.421875 74.21875 
Q 39.75 74.21875 46.484375 68.546875 
Q 53.21875 62.890625 53.21875 53.421875 
Q 53.21875 48.921875 51.53125 44.890625 
Q 49.859375 40.875 45.40625 35.40625 
Q 44.1875 33.984375 37.640625 27.21875 
Q 31.109375 20.453125 19.1875 8.296875 
z
" id="DejaVuSans-50"/>
       </defs>
       <use xlink:href="#DejaVuSans-50"/>
       <use x="63.623047" xlink:href="#DejaVuSans-48"/>
      </g>
     </g>
    </g>
    <g id="xtick_4">
     <g id="line2d_7">
      <path clip-path="url(#pf772862b5c)" d="M 162.963435 277.111219 
L 162.963435 10.999219 
" style="fill:none;stroke:#808080;stroke-linecap:square;stroke-width:0.8;"/>
     </g>
     <g id="line2d_8">
      <g>
       <use style="stroke:#000000;stroke-width:0.8;" x="162.963435" xlink:href="#ma5eafcc780" y="277.111219"/>
      </g>
     </g>
     <g id="text_4">
      <!-- 30 -->
      <g transform="translate(156.600935 291.709656)scale(0.1 -0.1)">
       <defs>
        <path d="M 40.578125 39.3125 
Q 47.65625 37.796875 51.625 33 
Q 55.609375 28.21875 55.609375 21.1875 
Q 55.609375 10.40625 48.1875 4.484375 
Q 40.765625 -1.421875 27.09375 -1.421875 
Q 22.515625 -1.421875 17.65625 -0.515625 
Q 12.796875 0.390625 7.625 2.203125 
L 7.625 11.71875 
Q 11.71875 9.328125 16.59375 8.109375 
Q 21.484375 6.890625 26.8125 6.890625 
Q 36.078125 6.890625 40.9375 10.546875 
Q 45.796875 14.203125 45.796875 21.1875 
Q 45.796875 27.640625 41.28125 31.265625 
Q 36.765625 34.90625 28.71875 34.90625 
L 20.21875 34.90625 
L 20.21875 43.015625 
L 29.109375 43.015625 
Q 36.375 43.015625 40.234375 45.921875 
Q 44.09375 48.828125 44.09375 54.296875 
Q 44.09375 59.90625 40.109375 62.90625 
Q 36.140625 65.921875 28.71875 65.921875 
Q 24.65625 65.921875 20.015625 65.03125 
Q 15.375 64.15625 9.8125 62.3125 
L 9.8125 71.09375 
Q 15.4375 72.65625 20.34375 73.4375 
Q 25.25 74.21875 29.59375 74.21875 
Q 40.828125 74.21875 47.359375 69.109375 
Q 53.90625 64.015625 53.90625 55.328125 
Q 53.90625 49.265625 50.4375 45.09375 
Q 46.96875 40.921875 40.578125 39.3125 
z
" id="DejaVuSans-51"/>
       </defs>
       <use xlink:href="#DejaVuSans-51"/>
       <use x="63.623047" xlink:href="#DejaVuSans-48"/>
      </g>
     </g>
    </g>
    <g id="xtick_5">
     <g id="line2d_9">
      <path clip-path="url(#pf772862b5c)" d="M 202.69083 277.111219 
L 202.69083 10.999219 
" style="fill:none;stroke:#808080;stroke-linecap:square;stroke-width:0.8;"/>
     </g>
     <g id="line2d_10">
      <g>
       <use style="stroke:#000000;stroke-width:0.8;" x="202.69083" xlink:href="#ma5eafcc780" y="277.111219"/>
      </g>
     </g>
     <g id="text_5">
      <!-- 40 -->
      <g transform="translate(196.32833 291.709656)scale(0.1 -0.1)">
       <defs>
        <path d="M 37.796875 64.3125 
L 12.890625 25.390625 
L 37.796875 25.390625 
z
M 35.203125 72.90625 
L 47.609375 72.90625 
L 47.609375 25.390625 
L 58.015625 25.390625 
L 58.015625 17.1875 
L 47.609375 17.1875 
L 47.609375 0 
L 37.796875 0 
L 37.796875 17.1875 
L 4.890625 17.1875 
L 4.890625 26.703125 
z
" id="DejaVuSans-52"/>
       </defs>
       <use xlink:href="#DejaVuSans-52"/>
       <use x="63.623047" xlink:href="#DejaVuSans-48"/>
      </g>
     </g>
    </g>
    <g id="xtick_6">
     <g id="line2d_11">
      <path clip-path="url(#pf772862b5c)" d="M 242.418225 277.111219 
L 242.418225 10.999219 
" style="fill:none;stroke:#808080;stroke-linecap:square;stroke-width:0.8;"/>
     </g>
     <g id="line2d_12">
      <g>
       <use style="stroke:#000000;stroke-width:0.8;" x="242.418225" xlink:href="#ma5eafcc780" y="277.111219"/>
      </g>
     </g>
     <g id="text_6">
      <!-- 50 -->
      <g transform="translate(236.055725 291.709656)scale(0.1 -0.1)">
       <defs>
        <path d="M 10.796875 72.90625 
L 49.515625 72.90625 
L 49.515625 64.59375 
L 19.828125 64.59375 
L 19.828125 46.734375 
Q 21.96875 47.46875 24.109375 47.828125 
Q 26.265625 48.1875 28.421875 48.1875 
Q 40.625 48.1875 47.75 41.5 
Q 54.890625 34.8125 54.890625 23.390625 
Q 54.890625 11.625 47.5625 5.09375 
Q 40.234375 -1.421875 26.90625 -1.421875 
Q 22.3125 -1.421875 17.546875 -0.640625 
Q 12.796875 0.140625 7.71875 1.703125 
L 7.71875 11.625 
Q 12.109375 9.234375 16.796875 8.0625 
Q 21.484375 6.890625 26.703125 6.890625 
Q 35.15625 6.890625 40.078125 11.328125 
Q 45.015625 15.765625 45.015625 23.390625 
Q 45.015625 31 40.078125 35.4375 
Q 35.15625 39.890625 26.703125 39.890625 
Q 22.75 39.890625 18.8125 39.015625 
Q 14.890625 38.140625 10.796875 36.28125 
z
" id="DejaVuSans-53"/>
       </defs>
       <use xlink:href="#DejaVuSans-53"/>
       <use x="63.623047" xlink:href="#DejaVuSans-48"/>
      </g>
     </g>
    </g>
    <g id="xtick_7">
     <g id="line2d_13">
      <path clip-path="url(#pf772862b5c)" d="M 282.14562 277.111219 
L 282.14562 10.999219 
" style="fill:none;stroke:#808080;stroke-linecap:square;stroke-width:0.8;"/>
     </g>
     <g id="line2d_14">
      <g>
       <use style="stroke:#000000;stroke-width:0.8;" x="282.14562" xlink:href="#ma5eafcc780" y="277.111219"/>
      </g>
     </g>
     <g id="text_7">
      <!-- 60 -->
      <g transform="translate(275.78312 291.709656)scale(0.1 -0.1)">
       <defs>
        <path d="M 33.015625 40.375 
Q 26.375 40.375 22.484375 35.828125 
Q 18.609375 31.296875 18.609375 23.390625 
Q 18.609375 15.53125 22.484375 10.953125 
Q 26.375 6.390625 33.015625 6.390625 
Q 39.65625 6.390625 43.53125 10.953125 
Q 47.40625 15.53125 47.40625 23.390625 
Q 47.40625 31.296875 43.53125 35.828125 
Q 39.65625 40.375 33.015625 40.375 
z
M 52.59375 71.296875 
L 52.59375 62.3125 
Q 48.875 64.0625 45.09375 64.984375 
Q 41.3125 65.921875 37.59375 65.921875 
Q 27.828125 65.921875 22.671875 59.328125 
Q 17.53125 52.734375 16.796875 39.40625 
Q 19.671875 43.65625 24.015625 45.921875 
Q 28.375 48.1875 33.59375 48.1875 
Q 44.578125 48.1875 50.953125 41.515625 
Q 57.328125 34.859375 57.328125 23.390625 
Q 57.328125 12.15625 50.6875 5.359375 
Q 44.046875 -1.421875 33.015625 -1.421875 
Q 20.359375 -1.421875 13.671875 8.265625 
Q 6.984375 17.96875 6.984375 36.375 
Q 6.984375 53.65625 15.1875 63.9375 
Q 23.390625 74.21875 37.203125 74.21875 
Q 40.921875 74.21875 44.703125 73.484375 
Q 48.484375 72.75 52.59375 71.296875 
z
" id="DejaVuSans-54"/>
       </defs>
       <use xlink:href="#DejaVuSans-54"/>
       <use x="63.623047" xlink:href="#DejaVuSans-48"/>
      </g>
     </g>
    </g>
    <g id="xtick_8">
     <g id="line2d_15">
      <path clip-path="url(#pf772862b5c)" d="M 321.873015 277.111219 
L 321.873015 10.999219 
" style="fill:none;stroke:#808080;stroke-linecap:square;stroke-width:0.8;"/>
     </g>
     <g id="line2d_16">
      <g>
       <use style="stroke:#000000;stroke-width:0.8;" x="321.873015" xlink:href="#ma5eafcc780" y="277.111219"/>
      </g>
     </g>
     <g id="text_8">
      <!-- 70 -->
      <g transform="translate(315.510515 291.709656)scale(0.1 -0.1)">
       <defs>
        <path d="M 8.203125 72.90625 
L 55.078125 72.90625 
L 55.078125 68.703125 
L 28.609375 0 
L 18.3125 0 
L 43.21875 64.59375 
L 8.203125 64.59375 
z
" id="DejaVuSans-55"/>
       </defs>
       <use xlink:href="#DejaVuSans-55"/>
       <use x="63.623047" xlink:href="#DejaVuSans-48"/>
      </g>
     </g>
    </g>
    <g id="xtick_9">
     <g id="line2d_17">
      <path clip-path="url(#pf772862b5c)" d="M 361.60041 277.111219 
L 361.60041 10.999219 
" style="fill:none;stroke:#808080;stroke-linecap:square;stroke-width:0.8;"/>
     </g>
     <g id="line2d_18">
      <g>
       <use style="stroke:#000000;stroke-width:0.8;" x="361.60041" xlink:href="#ma5eafcc780" y="277.111219"/>
      </g>
     </g>
     <g id="text_9">
      <!-- 80 -->
      <g transform="translate(355.23791 291.709656)scale(0.1 -0.1)">
       <defs>
        <path d="M 31.78125 34.625 
Q 24.75 34.625 20.71875 30.859375 
Q 16.703125 27.09375 16.703125 20.515625 
Q 16.703125 13.921875 20.71875 10.15625 
Q 24.75 6.390625 31.78125 6.390625 
Q 38.8125 6.390625 42.859375 10.171875 
Q 46.921875 13.96875 46.921875 20.515625 
Q 46.921875 27.09375 42.890625 30.859375 
Q 38.875 34.625 31.78125 34.625 
z
M 21.921875 38.8125 
Q 15.578125 40.375 12.03125 44.71875 
Q 8.5 49.078125 8.5 55.328125 
Q 8.5 64.0625 14.71875 69.140625 
Q 20.953125 74.21875 31.78125 74.21875 
Q 42.671875 74.21875 48.875 69.140625 
Q 55.078125 64.0625 55.078125 55.328125 
Q 55.078125 49.078125 51.53125 44.71875 
Q 48 40.375 41.703125 38.8125 
Q 48.828125 37.15625 52.796875 32.3125 
Q 56.78125 27.484375 56.78125 20.515625 
Q 56.78125 9.90625 50.3125 4.234375 
Q 43.84375 -1.421875 31.78125 -1.421875 
Q 19.734375 -1.421875 13.25 4.234375 
Q 6.78125 9.90625 6.78125 20.515625 
Q 6.78125 27.484375 10.78125 32.3125 
Q 14.796875 37.15625 21.921875 38.8125 
z
M 18.3125 54.390625 
Q 18.3125 48.734375 21.84375 45.5625 
Q 25.390625 42.390625 31.78125 42.390625 
Q 38.140625 42.390625 41.71875 45.5625 
Q 45.3125 48.734375 45.3125 54.390625 
Q 45.3125 60.0625 41.71875 63.234375 
Q 38.140625 66.40625 31.78125 66.40625 
Q 25.390625 66.40625 21.84375 63.234375 
Q 18.3125 60.0625 18.3125 54.390625 
z
" id="DejaVuSans-56"/>
       </defs>
       <use xlink:href="#DejaVuSans-56"/>
       <use x="63.623047" xlink:href="#DejaVuSans-48"/>
      </g>
     </g>
    </g>
    <g id="text_10">
     <!-- Dose (Gy) -->
     <g transform="translate(197.426406 305.387781)scale(0.1 -0.1)">
      <defs>
       <path d="M 19.671875 64.796875 
L 19.671875 8.109375 
L 31.59375 8.109375 
Q 46.6875 8.109375 53.6875 14.9375 
Q 60.6875 21.78125 60.6875 36.53125 
Q 60.6875 51.171875 53.6875 57.984375 
Q 46.6875 64.796875 31.59375 64.796875 
z
M 9.8125 72.90625 
L 30.078125 72.90625 
Q 51.265625 72.90625 61.171875 64.09375 
Q 71.09375 55.28125 71.09375 36.53125 
Q 71.09375 17.671875 61.125 8.828125 
Q 51.171875 0 30.078125 0 
L 9.8125 0 
z
" id="DejaVuSans-68"/>
       <path d="M 30.609375 48.390625 
Q 23.390625 48.390625 19.1875 42.75 
Q 14.984375 37.109375 14.984375 27.296875 
Q 14.984375 17.484375 19.15625 11.84375 
Q 23.34375 6.203125 30.609375 6.203125 
Q 37.796875 6.203125 41.984375 11.859375 
Q 46.1875 17.53125 46.1875 27.296875 
Q 46.1875 37.015625 41.984375 42.703125 
Q 37.796875 48.390625 30.609375 48.390625 
z
M 30.609375 56 
Q 42.328125 56 49.015625 48.375 
Q 55.71875 40.765625 55.71875 27.296875 
Q 55.71875 13.875 49.015625 6.21875 
Q 42.328125 -1.421875 30.609375 -1.421875 
Q 18.84375 -1.421875 12.171875 6.21875 
Q 5.515625 13.875 5.515625 27.296875 
Q 5.515625 40.765625 12.171875 48.375 
Q 18.84375 56 30.609375 56 
z
" id="DejaVuSans-111"/>
       <path d="M 44.28125 53.078125 
L 44.28125 44.578125 
Q 40.484375 46.53125 36.375 47.5 
Q 32.28125 48.484375 27.875 48.484375 
Q 21.1875 48.484375 17.84375 46.4375 
Q 14.5 44.390625 14.5 40.28125 
Q 14.5 37.15625 16.890625 35.375 
Q 19.28125 33.59375 26.515625 31.984375 
L 29.59375 31.296875 
Q 39.15625 29.25 43.1875 25.515625 
Q 47.21875 21.78125 47.21875 15.09375 
Q 47.21875 7.46875 41.1875 3.015625 
Q 35.15625 -1.421875 24.609375 -1.421875 
Q 20.21875 -1.421875 15.453125 -0.5625 
Q 10.6875 0.296875 5.421875 2 
L 5.421875 11.28125 
Q 10.40625 8.6875 15.234375 7.390625 
Q 20.0625 6.109375 24.8125 6.109375 
Q 31.15625 6.109375 34.5625 8.28125 
Q 37.984375 10.453125 37.984375 14.40625 
Q 37.984375 18.0625 35.515625 20.015625 
Q 33.0625 21.96875 24.703125 23.78125 
L 21.578125 24.515625 
Q 13.234375 26.265625 9.515625 29.90625 
Q 5.8125 33.546875 5.8125 39.890625 
Q 5.8125 47.609375 11.28125 51.796875 
Q 16.75 56 26.8125 56 
Q 31.78125 56 36.171875 55.265625 
Q 40.578125 54.546875 44.28125 53.078125 
z
" id="DejaVuSans-115"/>
       <path d="M 56.203125 29.59375 
L 56.203125 25.203125 
L 14.890625 25.203125 
Q 15.484375 15.921875 20.484375 11.0625 
Q 25.484375 6.203125 34.421875 6.203125 
Q 39.59375 6.203125 44.453125 7.46875 
Q 49.3125 8.734375 54.109375 11.28125 
L 54.109375 2.78125 
Q 49.265625 0.734375 44.1875 -0.34375 
Q 39.109375 -1.421875 33.890625 -1.421875 
Q 20.796875 -1.421875 13.15625 6.1875 
Q 5.515625 13.8125 5.515625 26.8125 
Q 5.515625 40.234375 12.765625 48.109375 
Q 20.015625 56 32.328125 56 
Q 43.359375 56 49.78125 48.890625 
Q 56.203125 41.796875 56.203125 29.59375 
z
M 47.21875 32.234375 
Q 47.125 39.59375 43.09375 43.984375 
Q 39.0625 48.390625 32.421875 48.390625 
Q 24.90625 48.390625 20.390625 44.140625 
Q 15.875 39.890625 15.1875 32.171875 
z
" id="DejaVuSans-101"/>
       <path id="DejaVuSans-32"/>
       <path d="M 31 75.875 
Q 24.46875 64.65625 21.28125 53.65625 
Q 18.109375 42.671875 18.109375 31.390625 
Q 18.109375 20.125 21.3125 9.0625 
Q 24.515625 -2 31 -13.1875 
L 23.1875 -13.1875 
Q 15.875 -1.703125 12.234375 9.375 
Q 8.59375 20.453125 8.59375 31.390625 
Q 8.59375 42.28125 12.203125 53.3125 
Q 15.828125 64.359375 23.1875 75.875 
z
" id="DejaVuSans-40"/>
       <path d="M 59.515625 10.40625 
L 59.515625 29.984375 
L 43.40625 29.984375 
L 43.40625 38.09375 
L 69.28125 38.09375 
L 69.28125 6.78125 
Q 63.578125 2.734375 56.6875 0.65625 
Q 49.8125 -1.421875 42 -1.421875 
Q 24.90625 -1.421875 15.25 8.5625 
Q 5.609375 18.5625 5.609375 36.375 
Q 5.609375 54.25 15.25 64.234375 
Q 24.90625 74.21875 42 74.21875 
Q 49.125 74.21875 55.546875 72.453125 
Q 61.96875 70.703125 67.390625 67.28125 
L 67.390625 56.78125 
Q 61.921875 61.421875 55.765625 63.765625 
Q 49.609375 66.109375 42.828125 66.109375 
Q 29.4375 66.109375 22.71875 58.640625 
Q 16.015625 51.171875 16.015625 36.375 
Q 16.015625 21.625 22.71875 14.15625 
Q 29.4375 6.6875 42.828125 6.6875 
Q 48.046875 6.6875 52.140625 7.59375 
Q 56.25 8.5 59.515625 10.40625 
z
" id="DejaVuSans-71"/>
       <path d="M 32.171875 -5.078125 
Q 28.375 -14.84375 24.75 -17.8125 
Q 21.140625 -20.796875 15.09375 -20.796875 
L 7.90625 -20.796875 
L 7.90625 -13.28125 
L 13.1875 -13.28125 
Q 16.890625 -13.28125 18.9375 -11.515625 
Q 21 -9.765625 23.484375 -3.21875 
L 25.09375 0.875 
L 2.984375 54.6875 
L 12.5 54.6875 
L 29.59375 11.921875 
L 46.6875 54.6875 
L 56.203125 54.6875 
z
" id="DejaVuSans-121"/>
       <path d="M 8.015625 75.875 
L 15.828125 75.875 
Q 23.140625 64.359375 26.78125 53.3125 
Q 30.421875 42.28125 30.421875 31.390625 
Q 30.421875 20.453125 26.78125 9.375 
Q 23.140625 -1.703125 15.828125 -13.1875 
L 8.015625 -13.1875 
Q 14.5 -2 17.703125 9.0625 
Q 20.90625 20.125 20.90625 31.390625 
Q 20.90625 42.671875 17.703125 53.65625 
Q 14.5 64.65625 8.015625 75.875 
z
" id="DejaVuSans-41"/>
      </defs>
      <use xlink:href="#DejaVuSans-68"/>
      <use x="77.001953" xlink:href="#DejaVuSans-111"/>
      <use x="138.183594" xlink:href="#DejaVuSans-115"/>
      <use x="190.283203" xlink:href="#DejaVuSans-101"/>
      <use x="251.806641" xlink:href="#DejaVuSans-32"/>
      <use x="283.59375" xlink:href="#DejaVuSans-40"/>
      <use x="322.607422" xlink:href="#DejaVuSans-71"/>
      <use x="400.097656" xlink:href="#DejaVuSans-121"/>
      <use x="459.277344" xlink:href="#DejaVuSans-41"/>
     </g>
    </g>
   </g>
   <g id="matplotlib.axis_2">
    <g id="ytick_1">
     <g id="line2d_19">
      <path clip-path="url(#pf772862b5c)" d="M 43.78125 277.111219 
L 400.90125 277.111219 
" style="fill:none;stroke:#808080;stroke-linecap:square;stroke-width:0.8;"/>
     </g>
     <g id="line2d_20">
      <defs>
       <path d="M 0 0 
L -3.5 0 
" id="m6a9cb8af65" style="stroke:#000000;stroke-width:0.8;"/>
      </defs>
      <g>
       <use style="stroke:#000000;stroke-width:0.8;" x="43.78125" xlink:href="#m6a9cb8af65" y="277.111219"/>
      </g>
     </g>
     <g id="text_11">
      <!-- 0.0 -->
      <g transform="translate(20.878125 280.910437)scale(0.1 -0.1)">
       <defs>
        <path d="M 10.6875 12.40625 
L 21 12.40625 
L 21 0 
L 10.6875 0 
z
" id="DejaVuSans-46"/>
       </defs>
       <use xlink:href="#DejaVuSans-48"/>
       <use x="63.623047" xlink:href="#DejaVuSans-46"/>
       <use x="95.410156" xlink:href="#DejaVuSans-48"/>
      </g>
     </g>
    </g>
    <g id="ytick_2">
     <g id="line2d_21">
      <path clip-path="url(#pf772862b5c)" d="M 43.78125 223.888819 
L 400.90125 223.888819 
" style="fill:none;stroke:#808080;stroke-linecap:square;stroke-width:0.8;"/>
     </g>
     <g id="line2d_22">
      <g>
       <use style="stroke:#000000;stroke-width:0.8;" x="43.78125" xlink:href="#m6a9cb8af65" y="223.888819"/>
      </g>
     </g>
     <g id="text_12">
      <!-- 0.2 -->
      <g transform="translate(20.878125 227.688037)scale(0.1 -0.1)">
       <use xlink:href="#DejaVuSans-48"/>
       <use x="63.623047" xlink:href="#DejaVuSans-46"/>
       <use x="95.410156" xlink:href="#DejaVuSans-50"/>
      </g>
     </g>
    </g>
    <g id="ytick_3">
     <g id="line2d_23">
      <path clip-path="url(#pf772862b5c)" d="M 43.78125 170.666419 
L 400.90125 170.666419 
" style="fill:none;stroke:#808080;stroke-linecap:square;stroke-width:0.8;"/>
     </g>
     <g id="line2d_24">
      <g>
       <use style="stroke:#000000;stroke-width:0.8;" x="43.78125" xlink:href="#m6a9cb8af65" y="170.666419"/>
      </g>
     </g>
     <g id="text_13">
      <!-- 0.4 -->
      <g transform="translate(20.878125 174.465637)scale(0.1 -0.1)">
       <use xlink:href="#DejaVuSans-48"/>
       <use x="63.623047" xlink:href="#DejaVuSans-46"/>
       <use x="95.410156" xlink:href="#DejaVuSans-52"/>
      </g>
     </g>
    </g>
    <g id="ytick_4">
     <g id="line2d_25">
      <path clip-path="url(#pf772862b5c)" d="M 43.78125 117.444019 
L 400.90125 117.444019 
" style="fill:none;stroke:#808080;stroke-linecap:square;stroke-width:0.8;"/>
     </g>
     <g id="line2d_26">
      <g>
       <use style="stroke:#000000;stroke-width:0.8;" x="43.78125" xlink:href="#m6a9cb8af65" y="117.444019"/>
      </g>
     </g>
     <g id="text_14">
      <!-- 0.6 -->
      <g transform="translate(20.878125 121.243237)scale(0.1 -0.1)">
       <use xlink:href="#DejaVuSans-48"/>
       <use x="63.623047" xlink:href="#DejaVuSans-46"/>
       <use x="95.410156" xlink:href="#DejaVuSans-54"/>
      </g>
     </g>
    </g>
    <g id="ytick_5">
     <g id="line2d_27">
      <path clip-path="url(#pf772862b5c)" d="M 43.78125 64.221619 
L 400.90125 64.221619 
" style="fill:none;stroke:#808080;stroke-linecap:square;stroke-width:0.8;"/>
     </g>
     <g id="line2d_28">
      <g>
       <use style="stroke:#000000;stroke-width:0.8;" x="43.78125" xlink:href="#m6a9cb8af65" y="64.221619"/>
      </g>
     </g>
     <g id="text_15">
      <!-- 0.8 -->
      <g transform="translate(20.878125 68.020837)scale(0.1 -0.1)">
       <use xlink:href="#DejaVuSans-48"/>
       <use x="63.623047" xlink:href="#DejaVuSans-46"/>
       <use x="95.410156" xlink:href="#DejaVuSans-56"/>
      </g>
     </g>
    </g>
    <g id="ytick_6">
     <g id="line2d_29">
      <path clip-path="url(#pf772862b5c)" d="M 43.78125 10.999219 
L 400.90125 10.999219 
" style="fill:none;stroke:#808080;stroke-linecap:square;stroke-width:0.8;"/>
     </g>
     <g id="line2d_30">
      <g>
       <use style="stroke:#000000;stroke-width:0.8;" x="43.78125" xlink:href="#m6a9cb8af65" y="10.999219"/>
      </g>
     </g>
     <g id="text_16">
      <!-- 1.0 -->
      <g transform="translate(20.878125 14.798437)scale(0.1 -0.1)">
       <use xlink:href="#DejaVuSans-49"/>
       <use x="63.623047" xlink:href="#DejaVuSans-46"/>
       <use x="95.410156" xlink:href="#DejaVuSans-48"/>
      </g>
     </g>
    </g>
    <g id="text_17">
     <!-- Volume (ratio) -->
     <g transform="translate(14.798438 179.670844)rotate(-90)scale(0.1 -0.1)">
      <defs>
       <path d="M 28.609375 0 
L 0.78125 72.90625 
L 11.078125 72.90625 
L 34.1875 11.53125 
L 57.328125 72.90625 
L 67.578125 72.90625 
L 39.796875 0 
z
" id="DejaVuSans-86"/>
       <path d="M 9.421875 75.984375 
L 18.40625 75.984375 
L 18.40625 0 
L 9.421875 0 
z
" id="DejaVuSans-108"/>
       <path d="M 8.5 21.578125 
L 8.5 54.6875 
L 17.484375 54.6875 
L 17.484375 21.921875 
Q 17.484375 14.15625 20.5 10.265625 
Q 23.53125 6.390625 29.59375 6.390625 
Q 36.859375 6.390625 41.078125 11.03125 
Q 45.3125 15.671875 45.3125 23.6875 
L 45.3125 54.6875 
L 54.296875 54.6875 
L 54.296875 0 
L 45.3125 0 
L 45.3125 8.40625 
Q 42.046875 3.421875 37.71875 1 
Q 33.40625 -1.421875 27.6875 -1.421875 
Q 18.265625 -1.421875 13.375 4.4375 
Q 8.5 10.296875 8.5 21.578125 
z
M 31.109375 56 
z
" id="DejaVuSans-117"/>
       <path d="M 52 44.1875 
Q 55.375 50.25 60.0625 53.125 
Q 64.75 56 71.09375 56 
Q 79.640625 56 84.28125 50.015625 
Q 88.921875 44.046875 88.921875 33.015625 
L 88.921875 0 
L 79.890625 0 
L 79.890625 32.71875 
Q 79.890625 40.578125 77.09375 44.375 
Q 74.3125 48.1875 68.609375 48.1875 
Q 61.625 48.1875 57.5625 43.546875 
Q 53.515625 38.921875 53.515625 30.90625 
L 53.515625 0 
L 44.484375 0 
L 44.484375 32.71875 
Q 44.484375 40.625 41.703125 44.40625 
Q 38.921875 48.1875 33.109375 48.1875 
Q 26.21875 48.1875 22.15625 43.53125 
Q 18.109375 38.875 18.109375 30.90625 
L 18.109375 0 
L 9.078125 0 
L 9.078125 54.6875 
L 18.109375 54.6875 
L 18.109375 46.1875 
Q 21.1875 51.21875 25.484375 53.609375 
Q 29.78125 56 35.6875 56 
Q 41.65625 56 45.828125 52.96875 
Q 50 49.953125 52 44.1875 
z
" id="DejaVuSans-109"/>
       <path d="M 41.109375 46.296875 
Q 39.59375 47.171875 37.8125 47.578125 
Q 36.03125 48 33.890625 48 
Q 26.265625 48 22.1875 43.046875 
Q 18.109375 38.09375 18.109375 28.8125 
L 18.109375 0 
L 9.078125 0 
L 9.078125 54.6875 
L 18.109375 54.6875 
L 18.109375 46.1875 
Q 20.953125 51.171875 25.484375 53.578125 
Q 30.03125 56 36.53125 56 
Q 37.453125 56 38.578125 55.875 
Q 39.703125 55.765625 41.0625 55.515625 
z
" id="DejaVuSans-114"/>
       <path d="M 34.28125 27.484375 
Q 23.390625 27.484375 19.1875 25 
Q 14.984375 22.515625 14.984375 16.5 
Q 14.984375 11.71875 18.140625 8.90625 
Q 21.296875 6.109375 26.703125 6.109375 
Q 34.1875 6.109375 38.703125 11.40625 
Q 43.21875 16.703125 43.21875 25.484375 
L 43.21875 27.484375 
z
M 52.203125 31.203125 
L 52.203125 0 
L 43.21875 0 
L 43.21875 8.296875 
Q 40.140625 3.328125 35.546875 0.953125 
Q 30.953125 -1.421875 24.3125 -1.421875 
Q 15.921875 -1.421875 10.953125 3.296875 
Q 6 8.015625 6 15.921875 
Q 6 25.140625 12.171875 29.828125 
Q 18.359375 34.515625 30.609375 34.515625 
L 43.21875 34.515625 
L 43.21875 35.40625 
Q 43.21875 41.609375 39.140625 45 
Q 35.0625 48.390625 27.6875 48.390625 
Q 23 48.390625 18.546875 47.265625 
Q 14.109375 46.140625 10.015625 43.890625 
L 10.015625 52.203125 
Q 14.9375 54.109375 19.578125 55.046875 
Q 24.21875 56 28.609375 56 
Q 40.484375 56 46.34375 49.84375 
Q 52.203125 43.703125 52.203125 31.203125 
z
" id="DejaVuSans-97"/>
       <path d="M 18.3125 70.21875 
L 18.3125 54.6875 
L 36.8125 54.6875 
L 36.8125 47.703125 
L 18.3125 47.703125 
L 18.3125 18.015625 
Q 18.3125 11.328125 20.140625 9.421875 
Q 21.96875 7.515625 27.59375 7.515625 
L 36.8125 7.515625 
L 36.8125 0 
L 27.59375 0 
Q 17.1875 0 13.234375 3.875 
Q 9.28125 7.765625 9.28125 18.015625 
L 9.28125 47.703125 
L 2.6875 47.703125 
L 2.6875 54.6875 
L 9.28125 54.6875 
L 9.28125 70.21875 
z
" id="DejaVuSans-116"/>
       <path d="M 9.421875 54.6875 
L 18.40625 54.6875 
L 18.40625 0 
L 9.421875 0 
z
M 9.421875 75.984375 
L 18.40625 75.984375 
L 18.40625 64.59375 
L 9.421875 64.59375 
z
" id="DejaVuSans-105"/>
      </defs>
      <use xlink:href="#DejaVuSans-86"/>
      <use x="60.658203" xlink:href="#DejaVuSans-111"/>
      <use x="121.839844" xlink:href="#DejaVuSans-108"/>
      <use x="149.623047" xlink:href="#DejaVuSans-117"/>
      <use x="213.001953" xlink:href="#DejaVuSans-109"/>
      <use x="310.414062" xlink:href="#DejaVuSans-101"/>
      <use x="371.9375" xlink:href="#DejaVuSans-32"/>
      <use x="403.724609" xlink:href="#DejaVuSans-40"/>
      <use x="442.738281" xlink:href="#DejaVuSans-114"/>
      <use x="483.851562" xlink:href="#DejaVuSans-97"/>
      <use x="545.130859" xlink:href="#DejaVuSans-116"/>
      <use x="584.339844" xlink:href="#DejaVuSans-105"/>
      <use x="612.123047" xlink:href="#DejaVuSans-111"/>
      <use x="673.304688" xlink:href="#DejaVuSans-41"/>
     </g>
    </g>
   </g>
   <g id="line2d_31">
    <path clip-path="url(#pf772862b5c)" d="M 384.005809 277.111219 
L 379.287525 274.450099 
L 375.569924 271.788979 
L 373.365982 269.127859 
L 372.375514 266.466739 
L 371.762362 263.805619 
L 371.147851 261.144499 
L 370.66977 258.483379 
L 370.041669 255.822259 
L 369.69849 253.161139 
L 369.415361 250.500019 
L 369.197932 247.838899 
L 368.968842 245.177779 
L 368.779532 242.516659 
L 368.604894 239.855539 
L 368.408324 237.194419 
L 368.210302 234.533299 
L 368.031153 231.872179 
L 367.882665 229.211059 
L 367.751458 226.549939 
L 367.572734 223.888819 
L 367.439489 221.227699 
L 367.248503 218.566579 
L 367.145438 215.905459 
L 366.978939 213.244339 
L 366.788966 210.583219 
L 366.606573 207.922099 
L 366.513824 205.260979 
L 366.384883 202.599859 
L 366.237805 199.938739 
L 366.059148 197.277619 
L 365.865911 194.616499 
L 365.742489 191.955379 
L 365.59436 189.294259 
L 365.439233 186.633139 
L 365.250307 183.972019 
L 365.062263 181.310899 
L 364.872478 178.649779 
L 364.636216 175.988659 
L 364.352864 173.327539 
L 364.083311 170.666419 
L 363.873383 168.005299 
L 363.599461 165.344179 
L 363.328619 162.683059 
L 363.045413 160.021939 
L 362.733807 157.360819 
L 362.418808 154.699699 
L 362.222305 152.038579 
L 362.07176 149.377459 
L 361.927 146.716339 
L 361.607351 144.055219 
L 361.343048 141.394099 
L 361.132999 138.732979 
L 360.849876 136.071859 
L 360.567828 133.410739 
L 360.318298 130.749619 
L 360.129237 128.088499 
L 359.876706 125.427379 
L 359.644098 122.766259 
L 359.411413 120.105139 
L 359.143726 117.444019 
L 358.879737 114.782899 
L 358.627747 112.121779 
L 358.358198 109.460659 
L 358.026253 106.799539 
L 357.786993 104.138419 
L 357.414318 101.477299 
L 357.188586 98.816179 
L 356.791477 96.155059 
L 356.47364 93.493939 
L 356.010411 90.832819 
L 355.690593 88.171699 
L 355.318667 85.510579 
L 354.941508 82.849459 
L 354.628505 80.188339 
L 354.352364 77.527219 
L 353.997102 74.866099 
L 353.588898 72.204979 
L 353.326147 69.543859 
L 352.788646 66.882739 
L 352.117175 64.221619 
L 351.771596 61.560499 
L 351.257555 58.899379 
L 350.543693 56.238259 
L 349.945168 53.577139 
L 349.18619 50.916019 
L 348.65571 48.254899 
L 348.076596 45.593779 
L 347.358221 42.932659 
L 346.661383 40.271539 
L 345.514197 37.610419 
L 344.681295 34.949299 
L 343.314261 32.288179 
L 341.809197 29.627059 
L 340.125349 26.965939 
L 338.446774 24.304819 
L 335.943257 21.643699 
L 331.390372 18.982579 
L 322.531341 16.321459 
L 308.22041 13.660339 
L 292.431651 10.999219 
" style="fill:none;stroke:#1f77b4;stroke-linecap:square;stroke-width:1.5;"/>
   </g>
   <g id="line2d_32">
    <path clip-path="url(#pf772862b5c)" d="M 330.541832 277.111219 
L 312.533688 274.450099 
L 297.036488 271.788979 
L 283.938408 269.127859 
L 274.037217 266.466739 
L 263.612156 263.805619 
L 252.83739 261.144499 
L 244.509029 258.483379 
L 236.994486 255.822259 
L 230.105797 253.161139 
L 222.474061 250.500019 
L 215.020979 247.838899 
L 211.092957 245.177779 
L 206.417637 242.516659 
L 202.044332 239.855539 
L 196.499545 237.194419 
L 192.344663 234.533299 
L 188.677239 231.872179 
L 186.618904 229.211059 
L 183.490994 226.549939 
L 179.877266 223.888819 
L 177.235931 221.227699 
L 174.458299 218.566579 
L 172.090753 215.905459 
L 169.378865 213.244339 
L 167.428918 210.583219 
L 165.3234 207.922099 
L 163.079209 205.260979 
L 161.21908 202.599859 
L 159.584217 199.938739 
L 158.01699 197.277619 
L 156.405938 194.616499 
L 154.799952 191.955379 
L 153.331684 189.294259 
L 152.222209 186.633139 
L 150.488489 183.972019 
L 149.345342 181.310899 
L 148.195025 178.649779 
L 147.074017 175.988659 
L 145.845196 173.327539 
L 144.179791 170.666419 
L 142.87197 168.005299 
L 141.321481 165.344179 
L 140.287045 162.683059 
L 139.114058 160.021939 
L 138.057964 157.360819 
L 136.990828 154.699699 
L 135.929773 152.038579 
L 134.799186 149.377459 
L 133.488055 146.716339 
L 132.589763 144.055219 
L 131.597265 141.394099 
L 130.809354 138.732979 
L 129.910498 136.071859 
L 128.862047 133.410739 
L 127.824028 130.749619 
L 126.515991 128.088499 
L 125.164171 125.427379 
L 123.764147 122.766259 
L 122.428616 120.105139 
L 120.836822 117.444019 
L 119.404757 114.782899 
L 118.239575 112.121779 
L 116.607151 109.460659 
L 115.039178 106.799539 
L 113.197768 104.138419 
L 111.761757 101.477299 
L 110.096601 98.816179 
L 108.438454 96.155059 
L 106.298243 93.493939 
L 104.389723 90.832819 
L 102.321187 88.171699 
L 99.814089 85.510579 
L 97.689557 82.849459 
L 95.780253 80.188339 
L 93.905454 77.527219 
L 91.783101 74.866099 
L 89.87946 72.204979 
L 88.107531 69.543859 
L 86.415796 66.882739 
L 84.910057 64.221619 
L 83.370618 61.560499 
L 81.73009 58.899379 
L 80.311147 56.238259 
L 78.888468 53.577139 
L 77.10806 50.916019 
L 75.022982 48.254899 
L 72.67847 45.593779 
L 70.151533 42.932659 
L 67.88616 40.271539 
L 65.913792 37.610419 
L 64.151812 34.949299 
L 62.026581 32.288179 
L 60.290411 29.627059 
L 58.860279 26.965939 
L 57.117485 24.304819 
L 55.517326 21.643699 
L 54.160565 18.982579 
L 52.785717 16.321459 
L 51.513422 13.660339 
L 49.843072 10.999219 
" style="fill:none;stroke:#ff7f0e;stroke-linecap:square;stroke-width:1.5;"/>
   </g>
   <g id="line2d_33">
    <path clip-path="url(#pf772862b5c)" d="M 334.472441 277.111219 
L 308.333809 274.450099 
L 291.460787 271.788979 
L 271.82978 269.127859 
L 261.853647 266.466739 
L 249.296192 263.805619 
L 239.762754 261.144499 
L 231.594554 258.483379 
L 224.946044 255.822259 
L 218.173048 253.161139 
L 211.996119 250.500019 
L 206.898779 247.838899 
L 202.512472 245.177779 
L 198.336191 242.516659 
L 194.522333 239.855539 
L 190.810771 237.194419 
L 187.971624 234.533299 
L 184.710457 231.872179 
L 181.848847 229.211059 
L 179.365695 226.549939 
L 176.691047 223.888819 
L 174.370854 221.227699 
L 172.373852 218.566579 
L 170.463986 215.905459 
L 168.151521 213.244339 
L 166.631264 210.583219 
L 164.883418 207.922099 
L 162.947533 205.260979 
L 161.409735 202.599859 
L 159.589211 199.938739 
L 158.361333 197.277619 
L 157.014612 194.616499 
L 155.617388 191.955379 
L 154.264323 189.294259 
L 152.58493 186.633139 
L 151.299737 183.972019 
L 150.237482 181.310899 
L 149.352596 178.649779 
L 147.967292 175.988659 
L 146.518675 173.327539 
L 144.822982 170.666419 
L 143.3926 168.005299 
L 142.02063 165.344179 
L 140.59423 162.683059 
L 139.123285 160.021939 
L 137.83781 157.360819 
L 136.630732 154.699699 
L 135.471816 152.038579 
L 134.339619 149.377459 
L 133.344907 146.716339 
L 132.044433 144.055219 
L 130.907286 141.394099 
L 129.450809 138.732979 
L 127.961268 136.071859 
L 126.244003 133.410739 
L 124.574125 130.749619 
L 123.054129 128.088499 
L 121.483716 125.427379 
L 119.550055 122.766259 
L 117.941469 120.105139 
L 116.570506 117.444019 
L 115.192109 114.782899 
L 113.826525 112.121779 
L 112.207368 109.460659 
L 110.732161 106.799539 
L 109.211464 104.138419 
L 107.491713 101.477299 
L 105.908184 98.816179 
L 103.654458 96.155059 
L 101.877844 93.493939 
L 99.469257 90.832819 
L 96.476749 88.171699 
L 93.046146 85.510579 
L 88.989342 82.849459 
L 85.168287 80.188339 
L 81.869754 77.527219 
L 78.377237 74.866099 
L 75.564289 72.204979 
L 72.460975 69.543859 
L 69.188525 66.882739 
L 66.978804 64.221619 
L 64.730804 61.560499 
L 62.692123 58.899379 
L 60.413009 56.238259 
L 58.467273 53.577139 
L 56.856342 50.916019 
L 55.677192 48.254899 
L 54.330593 45.593779 
L 53.210247 42.932659 
L 52.256267 40.271539 
L 51.475115 37.610419 
L 50.884886 34.949299 
L 50.352075 32.288179 
L 49.783362 29.627059 
L 49.358091 26.965939 
L 48.955242 24.304819 
L 48.587383 21.643699 
L 48.235837 18.982579 
L 47.931248 16.321459 
L 47.554978 13.660339 
L 47.047486 10.999219 
" style="fill:none;stroke:#2ca02c;stroke-linecap:square;stroke-width:1.5;"/>
   </g>
   <g id="line2d_34">
    <path clip-path="url(#pf772862b5c)" d="M 339.286272 277.111219 
L 314.606094 274.450099 
L 302.874026 271.788979 
L 292.283174 269.127859 
L 281.38019 266.466739 
L 271.810004 263.805619 
L 262.988527 261.144499 
L 254.120687 258.483379 
L 244.92342 255.822259 
L 238.47448 253.161139 
L 231.530913 250.500019 
L 225.920481 247.838899 
L 220.236428 245.177779 
L 214.652588 242.516659 
L 210.139217 239.855539 
L 205.289575 237.194419 
L 201.869573 234.533299 
L 197.961752 231.872179 
L 193.966846 229.211059 
L 190.727249 226.549939 
L 188.059797 223.888819 
L 185.091719 221.227699 
L 182.556804 218.566579 
L 179.727743 215.905459 
L 177.598042 213.244339 
L 175.022457 210.583219 
L 173.204113 207.922099 
L 171.493047 205.260979 
L 169.424729 202.599859 
L 167.506439 199.938739 
L 165.566305 197.277619 
L 163.6535 194.616499 
L 161.664074 191.955379 
L 160.217632 189.294259 
L 158.654997 186.633139 
L 157.413936 183.972019 
L 156.322331 181.310899 
L 155.392068 178.649779 
L 154.029097 175.988659 
L 152.789627 173.327539 
L 151.327938 170.666419 
L 150.204977 168.005299 
L 148.418734 165.344179 
L 147.046859 162.683059 
L 145.539563 160.021939 
L 144.282885 157.360819 
L 142.75402 154.699699 
L 141.144282 152.038579 
L 139.812996 149.377459 
L 138.347774 146.716339 
L 137.005902 144.055219 
L 135.606064 141.394099 
L 134.37689 138.732979 
L 133.183979 136.071859 
L 131.774473 133.410739 
L 130.150046 130.749619 
L 128.907038 128.088499 
L 127.287845 125.427379 
L 126.124263 122.766259 
L 124.715575 120.105139 
L 123.189714 117.444019 
L 121.510024 114.782899 
L 120.155367 112.121779 
L 119.021538 109.460659 
L 117.623249 106.799539 
L 116.294505 104.138419 
L 114.949408 101.477299 
L 113.679217 98.816179 
L 112.595738 96.155059 
L 111.353175 93.493939 
L 110.002239 90.832819 
L 108.679122 88.171699 
L 107.405493 85.510579 
L 105.994464 82.849459 
L 104.739419 80.188339 
L 103.23282 77.527219 
L 101.800912 74.866099 
L 100.444024 72.204979 
L 98.935408 69.543859 
L 97.533603 66.882739 
L 96.092296 64.221619 
L 94.560225 61.560499 
L 93.239272 58.899379 
L 92.031448 56.238259 
L 90.758446 53.577139 
L 88.985313 50.916019 
L 86.819288 48.254899 
L 84.488649 45.593779 
L 82.023701 42.932659 
L 79.670064 40.271539 
L 77.222458 37.610419 
L 74.937748 34.949299 
L 72.696449 32.288179 
L 70.206914 29.627059 
L 68.033736 26.965939 
L 65.543961 24.304819 
L 63.26562 21.643699 
L 60.966328 18.982579 
L 58.384759 16.321459 
L 55.848633 13.660339 
L 50.857935 10.999219 
" style="fill:none;stroke:#d62728;stroke-linecap:square;stroke-width:1.5;"/>
   </g>
   <g id="line2d_35">
    <path clip-path="url(#pf772862b5c)" d="M 335.648757 277.111219 
L 295.548743 274.450099 
L 268.954016 271.788979 
L 248.60499 269.127859 
L 231.939207 266.466739 
L 221.334164 263.805619 
L 210.646065 261.144499 
L 202.241676 258.483379 
L 195.017394 255.822259 
L 188.900152 253.161139 
L 183.556773 250.500019 
L 179.608693 247.838899 
L 175.393897 245.177779 
L 171.068336 242.516659 
L 166.839138 239.855539 
L 163.07826 237.194419 
L 158.719669 234.533299 
L 154.968158 231.872179 
L 151.434742 229.211059 
L 148.719784 226.549939 
L 145.485058 223.888819 
L 142.926353 221.227699 
L 141.287867 218.566579 
L 139.69772 215.905459 
L 137.838485 213.244339 
L 136.001647 210.583219 
L 134.450029 207.922099 
L 133.021025 205.260979 
L 131.724033 202.599859 
L 130.275678 199.938739 
L 128.624074 197.277619 
L 127.455736 194.616499 
L 126.140389 191.955379 
L 124.817392 189.294259 
L 123.63375 186.633139 
L 122.520684 183.972019 
L 121.167294 181.310899 
L 119.653643 178.649779 
L 118.033261 175.988659 
L 116.554215 173.327539 
L 115.008478 170.666419 
L 113.358639 168.005299 
L 111.23901 165.344179 
L 109.19514 162.683059 
L 107.163508 160.021939 
L 105.478243 157.360819 
L 103.880926 154.699699 
L 101.771998 152.038579 
L 99.70379 149.377459 
L 97.54621 146.716339 
L 94.929847 144.055219 
L 92.063296 141.394099 
L 90.337365 138.732979 
L 87.936741 136.071859 
L 85.521128 133.410739 
L 83.225641 130.749619 
L 80.328641 128.088499 
L 77.692963 125.427379 
L 75.644297 122.766259 
L 73.50024 120.105139 
L 70.546943 117.444019 
L 68.056385 114.782899 
L 66.355249 112.121779 
L 64.417212 109.460659 
L 62.432119 106.799539 
L 60.75714 104.138419 
L 59.39898 101.477299 
L 58.216806 98.816179 
L 56.893848 96.155059 
L 55.676691 93.493939 
L 54.727287 90.832819 
L 53.897185 88.171699 
L 53.009731 85.510579 
L 52.34037 82.849459 
L 51.762685 80.188339 
L 51.239518 77.527219 
L 50.740668 74.866099 
L 50.297833 72.204979 
L 49.925436 69.543859 
L 49.56961 66.882739 
L 49.288326 64.221619 
L 49.015449 61.560499 
L 48.803854 58.899379 
L 48.609597 56.238259 
L 48.37739 53.577139 
L 48.1955 50.916019 
L 48.027764 48.254899 
L 47.871285 45.593779 
L 47.741322 42.932659 
L 47.606569 40.271539 
L 47.470572 37.610419 
L 47.369769 34.949299 
L 47.249045 32.288179 
L 47.141103 29.627059 
L 47.02582 26.965939 
L 46.911863 24.304819 
L 46.809812 21.643699 
L 46.688525 18.982579 
L 46.56803 16.321459 
L 46.404279 13.660339 
L 46.096998 10.999219 
" style="fill:none;stroke:#9467bd;stroke-linecap:square;stroke-width:1.5;"/>
   </g>
   <g id="line2d_36">
    <path clip-path="url(#pf772862b5c)" d="M 338.133416 277.111219 
L 309.613719 274.450099 
L 290.764221 271.788979 
L 275.736043 269.127859 
L 263.281036 266.466739 
L 250.645971 263.805619 
L 243.274626 261.144499 
L 232.525416 258.483379 
L 226.261662 255.822259 
L 220.423524 253.161139 
L 213.539416 250.500019 
L 208.805845 247.838899 
L 205.015012 245.177779 
L 201.814761 242.516659 
L 197.914788 239.855539 
L 195.149821 237.194419 
L 192.122757 234.533299 
L 189.729535 231.872179 
L 187.812649 229.211059 
L 186.104685 226.549939 
L 184.267602 223.888819 
L 183.007967 221.227699 
L 181.461551 218.566579 
L 180.085246 215.905459 
L 178.750962 213.244339 
L 178.07344 210.583219 
L 177.191031 207.922099 
L 176.151811 205.260979 
L 175.080951 202.599859 
L 174.099045 199.938739 
L 172.916966 197.277619 
L 171.648451 194.616499 
L 170.486051 191.955379 
L 169.277574 189.294259 
L 168.11059 186.633139 
L 166.93175 183.972019 
L 165.743983 181.310899 
L 164.8263 178.649779 
L 163.645452 175.988659 
L 162.316778 173.327539 
L 161.346264 170.666419 
L 159.923772 168.005299 
L 158.443537 165.344179 
L 157.021212 162.683059 
L 155.745837 160.021939 
L 154.384743 157.360819 
L 153.105374 154.699699 
L 151.882046 152.038579 
L 150.343306 149.377459 
L 148.732609 146.716339 
L 147.427793 144.055219 
L 146.096214 141.394099 
L 144.654689 138.732979 
L 143.150596 136.071859 
L 141.327628 133.410739 
L 139.849941 130.749619 
L 137.79588 128.088499 
L 135.645374 125.427379 
L 133.759914 122.766259 
L 131.512492 120.105139 
L 129.110722 117.444019 
L 127.254597 114.782899 
L 124.539678 112.121779 
L 121.699514 109.460659 
L 118.532063 106.799539 
L 115.326565 104.138419 
L 112.442948 101.477299 
L 109.995435 98.816179 
L 107.119081 96.155059 
L 104.321814 93.493939 
L 102.131954 90.832819 
L 100.153565 88.171699 
L 98.125471 85.510579 
L 95.798919 82.849459 
L 93.589311 80.188339 
L 92.191449 77.527219 
L 89.886228 74.866099 
L 88.221661 72.204979 
L 86.171544 69.543859 
L 84.622516 66.882739 
L 83.356544 64.221619 
L 81.755345 61.560499 
L 79.752949 58.899379 
L 77.326407 56.238259 
L 74.674495 53.577139 
L 71.676423 50.916019 
L 68.696398 48.254899 
L 65.275968 45.593779 
L 62.720968 42.932659 
L 60.610677 40.271539 
L 58.402267 37.610419 
L 56.2077 34.949299 
L 54.33399 32.288179 
L 52.862676 29.627059 
L 51.585244 26.965939 
L 50.448093 24.304819 
L 49.61889 21.643699 
L 48.98412 18.982579 
L 48.352464 16.321459 
L 47.787668 13.660339 
L 47.155502 10.999219 
" style="fill:none;stroke:#8c564b;stroke-linecap:square;stroke-width:1.5;"/>
   </g>
   <g id="line2d_37">
    <path clip-path="url(#pf772862b5c)" d="M 353.654931 37.610419 
L 353.654931 24.304819 
L 343.723082 24.304819 
" style="fill:none;stroke:#1f77b4;stroke-linecap:square;stroke-width:1.5;"/>
   </g>
   <g id="line2d_38">
    <path clip-path="url(#pf772862b5c)" d="M 369.545889 250.500019 
L 369.545889 263.805619 
L 379.477738 263.805619 
" style="fill:none;stroke:#1f77b4;stroke-linecap:square;stroke-width:1.5;"/>
   </g>
   <g id="line2d_39">
    <path clip-path="url(#pf772862b5c)" d="M 130.386971 188.229811 
L 130.386971 201.535411 
L 140.31882 201.535411 
" style="fill:none;stroke:#ff7f0e;stroke-linecap:square;stroke-width:1.5;"/>
   </g>
   <g id="line2d_40">
    <path clip-path="url(#pf772862b5c)" d="M 137.935176 174.125875 
L 137.935176 187.431475 
L 147.867025 187.431475 
" style="fill:none;stroke:#2ca02c;stroke-linecap:square;stroke-width:1.5;"/>
   </g>
   <g id="line2d_41">
    <path clip-path="url(#pf772862b5c)" d="M 150.647942 199.672627 
L 150.647942 212.978227 
L 160.579791 212.978227 
" style="fill:none;stroke:#d62728;stroke-linecap:square;stroke-width:1.5;"/>
   </g>
   <g id="line2d_42">
    <path clip-path="url(#pf772862b5c)" d="M 154.620682 163.747507 
L 154.620682 177.053107 
L 164.552531 177.053107 
" style="fill:none;stroke:#9467bd;stroke-linecap:square;stroke-width:1.5;"/>
   </g>
   <g id="line2d_43">
    <path clip-path="url(#pf772862b5c)" d="M 166.141627 209.252659 
L 166.141627 222.558259 
L 176.073475 222.558259 
" style="fill:none;stroke:#8c564b;stroke-linecap:square;stroke-width:1.5;"/>
   </g>
   <g id="patch_3">
    <path d="M 43.78125 277.111219 
L 43.78125 10.999219 
" style="fill:none;stroke:#000000;stroke-linecap:square;stroke-linejoin:miter;stroke-width:0.8;"/>
   </g>
   <g id="patch_4">
    <path d="M 400.90125 277.111219 
L 400.90125 10.999219 
" style="fill:none;stroke:#000000;stroke-linecap:square;stroke-linejoin:miter;stroke-width:0.8;"/>
   </g>
   <g id="patch_5">
    <path d="M 43.78125 277.111219 
L 400.90125 277.111219 
" style="fill:none;stroke:#000000;stroke-linecap:square;stroke-linejoin:miter;stroke-width:0.8;"/>
   </g>
   <g id="patch_6">
    <path d="M 43.78125 10.999219 
L 400.90125 10.999219 
" style="fill:none;stroke:#000000;stroke-linecap:square;stroke-linejoin:miter;stroke-width:0.8;"/>
   </g>
   <g id="legend_1">
    <g id="patch_7">
     <path d="M 407.90125 190.284906 
L 480.1325 190.284906 
Q 482.1325 190.284906 482.1325 188.284906 
L 482.1325 99.825531 
Q 482.1325 97.825531 480.1325 97.825531 
L 407.90125 97.825531 
Q 405.90125 97.825531 405.90125 99.825531 
L 405.90125 188.284906 
Q 405.90125 190.284906 407.90125 190.284906 
z
" style="fill:#ffffff;opacity:0.8;stroke:#cccccc;stroke-linejoin:miter;"/>
    </g>
    <g id="line2d_44">
     <path d="M 409.90125 105.923969 
L 429.90125 105.923969 
" style="fill:none;stroke:#1f77b4;stroke-linecap:square;stroke-width:1.5;"/>
    </g>
    <g id="line2d_45"/>
    <g id="text_18">
     <!-- ptv -->
     <g transform="translate(437.90125 109.423969)scale(0.1 -0.1)">
      <defs>
       <path d="M 18.109375 8.203125 
L 18.109375 -20.796875 
L 9.078125 -20.796875 
L 9.078125 54.6875 
L 18.109375 54.6875 
L 18.109375 46.390625 
Q 20.953125 51.265625 25.265625 53.625 
Q 29.59375 56 35.59375 56 
Q 45.5625 56 51.78125 48.09375 
Q 58.015625 40.1875 58.015625 27.296875 
Q 58.015625 14.40625 51.78125 6.484375 
Q 45.5625 -1.421875 35.59375 -1.421875 
Q 29.59375 -1.421875 25.265625 0.953125 
Q 20.953125 3.328125 18.109375 8.203125 
z
M 48.6875 27.296875 
Q 48.6875 37.203125 44.609375 42.84375 
Q 40.53125 48.484375 33.40625 48.484375 
Q 26.265625 48.484375 22.1875 42.84375 
Q 18.109375 37.203125 18.109375 27.296875 
Q 18.109375 17.390625 22.1875 11.75 
Q 26.265625 6.109375 33.40625 6.109375 
Q 40.53125 6.109375 44.609375 11.75 
Q 48.6875 17.390625 48.6875 27.296875 
z
" id="DejaVuSans-112"/>
       <path d="M 2.984375 54.6875 
L 12.5 54.6875 
L 29.59375 8.796875 
L 46.6875 54.6875 
L 56.203125 54.6875 
L 35.6875 0 
L 23.484375 0 
z
" id="DejaVuSans-118"/>
      </defs>
      <use xlink:href="#DejaVuSans-112"/>
      <use x="63.476562" xlink:href="#DejaVuSans-116"/>
      <use x="102.685547" xlink:href="#DejaVuSans-118"/>
     </g>
    </g>
    <g id="line2d_46">
     <path d="M 409.90125 120.602094 
L 429.90125 120.602094 
" style="fill:none;stroke:#ff7f0e;stroke-linecap:square;stroke-width:1.5;"/>
    </g>
    <g id="line2d_47"/>
    <g id="text_19">
     <!-- organ_1 -->
     <g transform="translate(437.90125 124.102094)scale(0.1 -0.1)">
      <defs>
       <path d="M 45.40625 27.984375 
Q 45.40625 37.75 41.375 43.109375 
Q 37.359375 48.484375 30.078125 48.484375 
Q 22.859375 48.484375 18.828125 43.109375 
Q 14.796875 37.75 14.796875 27.984375 
Q 14.796875 18.265625 18.828125 12.890625 
Q 22.859375 7.515625 30.078125 7.515625 
Q 37.359375 7.515625 41.375 12.890625 
Q 45.40625 18.265625 45.40625 27.984375 
z
M 54.390625 6.78125 
Q 54.390625 -7.171875 48.1875 -13.984375 
Q 42 -20.796875 29.203125 -20.796875 
Q 24.46875 -20.796875 20.265625 -20.09375 
Q 16.0625 -19.390625 12.109375 -17.921875 
L 12.109375 -9.1875 
Q 16.0625 -11.328125 19.921875 -12.34375 
Q 23.78125 -13.375 27.78125 -13.375 
Q 36.625 -13.375 41.015625 -8.765625 
Q 45.40625 -4.15625 45.40625 5.171875 
L 45.40625 9.625 
Q 42.625 4.78125 38.28125 2.390625 
Q 33.9375 0 27.875 0 
Q 17.828125 0 11.671875 7.65625 
Q 5.515625 15.328125 5.515625 27.984375 
Q 5.515625 40.671875 11.671875 48.328125 
Q 17.828125 56 27.875 56 
Q 33.9375 56 38.28125 53.609375 
Q 42.625 51.21875 45.40625 46.390625 
L 45.40625 54.6875 
L 54.390625 54.6875 
z
" id="DejaVuSans-103"/>
       <path d="M 54.890625 33.015625 
L 54.890625 0 
L 45.90625 0 
L 45.90625 32.71875 
Q 45.90625 40.484375 42.875 44.328125 
Q 39.84375 48.1875 33.796875 48.1875 
Q 26.515625 48.1875 22.3125 43.546875 
Q 18.109375 38.921875 18.109375 30.90625 
L 18.109375 0 
L 9.078125 0 
L 9.078125 54.6875 
L 18.109375 54.6875 
L 18.109375 46.1875 
Q 21.34375 51.125 25.703125 53.5625 
Q 30.078125 56 35.796875 56 
Q 45.21875 56 50.046875 50.171875 
Q 54.890625 44.34375 54.890625 33.015625 
z
" id="DejaVuSans-110"/>
       <path d="M 50.984375 -16.609375 
L 50.984375 -23.578125 
L -0.984375 -23.578125 
L -0.984375 -16.609375 
z
" id="DejaVuSans-95"/>
      </defs>
      <use xlink:href="#DejaVuSans-111"/>
      <use x="61.181641" xlink:href="#DejaVuSans-114"/>
      <use x="100.544922" xlink:href="#DejaVuSans-103"/>
      <use x="164.021484" xlink:href="#DejaVuSans-97"/>
      <use x="225.300781" xlink:href="#DejaVuSans-110"/>
      <use x="288.679688" xlink:href="#DejaVuSans-95"/>
      <use x="338.679688" xlink:href="#DejaVuSans-49"/>
     </g>
    </g>
    <g id="line2d_48">
     <path d="M 409.90125 135.558344 
L 429.90125 135.558344 
" style="fill:none;stroke:#2ca02c;stroke-linecap:square;stroke-width:1.5;"/>
    </g>
    <g id="line2d_49"/>
    <g id="text_20">
     <!-- organ_2 -->
     <g transform="translate(437.90125 139.058344)scale(0.1 -0.1)">
      <use xlink:href="#DejaVuSans-111"/>
      <use x="61.181641" xlink:href="#DejaVuSans-114"/>
      <use x="100.544922" xlink:href="#DejaVuSans-103"/>
      <use x="164.021484" xlink:href="#DejaVuSans-97"/>
      <use x="225.300781" xlink:href="#DejaVuSans-110"/>
      <use x="288.679688" xlink:href="#DejaVuSans-95"/>
      <use x="338.679688" xlink:href="#DejaVuSans-50"/>
     </g>
    </g>
    <g id="line2d_50">
     <path d="M 409.90125 150.514594 
L 429.90125 150.514594 
" style="fill:none;stroke:#d62728;stroke-linecap:square;stroke-width:1.5;"/>
    </g>
    <g id="line2d_51"/>
    <g id="text_21">
     <!-- organ_3 -->
     <g transform="translate(437.90125 154.014594)scale(0.1 -0.1)">
      <use xlink:href="#DejaVuSans-111"/>
      <use x="61.181641" xlink:href="#DejaVuSans-114"/>
      <use x="100.544922" xlink:href="#DejaVuSans-103"/>
      <use x="164.021484" xlink:href="#DejaVuSans-97"/>
      <use x="225.300781" xlink:href="#DejaVuSans-110"/>
      <use x="288.679688" xlink:href="#DejaVuSans-95"/>
      <use x="338.679688" xlink:href="#DejaVuSans-51"/>
     </g>
    </g>
    <g id="line2d_52">
     <path d="M 409.90125 165.470844 
L 429.90125 165.470844 
" style="fill:none;stroke:#9467bd;stroke-linecap:square;stroke-width:1.5;"/>
    </g>
    <g id="line2d_53"/>
    <g id="text_22">
     <!-- organ_4 -->
     <g transform="translate(437.90125 168.970844)scale(0.1 -0.1)">
      <use xlink:href="#DejaVuSans-111"/>
      <use x="61.181641" xlink:href="#DejaVuSans-114"/>
      <use x="100.544922" xlink:href="#DejaVuSans-103"/>
      <use x="164.021484" xlink:href="#DejaVuSans-97"/>
      <use x="225.300781" xlink:href="#DejaVuSans-110"/>
      <use x="288.679688" xlink:href="#DejaVuSans-95"/>
      <use x="338.679688" xlink:href="#DejaVuSans-52"/>
     </g>
    </g>
    <g id="line2d_54">
     <path d="M 409.90125 180.427094 
L 429.90125 180.427094 
" style="fill:none;stroke:#8c564b;stroke-linecap:square;stroke-width:1.5;"/>
    </g>
    <g id="line2d_55"/>
    <g id="text_23">
     <!-- organ_5 -->
     <g transform="translate(437.90125 183.927094)scale(0.1 -0.1)">
      <use xlink:href="#DejaVuSans-111"/>
      <use x="61.181641" xlink:href="#DejaVuSans-114"/>
      <use x="100.544922" xlink:href="#DejaVuSans-103"/>
      <use x="164.021484" xlink:href="#DejaVuSans-97"/>
      <use x="225.300781" xlink:href="#DejaVuSans-110"/>
      <use x="288.679688" xlink:href="#DejaVuSans-95"/>
      <use x="338.679688" xlink:href="#DejaVuSans-53"/>
     </g>
    </g>
   </g>
  </g>
 </g>
 <defs>
  <clipPath id="pf772862b5c">
   <rect height="266.112" width="357.12" x="43.78125" y="10.999219"/>
  </clipPath>
 </defs>
</svg>
