<?xml version="1.0" encoding="UTF-8" standalone="no"?>
<svg
   width="460.8pt"
   height="345.6pt"
   viewBox="0 0 460.8 345.6"
   version="1.1"
   id="svg75"
   sodipodi:docname="distanceC_semilogy.svg"
   inkscape:version="1.3.2 (091e20e, 2023-11-25, custom)"
   xmlns:inkscape="http://www.inkscape.org/namespaces/inkscape"
   xmlns:sodipodi="http://sodipodi.sourceforge.net/DTD/sodipodi-0.dtd"
   xmlns:xlink="http://www.w3.org/1999/xlink"
   xmlns="http://www.w3.org/2000/svg"
   xmlns:svg="http://www.w3.org/2000/svg"
   xmlns:rdf="http://www.w3.org/1999/02/22-rdf-syntax-ns#"
   xmlns:cc="http://creativecommons.org/ns#"
   xmlns:dc="http://purl.org/dc/elements/1.1/">
  <sodipodi:namedview
     id="namedview75"
     pagecolor="#ffffff"
     bordercolor="#000000"
     borderopacity="0.25"
     inkscape:showpageshadow="2"
     inkscape:pageopacity="0.0"
     inkscape:pagecheckerboard="0"
     inkscape:deskcolor="#d1d1d1"
     inkscape:document-units="pt"
     inkscape:zoom="1.1359284"
     inkscape:cx="212.60143"
     inkscape:cy="308.55818"
     inkscape:window-width="1920"
     inkscape:window-height="1009"
     inkscape:window-x="-8"
     inkscape:window-y="-8"
     inkscape:window-maximized="1"
     inkscape:current-layer="svg75" />
  <metadata
     id="metadata1">
    <rdf:RDF>
      <cc:Work>
        <dc:type
           rdf:resource="http://purl.org/dc/dcmitype/StillImage" />
        <dc:date>2024-07-10T18:39:21.208426</dc:date>
        <dc:format>image/svg+xml</dc:format>
        <dc:creator>
          <cc:Agent>
            <dc:title>Matplotlib v3.8.4, https://matplotlib.org/</dc:title>
          </cc:Agent>
        </dc:creator>
      </cc:Work>
    </rdf:RDF>
  </metadata>
  <defs
     id="defs1">
    <style
       type="text/css"
       id="style1">*{stroke-linejoin: round; stroke-linecap: butt}</style>
  </defs>
  <g
     id="patch_2"
     transform="translate(21.679057)">
    <path
       d="M 57.6,307.584 H 414.72 V 41.472 H 57.6 Z"
       style="fill:#ffffff"
       id="path2" />
  </g>
  <g
     id="xtick_1"
     transform="translate(21.679057)">
    <g
       id="line2d_1">
      <defs
         id="defs2">
        <path
           id="m413669f1ad"
           d="M 0,0 V 3.5"
           style="stroke:#000000;stroke-width:0.8" />
      </defs>
      <g
         id="g2">
        <use
           xlink:href="#m413669f1ad"
           x="73.832726"
           y="307.58401"
           style="stroke:#000000;stroke-width:0.8"
           id="use2" />
      </g>
    </g>
    <g
       id="text_1">
      <!-- 0 -->
      <g
         transform="matrix(0.1,0,0,-0.1,70.651477,322.18244)"
         id="g3">
        <defs
           id="defs3">
          <path
             id="DejaVuSans-30"
             d="m 2034,4250 q -487,0 -733,-480 -245,-479 -245,-1442 0,-959 245,-1439 246,-480 733,-480 491,0 736,480 246,480 246,1439 0,963 -246,1442 -245,480 -736,480 z m 0,500 q 785,0 1199,-621 414,-620 414,-1801 0,-1178 -414,-1799 -414,-620 -1199,-620 -784,0 -1198,620 -414,621 -414,1799 0,1181 414,1801 414,621 1198,621 z"
             transform="scale(0.015625)" />
        </defs>
        <use
           xlink:href="#DejaVuSans-30"
           id="use3" />
      </g>
    </g>
  </g>
  <g
     id="xtick_2"
     transform="translate(21.679057)">
    <g
       id="line2d_2">
      <g
         id="g4">
        <use
           xlink:href="#m413669f1ad"
           x="182.0509"
           y="307.58401"
           style="stroke:#000000;stroke-width:0.8"
           id="use4" />
      </g>
    </g>
    <g
       id="text_2">
      <!-- 1 -->
      <g
         transform="matrix(0.1,0,0,-0.1,178.86966,322.18244)"
         id="g5">
        <defs
           id="defs4">
          <path
             id="DejaVuSans-31"
             d="M 794,531 H 1825 V 4091 L 703,3866 v 575 l 1116,225 h 631 V 531 H 3481 V 0 H 794 Z"
             transform="scale(0.015625)" />
        </defs>
        <use
           xlink:href="#DejaVuSans-31"
           id="use5" />
      </g>
    </g>
  </g>
  <g
     id="xtick_3"
     transform="translate(21.679057)">
    <g
       id="line2d_3">
      <g
         id="g6">
        <use
           xlink:href="#m413669f1ad"
           x="290.2691"
           y="307.58401"
           style="stroke:#000000;stroke-width:0.8"
           id="use6" />
      </g>
    </g>
    <g
       id="text_3">
      <!-- 2 -->
      <g
         transform="matrix(0.1,0,0,-0.1,287.08784,322.18244)"
         id="g7">
        <defs
           id="defs6">
          <path
             id="DejaVuSans-32"
             d="M 1228,531 H 3431 V 0 H 469 v 531 q 359,372 979,998 621,627 780,809 303,340 423,576 121,236 121,464 0,372 -261,606 -261,235 -680,235 -297,0 -627,-103 -329,-103 -704,-313 v 638 q 381,153 712,231 332,78 607,78 725,0 1156,-363 431,-362 431,-968 0,-288 -108,-546 -107,-257 -392,-607 -78,-91 -497,-524 Q 1991,1309 1228,531 Z"
             transform="scale(0.015625)" />
        </defs>
        <use
           xlink:href="#DejaVuSans-32"
           id="use7" />
      </g>
    </g>
  </g>
  <g
     id="xtick_4"
     transform="translate(21.679057)">
    <g
       id="line2d_4">
      <g
         id="g8">
        <use
           xlink:href="#m413669f1ad"
           x="398.48727"
           y="307.58401"
           style="stroke:#000000;stroke-width:0.8"
           id="use8" />
      </g>
    </g>
    <g
       id="text_4">
      <!-- 3 -->
      <g
         transform="matrix(0.1,0,0,-0.1,395.30602,322.18244)"
         id="g9">
        <defs
           id="defs8">
          <path
             id="DejaVuSans-33"
             d="m 2597,2516 q 453,-97 707,-404 255,-306 255,-756 0,-690 -475,-1069 -475,-378 -1350,-378 -293,0 -604,58 -311,58 -642,174 v 609 q 262,-153 574,-231 313,-78 654,-78 593,0 904,234 311,234 311,681 0,413 -289,645 -289,233 -804,233 h -544 v 519 h 569 q 465,0 712,186 247,186 247,536 0,359 -255,551 -254,193 -729,193 -260,0 -557,-57 -297,-56 -653,-174 v 562 q 360,100 674,150 314,50 592,50 719,0 1137,-327 419,-326 419,-882 0,-388 -222,-655 -222,-267 -631,-370 z"
             transform="scale(0.015625)" />
        </defs>
        <use
           xlink:href="#DejaVuSans-33"
           id="use9" />
      </g>
    </g>
  </g>
  <g
     id="text_5"
     transform="matrix(1.937828,0,0,1.937828,-213.53118,-307.85342)"
     style="stroke-width:0.516042">
    <!-- iteration -->
    <g
       transform="matrix(0.1,0,0,-0.1,215.03734,335.86056)"
       id="g18"
       style="stroke-width:0.516042">
      <defs
         id="defs9">
        <path
           id="DejaVuSans-69"
           d="m 603,3500 h 575 V 0 H 603 Z m 0,1363 h 575 V 4134 H 603 Z"
           transform="scale(0.015625)" />
        <path
           id="DejaVuSans-74"
           d="M 1172,4494 V 3500 H 2356 V 3053 H 1172 V 1153 q 0,-428 117,-550 117,-122 477,-122 h 590 V 0 H 1766 Q 1100,0 847,248 594,497 594,1153 V 3053 H 172 v 447 h 422 v 994 z"
           transform="scale(0.015625)" />
        <path
           id="DejaVuSans-65"
           d="M 3597,1894 V 1613 H 953 q 38,-594 358,-905 320,-311 892,-311 331,0 642,81 311,81 618,244 V 178 Q 3153,47 2828,-22 2503,-91 2169,-91 1331,-91 842,396 353,884 353,1716 q 0,859 464,1363 464,505 1252,505 706,0 1117,-455 411,-454 411,-1235 z m -575,169 q -6,471 -264,752 -258,282 -683,282 -481,0 -770,-272 -289,-272 -333,-766 z"
           transform="scale(0.015625)" />
        <path
           id="DejaVuSans-72"
           d="m 2631,2963 q -97,56 -211,82 -114,27 -251,27 -488,0 -749,-317 -261,-317 -261,-911 V 0 H 581 v 3500 h 578 v -544 q 182,319 472,473 291,155 707,155 59,0 131,-8 72,-7 159,-23 z"
           transform="scale(0.015625)" />
        <path
           id="DejaVuSans-61"
           d="m 2194,1759 q -697,0 -966,-159 -269,-159 -269,-544 0,-306 202,-486 202,-179 548,-179 479,0 768,339 289,339 289,901 v 128 z m 1147,238 V 0 H 2766 V 531 Q 2569,213 2275,61 1981,-91 1556,-91 q -537,0 -855,302 -317,302 -317,808 0,590 395,890 396,300 1180,300 h 807 v 57 q 0,397 -261,614 -261,217 -733,217 -300,0 -585,-72 -284,-72 -546,-216 v 532 q 315,122 612,182 297,61 578,61 760,0 1135,-394 375,-393 375,-1193 z"
           transform="scale(0.015625)" />
        <path
           id="DejaVuSans-6f"
           d="m 1959,3097 q -462,0 -731,-361 -269,-361 -269,-989 0,-628 267,-989 268,-361 733,-361 460,0 728,362 269,363 269,988 0,622 -269,986 -268,364 -728,364 z m 0,487 q 750,0 1178,-488 429,-487 429,-1349 Q 3566,888 3137,398 2709,-91 1959,-91 1206,-91 779,398 353,888 353,1747 q 0,862 426,1349 427,488 1180,488 z"
           transform="scale(0.015625)" />
        <path
           id="DejaVuSans-6e"
           d="M 3513,2113 V 0 h -575 v 2094 q 0,497 -194,743 -194,247 -581,247 -466,0 -735,-297 -269,-296 -269,-809 V 0 H 581 v 3500 h 578 v -544 q 207,316 486,472 280,156 646,156 603,0 912,-373 310,-373 310,-1098 z"
           transform="scale(0.015625)" />
      </defs>
      <use
         xlink:href="#DejaVuSans-69"
         id="use10"
         style="stroke-width:0.516042" />
      <use
         xlink:href="#DejaVuSans-74"
         x="27.783203"
         id="use11"
         style="stroke-width:0.516042" />
      <use
         xlink:href="#DejaVuSans-65"
         x="66.992188"
         id="use12"
         style="stroke-width:0.516042" />
      <use
         xlink:href="#DejaVuSans-72"
         x="128.51562"
         id="use13"
         style="stroke-width:0.516042" />
      <use
         xlink:href="#DejaVuSans-61"
         x="169.62891"
         id="use14"
         style="stroke-width:0.516042" />
      <use
         xlink:href="#DejaVuSans-74"
         x="230.9082"
         id="use15"
         style="stroke-width:0.516042" />
      <use
         xlink:href="#DejaVuSans-69"
         x="270.11719"
         id="use16"
         style="stroke-width:0.516042" />
      <use
         xlink:href="#DejaVuSans-6f"
         x="297.90039"
         id="use17"
         style="stroke-width:0.516042" />
      <use
         xlink:href="#DejaVuSans-6e"
         x="359.08203"
         id="use18"
         style="stroke-width:0.516042" />
    </g>
  </g>
  <g
     id="ytick_1"
     transform="translate(21.679057)">
    <g
       id="line2d_5">
      <defs
         id="defs18">
        <path
           id="m5d29e8ca7a"
           d="M 0,0 H -2"
           style="stroke:#000000;stroke-width:0.6" />
      </defs>
      <g
         id="g19">
        <use
           xlink:href="#m5d29e8ca7a"
           x="57.599998"
           y="264.41193"
           style="stroke:#000000;stroke-width:0.6"
           id="use19" />
      </g>
    </g>
    <g
       id="text_6">
      <!-- $\mathdefault{3\times10^{1}}$ -->
      <g
         transform="matrix(0.1,0,0,-0.1,16,268.21114)"
         id="g24">
        <defs
           id="defs19">
          <path
             id="DejaVuSans-d7"
             d="M 4488,3438 3059,2003 4488,575 4116,197 2681,1631 1247,197 878,575 2303,2003 878,3438 1247,3816 2681,2381 4116,3816 Z"
             transform="scale(0.015625)" />
        </defs>
        <use
           xlink:href="#DejaVuSans-33"
           transform="translate(0,0.684375)"
           id="use20" />
        <use
           xlink:href="#DejaVuSans-d7"
           transform="translate(83.105469,0.684375)"
           id="use21" />
        <use
           xlink:href="#DejaVuSans-31"
           transform="translate(186.37695,0.684375)"
           id="use22" />
        <use
           xlink:href="#DejaVuSans-30"
           transform="translate(250,0.684375)"
           id="use23" />
        <use
           xlink:href="#DejaVuSans-31"
           transform="matrix(0.7,0,0,0.7,314.58008,38.965625)"
           id="use24" />
      </g>
    </g>
  </g>
  <g
     id="ytick_2"
     transform="translate(21.679057)">
    <g
       id="line2d_6">
      <g
         id="g25">
        <use
           xlink:href="#m5d29e8ca7a"
           x="57.599998"
           y="69.968025"
           style="stroke:#000000;stroke-width:0.6"
           id="use25" />
      </g>
    </g>
    <g
       id="text_7">
      <!-- $\mathdefault{4\times10^{1}}$ -->
      <g
         transform="matrix(0.1,0,0,-0.1,16,73.767242)"
         id="g30">
        <defs
           id="defs25">
          <path
             id="DejaVuSans-34"
             d="M 2419,4116 825,1625 h 1594 z m -166,550 h 794 V 1625 h 666 V 1100 H 3047 V 0 H 2419 V 1100 H 313 v 609 z"
             transform="scale(0.015625)" />
        </defs>
        <use
           xlink:href="#DejaVuSans-34"
           transform="translate(0,0.684375)"
           id="use26" />
        <use
           xlink:href="#DejaVuSans-d7"
           transform="translate(83.105469,0.684375)"
           id="use27" />
        <use
           xlink:href="#DejaVuSans-31"
           transform="translate(186.37695,0.684375)"
           id="use28" />
        <use
           xlink:href="#DejaVuSans-30"
           transform="translate(250,0.684375)"
           id="use29" />
        <use
           xlink:href="#DejaVuSans-31"
           transform="matrix(0.7,0,0,0.7,314.58008,38.965625)"
           id="use30" />
      </g>
    </g>
  </g>
  <g
     id="text_8"
     transform="matrix(1.937828,0,0,1.937828,10.500607,-165.3867)"
     style="stroke-width:0.516042">
    <!-- distance -->
    <g
       transform="matrix(0,-0.1,-0.1,0,9.920312,195.71472)"
       id="g38"
       style="stroke-width:0.516042">
      <defs
         id="defs30">
        <path
           id="DejaVuSans-64"
           d="m 2906,2969 v 1894 h 575 V 0 H 2906 V 525 Q 2725,213 2448,61 2172,-91 1784,-91 1150,-91 751,415 353,922 353,1747 q 0,825 398,1331 399,506 1033,506 388,0 664,-152 277,-151 458,-463 z M 947,1747 q 0,-634 261,-995 261,-361 717,-361 456,0 718,361 263,361 263,995 0,634 -263,995 -262,361 -718,361 -456,0 -717,-361 -261,-361 -261,-995 z"
           transform="scale(0.015625)" />
        <path
           id="DejaVuSans-73"
           d="m 2834,3397 v -544 q -243,125 -506,187 -262,63 -544,63 -428,0 -642,-131 -214,-131 -214,-394 0,-200 153,-314 153,-114 616,-217 l 197,-44 q 612,-131 870,-370 258,-239 258,-667 0,-488 -386,-773 Q 2250,-91 1575,-91 1294,-91 989,-36 684,19 347,128 v 594 q 319,-166 628,-249 309,-82 613,-82 406,0 624,139 219,139 219,392 0,234 -158,359 -157,125 -692,241 l -200,47 q -534,112 -772,345 -237,233 -237,639 0,494 350,762 350,269 994,269 318,0 599,-47 282,-46 519,-140 z"
           transform="scale(0.015625)" />
        <path
           id="DejaVuSans-63"
           d="m 3122,3366 v -538 q -244,135 -489,202 -245,67 -495,67 -560,0 -870,-355 -309,-354 -309,-995 0,-641 309,-996 310,-354 870,-354 250,0 495,67 245,67 489,202 V 134 Q 2881,22 2623,-34 2366,-91 2075,-91 1284,-91 818,406 353,903 353,1747 q 0,856 470,1346 471,491 1290,491 265,0 518,-55 253,-54 491,-163 z"
           transform="scale(0.015625)" />
      </defs>
      <use
         xlink:href="#DejaVuSans-64"
         id="use31"
         style="stroke-width:0.516042" />
      <use
         xlink:href="#DejaVuSans-69"
         x="63.476562"
         id="use32"
         style="stroke-width:0.516042" />
      <use
         xlink:href="#DejaVuSans-73"
         x="91.259766"
         id="use33"
         style="stroke-width:0.516042" />
      <use
         xlink:href="#DejaVuSans-74"
         x="143.35938"
         id="use34"
         style="stroke-width:0.516042" />
      <use
         xlink:href="#DejaVuSans-61"
         x="182.56836"
         id="use35"
         style="stroke-width:0.516042" />
      <use
         xlink:href="#DejaVuSans-6e"
         x="243.84766"
         id="use36"
         style="stroke-width:0.516042" />
      <use
         xlink:href="#DejaVuSans-63"
         x="307.22656"
         id="use37"
         style="stroke-width:0.516042" />
      <use
         xlink:href="#DejaVuSans-65"
         x="362.20703"
         id="use38"
         style="stroke-width:0.516042" />
    </g>
  </g>
  <g
     id="line2d_7"
     transform="translate(21.679057)">
    <path
       d="m 73.832727,53.78751 108.218183,89.47978 108.21818,48.17357 108.21818,26.47091"
       clip-path="url(#p2b41c95d90)"
       style="fill:none;stroke:#1f77b4;stroke-width:1.5;stroke-linecap:square"
       id="path38" />
  </g>
  <g
     id="line2d_8"
     transform="translate(21.679057)">
    <path
       d="M 73.832727,54.820367 182.05091,156.88622 290.26909,205.34031 398.48727,231.45786"
       clip-path="url(#p2b41c95d90)"
       style="fill:none;stroke:#ff7f0e;stroke-width:1.5;stroke-linecap:square"
       id="path39" />
  </g>
  <g
     id="line2d_9"
     transform="translate(21.679057)">
    <path
       d="M 73.832727,53.568 182.05091,171.44337 290.26909,245.63722 398.48727,295.488"
       clip-path="url(#p2b41c95d90)"
       style="fill:none;stroke:#2ca02c;stroke-width:1.5;stroke-linecap:square"
       id="path40" />
  </g>
  <g
     id="patch_3"
     transform="translate(21.679057)">
    <path
       d="M 57.6,307.584 V 41.472"
       style="fill:none;stroke:#000000;stroke-width:0.8;stroke-linecap:square;stroke-linejoin:miter"
       id="path41" />
  </g>
  <g
     id="patch_4"
     transform="translate(21.679057)">
    <path
       d="M 414.72,307.584 V 41.472"
       style="fill:none;stroke:#000000;stroke-width:0.8;stroke-linecap:square;stroke-linejoin:miter"
       id="path42" />
  </g>
  <g
     id="patch_5"
     transform="translate(21.679057)">
    <path
       d="M 57.6,307.584 H 414.72"
       style="fill:none;stroke:#000000;stroke-width:0.8;stroke-linecap:square;stroke-linejoin:miter"
       id="path43" />
  </g>
  <g
     id="patch_6"
     transform="translate(21.679057)">
    <path
       d="M 57.6,41.472 H 414.72"
       style="fill:none;stroke:#000000;stroke-width:0.8;stroke-linecap:square;stroke-linejoin:miter"
       id="path44" />
  </g>
  <g
     id="legend_1"
     transform="translate(21.679057)">
    <g
       id="patch_7">
      <path
         d="M 368.73719,93.506375 H 407.72 q 2,0 2,-2 V 48.472 q 0,-2 -2,-2 h -38.98281 q -2,0 -2,2 v 43.034375 q 0,2 2,2 z"
         style="opacity:0.8;fill:#ffffff;stroke:#cccccc;stroke-linejoin:miter"
         id="path72" />
    </g>
    <g
       id="line2d_10">
      <path
         d="m 370.73719,54.570438 h 10 10"
         style="fill:none;stroke:#1f77b4;stroke-width:1.5;stroke-linecap:square"
         id="path73" />
    </g>
    <g
       id="text_10">
      <!-- A -->
      <g
         transform="matrix(0.1,0,0,-0.1,398.73719,58.070438)"
         id="g73">
        <defs
           id="defs73">
          <path
             id="DejaVuSans-41"
             d="M 2188,4044 1331,1722 h 1716 z m -357,622 h 716 L 4325,0 H 3669 L 3244,1197 H 1141 L 716,0 H 50 Z"
             transform="scale(0.015625)" />
        </defs>
        <use
           xlink:href="#DejaVuSans-41"
           id="use73" />
      </g>
    </g>
    <g
       id="line2d_11">
      <path
         d="m 370.73719,69.248563 h 10 10"
         style="fill:none;stroke:#ff7f0e;stroke-width:1.5;stroke-linecap:square"
         id="path74" />
    </g>
    <g
       id="text_11">
      <!-- B -->
      <g
         transform="matrix(0.1,0,0,-0.1,398.73719,72.748563)"
         id="g74">
        <defs
           id="defs74">
          <path
             id="DejaVuSans-42"
             d="M 1259,2228 V 519 h 1013 q 509,0 754,211 246,211 246,645 0,438 -246,645 -245,208 -754,208 z m 0,1919 V 2741 h 935 q 462,0 688,173 227,174 227,530 0,353 -227,528 -226,175 -688,175 z m -631,519 h 1613 q 722,0 1112,-300 391,-300 391,-853 0,-429 -200,-682 -200,-253 -588,-315 466,-100 724,-418 258,-317 258,-792 0,-625 -425,-966 Q 3088,0 2303,0 H 628 Z"
             transform="scale(0.015625)" />
        </defs>
        <use
           xlink:href="#DejaVuSans-42"
           id="use74" />
      </g>
    </g>
    <g
       id="line2d_12">
      <path
         d="m 370.73719,83.926688 h 10 10"
         style="fill:none;stroke:#2ca02c;stroke-width:1.5;stroke-linecap:square"
         id="path75" />
    </g>
    <g
       id="text_12">
      <!-- C -->
      <g
         transform="matrix(0.1,0,0,-0.1,398.73719,87.426688)"
         id="g75">
        <path
           id="use75"
           d="M 64.40625,67.28125 V 56.890625 q -4.984375,4.640625 -10.625,6.921875 -5.640625,2.296875 -11.984375,2.296875 -12.5,0 -19.140625,-7.640625 -6.640625,-7.640625 -6.640625,-22.09375 0,-14.40625 6.640625,-22.046875 Q 29.296875,6.6875 41.796875,6.6875 q 6.34375,0 11.984375,2.296875 5.640625,2.296875 10.625,6.9375 V 5.609375 Q 59.234375,2.09375 53.4375,0.328125 q -5.78125,-1.75 -12.21875,-1.75 -16.5625,0 -26.09375,10.125 Q 5.609375,18.84375 5.609375,36.375 q 0,17.578125 9.515625,27.703125 9.53125,10.140625 26.09375,10.140625 6.53125,0 12.3125,-1.734375 5.796875,-1.734375 10.875,-5.203125 z"
           style="stroke-width:0.015625" />
      </g>
    </g>
  </g>
  <defs
     id="defs75">
    <clipPath
       id="p2b41c95d90">
      <rect
         x="57.6"
         y="41.472"
         width="357.12"
         height="266.112"
         id="rect75" />
    </clipPath>
  </defs>
</svg>
