<?xml version="1.0" encoding="utf-8" standalone="no"?>
<!DOCTYPE svg PUBLIC "-//W3C//DTD SVG 1.1//EN"
  "http://www.w3.org/Graphics/SVG/1.1/DTD/svg11.dtd">
<svg xmlns:xlink="http://www.w3.org/1999/xlink" width="283.728125pt" height="211.07625pt" viewBox="0 0 283.728125 211.07625" xmlns="http://www.w3.org/2000/svg" version="1.1">
 <metadata>
  <rdf:RDF xmlns:dc="http://purl.org/dc/elements/1.1/" xmlns:cc="http://creativecommons.org/ns#" xmlns:rdf="http://www.w3.org/1999/02/22-rdf-syntax-ns#">
   <cc:Work>
    <dc:type rdf:resource="http://purl.org/dc/dcmitype/StillImage"/>
    <dc:date>2024-11-27T04:40:34.697336</dc:date>
    <dc:format>image/svg+xml</dc:format>
    <dc:creator>
     <cc:Agent>
      <dc:title>Matplotlib v3.7.2, https://matplotlib.org/</dc:title>
     </cc:Agent>
    </dc:creator>
   </cc:Work>
  </rdf:RDF>
 </metadata>
 <defs>
  <style type="text/css">*{stroke-linejoin: round; stroke-linecap: butt}</style>
 </defs>
 <g id="figure_1">
  <g id="patch_1">
   <path d="M 0 211.07625 
L 283.728125 211.07625 
L 283.728125 0 
L 0 0 
z
" style="fill: #ffffff"/>
  </g>
  <g id="axes_1">
   <g id="patch_2">
    <path d="M 46.965625 173.52 
L 270.165625 173.52 
L 270.165625 7.2 
L 46.965625 7.2 
z
" style="fill: #ffffff"/>
   </g>
   <g id="matplotlib.axis_1">
    <g id="xtick_1">
     <g id="line2d_1">
      <defs>
       <path id="m638826cbbc" d="M 0 0 
L 0 3.5 
" style="stroke: #000000; stroke-width: 0.8"/>
      </defs>
      <g>
       <use xlink:href="#m638826cbbc" x="46.965625" y="173.52" style="stroke: #000000; stroke-width: 0.8"/>
      </g>
     </g>
     <g id="text_1">
      <!-- 0 -->
      <g transform="translate(43.784375 188.118438) scale(0.1 -0.1)">
       <defs>
        <path id="DejaVuSans-30" d="M 2034 4250 
Q 1547 4250 1301 3770 
Q 1056 3291 1056 2328 
Q 1056 1369 1301 889 
Q 1547 409 2034 409 
Q 2525 409 2770 889 
Q 3016 1369 3016 2328 
Q 3016 3291 2770 3770 
Q 2525 4250 2034 4250 
z
M 2034 4750 
Q 2819 4750 3233 4129 
Q 3647 3509 3647 2328 
Q 3647 1150 3233 529 
Q 2819 -91 2034 -91 
Q 1250 -91 836 529 
Q 422 1150 422 2328 
Q 422 3509 836 4129 
Q 1250 4750 2034 4750 
z
" transform="scale(0.015625)"/>
       </defs>
       <use xlink:href="#DejaVuSans-30"/>
      </g>
     </g>
    </g>
    <g id="xtick_2">
     <g id="line2d_2">
      <g>
       <use xlink:href="#m638826cbbc" x="91.605625" y="173.52" style="stroke: #000000; stroke-width: 0.8"/>
      </g>
     </g>
     <g id="text_2">
      <!-- 10 -->
      <g transform="translate(85.243125 188.118438) scale(0.1 -0.1)">
       <defs>
        <path id="DejaVuSans-31" d="M 794 531 
L 1825 531 
L 1825 4091 
L 703 3866 
L 703 4441 
L 1819 4666 
L 2450 4666 
L 2450 531 
L 3481 531 
L 3481 0 
L 794 0 
L 794 531 
z
" transform="scale(0.015625)"/>
       </defs>
       <use xlink:href="#DejaVuSans-31"/>
       <use xlink:href="#DejaVuSans-30" x="63.623047"/>
      </g>
     </g>
    </g>
    <g id="xtick_3">
     <g id="line2d_3">
      <g>
       <use xlink:href="#m638826cbbc" x="136.245625" y="173.52" style="stroke: #000000; stroke-width: 0.8"/>
      </g>
     </g>
     <g id="text_3">
      <!-- 20 -->
      <g transform="translate(129.883125 188.118438) scale(0.1 -0.1)">
       <defs>
        <path id="DejaVuSans-32" d="M 1228 531 
L 3431 531 
L 3431 0 
L 469 0 
L 469 531 
Q 828 903 1448 1529 
Q 2069 2156 2228 2338 
Q 2531 2678 2651 2914 
Q 2772 3150 2772 3378 
Q 2772 3750 2511 3984 
Q 2250 4219 1831 4219 
Q 1534 4219 1204 4116 
Q 875 4013 500 3803 
L 500 4441 
Q 881 4594 1212 4672 
Q 1544 4750 1819 4750 
Q 2544 4750 2975 4387 
Q 3406 4025 3406 3419 
Q 3406 3131 3298 2873 
Q 3191 2616 2906 2266 
Q 2828 2175 2409 1742 
Q 1991 1309 1228 531 
z
" transform="scale(0.015625)"/>
       </defs>
       <use xlink:href="#DejaVuSans-32"/>
       <use xlink:href="#DejaVuSans-30" x="63.623047"/>
      </g>
     </g>
    </g>
    <g id="xtick_4">
     <g id="line2d_4">
      <g>
       <use xlink:href="#m638826cbbc" x="180.885625" y="173.52" style="stroke: #000000; stroke-width: 0.8"/>
      </g>
     </g>
     <g id="text_4">
      <!-- 30 -->
      <g transform="translate(174.523125 188.118438) scale(0.1 -0.1)">
       <defs>
        <path id="DejaVuSans-33" d="M 2597 2516 
Q 3050 2419 3304 2112 
Q 3559 1806 3559 1356 
Q 3559 666 3084 287 
Q 2609 -91 1734 -91 
Q 1441 -91 1130 -33 
Q 819 25 488 141 
L 488 750 
Q 750 597 1062 519 
Q 1375 441 1716 441 
Q 2309 441 2620 675 
Q 2931 909 2931 1356 
Q 2931 1769 2642 2001 
Q 2353 2234 1838 2234 
L 1294 2234 
L 1294 2753 
L 1863 2753 
Q 2328 2753 2575 2939 
Q 2822 3125 2822 3475 
Q 2822 3834 2567 4026 
Q 2313 4219 1838 4219 
Q 1578 4219 1281 4162 
Q 984 4106 628 3988 
L 628 4550 
Q 988 4650 1302 4700 
Q 1616 4750 1894 4750 
Q 2613 4750 3031 4423 
Q 3450 4097 3450 3541 
Q 3450 3153 3228 2886 
Q 3006 2619 2597 2516 
z
" transform="scale(0.015625)"/>
       </defs>
       <use xlink:href="#DejaVuSans-33"/>
       <use xlink:href="#DejaVuSans-30" x="63.623047"/>
      </g>
     </g>
    </g>
    <g id="xtick_5">
     <g id="line2d_5">
      <g>
       <use xlink:href="#m638826cbbc" x="225.525625" y="173.52" style="stroke: #000000; stroke-width: 0.8"/>
      </g>
     </g>
     <g id="text_5">
      <!-- 40 -->
      <g transform="translate(219.163125 188.118438) scale(0.1 -0.1)">
       <defs>
        <path id="DejaVuSans-34" d="M 2419 4116 
L 825 1625 
L 2419 1625 
L 2419 4116 
z
M 2253 4666 
L 3047 4666 
L 3047 1625 
L 3713 1625 
L 3713 1100 
L 3047 1100 
L 3047 0 
L 2419 0 
L 2419 1100 
L 313 1100 
L 313 1709 
L 2253 4666 
z
" transform="scale(0.015625)"/>
       </defs>
       <use xlink:href="#DejaVuSans-34"/>
       <use xlink:href="#DejaVuSans-30" x="63.623047"/>
      </g>
     </g>
    </g>
    <g id="xtick_6">
     <g id="line2d_6">
      <g>
       <use xlink:href="#m638826cbbc" x="270.165625" y="173.52" style="stroke: #000000; stroke-width: 0.8"/>
      </g>
     </g>
     <g id="text_6">
      <!-- 50 -->
      <g transform="translate(263.803125 188.118438) scale(0.1 -0.1)">
       <defs>
        <path id="DejaVuSans-35" d="M 691 4666 
L 3169 4666 
L 3169 4134 
L 1269 4134 
L 1269 2991 
Q 1406 3038 1543 3061 
Q 1681 3084 1819 3084 
Q 2600 3084 3056 2656 
Q 3513 2228 3513 1497 
Q 3513 744 3044 326 
Q 2575 -91 1722 -91 
Q 1428 -91 1123 -41 
Q 819 9 494 109 
L 494 744 
Q 775 591 1075 516 
Q 1375 441 1709 441 
Q 2250 441 2565 725 
Q 2881 1009 2881 1497 
Q 2881 1984 2565 2268 
Q 2250 2553 1709 2553 
Q 1456 2553 1204 2497 
Q 953 2441 691 2322 
L 691 4666 
z
" transform="scale(0.015625)"/>
       </defs>
       <use xlink:href="#DejaVuSans-35"/>
       <use xlink:href="#DejaVuSans-30" x="63.623047"/>
      </g>
     </g>
    </g>
    <g id="text_7">
     <!-- Dose (Gy) -->
     <g transform="translate(133.650781 201.796563) scale(0.1 -0.1)">
      <defs>
       <path id="DejaVuSans-44" d="M 1259 4147 
L 1259 519 
L 2022 519 
Q 2988 519 3436 956 
Q 3884 1394 3884 2338 
Q 3884 3275 3436 3711 
Q 2988 4147 2022 4147 
L 1259 4147 
z
M 628 4666 
L 1925 4666 
Q 3281 4666 3915 4102 
Q 4550 3538 4550 2338 
Q 4550 1131 3912 565 
Q 3275 0 1925 0 
L 628 0 
L 628 4666 
z
" transform="scale(0.015625)"/>
       <path id="DejaVuSans-6f" d="M 1959 3097 
Q 1497 3097 1228 2736 
Q 959 2375 959 1747 
Q 959 1119 1226 758 
Q 1494 397 1959 397 
Q 2419 397 2687 759 
Q 2956 1122 2956 1747 
Q 2956 2369 2687 2733 
Q 2419 3097 1959 3097 
z
M 1959 3584 
Q 2709 3584 3137 3096 
Q 3566 2609 3566 1747 
Q 3566 888 3137 398 
Q 2709 -91 1959 -91 
Q 1206 -91 779 398 
Q 353 888 353 1747 
Q 353 2609 779 3096 
Q 1206 3584 1959 3584 
z
" transform="scale(0.015625)"/>
       <path id="DejaVuSans-73" d="M 2834 3397 
L 2834 2853 
Q 2591 2978 2328 3040 
Q 2066 3103 1784 3103 
Q 1356 3103 1142 2972 
Q 928 2841 928 2578 
Q 928 2378 1081 2264 
Q 1234 2150 1697 2047 
L 1894 2003 
Q 2506 1872 2764 1633 
Q 3022 1394 3022 966 
Q 3022 478 2636 193 
Q 2250 -91 1575 -91 
Q 1294 -91 989 -36 
Q 684 19 347 128 
L 347 722 
Q 666 556 975 473 
Q 1284 391 1588 391 
Q 1994 391 2212 530 
Q 2431 669 2431 922 
Q 2431 1156 2273 1281 
Q 2116 1406 1581 1522 
L 1381 1569 
Q 847 1681 609 1914 
Q 372 2147 372 2553 
Q 372 3047 722 3315 
Q 1072 3584 1716 3584 
Q 2034 3584 2315 3537 
Q 2597 3491 2834 3397 
z
" transform="scale(0.015625)"/>
       <path id="DejaVuSans-65" d="M 3597 1894 
L 3597 1613 
L 953 1613 
Q 991 1019 1311 708 
Q 1631 397 2203 397 
Q 2534 397 2845 478 
Q 3156 559 3463 722 
L 3463 178 
Q 3153 47 2828 -22 
Q 2503 -91 2169 -91 
Q 1331 -91 842 396 
Q 353 884 353 1716 
Q 353 2575 817 3079 
Q 1281 3584 2069 3584 
Q 2775 3584 3186 3129 
Q 3597 2675 3597 1894 
z
M 3022 2063 
Q 3016 2534 2758 2815 
Q 2500 3097 2075 3097 
Q 1594 3097 1305 2825 
Q 1016 2553 972 2059 
L 3022 2063 
z
" transform="scale(0.015625)"/>
       <path id="DejaVuSans-20" transform="scale(0.015625)"/>
       <path id="DejaVuSans-28" d="M 1984 4856 
Q 1566 4138 1362 3434 
Q 1159 2731 1159 2009 
Q 1159 1288 1364 580 
Q 1569 -128 1984 -844 
L 1484 -844 
Q 1016 -109 783 600 
Q 550 1309 550 2009 
Q 550 2706 781 3412 
Q 1013 4119 1484 4856 
L 1984 4856 
z
" transform="scale(0.015625)"/>
       <path id="DejaVuSans-47" d="M 3809 666 
L 3809 1919 
L 2778 1919 
L 2778 2438 
L 4434 2438 
L 4434 434 
Q 4069 175 3628 42 
Q 3188 -91 2688 -91 
Q 1594 -91 976 548 
Q 359 1188 359 2328 
Q 359 3472 976 4111 
Q 1594 4750 2688 4750 
Q 3144 4750 3555 4637 
Q 3966 4525 4313 4306 
L 4313 3634 
Q 3963 3931 3569 4081 
Q 3175 4231 2741 4231 
Q 1884 4231 1454 3753 
Q 1025 3275 1025 2328 
Q 1025 1384 1454 906 
Q 1884 428 2741 428 
Q 3075 428 3337 486 
Q 3600 544 3809 666 
z
" transform="scale(0.015625)"/>
       <path id="DejaVuSans-79" d="M 2059 -325 
Q 1816 -950 1584 -1140 
Q 1353 -1331 966 -1331 
L 506 -1331 
L 506 -850 
L 844 -850 
Q 1081 -850 1212 -737 
Q 1344 -625 1503 -206 
L 1606 56 
L 191 3500 
L 800 3500 
L 1894 763 
L 2988 3500 
L 3597 3500 
L 2059 -325 
z
" transform="scale(0.015625)"/>
       <path id="DejaVuSans-29" d="M 513 4856 
L 1013 4856 
Q 1481 4119 1714 3412 
Q 1947 2706 1947 2009 
Q 1947 1309 1714 600 
Q 1481 -109 1013 -844 
L 513 -844 
Q 928 -128 1133 580 
Q 1338 1288 1338 2009 
Q 1338 2731 1133 3434 
Q 928 4138 513 4856 
z
" transform="scale(0.015625)"/>
      </defs>
      <use xlink:href="#DejaVuSans-44"/>
      <use xlink:href="#DejaVuSans-6f" x="77.001953"/>
      <use xlink:href="#DejaVuSans-73" x="138.183594"/>
      <use xlink:href="#DejaVuSans-65" x="190.283203"/>
      <use xlink:href="#DejaVuSans-20" x="251.806641"/>
      <use xlink:href="#DejaVuSans-28" x="283.59375"/>
      <use xlink:href="#DejaVuSans-47" x="322.607422"/>
      <use xlink:href="#DejaVuSans-79" x="400.097656"/>
      <use xlink:href="#DejaVuSans-29" x="459.277344"/>
     </g>
    </g>
   </g>
   <g id="matplotlib.axis_2">
    <g id="ytick_1">
     <g id="line2d_7">
      <defs>
       <path id="md643e13154" d="M 0 0 
L -3.5 0 
" style="stroke: #000000; stroke-width: 0.8"/>
      </defs>
      <g>
       <use xlink:href="#md643e13154" x="46.965625" y="173.52" style="stroke: #000000; stroke-width: 0.8"/>
      </g>
     </g>
     <g id="text_8">
      <!-- 0 -->
      <g transform="translate(33.603125 177.319219) scale(0.1 -0.1)">
       <use xlink:href="#DejaVuSans-30"/>
      </g>
     </g>
    </g>
    <g id="ytick_2">
     <g id="line2d_8">
      <g>
       <use xlink:href="#md643e13154" x="46.965625" y="141.84" style="stroke: #000000; stroke-width: 0.8"/>
      </g>
     </g>
     <g id="text_9">
      <!-- 20 -->
      <g transform="translate(27.240625 145.639219) scale(0.1 -0.1)">
       <use xlink:href="#DejaVuSans-32"/>
       <use xlink:href="#DejaVuSans-30" x="63.623047"/>
      </g>
     </g>
    </g>
    <g id="ytick_3">
     <g id="line2d_9">
      <g>
       <use xlink:href="#md643e13154" x="46.965625" y="110.16" style="stroke: #000000; stroke-width: 0.8"/>
      </g>
     </g>
     <g id="text_10">
      <!-- 40 -->
      <g transform="translate(27.240625 113.959219) scale(0.1 -0.1)">
       <use xlink:href="#DejaVuSans-34"/>
       <use xlink:href="#DejaVuSans-30" x="63.623047"/>
      </g>
     </g>
    </g>
    <g id="ytick_4">
     <g id="line2d_10">
      <g>
       <use xlink:href="#md643e13154" x="46.965625" y="78.48" style="stroke: #000000; stroke-width: 0.8"/>
      </g>
     </g>
     <g id="text_11">
      <!-- 60 -->
      <g transform="translate(27.240625 82.279219) scale(0.1 -0.1)">
       <defs>
        <path id="DejaVuSans-36" d="M 2113 2584 
Q 1688 2584 1439 2293 
Q 1191 2003 1191 1497 
Q 1191 994 1439 701 
Q 1688 409 2113 409 
Q 2538 409 2786 701 
Q 3034 994 3034 1497 
Q 3034 2003 2786 2293 
Q 2538 2584 2113 2584 
z
M 3366 4563 
L 3366 3988 
Q 3128 4100 2886 4159 
Q 2644 4219 2406 4219 
Q 1781 4219 1451 3797 
Q 1122 3375 1075 2522 
Q 1259 2794 1537 2939 
Q 1816 3084 2150 3084 
Q 2853 3084 3261 2657 
Q 3669 2231 3669 1497 
Q 3669 778 3244 343 
Q 2819 -91 2113 -91 
Q 1303 -91 875 529 
Q 447 1150 447 2328 
Q 447 3434 972 4092 
Q 1497 4750 2381 4750 
Q 2619 4750 2861 4703 
Q 3103 4656 3366 4563 
z
" transform="scale(0.015625)"/>
       </defs>
       <use xlink:href="#DejaVuSans-36"/>
       <use xlink:href="#DejaVuSans-30" x="63.623047"/>
      </g>
     </g>
    </g>
    <g id="ytick_5">
     <g id="line2d_11">
      <g>
       <use xlink:href="#md643e13154" x="46.965625" y="46.8" style="stroke: #000000; stroke-width: 0.8"/>
      </g>
     </g>
     <g id="text_12">
      <!-- 80 -->
      <g transform="translate(27.240625 50.599219) scale(0.1 -0.1)">
       <defs>
        <path id="DejaVuSans-38" d="M 2034 2216 
Q 1584 2216 1326 1975 
Q 1069 1734 1069 1313 
Q 1069 891 1326 650 
Q 1584 409 2034 409 
Q 2484 409 2743 651 
Q 3003 894 3003 1313 
Q 3003 1734 2745 1975 
Q 2488 2216 2034 2216 
z
M 1403 2484 
Q 997 2584 770 2862 
Q 544 3141 544 3541 
Q 544 4100 942 4425 
Q 1341 4750 2034 4750 
Q 2731 4750 3128 4425 
Q 3525 4100 3525 3541 
Q 3525 3141 3298 2862 
Q 3072 2584 2669 2484 
Q 3125 2378 3379 2068 
Q 3634 1759 3634 1313 
Q 3634 634 3220 271 
Q 2806 -91 2034 -91 
Q 1263 -91 848 271 
Q 434 634 434 1313 
Q 434 1759 690 2068 
Q 947 2378 1403 2484 
z
M 1172 3481 
Q 1172 3119 1398 2916 
Q 1625 2713 2034 2713 
Q 2441 2713 2670 2916 
Q 2900 3119 2900 3481 
Q 2900 3844 2670 4047 
Q 2441 4250 2034 4250 
Q 1625 4250 1398 4047 
Q 1172 3844 1172 3481 
z
" transform="scale(0.015625)"/>
       </defs>
       <use xlink:href="#DejaVuSans-38"/>
       <use xlink:href="#DejaVuSans-30" x="63.623047"/>
      </g>
     </g>
    </g>
    <g id="ytick_6">
     <g id="line2d_12">
      <g>
       <use xlink:href="#md643e13154" x="46.965625" y="15.12" style="stroke: #000000; stroke-width: 0.8"/>
      </g>
     </g>
     <g id="text_13">
      <!-- 100 -->
      <g transform="translate(20.878125 18.919219) scale(0.1 -0.1)">
       <use xlink:href="#DejaVuSans-31"/>
       <use xlink:href="#DejaVuSans-30" x="63.623047"/>
       <use xlink:href="#DejaVuSans-30" x="127.246094"/>
      </g>
     </g>
    </g>
    <g id="text_14">
     <!-- Volume (%) -->
     <g transform="translate(14.798437 119.198281) rotate(-90) scale(0.1 -0.1)">
      <defs>
       <path id="DejaVuSans-56" d="M 1831 0 
L 50 4666 
L 709 4666 
L 2188 738 
L 3669 4666 
L 4325 4666 
L 2547 0 
L 1831 0 
z
" transform="scale(0.015625)"/>
       <path id="DejaVuSans-6c" d="M 603 4863 
L 1178 4863 
L 1178 0 
L 603 0 
L 603 4863 
z
" transform="scale(0.015625)"/>
       <path id="DejaVuSans-75" d="M 544 1381 
L 544 3500 
L 1119 3500 
L 1119 1403 
Q 1119 906 1312 657 
Q 1506 409 1894 409 
Q 2359 409 2629 706 
Q 2900 1003 2900 1516 
L 2900 3500 
L 3475 3500 
L 3475 0 
L 2900 0 
L 2900 538 
Q 2691 219 2414 64 
Q 2138 -91 1772 -91 
Q 1169 -91 856 284 
Q 544 659 544 1381 
z
M 1991 3584 
L 1991 3584 
z
" transform="scale(0.015625)"/>
       <path id="DejaVuSans-6d" d="M 3328 2828 
Q 3544 3216 3844 3400 
Q 4144 3584 4550 3584 
Q 5097 3584 5394 3201 
Q 5691 2819 5691 2113 
L 5691 0 
L 5113 0 
L 5113 2094 
Q 5113 2597 4934 2840 
Q 4756 3084 4391 3084 
Q 3944 3084 3684 2787 
Q 3425 2491 3425 1978 
L 3425 0 
L 2847 0 
L 2847 2094 
Q 2847 2600 2669 2842 
Q 2491 3084 2119 3084 
Q 1678 3084 1418 2786 
Q 1159 2488 1159 1978 
L 1159 0 
L 581 0 
L 581 3500 
L 1159 3500 
L 1159 2956 
Q 1356 3278 1631 3431 
Q 1906 3584 2284 3584 
Q 2666 3584 2933 3390 
Q 3200 3197 3328 2828 
z
" transform="scale(0.015625)"/>
       <path id="DejaVuSans-25" d="M 4653 2053 
Q 4381 2053 4226 1822 
Q 4072 1591 4072 1178 
Q 4072 772 4226 539 
Q 4381 306 4653 306 
Q 4919 306 5073 539 
Q 5228 772 5228 1178 
Q 5228 1588 5073 1820 
Q 4919 2053 4653 2053 
z
M 4653 2450 
Q 5147 2450 5437 2106 
Q 5728 1763 5728 1178 
Q 5728 594 5436 251 
Q 5144 -91 4653 -91 
Q 4153 -91 3862 251 
Q 3572 594 3572 1178 
Q 3572 1766 3864 2108 
Q 4156 2450 4653 2450 
z
M 1428 4353 
Q 1159 4353 1004 4120 
Q 850 3888 850 3481 
Q 850 3069 1003 2837 
Q 1156 2606 1428 2606 
Q 1700 2606 1854 2837 
Q 2009 3069 2009 3481 
Q 2009 3884 1853 4118 
Q 1697 4353 1428 4353 
z
M 4250 4750 
L 4750 4750 
L 1831 -91 
L 1331 -91 
L 4250 4750 
z
M 1428 4750 
Q 1922 4750 2215 4408 
Q 2509 4066 2509 3481 
Q 2509 2891 2217 2550 
Q 1925 2209 1428 2209 
Q 931 2209 642 2551 
Q 353 2894 353 3481 
Q 353 4063 643 4406 
Q 934 4750 1428 4750 
z
" transform="scale(0.015625)"/>
      </defs>
      <use xlink:href="#DejaVuSans-56"/>
      <use xlink:href="#DejaVuSans-6f" x="60.658203"/>
      <use xlink:href="#DejaVuSans-6c" x="121.839844"/>
      <use xlink:href="#DejaVuSans-75" x="149.623047"/>
      <use xlink:href="#DejaVuSans-6d" x="213.001953"/>
      <use xlink:href="#DejaVuSans-65" x="310.414062"/>
      <use xlink:href="#DejaVuSans-20" x="371.9375"/>
      <use xlink:href="#DejaVuSans-28" x="403.724609"/>
      <use xlink:href="#DejaVuSans-25" x="442.738281"/>
      <use xlink:href="#DejaVuSans-29" x="537.757812"/>
     </g>
    </g>
   </g>
   <g id="line2d_13">
    <path d="M 158.565625 110.16 
L 158.565625 141.84 
L 171.957625 141.84 
" clip-path="url(#p9e2623dc8f)" style="fill: none; stroke-dasharray: 5.55,2.4; stroke-dashoffset: 0; stroke: #808080; stroke-width: 1.5"/>
   </g>
   <g id="line2d_14">
    <defs>
     <path id="mbaff9c902c" d="M -5 0 
L 5 0 
M 0 5 
L 0 -5 
" style="stroke: #000000; stroke-width: 2"/>
    </defs>
    <g clip-path="url(#p9e2623dc8f)">
     <use xlink:href="#mbaff9c902c" x="158.565625" y="141.84" style="stroke: #000000; stroke-width: 2"/>
    </g>
   </g>
   <g id="line2d_15">
    <path d="M 46.965625 15.12 
L 48.304825 15.770583 
L 49.644025 16.476803 
L 50.983225 17.235107 
L 52.322425 18.041945 
L 53.661625 18.893765 
L 55.000825 19.787016 
L 56.340025 20.718148 
L 57.679225 21.683607 
L 59.018425 22.679845 
L 60.357625 23.703308 
L 61.696825 24.750447 
L 63.036025 25.817709 
L 64.375225 26.901543 
L 65.714425 27.998399 
L 67.053625 29.104725 
L 68.392825 30.216969 
L 69.732025 31.331581 
L 71.071225 32.445009 
L 72.410425 33.553703 
L 73.749625 34.65411 
L 75.088825 35.742679 
L 76.428025 36.81586 
L 77.767225 37.870101 
L 79.106425 38.901851 
L 80.445625 39.907558 
L 81.784825 40.883671 
L 83.124025 41.82664 
L 84.463225 42.732913 
L 85.802425 43.598938 
L 87.141625 44.421164 
L 88.480825 45.196041 
L 89.820025 45.920017 
L 91.159225 46.58954 
L 92.498425 47.201459 
L 93.837625 47.757265 
L 95.176825 48.261444 
L 96.516025 48.718533 
L 97.855225 49.133068 
L 99.194425 49.509586 
L 100.533625 49.852622 
L 101.872825 50.166714 
L 103.212025 50.456398 
L 104.551225 50.72621 
L 105.890425 50.980686 
L 107.229625 51.224363 
L 108.568825 51.461778 
L 109.908025 51.697466 
L 111.247225 51.935965 
L 112.586425 52.18181 
L 113.925625 52.439538 
L 115.264825 52.713685 
L 116.604025 53.008788 
L 117.943225 53.329383 
L 119.282425 53.680007 
L 120.621625 54.065195 
L 121.960825 54.489485 
L 123.300025 54.957413 
L 124.639225 55.473514 
L 125.978425 56.042327 
L 127.317625 56.668386 
L 128.656825 57.356228 
L 129.996025 58.11039 
L 131.335225 58.935409 
L 132.674425 59.83582 
L 134.013625 60.816159 
L 135.352825 61.880965 
L 136.692025 63.035494 
L 138.031225 64.328343 
L 139.370425 65.875282 
L 140.709625 67.797859 
L 142.048825 70.217621 
L 143.388025 73.256116 
L 144.727225 77.034893 
L 146.066425 81.636552 
L 147.405625 86.690956 
L 148.744825 91.535871 
L 150.084025 95.510812 
L 151.423225 98.35213 
L 152.762425 100.411269 
L 154.101625 102.092586 
L 155.440825 103.800437 
L 156.780025 105.93918 
L 158.119225 108.91317 
L 159.458425 113.066778 
L 160.797625 118.04702 
L 162.136825 123.051007 
L 163.476025 127.275654 
L 164.815225 130.355908 
L 166.154425 132.605663 
L 167.493625 134.397219 
L 168.832825 136.102875 
L 170.172025 138.094932 
L 171.511225 140.745689 
L 172.850425 144.391947 
L 174.189625 148.957848 
L 175.528825 154.101298 
L 176.868025 159.475768 
L 178.207225 164.734728 
L 179.546425 169.531649 
L 180.885625 173.52 
" clip-path="url(#p9e2623dc8f)" style="fill: none; stroke: #1f77b4; stroke-width: 1.5; stroke-linecap: square"/>
   </g>
   <g id="line2d_16">
    <defs>
     <path id="me1196cd4eb" d="M 0 1.5 
C 0.397805 1.5 0.77937 1.341951 1.06066 1.06066 
C 1.341951 0.77937 1.5 0.397805 1.5 0 
C 1.5 -0.397805 1.341951 -0.77937 1.06066 -1.06066 
C 0.77937 -1.341951 0.397805 -1.5 0 -1.5 
C -0.397805 -1.5 -0.77937 -1.341951 -1.06066 -1.06066 
C -1.341951 -0.77937 -1.5 -0.397805 -1.5 0 
C -1.5 0.397805 -1.341951 0.77937 -1.06066 1.06066 
C -0.77937 1.341951 -0.397805 1.5 0 1.5 
z
" style="stroke: #1f77b4"/>
    </defs>
    <g clip-path="url(#p9e2623dc8f)">
     <use xlink:href="#me1196cd4eb" x="46.965625" y="15.12" style="fill: #1f77b4; stroke: #1f77b4"/>
     <use xlink:href="#me1196cd4eb" x="69.285625" y="30.96" style="fill: #1f77b4; stroke: #1f77b4"/>
     <use xlink:href="#me1196cd4eb" x="91.605625" y="46.8" style="fill: #1f77b4; stroke: #1f77b4"/>
     <use xlink:href="#me1196cd4eb" x="136.245625" y="62.64" style="fill: #1f77b4; stroke: #1f77b4"/>
     <use xlink:href="#me1196cd4eb" x="145.173625" y="78.48" style="fill: #1f77b4; stroke: #1f77b4"/>
     <use xlink:href="#me1196cd4eb" x="149.637625" y="94.32" style="fill: #1f77b4; stroke: #1f77b4"/>
     <use xlink:href="#me1196cd4eb" x="158.565625" y="110.16" style="fill: #1f77b4; stroke: #1f77b4"/>
     <use xlink:href="#me1196cd4eb" x="163.029625" y="126" style="fill: #1f77b4; stroke: #1f77b4"/>
     <use xlink:href="#me1196cd4eb" x="171.957625" y="141.84" style="fill: #1f77b4; stroke: #1f77b4"/>
     <use xlink:href="#me1196cd4eb" x="176.421625" y="157.68" style="fill: #1f77b4; stroke: #1f77b4"/>
     <use xlink:href="#me1196cd4eb" x="180.885625" y="173.52" style="fill: #1f77b4; stroke: #1f77b4"/>
    </g>
   </g>
   <g id="patch_3">
    <path d="M 46.965625 173.52 
L 46.965625 7.2 
" style="fill: none; stroke: #000000; stroke-width: 0.8; stroke-linejoin: miter; stroke-linecap: square"/>
   </g>
   <g id="patch_4">
    <path d="M 270.165625 173.52 
L 270.165625 7.2 
" style="fill: none; stroke: #000000; stroke-width: 0.8; stroke-linejoin: miter; stroke-linecap: square"/>
   </g>
   <g id="patch_5">
    <path d="M 46.965625 173.52 
L 270.165625 173.52 
" style="fill: none; stroke: #000000; stroke-width: 0.8; stroke-linejoin: miter; stroke-linecap: square"/>
   </g>
   <g id="patch_6">
    <path d="M 46.965625 7.2 
L 270.165625 7.2 
" style="fill: none; stroke: #000000; stroke-width: 0.8; stroke-linejoin: miter; stroke-linecap: square"/>
   </g>
   <g id="patch_7">
    <path d="M 51.429625 9.19892 
Q 51.429625 12.349889 51.429625 13.823807 
" style="fill: none; stroke: #ff8c00; stroke-width: 1.5; stroke-linecap: round"/>
    <path d="M 53.429625 9.823807 
L 51.429625 13.823807 
L 49.429625 9.823807 
" style="fill: none; stroke: #ff8c00; stroke-width: 1.5; stroke-linecap: round"/>
   </g>
   <g id="patch_8">
    <path d="M 57.773204 11.082212 
Q 57.773204 15.418342 57.773204 18.077421 
" style="fill: none; stroke: #ff8c00; stroke-width: 1.5; stroke-linecap: round"/>
    <path d="M 59.773204 14.077421 
L 57.773204 18.077421 
L 55.773204 14.077421 
" style="fill: none; stroke: #ff8c00; stroke-width: 1.5; stroke-linecap: round"/>
   </g>
   <g id="patch_9">
    <path d="M 64.116783 16.020915 
Q 64.116783 20.357044 64.116783 23.016123 
" style="fill: none; stroke: #ff8c00; stroke-width: 1.5; stroke-linecap: round"/>
    <path d="M 66.116783 19.016123 
L 64.116783 23.016123 
L 62.116783 19.016123 
" style="fill: none; stroke: #ff8c00; stroke-width: 1.5; stroke-linecap: round"/>
   </g>
   <g id="patch_10">
    <path d="M 70.460362 21.26716 
Q 70.460362 25.603289 70.460362 28.262368 
" style="fill: none; stroke: #ff8c00; stroke-width: 1.5; stroke-linecap: round"/>
    <path d="M 72.460362 24.262368 
L 70.460362 28.262368 
L 68.460362 24.262368 
" style="fill: none; stroke: #ff8c00; stroke-width: 1.5; stroke-linecap: round"/>
   </g>
   <g id="patch_11">
    <path d="M 76.803941 26.443509 
Q 76.803941 30.779638 76.803941 33.438717 
" style="fill: none; stroke: #ff8c00; stroke-width: 1.5; stroke-linecap: round"/>
    <path d="M 78.803941 29.438717 
L 76.803941 33.438717 
L 74.803941 29.438717 
" style="fill: none; stroke: #ff8c00; stroke-width: 1.5; stroke-linecap: round"/>
   </g>
   <g id="patch_12">
    <path d="M 83.14752 31.172523 
Q 83.14752 35.508652 83.14752 38.167731 
" style="fill: none; stroke: #ff8c00; stroke-width: 1.5; stroke-linecap: round"/>
    <path d="M 85.14752 34.167731 
L 83.14752 38.167731 
L 81.14752 34.167731 
" style="fill: none; stroke: #ff8c00; stroke-width: 1.5; stroke-linecap: round"/>
   </g>
   <g id="patch_13">
    <path d="M 89.491099 35.076762 
Q 89.491099 39.412892 89.491099 42.071971 
" style="fill: none; stroke: #ff8c00; stroke-width: 1.5; stroke-linecap: round"/>
    <path d="M 91.491099 38.071971 
L 89.491099 42.071971 
L 87.491099 38.071971 
" style="fill: none; stroke: #ff8c00; stroke-width: 1.5; stroke-linecap: round"/>
   </g>
   <g id="patch_14">
    <path d="M 95.834678 37.821238 
Q 95.834678 42.157368 95.834678 44.816446 
" style="fill: none; stroke: #ff8c00; stroke-width: 1.5; stroke-linecap: round"/>
    <path d="M 97.834678 40.816446 
L 95.834678 44.816446 
L 93.834678 40.816446 
" style="fill: none; stroke: #ff8c00; stroke-width: 1.5; stroke-linecap: round"/>
   </g>
   <g id="patch_15">
    <path d="M 102.178257 39.564424 
Q 102.178257 43.900554 102.178257 46.559632 
" style="fill: none; stroke: #ff8c00; stroke-width: 1.5; stroke-linecap: round"/>
    <path d="M 104.178257 42.559632 
L 102.178257 46.559632 
L 100.178257 42.559632 
" style="fill: none; stroke: #ff8c00; stroke-width: 1.5; stroke-linecap: round"/>
   </g>
   <g id="patch_16">
    <path d="M 108.521836 40.78316 
Q 108.521836 45.119289 108.521836 47.778368 
" style="fill: none; stroke: #ff8c00; stroke-width: 1.5; stroke-linecap: round"/>
    <path d="M 110.521836 43.778368 
L 108.521836 47.778368 
L 106.521836 43.778368 
" style="fill: none; stroke: #ff8c00; stroke-width: 1.5; stroke-linecap: round"/>
   </g>
   <g id="patch_17">
    <path d="M 114.865414 41.95959 
Q 114.865414 46.29572 114.865414 48.954799 
" style="fill: none; stroke: #ff8c00; stroke-width: 1.5; stroke-linecap: round"/>
    <path d="M 116.865414 44.954799 
L 114.865414 48.954799 
L 112.865414 44.954799 
" style="fill: none; stroke: #ff8c00; stroke-width: 1.5; stroke-linecap: round"/>
   </g>
   <g id="patch_18">
    <path d="M 121.208993 43.575862 
Q 121.208993 47.911991 121.208993 50.57107 
" style="fill: none; stroke: #ff8c00; stroke-width: 1.5; stroke-linecap: round"/>
    <path d="M 123.208993 46.57107 
L 121.208993 50.57107 
L 119.208993 46.57107 
" style="fill: none; stroke: #ff8c00; stroke-width: 1.5; stroke-linecap: round"/>
   </g>
   <g id="patch_19">
    <path d="M 127.552572 46.114119 
Q 127.552572 50.450248 127.552572 53.109327 
" style="fill: none; stroke: #ff8c00; stroke-width: 1.5; stroke-linecap: round"/>
    <path d="M 129.552572 49.109327 
L 127.552572 53.109327 
L 125.552572 49.109327 
" style="fill: none; stroke: #ff8c00; stroke-width: 1.5; stroke-linecap: round"/>
   </g>
   <g id="patch_20">
    <path d="M 133.896151 50.056507 
Q 133.896151 54.392637 133.896151 57.051716 
" style="fill: none; stroke: #ff8c00; stroke-width: 1.5; stroke-linecap: round"/>
    <path d="M 135.896151 53.051716 
L 133.896151 57.051716 
L 131.896151 53.051716 
" style="fill: none; stroke: #ff8c00; stroke-width: 1.5; stroke-linecap: round"/>
   </g>
   <g id="patch_21">
    <path d="M 140.23973 56.40254 
Q 140.23973 60.738669 140.23973 63.397748 
" style="fill: none; stroke: #ff8c00; stroke-width: 1.5; stroke-linecap: round"/>
    <path d="M 142.23973 59.397748 
L 140.23973 63.397748 
L 138.23973 59.397748 
" style="fill: none; stroke: #ff8c00; stroke-width: 1.5; stroke-linecap: round"/>
   </g>
   <g id="patch_22">
    <path d="M 146.583309 72.899325 
Q 146.583309 77.235455 146.583309 79.894533 
" style="fill: none; stroke: #ff8c00; stroke-width: 1.5; stroke-linecap: round"/>
    <path d="M 148.583309 75.894533 
L 146.583309 79.894533 
L 144.583309 75.894533 
" style="fill: none; stroke: #ff8c00; stroke-width: 1.5; stroke-linecap: round"/>
   </g>
   <g id="patch_23">
    <path d="M 152.926888 89.959602 
Q 152.926888 94.295731 152.926888 96.95481 
" style="fill: none; stroke: #ff8c00; stroke-width: 1.5; stroke-linecap: round"/>
    <path d="M 154.926888 92.95481 
L 152.926888 96.95481 
L 150.926888 92.95481 
" style="fill: none; stroke: #ff8c00; stroke-width: 1.5; stroke-linecap: round"/>
   </g>
   <g id="patch_24">
    <path d="M 159.270467 101.745621 
Q 159.270467 106.081751 159.270467 108.74083 
" style="fill: none; stroke: #ff8c00; stroke-width: 1.5; stroke-linecap: round"/>
    <path d="M 161.270467 104.74083 
L 159.270467 108.74083 
L 157.270467 104.74083 
" style="fill: none; stroke: #ff8c00; stroke-width: 1.5; stroke-linecap: round"/>
   </g>
   <g id="patch_25">
    <path d="M 165.614046 121.103626 
Q 165.614046 125.439756 165.614046 128.098835 
" style="fill: none; stroke: #ff8c00; stroke-width: 1.5; stroke-linecap: round"/>
    <path d="M 167.614046 124.098835 
L 165.614046 128.098835 
L 163.614046 124.098835 
" style="fill: none; stroke: #ff8c00; stroke-width: 1.5; stroke-linecap: round"/>
   </g>
   <g id="patch_26">
    <path d="M 171.957625 131.169656 
Q 171.957625 135.505786 171.957625 138.164865 
" style="fill: none; stroke: #ff8c00; stroke-width: 1.5; stroke-linecap: round"/>
    <path d="M 173.957625 134.164865 
L 171.957625 138.164865 
L 169.957625 134.164865 
" style="fill: none; stroke: #ff8c00; stroke-width: 1.5; stroke-linecap: round"/>
   </g>
  </g>
 </g>
 <defs>
  <clipPath id="p9e2623dc8f">
   <rect x="46.965625" y="7.2" width="223.2" height="166.32"/>
  </clipPath>
 </defs>
</svg>
