<?xml version="1.0" encoding="UTF-8" standalone="no"?>
<!-- Created with matplotlib (https://matplotlib.org/) -->

<svg
   height="277.31436pt"
   version="1.1"
   viewBox="0 0 400 277.31437"
   width="400pt"
   id="svg672"
   sodipodi:docname="ICMProstate-iter.svg"
   inkscape:export-filename="ICMProstate-iter.png"
   inkscape:export-xdpi="192"
   inkscape:export-ydpi="192"
   inkscape:version="1.3.2 (091e20e, 2023-11-25, custom)"
   xmlns:inkscape="http://www.inkscape.org/namespaces/inkscape"
   xmlns:sodipodi="http://sodipodi.sourceforge.net/DTD/sodipodi-0.dtd"
   xmlns:xlink="http://www.w3.org/1999/xlink"
   xmlns="http://www.w3.org/2000/svg"
   xmlns:svg="http://www.w3.org/2000/svg"
   xmlns:rdf="http://www.w3.org/1999/02/22-rdf-syntax-ns#"
   xmlns:cc="http://creativecommons.org/ns#"
   xmlns:dc="http://purl.org/dc/elements/1.1/">
  <sodipodi:namedview
     id="namedview674"
     pagecolor="#ffffff"
     bordercolor="#000000"
     borderopacity="0.25"
     inkscape:showpageshadow="2"
     inkscape:pageopacity="0.0"
     inkscape:pagecheckerboard="0"
     inkscape:deskcolor="#d1d1d1"
     inkscape:document-units="pt"
     showgrid="false"
     inkscape:zoom="1.0104407"
     inkscape:cx="403.28936"
     inkscape:cy="138.05857"
     inkscape:window-width="1920"
     inkscape:window-height="1009"
     inkscape:window-x="1912"
     inkscape:window-y="-8"
     inkscape:window-maximized="1"
     inkscape:current-layer="svg672" />
  <metadata
     id="metadata2">
    <rdf:RDF>
      <cc:Work>
        <dc:type
           rdf:resource="http://purl.org/dc/dcmitype/StillImage" />
        <dc:date>2023-05-25T09:50:39.612813</dc:date>
        <dc:format>image/svg+xml</dc:format>
        <dc:creator>
          <cc:Agent>
            <dc:title>Matplotlib v3.3.2, https://matplotlib.org/</dc:title>
          </cc:Agent>
        </dc:creator>
      </cc:Work>
    </rdf:RDF>
  </metadata>
  <defs
     id="defs6">
    <style
       type="text/css"
       id="style4">*{stroke-linecap:butt;stroke-linejoin:round;}</style>
  </defs>
  <g
     id="patch_1">
    <path
       d="M 0,277.31437 H 492.85425 V 0 H 0 Z"
       style="fill:none"
       id="path8" />
  </g>
  <g
     id="patch_2">
    <path
       d="M 49.978125,239.75812 H 384.77812 V 22.318125 H 49.978125 Z"
       style="fill:#ffffff"
       id="path11" />
  </g>
  <g
     id="matplotlib.axis_1">
    <g
       id="xtick_1">
      <g
         id="line2d_1">
        <defs
           id="defs15">
          <path
             d="M 0,0 V 3.5"
             id="m692504fa14"
             style="stroke:#000000;stroke-width:0.8" />
        </defs>
        <g
           id="g19">
          <use
             style="stroke:#000000;stroke-width:0.8"
             x="65.196304"
             xlink:href="#m692504fa14"
             y="239.75812"
             id="use17" />
        </g>
      </g>
      <g
         id="text_1">
        <!-- $\mathdefault{10^{0}}$ -->
        <g
           transform="matrix(0.1,0,0,-0.1,56.396307,254.35656)"
           id="g32">
          <defs
             id="defs24">
            <path
               d="m 12.40625,8.296875 h 16.109375 v 55.625 L 10.984375,60.40625 v 8.984375 l 17.4375,3.515625 H 38.28125 V 8.296875 H 54.390625 V 0 H 12.40625 Z"
               id="DejaVuSans-49" />
            <path
               d="m 31.78125,66.40625 q -7.609375,0 -11.453125,-7.5 Q 16.5,51.421875 16.5,36.375 q 0,-14.984375 3.828125,-22.484375 3.84375,-7.5 11.453125,-7.5 7.671875,0 11.5,7.5 3.84375,7.5 3.84375,22.484375 0,15.046875 -3.84375,22.53125 -3.828125,7.5 -11.5,7.5 z m 0,7.8125 q 12.265625,0 18.734375,-9.703125 6.46875,-9.6875 6.46875,-28.140625 0,-18.40625 -6.46875,-28.109375 -6.46875,-9.6875 -18.734375,-9.6875 -12.25,0 -18.71875,9.6875 Q 6.59375,17.96875 6.59375,36.375 q 0,18.453125 6.46875,28.140625 6.46875,9.703125 18.71875,9.703125 z"
               id="DejaVuSans-48" />
          </defs>
          <use
             transform="translate(0,0.765625)"
             xlink:href="#DejaVuSans-49"
             id="use26" />
          <use
             transform="translate(63.623047,0.765625)"
             xlink:href="#DejaVuSans-48"
             id="use28" />
          <use
             transform="matrix(0.7,0,0,0.7,128.20312,39.046875)"
             xlink:href="#DejaVuSans-48"
             id="use30" />
        </g>
      </g>
    </g>
    <g
       id="xtick_2">
      <g
         id="line2d_2">
        <g
           id="g38">
          <use
             style="stroke:#000000;stroke-width:0.8"
             x="217.71097"
             xlink:href="#m692504fa14"
             y="239.75812"
             id="use36" />
        </g>
      </g>
      <g
         id="text_2">
        <!-- $\mathdefault{10^{1}}$ -->
        <g
           transform="matrix(0.1,0,0,-0.1,208.91097,254.35656)"
           id="g47">
          <use
             transform="translate(0,0.684375)"
             xlink:href="#DejaVuSans-49"
             id="use41" />
          <use
             transform="translate(63.623047,0.684375)"
             xlink:href="#DejaVuSans-48"
             id="use43" />
          <use
             transform="matrix(0.7,0,0,0.7,128.20312,38.965625)"
             xlink:href="#DejaVuSans-49"
             id="use45" />
        </g>
      </g>
    </g>
    <g
       id="xtick_3">
      <g
         id="line2d_3">
        <g
           id="g53">
          <use
             style="stroke:#000000;stroke-width:0.8"
             x="370.22565"
             xlink:href="#m692504fa14"
             y="239.75812"
             id="use51" />
        </g>
      </g>
      <g
         id="text_3">
        <!-- $\mathdefault{10^{2}}$ -->
        <g
           transform="matrix(0.1,0,0,-0.1,361.42564,254.35656)"
           id="g65">
          <defs
             id="defs57">
            <path
               d="M 19.1875,8.296875 H 53.609375 V 0 H 7.328125 v 8.296875 q 5.609375,5.8125 15.296875,15.59375 9.703125,9.796875 12.1875,12.640625 4.734375,5.3125 6.609375,9 1.890625,3.6875 1.890625,7.25 0,5.8125 -4.078125,9.46875 -4.078125,3.671875 -10.625,3.671875 -4.640625,0 -9.796875,-1.609375 -5.140625,-1.609375 -11,-4.890625 v 9.96875 Q 13.765625,71.78125 18.9375,73 q 5.1875,1.21875 9.484375,1.21875 11.328125,0 18.0625,-5.671875 6.734375,-5.65625 6.734375,-15.125 0,-4.5 -1.6875,-8.53125 Q 49.859375,40.875 45.40625,35.40625 44.1875,33.984375 37.640625,27.21875 31.109375,20.453125 19.1875,8.296875 Z"
               id="DejaVuSans-50" />
          </defs>
          <use
             transform="translate(0,0.765625)"
             xlink:href="#DejaVuSans-49"
             id="use59" />
          <use
             transform="translate(63.623047,0.765625)"
             xlink:href="#DejaVuSans-48"
             id="use61" />
          <use
             transform="matrix(0.7,0,0,0.7,128.20312,39.046875)"
             xlink:href="#DejaVuSans-50"
             id="use63" />
        </g>
      </g>
    </g>
    <g
       id="xtick_4">
      <g
         id="line2d_4">
        <defs
           id="defs70">
          <path
             d="M 0,0 V 2"
             id="m8e7a4f08b2"
             style="stroke:#000000;stroke-width:0.6" />
        </defs>
        <g
           id="g74">
          <use
             style="stroke:#000000;stroke-width:0.6"
             x="50.416107"
             xlink:href="#m8e7a4f08b2"
             y="239.75812"
             id="use72" />
        </g>
      </g>
    </g>
    <g
       id="xtick_5">
      <g
         id="line2d_5">
        <g
           id="g80">
          <use
             style="stroke:#000000;stroke-width:0.6"
             x="58.217617"
             xlink:href="#m8e7a4f08b2"
             y="239.75812"
             id="use78" />
        </g>
      </g>
    </g>
    <g
       id="xtick_6">
      <g
         id="line2d_6">
        <g
           id="g86">
          <use
             style="stroke:#000000;stroke-width:0.6"
             x="111.1078"
             xlink:href="#m8e7a4f08b2"
             y="239.75812"
             id="use84" />
        </g>
      </g>
    </g>
    <g
       id="xtick_7">
      <g
         id="line2d_7">
        <g
           id="g92">
          <use
             style="stroke:#000000;stroke-width:0.6"
             x="137.96429"
             xlink:href="#m8e7a4f08b2"
             y="239.75812"
             id="use90" />
        </g>
      </g>
    </g>
    <g
       id="xtick_8">
      <g
         id="line2d_8">
        <g
           id="g98">
          <use
             style="stroke:#000000;stroke-width:0.6"
             x="157.01929"
             xlink:href="#m8e7a4f08b2"
             y="239.75812"
             id="use96" />
        </g>
      </g>
    </g>
    <g
       id="xtick_9">
      <g
         id="line2d_9">
        <g
           id="g104">
          <use
             style="stroke:#000000;stroke-width:0.6"
             x="171.79948"
             xlink:href="#m8e7a4f08b2"
             y="239.75812"
             id="use102" />
        </g>
      </g>
    </g>
    <g
       id="xtick_10">
      <g
         id="line2d_10">
        <g
           id="g110">
          <use
             style="stroke:#000000;stroke-width:0.6"
             x="183.87578"
             xlink:href="#m8e7a4f08b2"
             y="239.75812"
             id="use108" />
        </g>
      </g>
    </g>
    <g
       id="xtick_11">
      <g
         id="line2d_11">
        <g
           id="g116">
          <use
             style="stroke:#000000;stroke-width:0.6"
             x="194.08615"
             xlink:href="#m8e7a4f08b2"
             y="239.75812"
             id="use114" />
        </g>
      </g>
    </g>
    <g
       id="xtick_12">
      <g
         id="line2d_12">
        <g
           id="g122">
          <use
             style="stroke:#000000;stroke-width:0.6"
             x="202.93077"
             xlink:href="#m8e7a4f08b2"
             y="239.75812"
             id="use120" />
        </g>
      </g>
    </g>
    <g
       id="xtick_13">
      <g
         id="line2d_13">
        <g
           id="g128">
          <use
             style="stroke:#000000;stroke-width:0.6"
             x="210.73228"
             xlink:href="#m8e7a4f08b2"
             y="239.75812"
             id="use126" />
        </g>
      </g>
    </g>
    <g
       id="xtick_14">
      <g
         id="line2d_14">
        <g
           id="g134">
          <use
             style="stroke:#000000;stroke-width:0.6"
             x="263.62247"
             xlink:href="#m8e7a4f08b2"
             y="239.75812"
             id="use132" />
        </g>
      </g>
    </g>
    <g
       id="xtick_15">
      <g
         id="line2d_15">
        <g
           id="g140">
          <use
             style="stroke:#000000;stroke-width:0.6"
             x="290.47897"
             xlink:href="#m8e7a4f08b2"
             y="239.75812"
             id="use138" />
        </g>
      </g>
    </g>
    <g
       id="xtick_16">
      <g
         id="line2d_16">
        <g
           id="g146">
          <use
             style="stroke:#000000;stroke-width:0.6"
             x="309.53397"
             xlink:href="#m8e7a4f08b2"
             y="239.75812"
             id="use144" />
        </g>
      </g>
    </g>
    <g
       id="xtick_17">
      <g
         id="line2d_17">
        <g
           id="g152">
          <use
             style="stroke:#000000;stroke-width:0.6"
             x="324.31415"
             xlink:href="#m8e7a4f08b2"
             y="239.75812"
             id="use150" />
        </g>
      </g>
    </g>
    <g
       id="xtick_18">
      <g
         id="line2d_18">
        <g
           id="g158">
          <use
             style="stroke:#000000;stroke-width:0.6"
             x="336.39044"
             xlink:href="#m8e7a4f08b2"
             y="239.75812"
             id="use156" />
        </g>
      </g>
    </g>
    <g
       id="xtick_19">
      <g
         id="line2d_19">
        <g
           id="g164">
          <use
             style="stroke:#000000;stroke-width:0.6"
             x="346.60083"
             xlink:href="#m8e7a4f08b2"
             y="239.75812"
             id="use162" />
        </g>
      </g>
    </g>
    <g
       id="xtick_20">
      <g
         id="line2d_20">
        <g
           id="g170">
          <use
             style="stroke:#000000;stroke-width:0.6"
             x="355.44543"
             xlink:href="#m8e7a4f08b2"
             y="239.75812"
             id="use168" />
        </g>
      </g>
    </g>
    <g
       id="xtick_21">
      <g
         id="line2d_21">
        <g
           id="g176">
          <use
             style="stroke:#000000;stroke-width:0.6"
             x="363.24695"
             xlink:href="#m8e7a4f08b2"
             y="239.75812"
             id="use174" />
        </g>
      </g>
    </g>
    <g
       id="text_4">
      <!-- iteration -->
      <g
         transform="matrix(0.1,0,0,-0.1,196.25547,268.03469)"
         id="g207">
        <defs
           id="defs187">
          <path
             d="M 9.421875,54.6875 H 18.40625 V 0 H 9.421875 Z m 0,21.296875 H 18.40625 V 64.59375 H 9.421875 Z"
             id="DejaVuSans-105" />
          <path
             d="M 18.3125,70.21875 V 54.6875 h 18.5 v -6.984375 h -18.5 v -29.6875 q 0,-6.6875 1.828125,-8.59375 1.828125,-1.90625 7.453125,-1.90625 H 36.8125 V 0 H 27.59375 Q 17.1875,0 13.234375,3.875 9.28125,7.765625 9.28125,18.015625 v 29.6875 H 2.6875 V 54.6875 h 6.59375 v 15.53125 z"
             id="DejaVuSans-116" />
          <path
             d="m 56.203125,29.59375 v -4.390625 h -41.3125 q 0.59375,-9.28125 5.59375,-14.140625 5,-4.859375 13.9375,-4.859375 5.171875,0 10.03125,1.265625 4.859375,1.265625 9.65625,3.8125 v -8.5 q -4.84375,-2.046875 -9.921875,-3.125 -5.078125,-1.078125 -10.296875,-1.078125 -13.09375,0 -20.734375,7.609375 -7.640625,7.625 -7.640625,20.625 0,13.421875 7.25,21.296875 Q 20.015625,56 32.328125,56 q 11.03125,0 17.453125,-7.109375 6.421875,-7.09375 6.421875,-19.296875 z m -8.984375,2.640625 q -0.09375,7.359375 -4.125,11.75 -4.03125,4.40625 -10.671875,4.40625 -7.515625,0 -12.03125,-4.25 -4.515625,-4.25 -5.203125,-11.96875 z"
             id="DejaVuSans-101" />
          <path
             d="m 41.109375,46.296875 q -1.515625,0.875 -3.296875,1.28125 Q 36.03125,48 33.890625,48 26.265625,48 22.1875,43.046875 18.109375,38.09375 18.109375,28.8125 V 0 h -9.03125 v 54.6875 h 9.03125 v -8.5 q 2.84375,4.984375 7.375,7.390625 Q 30.03125,56 36.53125,56 q 0.921875,0 2.046875,-0.125 1.125,-0.109375 2.484375,-0.359375 z"
             id="DejaVuSans-114" />
          <path
             d="m 34.28125,27.484375 q -10.890625,0 -15.09375,-2.484375 -4.203125,-2.484375 -4.203125,-8.5 0,-4.78125 3.15625,-7.59375 3.15625,-2.796875 8.5625,-2.796875 7.484375,0 12,5.296875 4.515625,5.296875 4.515625,14.078125 v 2 z m 17.921875,3.71875 V 0 H 43.21875 v 8.296875 q -3.078125,-4.96875 -7.671875,-7.34375 -4.59375,-2.375 -11.234375,-2.375 -8.390625,0 -13.359375,4.71875 Q 6,8.015625 6,15.921875 q 0,9.21875 6.171875,13.90625 6.1875,4.6875 18.4375,4.6875 H 43.21875 v 0.890625 q 0,6.203125 -4.078125,9.59375 -4.078125,3.390625 -11.453125,3.390625 -4.6875,0 -9.140625,-1.125 -4.4375,-1.125 -8.53125,-3.375 v 8.3125 q 4.921875,1.90625 9.5625,2.84375 Q 24.21875,56 28.609375,56 q 11.875,0 17.734375,-6.15625 5.859375,-6.140625 5.859375,-18.640625 z"
             id="DejaVuSans-97" />
          <path
             d="m 30.609375,48.390625 q -7.21875,0 -11.421875,-5.640625 -4.203125,-5.640625 -4.203125,-15.453125 0,-9.8125 4.171875,-15.453125 4.1875,-5.640625 11.453125,-5.640625 7.1875,0 11.375,5.65625 4.203125,5.671875 4.203125,15.4375 0,9.71875 -4.203125,15.40625 -4.1875,5.6875 -11.375,5.6875 z m 0,7.609375 q 11.71875,0 18.40625,-7.625 6.703125,-7.609375 6.703125,-21.078125 0,-13.421875 -6.703125,-21.078125 -6.6875,-7.640625 -18.40625,-7.640625 -11.765625,0 -18.4375,7.640625 -6.65625,7.65625 -6.65625,21.078125 0,13.46875 6.65625,21.078125 Q 18.84375,56 30.609375,56 Z"
             id="DejaVuSans-111" />
          <path
             d="M 54.890625,33.015625 V 0 H 45.90625 v 32.71875 q 0,7.765625 -3.03125,11.609375 -3.03125,3.859375 -9.078125,3.859375 -7.28125,0 -11.484375,-4.640625 -4.203125,-4.625 -4.203125,-12.640625 V 0 h -9.03125 v 54.6875 h 9.03125 v -8.5 q 3.234375,4.9375 7.59375,7.375 4.375,2.4375 10.09375,2.4375 9.421875,0 14.25,-5.828125 4.84375,-5.828125 4.84375,-17.15625 z"
             id="DejaVuSans-110" />
        </defs>
        <use
           xlink:href="#DejaVuSans-105"
           id="use189" />
        <use
           x="27.783203"
           xlink:href="#DejaVuSans-116"
           id="use191" />
        <use
           x="66.992188"
           xlink:href="#DejaVuSans-101"
           id="use193" />
        <use
           x="128.51562"
           xlink:href="#DejaVuSans-114"
           id="use195" />
        <use
           x="169.62891"
           xlink:href="#DejaVuSans-97"
           id="use197" />
        <use
           x="230.9082"
           xlink:href="#DejaVuSans-116"
           id="use199" />
        <use
           x="270.11719"
           xlink:href="#DejaVuSans-105"
           id="use201" />
        <use
           x="297.90039"
           xlink:href="#DejaVuSans-111"
           id="use203" />
        <use
           x="359.08203"
           xlink:href="#DejaVuSans-110"
           id="use205" />
      </g>
    </g>
  </g>
  <g
     id="matplotlib.axis_2">
    <g
       id="ytick_1">
      <g
         id="line2d_22">
        <defs
           id="defs212">
          <path
             d="M 0,0 H -3.5"
             id="m65b51428c1"
             style="stroke:#000000;stroke-width:0.8" />
        </defs>
        <g
           id="g216">
          <use
             style="stroke:#000000;stroke-width:0.8"
             x="49.978127"
             xlink:href="#m65b51428c1"
             y="108.14317"
             id="use214" />
        </g>
      </g>
      <g
         id="text_5">
        <!-- $\mathdefault{10^{10}}$ -->
        <g
           transform="matrix(0.1,0,0,-0.1,20.878125,111.94239)"
           id="g227">
          <use
             transform="translate(0,0.765625)"
             xlink:href="#DejaVuSans-49"
             id="use219" />
          <use
             transform="translate(63.623047,0.765625)"
             xlink:href="#DejaVuSans-48"
             id="use221" />
          <use
             transform="matrix(0.7,0,0,0.7,128.20312,39.046875)"
             xlink:href="#DejaVuSans-49"
             id="use223" />
          <use
             transform="matrix(0.7,0,0,0.7,172.73926,39.046875)"
             xlink:href="#DejaVuSans-48"
             id="use225" />
        </g>
      </g>
    </g>
    <g
       id="ytick_2">
      <g
         id="line2d_23">
        <defs
           id="defs232">
          <path
             d="M 0,0 H -2"
             id="ma47a763431"
             style="stroke:#000000;stroke-width:0.6" />
        </defs>
        <g
           id="g236">
          <use
             style="stroke:#000000;stroke-width:0.6"
             x="49.978127"
             xlink:href="#ma47a763431"
             y="215.47604"
             id="use234" />
        </g>
      </g>
    </g>
    <g
       id="ytick_3">
      <g
         id="line2d_24">
        <g
           id="g242">
          <use
             style="stroke:#000000;stroke-width:0.6"
             x="49.978127"
             xlink:href="#ma47a763431"
             y="188.43571"
             id="use240" />
        </g>
      </g>
    </g>
    <g
       id="ytick_4">
      <g
         id="line2d_25">
        <g
           id="g248">
          <use
             style="stroke:#000000;stroke-width:0.6"
             x="49.978127"
             xlink:href="#ma47a763431"
             y="169.25029"
             id="use246" />
        </g>
      </g>
    </g>
    <g
       id="ytick_5">
      <g
         id="line2d_26">
        <g
           id="g254">
          <use
             style="stroke:#000000;stroke-width:0.6"
             x="49.978127"
             xlink:href="#ma47a763431"
             y="154.36893"
             id="use252" />
        </g>
      </g>
    </g>
    <g
       id="ytick_6">
      <g
         id="line2d_27">
        <g
           id="g260">
          <use
             style="stroke:#000000;stroke-width:0.6"
             x="49.978127"
             xlink:href="#ma47a763431"
             y="142.20996"
             id="use258" />
        </g>
      </g>
    </g>
    <g
       id="ytick_7">
      <g
         id="line2d_28">
        <g
           id="g266">
          <use
             style="stroke:#000000;stroke-width:0.6"
             x="49.978127"
             xlink:href="#ma47a763431"
             y="131.9297"
             id="use264" />
        </g>
      </g>
    </g>
    <g
       id="ytick_8">
      <g
         id="line2d_29">
        <g
           id="g272">
          <use
             style="stroke:#000000;stroke-width:0.6"
             x="49.978127"
             xlink:href="#ma47a763431"
             y="123.02454"
             id="use270" />
        </g>
      </g>
    </g>
    <g
       id="ytick_9">
      <g
         id="line2d_30">
        <g
           id="g278">
          <use
             style="stroke:#000000;stroke-width:0.6"
             x="49.978127"
             xlink:href="#ma47a763431"
             y="115.16962"
             id="use276" />
        </g>
      </g>
    </g>
    <g
       id="ytick_10">
      <g
         id="line2d_31">
        <g
           id="g284">
          <use
             style="stroke:#000000;stroke-width:0.6"
             x="49.978127"
             xlink:href="#ma47a763431"
             y="61.917416"
             id="use282" />
        </g>
      </g>
    </g>
    <g
       id="ytick_11">
      <g
         id="line2d_32">
        <g
           id="g290">
          <use
             style="stroke:#000000;stroke-width:0.6"
             x="49.978127"
             xlink:href="#ma47a763431"
             y="34.877083"
             id="use288" />
        </g>
      </g>
    </g>
    <g
       id="text_6">
      <!-- cost -->
      <g
         transform="matrix(0,-0.1,-0.1,0,14.798438,141.41156)"
         id="g306">
        <defs
           id="defs296">
          <path
             d="M 48.78125,52.59375 V 44.1875 q -3.8125,2.109375 -7.640625,3.15625 -3.828125,1.046875 -7.734375,1.046875 -8.75,0 -13.59375,-5.546875 -4.828125,-5.53125 -4.828125,-15.546875 0,-10.015625 4.828125,-15.5625 4.84375,-5.53125 13.59375,-5.53125 3.90625,0 7.734375,1.046875 3.828125,1.046875 7.640625,3.15625 v -8.3125 q -3.765625,-1.75 -7.796875,-2.625 -4.015625,-0.890625 -8.5625,-0.890625 -12.359375,0 -19.640625,7.765625 -7.265625,7.765625 -7.265625,20.953125 0,13.375 7.34375,21.03125 Q 20.21875,56 33.015625,56 q 4.140625,0 8.09375,-0.859375 3.953125,-0.84375 7.671875,-2.546875 z"
             id="DejaVuSans-99" />
          <path
             d="m 44.28125,53.078125 v -8.5 Q 40.484375,46.53125 36.375,47.5 q -4.09375,0.984375 -8.5,0.984375 -6.6875,0 -10.03125,-2.046875 Q 14.5,44.390625 14.5,40.28125 q 0,-3.125 2.390625,-4.90625 2.390625,-1.78125 9.625,-3.390625 l 3.078125,-0.6875 Q 39.15625,29.25 43.1875,25.515625 47.21875,21.78125 47.21875,15.09375 q 0,-7.625 -6.03125,-12.078125 -6.03125,-4.4375 -16.578125,-4.4375 -4.390625,0 -9.15625,0.859375 Q 10.6875,0.296875 5.421875,2 v 9.28125 q 4.984375,-2.59375 9.8125,-3.890625 4.828125,-1.28125 9.578125,-1.28125 6.34375,0 9.75,2.171875 3.421875,2.171875 3.421875,6.125 0,3.65625 -2.46875,5.609375 -2.453125,1.953125 -10.8125,3.765625 l -3.125,0.734375 q -8.34375,1.75 -12.0625,5.390625 -3.703125,3.640625 -3.703125,9.984375 0,7.71875 5.46875,11.90625 Q 16.75,56 26.8125,56 q 4.96875,0 9.359375,-0.734375 4.40625,-0.71875 8.109375,-2.1875 z"
             id="DejaVuSans-115" />
        </defs>
        <use
           xlink:href="#DejaVuSans-99"
           id="use298" />
        <use
           x="54.980469"
           xlink:href="#DejaVuSans-111"
           id="use300" />
        <use
           x="116.16211"
           xlink:href="#DejaVuSans-115"
           id="use302" />
        <use
           x="168.26172"
           xlink:href="#DejaVuSans-116"
           id="use304" />
      </g>
    </g>
  </g>
  <g
     id="line2d_33">
    <path
       clip-path="url(#p96b0498954)"
       d="m -1,34.954953 66.196307,0.0012 45.911493,2.060514 26.8565,1.947484 19.05499,1.966235 14.78019,2.027889 12.0763,2.104061 10.21037,2.183983 8.84462,2.263264 7.80151,2.340248 6.97869,2.414297 6.31299,2.485405 5.76331,2.553644 5.30174,2.619174 4.90863,2.682258 4.56983,2.743048 4.27479,2.801747 4.01555,2.858477 3.78596,2.913432 3.58122,2.966695 3.39747,3.018177 3.23168,3.065971 3.08131,3.109836 2.94432,3.148872 2.81899,3.178046 2.7039,3.199197 2.59783,3.213523 2.49978,3.22127 2.40886,3.22217 2.32432,3.21649 2.24551,3.20426 2.17188,3.18544 2.10291,3.15991 2.0382,3.12786 1.97735,3.08939 1.92003,3.04469 1.86593,2.99385 1.81481,2.93713 1.76641,2.87479 1.72051,2.80698 1.67696,2.73416 1.63555,2.65693 1.59613,2.57563 1.55857,2.49025 1.52274,2.40146 1.48852,2.31059 1.4558,2.21858 1.42449,2.12614 1.3945,2.03407 1.36575,1.9429 1.33815,1.85322 1.31165,1.76548 1.28619,1.68003 1.26168,1.59727 1.23809,1.51738 1.21538,1.44057 1.19348,1.36691 1.17235,1.29675 1.15197,1.23031 1.13227,1.16767 1.11324,1.10894 1.09484,1.05405 1.07704,1.00293 1.0598,0.95552 1.04311,0.91163 1.02694,0.87111 1.01126,0.83372 0.99606,0.79932 0.98129,0.76765 0.96697,0.73852 0.95306,0.71173 0.93954,0.68704 0.92639,0.66432 0.91362,0.64335 0.90119,0.624 0.88909,0.60423 0.87731,0.58832 0.86585,0.57298 0.85467,0.55844 0.84379,0.544 0.83317,0.53269 0.82282,0.51744 0.81273,0.50673 0.80287,0.49754 0.79326,0.48688 0.78387,0.47636 0.7747,0.46704 0.76575,0.45872 0.75699,0.44793 0.74844,0.44072 0.74008,0.43127 0.7319,0.42346 0.7239,0.41566 0.71608,0.40823 0.70841,0.40229 0.70092,0.39418 0.69358,0.38976 0.6864,0.38106 0.67935,0.3775 0.67245,0.36857"
       style="fill:none;stroke:#1f77b4;stroke-width:1.5;stroke-linecap:square"
       id="path310" />
  </g>
  <g
     id="line2d_34">
    <path
       clip-path="url(#p96b0498954)"
       d="m -1,39.201435 66.196307,0.003 45.911493,7.146185 26.8565,7.28812 19.05499,7.427513 14.78019,7.563168 12.0763,1.5e-5 10.21037,8e-6 8.84462,1.5e-5 7.80151,7e-6 6.97869,2.3e-5 6.31299,1.5e-5 5.76331,2.3e-5 5.30174,1.5e-5 4.90863,2.2e-5 4.56983,2.3e-5 4.27479,3e-5 4.01555,2.3e-5 3.78596,2.3e-5 3.58122,2.2e-5 3.39747,3e-5 3.23168,3.1e-5 3.08131,3e-5 2.94432,3e-5 2.81899,3e-5 2.7039,3.8e-5 2.59783,2.3e-5 2.49978,3.7e-5 2.40886,3.1e-5 2.32432,3.7e-5 2.24551,3.8e-5 2.17188,3.8e-5 2.10291,3.8e-5 2.0382,3.7e-5 1.97735,4.6e-5 1.92003,3e-5 1.86593,4.5e-5 1.81481,3.8e-5 1.76641,4.5e-5 1.72051,3.8e-5 1.67696,4.5e-5 1.63555,4.6e-5 1.59613,4.5e-5 1.55857,4.5e-5 1.52274,4.6e-5 1.48852,4.5e-5 1.4558,4.5e-5 1.42449,4.6e-5 1.3945,4.5e-5 1.36575,5.3e-5 1.33815,5.3e-5 1.31165,4.5e-5 1.28619,5.3e-5 1.26168,5.3e-5 1.23809,4.5e-5 1.21538,5.3e-5 1.19348,6e-5 1.17235,4.6e-5 1.15197,6e-5 1.13227,4.5e-5 1.11324,6.1e-5 1.09484,4.5e-5 1.07704,6.1e-5 1.0598,5.2e-5 1.04311,6.1e-5 1.02694,6e-5 1.01126,5.3e-5 0.99606,6.1e-5 0.98129,6e-5 0.96697,5.3e-5 0.95306,6e-5 0.93954,6.1e-5 0.92639,6e-5 0.91362,6e-5 0.90119,6.1e-5 0.88909,6.8e-5 0.87731,6e-5 0.86585,6.1e-5 0.85467,6e-5 0.84379,6.1e-5 0.83317,6.8e-5 0.82282,6.7e-5 0.81273,6.8e-5 0.80287,6.1e-5 0.79326,6.8e-5 0.78387,6e-5 0.7747,6.8e-5 0.76575,6.8e-5 0.75699,6.8e-5 0.74844,6.1e-5 0.74008,6.8e-5 0.7319,7.5e-5 0.7239,6.8e-5 0.71608,6.8e-5 0.70841,7.6e-5 0.70092,6.8e-5 0.69358,6.8e-5 0.6864,6.8e-5 0.67935,7.5e-5 0.67245,6.8e-5"
       style="fill:none;stroke:#ff7f0e;stroke-width:1.5;stroke-linecap:square"
       id="path313" />
  </g>
  <g
     id="line2d_35">
    <path
       clip-path="url(#p96b0498954)"
       d="m -1,61.002516 66.196307,0.01251 45.911493,35.882416 26.8565,42.569468 19.05499,34.62527 14.78019,-1.8179 12.0763,-21.85492 10.21037,-15.98382 8.84462,-5.06628 7.80151,4.03984 6.97869,10.91409 6.31299,15.66959 5.76331,17.72545 5.30174,16.1875 4.90863,10.67383 4.56983,2.97375 4.27479,-3.06389 4.01555,-5.14199 3.78596,-3.97269 3.58122,-1.82663 3.39747,0.86526 3.23168,2.98693 3.08131,4.37643 2.94432,4.79526 2.81899,4.1503 2.7039,2.66635 2.59783,0.91985 2.49978,-0.44402 2.40886,-0.99666 2.32432,-0.72956 2.24551,0.0174 2.17188,0.94848 2.10291,1.73622 2.0382,2.19118 1.97735,2.17298 1.92003,1.78841 1.86593,1.19569 1.81481,0.64231 1.76641,0.24258 1.72051,0.0705 1.67696,0.11883 1.63555,0.29923 1.59613,0.49925 1.55857,0.63136 1.52274,0.62647 1.48852,0.48844 1.4558,0.27394 1.42449,0.072 1.3945,-0.0403 1.36575,-0.0252 1.33815,0.0882 1.31165,0.23631 1.28619,0.35532 1.26168,0.3921 1.23809,0.34986 1.21538,0.26717 1.19348,0.17754 1.17235,0.0967 1.15197,0.0505 1.13227,0.0393 1.11324,0.0523 1.09484,0.0795 1.07704,0.10529 1.0598,0.11592 1.04311,0.1089 1.02694,0.0875 1.01126,0.0641 0.99606,0.0453 0.98129,0.0372 0.96697,0.0448 0.95306,0.0623 0.93954,0.0741 0.92639,0.069 0.91362,0.0626 0.90119,0.0553 0.88909,0.049 0.87731,0.041 0.86585,0.0302 0.85467,0.0287 0.84379,0.0288 0.83317,0.0335 0.82282,0.0289 0.81273,0.0301 0.80287,0.0266 0.79326,0.0283 0.78387,0.0247 0.7747,0.0229 0.76575,0.0268 0.75699,0.0299 0.74844,0.0186 0.74008,0.0233 0.7319,0.0241 0.7239,0.0162 0.71608,0.0131 0.70841,0.013 0.70092,0.0162 0.69358,0.0106 0.6864,0.0118 0.67935,0.0122 0.67245,0.0168"
       style="fill:none;stroke:#2ca02c;stroke-width:1.5;stroke-linecap:square"
       id="path316" />
  </g>
  <g
     id="line2d_36">
    <path
       clip-path="url(#p96b0498954)"
       d="m -1,33.025473 66.196307,3.57e-4 45.911493,0.848124 26.8565,0.864769 19.05499,0.877749 14.78019,0.88858 12.0763,0.897988 10.21037,0.906415 8.84462,0.914104 7.80151,0.921229 6.97869,0.927934 6.31299,0.934284 5.76331,0.940364 5.30174,0.946195 4.90863,0.951866 4.56983,0.957367 4.27479,0.962742 4.01555,0.967999 3.78596,0.973181 3.58122,0.978275 3.39747,0.98332 3.23168,0.98831 3.08131,0.993245 2.94432,0.998175 2.81899,1.003053 2.7039,1.007924 2.59783,1.012773 2.49978,1.017623 2.40886,1.022462 2.32432,1.027318 2.24551,1.032146 2.17188,1.037006 2.10291,1.041882 2.0382,1.046746 1.97735,1.051638 1.92003,1.056564 1.86593,1.061474 1.81481,1.066437 1.76641,1.071412 1.72051,1.07641 1.67696,1.08144 1.63555,1.086498 1.59613,1.091581 1.55857,1.0967 1.52274,1.101846 1.48852,1.107042 1.4558,1.112242 1.42449,1.117504 1.3945,1.122796 1.36575,1.128034 1.33815,1.133043 1.31165,1.137865 1.28619,1.142591 1.26168,1.14725 1.23809,1.151858 1.21538,1.15639 1.19348,1.160666 1.17235,1.164287 1.15197,1.167248 1.13227,1.169843 1.11324,1.172147 1.09484,1.174122 1.07704,1.175835 1.0598,1.177283 1.04311,1.178522 1.02694,1.17951 1.01126,1.180264 0.99606,1.18078 0.98129,1.18104 0.96697,1.18103 0.95306,1.1808 0.93954,1.18037 0.92639,1.17971 0.91362,1.17881 0.90119,1.17771 0.88909,1.17638 0.87731,1.17482 0.86585,1.17305 0.85467,1.17104 0.84379,1.1688 0.83317,1.16634 0.82282,1.16367 0.81273,1.16077 0.80287,1.15764 0.79326,1.15428 0.78387,1.15071 0.7747,1.14694 0.76575,1.14294 0.75699,1.13873 0.74844,1.13428 0.74008,1.12962 0.7319,1.12472 0.7239,1.1196 0.71608,1.11426 0.70841,1.10869 0.70092,1.10289 0.69358,1.09689 0.6864,1.09064 0.67935,1.08416 0.67245,1.07743"
       style="fill:none;stroke:#d62728;stroke-width:1.5;stroke-linecap:square"
       id="path319" />
  </g>
  <g
     id="line2d_37">
    <path
       clip-path="url(#p96b0498954)"
       d="m -1,61.002516 66.196307,0.01251 45.911493,32.165368 26.8565,34.425946 19.05499,30.96522 14.78019,18.45103 12.0763,1.8796 10.21037,-7.01732 8.84462,-7.58783 7.80151,-4.81138 6.97869,-1.11884 6.31299,2.29696 5.76331,5.02359 5.30174,6.92579 4.90863,7.94333 4.56983,7.98265 4.27479,7.31029 4.01555,6.1048 3.78596,4.56338 3.58122,3.034 3.39747,1.68437 3.23168,0.66835 3.08131,0.0676 2.94432,-0.20134 2.81899,-0.20704 2.7039,-0.007 2.59783,0.2508 2.49978,0.52546 2.40886,0.76423 2.32432,0.93758 2.24551,1.04191 2.17188,1.07161 2.10291,1.03715 2.0382,0.95482 1.97735,0.84385 1.92003,0.72313 1.86593,0.60982 1.81481,0.51619 1.76641,0.4486 1.72051,0.407 1.67696,0.38403 1.63555,0.3732 1.59613,0.37375 1.55857,0.35079 1.52274,0.35764 1.48852,0.35248 1.4558,0.3335 1.42449,0.3109 1.3945,0.27433 1.36575,0.24147 1.33815,0.21206 1.31165,0.18783 1.28619,0.16547 1.26168,0.14433 1.23809,0.12695 1.21538,0.11663 1.19348,0.11179 1.17235,0.10631 1.15197,0.10334 1.13227,0.10496 1.11324,0.10659 1.09484,0.10733 1.07704,0.10603 1.0598,0.10475 1.04311,0.10077 1.02694,0.0962 1.01126,0.0889 0.99606,0.0825 0.98129,0.0738 0.96697,0.0663 0.95306,0.0631 0.93954,0.0608 0.92639,0.0594 0.91362,0.0557 0.90119,0.0492 0.88909,0.0501 0.87731,0.0485 0.86585,0.0511 0.85467,0.051 0.84379,0.0497 0.83317,0.0463 0.82282,0.0454 0.81273,0.0471 0.80287,0.0453 0.79326,0.0389 0.78387,0.0368 0.7747,0.0365 0.76575,0.0364 0.75699,0.0342 0.74844,0.0331 0.74008,0.0313 0.7319,0.0319 0.7239,0.0295 0.71608,0.0259 0.70841,0.0268 0.70092,0.0281 0.69358,0.0274 0.6864,0.0257 0.67935,0.0263 0.67245,0.0258"
       style="fill:none;stroke:#9467bd;stroke-width:1.5;stroke-linecap:square"
       id="path322" />
  </g>
  <g
     id="line2d_38">
    <path
       clip-path="url(#p96b0498954)"
       d="m -1,39.201435 66.196307,0.003 45.911493,6.952171 26.8565,6.898334 19.05499,6.841043 14.78019,6.7801 12.0763,6.715411 10.21037,6.646525 8.84462,6.563333 7.80151,6.436446 6.97869,6.267936 6.31299,6.067496 5.76331,5.83977 5.30174,5.59174 4.90863,5.32969 4.56983,5.05822 4.27479,4.78107 4.01555,4.50175 3.78596,4.22415 3.58122,3.95195 3.39747,3.6884 3.23168,3.43591 3.08131,3.19578 2.94432,2.96812 2.81899,2.75422 2.7039,2.55483 2.59783,2.37029 2.49978,2.20036 2.40886,2.04443 2.32432,1.90198 2.24551,1.77215 2.17188,1.6541 2.10291,1.5469 2.0382,1.44957 1.97735,1.36128 1.92003,1.28119 1.86593,1.20846 1.81481,1.14229 1.76641,1.082 1.72051,1.02699 1.67696,0.97667 1.63555,0.93058 1.59613,0.88833 1.55857,0.84958 1.52274,0.81401 1.48852,0.78127 1.4558,0.75101 1.42449,0.72294 1.3945,0.69678 1.36575,0.67231 1.33815,0.64937 1.31165,0.62784 1.28619,0.60763 1.26168,0.58857 1.23809,0.57056 1.21538,0.55355 1.19348,0.53736 1.17235,0.52198 1.15197,0.50736 1.13227,0.49343 1.11324,0.48009 1.09484,0.46734 1.07704,0.45514 1.0598,0.44347 1.04311,0.43229 1.02694,0.42153 1.01126,0.41122 0.99606,0.40127 0.98129,0.39176 0.96697,0.38255 0.95306,0.37367 0.93954,0.36508 0.92639,0.35679 0.91362,0.34877 0.90119,0.341 0.88909,0.33347 0.87731,0.32601 0.86585,0.31884 0.85467,0.31212 0.84379,0.30536 0.83317,0.29903 0.82282,0.29269 0.81273,0.28672 0.80287,0.28074 0.79326,0.2751 0.78387,0.26943 0.7747,0.26411 0.76575,0.25873 0.75699,0.25374 0.74844,0.24863 0.74008,0.2439 0.7319,0.23908 0.7239,0.23464 0.71608,0.23004 0.70841,0.22582 0.70092,0.22148 0.69358,0.2173 0.6864,0.21325 0.67935,0.20938 0.67245,0.20553"
       style="fill:none;stroke:#8c564b;stroke-width:1.5;stroke-linecap:square"
       id="path325" />
  </g>
  <g
     id="line2d_39">
    <path
       clip-path="url(#p96b0498954)"
       d="m -1,32.201792 h 66.196307 l 45.911493,92.446288 26.8565,46.46851 19.05499,17.19404 14.78019,11.78099 12.0763,9.60634 10.21037,7.15459 8.84462,4.9417 7.80151,2.67434 6.97869,0.98319 6.31299,1.12741 5.76331,0.83906 5.30174,0.48649 4.90863,0.33404 4.56983,0.2453 4.27479,0.17964 4.01555,0.16311 3.78596,0.10677 3.58122,0.11346 3.39747,0.0738 3.23168,0.0557 3.08131,0.0533 2.94432,0.0461 2.81899,0.0373 2.7039,0.0307 2.59783,0.0289 2.49978,0.035 2.40886,0.0306 2.32432,0.02 2.24551,0.0329 2.17188,0.0291 2.10291,0.0146 2.0382,0.0191 1.97735,0.0172 1.92003,0.0139 1.86593,0.0132 1.81481,0.0129 1.76641,0.0152 1.72051,0.0133 1.67696,0.009 1.63555,0.0167 1.59613,0.006 1.55857,0.006 1.52274,0.007 1.48852,0.008 1.4558,0.007 1.42449,0.006 1.3945,0.006 1.36575,0.008 1.33815,0.007 1.31165,0.005 1.28619,0.005 1.26168,0.003 1.23809,0.004 1.21538,0.004 1.19348,0.005 1.17235,0.006 1.15197,0.005 1.13227,0.004 1.11324,0.003 1.09484,0.003 1.07704,0.004 1.0598,0.003 1.04311,0.003 1.02694,0.004 1.01126,0.003 0.99606,0.005 0.98129,0.003 0.96697,0.003 0.95306,-0.003 0.93954,0.005 0.92639,0.003 0.91362,0.005 0.90119,0.005 0.88909,0.003 0.87731,0.005 0.86585,0.003 0.85467,0.002 0.84379,0.002 0.83317,0.002 0.82282,0.002 0.81273,0.002 0.80287,0.003 0.79326,0.002 0.78387,0.002 0.7747,8e-4 0.76575,0.002 0.75699,0.002 0.74844,0.002 0.74008,-0.003 0.7319,0.005 0.7239,0.006 0.71608,10e-4 0.70841,0.003 0.70092,0.003 0.69358,0.002 0.6864,0.002 0.67935,0.002 0.67245,0.002"
       style="fill:none;stroke:#e377c2;stroke-width:1.5;stroke-linecap:square"
       id="path328" />
  </g>
  <g
     id="line2d_40">
    <path
       clip-path="url(#p96b0498954)"
       d="m -1,61.002516 66.196307,0.01251 45.911493,21.725148 26.8565,18.662976 19.05499,16.07972 14.78019,13.65433 12.0763,11.48656 10.21037,9.56902 8.84462,7.89744 7.80151,6.49494 6.97869,5.36125 6.31299,4.45636 5.76331,3.73821 5.30174,3.17295 4.90863,2.73166 4.56983,2.3868 4.27479,2.11145 4.01555,1.89526 3.78596,1.7174 3.58122,1.56587 3.39747,1.44951 3.23168,1.33148 3.08131,1.24963 2.94432,1.15915 2.81899,1.10132 2.7039,1.02522 2.59783,0.97504 2.49978,0.91624 2.40886,0.8755 2.32432,0.82634 2.24551,0.79212 2.17188,0.7495 2.10291,0.72011 2.0382,0.68133 1.97735,0.65551 1.92003,0.61986 1.86593,0.60013 1.81481,0.56817 1.76641,0.54876 1.72051,0.52055 1.67696,0.50458 1.63555,0.47815 1.59613,0.46514 1.55857,0.4411 1.52274,0.43025 1.48852,0.4065 1.4558,0.39864 1.42449,0.37672 1.3945,0.36996 1.36575,0.35015 1.33815,0.34421 1.31165,0.32609 1.28619,0.32074 1.26168,0.30413 1.23809,0.29943 1.21538,0.28412 1.19348,0.27992 1.17235,0.26586 1.15197,0.262 1.13227,0.24911 1.11324,0.24564 1.09484,0.23385 1.07704,0.23058 1.0598,0.21949 1.04311,0.21653 1.02694,0.20624 1.01126,0.20399 0.99606,0.19387 0.98129,0.19189 0.96697,0.18282 0.95306,0.18111 0.93954,0.17272 0.92639,0.17113 0.91362,0.16339 0.90119,0.16182 0.88909,0.15464 0.87731,0.15323 0.86585,0.14657 0.85467,0.14523 0.84379,0.139 0.83317,0.1371 0.82282,0.13128 0.81273,0.13003 0.80287,0.12464 0.79326,0.12336 0.78387,0.11835 0.7747,0.11704 0.76575,0.1123 0.75699,0.11098 0.74844,0.10648 0.74008,0.10514 0.7319,0.10089 0.7239,0.0996 0.71608,0.0956 0.70841,0.0943 0.70092,0.0905 0.69358,0.0891 0.6864,0.0856 0.67935,0.0843 0.67245,0.0809"
       style="fill:none;stroke:#7f7f7f;stroke-width:1.5;stroke-linecap:square"
       id="path331" />
  </g>
  <g
     id="line2d_41">
    <path
       clip-path="url(#p96b0498954)"
       d="m -1,34.823762 66.196307,0.0011 45.911493,2.674571 26.8565,2.728007 19.05499,2.783571 14.78019,2.841366 12.0763,2.901562 10.21037,2.964272 8.84462,3.029673 7.80151,3.097905 6.97869,3.169195 6.31299,3.243706 5.76331,3.321655 5.30174,3.403297 4.90863,3.488867 4.56983,3.578638 4.27479,3.672723 4.01555,3.769007 3.78596,3.86741 3.58122,3.963508 3.39747,4.055011 3.23168,4.143644 3.08131,4.22888 2.94432,4.30954 2.81899,4.38459 2.7039,4.45201 2.59783,4.50941 2.49978,4.5541 2.40886,4.58285 2.32432,4.59185 2.24551,4.57689 2.17188,4.53271 2.10291,4.45127 2.0382,4.32842 1.97735,4.16338 1.92003,3.95712 1.86593,3.72217 1.81481,3.46173 1.76641,3.20103 1.72051,2.96428 1.67696,2.76982 1.63555,2.64233 1.59613,2.55684 1.55857,2.48655 1.52274,2.4225 1.48852,2.35931 1.4558,2.28872 1.42449,2.20478 1.3945,2.11454 1.36575,2.01937 1.33815,1.9204 1.31165,1.8134 1.28619,1.70359 1.26168,1.59638 1.23809,1.49819 1.21538,1.41099 1.19348,1.32957 1.17235,1.25033 1.15197,1.17639 1.13227,1.10218 1.11324,1.03405 1.09484,0.9647 1.07704,0.90522 1.0598,0.85158 1.04311,0.79726 1.02694,0.74462 1.01126,0.70298 0.99606,0.65839 0.98129,0.61749 0.96697,0.57751 0.95306,0.54298 0.93954,0.50783 0.92639,0.47728 0.91362,0.44506 0.90119,0.41835 0.88909,0.3922 0.87731,0.36709 0.86585,0.33524 0.85467,0.31299 0.84379,0.29056 0.83317,0.26272 0.82282,0.23778 0.81273,0.22005 0.80287,0.1986 0.79326,0.17793 0.78387,0.16705 0.7747,0.14856 0.76575,0.13805 0.75699,0.12564 0.74844,0.1147 0.74008,0.10345 0.7319,0.0957 0.7239,0.0843 0.71608,0.0783 0.70841,0.0709 0.70092,0.0659 0.69358,0.0592 0.6864,0.0552 0.67935,0.0505 0.67245,0.0473"
       style="fill:none;stroke:#bcbd22;stroke-width:1.5;stroke-linecap:square"
       id="path334" />
  </g>
  <g
     id="line2d_42">
    <path
       clip-path="url(#p96b0498954)"
       d="m -1,89.100925 66.196307,0.0058 45.911493,14.316985 26.8565,15.25935 19.05499,15.90349 14.78019,15.94415 12.0763,15.01214 10.21037,13.03036 8.84462,10.81912 7.80151,9.20661 6.97869,7.84306 6.31299,6.4465 5.76331,5.04044 5.30174,3.78425 4.90863,0.80786 4.56983,0.74212 4.27479,0.1779 4.01555,0.16845 3.78596,0.16909 3.58122,0.15987 3.39747,0.1606 3.23168,0.15293 3.08131,0.1537 2.94432,0.14638 2.81899,0.14697 2.7039,0.13963 2.59783,0.14031 2.49978,0.13346 2.40886,0.13416 2.32432,0.12758 2.24551,0.12815 2.17188,0.12134 2.10291,0.12243 2.0382,0.11588 1.97735,0.11694 1.92003,0.11064 1.86593,0.11164 1.81481,0.10565 1.76641,0.10519 1.72051,0.0979 1.67696,0.0998 1.63555,0.0931 1.59613,0.0944 1.55857,0.0879 1.52274,0.0894 1.48852,0.0836 1.4558,0.0849 1.42449,0.0794 1.3945,0.0803 1.36575,0.0749 1.33815,0.0756 1.31165,0.0709 1.28619,0.0702 1.26168,0.067 1.23809,0.0661 1.21538,0.062 1.19348,0.0604 1.17235,0.0566 1.15197,0.0568 1.13227,0.0532 1.11324,0.0535 1.09484,0.0502 1.07704,0.0501 1.0598,0.0471 1.04311,0.047 1.02694,0.0443 1.01126,0.0441 0.99606,0.0407 0.98129,0.0411 0.96697,0.0381 0.95306,0.0383 0.93954,0.0357 0.92639,0.0357 0.91362,0.0327 0.90119,0.033 0.88909,0.0302 0.87731,0.0305 0.86585,0.0273 0.85467,0.028 0.84379,0.0254 0.83317,0.0262 0.82282,0.0238 0.81273,0.0244 0.80287,0.0222 0.79326,0.0229 0.78387,0.0207 0.7747,0.0213 0.76575,0.0193 0.75699,0.02 0.74844,0.018 0.74008,0.0187 0.7319,0.0161 0.7239,0.0175 0.71608,0.0152 0.70841,0.0165 0.70092,0.0143 0.69358,0.0157 0.6864,0.0136 0.67935,0.0148 0.67245,0.0128"
       style="fill:none;stroke:#17becf;stroke-width:1.5;stroke-dasharray:5.55, 2.4;stroke-dashoffset:0"
       id="path337" />
  </g>
  <g
     id="line2d_43">
    <path
       clip-path="url(#p96b0498954)"
       d="m -1,186.97289 66.196307,0.015 45.911493,14.45656 26.8565,7.37831 19.05499,7.63571 14.78019,3.50201 12.0763,2.11762 10.21037,1.41423 8.84462,0.88709 7.80151,0.62633 6.97869,1.28081 6.31299,0.48379 5.76331,0.60658 5.30174,0.27643 4.90863,0.13783 4.56983,0.15452 4.27479,0.15144 4.01555,0.11094 3.78596,0.0805 3.58122,0.0898 3.39747,0.0562 3.23168,0.0311 3.08131,0.0286 2.94432,0.0457 2.81899,0.0273 2.7039,0.0423 2.59783,0.0249 2.49978,0.0387 2.40886,0.0277 2.32432,0.0182 2.24551,0.0121 2.17188,0.006 2.10291,0.009 2.0382,0.006 1.97735,0.009 1.92003,0.006 1.86593,0.008 1.81481,0.006 1.76641,0.005 1.72051,0.003 1.67696,0.0107 1.63555,0.003 1.59613,0.0104 1.55857,0.003 1.52274,0.0102 1.48852,0.003 1.4558,0.01 1.42449,0.003 1.3945,0.01 1.36575,0.005 1.33815,0.003 1.31165,0.002 1.28619,0.001 1.26168,2.9e-4 1.23809,0.003 1.21538,7.4e-4 1.19348,10e-4 1.17235,0.002 1.15197,0.001 1.13227,0.002 1.11324,10e-4 1.09484,0.002 1.07704,0.001 1.0598,0.002 1.04311,10e-4 1.02694,0.002 1.01126,0.001 0.99606,0.002 0.98129,10e-4 0.96697,0.002 0.95306,0.001 0.93954,0.002 0.92639,10e-4 0.91362,0.002 0.90119,0.001 0.88909,0.002 0.87731,0.001 0.86585,0.002 0.85467,0.001 0.84379,0.002 0.83317,0.001 0.82282,0.002 0.81273,0.001 0.80287,0.002 0.79326,0.001 0.78387,0.002 0.7747,9.9e-4 0.76575,0.002 0.75699,10e-4 0.74844,0.002 0.74008,9.7e-4 0.7319,0.002 0.7239,0.002 0.71608,4.6e-4 0.70841,2.3e-4 0.70092,4.5e-4 0.69358,2.1e-4 0.6864,4.6e-4 0.67935,2.2e-4 0.67245,4.4e-4"
       style="fill:none;stroke:#1f77b4;stroke-width:1.5;stroke-dasharray:5.55, 2.4;stroke-dashoffset:0"
       id="path340" />
  </g>
  <g
     id="line2d_44">
    <path
       clip-path="url(#p96b0498954)"
       d="m -1,185.56947 66.196307,0.0144 45.911493,30.91707 26.8565,8.41657 19.05499,2.35838 14.78019,0.58776 12.0763,0.48269 10.21037,0.25109 8.84462,0.11492 7.80151,0.016"
       style="fill:none;stroke:#ff7f0e;stroke-width:1.5;stroke-dasharray:5.55, 2.4;stroke-dashoffset:0"
       id="path343" />
  </g>
  <g
     id="line2d_45">
    <path
       clip-path="url(#p96b0498954)"
       d="m -1,32.201761 h 66.196307 45.911493 26.8565 19.05499 14.78019 12.0763 10.21037 8.84462 7.80151 6.97869 6.31299 5.76331 5.30174 4.90863 4.56983 4.27479 4.01555 3.78596 3.58122 3.39747 3.23168 3.08131 2.94432 2.81899 2.7039 2.59783 2.49978 2.40886 2.32432 2.24551 2.17188 2.10291 2.0382 1.97735 1.92003 1.86593 1.81481 1.76641 1.72051 1.67696 1.63555 1.59613 1.55857 1.52274 1.48852 1.4558 1.42449 1.3945 1.36575 1.33815 1.31165 1.28619 1.26168 1.23809 1.21538 1.19348 1.17235 1.15197 1.13227 1.11324 1.09484 1.07704 1.0598 1.04311 1.02694 1.01126 0.99606 0.98129 0.96697 0.95306 0.93954 0.92639 0.91362 0.90119 0.88909 0.87731 0.86585 0.85467 0.84379 0.83317 0.82282 0.81273 0.80287 0.79326 0.78387 0.7747 0.76575 0.75699 0.74844 0.74008 0.7319 0.7239 0.71608 0.70841 0.70092 0.69358 0.6864 0.67935 0.67245"
       style="fill:none;stroke:#2ca02c;stroke-width:1.5;stroke-dasharray:5.55, 2.4;stroke-dashoffset:0"
       id="path346" />
  </g>
  <g
     id="patch_3">
    <path
       d="M 49.978125,239.75812 V 22.318125"
       style="fill:none;stroke:#000000;stroke-width:0.8;stroke-linecap:square;stroke-linejoin:miter"
       id="path349" />
  </g>
  <g
     id="patch_4">
    <path
       d="M 384.77812,239.75812 V 22.318125"
       style="fill:none;stroke:#000000;stroke-width:0.8;stroke-linecap:square;stroke-linejoin:miter"
       id="path352" />
  </g>
  <g
     id="patch_5">
    <path
       d="M 49.978125,239.75812 H 384.77812"
       style="fill:none;stroke:#000000;stroke-width:0.8;stroke-linecap:square;stroke-linejoin:miter"
       id="path355" />
  </g>
  <g
     id="patch_6">
    <path
       d="M 49.978125,22.318125 H 384.77812"
       style="fill:none;stroke:#000000;stroke-width:0.8;stroke-linecap:square;stroke-linejoin:miter"
       id="path358" />
  </g>
  <defs
     id="defs670">
    <clipPath
       id="p96b0498954">
      <rect
         height="217.44"
         width="334.79999"
         x="49.978127"
         y="22.318125"
         id="rect667" />
    </clipPath>
  </defs>
</svg>
