<?xml version="1.0" encoding="UTF-8" standalone="no"?>
<!-- Created with matplotlib (https://matplotlib.org/) -->

<svg
   height="277.31436pt"
   version="1.1"
   viewBox="0 0 400 277.31437"
   width="400pt"
   id="svg1711"
   sodipodi:docname="ICMProstate-time.svg"
   inkscape:export-filename="ICMProstate-time.png"
   inkscape:export-xdpi="192"
   inkscape:export-ydpi="192"
   inkscape:version="1.3.2 (091e20e, 2023-11-25, custom)"
   xmlns:inkscape="http://www.inkscape.org/namespaces/inkscape"
   xmlns:sodipodi="http://sodipodi.sourceforge.net/DTD/sodipodi-0.dtd"
   xmlns:xlink="http://www.w3.org/1999/xlink"
   xmlns="http://www.w3.org/2000/svg"
   xmlns:svg="http://www.w3.org/2000/svg"
   xmlns:rdf="http://www.w3.org/1999/02/22-rdf-syntax-ns#"
   xmlns:cc="http://creativecommons.org/ns#"
   xmlns:dc="http://purl.org/dc/elements/1.1/">
  <sodipodi:namedview
     id="namedview1713"
     pagecolor="#ffffff"
     bordercolor="#000000"
     borderopacity="0.25"
     inkscape:showpageshadow="2"
     inkscape:pageopacity="0.0"
     inkscape:pagecheckerboard="0"
     inkscape:deskcolor="#d1d1d1"
     inkscape:document-units="pt"
     showgrid="false"
     inkscape:zoom="1.4289789"
     inkscape:cx="364.2461"
     inkscape:cy="187.1966"
     inkscape:window-width="1920"
     inkscape:window-height="1009"
     inkscape:window-x="3832"
     inkscape:window-y="-8"
     inkscape:window-maximized="1"
     inkscape:current-layer="svg1711" />
  <metadata
     id="metadata903">
    <rdf:RDF>
      <cc:Work>
        <dc:type
           rdf:resource="http://purl.org/dc/dcmitype/StillImage" />
        <dc:date>2023-05-25T09:22:00.324784</dc:date>
        <dc:format>image/svg+xml</dc:format>
        <dc:creator>
          <cc:Agent>
            <dc:title>Matplotlib v3.3.2, https://matplotlib.org/</dc:title>
          </cc:Agent>
        </dc:creator>
      </cc:Work>
    </rdf:RDF>
  </metadata>
  <defs
     id="defs907">
    <style
       type="text/css"
       id="style905">*{stroke-linecap:butt;stroke-linejoin:round;}</style>
  </defs>
  <g
     id="patch_1">
    <path
       d="M 0,277.31437 H 492.85425 V 0 H 0 Z"
       style="fill:none"
       id="path909" />
  </g>
  <g
     id="patch_2">
    <path
       d="M 49.978125,239.75812 H 384.77812 V 22.318125 H 49.978125 Z"
       style="fill:#ffffff"
       id="path912" />
  </g>
  <g
     id="matplotlib.axis_1">
    <g
       id="xtick_1">
      <g
         id="line2d_1">
        <defs
           id="defs916">
          <path
             d="M 0,0 V 3.5"
             id="m17064cf175"
             style="stroke:#000000;stroke-width:0.8" />
        </defs>
        <g
           id="g920">
          <use
             style="stroke:#000000;stroke-width:0.8"
             x="87.463081"
             xlink:href="#m17064cf175"
             y="239.75812"
             id="use918" />
        </g>
      </g>
      <g
         id="text_1">
        <!-- $\mathdefault{10^{-2}}$ -->
        <g
           transform="matrix(0.1,0,0,-0.1,75.713079,254.35656)"
           id="g937">
          <defs
             id="defs927">
            <path
               d="m 12.40625,8.296875 h 16.109375 v 55.625 L 10.984375,60.40625 v 8.984375 l 17.4375,3.515625 H 38.28125 V 8.296875 H 54.390625 V 0 H 12.40625 Z"
               id="DejaVuSans-49" />
            <path
               d="m 31.78125,66.40625 q -7.609375,0 -11.453125,-7.5 Q 16.5,51.421875 16.5,36.375 q 0,-14.984375 3.828125,-22.484375 3.84375,-7.5 11.453125,-7.5 7.671875,0 11.5,7.5 3.84375,7.5 3.84375,22.484375 0,15.046875 -3.84375,22.53125 -3.828125,7.5 -11.5,7.5 z m 0,7.8125 q 12.265625,0 18.734375,-9.703125 6.46875,-9.6875 6.46875,-28.140625 0,-18.40625 -6.46875,-28.109375 -6.46875,-9.6875 -18.734375,-9.6875 -12.25,0 -18.71875,9.6875 Q 6.59375,17.96875 6.59375,36.375 q 0,18.453125 6.46875,28.140625 6.46875,9.703125 18.71875,9.703125 z"
               id="DejaVuSans-48" />
            <path
               d="M 10.59375,35.5 H 73.1875 V 27.203125 H 10.59375 Z"
               id="DejaVuSans-8722" />
            <path
               d="M 19.1875,8.296875 H 53.609375 V 0 H 7.328125 v 8.296875 q 5.609375,5.8125 15.296875,15.59375 9.703125,9.796875 12.1875,12.640625 4.734375,5.3125 6.609375,9 1.890625,3.6875 1.890625,7.25 0,5.8125 -4.078125,9.46875 -4.078125,3.671875 -10.625,3.671875 -4.640625,0 -9.796875,-1.609375 -5.140625,-1.609375 -11,-4.890625 v 9.96875 Q 13.765625,71.78125 18.9375,73 q 5.1875,1.21875 9.484375,1.21875 11.328125,0 18.0625,-5.671875 6.734375,-5.65625 6.734375,-15.125 0,-4.5 -1.6875,-8.53125 Q 49.859375,40.875 45.40625,35.40625 44.1875,33.984375 37.640625,27.21875 31.109375,20.453125 19.1875,8.296875 Z"
               id="DejaVuSans-50" />
          </defs>
          <use
             transform="translate(0,0.765625)"
             xlink:href="#DejaVuSans-49"
             id="use929" />
          <use
             transform="translate(63.623047,0.765625)"
             xlink:href="#DejaVuSans-48"
             id="use931" />
          <use
             transform="matrix(0.7,0,0,0.7,128.20312,39.046875)"
             xlink:href="#DejaVuSans-8722"
             id="use933" />
          <use
             transform="matrix(0.7,0,0,0.7,186.85547,39.046875)"
             xlink:href="#DejaVuSans-50"
             id="use935" />
        </g>
      </g>
    </g>
    <g
       id="xtick_2">
      <g
         id="line2d_2">
        <g
           id="g943">
          <use
             style="stroke:#000000;stroke-width:0.8"
             x="162.63757"
             xlink:href="#m17064cf175"
             y="239.75812"
             id="use941" />
        </g>
      </g>
      <g
         id="text_2">
        <!-- $\mathdefault{10^{-1}}$ -->
        <g
           transform="matrix(0.1,0,0,-0.1,150.88758,254.35656)"
           id="g954">
          <use
             transform="translate(0,0.684375)"
             xlink:href="#DejaVuSans-49"
             id="use946" />
          <use
             transform="translate(63.623047,0.684375)"
             xlink:href="#DejaVuSans-48"
             id="use948" />
          <use
             transform="matrix(0.7,0,0,0.7,128.20312,38.965625)"
             xlink:href="#DejaVuSans-8722"
             id="use950" />
          <use
             transform="matrix(0.7,0,0,0.7,186.85547,38.965625)"
             xlink:href="#DejaVuSans-49"
             id="use952" />
        </g>
      </g>
    </g>
    <g
       id="xtick_3">
      <g
         id="line2d_3">
        <g
           id="g960">
          <use
             style="stroke:#000000;stroke-width:0.8"
             x="237.81207"
             xlink:href="#m17064cf175"
             y="239.75812"
             id="use958" />
        </g>
      </g>
      <g
         id="text_3">
        <!-- $\mathdefault{10^{0}}$ -->
        <g
           transform="matrix(0.1,0,0,-0.1,229.01207,254.35656)"
           id="g969">
          <use
             transform="translate(0,0.765625)"
             xlink:href="#DejaVuSans-49"
             id="use963" />
          <use
             transform="translate(63.623047,0.765625)"
             xlink:href="#DejaVuSans-48"
             id="use965" />
          <use
             transform="matrix(0.7,0,0,0.7,128.20312,39.046875)"
             xlink:href="#DejaVuSans-48"
             id="use967" />
        </g>
      </g>
    </g>
    <g
       id="xtick_4">
      <g
         id="line2d_4">
        <g
           id="g975">
          <use
             style="stroke:#000000;stroke-width:0.8"
             x="312.98657"
             xlink:href="#m17064cf175"
             y="239.75812"
             id="use973" />
        </g>
      </g>
      <g
         id="text_4">
        <!-- $\mathdefault{10^{1}}$ -->
        <g
           transform="matrix(0.1,0,0,-0.1,304.18657,254.35656)"
           id="g984">
          <use
             transform="translate(0,0.684375)"
             xlink:href="#DejaVuSans-49"
             id="use978" />
          <use
             transform="translate(63.623047,0.684375)"
             xlink:href="#DejaVuSans-48"
             id="use980" />
          <use
             transform="matrix(0.7,0,0,0.7,128.20312,38.965625)"
             xlink:href="#DejaVuSans-49"
             id="use982" />
        </g>
      </g>
    </g>
    <g
       id="xtick_5">
      <g
         id="line2d_5">
        <defs
           id="defs989">
          <path
             d="M 0,0 V 2"
             id="m816035fe35"
             style="stroke:#000000;stroke-width:0.6" />
        </defs>
        <g
           id="g993">
          <use
             style="stroke:#000000;stroke-width:0.6"
             x="57.548138"
             xlink:href="#m816035fe35"
             y="239.75812"
             id="use991" />
        </g>
      </g>
    </g>
    <g
       id="xtick_6">
      <g
         id="line2d_6">
        <g
           id="g999">
          <use
             style="stroke:#000000;stroke-width:0.6"
             x="64.833298"
             xlink:href="#m816035fe35"
             y="239.75812"
             id="use997" />
        </g>
      </g>
    </g>
    <g
       id="xtick_7">
      <g
         id="line2d_7">
        <g
           id="g1005">
          <use
             style="stroke:#000000;stroke-width:0.6"
             x="70.785713"
             xlink:href="#m816035fe35"
             y="239.75812"
             id="use1003" />
        </g>
      </g>
    </g>
    <g
       id="xtick_8">
      <g
         id="line2d_8">
        <g
           id="g1011">
          <use
             style="stroke:#000000;stroke-width:0.6"
             x="75.818405"
             xlink:href="#m816035fe35"
             y="239.75812"
             id="use1009" />
        </g>
      </g>
    </g>
    <g
       id="xtick_9">
      <g
         id="line2d_9">
        <g
           id="g1017">
          <use
             style="stroke:#000000;stroke-width:0.6"
             x="80.177917"
             xlink:href="#m816035fe35"
             y="239.75812"
             id="use1015" />
        </g>
      </g>
    </g>
    <g
       id="xtick_10">
      <g
         id="line2d_10">
        <g
           id="g1023">
          <use
             style="stroke:#000000;stroke-width:0.6"
             x="84.023285"
             xlink:href="#m816035fe35"
             y="239.75812"
             id="use1021" />
        </g>
      </g>
    </g>
    <g
       id="xtick_11">
      <g
         id="line2d_11">
        <g
           id="g1029">
          <use
             style="stroke:#000000;stroke-width:0.6"
             x="110.09286"
             xlink:href="#m816035fe35"
             y="239.75812"
             id="use1027" />
        </g>
      </g>
    </g>
    <g
       id="xtick_12">
      <g
         id="line2d_12">
        <g
           id="g1035">
          <use
             style="stroke:#000000;stroke-width:0.6"
             x="123.33043"
             xlink:href="#m816035fe35"
             y="239.75812"
             id="use1033" />
        </g>
      </g>
    </g>
    <g
       id="xtick_13">
      <g
         id="line2d_13">
        <g
           id="g1041">
          <use
             style="stroke:#000000;stroke-width:0.6"
             x="132.72264"
             xlink:href="#m816035fe35"
             y="239.75812"
             id="use1039" />
        </g>
      </g>
    </g>
    <g
       id="xtick_14">
      <g
         id="line2d_14">
        <g
           id="g1047">
          <use
             style="stroke:#000000;stroke-width:0.6"
             x="140.0078"
             xlink:href="#m816035fe35"
             y="239.75812"
             id="use1045" />
        </g>
      </g>
    </g>
    <g
       id="xtick_15">
      <g
         id="line2d_15">
        <g
           id="g1053">
          <use
             style="stroke:#000000;stroke-width:0.6"
             x="145.96021"
             xlink:href="#m816035fe35"
             y="239.75812"
             id="use1051" />
        </g>
      </g>
    </g>
    <g
       id="xtick_16">
      <g
         id="line2d_16">
        <g
           id="g1059">
          <use
             style="stroke:#000000;stroke-width:0.6"
             x="150.9929"
             xlink:href="#m816035fe35"
             y="239.75812"
             id="use1057" />
        </g>
      </g>
    </g>
    <g
       id="xtick_17">
      <g
         id="line2d_17">
        <g
           id="g1065">
          <use
             style="stroke:#000000;stroke-width:0.6"
             x="155.35242"
             xlink:href="#m816035fe35"
             y="239.75812"
             id="use1063" />
        </g>
      </g>
    </g>
    <g
       id="xtick_18">
      <g
         id="line2d_18">
        <g
           id="g1071">
          <use
             style="stroke:#000000;stroke-width:0.6"
             x="159.19778"
             xlink:href="#m816035fe35"
             y="239.75812"
             id="use1069" />
        </g>
      </g>
    </g>
    <g
       id="xtick_19">
      <g
         id="line2d_19">
        <g
           id="g1077">
          <use
             style="stroke:#000000;stroke-width:0.6"
             x="185.26735"
             xlink:href="#m816035fe35"
             y="239.75812"
             id="use1075" />
        </g>
      </g>
    </g>
    <g
       id="xtick_20">
      <g
         id="line2d_20">
        <g
           id="g1083">
          <use
             style="stroke:#000000;stroke-width:0.6"
             x="198.50493"
             xlink:href="#m816035fe35"
             y="239.75812"
             id="use1081" />
        </g>
      </g>
    </g>
    <g
       id="xtick_21">
      <g
         id="line2d_21">
        <g
           id="g1089">
          <use
             style="stroke:#000000;stroke-width:0.6"
             x="207.89714"
             xlink:href="#m816035fe35"
             y="239.75812"
             id="use1087" />
        </g>
      </g>
    </g>
    <g
       id="xtick_22">
      <g
         id="line2d_22">
        <g
           id="g1095">
          <use
             style="stroke:#000000;stroke-width:0.6"
             x="215.1823"
             xlink:href="#m816035fe35"
             y="239.75812"
             id="use1093" />
        </g>
      </g>
    </g>
    <g
       id="xtick_23">
      <g
         id="line2d_23">
        <g
           id="g1101">
          <use
             style="stroke:#000000;stroke-width:0.6"
             x="221.1347"
             xlink:href="#m816035fe35"
             y="239.75812"
             id="use1099" />
        </g>
      </g>
    </g>
    <g
       id="xtick_24">
      <g
         id="line2d_24">
        <g
           id="g1107">
          <use
             style="stroke:#000000;stroke-width:0.6"
             x="226.1674"
             xlink:href="#m816035fe35"
             y="239.75812"
             id="use1105" />
        </g>
      </g>
    </g>
    <g
       id="xtick_25">
      <g
         id="line2d_25">
        <g
           id="g1113">
          <use
             style="stroke:#000000;stroke-width:0.6"
             x="230.52692"
             xlink:href="#m816035fe35"
             y="239.75812"
             id="use1111" />
        </g>
      </g>
    </g>
    <g
       id="xtick_26">
      <g
         id="line2d_26">
        <g
           id="g1119">
          <use
             style="stroke:#000000;stroke-width:0.6"
             x="234.37228"
             xlink:href="#m816035fe35"
             y="239.75812"
             id="use1117" />
        </g>
      </g>
    </g>
    <g
       id="xtick_27">
      <g
         id="line2d_27">
        <g
           id="g1125">
          <use
             style="stroke:#000000;stroke-width:0.6"
             x="260.44186"
             xlink:href="#m816035fe35"
             y="239.75812"
             id="use1123" />
        </g>
      </g>
    </g>
    <g
       id="xtick_28">
      <g
         id="line2d_28">
        <g
           id="g1131">
          <use
             style="stroke:#000000;stroke-width:0.6"
             x="273.67941"
             xlink:href="#m816035fe35"
             y="239.75812"
             id="use1129" />
        </g>
      </g>
    </g>
    <g
       id="xtick_29">
      <g
         id="line2d_29">
        <g
           id="g1137">
          <use
             style="stroke:#000000;stroke-width:0.6"
             x="283.07162"
             xlink:href="#m816035fe35"
             y="239.75812"
             id="use1135" />
        </g>
      </g>
    </g>
    <g
       id="xtick_30">
      <g
         id="line2d_30">
        <g
           id="g1143">
          <use
             style="stroke:#000000;stroke-width:0.6"
             x="290.35678"
             xlink:href="#m816035fe35"
             y="239.75812"
             id="use1141" />
        </g>
      </g>
    </g>
    <g
       id="xtick_31">
      <g
         id="line2d_31">
        <g
           id="g1149">
          <use
             style="stroke:#000000;stroke-width:0.6"
             x="296.3092"
             xlink:href="#m816035fe35"
             y="239.75812"
             id="use1147" />
        </g>
      </g>
    </g>
    <g
       id="xtick_32">
      <g
         id="line2d_32">
        <g
           id="g1155">
          <use
             style="stroke:#000000;stroke-width:0.6"
             x="301.34189"
             xlink:href="#m816035fe35"
             y="239.75812"
             id="use1153" />
        </g>
      </g>
    </g>
    <g
       id="xtick_33">
      <g
         id="line2d_33">
        <g
           id="g1161">
          <use
             style="stroke:#000000;stroke-width:0.6"
             x="305.70142"
             xlink:href="#m816035fe35"
             y="239.75812"
             id="use1159" />
        </g>
      </g>
    </g>
    <g
       id="xtick_34">
      <g
         id="line2d_34">
        <g
           id="g1167">
          <use
             style="stroke:#000000;stroke-width:0.6"
             x="309.54678"
             xlink:href="#m816035fe35"
             y="239.75812"
             id="use1165" />
        </g>
      </g>
    </g>
    <g
       id="xtick_35">
      <g
         id="line2d_35">
        <g
           id="g1173">
          <use
             style="stroke:#000000;stroke-width:0.6"
             x="335.61636"
             xlink:href="#m816035fe35"
             y="239.75812"
             id="use1171" />
        </g>
      </g>
    </g>
    <g
       id="xtick_36">
      <g
         id="line2d_36">
        <g
           id="g1179">
          <use
             style="stroke:#000000;stroke-width:0.6"
             x="348.85391"
             xlink:href="#m816035fe35"
             y="239.75812"
             id="use1177" />
        </g>
      </g>
    </g>
    <g
       id="xtick_37">
      <g
         id="line2d_37">
        <g
           id="g1185">
          <use
             style="stroke:#000000;stroke-width:0.6"
             x="358.24612"
             xlink:href="#m816035fe35"
             y="239.75812"
             id="use1183" />
        </g>
      </g>
    </g>
    <g
       id="xtick_38">
      <g
         id="line2d_38">
        <g
           id="g1191">
          <use
             style="stroke:#000000;stroke-width:0.6"
             x="365.53128"
             xlink:href="#m816035fe35"
             y="239.75812"
             id="use1189" />
        </g>
      </g>
    </g>
    <g
       id="xtick_39">
      <g
         id="line2d_39">
        <g
           id="g1197">
          <use
             style="stroke:#000000;stroke-width:0.6"
             x="371.4837"
             xlink:href="#m816035fe35"
             y="239.75812"
             id="use1195" />
        </g>
      </g>
    </g>
    <g
       id="xtick_40">
      <g
         id="line2d_40">
        <g
           id="g1203">
          <use
             style="stroke:#000000;stroke-width:0.6"
             x="376.51639"
             xlink:href="#m816035fe35"
             y="239.75812"
             id="use1201" />
        </g>
      </g>
    </g>
    <g
       id="xtick_41">
      <g
         id="line2d_41">
        <g
           id="g1209">
          <use
             style="stroke:#000000;stroke-width:0.6"
             x="380.87592"
             xlink:href="#m816035fe35"
             y="239.75812"
             id="use1207" />
        </g>
      </g>
    </g>
    <g
       id="xtick_42">
      <g
         id="line2d_42">
        <g
           id="g1215">
          <use
             style="stroke:#000000;stroke-width:0.6"
             x="384.72128"
             xlink:href="#m816035fe35"
             y="239.75812"
             id="use1213" />
        </g>
      </g>
    </g>
    <g
       id="text_5">
      <!-- time (s) -->
      <g
         transform="matrix(0.1,0,0,-0.1,197.98672,268.03469)"
         id="g1245">
        <defs
           id="defs1227">
          <path
             d="M 18.3125,70.21875 V 54.6875 h 18.5 v -6.984375 h -18.5 v -29.6875 q 0,-6.6875 1.828125,-8.59375 1.828125,-1.90625 7.453125,-1.90625 H 36.8125 V 0 H 27.59375 Q 17.1875,0 13.234375,3.875 9.28125,7.765625 9.28125,18.015625 v 29.6875 H 2.6875 V 54.6875 h 6.59375 v 15.53125 z"
             id="DejaVuSans-116" />
          <path
             d="M 9.421875,54.6875 H 18.40625 V 0 H 9.421875 Z m 0,21.296875 H 18.40625 V 64.59375 H 9.421875 Z"
             id="DejaVuSans-105" />
          <path
             d="M 52,44.1875 Q 55.375,50.25 60.0625,53.125 64.75,56 71.09375,56 q 8.546875,0 13.1875,-5.984375 4.640625,-5.96875 4.640625,-17 V 0 h -9.03125 v 32.71875 q 0,7.859375 -2.796875,11.65625 -2.78125,3.8125 -8.484375,3.8125 -6.984375,0 -11.046875,-4.640625 -4.046875,-4.625 -4.046875,-12.640625 V 0 h -9.03125 v 32.71875 q 0,7.90625 -2.78125,11.6875 -2.78125,3.78125 -8.59375,3.78125 -6.890625,0 -10.953125,-4.65625 -4.046875,-4.65625 -4.046875,-12.625 V 0 h -9.03125 v 54.6875 h 9.03125 v -8.5 q 3.078125,5.03125 7.375,7.421875 Q 29.78125,56 35.6875,56 41.65625,56 45.828125,52.96875 50,49.953125 52,44.1875 Z"
             id="DejaVuSans-109" />
          <path
             d="m 56.203125,29.59375 v -4.390625 h -41.3125 q 0.59375,-9.28125 5.59375,-14.140625 5,-4.859375 13.9375,-4.859375 5.171875,0 10.03125,1.265625 4.859375,1.265625 9.65625,3.8125 v -8.5 q -4.84375,-2.046875 -9.921875,-3.125 -5.078125,-1.078125 -10.296875,-1.078125 -13.09375,0 -20.734375,7.609375 -7.640625,7.625 -7.640625,20.625 0,13.421875 7.25,21.296875 Q 20.015625,56 32.328125,56 q 11.03125,0 17.453125,-7.109375 6.421875,-7.09375 6.421875,-19.296875 z m -8.984375,2.640625 q -0.09375,7.359375 -4.125,11.75 -4.03125,4.40625 -10.671875,4.40625 -7.515625,0 -12.03125,-4.25 -4.515625,-4.25 -5.203125,-11.96875 z"
             id="DejaVuSans-101" />
          <path
             id="DejaVuSans-32"
             d="" />
          <path
             d="M 31,75.875 Q 24.46875,64.65625 21.28125,53.65625 18.109375,42.671875 18.109375,31.390625 18.109375,20.125 21.3125,9.0625 24.515625,-2 31,-13.1875 H 23.1875 Q 15.875,-1.703125 12.234375,9.375 8.59375,20.453125 8.59375,31.390625 q 0,10.890625 3.609375,21.921875 3.625,11.046875 10.984375,22.5625 z"
             id="DejaVuSans-40" />
          <path
             d="m 44.28125,53.078125 v -8.5 Q 40.484375,46.53125 36.375,47.5 q -4.09375,0.984375 -8.5,0.984375 -6.6875,0 -10.03125,-2.046875 Q 14.5,44.390625 14.5,40.28125 q 0,-3.125 2.390625,-4.90625 2.390625,-1.78125 9.625,-3.390625 l 3.078125,-0.6875 Q 39.15625,29.25 43.1875,25.515625 47.21875,21.78125 47.21875,15.09375 q 0,-7.625 -6.03125,-12.078125 -6.03125,-4.4375 -16.578125,-4.4375 -4.390625,0 -9.15625,0.859375 Q 10.6875,0.296875 5.421875,2 v 9.28125 q 4.984375,-2.59375 9.8125,-3.890625 4.828125,-1.28125 9.578125,-1.28125 6.34375,0 9.75,2.171875 3.421875,2.171875 3.421875,6.125 0,3.65625 -2.46875,5.609375 -2.453125,1.953125 -10.8125,3.765625 l -3.125,0.734375 q -8.34375,1.75 -12.0625,5.390625 -3.703125,3.640625 -3.703125,9.984375 0,7.71875 5.46875,11.90625 Q 16.75,56 26.8125,56 q 4.96875,0 9.359375,-0.734375 4.40625,-0.71875 8.109375,-2.1875 z"
             id="DejaVuSans-115" />
          <path
             d="m 8.015625,75.875 h 7.8125 q 7.3125,-11.515625 10.953125,-22.5625 3.640625,-11.03125 3.640625,-21.921875 0,-10.9375 -3.640625,-22.015625 -3.640625,-11.078125 -10.953125,-22.5625 h -7.8125 Q 14.5,-2 17.703125,9.0625 20.90625,20.125 20.90625,31.390625 q 0,11.28125 -3.203125,22.265625 -3.203125,11 -9.6875,22.21875 z"
             id="DejaVuSans-41" />
        </defs>
        <use
           xlink:href="#DejaVuSans-116"
           id="use1229" />
        <use
           x="39.208984"
           xlink:href="#DejaVuSans-105"
           id="use1231" />
        <use
           x="66.992188"
           xlink:href="#DejaVuSans-109"
           id="use1233" />
        <use
           x="164.4043"
           xlink:href="#DejaVuSans-101"
           id="use1235" />
        <use
           x="225.92773"
           xlink:href="#DejaVuSans-32"
           id="use1237" />
        <use
           x="257.71484"
           xlink:href="#DejaVuSans-40"
           id="use1239" />
        <use
           x="296.72852"
           xlink:href="#DejaVuSans-115"
           id="use1241" />
        <use
           x="348.82812"
           xlink:href="#DejaVuSans-41"
           id="use1243" />
      </g>
    </g>
  </g>
  <g
     id="matplotlib.axis_2">
    <g
       id="ytick_1">
      <g
         id="line2d_43">
        <defs
           id="defs1250">
          <path
             d="M 0,0 H -3.5"
             id="m10b4b8c0bb"
             style="stroke:#000000;stroke-width:0.8" />
        </defs>
        <g
           id="g1254">
          <use
             style="stroke:#000000;stroke-width:0.8"
             x="49.978127"
             xlink:href="#m10b4b8c0bb"
             y="108.14317"
             id="use1252" />
        </g>
      </g>
      <g
         id="text_6">
        <!-- $\mathdefault{10^{10}}$ -->
        <g
           transform="matrix(0.1,0,0,-0.1,20.878125,111.94239)"
           id="g1265">
          <use
             transform="translate(0,0.765625)"
             xlink:href="#DejaVuSans-49"
             id="use1257" />
          <use
             transform="translate(63.623047,0.765625)"
             xlink:href="#DejaVuSans-48"
             id="use1259" />
          <use
             transform="matrix(0.7,0,0,0.7,128.20312,39.046875)"
             xlink:href="#DejaVuSans-49"
             id="use1261" />
          <use
             transform="matrix(0.7,0,0,0.7,172.73926,39.046875)"
             xlink:href="#DejaVuSans-48"
             id="use1263" />
        </g>
      </g>
    </g>
    <g
       id="ytick_2">
      <g
         id="line2d_44">
        <defs
           id="defs1270">
          <path
             d="M 0,0 H -2"
             id="ma1ac31f943"
             style="stroke:#000000;stroke-width:0.6" />
        </defs>
        <g
           id="g1274">
          <use
             style="stroke:#000000;stroke-width:0.6"
             x="49.978127"
             xlink:href="#ma1ac31f943"
             y="215.47604"
             id="use1272" />
        </g>
      </g>
    </g>
    <g
       id="ytick_3">
      <g
         id="line2d_45">
        <g
           id="g1280">
          <use
             style="stroke:#000000;stroke-width:0.6"
             x="49.978127"
             xlink:href="#ma1ac31f943"
             y="188.43571"
             id="use1278" />
        </g>
      </g>
    </g>
    <g
       id="ytick_4">
      <g
         id="line2d_46">
        <g
           id="g1286">
          <use
             style="stroke:#000000;stroke-width:0.6"
             x="49.978127"
             xlink:href="#ma1ac31f943"
             y="169.25029"
             id="use1284" />
        </g>
      </g>
    </g>
    <g
       id="ytick_5">
      <g
         id="line2d_47">
        <g
           id="g1292">
          <use
             style="stroke:#000000;stroke-width:0.6"
             x="49.978127"
             xlink:href="#ma1ac31f943"
             y="154.36893"
             id="use1290" />
        </g>
      </g>
    </g>
    <g
       id="ytick_6">
      <g
         id="line2d_48">
        <g
           id="g1298">
          <use
             style="stroke:#000000;stroke-width:0.6"
             x="49.978127"
             xlink:href="#ma1ac31f943"
             y="142.20996"
             id="use1296" />
        </g>
      </g>
    </g>
    <g
       id="ytick_7">
      <g
         id="line2d_49">
        <g
           id="g1304">
          <use
             style="stroke:#000000;stroke-width:0.6"
             x="49.978127"
             xlink:href="#ma1ac31f943"
             y="131.9297"
             id="use1302" />
        </g>
      </g>
    </g>
    <g
       id="ytick_8">
      <g
         id="line2d_50">
        <g
           id="g1310">
          <use
             style="stroke:#000000;stroke-width:0.6"
             x="49.978127"
             xlink:href="#ma1ac31f943"
             y="123.02454"
             id="use1308" />
        </g>
      </g>
    </g>
    <g
       id="ytick_9">
      <g
         id="line2d_51">
        <g
           id="g1316">
          <use
             style="stroke:#000000;stroke-width:0.6"
             x="49.978127"
             xlink:href="#ma1ac31f943"
             y="115.16962"
             id="use1314" />
        </g>
      </g>
    </g>
    <g
       id="ytick_10">
      <g
         id="line2d_52">
        <g
           id="g1322">
          <use
             style="stroke:#000000;stroke-width:0.6"
             x="49.978127"
             xlink:href="#ma1ac31f943"
             y="61.917416"
             id="use1320" />
        </g>
      </g>
    </g>
    <g
       id="ytick_11">
      <g
         id="line2d_53">
        <g
           id="g1328">
          <use
             style="stroke:#000000;stroke-width:0.6"
             x="49.978127"
             xlink:href="#ma1ac31f943"
             y="34.877083"
             id="use1326" />
        </g>
      </g>
    </g>
    <g
       id="text_7">
      <!-- cost -->
      <g
         transform="matrix(0,-0.1,-0.1,0,14.798438,141.41156)"
         id="g1344">
        <defs
           id="defs1334">
          <path
             d="M 48.78125,52.59375 V 44.1875 q -3.8125,2.109375 -7.640625,3.15625 -3.828125,1.046875 -7.734375,1.046875 -8.75,0 -13.59375,-5.546875 -4.828125,-5.53125 -4.828125,-15.546875 0,-10.015625 4.828125,-15.5625 4.84375,-5.53125 13.59375,-5.53125 3.90625,0 7.734375,1.046875 3.828125,1.046875 7.640625,3.15625 v -8.3125 q -3.765625,-1.75 -7.796875,-2.625 -4.015625,-0.890625 -8.5625,-0.890625 -12.359375,0 -19.640625,7.765625 -7.265625,7.765625 -7.265625,20.953125 0,13.375 7.34375,21.03125 Q 20.21875,56 33.015625,56 q 4.140625,0 8.09375,-0.859375 3.953125,-0.84375 7.671875,-2.546875 z"
             id="DejaVuSans-99" />
          <path
             d="m 30.609375,48.390625 q -7.21875,0 -11.421875,-5.640625 -4.203125,-5.640625 -4.203125,-15.453125 0,-9.8125 4.171875,-15.453125 4.1875,-5.640625 11.453125,-5.640625 7.1875,0 11.375,5.65625 4.203125,5.671875 4.203125,15.4375 0,9.71875 -4.203125,15.40625 -4.1875,5.6875 -11.375,5.6875 z m 0,7.609375 q 11.71875,0 18.40625,-7.625 6.703125,-7.609375 6.703125,-21.078125 0,-13.421875 -6.703125,-21.078125 -6.6875,-7.640625 -18.40625,-7.640625 -11.765625,0 -18.4375,7.640625 -6.65625,7.65625 -6.65625,21.078125 0,13.46875 6.65625,21.078125 Q 18.84375,56 30.609375,56 Z"
             id="DejaVuSans-111" />
        </defs>
        <use
           xlink:href="#DejaVuSans-99"
           id="use1336" />
        <use
           x="54.980469"
           xlink:href="#DejaVuSans-111"
           id="use1338" />
        <use
           x="116.16211"
           xlink:href="#DejaVuSans-115"
           id="use1340" />
        <use
           x="168.26172"
           xlink:href="#DejaVuSans-116"
           id="use1342" />
      </g>
    </g>
  </g>
  <g
     id="line2d_54">
    <path
       clip-path="url(#p50caad4a7c)"
       d="m 238.62001,32.201761 1.65335,2.754387 0.36387,2.060514 0.45392,1.947484 0.31774,1.966235 0.41036,2.027889 0.2848,2.104061 0.37092,2.183983 0.2792,2.263264 0.30491,2.340248 0.35431,2.414297 0.26172,2.485405 0.31017,2.553644 0.33137,2.619174 0.3079,2.682258 0.39247,2.743048 0.27233,2.801747 0.39453,2.858477 0.29291,2.913432 0.28178,2.966695 0.28846,3.018177 0.28796,3.065971 0.37023,3.109836 0.28147,3.148872 0.31789,3.178046 0.32393,3.199197 0.263,3.213528 0.39374,3.22127 0.28014,3.22217 0.36478,3.21648 0.27984,3.20427 0.39715,3.18544 0.28088,3.15991 0.26542,3.12786 0.21542,3.08939 0.25992,3.04469 0.24586,2.99385 0.25312,2.93713 0.31785,2.87479 0.26986,2.80698 0.31546,2.73416 0.20886,2.65693 0.30048,2.57563 0.20717,2.49025 0.18009,2.40146 0.28393,2.31059 0.21471,2.21858 0.18227,2.12614 0.20608,2.03407 0.28749,1.9429 0.22408,1.85322 0.35455,1.76548 0.27337,1.68003 0.26265,1.59727 0.19635,1.51738 0.23787,1.44057 0.25939,1.36691 0.19359,1.29675 0.28273,1.23031 0.19025,1.16767 0.22752,1.10894 0.20059,1.05405 0.24683,1.00293 0.29831,0.95552 0.17704,0.91163 0.16949,0.87111 0.23959,0.83372 0.17516,0.79932 0.30303,0.76765 0.19672,0.73852 0.30814,0.71173 0.21048,0.68704 0.27858,0.66432 0.22424,0.64335 0.18687,0.624 0.23486,0.60423 0.21104,0.58832 0.2368,0.57298 0.19338,0.55844 0.27065,0.544 0.16949,0.53269 0.19425,0.51744 0.1771,0.50673 0.21838,0.49754 0.21037,0.48688 0.24628,0.47636 0.22848,0.46704 0.20654,0.45872 0.28268,0.44793 0.1859,0.44072 0.20468,0.43127 0.20272,0.42346 0.19556,0.41566 0.21661,0.40823 0.16056,0.40229 0.21607,0.39418 0.13446,0.38976 0.1666,0.38106 0.17458,0.3775 0.15686,0.36857"
       style="fill:none;stroke:#1f77b4;stroke-width:1.5;stroke-linecap:square"
       id="path1348" />
  </g>
  <g
     id="line2d_55">
    <path
       clip-path="url(#p50caad4a7c)"
       d="m 76.862223,32.201761 35.475137,7.002713 15.48926,7.146185 10.34583,7.28812 7.37282,7.427513 7.17977,7.563168 6.7465,1.5e-5 4.77939,8e-6 3.48722,1.5e-5 4.00788,7e-6 3.42664,2.3e-5 2.71224,1.5e-5 1.95252,2.3e-5 1.6896,1.5e-5 1.78859,2.2e-5 1.52865,2.3e-5 2.01384,3e-5 1.69066,2.3e-5 2.01912,2.3e-5 1.38109,2.2e-5 1.52579,3e-5 1.34465,3.1e-5 1.48112,3e-5 1.75961,3e-5 1.67729,3e-5 1.62978,3.8e-5 1.00554,2.3e-5 0.96672,3.7e-5 1.27896,3.1e-5 1.30131,3.7e-5 1.02079,3.8e-5 0.88982,3.8e-5 0.89826,3.8e-5 0.99042,3.7e-5 0.94905,4.6e-5 0.89021,3e-5 0.9504,4.5e-5 0.81236,3.8e-5 0.82363,4.5e-5 0.92867,3.8e-5 0.89342,4.5e-5 0.74228,4.6e-5 0.8915,4.5e-5 0.79117,4.5e-5 0.76977,4.6e-5 0.81317,4.5e-5 0.64197,4.5e-5 0.73316,4.6e-5 0.84472,4.5e-5 0.68709,5.3e-5 0.7182,5.3e-5 0.52342,4.5e-5 0.62915,5.3e-5 0.54661,5.3e-5 0.4666,4.5e-5 0.68268,5.3e-5 0.4542,6e-5 0.57857,4.6e-5 0.53713,6e-5 0.40609,4.5e-5 0.4024,6.1e-5 0.55858,4.5e-5 0.53871,6.1e-5 0.55978,5.2e-5 0.51876,6.1e-5 0.5936,6e-5 0.61948,5.3e-5 0.42986,6.1e-5 0.61539,6e-5 0.46819,5.3e-5 0.51643,6e-5 0.56903,6.1e-5 0.47792,6e-5 0.33562,6e-5 0.61647,6.1e-5 0.3736,6.8e-5 0.39716,6e-5 0.46233,6.1e-5 0.43596,6e-5 0.50818,6.1e-5 0.37887,6.8e-5 0.39421,6.7e-5 0.34381,6.8e-5 0.36565,6.1e-5 0.32157,6.8e-5 0.32237,6e-5 0.41833,6.8e-5 0.33758,6.8e-5 0.32949,6.8e-5 0.38056,6.1e-5 0.38048,6.8e-5 0.38306,7.5e-5 0.34657,6.8e-5 0.41683,6.8e-5 0.41637,7.6e-5 0.31604,6.8e-5 0.24047,6.8e-5 0.27467,6.8e-5 0.33161,7.5e-5 0.32224,6.8e-5"
       style="fill:none;stroke:#ff7f0e;stroke-width:1.5;stroke-linecap:square"
       id="path1351" />
  </g>
  <g
     id="line2d_56">
    <path
       clip-path="url(#p50caad4a7c)"
       d="m 87.313255,32.201761 29.789115,28.813261 15.89791,35.882416 7.32692,42.569472 7.90475,34.62527 4.86271,-1.8179 4.0483,-21.85492 4.55595,-15.98382 3.25626,-5.06628 3.11182,4.03984 3.50361,10.91409 2.75063,15.66959 3.10008,17.72545 2.18517,16.1875 1.96726,10.67383 2.44519,2.97375 2.24754,-3.06389 2.53056,-5.14199 1.88049,-3.97269 2.11881,-1.82663 1.67001,0.86526 1.67472,2.98693 1.35019,4.37643 1.3374,4.79526 1.47445,4.1503 1.27068,2.66635 1.24497,0.91985 1.17809,-0.44402 1.36369,-0.99666 0.85218,-0.72956 1.29221,0.0174 0.89799,0.94848 1.07387,1.73622 1.04996,2.19118 1.21702,2.17298 0.7491,1.78841 1.10888,1.19569 0.73147,0.64231 0.6877,0.24258 0.76752,0.0705 0.58426,0.11883 0.6552,0.29923 0.74594,0.49925 0.69174,0.63136 1.02802,0.62647 0.77608,0.48844 0.74038,0.27394 0.70225,0.072 0.7124,-0.0403 0.58188,-0.0252 0.5744,0.0882 0.52874,0.23631 0.5581,0.35532 0.73996,0.3921 0.68582,0.34986 0.48571,0.26717 0.50018,0.17754 0.61414,0.0967 0.86129,0.0505 0.64649,0.0393 0.64166,0.0523 0.68033,0.0795 0.60243,0.10529 0.51928,0.11592 0.40097,0.1089 0.59442,0.0875 0.51136,0.0641 0.5593,0.0453 0.48874,0.0372 0.52793,0.0448 0.33608,0.0623 0.32181,0.0741 0.39824,0.069 0.37575,0.0626 0.35763,0.0553 0.34231,0.049 0.3524,0.041 0.35993,0.0302 0.35306,0.0287 0.32104,0.0288 0.38707,0.0335 0.42651,0.0289 0.37516,0.0301 0.38603,0.0266 0.36827,0.0283 0.35721,0.0247 0.43845,0.0229 0.3956,0.0268 0.88375,0.0299 0.36646,0.0186 0.49677,0.0233 0.42075,0.0241 0.49771,0.0162 0.36371,0.0131 0.45154,0.013 0.2886,0.0162 0.25815,0.0106 0.35728,0.0118 0.37127,0.0122 0.30776,0.0168"
       style="fill:none;stroke:#2ca02c;stroke-width:1.5;stroke-linecap:square"
       id="path1354" />
  </g>
  <g
     id="line2d_57">
    <path
       clip-path="url(#p50caad4a7c)"
       d="m 81.479332,32.201761 32.589458,0.824069 13.31008,0.848124 8.39854,0.864769 8.45046,0.877749 5.51208,0.88858 4.58954,0.897988 4.68352,0.906415 3.9704,0.914104 3.39716,0.921229 3.38286,0.927934 3.26675,0.934284 3.40572,0.940364 2.73682,0.946195 2.7282,0.951866 2.11056,0.957367 2.31186,0.962742 2.59843,0.967999 1.78795,0.973181 1.82068,0.978275 1.24817,0.98332 1.28976,0.98831 1.49006,0.993245 1.31971,0.998175 1.54913,1.003053 1.0159,1.007924 1.10225,1.012773 1.52943,1.017623 1.29253,1.022462 1.16296,1.027318 0.89001,1.032146 0.85717,1.037006 1.33976,1.041882 1.13667,1.046746 1.27832,1.051638 0.72729,1.056564 0.93956,1.061474 0.84665,1.066437 0.85081,1.071412 0.98327,1.07641 0.89464,1.08144 1.10014,1.086498 0.76998,1.091581 0.8568,1.0967 0.75025,1.101846 0.70464,1.107042 0.652,1.112242 0.62394,1.117504 0.5645,1.122796 0.65418,1.128034 0.50078,1.133043 0.86189,1.137865 0.56455,1.142591 0.67856,1.14725 0.57901,1.151858 0.58193,1.15639 0.54354,1.160666 0.42719,1.164287 0.49685,1.167248 0.60462,1.169843 0.43314,1.172147 0.37419,1.174122 0.48244,1.175835 0.6036,1.177283 1.31662,1.178522 0.53072,1.17951 0.509,1.180264 0.43677,1.18078 0.69104,1.18104 0.4657,1.18103 0.45027,1.1808 0.41478,1.18037 0.39855,1.17971 0.48958,1.17881 0.57697,1.17771 0.53382,1.17638 0.42626,1.17482 0.46976,1.17305 0.29632,1.17104 0.4452,1.1688 0.43288,1.16634 0.31612,1.16367 0.50468,1.16077 0.40612,1.15764 0.38989,1.15428 0.46619,1.15071 0.40981,1.14694 0.5891,1.14294 0.43792,1.13873 0.45062,1.13428 0.40273,1.12962 0.3715,1.12472 0.37196,1.1196 0.43223,1.11426 0.36819,1.10869 0.44542,1.10289 0.4136,1.09689 0.39973,1.09064 0.40567,1.08416 0.37008,1.07743"
       style="fill:none;stroke:#d62728;stroke-width:1.5;stroke-linecap:square"
       id="path1357" />
  </g>
  <g
     id="line2d_58">
    <path
       clip-path="url(#p50caad4a7c)"
       d="m 77.998891,32.201761 47.317289,28.813261 13.70188,32.165368 8.03992,34.42595 7.16562,30.96522 4.7296,18.45103 4.2212,1.8796 3.72173,-7.01732 3.28877,-7.58783 3.06275,-4.81138 2.43813,-1.11884 2.16794,2.29696 2.69619,5.02359 2.24978,6.92579 2.10894,7.94333 2.91662,7.98265 2.32397,7.31029 1.7095,6.1048 1.29802,4.56338 1.55328,3.034 1.18234,1.68437 1.3032,0.66835 1.26995,0.0676 1.26114,-0.20134 1.14931,-0.20704 1.46274,-0.007 1.04223,0.2508 1.16072,0.52546 0.82668,0.76423 0.98015,0.93758 1.37076,1.04191 0.76171,1.07161 0.85775,1.03715 0.90721,0.95482 0.84862,0.84385 0.76157,0.72313 0.85236,0.60982 0.71635,0.51619 0.89081,0.4486 0.75841,0.407 0.7587,0.38403 0.94129,0.3732 0.74929,0.37375 0.80928,0.35079 0.75199,0.35764 0.84345,0.35248 0.5341,0.3335 0.60804,0.3109 0.89026,0.27433 0.59527,0.24147 0.64013,0.21206 0.54397,0.18783 0.66135,0.16547 0.42031,0.14433 0.46565,0.12695 0.63543,0.11663 0.52421,0.11179 0.74143,0.10631 0.41106,0.10334 0.38491,0.10496 0.54197,0.10659 0.42486,0.10733 0.43243,0.10603 0.37806,0.10475 0.38546,0.10077 0.43385,0.0962 0.48571,0.0889 0.42416,0.0825 0.47872,0.0738 0.41722,0.0663 0.56882,0.0631 0.50011,0.0608 0.3555,0.0594 0.44484,0.0557 0.43524,0.0492 0.32722,0.0501 0.41614,0.0485 0.43178,0.0511 0.42784,0.051 0.39133,0.0497 0.33814,0.0463 0.50179,0.0454 0.28193,0.0471 0.35243,0.0453 0.37609,0.0389 0.28939,0.0368 0.30018,0.0365 0.45309,0.0364 0.30011,0.0342 0.41414,0.0331 0.41219,0.0313 0.28008,0.0319 0.45613,0.0295 0.27142,0.0259 0.51457,0.0268 0.26832,0.0281 0.29808,0.0274 0.29676,0.0257 0.32276,0.0263 0.42555,0.0258"
       style="fill:none;stroke:#9467bd;stroke-width:1.5;stroke-linecap:square"
       id="path1360" />
  </g>
  <g
     id="line2d_59">
    <path
       clip-path="url(#p50caad4a7c)"
       d="m 74.457002,32.201761 38.786888,7.002713 13.054,6.952171 9.15395,6.898334 8.96862,6.841043 7.55168,6.7801 5.49617,6.715411 5.30339,6.646525 4.70629,6.563333 3.11239,6.436446 3.51385,6.267936 2.22847,6.067497 2.84766,5.83977 2.01399,5.59174 2.78739,5.32969 2.03986,5.05822 1.92434,4.78107 1.46362,4.50175 1.80852,4.22415 1.22628,3.95195 1.74992,3.6884 0.90925,3.43591 0.87507,3.19578 1.18537,2.96812 1.1458,2.75422 1.43614,2.55483 1.14879,2.37029 1.39923,2.20036 1.08294,2.04443 1.22393,1.90198 0.76728,1.77215 0.77927,1.6541 0.81142,1.5469 0.76206,1.44957 0.76037,1.36128 1.03286,1.28119 0.64404,1.20846 0.88128,1.14229 0.75007,1.082 0.72186,1.02699 0.73567,0.97667 0.82984,0.93058 0.78626,0.88833 0.79241,0.84958 0.56347,0.81401 0.82435,0.78127 0.8352,0.75101 0.72915,0.72294 0.79941,0.69678 0.65995,0.67231 0.6263,0.64937 0.72735,0.62784 0.5748,0.60763 0.5666,0.58857 0.73969,0.57056 0.62892,0.55355 0.78384,0.53736 0.61,0.52198 0.58525,0.50736 0.5682,0.49343 0.60464,0.48009 0.59777,0.46734 0.54371,0.45514 0.51929,0.44347 0.54491,0.43229 0.5446,0.42153 0.51449,0.41122 0.43453,0.40127 0.53302,0.39176 0.44354,0.38255 0.54327,0.37367 0.49462,0.36508 0.54784,0.35679 0.54447,0.34877 0.65296,0.341 0.32769,0.33347 0.46137,0.32601 0.6477,0.31884 0.33705,0.31212 0.34801,0.30536 0.46118,0.29903 0.36706,0.29269 0.32381,0.28672 0.45999,0.28074 0.39672,0.2751 0.49518,0.26943 0.31061,0.26411 0.4253,0.25873 0.37966,0.25374 0.40041,0.24863 0.49652,0.2439 0.29271,0.23908 0.29542,0.23464 0.31821,0.23004 0.26764,0.22582 0.26035,0.22148 0.43788,0.2173 0.40913,0.21325 0.3407,0.20938 0.37429,0.20553"
       style="fill:none;stroke:#8c564b;stroke-width:1.5;stroke-linecap:square"
       id="path1363" />
  </g>
  <g
     id="line2d_60">
    <path
       clip-path="url(#p50caad4a7c)"
       d="m 67.12137,32.201761 47.31438,3.1e-5 15.26539,92.446288 12.51655,46.46851 8.5781,17.19404 6.01985,11.78099 6.30404,9.60634 5.10729,7.15459 4.57886,4.9417 3.56614,2.67434 4.06704,0.98319 2.86235,1.12741 2.39022,0.83906 2.15363,0.48649 2.29807,0.33404 2.37877,0.2453 2.61979,0.17964 1.61233,0.16311 2.2125,0.10677 2.26178,0.11346 1.25358,0.0738 1.62849,0.0557 1.90891,0.0533 1.9803,0.0461 1.5718,0.0373 1.38681,0.0307 1.63887,0.0289 1.39269,0.035 1.19728,0.0306 1.1936,0.02 1.24008,0.0329 1.17986,0.0291 1.02888,0.0146 1.0591,0.0191 1.07813,0.0172 1.07039,0.0139 0.80251,0.0132 0.91935,0.0129 0.74921,0.0152 1.13589,0.0133 1.11453,0.009 1.05692,0.0167 0.89661,0.006 1.1842,0.006 0.77666,0.007 1.19136,0.008 1.21096,0.007 1.18345,0.006 0.86122,0.006 0.77779,0.008 0.83221,0.007 0.81892,0.005 0.62139,0.005 0.64333,0.003 0.67412,0.004 0.93284,0.004 0.81881,0.005 0.79173,0.006 0.67351,0.005 0.81248,0.004 0.74946,0.003 0.76682,0.003 0.77108,0.004 0.68439,0.003 0.7633,0.003 0.76176,0.004 0.63828,0.003 0.62922,0.005 0.62146,0.003 0.64008,0.003 0.60191,-0.003 0.62117,0.005 0.62627,0.003 0.59749,0.005 0.55531,0.005 0.54673,0.003 0.60974,0.005 0.58471,0.003 0.56641,0.002 0.4584,0.002 0.44815,0.002 0.46205,0.002 0.49995,0.002 0.41438,0.003 0.62549,0.002 0.61047,0.002 0.58987,8e-4 0.50529,0.002 0.50473,0.002 0.57123,0.002 0.62293,-0.003 0.57544,0.005 0.56356,0.006 0.48455,10e-4 0.42888,0.003 0.44786,0.003 0.41916,0.002 0.44277,0.002 0.5529,0.002 0.51784,0.002"
       style="fill:none;stroke:#e377c2;stroke-width:1.5;stroke-linecap:square"
       id="path1366" />
  </g>
  <g
     id="line2d_61">
    <path
       clip-path="url(#p50caad4a7c)"
       d="m 65.196307,32.201761 50.002523,28.813261 11.64833,21.725148 10.93648,18.66298 7.98749,16.07972 6.81304,13.65433 6.46813,11.48656 4.44515,9.56902 4.69493,7.89744 3.52843,6.49494 3.59265,5.36125 2.20392,4.45636 2.00781,3.73821 2.68624,3.17295 2.25045,2.73166 2.65041,2.3868 1.82667,2.11145 1.7086,1.89526 1.8235,1.7174 1.52349,1.56587 1.79943,1.44951 1.18017,1.33148 1.21617,1.24963 1.52223,1.15915 1.33079,1.10132 1.49152,1.02522 1.21202,0.97504 1.06587,0.91624 1.09581,0.8755 1.07233,0.82634 1.14312,0.79212 1.3033,0.7495 0.78533,0.72011 0.80834,0.68133 0.94198,0.65551 0.64822,0.61986 0.79685,0.60013 0.82033,0.56817 0.6607,0.54876 1.23192,0.52055 0.79454,0.50458 0.94634,0.47815 0.64801,0.46514 0.54234,0.4411 0.72945,0.43025 0.62504,0.4065 0.73952,0.39864 0.5769,0.37672 0.7474,0.36996 0.59091,0.35015 0.69941,0.34421 0.45423,0.32609 0.54517,0.32074 0.57761,0.30413 0.50735,0.29943 0.61807,0.28412 0.53156,0.27992 0.42923,0.26586 0.59609,0.262 0.634,0.24911 0.50864,0.24564 0.5156,0.23385 0.72348,0.23058 0.65213,0.21949 0.5917,0.21653 0.54569,0.20624 0.51086,0.20399 0.4097,0.19387 0.62878,0.19189 0.38498,0.18282 0.54484,0.18111 0.55873,0.17272 0.56391,0.17113 0.40728,0.16339 0.61571,0.16182 0.34825,0.15464 0.43936,0.15323 0.39029,0.14657 0.37475,0.14523 0.47883,0.139 0.39199,0.1371 0.43461,0.13128 0.3995,0.13003 0.48164,0.12464 0.4797,0.12336 0.48081,0.11835 0.40077,0.11704 0.45953,0.1123 0.34568,0.11098 0.34889,0.10648 0.40079,0.10514 0.31682,0.10089 0.41236,0.0996 0.26447,0.0956 0.38562,0.0943 0.33312,0.0905 0.26318,0.0891 0.3663,0.0856 0.2828,0.0843 0.32155,0.0809"
       style="fill:none;stroke:#7f7f7f;stroke-width:1.5;stroke-linecap:square"
       id="path1369" />
  </g>
  <g
     id="line2d_62">
    <path
       clip-path="url(#p50caad4a7c)"
       d="m 83.138097,32.201761 42.539133,2.623139 11.38966,2.674571 7.37084,2.728007 7.19042,2.783571 6.05413,2.841366 4.0597,2.901562 5.21811,2.964272 3.05989,3.029673 4.4549,3.097905 2.95499,3.169195 3.36443,3.243706 2.60887,3.321655 2.77572,3.403297 1.71897,3.488867 2.31581,3.578638 2.27564,3.672723 1.49729,3.769007 1.35564,3.86741 1.94739,3.963508 1.43373,4.055011 1.11235,4.143646 1.04329,4.22888 1.01039,4.30954 1.21948,4.38459 1.10445,4.45201 1.04401,4.50941 1.49318,4.5541 1.17511,4.58285 1.34605,4.59185 0.98229,4.57689 0.95239,4.53271 1.0363,4.45127 1.17194,4.32842 0.96456,4.16338 1.16614,3.95712 1.22165,3.72217 0.92439,3.46173 0.85423,3.20103 1.06843,2.96428 0.67559,2.76982 0.772,2.64233 0.82723,2.55684 0.83102,2.48655 0.7848,2.4225 0.56553,2.35931 0.63167,2.28872 0.57814,2.20478 0.53514,2.11454 0.6718,2.01937 0.62283,1.9204 0.71652,1.8134 0.65105,1.70359 0.51118,1.59638 0.68301,1.49819 0.56629,1.41099 0.59919,1.32957 0.41731,1.25033 0.62259,1.17639 0.48458,1.10218 0.35742,1.03405 0.49821,0.9647 0.43112,0.90522 0.559,0.85158 0.46066,0.79726 0.58372,0.74462 0.40315,0.70298 0.3305,0.65839 0.50565,0.61749 0.40872,0.57751 0.38651,0.54298 0.3775,0.50783 0.46004,0.47728 0.55118,0.44506 0.30231,0.41835 0.54504,0.3922 0.36801,0.36709 0.34621,0.33524 0.42889,0.31299 0.37528,0.29056 0.50084,0.26272 0.29511,0.23778 0.26684,0.22005 0.39183,0.1986 0.37056,0.17793 0.42123,0.16705 0.38775,0.14856 0.32582,0.13805 0.42532,0.12564 0.36323,0.1147 0.43092,0.10345 0.39041,0.0957 0.32856,0.0843 0.3387,0.0783 0.39621,0.0709 0.31653,0.0659 0.3887,0.0592 0.24354,0.0552 0.34367,0.0505 0.39454,0.0473"
       style="fill:none;stroke:#bcbd22;stroke-width:1.5;stroke-linecap:square"
       id="path1372" />
  </g>
  <g
     id="line2d_63">
    <path
       clip-path="url(#p50caad4a7c)"
       d="m 204.63718,75.853511 20.61403,13.253167 13.37007,14.316982 9.91855,15.25935 8.7021,15.90349 5.21016,15.94415 5.27971,15.01214 3.9736,13.03036 3.78836,10.81912 3.2468,9.20661 3.71877,7.84306 2.86703,6.4465 2.97134,5.04044 2.32374,3.78425 2.06963,0.80786 1.98013,0.74212 1.71091,0.1779 1.3938,0.16845 1.61831,0.16909 1.55047,0.15987 1.58934,0.1606 1.77,0.15293 1.33219,0.1537 1.4132,0.14638 1.15482,0.14697 1.26546,0.13963 1.10138,0.14031 1.01456,0.13346 0.89686,0.13416 0.91589,0.12758 1.0288,0.12815 0.89459,0.12134 0.73161,0.12243 0.77719,0.11588 0.92813,0.11694 0.79151,0.11064 0.83739,0.11164 0.72215,0.10565 0.74654,0.10519 0.77622,0.0979 0.71048,0.0998 0.90086,0.0931 0.75607,0.0944 0.76193,0.0879 0.77498,0.0894 0.70507,0.0836 0.72831,0.0849 0.61384,0.0794 0.70692,0.0803 0.63235,0.0749 0.68796,0.0756 0.62362,0.0709 0.63027,0.0702 0.54339,0.067 0.49729,0.0661 0.48721,0.062 0.47955,0.0604 0.49279,0.0566 0.55382,0.0568 0.50922,0.0532 0.47161,0.0535 0.49964,0.0502 0.48976,0.0501 0.46033,0.0471 0.48243,0.047 0.48522,0.0443 0.41419,0.0441 0.47902,0.0407 0.52068,0.0411 0.4119,0.0381 0.40912,0.0383 0.38487,0.0357 0.43502,0.0357 0.45554,0.0327 0.41063,0.033 0.37233,0.0302 0.3498,0.0305 0.3636,0.0273 0.40905,0.028 0.45294,0.0254 0.36525,0.0262 0.34764,0.0238 0.46794,0.0244 0.37019,0.0222 0.41788,0.0229 0.39136,0.0207 0.33324,0.0213 0.32799,0.0193 0.35147,0.02 0.29673,0.018 0.31334,0.0187 0.33981,0.0161 0.35848,0.0175 0.30906,0.0152 0.31613,0.0165 0.28047,0.0143 0.30241,0.0157 0.29173,0.0136 0.29303,0.0148 0.33785,0.0128"
       style="fill:none;stroke:#17becf;stroke-width:1.5;stroke-dasharray:5.55, 2.4;stroke-dashoffset:0"
       id="path1375" />
  </g>
  <g
     id="line2d_64">
    <path
       clip-path="url(#p50caad4a7c)"
       d="m 185.38837,152.46971 19.5885,34.51816 12.29552,14.45656 8.07595,7.37831 7.59031,7.63571 4.83577,3.50201 5.3334,2.11762 3.83155,1.41423 3.33045,0.88709 2.73079,0.62633 2.5678,1.28081 2.23497,0.48379 2.82369,0.60658 2.14553,0.27643 2.1289,0.13783 1.78652,0.15452 1.74139,0.15144 1.7867,0.11094 1.53411,0.0805 1.57445,0.0898 1.29057,0.0562 1.33947,0.0311 1.32628,0.0286 1.21801,0.0457 1.12275,0.0273 1.09044,0.0423 1.0624,0.0249 1.03145,0.0387 1.0014,0.0277 0.74037,0.0182 0.60593,0.0121 0.60238,0.006 0.43717,0.009 0.42743,0.006 0.74784,0.009 0.75495,0.006 0.75485,0.008 0.70702,0.006 0.75905,0.005 0.62733,0.003 0.62363,0.0107 0.67154,0.003 0.63377,0.0104 0.70678,0.003 0.6133,0.0102 0.58835,0.003 0.58758,0.01 0.65202,0.003 0.57949,0.01 0.52809,0.005 0.4365,0.003 0.4347,0.002 0.41841,0.001 42.65931,2.9e-4 0.10626,0.003 0.11115,7.4e-4 0.098,0.001 0.10851,0.002 0.10176,0.001 0.10737,0.002 0.10363,0.001 0.0846,0.002 0.0834,0.001 0.0878,0.002 0.0905,0.001 0.097,0.002 0.11109,0.001 0.1391,0.002 0.13219,0.001 0.12216,0.002 0.12288,0.001 0.10876,0.002 0.10504,0.001 0.11507,0.002 0.11685,0.001 0.10869,0.002 0.0811,0.001 0.0844,0.002 0.0825,0.001 0.0832,0.002 0.0837,0.001 0.11265,0.002 0.0988,0.001 0.11114,0.002 0.0976,0.001 0.0984,0.002 0.13348,9.9e-4 0.10353,0.002 0.097,0.001 0.0883,0.002 0.10098,9.7e-4 0.12315,0.002 0.0978,0.002 0.0574,4.6e-4 0.0532,2.3e-4 0.0493,4.5e-4 0.0492,2.1e-4 0.0482,4.6e-4 0.0495,2.2e-4 0.0601,4.4e-4"
       style="fill:none;stroke:#1f77b4;stroke-width:1.5;stroke-dasharray:5.55, 2.4;stroke-dashoffset:0"
       id="path1378" />
  </g>
  <g
     id="line2d_65">
    <path
       clip-path="url(#p50caad4a7c)"
       d="m 295.95053,152.46334 23.07904,33.12051 13.7838,30.91707 8.74198,8.41657 6.82815,2.35838 5.67832,0.58776 4.69039,0.48269 3.73807,0.25109 3.73508,0.11492 3.33458,0.016"
       style="fill:none;stroke:#ff7f0e;stroke-width:1.5;stroke-dasharray:5.55, 2.4;stroke-dashoffset:0"
       id="path1381" />
  </g>
  <g
     id="line2d_66">
    <path
       clip-path="url(#p50caad4a7c)"
       d="m 115.67628,32.201761 h 15.77511 10.60104 8.09288 6.43579 5.38063 4.57194 4.2005 3.6429 4.94989 3.10854 3.23025 3.22699 2.22246 2.6667 2.89119 2.55026 2.30841 2.11395 2.04761 1.92286 1.85151 1.73066 1.64662 1.38534 1.7386 1.33864 1.13378 1.03544 1.04261 1.00256 0.95066 0.88678 0.84634 0.91663 0.8162 0.78639 0.76898 0.72585 0.72127 0.73221 0.8287 0.65165 0.63572 0.61812 0.60393 0.59915 0.58393 0.58245 0.57382 0.56711 0.57111 0.53631 0.58408 0.53192 0.57913 0.65669 0.57434 0.48997 0.46409 0.45822 0.45136 0.44441 0.43667 0.44014 0.4296 0.42175 0.41347 0.48606 0.48727 0.49675 0.49537 0.50299 0.50729 0.4457 0.49383 0.53984 0.67752 0.48783 0.41262 0.49379 0.47112 0.47345 0.46083 0.45693 0.47426 0.45437 0.41947 0.39103 0.36296 0.34977 0.34173 0.3318 0.32437 0.32145 0.31252 0.30553 0.30841 0.35557 0.40239"
       style="fill:none;stroke:#2ca02c;stroke-width:1.5;stroke-dasharray:5.55, 2.4;stroke-dashoffset:0"
       id="path1384" />
  </g>
  <g
     id="patch_3">
    <path
       d="M 49.978125,239.75812 V 22.318125"
       style="fill:none;stroke:#000000;stroke-width:0.8;stroke-linecap:square;stroke-linejoin:miter"
       id="path1387" />
  </g>
  <g
     id="patch_4">
    <path
       d="M 384.77812,239.75812 V 22.318125"
       style="fill:none;stroke:#000000;stroke-width:0.8;stroke-linecap:square;stroke-linejoin:miter"
       id="path1390" />
  </g>
  <g
     id="patch_5">
    <path
       d="M 49.978125,239.75812 H 384.77812"
       style="fill:none;stroke:#000000;stroke-width:0.8;stroke-linecap:square;stroke-linejoin:miter"
       id="path1393" />
  </g>
  <g
     id="patch_6">
    <path
       d="M 49.978125,22.318125 H 384.77812"
       style="fill:none;stroke:#000000;stroke-width:0.8;stroke-linecap:square;stroke-linejoin:miter"
       id="path1396" />
  </g>
  <defs
     id="defs1709">
    <clipPath
       id="p50caad4a7c">
      <rect
         height="217.44"
         width="334.79999"
         x="49.978127"
         y="22.318125"
         id="rect1706" />
    </clipPath>
  </defs>
</svg>
