<?xml version="1.0" encoding="UTF-8" standalone="no"?>
<!-- Created with Inkscape (http://www.inkscape.org/) -->

<svg
   width="35mm"
   height="80mm"
   viewBox="0 0 35 80"
   version="1.1"
   id="svg1"
   inkscape:version="1.3.2 (091e20e, 2023-11-25, custom)"
   sodipodi:docname="legend.svg"
   xmlns:inkscape="http://www.inkscape.org/namespaces/inkscape"
   xmlns:sodipodi="http://sodipodi.sourceforge.net/DTD/sodipodi-0.dtd"
   xmlns:xlink="http://www.w3.org/1999/xlink"
   xmlns="http://www.w3.org/2000/svg"
   xmlns:svg="http://www.w3.org/2000/svg">
  <sodipodi:namedview
     id="namedview1"
     pagecolor="#ffffff"
     bordercolor="#000000"
     borderopacity="0.25"
     inkscape:showpageshadow="2"
     inkscape:pageopacity="0.0"
     inkscape:pagecheckerboard="0"
     inkscape:deskcolor="#d1d1d1"
     inkscape:document-units="mm"
     inkscape:zoom="1.0242632"
     inkscape:cx="109.83505"
     inkscape:cy="104.95349"
     inkscape:window-width="1920"
     inkscape:window-height="1009"
     inkscape:window-x="3832"
     inkscape:window-y="-8"
     inkscape:window-maximized="1"
     inkscape:current-layer="layer1" />
  <defs
     id="defs1">
    <path
       d="M 9.8125,72.90625 H 23.09375 L 55.421875,11.921875 V 72.90625 h 9.5625 V 0 h -13.28125 l -32.3125,60.984375 V 0 H 9.8125 Z"
       id="DejaVuSans-78" />
    <path
       d="M 34.1875,63.1875 20.796875,26.90625 h 26.8125 z m -5.578125,9.71875 h 11.1875 L 67.578125,0 h -10.25 L 50.6875,18.703125 H 17.828125 L 11.1875,0 H 0.78125 Z"
       id="DejaVuSans-65" />
    <path
       d="m 45.40625,46.390625 v 29.59375 h 8.984375 V 0 H 45.40625 v 8.203125 q -2.828125,-4.875 -7.15625,-7.25 -4.3125,-2.375 -10.375,-2.375 -9.90625,0 -16.140625,7.90625 -6.21875,7.921875 -6.21875,20.8125 0,12.890625 6.21875,20.796875 Q 17.96875,56 27.875,56 q 6.0625,0 10.375,-2.375 4.328125,-2.359375 7.15625,-7.234375 z M 14.796875,27.296875 q 0,-9.90625 4.078125,-15.546875 4.078125,-5.640625 11.203125,-5.640625 7.125,0 11.21875,5.640625 4.109375,5.640625 4.109375,15.546875 0,9.90625 -4.109375,15.546875 -4.09375,5.640625 -11.21875,5.640625 -7.125,0 -11.203125,-5.640625 -4.078125,-5.640625 -4.078125,-15.546875 z"
       id="DejaVuSans-100" />
    <path
       d="m 44.390625,34.1875 q 3.171875,-1.078125 6.171875,-4.59375 3,-3.515625 6.03125,-9.671875 L 66.609375,0 H 56 l -9.3125,18.703125 q -3.625,7.328125 -7.015625,9.71875 -3.390625,2.390625 -9.25,2.390625 h -10.75 V 0 H 9.8125 v 72.90625 h 22.265625 q 12.5,0 18.65625,-5.234375 6.15625,-5.21875 6.15625,-15.765625 0,-6.890625 -3.203125,-11.4375 -3.203125,-4.53125 -9.296875,-6.28125 z m -24.71875,30.609375 v -25.875 h 12.40625 q 7.125,0 10.765625,3.296875 3.640625,3.296875 3.640625,9.6875 0,6.390625 -3.640625,9.640625 -3.640625,3.25 -10.765625,3.25 z"
       id="DejaVuSans-82" />
    <path
       d="M 9.421875,75.984375 H 18.40625 V 0 H 9.421875 Z"
       id="DejaVuSans-108" />
    <path
       d="M 54.890625,54.6875 35.109375,28.078125 55.90625,0 H 45.3125 L 29.390625,21.484375 13.484375,0 H 2.875 L 24.125,28.609375 4.6875,54.6875 h 10.59375 l 14.5,-19.484375 14.5,19.484375 z"
       id="DejaVuSans-120" />
    <path
       d="m 53.515625,70.515625 v -9.625 q -5.609375,2.6875 -10.59375,4 -4.984375,1.328125 -9.625,1.328125 -8.046875,0 -12.421875,-3.125 -4.375,-3.125 -4.375,-8.890625 0,-4.84375 2.90625,-7.3125 2.90625,-2.453125 11.015625,-3.96875 L 36.375,41.703125 Q 47.40625,39.59375 52.65625,34.296875 57.90625,29 57.90625,20.125 q 0,-10.609375 -7.109375,-16.078125 -7.09375,-5.46875 -20.8125,-5.46875 -5.171875,0 -11.015625,1.171875 Q 13.140625,0.921875 6.890625,3.21875 V 13.375 q 6,-3.359375 11.765625,-5.078125 5.765625,-1.703125 11.328125,-1.703125 8.4375,0 13.03125,3.3125 4.59375,3.328125 4.59375,9.484375 0,5.359375 -3.296875,8.390625 Q 41.015625,30.8125 33.5,32.328125 L 27.484375,33.5 q -11.03125,2.1875 -15.96875,6.875 -4.921875,4.6875 -4.921875,13.046875 0,9.671875 6.8125,15.234375 6.8125,5.5625 18.765625,5.5625 5.140625,0 10.453125,-0.9375 5.328125,-0.921875 10.890625,-2.765625 z"
       id="DejaVuSans-83" />
    <path
       d="M 59.515625,10.40625 V 29.984375 H 43.40625 v 8.109375 h 25.875 V 6.78125 Q 63.578125,2.734375 56.6875,0.65625 49.8125,-1.421875 42,-1.421875 q -17.09375,0 -26.75,9.984375 -9.640625,10 -9.640625,27.8125 0,17.875 9.640625,27.859375 9.65625,9.984375 26.75,9.984375 7.125,0 13.546875,-1.765625 6.421875,-1.75 11.84375,-5.171875 v -10.5 q -5.46875,4.640625 -11.625,6.984375 -6.15625,2.34375 -12.9375,2.34375 -13.390625,0 -20.109375,-7.46875 -6.703125,-7.46875 -6.703125,-22.265625 0,-14.75 6.703125,-22.21875 6.71875,-7.46875 20.109375,-7.46875 5.21875,0 9.3125,0.90625 4.109375,0.90625 7.375,2.8125 z"
       id="DejaVuSans-71" />
    <path
       d="M 19.671875,64.796875 V 8.109375 H 31.59375 q 15.09375,0 22.09375,6.828125 7,6.84375 7,21.59375 0,14.640625 -7,21.453125 -7,6.8125 -22.09375,6.8125 z M 9.8125,72.90625 h 20.265625 q 21.1875,0 31.09375,-8.8125 9.921875,-8.8125 9.921875,-27.5625 0,-18.859375 -9.96875,-27.703125 Q 51.171875,0 30.078125,0 H 9.8125 Z"
       id="DejaVuSans-68" />
    <path
       d="m 9.8125,72.90625 h 9.859375 V 8.296875 h 35.5 V 0 H 9.8125 Z"
       id="DejaVuSans-76" />
    <path
       d="M 19.671875,34.8125 V 8.109375 H 35.5 q 7.953125,0 11.78125,3.296875 3.84375,3.296875 3.84375,10.078125 0,6.84375 -3.84375,10.078125 -3.828125,3.25 -11.78125,3.25 z m 0,29.984375 V 42.828125 H 34.28125 q 7.21875,0 10.75,2.703125 3.546875,2.71875 3.546875,8.28125 0,5.515625 -3.546875,8.25 -3.53125,2.734375 -10.75,2.734375 z M 9.8125,72.90625 h 25.203125 q 11.28125,0 17.375,-4.6875 Q 58.5,63.53125 58.5,54.890625 58.5,48.1875 55.375,44.234375 52.25,40.28125 46.1875,39.3125 53.46875,37.75 57.5,32.78125 q 4.03125,-4.953125 4.03125,-12.375 0,-9.765625 -6.640625,-15.09375 Q 48.25,0 35.984375,0 H 9.8125 Z"
       id="DejaVuSans-66" />
    <path
       d="m 9.8125,72.90625 h 41.890625 v -8.3125 H 19.671875 V 43.109375 h 28.90625 V 34.8125 H 19.671875 V 0 H 9.8125 Z"
       id="DejaVuSans-70" />
    <path
       d="m 18.109375,8.203125 v -29 H 9.078125 V 54.6875 h 9.03125 v -8.296875 q 2.84375,4.875 7.15625,7.234375 Q 29.59375,56 35.59375,56 q 9.96875,0 16.1875,-7.90625 6.234375,-7.90625 6.234375,-20.796875 0,-12.890625 -6.234375,-20.8125 -6.21875,-7.90625 -16.1875,-7.90625 -6,0 -10.328125,2.375 -4.3125,2.375 -7.15625,7.25 z M 48.6875,27.296875 q 0,9.90625 -4.078125,15.546875 -4.078125,5.640625 -11.203125,5.640625 -7.140625,0 -11.21875,-5.640625 -4.078125,-5.640625 -4.078125,-15.546875 0,-9.90625 4.078125,-15.546875 4.078125,-5.640625 11.21875,-5.640625 7.125,0 11.203125,5.640625 4.078125,5.640625 4.078125,15.546875 z"
       id="DejaVuSans-112" />
    <path
       d="M 4.203125,54.6875 H 13.1875 L 24.421875,12.015625 35.59375,54.6875 H 46.1875 L 57.421875,12.015625 68.609375,54.6875 H 77.59375 L 63.28125,0 H 52.6875 L 40.921875,44.828125 29.109375,0 H 18.5 Z"
       id="DejaVuSans-119" />
    <path
       d="M 54.890625,33.015625 V 0 H 45.90625 v 32.71875 q 0,7.765625 -3.03125,11.609375 -3.03125,3.859375 -9.078125,3.859375 -7.28125,0 -11.484375,-4.640625 -4.203125,-4.625 -4.203125,-12.640625 V 0 h -9.03125 v 54.6875 h 9.03125 v -8.5 q 3.234375,4.9375 7.59375,7.375 4.375,2.4375 10.09375,2.4375 9.421875,0 14.25,-5.828125 4.84375,-5.828125 4.84375,-17.15625 z"
       id="DejaVuSans-110" />
    <path
       d="m 39.40625,66.21875 q -10.75,0 -17.078125,-8.015625 -6.3125,-8 -6.3125,-21.828125 0,-13.765625 6.3125,-21.78125 6.328125,-8 17.078125,-8 10.734375,0 17.015625,8 6.28125,8.015625 6.28125,21.78125 0,13.828125 -6.28125,21.828125 -6.28125,8.015625 -17.015625,8.015625 z m 13.8125,-64.90625 13,-14.203125 H 54.296875 L 43.5,-1.21875 q -1.609375,-0.09375 -2.46875,-0.140625 -0.84375,-0.0625 -1.625,-0.0625 -15.375,0 -24.59375,10.28125 -9.203125,10.28125 -9.203125,27.515625 0,17.28125 9.203125,27.5625 9.21875,10.28125 24.59375,10.28125 15.328125,0 24.5,-10.28125 9.1875,-10.28125 9.1875,-27.5625 0,-12.6875 -5.109375,-21.734375 Q 62.890625,5.609375 53.21875,1.3125 Z"
       id="DejaVuSans-81" />
  </defs>
  <g
     inkscape:label="Layer 1"
     inkscape:groupmode="layer"
     id="layer1"
     transform="translate(-219.075,-57.414583)">
    <g
       id="legend_1"
       style="stroke-linecap:butt;stroke-linejoin:round"
       transform="matrix(0.35277777,0,0,0.35277777,81.56791,53.590434)">
      <g
         id="patch_7"
         style="stroke-linecap:butt;stroke-linejoin:round">
        <path
           d="m 395.12612,221.13375 h 88.52813 q 2,0 2,-2 V 29.318125 q 0,-2 -2,-2 h -88.52813 q -2,0 -2,2 V 219.13375 q 0,2 2,2 z"
           style="opacity:0.8;fill:#ffffff;stroke:#cccccc;stroke-linecap:butt;stroke-linejoin:miter"
           id="path1439" />
      </g>
      <g
         id="line2d_67"
         style="stroke-linecap:butt;stroke-linejoin:round">
        <path
           d="m 397.12612,35.416562 h 20"
           style="fill:none;stroke:#1f77b4;stroke-width:1.5;stroke-linecap:square;stroke-linejoin:round"
           id="path1442" />
      </g>
      <g
         id="line2d_68"
         style="stroke-linecap:butt;stroke-linejoin:round" />
      <g
         id="text_9"
         style="stroke-linecap:butt;stroke-linejoin:round">
        <!-- NAdam -->
        <g
           transform="matrix(0.1,0,0,-0.1,425.12612,38.916562)"
           id="g1461"
           style="stroke-linecap:butt;stroke-linejoin:round">
          <defs
             id="defs1449">
            <path
               d="M 9.8125,72.90625 H 23.09375 L 55.421875,11.921875 V 72.90625 h 9.5625 V 0 h -13.28125 l -32.3125,60.984375 V 0 H 9.8125 Z"
               id="path1" />
            <path
               d="M 34.1875,63.1875 20.796875,26.90625 h 26.8125 z m -5.578125,9.71875 h 11.1875 L 67.578125,0 h -10.25 L 50.6875,18.703125 H 17.828125 L 11.1875,0 H 0.78125 Z"
               id="path2" />
            <path
               d="m 45.40625,46.390625 v 29.59375 h 8.984375 V 0 H 45.40625 v 8.203125 q -2.828125,-4.875 -7.15625,-7.25 -4.3125,-2.375 -10.375,-2.375 -9.90625,0 -16.140625,7.90625 -6.21875,7.921875 -6.21875,20.8125 0,12.890625 6.21875,20.796875 Q 17.96875,56 27.875,56 q 6.0625,0 10.375,-2.375 4.328125,-2.359375 7.15625,-7.234375 z M 14.796875,27.296875 q 0,-9.90625 4.078125,-15.546875 4.078125,-5.640625 11.203125,-5.640625 7.125,0 11.21875,5.640625 4.109375,5.640625 4.109375,15.546875 0,9.90625 -4.109375,15.546875 -4.09375,5.640625 -11.21875,5.640625 -7.125,0 -11.203125,-5.640625 -4.078125,-5.640625 -4.078125,-15.546875 z"
               id="path3" />
          </defs>
          <use
             xlink:href="#DejaVuSans-78"
             id="use1451"
             style="stroke-linecap:butt;stroke-linejoin:round" />
          <use
             x="74.804688"
             xlink:href="#DejaVuSans-65"
             id="use1453"
             style="stroke-linecap:butt;stroke-linejoin:round" />
          <use
             x="141.46289"
             xlink:href="#DejaVuSans-100"
             id="use1455"
             style="stroke-linecap:butt;stroke-linejoin:round" />
          <path
             d="m 239.2207,27.484375 q -10.89062,0 -15.09375,-2.484375 -4.20312,-2.484375 -4.20312,-8.5 0,-4.78125 3.15625,-7.59375 3.15625,-2.796875 8.5625,-2.796875 7.48437,0 12,5.296875 4.51562,5.296875 4.51562,14.078125 v 2 z m 17.92188,3.71875 V 0 h -8.98438 v 8.296875 q -3.07812,-4.96875 -7.67187,-7.34375 -4.59375,-2.375 -11.23438,-2.375 -8.39062,0 -13.35937,4.71875 -4.95313,4.71875 -4.95313,12.625 0,9.21875 6.17188,13.90625 6.1875,4.6875 18.4375,4.6875 h 12.60937 v 0.890625 q 0,6.203125 -4.07812,9.59375 -4.07813,3.390625 -11.45313,3.390625 -4.6875,0 -9.14062,-1.125 -4.4375,-1.125 -8.53125,-3.375 v 8.3125 q 4.92187,1.90625 9.5625,2.84375 Q 229.1582,56 233.54883,56 q 11.875,0 17.73437,-6.15625 5.85938,-6.140625 5.85938,-18.640625 z"
             id="use1457"
             style="stroke-linecap:butt;stroke-linejoin:round" />
          <path
             d="m 318.21875,44.1875 q 3.375,6.0625 8.0625,8.9375 4.6875,2.875 11.03125,2.875 8.54687,0 13.1875,-5.984375 4.64062,-5.96875 4.64062,-17 V 0 h -9.03125 v 32.71875 q 0,7.859375 -2.79687,11.65625 -2.78125,3.8125 -8.48438,3.8125 -6.98437,0 -11.04687,-4.640625 -4.04688,-4.625 -4.04688,-12.640625 V 0 h -9.03125 v 32.71875 q 0,7.90625 -2.78125,11.6875 -2.78125,3.78125 -8.59375,3.78125 -6.89062,0 -10.95312,-4.65625 -4.04688,-4.65625 -4.04688,-12.625 V 0 h -9.03125 v 54.6875 h 9.03125 v -8.5 q 3.07813,5.03125 7.375,7.421875 Q 296,56 301.90625,56 q 5.96875,0 10.14062,-3.03125 4.17188,-3.015625 6.17188,-8.78125 z"
             id="use1459"
             style="stroke-linecap:butt;stroke-linejoin:round" />
        </g>
      </g>
      <g
         id="line2d_69"
         style="stroke-linecap:butt;stroke-linejoin:round">
        <path
           d="m 397.12612,50.094687 h 20"
           style="fill:none;stroke:#ff7f0e;stroke-width:1.5;stroke-linecap:square;stroke-linejoin:round"
           id="path1464" />
      </g>
      <g
         id="line2d_70"
         style="stroke-linecap:butt;stroke-linejoin:round" />
      <g
         id="text_10"
         style="stroke-linecap:butt;stroke-linejoin:round">
        <!-- RAdam -->
        <g
           transform="matrix(0.1,0,0,-0.1,425.12612,53.594687)"
           id="g1481"
           style="stroke-linecap:butt;stroke-linejoin:round">
          <defs
             id="defs1469">
            <path
               d="m 44.390625,34.1875 q 3.171875,-1.078125 6.171875,-4.59375 3,-3.515625 6.03125,-9.671875 L 66.609375,0 H 56 l -9.3125,18.703125 q -3.625,7.328125 -7.015625,9.71875 -3.390625,2.390625 -9.25,2.390625 h -10.75 V 0 H 9.8125 v 72.90625 h 22.265625 q 12.5,0 18.65625,-5.234375 6.15625,-5.21875 6.15625,-15.765625 0,-6.890625 -3.203125,-11.4375 -3.203125,-4.53125 -9.296875,-6.28125 z m -24.71875,30.609375 v -25.875 h 12.40625 q 7.125,0 10.765625,3.296875 3.640625,3.296875 3.640625,9.6875 0,6.390625 -3.640625,9.640625 -3.640625,3.25 -10.765625,3.25 z"
               id="path4" />
          </defs>
          <use
             xlink:href="#DejaVuSans-82"
             id="use1471"
             style="stroke-linecap:butt;stroke-linejoin:round" />
          <use
             x="65.482422"
             xlink:href="#DejaVuSans-65"
             id="use1473"
             style="stroke-linecap:butt;stroke-linejoin:round" />
          <use
             x="132.14062"
             xlink:href="#DejaVuSans-100"
             id="use1475"
             style="stroke-linecap:butt;stroke-linejoin:round" />
          <path
             d="m 229.89844,27.484375 q -10.89063,0 -15.09375,-2.484375 -4.20313,-2.484375 -4.20313,-8.5 0,-4.78125 3.15625,-7.59375 3.15625,-2.796875 8.5625,-2.796875 7.48438,0 12,5.296875 4.51563,5.296875 4.51563,14.078125 v 2 z m 17.92187,3.71875 V 0 h -8.98437 v 8.296875 q -3.07813,-4.96875 -7.67188,-7.34375 -4.59375,-2.375 -11.23437,-2.375 -8.39063,0 -13.35938,4.71875 -4.95312,4.71875 -4.95312,12.625 0,9.21875 6.17187,13.90625 6.1875,4.6875 18.4375,4.6875 h 12.60938 v 0.890625 q 0,6.203125 -4.07813,9.59375 -4.07812,3.390625 -11.45312,3.390625 -4.6875,0 -9.14063,-1.125 -4.4375,-1.125 -8.53125,-3.375 v 8.3125 q 4.92188,1.90625 9.5625,2.84375 Q 219.83594,56 224.22656,56 q 11.875,0 17.73438,-6.15625 5.85937,-6.140625 5.85937,-18.640625 z"
             id="use1477"
             style="stroke-linecap:butt;stroke-linejoin:round" />
          <path
             d="m 308.89648,44.1875 q 3.375,6.0625 8.0625,8.9375 4.6875,2.875 11.03125,2.875 8.54688,0 13.1875,-5.984375 4.64063,-5.96875 4.64063,-17 V 0 h -9.03125 v 32.71875 q 0,7.859375 -2.79688,11.65625 -2.78125,3.8125 -8.48437,3.8125 -6.98438,0 -11.04688,-4.640625 -4.04687,-4.625 -4.04687,-12.640625 V 0 h -9.03125 v 32.71875 q 0,7.90625 -2.78125,11.6875 -2.78125,3.78125 -8.59375,3.78125 -6.89063,0 -10.95313,-4.65625 -4.04687,-4.65625 -4.04687,-12.625 V 0 h -9.03125 v 54.6875 h 9.03125 v -8.5 q 3.07812,5.03125 7.375,7.421875 Q 286.67773,56 292.58398,56 q 5.96875,0 10.14063,-3.03125 4.17187,-3.015625 6.17187,-8.78125 z"
             id="use1479"
             style="stroke-linecap:butt;stroke-linejoin:round" />
        </g>
      </g>
      <g
         id="line2d_71"
         style="stroke-linecap:butt;stroke-linejoin:round">
        <path
           d="m 397.12612,64.772812 h 20"
           style="fill:none;stroke:#2ca02c;stroke-width:1.5;stroke-linecap:square;stroke-linejoin:round"
           id="path1484" />
      </g>
      <g
         id="line2d_72"
         style="stroke-linecap:butt;stroke-linejoin:round" />
      <g
         id="text_11"
         style="stroke-linecap:butt;stroke-linejoin:round">
        <!-- Adam -->
        <g
           transform="matrix(0.1,0,0,-0.1,425.12612,68.272812)"
           id="g1496"
           style="stroke-linecap:butt;stroke-linejoin:round">
          <use
             xlink:href="#DejaVuSans-65"
             id="use1488"
             style="stroke-linecap:butt;stroke-linejoin:round" />
          <use
             x="66.658203"
             xlink:href="#DejaVuSans-100"
             id="use1490"
             style="stroke-linecap:butt;stroke-linejoin:round" />
          <path
             d="m 164.41602,27.484375 q -10.89063,0 -15.09375,-2.484375 -4.20313,-2.484375 -4.20313,-8.5 0,-4.78125 3.15625,-7.59375 3.15625,-2.796875 8.5625,-2.796875 7.48438,0 12,5.296875 4.51563,5.296875 4.51563,14.078125 v 2 z m 17.92187,3.71875 V 0 h -8.98437 v 8.296875 q -3.07813,-4.96875 -7.67188,-7.34375 -4.59375,-2.375 -11.23437,-2.375 -8.39063,0 -13.35938,4.71875 -4.95312,4.71875 -4.95312,12.625 0,9.21875 6.17187,13.90625 6.1875,4.6875 18.4375,4.6875 h 12.60938 v 0.890625 q 0,6.203125 -4.07813,9.59375 -4.07812,3.390625 -11.45312,3.390625 -4.6875,0 -9.14063,-1.125 -4.4375,-1.125 -8.53125,-3.375 v 8.3125 q 4.92188,1.90625 9.5625,2.84375 Q 154.35352,56 158.74414,56 q 11.875,0 17.73438,-6.15625 5.85937,-6.140625 5.85937,-18.640625 z"
             id="use1492"
             style="stroke-linecap:butt;stroke-linejoin:round" />
          <path
             d="m 243.41406,44.1875 q 3.375,6.0625 8.0625,8.9375 4.6875,2.875 11.03125,2.875 8.54688,0 13.1875,-5.984375 4.64063,-5.96875 4.64063,-17 V 0 h -9.03125 v 32.71875 q 0,7.859375 -2.79688,11.65625 -2.78125,3.8125 -8.48437,3.8125 -6.98438,0 -11.04688,-4.640625 -4.04687,-4.625 -4.04687,-12.640625 V 0 h -9.03125 v 32.71875 q 0,7.90625 -2.78125,11.6875 -2.78125,3.78125 -8.59375,3.78125 -6.89063,0 -10.95313,-4.65625 -4.04687,-4.65625 -4.04687,-12.625 V 0 h -9.03125 v 54.6875 h 9.03125 v -8.5 q 3.07812,5.03125 7.375,7.421875 Q 221.19531,56 227.10156,56 q 5.96875,0 10.14063,-3.03125 4.17187,-3.015625 6.17187,-8.78125 z"
             id="use1494"
             style="stroke-linecap:butt;stroke-linejoin:round" />
        </g>
      </g>
      <g
         id="line2d_73"
         style="stroke-linecap:butt;stroke-linejoin:round">
        <path
           d="m 397.12612,79.450937 h 20"
           style="fill:none;stroke:#d62728;stroke-width:1.5;stroke-linecap:square;stroke-linejoin:round"
           id="path1499" />
      </g>
      <g
         id="line2d_74"
         style="stroke-linecap:butt;stroke-linejoin:round" />
      <g
         id="text_12"
         style="stroke-linecap:butt;stroke-linejoin:round">
        <!-- Adadelta -->
        <g
           transform="matrix(0.1,0,0,-0.1,425.12612,82.950937)"
           id="g1522"
           style="stroke-linecap:butt;stroke-linejoin:round">
          <defs
             id="defs1504">
            <path
               d="M 9.421875,75.984375 H 18.40625 V 0 H 9.421875 Z"
               id="path5" />
          </defs>
          <use
             xlink:href="#DejaVuSans-65"
             id="use1506"
             style="stroke-linecap:butt;stroke-linejoin:round" />
          <use
             x="66.658203"
             xlink:href="#DejaVuSans-100"
             id="use1508"
             style="stroke-linecap:butt;stroke-linejoin:round" />
          <path
             d="m 164.41602,27.484375 q -10.89063,0 -15.09375,-2.484375 -4.20313,-2.484375 -4.20313,-8.5 0,-4.78125 3.15625,-7.59375 3.15625,-2.796875 8.5625,-2.796875 7.48438,0 12,5.296875 4.51563,5.296875 4.51563,14.078125 v 2 z m 17.92187,3.71875 V 0 h -8.98437 v 8.296875 q -3.07813,-4.96875 -7.67188,-7.34375 -4.59375,-2.375 -11.23437,-2.375 -8.39063,0 -13.35938,4.71875 -4.95312,4.71875 -4.95312,12.625 0,9.21875 6.17187,13.90625 6.1875,4.6875 18.4375,4.6875 h 12.60938 v 0.890625 q 0,6.203125 -4.07813,9.59375 -4.07812,3.390625 -11.45312,3.390625 -4.6875,0 -9.14063,-1.125 -4.4375,-1.125 -8.53125,-3.375 v 8.3125 q 4.92188,1.90625 9.5625,2.84375 Q 154.35352,56 158.74414,56 q 11.875,0 17.73438,-6.15625 5.85937,-6.140625 5.85937,-18.640625 z"
             id="use1510"
             style="stroke-linecap:butt;stroke-linejoin:round" />
          <use
             x="191.41406"
             xlink:href="#DejaVuSans-100"
             id="use1512"
             style="stroke-linecap:butt;stroke-linejoin:round" />
          <path
             d="m 311.09375,29.59375 v -4.390625 h -41.3125 q 0.59375,-9.28125 5.59375,-14.140625 5,-4.859375 13.9375,-4.859375 5.17187,0 10.03125,1.265625 4.85937,1.265625 9.65625,3.8125 v -8.5 q -4.84375,-2.046875 -9.92188,-3.125 Q 294,-1.421875 288.78125,-1.421875 q -13.09375,0 -20.73438,7.609375 -7.64062,7.625 -7.64062,20.625 0,13.421875 7.25,21.296875 Q 274.90625,56 287.21875,56 q 11.03125,0 17.45312,-7.109375 6.42188,-7.09375 6.42188,-19.296875 z m -8.98438,2.640625 q -0.0937,7.359375 -4.125,11.75 -4.03125,4.40625 -10.67187,4.40625 -7.51563,0 -12.03125,-4.25 -4.51563,-4.25 -5.20313,-11.96875 z"
             id="use1514"
             style="stroke-linecap:butt;stroke-linejoin:round" />
          <use
             x="316.41406"
             xlink:href="#DejaVuSans-108"
             id="use1516"
             style="stroke-linecap:butt;stroke-linejoin:round" />
          <path
             d="M 362.50977,70.21875 V 54.6875 h 18.5 v -6.984375 h -18.5 v -29.6875 q 0,-6.6875 1.82812,-8.59375 1.82813,-1.90625 7.45313,-1.90625 h 9.21875 V 0 h -9.21875 q -10.40625,0 -14.35938,3.875 -3.95312,3.890625 -3.95312,14.140625 v 29.6875 h -6.59375 V 54.6875 h 6.59375 v 15.53125 z"
             id="use1518"
             style="stroke-linecap:butt;stroke-linejoin:round" />
          <path
             d="m 417.6875,27.484375 q -10.89063,0 -15.09375,-2.484375 -4.20313,-2.484375 -4.20313,-8.5 0,-4.78125 3.15625,-7.59375 3.15625,-2.796875 8.5625,-2.796875 7.48438,0 12,5.296875 4.51563,5.296875 4.51563,14.078125 v 2 z m 17.92187,3.71875 V 0 H 426.625 v 8.296875 q -3.07813,-4.96875 -7.67188,-7.34375 -4.59375,-2.375 -11.23437,-2.375 -8.39063,0 -13.35938,4.71875 -4.95312,4.71875 -4.95312,12.625 0,9.21875 6.17187,13.90625 6.1875,4.6875 18.4375,4.6875 H 426.625 v 0.890625 q 0,6.203125 -4.07813,9.59375 -4.07812,3.390625 -11.45312,3.390625 -4.6875,0 -9.14063,-1.125 -4.4375,-1.125 -8.53125,-3.375 v 8.3125 q 4.92188,1.90625 9.5625,2.84375 Q 407.625,56 412.01562,56 q 11.875,0 17.73438,-6.15625 5.85937,-6.140625 5.85937,-18.640625 z"
             id="use1520"
             style="stroke-linecap:butt;stroke-linejoin:round" />
        </g>
      </g>
      <g
         id="line2d_75"
         style="stroke-linecap:butt;stroke-linejoin:round">
        <path
           d="m 397.12612,94.129062 h 20"
           style="fill:none;stroke:#9467bd;stroke-width:1.5;stroke-linecap:square;stroke-linejoin:round"
           id="path1525" />
      </g>
      <g
         id="line2d_76"
         style="stroke-linecap:butt;stroke-linejoin:round" />
      <g
         id="text_13"
         style="stroke-linecap:butt;stroke-linejoin:round">
        <!-- Adamax -->
        <g
           transform="matrix(0.1,0,0,-0.1,425.12612,97.629062)"
           id="g1544"
           style="stroke-linecap:butt;stroke-linejoin:round">
          <defs
             id="defs1530">
            <path
               d="M 54.890625,54.6875 35.109375,28.078125 55.90625,0 H 45.3125 L 29.390625,21.484375 13.484375,0 H 2.875 L 24.125,28.609375 4.6875,54.6875 h 10.59375 l 14.5,-19.484375 14.5,19.484375 z"
               id="path6" />
          </defs>
          <use
             xlink:href="#DejaVuSans-65"
             id="use1532"
             style="stroke-linecap:butt;stroke-linejoin:round" />
          <use
             x="66.658203"
             xlink:href="#DejaVuSans-100"
             id="use1534"
             style="stroke-linecap:butt;stroke-linejoin:round" />
          <path
             d="m 164.41602,27.484375 q -10.89063,0 -15.09375,-2.484375 -4.20313,-2.484375 -4.20313,-8.5 0,-4.78125 3.15625,-7.59375 3.15625,-2.796875 8.5625,-2.796875 7.48438,0 12,5.296875 4.51563,5.296875 4.51563,14.078125 v 2 z m 17.92187,3.71875 V 0 h -8.98437 v 8.296875 q -3.07813,-4.96875 -7.67188,-7.34375 -4.59375,-2.375 -11.23437,-2.375 -8.39063,0 -13.35938,4.71875 -4.95312,4.71875 -4.95312,12.625 0,9.21875 6.17187,13.90625 6.1875,4.6875 18.4375,4.6875 h 12.60938 v 0.890625 q 0,6.203125 -4.07813,9.59375 -4.07812,3.390625 -11.45312,3.390625 -4.6875,0 -9.14063,-1.125 -4.4375,-1.125 -8.53125,-3.375 v 8.3125 q 4.92188,1.90625 9.5625,2.84375 Q 154.35352,56 158.74414,56 q 11.875,0 17.73438,-6.15625 5.85937,-6.140625 5.85937,-18.640625 z"
             id="use1536"
             style="stroke-linecap:butt;stroke-linejoin:round" />
          <path
             d="m 243.41406,44.1875 q 3.375,6.0625 8.0625,8.9375 4.6875,2.875 11.03125,2.875 8.54688,0 13.1875,-5.984375 4.64063,-5.96875 4.64063,-17 V 0 h -9.03125 v 32.71875 q 0,7.859375 -2.79688,11.65625 -2.78125,3.8125 -8.48437,3.8125 -6.98438,0 -11.04688,-4.640625 -4.04687,-4.625 -4.04687,-12.640625 V 0 h -9.03125 v 32.71875 q 0,7.90625 -2.78125,11.6875 -2.78125,3.78125 -8.59375,3.78125 -6.89063,0 -10.95313,-4.65625 -4.04687,-4.65625 -4.04687,-12.625 V 0 h -9.03125 v 54.6875 h 9.03125 v -8.5 q 3.07812,5.03125 7.375,7.421875 Q 221.19531,56 227.10156,56 q 5.96875,0 10.14063,-3.03125 4.17187,-3.015625 6.17187,-8.78125 z"
             id="use1538"
             style="stroke-linecap:butt;stroke-linejoin:round" />
          <path
             d="m 323.10742,27.484375 q -10.89062,0 -15.09375,-2.484375 -4.20312,-2.484375 -4.20312,-8.5 0,-4.78125 3.15625,-7.59375 3.15625,-2.796875 8.5625,-2.796875 7.48437,0 12,5.296875 4.51562,5.296875 4.51562,14.078125 v 2 z m 17.92188,3.71875 V 0 h -8.98438 v 8.296875 q -3.07812,-4.96875 -7.67187,-7.34375 -4.59375,-2.375 -11.23438,-2.375 -8.39062,0 -13.35937,4.71875 -4.95313,4.71875 -4.95313,12.625 0,9.21875 6.17188,13.90625 6.1875,4.6875 18.4375,4.6875 h 12.60937 v 0.890625 q 0,6.203125 -4.07812,9.59375 -4.07813,3.390625 -11.45313,3.390625 -4.6875,0 -9.14062,-1.125 -4.4375,-1.125 -8.53125,-3.375 v 8.3125 q 4.92187,1.90625 9.5625,2.84375 Q 313.04492,56 317.43555,56 q 11.875,0 17.73437,-6.15625 5.85938,-6.140625 5.85938,-18.640625 z"
             id="use1540"
             style="stroke-linecap:butt;stroke-linejoin:round" />
          <use
             x="350.10547"
             xlink:href="#DejaVuSans-120"
             id="use1542"
             style="stroke-linecap:butt;stroke-linejoin:round" />
        </g>
      </g>
      <g
         id="line2d_77"
         style="stroke-linecap:butt;stroke-linejoin:round">
        <path
           d="m 397.12612,108.80719 h 20"
           style="fill:none;stroke:#8c564b;stroke-width:1.5;stroke-linecap:square;stroke-linejoin:round"
           id="path1547" />
      </g>
      <g
         id="line2d_78"
         style="stroke-linecap:butt;stroke-linejoin:round" />
      <g
         id="text_14"
         style="stroke-linecap:butt;stroke-linejoin:round">
        <!-- SGD -->
        <g
           transform="matrix(0.1,0,0,-0.1,425.12612,112.30719)"
           id="g1562"
           style="stroke-linecap:butt;stroke-linejoin:round">
          <defs
             id="defs1554">
            <path
               d="m 53.515625,70.515625 v -9.625 q -5.609375,2.6875 -10.59375,4 -4.984375,1.328125 -9.625,1.328125 -8.046875,0 -12.421875,-3.125 -4.375,-3.125 -4.375,-8.890625 0,-4.84375 2.90625,-7.3125 2.90625,-2.453125 11.015625,-3.96875 L 36.375,41.703125 Q 47.40625,39.59375 52.65625,34.296875 57.90625,29 57.90625,20.125 q 0,-10.609375 -7.109375,-16.078125 -7.09375,-5.46875 -20.8125,-5.46875 -5.171875,0 -11.015625,1.171875 Q 13.140625,0.921875 6.890625,3.21875 V 13.375 q 6,-3.359375 11.765625,-5.078125 5.765625,-1.703125 11.328125,-1.703125 8.4375,0 13.03125,3.3125 4.59375,3.328125 4.59375,9.484375 0,5.359375 -3.296875,8.390625 Q 41.015625,30.8125 33.5,32.328125 L 27.484375,33.5 q -11.03125,2.1875 -15.96875,6.875 -4.921875,4.6875 -4.921875,13.046875 0,9.671875 6.8125,15.234375 6.8125,5.5625 18.765625,5.5625 5.140625,0 10.453125,-0.9375 5.328125,-0.921875 10.890625,-2.765625 z"
               id="path7" />
            <path
               d="M 59.515625,10.40625 V 29.984375 H 43.40625 v 8.109375 h 25.875 V 6.78125 Q 63.578125,2.734375 56.6875,0.65625 49.8125,-1.421875 42,-1.421875 q -17.09375,0 -26.75,9.984375 -9.640625,10 -9.640625,27.8125 0,17.875 9.640625,27.859375 9.65625,9.984375 26.75,9.984375 7.125,0 13.546875,-1.765625 6.421875,-1.75 11.84375,-5.171875 v -10.5 q -5.46875,4.640625 -11.625,6.984375 -6.15625,2.34375 -12.9375,2.34375 -13.390625,0 -20.109375,-7.46875 -6.703125,-7.46875 -6.703125,-22.265625 0,-14.75 6.703125,-22.21875 6.71875,-7.46875 20.109375,-7.46875 5.21875,0 9.3125,0.90625 4.109375,0.90625 7.375,2.8125 z"
               id="path8" />
            <path
               d="M 19.671875,64.796875 V 8.109375 H 31.59375 q 15.09375,0 22.09375,6.828125 7,6.84375 7,21.59375 0,14.640625 -7,21.453125 -7,6.8125 -22.09375,6.8125 z M 9.8125,72.90625 h 20.265625 q 21.1875,0 31.09375,-8.8125 9.921875,-8.8125 9.921875,-27.5625 0,-18.859375 -9.96875,-27.703125 Q 51.171875,0 30.078125,0 H 9.8125 Z"
               id="path9" />
          </defs>
          <use
             xlink:href="#DejaVuSans-83"
             id="use1556"
             style="stroke-linecap:butt;stroke-linejoin:round" />
          <use
             x="63.476562"
             xlink:href="#DejaVuSans-71"
             id="use1558"
             style="stroke-linecap:butt;stroke-linejoin:round" />
          <use
             x="140.9668"
             xlink:href="#DejaVuSans-68"
             id="use1560"
             style="stroke-linecap:butt;stroke-linejoin:round" />
        </g>
      </g>
      <g
         id="line2d_79"
         style="stroke-linecap:butt;stroke-linejoin:round">
        <path
           d="m 397.12612,123.48531 h 20"
           style="fill:none;stroke:#e377c2;stroke-width:1.5;stroke-linecap:square;stroke-linejoin:round"
           id="path1565" />
      </g>
      <g
         id="line2d_80"
         style="stroke-linecap:butt;stroke-linejoin:round" />
      <g
         id="text_15"
         style="stroke-linecap:butt;stroke-linejoin:round">
        <!-- LBFGS -->
        <g
           transform="matrix(0.1,0,0,-0.1,425.12612,126.98531)"
           id="g1584"
           style="stroke-linecap:butt;stroke-linejoin:round">
          <defs
             id="defs1572">
            <path
               d="m 9.8125,72.90625 h 9.859375 V 8.296875 h 35.5 V 0 H 9.8125 Z"
               id="path10" />
            <path
               d="M 19.671875,34.8125 V 8.109375 H 35.5 q 7.953125,0 11.78125,3.296875 3.84375,3.296875 3.84375,10.078125 0,6.84375 -3.84375,10.078125 -3.828125,3.25 -11.78125,3.25 z m 0,29.984375 V 42.828125 H 34.28125 q 7.21875,0 10.75,2.703125 3.546875,2.71875 3.546875,8.28125 0,5.515625 -3.546875,8.25 -3.53125,2.734375 -10.75,2.734375 z M 9.8125,72.90625 h 25.203125 q 11.28125,0 17.375,-4.6875 Q 58.5,63.53125 58.5,54.890625 58.5,48.1875 55.375,44.234375 52.25,40.28125 46.1875,39.3125 53.46875,37.75 57.5,32.78125 q 4.03125,-4.953125 4.03125,-12.375 0,-9.765625 -6.640625,-15.09375 Q 48.25,0 35.984375,0 H 9.8125 Z"
               id="path11" />
            <path
               d="m 9.8125,72.90625 h 41.890625 v -8.3125 H 19.671875 V 43.109375 h 28.90625 V 34.8125 H 19.671875 V 0 H 9.8125 Z"
               id="path12" />
          </defs>
          <use
             xlink:href="#DejaVuSans-76"
             id="use1574"
             style="stroke-linecap:butt;stroke-linejoin:round" />
          <use
             x="55.712891"
             xlink:href="#DejaVuSans-66"
             id="use1576"
             style="stroke-linecap:butt;stroke-linejoin:round" />
          <use
             x="124.31641"
             xlink:href="#DejaVuSans-70"
             id="use1578"
             style="stroke-linecap:butt;stroke-linejoin:round" />
          <use
             x="181.83594"
             xlink:href="#DejaVuSans-71"
             id="use1580"
             style="stroke-linecap:butt;stroke-linejoin:round" />
          <use
             x="259.32617"
             xlink:href="#DejaVuSans-83"
             id="use1582"
             style="stroke-linecap:butt;stroke-linejoin:round" />
        </g>
      </g>
      <g
         id="line2d_81"
         style="stroke-linecap:butt;stroke-linejoin:round">
        <path
           d="m 397.12612,138.16344 h 20"
           style="fill:none;stroke:#7f7f7f;stroke-width:1.5;stroke-linecap:square;stroke-linejoin:round"
           id="path1587" />
      </g>
      <g
         id="line2d_82"
         style="stroke-linecap:butt;stroke-linejoin:round" />
      <g
         id="text_16"
         style="stroke-linecap:butt;stroke-linejoin:round">
        <!-- RMSprop -->
        <g
           transform="matrix(0.1,0,0,-0.1,425.12612,141.66344)"
           id="g1608"
           style="stroke-linecap:butt;stroke-linejoin:round">
          <defs
             id="defs1592">
            <path
               d="m 18.109375,8.203125 v -29 H 9.078125 V 54.6875 h 9.03125 v -8.296875 q 2.84375,4.875 7.15625,7.234375 Q 29.59375,56 35.59375,56 q 9.96875,0 16.1875,-7.90625 6.234375,-7.90625 6.234375,-20.796875 0,-12.890625 -6.234375,-20.8125 -6.21875,-7.90625 -16.1875,-7.90625 -6,0 -10.328125,2.375 -4.3125,2.375 -7.15625,7.25 z M 48.6875,27.296875 q 0,9.90625 -4.078125,15.546875 -4.078125,5.640625 -11.203125,5.640625 -7.140625,0 -11.21875,-5.640625 -4.078125,-5.640625 -4.078125,-15.546875 0,-9.90625 4.078125,-15.546875 4.078125,-5.640625 11.21875,-5.640625 7.125,0 11.203125,5.640625 4.078125,5.640625 4.078125,15.546875 z"
               id="path13" />
          </defs>
          <use
             xlink:href="#DejaVuSans-82"
             id="use1594"
             style="stroke-linecap:butt;stroke-linejoin:round" />
          <path
             d="M 79.294922,72.90625 H 93.998047 L 112.5918,23.296875 131.29492,72.90625 h 14.70313 V 0 h -9.625 v 64.015625 l -18.79688,-50 h -9.90625 l -18.796873,50 V 0 h -9.578125 z"
             id="use1596"
             style="stroke-linecap:butt;stroke-linejoin:round" />
          <use
             x="155.76172"
             xlink:href="#DejaVuSans-83"
             id="use1598"
             style="stroke-linecap:butt;stroke-linejoin:round" />
          <use
             x="219.23828"
             xlink:href="#DejaVuSans-112"
             id="use1600"
             style="stroke-linecap:butt;stroke-linejoin:round" />
          <path
             d="m 323.82422,46.296875 q -1.51563,0.875 -3.29688,1.28125 Q 318.74609,48 316.60547,48 308.98047,48 304.90234,43.046875 300.82422,38.09375 300.82422,28.8125 V 0 h -9.03125 v 54.6875 h 9.03125 v -8.5 q 2.84375,4.984375 7.375,7.390625 Q 312.74609,56 319.24609,56 q 0.92188,0 2.04688,-0.125 1.125,-0.109375 2.48437,-0.359375 z"
             id="use1602"
             style="stroke-linecap:butt;stroke-linejoin:round" />
          <path
             d="m 352.1875,48.390625 q -7.21875,0 -11.42188,-5.640625 -4.20312,-5.640625 -4.20312,-15.453125 0,-9.8125 4.17187,-15.453125 4.1875,-5.640625 11.45313,-5.640625 7.1875,0 11.375,5.65625 4.20312,5.671875 4.20312,15.4375 0,9.71875 -4.20312,15.40625 -4.1875,5.6875 -11.375,5.6875 z m 0,7.609375 q 11.71875,0 18.40625,-7.625 6.70312,-7.609375 6.70312,-21.078125 0,-13.421875 -6.70312,-21.078125 -6.6875,-7.640625 -18.40625,-7.640625 -11.76563,0 -18.4375,7.640625 -6.65625,7.65625 -6.65625,21.078125 0,13.46875 6.65625,21.078125 Q 340.42187,56 352.1875,56 Z"
             id="use1604"
             style="stroke-linecap:butt;stroke-linejoin:round" />
          <use
             x="382.75977"
             xlink:href="#DejaVuSans-112"
             id="use1606"
             style="stroke-linecap:butt;stroke-linejoin:round" />
        </g>
      </g>
      <g
         id="line2d_83"
         style="stroke-linecap:butt;stroke-linejoin:round">
        <path
           d="m 397.12612,152.84156 h 20"
           style="fill:none;stroke:#bcbd22;stroke-width:1.5;stroke-linecap:square;stroke-linejoin:round"
           id="path1611" />
      </g>
      <g
         id="line2d_84"
         style="stroke-linecap:butt;stroke-linejoin:round" />
      <g
         id="text_17"
         style="stroke-linecap:butt;stroke-linejoin:round">
        <!-- Rprop -->
        <g
           transform="matrix(0.1,0,0,-0.1,425.12612,156.34156)"
           id="g1625"
           style="stroke-linecap:butt;stroke-linejoin:round">
          <use
             xlink:href="#DejaVuSans-82"
             id="use1615"
             style="stroke-linecap:butt;stroke-linejoin:round" />
          <use
             x="69.482422"
             xlink:href="#DejaVuSans-112"
             id="use1617"
             style="stroke-linecap:butt;stroke-linejoin:round" />
          <path
             d="m 174.06836,46.296875 q -1.51563,0.875 -3.29688,1.28125 Q 168.99023,48 166.84961,48 159.22461,48 155.14648,43.046875 151.06836,38.09375 151.06836,28.8125 V 0 h -9.03125 v 54.6875 h 9.03125 v -8.5 q 2.84375,4.984375 7.375,7.390625 Q 162.99023,56 169.49023,56 q 0.92188,0 2.04688,-0.125 1.125,-0.109375 2.48437,-0.359375 z"
             id="use1619"
             style="stroke-linecap:butt;stroke-linejoin:round" />
          <path
             d="m 202.43164,48.390625 q -7.21875,0 -11.42187,-5.640625 -4.20313,-5.640625 -4.20313,-15.453125 0,-9.8125 4.17188,-15.453125 4.1875,-5.640625 11.45312,-5.640625 7.1875,0 11.375,5.65625 4.20313,5.671875 4.20313,15.4375 0,9.71875 -4.20313,15.40625 -4.1875,5.6875 -11.375,5.6875 z m 0,7.609375 q 11.71875,0 18.40625,-7.625 6.70313,-7.609375 6.70313,-21.078125 0,-13.421875 -6.70313,-21.078125 -6.6875,-7.640625 -18.40625,-7.640625 -11.76562,0 -18.4375,7.640625 -6.65625,7.65625 -6.65625,21.078125 0,13.46875 6.65625,21.078125 6.67188,7.625 18.4375,7.625 z"
             id="use1621"
             style="stroke-linecap:butt;stroke-linejoin:round" />
          <use
             x="233.00391"
             xlink:href="#DejaVuSans-112"
             id="use1623"
             style="stroke-linecap:butt;stroke-linejoin:round" />
        </g>
      </g>
      <g
         id="line2d_85"
         style="stroke-linecap:butt;stroke-linejoin:round">
        <path
           d="m 397.12612,167.51969 h 20"
           style="fill:none;stroke:#17becf;stroke-width:1.5;stroke-linecap:butt;stroke-linejoin:round;stroke-dasharray:5.55, 2.4;stroke-dashoffset:0"
           id="path1628" />
      </g>
      <g
         id="line2d_86"
         style="stroke-linecap:butt;stroke-linejoin:round" />
      <g
         id="text_18"
         style="stroke-linecap:butt;stroke-linejoin:round">
        <!-- BFGS -->
        <g
           transform="matrix(0.1,0,0,-0.1,425.12612,171.01969)"
           id="g1640"
           style="stroke-linecap:butt;stroke-linejoin:round">
          <use
             xlink:href="#DejaVuSans-66"
             id="use1632"
             style="stroke-linecap:butt;stroke-linejoin:round" />
          <use
             x="68.603516"
             xlink:href="#DejaVuSans-70"
             id="use1634"
             style="stroke-linecap:butt;stroke-linejoin:round" />
          <use
             x="126.12305"
             xlink:href="#DejaVuSans-71"
             id="use1636"
             style="stroke-linecap:butt;stroke-linejoin:round" />
          <use
             x="203.61328"
             xlink:href="#DejaVuSans-83"
             id="use1638"
             style="stroke-linecap:butt;stroke-linejoin:round" />
        </g>
      </g>
      <g
         id="line2d_87"
         style="stroke-linecap:butt;stroke-linejoin:round">
        <path
           d="m 397.12612,182.19781 h 20"
           style="fill:none;stroke:#1f77b4;stroke-width:1.5;stroke-linecap:butt;stroke-linejoin:round;stroke-dasharray:5.55, 2.4;stroke-dashoffset:0"
           id="path1643" />
      </g>
      <g
         id="line2d_88"
         style="stroke-linecap:butt;stroke-linejoin:round" />
      <g
         id="text_19"
         style="stroke-linecap:butt;stroke-linejoin:round">
        <!-- CG -->
        <g
           transform="matrix(0.1,0,0,-0.1,425.12612,185.69781)"
           id="g1651"
           style="stroke-linecap:butt;stroke-linejoin:round">
          <path
             d="M 64.40625,67.28125 V 56.890625 q -4.984375,4.640625 -10.625,6.921875 -5.640625,2.296875 -11.984375,2.296875 -12.5,0 -19.140625,-7.640625 -6.640625,-7.640625 -6.640625,-22.09375 0,-14.40625 6.640625,-22.046875 Q 29.296875,6.6875 41.796875,6.6875 q 6.34375,0 11.984375,2.296875 5.640625,2.296875 10.625,6.9375 V 5.609375 Q 59.234375,2.09375 53.4375,0.328125 q -5.78125,-1.75 -12.21875,-1.75 -16.5625,0 -26.09375,10.125 Q 5.609375,18.84375 5.609375,36.375 q 0,17.578125 9.515625,27.703125 9.53125,10.140625 26.09375,10.140625 6.53125,0 12.3125,-1.734375 5.796875,-1.734375 10.875,-5.203125 z"
             id="use1647"
             style="stroke-linecap:butt;stroke-linejoin:round" />
          <use
             x="69.824219"
             xlink:href="#DejaVuSans-71"
             id="use1649"
             style="stroke-linecap:butt;stroke-linejoin:round" />
        </g>
      </g>
      <g
         id="line2d_89"
         style="stroke-linecap:butt;stroke-linejoin:round">
        <path
           d="m 397.12612,196.87594 h 20"
           style="fill:none;stroke:#ff7f0e;stroke-width:1.5;stroke-linecap:butt;stroke-linejoin:round;stroke-dasharray:5.55, 2.4;stroke-dashoffset:0"
           id="path1654" />
      </g>
      <g
         id="line2d_90"
         style="stroke-linecap:butt;stroke-linejoin:round" />
      <g
         id="text_20"
         style="stroke-linecap:butt;stroke-linejoin:round">
        <!-- Newton-CG -->
        <g
           transform="matrix(0.1,0,0,-0.1,425.12612,200.37594)"
           id="g1680"
           style="stroke-linecap:butt;stroke-linejoin:round">
          <defs
             id="defs1660">
            <path
               d="M 4.203125,54.6875 H 13.1875 L 24.421875,12.015625 35.59375,54.6875 H 46.1875 L 57.421875,12.015625 68.609375,54.6875 H 77.59375 L 63.28125,0 H 52.6875 L 40.921875,44.828125 29.109375,0 H 18.5 Z"
               id="path14" />
            <path
               d="M 54.890625,33.015625 V 0 H 45.90625 v 32.71875 q 0,7.765625 -3.03125,11.609375 -3.03125,3.859375 -9.078125,3.859375 -7.28125,0 -11.484375,-4.640625 -4.203125,-4.625 -4.203125,-12.640625 V 0 h -9.03125 v 54.6875 h 9.03125 v -8.5 q 3.234375,4.9375 7.59375,7.375 4.375,2.4375 10.09375,2.4375 9.421875,0 14.25,-5.828125 4.84375,-5.828125 4.84375,-17.15625 z"
               id="path15" />
          </defs>
          <use
             xlink:href="#DejaVuSans-78"
             id="use1662"
             style="stroke-linecap:butt;stroke-linejoin:round" />
          <path
             d="M 131.00781,29.59375 V 25.203125 H 89.695312 q 0.59375,-9.28125 5.59375,-14.140625 4.999998,-4.859375 13.937498,-4.859375 5.17188,0 10.03125,1.265625 4.85938,1.265625 9.65625,3.8125 v -8.5 q -4.84375,-2.046875 -9.92187,-3.125 -5.07813,-1.078125 -10.29688,-1.078125 -13.093748,0 -20.734373,7.609375 -7.640625,7.625 -7.640625,20.625 0,13.421875 7.25,21.296875 Q 94.820312,56 107.13281,56 q 11.03125,0 17.45313,-7.109375 6.42187,-7.09375 6.42187,-19.296875 z m -8.98437,2.640625 q -0.0937,7.359375 -4.125,11.75 -4.03125,4.40625 -10.67188,4.40625 -7.515623,0 -12.031248,-4.25 -4.515625,-4.25 -5.203125,-11.96875 z"
             id="use1664"
             style="stroke-linecap:butt;stroke-linejoin:round" />
          <use
             x="136.32812"
             xlink:href="#DejaVuSans-119"
             id="use1666"
             style="stroke-linecap:butt;stroke-linejoin:round" />
          <path
             d="M 236.42773,70.21875 V 54.6875 h 18.5 v -6.984375 h -18.5 v -29.6875 q 0,-6.6875 1.82813,-8.59375 1.82812,-1.90625 7.45312,-1.90625 h 9.21875 V 0 h -9.21875 q -10.40625,0 -14.35937,3.875 -3.95313,3.890625 -3.95313,14.140625 v 29.6875 h -6.59375 V 54.6875 h 6.59375 v 15.53125 z"
             id="use1668"
             style="stroke-linecap:butt;stroke-linejoin:round" />
          <path
             d="m 287.93359,48.390625 q -7.21875,0 -11.42187,-5.640625 -4.20313,-5.640625 -4.20313,-15.453125 0,-9.8125 4.17188,-15.453125 4.1875,-5.640625 11.45312,-5.640625 7.1875,0 11.375,5.65625 4.20313,5.671875 4.20313,15.4375 0,9.71875 -4.20313,15.40625 -4.1875,5.6875 -11.375,5.6875 z m 0,7.609375 q 11.71875,0 18.40625,-7.625 6.70313,-7.609375 6.70313,-21.078125 0,-13.421875 -6.70313,-21.078125 -6.6875,-7.640625 -18.40625,-7.640625 -11.76562,0 -18.4375,7.640625 -6.65625,7.65625 -6.65625,21.078125 0,13.46875 6.65625,21.078125 6.67188,7.625 18.4375,7.625 z"
             id="use1670"
             style="stroke-linecap:butt;stroke-linejoin:round" />
          <use
             x="318.50586"
             xlink:href="#DejaVuSans-110"
             id="use1672"
             style="stroke-linecap:butt;stroke-linejoin:round" />
          <path
             d="m 386.77539,31.390625 h 26.3125 v -8 h -26.3125 z"
             id="use1674"
             style="stroke-linecap:butt;stroke-linejoin:round" />
          <path
             d="M 482.375,67.28125 V 56.890625 q -4.98438,4.640625 -10.625,6.921875 -5.64063,2.296875 -11.98438,2.296875 -12.5,0 -19.14062,-7.640625 -6.64063,-7.640625 -6.64063,-22.09375 0,-14.40625 6.64063,-22.046875 6.64062,-7.640625 19.14062,-7.640625 6.34375,0 11.98438,2.296875 5.64062,2.296875 10.625,6.9375 v -10.3125 q -5.17188,-3.515625 -10.96875,-5.28125 -5.78125,-1.75 -12.21875,-1.75 -16.5625,0 -26.09375,10.125 -9.51563,10.140625 -9.51563,27.671875 0,17.578125 9.51563,27.703125 9.53125,10.140625 26.09375,10.140625 6.53125,0 12.3125,-1.734375 5.79687,-1.734375 10.875,-5.203125 z"
             id="use1676"
             style="stroke-linecap:butt;stroke-linejoin:round" />
          <use
             x="487.79297"
             xlink:href="#DejaVuSans-71"
             id="use1678"
             style="stroke-linecap:butt;stroke-linejoin:round" />
        </g>
      </g>
      <g
         id="line2d_91"
         style="stroke-linecap:butt;stroke-linejoin:round">
        <path
           d="m 397.12612,211.55406 h 20"
           style="fill:none;stroke:#2ca02c;stroke-width:1.5;stroke-linecap:butt;stroke-linejoin:round;stroke-dasharray:5.55, 2.4;stroke-dashoffset:0"
           id="path1683" />
      </g>
      <g
         id="line2d_92"
         style="stroke-linecap:butt;stroke-linejoin:round" />
      <g
         id="text_21"
         style="stroke-linecap:butt;stroke-linejoin:round">
        <!-- SLSQP -->
        <g
           transform="matrix(0.1,0,0,-0.1,425.12612,215.05406)"
           id="g1700"
           style="stroke-linecap:butt;stroke-linejoin:round">
          <defs
             id="defs1688">
            <path
               d="m 39.40625,66.21875 q -10.75,0 -17.078125,-8.015625 -6.3125,-8 -6.3125,-21.828125 0,-13.765625 6.3125,-21.78125 6.328125,-8 17.078125,-8 10.734375,0 17.015625,8 6.28125,8.015625 6.28125,21.78125 0,13.828125 -6.28125,21.828125 -6.28125,8.015625 -17.015625,8.015625 z m 13.8125,-64.90625 13,-14.203125 H 54.296875 L 43.5,-1.21875 q -1.609375,-0.09375 -2.46875,-0.140625 -0.84375,-0.0625 -1.625,-0.0625 -15.375,0 -24.59375,10.28125 -9.203125,10.28125 -9.203125,27.515625 0,17.28125 9.203125,27.5625 9.21875,10.28125 24.59375,10.28125 15.328125,0 24.5,-10.28125 9.1875,-10.28125 9.1875,-27.5625 0,-12.6875 -5.109375,-21.734375 Q 62.890625,5.609375 53.21875,1.3125 Z"
               id="path16" />
          </defs>
          <use
             xlink:href="#DejaVuSans-83"
             id="use1690"
             style="stroke-linecap:butt;stroke-linejoin:round" />
          <use
             x="63.476562"
             xlink:href="#DejaVuSans-76"
             id="use1692"
             style="stroke-linecap:butt;stroke-linejoin:round" />
          <use
             x="119.18945"
             xlink:href="#DejaVuSans-83"
             id="use1694"
             style="stroke-linecap:butt;stroke-linejoin:round" />
          <use
             x="182.66602"
             xlink:href="#DejaVuSans-81"
             id="use1696"
             style="stroke-linecap:butt;stroke-linejoin:round" />
          <path
             d="M 281.04883,64.796875 V 37.40625 h 12.40625 q 6.89062,0 10.64062,3.5625 3.76563,3.5625 3.76563,10.15625 0,6.546875 -3.76563,10.109375 -3.75,3.5625 -10.64062,3.5625 z m -9.85938,8.109375 h 22.26563 q 12.26562,0 18.53125,-5.546875 6.28125,-5.546875 6.28125,-16.234375 0,-10.796875 -6.28125,-16.3125 -6.26563,-5.515625 -18.53125,-5.515625 H 281.04883 V 0 h -9.85938 z"
             id="use1698"
             style="stroke-linecap:butt;stroke-linejoin:round" />
        </g>
      </g>
    </g>
  </g>
</svg>
