<?xml version="1.0" encoding="UTF-8" standalone="no"?>
<!-- Created with matplotlib (https://matplotlib.org/) -->

<svg
   height="277.31436pt"
   version="1.1"
   viewBox="0 0 400 277.31437"
   width="400pt"
   id="svg188"
   sodipodi:docname="TGG119Prostate-time.svg"
   inkscape:version="1.3.2 (091e20e, 2023-11-25, custom)"
   xmlns:inkscape="http://www.inkscape.org/namespaces/inkscape"
   xmlns:sodipodi="http://sodipodi.sourceforge.net/DTD/sodipodi-0.dtd"
   xmlns:xlink="http://www.w3.org/1999/xlink"
   xmlns="http://www.w3.org/2000/svg"
   xmlns:svg="http://www.w3.org/2000/svg"
   xmlns:rdf="http://www.w3.org/1999/02/22-rdf-syntax-ns#"
   xmlns:cc="http://creativecommons.org/ns#"
   xmlns:dc="http://purl.org/dc/elements/1.1/">
  <sodipodi:namedview
     id="namedview188"
     pagecolor="#ffffff"
     bordercolor="#000000"
     borderopacity="0.25"
     inkscape:showpageshadow="2"
     inkscape:pageopacity="0.0"
     inkscape:pagecheckerboard="0"
     inkscape:deskcolor="#d1d1d1"
     inkscape:document-units="pt"
     inkscape:zoom="1.5158054"
     inkscape:cx="328.86807"
     inkscape:cy="148.7658"
     inkscape:window-width="1920"
     inkscape:window-height="1009"
     inkscape:window-x="3832"
     inkscape:window-y="-8"
     inkscape:window-maximized="1"
     inkscape:current-layer="svg188" />
  <metadata
     id="metadata1">
    <rdf:RDF>
      <cc:Work>
        <dc:type
           rdf:resource="http://purl.org/dc/dcmitype/StillImage" />
        <dc:date>2023-05-25T09:18:38.187230</dc:date>
        <dc:format>image/svg+xml</dc:format>
        <dc:creator>
          <cc:Agent>
            <dc:title>Matplotlib v3.3.2, https://matplotlib.org/</dc:title>
          </cc:Agent>
        </dc:creator>
      </cc:Work>
    </rdf:RDF>
  </metadata>
  <defs
     id="defs1">
    <style
       type="text/css"
       id="style1">*{stroke-linecap:butt;stroke-linejoin:round;}</style>
  </defs>
  <g
     id="patch_1">
    <path
       d="M 0,277.31437 H 488.35425 V 0 H 0 Z"
       style="fill:none"
       id="path1" />
  </g>
  <g
     id="matplotlib.axis_1">
    <g
       id="xtick_1">
      <g
         id="line2d_1">
        <defs
           id="defs2">
          <path
             d="M 0,0 V 3.5"
             id="m8764133d53"
             style="stroke:#000000;stroke-width:0.8" />
        </defs>
        <g
           id="g2">
          <use
             style="stroke:#000000;stroke-width:0.8"
             x="48.890354"
             xlink:href="#m8764133d53"
             y="239.75812"
             id="use2" />
        </g>
      </g>
      <g
         id="text_1">
        <!-- $\mathdefault{10^{-3}}$ -->
        <g
           transform="matrix(0.1,0,0,-0.1,37.140356,254.35656)"
           id="g6">
          <defs
             id="defs3">
            <path
               d="m 12.40625,8.296875 h 16.109375 v 55.625 L 10.984375,60.40625 v 8.984375 l 17.4375,3.515625 H 38.28125 V 8.296875 H 54.390625 V 0 H 12.40625 Z"
               id="DejaVuSans-49" />
            <path
               d="m 31.78125,66.40625 q -7.609375,0 -11.453125,-7.5 Q 16.5,51.421875 16.5,36.375 q 0,-14.984375 3.828125,-22.484375 3.84375,-7.5 11.453125,-7.5 7.671875,0 11.5,7.5 3.84375,7.5 3.84375,22.484375 0,15.046875 -3.84375,22.53125 -3.828125,7.5 -11.5,7.5 z m 0,7.8125 q 12.265625,0 18.734375,-9.703125 6.46875,-9.6875 6.46875,-28.140625 0,-18.40625 -6.46875,-28.109375 -6.46875,-9.6875 -18.734375,-9.6875 -12.25,0 -18.71875,9.6875 Q 6.59375,17.96875 6.59375,36.375 q 0,18.453125 6.46875,28.140625 6.46875,9.703125 18.71875,9.703125 z"
               id="DejaVuSans-48" />
            <path
               d="M 10.59375,35.5 H 73.1875 V 27.203125 H 10.59375 Z"
               id="DejaVuSans-8722" />
            <path
               d="M 40.578125,39.3125 Q 47.65625,37.796875 51.625,33 q 3.984375,-4.78125 3.984375,-11.8125 0,-10.78125 -7.421875,-16.703125 -7.421875,-5.90625 -21.09375,-5.90625 -4.578125,0 -9.4375,0.90625 -4.859375,0.90625 -10.03125,2.71875 v 9.515625 q 4.09375,-2.390625 8.96875,-3.609375 4.890625,-1.21875 10.21875,-1.21875 9.265625,0 14.125,3.65625 4.859375,3.65625 4.859375,10.640625 0,6.453125 -4.515625,10.078125 -4.515625,3.640625 -12.5625,3.640625 h -8.5 v 8.109375 h 8.890625 q 7.265625,0 11.125,2.90625 3.859375,2.90625 3.859375,8.375 0,5.609375 -3.984375,8.609375 -3.96875,3.015625 -11.390625,3.015625 -4.0625,0 -8.703125,-0.890625 Q 15.375,64.15625 9.8125,62.3125 v 8.78125 q 5.625,1.5625 10.53125,2.34375 4.90625,0.78125 9.25,0.78125 11.234375,0 17.765625,-5.109375 6.546875,-5.09375 6.546875,-13.78125 0,-6.0625 -3.46875,-10.234375 -3.46875,-4.171875 -9.859375,-5.78125 z"
               id="DejaVuSans-51" />
          </defs>
          <use
             transform="translate(0,0.765625)"
             xlink:href="#DejaVuSans-49"
             id="use3" />
          <use
             transform="translate(63.623047,0.765625)"
             xlink:href="#DejaVuSans-48"
             id="use4" />
          <use
             transform="matrix(0.7,0,0,0.7,128.20312,39.046875)"
             xlink:href="#DejaVuSans-8722"
             id="use5" />
          <use
             transform="matrix(0.7,0,0,0.7,186.85547,39.046875)"
             xlink:href="#DejaVuSans-51"
             id="use6" />
        </g>
      </g>
    </g>
    <g
       id="xtick_2">
      <g
         id="line2d_2">
        <g
           id="g7">
          <use
             style="stroke:#000000;stroke-width:0.8"
             x="124.53558"
             xlink:href="#m8764133d53"
             y="239.75812"
             id="use7" />
        </g>
      </g>
      <g
         id="text_2">
        <!-- $\mathdefault{10^{-2}}$ -->
        <g
           transform="matrix(0.1,0,0,-0.1,112.78557,254.35656)"
           id="g11">
          <defs
             id="defs7">
            <path
               d="M 19.1875,8.296875 H 53.609375 V 0 H 7.328125 v 8.296875 q 5.609375,5.8125 15.296875,15.59375 9.703125,9.796875 12.1875,12.640625 4.734375,5.3125 6.609375,9 1.890625,3.6875 1.890625,7.25 0,5.8125 -4.078125,9.46875 -4.078125,3.671875 -10.625,3.671875 -4.640625,0 -9.796875,-1.609375 -5.140625,-1.609375 -11,-4.890625 v 9.96875 Q 13.765625,71.78125 18.9375,73 q 5.1875,1.21875 9.484375,1.21875 11.328125,0 18.0625,-5.671875 6.734375,-5.65625 6.734375,-15.125 0,-4.5 -1.6875,-8.53125 Q 49.859375,40.875 45.40625,35.40625 44.1875,33.984375 37.640625,27.21875 31.109375,20.453125 19.1875,8.296875 Z"
               id="DejaVuSans-50" />
          </defs>
          <use
             transform="translate(0,0.765625)"
             xlink:href="#DejaVuSans-49"
             id="use8" />
          <use
             transform="translate(63.623047,0.765625)"
             xlink:href="#DejaVuSans-48"
             id="use9" />
          <use
             transform="matrix(0.7,0,0,0.7,128.20312,39.046875)"
             xlink:href="#DejaVuSans-8722"
             id="use10" />
          <use
             transform="matrix(0.7,0,0,0.7,186.85547,39.046875)"
             xlink:href="#DejaVuSans-50"
             id="use11" />
        </g>
      </g>
    </g>
    <g
       id="xtick_3">
      <g
         id="line2d_3">
        <g
           id="g12">
          <use
             style="stroke:#000000;stroke-width:0.8"
             x="200.18079"
             xlink:href="#m8764133d53"
             y="239.75812"
             id="use12" />
        </g>
      </g>
      <g
         id="text_3">
        <!-- $\mathdefault{10^{-1}}$ -->
        <g
           transform="matrix(0.1,0,0,-0.1,188.43079,254.35656)"
           id="g16">
          <use
             transform="translate(0,0.684375)"
             xlink:href="#DejaVuSans-49"
             id="use13" />
          <use
             transform="translate(63.623047,0.684375)"
             xlink:href="#DejaVuSans-48"
             id="use14" />
          <use
             transform="matrix(0.7,0,0,0.7,128.20312,38.965625)"
             xlink:href="#DejaVuSans-8722"
             id="use15" />
          <use
             transform="matrix(0.7,0,0,0.7,186.85547,38.965625)"
             xlink:href="#DejaVuSans-49"
             id="use16" />
        </g>
      </g>
    </g>
    <g
       id="xtick_4">
      <g
         id="line2d_4">
        <g
           id="g17">
          <use
             style="stroke:#000000;stroke-width:0.8"
             x="275.82602"
             xlink:href="#m8764133d53"
             y="239.75812"
             id="use17" />
        </g>
      </g>
      <g
         id="text_4">
        <!-- $\mathdefault{10^{0}}$ -->
        <g
           transform="matrix(0.1,0,0,-0.1,267.02601,254.35656)"
           id="g20">
          <use
             transform="translate(0,0.765625)"
             xlink:href="#DejaVuSans-49"
             id="use18" />
          <use
             transform="translate(63.623047,0.765625)"
             xlink:href="#DejaVuSans-48"
             id="use19" />
          <use
             transform="matrix(0.7,0,0,0.7,128.20312,39.046875)"
             xlink:href="#DejaVuSans-48"
             id="use20" />
        </g>
      </g>
    </g>
    <g
       id="xtick_5">
      <g
         id="line2d_5">
        <g
           id="g21">
          <use
             style="stroke:#000000;stroke-width:0.8"
             x="351.47122"
             xlink:href="#m8764133d53"
             y="239.75812"
             id="use21" />
        </g>
      </g>
      <g
         id="text_5">
        <!-- $\mathdefault{10^{1}}$ -->
        <g
           transform="matrix(0.1,0,0,-0.1,342.67123,254.35656)"
           id="g24">
          <use
             transform="translate(0,0.684375)"
             xlink:href="#DejaVuSans-49"
             id="use22" />
          <use
             transform="translate(63.623047,0.684375)"
             xlink:href="#DejaVuSans-48"
             id="use23" />
          <use
             transform="matrix(0.7,0,0,0.7,128.20312,38.965625)"
             xlink:href="#DejaVuSans-49"
             id="use24" />
        </g>
      </g>
    </g>
    <g
       id="xtick_6">
      <g
         id="line2d_6">
        <defs
           id="defs24">
          <path
             d="M 0,0 V 2"
             id="m737ebcc96f"
             style="stroke:#000000;stroke-width:0.6" />
        </defs>
        <g
           id="g25">
          <use
             style="stroke:#000000;stroke-width:0.6"
             x="71.661835"
             xlink:href="#m737ebcc96f"
             y="239.75812"
             id="use25" />
        </g>
      </g>
    </g>
    <g
       id="xtick_7">
      <g
         id="line2d_7">
        <g
           id="g26">
          <use
             style="stroke:#000000;stroke-width:0.6"
             x="84.9823"
             xlink:href="#m737ebcc96f"
             y="239.75812"
             id="use26" />
        </g>
      </g>
    </g>
    <g
       id="xtick_8">
      <g
         id="line2d_8">
        <g
           id="g27">
          <use
             style="stroke:#000000;stroke-width:0.6"
             x="94.433311"
             xlink:href="#m737ebcc96f"
             y="239.75812"
             id="use27" />
        </g>
      </g>
    </g>
    <g
       id="xtick_9">
      <g
         id="line2d_9">
        <g
           id="g28">
          <use
             style="stroke:#000000;stroke-width:0.6"
             x="101.76409"
             xlink:href="#m737ebcc96f"
             y="239.75812"
             id="use28" />
        </g>
      </g>
    </g>
    <g
       id="xtick_10">
      <g
         id="line2d_10">
        <g
           id="g29">
          <use
             style="stroke:#000000;stroke-width:0.6"
             x="107.75378"
             xlink:href="#m737ebcc96f"
             y="239.75812"
             id="use29" />
        </g>
      </g>
    </g>
    <g
       id="xtick_11">
      <g
         id="line2d_11">
        <g
           id="g30">
          <use
             style="stroke:#000000;stroke-width:0.6"
             x="112.81798"
             xlink:href="#m737ebcc96f"
             y="239.75812"
             id="use30" />
        </g>
      </g>
    </g>
    <g
       id="xtick_12">
      <g
         id="line2d_12">
        <g
           id="g31">
          <use
             style="stroke:#000000;stroke-width:0.6"
             x="117.2048"
             xlink:href="#m737ebcc96f"
             y="239.75812"
             id="use31" />
        </g>
      </g>
    </g>
    <g
       id="xtick_13">
      <g
         id="line2d_13">
        <g
           id="g32">
          <use
             style="stroke:#000000;stroke-width:0.6"
             x="121.07424"
             xlink:href="#m737ebcc96f"
             y="239.75812"
             id="use32" />
        </g>
      </g>
    </g>
    <g
       id="xtick_14">
      <g
         id="line2d_14">
        <g
           id="g33">
          <use
             style="stroke:#000000;stroke-width:0.6"
             x="147.30705"
             xlink:href="#m737ebcc96f"
             y="239.75812"
             id="use33" />
        </g>
      </g>
    </g>
    <g
       id="xtick_15">
      <g
         id="line2d_15">
        <g
           id="g34">
          <use
             style="stroke:#000000;stroke-width:0.6"
             x="160.62752"
             xlink:href="#m737ebcc96f"
             y="239.75812"
             id="use34" />
        </g>
      </g>
    </g>
    <g
       id="xtick_16">
      <g
         id="line2d_16">
        <g
           id="g35">
          <use
             style="stroke:#000000;stroke-width:0.6"
             x="170.07854"
             xlink:href="#m737ebcc96f"
             y="239.75812"
             id="use35" />
        </g>
      </g>
    </g>
    <g
       id="xtick_17">
      <g
         id="line2d_17">
        <g
           id="g36">
          <use
             style="stroke:#000000;stroke-width:0.6"
             x="177.40932"
             xlink:href="#m737ebcc96f"
             y="239.75812"
             id="use36" />
        </g>
      </g>
    </g>
    <g
       id="xtick_18">
      <g
         id="line2d_18">
        <g
           id="g37">
          <use
             style="stroke:#000000;stroke-width:0.6"
             x="183.39899"
             xlink:href="#m737ebcc96f"
             y="239.75812"
             id="use37" />
        </g>
      </g>
    </g>
    <g
       id="xtick_19">
      <g
         id="line2d_19">
        <g
           id="g38">
          <use
             style="stroke:#000000;stroke-width:0.6"
             x="188.4632"
             xlink:href="#m737ebcc96f"
             y="239.75812"
             id="use38" />
        </g>
      </g>
    </g>
    <g
       id="xtick_20">
      <g
         id="line2d_20">
        <g
           id="g39">
          <use
             style="stroke:#000000;stroke-width:0.6"
             x="192.85001"
             xlink:href="#m737ebcc96f"
             y="239.75812"
             id="use39" />
        </g>
      </g>
    </g>
    <g
       id="xtick_21">
      <g
         id="line2d_21">
        <g
           id="g40">
          <use
             style="stroke:#000000;stroke-width:0.6"
             x="196.71945"
             xlink:href="#m737ebcc96f"
             y="239.75812"
             id="use40" />
        </g>
      </g>
    </g>
    <g
       id="xtick_22">
      <g
         id="line2d_22">
        <g
           id="g41">
          <use
             style="stroke:#000000;stroke-width:0.6"
             x="222.95227"
             xlink:href="#m737ebcc96f"
             y="239.75812"
             id="use41" />
        </g>
      </g>
    </g>
    <g
       id="xtick_23">
      <g
         id="line2d_23">
        <g
           id="g42">
          <use
             style="stroke:#000000;stroke-width:0.6"
             x="236.27274"
             xlink:href="#m737ebcc96f"
             y="239.75812"
             id="use42" />
        </g>
      </g>
    </g>
    <g
       id="xtick_24">
      <g
         id="line2d_24">
        <g
           id="g43">
          <use
             style="stroke:#000000;stroke-width:0.6"
             x="245.72375"
             xlink:href="#m737ebcc96f"
             y="239.75812"
             id="use43" />
        </g>
      </g>
    </g>
    <g
       id="xtick_25">
      <g
         id="line2d_25">
        <g
           id="g44">
          <use
             style="stroke:#000000;stroke-width:0.6"
             x="253.05453"
             xlink:href="#m737ebcc96f"
             y="239.75812"
             id="use44" />
        </g>
      </g>
    </g>
    <g
       id="xtick_26">
      <g
         id="line2d_26">
        <g
           id="g45">
          <use
             style="stroke:#000000;stroke-width:0.6"
             x="259.04422"
             xlink:href="#m737ebcc96f"
             y="239.75812"
             id="use45" />
        </g>
      </g>
    </g>
    <g
       id="xtick_27">
      <g
         id="line2d_27">
        <g
           id="g46">
          <use
             style="stroke:#000000;stroke-width:0.6"
             x="264.10843"
             xlink:href="#m737ebcc96f"
             y="239.75812"
             id="use46" />
        </g>
      </g>
    </g>
    <g
       id="xtick_28">
      <g
         id="line2d_28">
        <g
           id="g47">
          <use
             style="stroke:#000000;stroke-width:0.6"
             x="268.49524"
             xlink:href="#m737ebcc96f"
             y="239.75812"
             id="use47" />
        </g>
      </g>
    </g>
    <g
       id="xtick_29">
      <g
         id="line2d_29">
        <g
           id="g48">
          <use
             style="stroke:#000000;stroke-width:0.6"
             x="272.36469"
             xlink:href="#m737ebcc96f"
             y="239.75812"
             id="use48" />
        </g>
      </g>
    </g>
    <g
       id="xtick_30">
      <g
         id="line2d_30">
        <g
           id="g49">
          <use
             style="stroke:#000000;stroke-width:0.6"
             x="298.5975"
             xlink:href="#m737ebcc96f"
             y="239.75812"
             id="use49" />
        </g>
      </g>
    </g>
    <g
       id="xtick_31">
      <g
         id="line2d_31">
        <g
           id="g50">
          <use
             style="stroke:#000000;stroke-width:0.6"
             x="311.91794"
             xlink:href="#m737ebcc96f"
             y="239.75812"
             id="use50" />
        </g>
      </g>
    </g>
    <g
       id="xtick_32">
      <g
         id="line2d_32">
        <g
           id="g51">
          <use
             style="stroke:#000000;stroke-width:0.6"
             x="321.36896"
             xlink:href="#m737ebcc96f"
             y="239.75812"
             id="use51" />
        </g>
      </g>
    </g>
    <g
       id="xtick_33">
      <g
         id="line2d_33">
        <g
           id="g52">
          <use
             style="stroke:#000000;stroke-width:0.6"
             x="328.69974"
             xlink:href="#m737ebcc96f"
             y="239.75812"
             id="use52" />
        </g>
      </g>
    </g>
    <g
       id="xtick_34">
      <g
         id="line2d_34">
        <g
           id="g53">
          <use
             style="stroke:#000000;stroke-width:0.6"
             x="334.68942"
             xlink:href="#m737ebcc96f"
             y="239.75812"
             id="use53" />
        </g>
      </g>
    </g>
    <g
       id="xtick_35">
      <g
         id="line2d_35">
        <g
           id="g54">
          <use
             style="stroke:#000000;stroke-width:0.6"
             x="339.75363"
             xlink:href="#m737ebcc96f"
             y="239.75812"
             id="use54" />
        </g>
      </g>
    </g>
    <g
       id="xtick_36">
      <g
         id="line2d_36">
        <g
           id="g55">
          <use
             style="stroke:#000000;stroke-width:0.6"
             x="344.14044"
             xlink:href="#m737ebcc96f"
             y="239.75812"
             id="use55" />
        </g>
      </g>
    </g>
    <g
       id="xtick_37">
      <g
         id="line2d_37">
        <g
           id="g56">
          <use
             style="stroke:#000000;stroke-width:0.6"
             x="348.00989"
             xlink:href="#m737ebcc96f"
             y="239.75812"
             id="use56" />
        </g>
      </g>
    </g>
    <g
       id="xtick_38">
      <g
         id="line2d_38">
        <g
           id="g57">
          <use
             style="stroke:#000000;stroke-width:0.6"
             x="374.24271"
             xlink:href="#m737ebcc96f"
             y="239.75812"
             id="use57" />
        </g>
      </g>
    </g>
    <g
       id="text_6">
      <!-- time (s) -->
      <g
         transform="matrix(0.1,0,0,-0.1,193.48672,268.03469)"
         id="g65">
        <defs
           id="defs57">
          <path
             d="M 18.3125,70.21875 V 54.6875 h 18.5 v -6.984375 h -18.5 v -29.6875 q 0,-6.6875 1.828125,-8.59375 1.828125,-1.90625 7.453125,-1.90625 H 36.8125 V 0 H 27.59375 Q 17.1875,0 13.234375,3.875 9.28125,7.765625 9.28125,18.015625 v 29.6875 H 2.6875 V 54.6875 h 6.59375 v 15.53125 z"
             id="DejaVuSans-116" />
          <path
             d="M 9.421875,54.6875 H 18.40625 V 0 H 9.421875 Z m 0,21.296875 H 18.40625 V 64.59375 H 9.421875 Z"
             id="DejaVuSans-105" />
          <path
             d="M 52,44.1875 Q 55.375,50.25 60.0625,53.125 64.75,56 71.09375,56 q 8.546875,0 13.1875,-5.984375 4.640625,-5.96875 4.640625,-17 V 0 h -9.03125 v 32.71875 q 0,7.859375 -2.796875,11.65625 -2.78125,3.8125 -8.484375,3.8125 -6.984375,0 -11.046875,-4.640625 -4.046875,-4.625 -4.046875,-12.640625 V 0 h -9.03125 v 32.71875 q 0,7.90625 -2.78125,11.6875 -2.78125,3.78125 -8.59375,3.78125 -6.890625,0 -10.953125,-4.65625 -4.046875,-4.65625 -4.046875,-12.625 V 0 h -9.03125 v 54.6875 h 9.03125 v -8.5 q 3.078125,5.03125 7.375,7.421875 Q 29.78125,56 35.6875,56 41.65625,56 45.828125,52.96875 50,49.953125 52,44.1875 Z"
             id="DejaVuSans-109" />
          <path
             d="m 56.203125,29.59375 v -4.390625 h -41.3125 q 0.59375,-9.28125 5.59375,-14.140625 5,-4.859375 13.9375,-4.859375 5.171875,0 10.03125,1.265625 4.859375,1.265625 9.65625,3.8125 v -8.5 q -4.84375,-2.046875 -9.921875,-3.125 -5.078125,-1.078125 -10.296875,-1.078125 -13.09375,0 -20.734375,7.609375 -7.640625,7.625 -7.640625,20.625 0,13.421875 7.25,21.296875 Q 20.015625,56 32.328125,56 q 11.03125,0 17.453125,-7.109375 6.421875,-7.09375 6.421875,-19.296875 z m -8.984375,2.640625 q -0.09375,7.359375 -4.125,11.75 -4.03125,4.40625 -10.671875,4.40625 -7.515625,0 -12.03125,-4.25 -4.515625,-4.25 -5.203125,-11.96875 z"
             id="DejaVuSans-101" />
          <path
             id="DejaVuSans-32"
             d="" />
          <path
             d="M 31,75.875 Q 24.46875,64.65625 21.28125,53.65625 18.109375,42.671875 18.109375,31.390625 18.109375,20.125 21.3125,9.0625 24.515625,-2 31,-13.1875 H 23.1875 Q 15.875,-1.703125 12.234375,9.375 8.59375,20.453125 8.59375,31.390625 q 0,10.890625 3.609375,21.921875 3.625,11.046875 10.984375,22.5625 z"
             id="DejaVuSans-40" />
          <path
             d="m 44.28125,53.078125 v -8.5 Q 40.484375,46.53125 36.375,47.5 q -4.09375,0.984375 -8.5,0.984375 -6.6875,0 -10.03125,-2.046875 Q 14.5,44.390625 14.5,40.28125 q 0,-3.125 2.390625,-4.90625 2.390625,-1.78125 9.625,-3.390625 l 3.078125,-0.6875 Q 39.15625,29.25 43.1875,25.515625 47.21875,21.78125 47.21875,15.09375 q 0,-7.625 -6.03125,-12.078125 -6.03125,-4.4375 -16.578125,-4.4375 -4.390625,0 -9.15625,0.859375 Q 10.6875,0.296875 5.421875,2 v 9.28125 q 4.984375,-2.59375 9.8125,-3.890625 4.828125,-1.28125 9.578125,-1.28125 6.34375,0 9.75,2.171875 3.421875,2.171875 3.421875,6.125 0,3.65625 -2.46875,5.609375 -2.453125,1.953125 -10.8125,3.765625 l -3.125,0.734375 q -8.34375,1.75 -12.0625,5.390625 -3.703125,3.640625 -3.703125,9.984375 0,7.71875 5.46875,11.90625 Q 16.75,56 26.8125,56 q 4.96875,0 9.359375,-0.734375 4.40625,-0.71875 8.109375,-2.1875 z"
             id="DejaVuSans-115" />
          <path
             d="m 8.015625,75.875 h 7.8125 q 7.3125,-11.515625 10.953125,-22.5625 3.640625,-11.03125 3.640625,-21.921875 0,-10.9375 -3.640625,-22.015625 -3.640625,-11.078125 -10.953125,-22.5625 h -7.8125 Q 14.5,-2 17.703125,9.0625 20.90625,20.125 20.90625,31.390625 q 0,11.28125 -3.203125,22.265625 -3.203125,11 -9.6875,22.21875 z"
             id="DejaVuSans-41" />
        </defs>
        <use
           xlink:href="#DejaVuSans-116"
           id="use58" />
        <use
           x="39.208984"
           xlink:href="#DejaVuSans-105"
           id="use59" />
        <use
           x="66.992188"
           xlink:href="#DejaVuSans-109"
           id="use60" />
        <use
           x="164.4043"
           xlink:href="#DejaVuSans-101"
           id="use61" />
        <use
           x="225.92773"
           xlink:href="#DejaVuSans-32"
           id="use62" />
        <use
           x="257.71484"
           xlink:href="#DejaVuSans-40"
           id="use63" />
        <use
           x="296.72852"
           xlink:href="#DejaVuSans-115"
           id="use64" />
        <use
           x="348.82812"
           xlink:href="#DejaVuSans-41"
           id="use65" />
      </g>
    </g>
  </g>
  <g
     id="matplotlib.axis_2">
    <g
       id="ytick_1">
      <g
         id="line2d_39">
        <defs
           id="defs65">
          <path
             d="M 0,0 H -3.5"
             id="m48f0175aac"
             style="stroke:#000000;stroke-width:0.8" />
        </defs>
        <g
           id="g66">
          <use
             style="stroke:#000000;stroke-width:0.8"
             x="45.478127"
             xlink:href="#m48f0175aac"
             y="163.30803"
             id="use66" />
        </g>
      </g>
      <g
         id="text_7">
        <!-- $\mathdefault{10^{6}}$ -->
        <g
           transform="matrix(0.1,0,0,-0.1,20.878125,167.10725)"
           id="g69">
          <defs
             id="defs66">
            <path
               d="m 33.015625,40.375 q -6.640625,0 -10.53125,-4.546875 -3.875,-4.53125 -3.875,-12.4375 0,-7.859375 3.875,-12.4375 3.890625,-4.5625 10.53125,-4.5625 6.640625,0 10.515625,4.5625 3.875,4.578125 3.875,12.4375 0,7.90625 -3.875,12.4375 Q 39.65625,40.375 33.015625,40.375 Z M 52.59375,71.296875 V 62.3125 q -3.71875,1.75 -7.5,2.671875 -3.78125,0.9375 -7.5,0.9375 -9.765625,0 -14.921875,-6.59375 -5.140625,-6.59375 -5.875,-19.921875 2.875,4.25 7.21875,6.515625 4.359375,2.265625 9.578125,2.265625 10.984375,0 17.359375,-6.671875 6.375,-6.65625 6.375,-18.125 0,-11.234375 -6.640625,-18.03125 -6.640625,-6.78125 -17.671875,-6.78125 -12.65625,0 -19.34375,9.6875 -6.6875,9.703125 -6.6875,28.109375 0,17.28125 8.203125,27.5625 8.203125,10.28125 22.015625,10.28125 3.71875,0 7.5,-0.734375 3.78125,-0.734375 7.890625,-2.1875 z"
               id="DejaVuSans-54" />
          </defs>
          <use
             transform="translate(0,0.765625)"
             xlink:href="#DejaVuSans-49"
             id="use67" />
          <use
             transform="translate(63.623047,0.765625)"
             xlink:href="#DejaVuSans-48"
             id="use68" />
          <use
             transform="matrix(0.7,0,0,0.7,128.20312,39.046875)"
             xlink:href="#DejaVuSans-54"
             id="use69" />
        </g>
      </g>
    </g>
    <g
       id="ytick_2">
      <g
         id="line2d_40">
        <defs
           id="defs69">
          <path
             d="M 0,0 H -2"
             id="m254e496a1f"
             style="stroke:#000000;stroke-width:0.6" />
        </defs>
        <g
           id="g70">
          <use
             style="stroke:#000000;stroke-width:0.6"
             x="45.478127"
             xlink:href="#m254e496a1f"
             y="237.40059"
             id="use70" />
        </g>
      </g>
    </g>
    <g
       id="ytick_3">
      <g
         id="line2d_41">
        <g
           id="g71">
          <use
             style="stroke:#000000;stroke-width:0.6"
             x="45.478127"
             xlink:href="#m254e496a1f"
             y="219.69662"
             id="use71" />
        </g>
      </g>
    </g>
    <g
       id="ytick_4">
      <g
         id="line2d_42">
        <g
           id="g72">
          <use
             style="stroke:#000000;stroke-width:0.6"
             x="45.478127"
             xlink:href="#m254e496a1f"
             y="205.96436"
             id="use72" />
        </g>
      </g>
    </g>
    <g
       id="ytick_5">
      <g
         id="line2d_43">
        <g
           id="g73">
          <use
             style="stroke:#000000;stroke-width:0.6"
             x="45.478127"
             xlink:href="#m254e496a1f"
             y="194.74428"
             id="use73" />
        </g>
      </g>
    </g>
    <g
       id="ytick_6">
      <g
         id="line2d_44">
        <g
           id="g74">
          <use
             style="stroke:#000000;stroke-width:0.6"
             x="45.478127"
             xlink:href="#m254e496a1f"
             y="185.25783"
             id="use74" />
        </g>
      </g>
    </g>
    <g
       id="ytick_7">
      <g
         id="line2d_45">
        <g
           id="g75">
          <use
             style="stroke:#000000;stroke-width:0.6"
             x="45.478127"
             xlink:href="#m254e496a1f"
             y="177.0403"
             id="use75" />
        </g>
      </g>
    </g>
    <g
       id="ytick_8">
      <g
         id="line2d_46">
        <g
           id="g76">
          <use
             style="stroke:#000000;stroke-width:0.6"
             x="45.478127"
             xlink:href="#m254e496a1f"
             y="169.79192"
             id="use76" />
        </g>
      </g>
    </g>
    <g
       id="ytick_9">
      <g
         id="line2d_47">
        <g
           id="g77">
          <use
             style="stroke:#000000;stroke-width:0.6"
             x="45.478127"
             xlink:href="#m254e496a1f"
             y="120.65171"
             id="use77" />
        </g>
      </g>
    </g>
    <g
       id="ytick_10">
      <g
         id="line2d_48">
        <g
           id="g78">
          <use
             style="stroke:#000000;stroke-width:0.6"
             x="45.478127"
             xlink:href="#m254e496a1f"
             y="95.699364"
             id="use78" />
        </g>
      </g>
    </g>
    <g
       id="ytick_11">
      <g
         id="line2d_49">
        <g
           id="g79">
          <use
             style="stroke:#000000;stroke-width:0.6"
             x="45.478127"
             xlink:href="#m254e496a1f"
             y="77.995392"
             id="use79" />
        </g>
      </g>
    </g>
    <g
       id="ytick_12">
      <g
         id="line2d_50">
        <g
           id="g80">
          <use
             style="stroke:#000000;stroke-width:0.6"
             x="45.478127"
             xlink:href="#m254e496a1f"
             y="64.263123"
             id="use80" />
        </g>
      </g>
    </g>
    <g
       id="ytick_13">
      <g
         id="line2d_51">
        <g
           id="g81">
          <use
             style="stroke:#000000;stroke-width:0.6"
             x="45.478127"
             xlink:href="#m254e496a1f"
             y="53.043041"
             id="use81" />
        </g>
      </g>
    </g>
    <g
       id="ytick_14">
      <g
         id="line2d_52">
        <g
           id="g82">
          <use
             style="stroke:#000000;stroke-width:0.6"
             x="45.478127"
             xlink:href="#m254e496a1f"
             y="43.556599"
             id="use82" />
        </g>
      </g>
    </g>
    <g
       id="ytick_15">
      <g
         id="line2d_53">
        <g
           id="g83">
          <use
             style="stroke:#000000;stroke-width:0.6"
             x="45.478127"
             xlink:href="#m254e496a1f"
             y="35.339069"
             id="use83" />
        </g>
      </g>
    </g>
    <g
       id="ytick_16">
      <g
         id="line2d_54">
        <g
           id="g84">
          <use
             style="stroke:#000000;stroke-width:0.6"
             x="45.478127"
             xlink:href="#m254e496a1f"
             y="28.090693"
             id="use84" />
        </g>
      </g>
    </g>
    <g
       id="text_8">
      <!-- cost -->
      <g
         transform="matrix(0,-0.1,-0.1,0,14.798438,141.41156)"
         id="g88">
        <defs
           id="defs84">
          <path
             d="M 48.78125,52.59375 V 44.1875 q -3.8125,2.109375 -7.640625,3.15625 -3.828125,1.046875 -7.734375,1.046875 -8.75,0 -13.59375,-5.546875 -4.828125,-5.53125 -4.828125,-15.546875 0,-10.015625 4.828125,-15.5625 4.84375,-5.53125 13.59375,-5.53125 3.90625,0 7.734375,1.046875 3.828125,1.046875 7.640625,3.15625 v -8.3125 q -3.765625,-1.75 -7.796875,-2.625 -4.015625,-0.890625 -8.5625,-0.890625 -12.359375,0 -19.640625,7.765625 -7.265625,7.765625 -7.265625,20.953125 0,13.375 7.34375,21.03125 Q 20.21875,56 33.015625,56 q 4.140625,0 8.09375,-0.859375 3.953125,-0.84375 7.671875,-2.546875 z"
             id="DejaVuSans-99" />
          <path
             d="m 30.609375,48.390625 q -7.21875,0 -11.421875,-5.640625 -4.203125,-5.640625 -4.203125,-15.453125 0,-9.8125 4.171875,-15.453125 4.1875,-5.640625 11.453125,-5.640625 7.1875,0 11.375,5.65625 4.203125,5.671875 4.203125,15.4375 0,9.71875 -4.203125,15.40625 -4.1875,5.6875 -11.375,5.6875 z m 0,7.609375 q 11.71875,0 18.40625,-7.625 6.703125,-7.609375 6.703125,-21.078125 0,-13.421875 -6.703125,-21.078125 -6.6875,-7.640625 -18.40625,-7.640625 -11.765625,0 -18.4375,7.640625 -6.65625,7.65625 -6.65625,21.078125 0,13.46875 6.65625,21.078125 Q 18.84375,56 30.609375,56 Z"
             id="DejaVuSans-111" />
        </defs>
        <use
           xlink:href="#DejaVuSans-99"
           id="use85" />
        <use
           x="54.980469"
           xlink:href="#DejaVuSans-111"
           id="use86" />
        <use
           x="116.16211"
           xlink:href="#DejaVuSans-115"
           id="use87" />
        <use
           x="168.26172"
           xlink:href="#DejaVuSans-116"
           id="use88" />
      </g>
    </g>
  </g>
  <g
     id="patch_3">
    <path
       d="M 45.478125,239.75812 V 22.318125"
       style="fill:none;stroke:#000000;stroke-width:0.8;stroke-linecap:square;stroke-linejoin:miter"
       id="path101" />
  </g>
  <g
     id="patch_4">
    <path
       d="M 380.27812,239.75812 V 22.318125"
       style="fill:none;stroke:#000000;stroke-width:0.8;stroke-linecap:square;stroke-linejoin:miter"
       id="path102" />
  </g>
  <g
     id="patch_5">
    <path
       d="M 45.478125,239.75812 H 380.27812"
       style="fill:none;stroke:#000000;stroke-width:0.8;stroke-linecap:square;stroke-linejoin:miter"
       id="path103" />
  </g>
  <g
     id="patch_6">
    <path
       d="M 45.478125,22.318125 H 380.27812"
       style="fill:none;stroke:#000000;stroke-width:0.8;stroke-linecap:square;stroke-linejoin:miter"
       id="path104" />
  </g>
  <defs
     id="defs188">
    <clipPath
       id="p8121431e4d">
      <rect
         height="217.44"
         width="334.79999"
         x="45.478127"
         y="22.318125"
         id="rect188" />
    </clipPath>
  </defs>
  <g
     id="g1"
     transform="matrix(0.95774451,0,0,1,11.842628,0)"
     style="stroke-width:1.02182">
    <path
       fill="none"
       stroke-width="1.53272"
       stroke-linecap="square"
       stroke-linejoin="round"
       stroke="#1f77b4"
       stroke-opacity="1"
       stroke-miterlimit="10"
       d="m 57.051536,38.971358 39.017562,1.639268 11.775162,1.250399 8.57273,1.196763 6.79185,1.226936 5.65855,1.186705 4.75429,0.828009 4.11855,1.347614 3.64469,1.659384 13.35466,3.228246 7.25385,1.652672 2.9892,1.716367 2.08099,1.776706 7.21436,3.76461 1.53606,2.024773 1.38996,2.11864 1.28334,2.222566 2.16392,4.793762 1.97043,5.34353 1.85985,6.034103 1.76115,6.939219 1.69795,8.122569 1.60715,9.765191 2.23104,16.44963 0.71472,4.01603 1.5795,6.22183 0.75026,2.12534 2.14023,5.34689 1.35836,3.50648 0.59626,1.75325 1.43734,3.34557 2.7128,7.15376 1.59134,3.82831 1.70586,3.47296 2.15601,4.31438 4.24885,9.15508 2.0652,3.91546 3.68023,4.9379 1.29519,2.35666 1.03458,1.40795 0.76605,0.70063 1.29124,1.12301 1.4255,1.48171 1.50842,1.09955 0.65154,0.49613 3.26956,2.90643 2.25869,0.99563 1.77693,0.27153 0.84109,0.41233 2.19945,1.49177 1.84011,0.8146 0.34355,0.48943 1.20436,2.20581 0.33959,0.34863 0.55678,0.2246 1.58345,0.15421 0.56072,0.12739 0.36328,-0.0603 1.01878,-0.53301 0.35539,0.27824 0.75816,1.29732 0.97138,1.52864 0.83714,0.85818 0.49755,0.15086 0.50938,0.10728 0.52124,0.42909 0.68708,0.71403 0.66734,0.33858 0.23693,-0.0268 0.23692,-0.16762 0.462,-0.7308 0.35933,-0.43579 0.25272,-0.01 0.4936,0.34863 0.51334,0.60676 1.24385,1.88064 0.27247,0.14079 0.28036,-0.0637 0.462,-0.295 0.21323,0.0402 0.35934,0.27154 0.54097,0.73414 0.39093,0.46597 0.30011,0.0268 0.43435,-0.24806 0.60812,-0.48273 0.21718,0.0302 0.51333,0.41233 0.46596,0.32182 0.76211,0.13073"
       id="path104-5"
       style="stroke-linecap:butt;stroke-linejoin:round" />
    <path
       fill="none"
       stroke-width="1.53272"
       stroke-linecap="square"
       stroke-linejoin="round"
       stroke="#ff7f0e"
       stroke-opacity="1"
       stroke-miterlimit="10"
       d="m 46.00294,38.971358 226.48827,0.01004"
       id="path105"
       style="stroke-linecap:butt;stroke-linejoin:round" />
    <path
       fill="none"
       stroke-width="1.53272"
       stroke-linecap="square"
       stroke-linejoin="round"
       stroke="#2ca02c"
       stroke-opacity="1"
       stroke-miterlimit="10"
       d="m 70.805013,38.971358 36.948437,18.199522 18.79208,28.886592 12.07922,45.007698 9.06237,-31.568416 6.90635,-36.278358 5.41769,20.71708 4.71875,-4.512165 4.237,11.763146 3.98034,16.540143 3.38013,-0.85483 3.03263,-3.81154 2.81546,4.67308 2.40874,6.96938 1.87565,4.59933 1.68612,6.07098 2.09283,8.95394 1.97832,6.96268 1.84407,1.20347 1.7493,-1.60909 1.65452,1.54204 1.69797,8.40752 1.54,13.02025 1.50053,5.8028 1.51236,-5.03513 1.29519,-3.13103 1.35443,4.76024 1.55185,11.25024 1.18068,7.04314 1.33467,-0.29835 0.83714,-3.00364 0.6397,2.6483 1.04247,14.24383 0.49754,0.66711 0.46595,-1.92085 0.46595,-0.56319 1.76114,13.43929 0.40673,-0.067 0.40276,-0.72074 0.40673,2.4941 0.45016,3.77802 0.38697,1.68954 0.39093,0.0637 0.38697,0.33858 0.7937,2.69188 0.37513,1.33086 0.35934,0.77438 0.35538,0.20113 0.35145,0.42239 0.69498,1.67949 0.34353,0.84142 0.72657,0.38216 0.69498,1.52529 1.03458,0.79784 0.65944,0.59 0.63574,0.54308 1.04247,0.28494 0.75422,0.49613 0.39487,0.29165 0.83319,0.0402 0.80159,0.4291 1.25571,0.14079 0.87661,-0.12069 0.87267,-0.38551 0.45411,0.003 0.44621,0.33188 0.45805,0.57324 0.46202,-0.01 0.47779,-0.11398 0.77396,-0.5263 0.30799,0.25477 0.36329,0.0302 0.33169,-0.61011 0.23693,-1.30068 0.27246,-0.67381 0.30801,0.295 0.29616,0.59671 0.25666,0.0972 0.25272,-0.0335 0.44226,0.49949 0.36329,0.11063 0.18954,-0.2816 0.35933,-0.90176 0.37118,1.51188 0.1856,-0.41234 0.35538,-2.06835 0.40672,2.54773 0.20534,-0.34193 0.19743,-0.93193 h 0.19744 l 0.20534,0.54977 0.20138,-0.35198 0.19349,-0.98557 0.19744,-0.13745 0.84503,2.33319 0.38698,-0.15756 0.23298,0.3654 0.24087,0.12739 0.462,-0.12739 0.48964,0.61346 0.26063,-0.0771 0.25666,-0.22125 0.27246,0.11398 0.60021,0.47938 0.28826,-0.057 0.88848,-0.50619 0.92005,0.047 0.61995,-0.45591 0.30405,-0.0436 0.61601,0.3654 1.15698,-2.57791 0.29221,0.30171 0.24877,0.50619 0.24088,-0.003 0.24876,-0.38887 0.92401,-2.56784 0.28826,0.72744 0.59626,2.21921 0.28431,0.20449 0.28431,-0.18102 0.29221,0.31511 0.27641,0.46932 0.28036,0.007 0.20533,-0.6671 0.26852,-0.47602 0.28036,0.26148 0.54493,1.08613 0.19744,-0.1542 0.19348,-0.36205 0.25272,-0.14415 0.46991,0.0302 0.78975,-0.25477 0.24481,-0.25477 0.73842,-1.6091 0.23693,-0.0503 0.24087,0.2883 0.25272,0.48943 0.46596,1.38785 0.23692,0.24472 0.42251,-0.36205 0.45016,0.15756 0.22508,-0.47267 0.40278,-1.29063 0.16979,0.24806 0.34749,0.84143 0.31985,-0.79785 0.12635,0.10727 0.41857,0.85149 0.42252,0.0469 0.42647,1.04927 0.20533,0.64363 0.20928,0.12404 0.41857,-0.67717 0.20533,-0.16091 0.51729,0.64699 0.154,-0.0939 0.48965,-1.06268 0.26456,-0.47267 0.1698,-0.0134 0.66733,0.84812 0.15401,0.40563 0.15795,0.0939 0.15005,-0.39223 0.78185,-4.10319 0.1698,-0.67715 0.26852,0.72744 0.14215,-0.0603 0.15005,0.15756 0.31195,1.49176 0.28826,1.36773 0.50544,-0.59335 0.47385,1.05932 0.16585,-0.38216 0.80555,-4.60938 0.18558,0.51625 0.48964,4.07637 0.16586,0.17097 0.34749,-1.64933 0.15399,0.31176 0.25668,1.95103 0.43435,-1.28727 0.29222,1.06602 0.15399,-0.12739 0.47781,-2.61477 0.17374,0.01 0.41856,4.01268 0.13031,-0.15421 0.23693,-1.74654 0.11451,0.003 0.21323,1.33421 0.11846,0.01 0.12242,-0.0972 0.1303,0.0637 0.39883,1.00903 0.1382,-0.15085 0.28431,0.0872 0.13032,0.10057"
       id="path106"
       style="stroke-linecap:butt;stroke-linejoin:round" />
    <path
       fill="none"
       stroke-width="1.53272"
       stroke-linecap="square"
       stroke-linejoin="round"
       stroke="#d62728"
       stroke-opacity="1"
       stroke-miterlimit="10"
       d="m 80.961195,38.971358 38.219915,0.479373 16.5571,0.499489 17.59957,0.958754 11.04069,1.015746 4.56476,0.519595 7.28938,1.07273 9.97058,2.242682 4.41866,1.166589 7.22225,2.443814 3.11951,1.277218 4.54106,2.004665 3.75526,2.108582 3.41566,2.235971 2.04545,1.56216 1.85592,1.625854 1.86776,1.689549 2.54694,2.66841 2.39688,2.849443 1.47684,2.004657 2.10468,3.188023 1.93884,3.442791 1.81247,3.721024 1.22806,2.65836 1.4018,4.307678 3.20244,11.920708 0.92796,4.046197 0.84108,4.42501 3.80658,19.77509 1.6032,5.61842 1.53212,4.57251 3.09581,8.08905 0.82134,3.34892 0.85688,3.6674 0.66734,2.20245 1.30703,4.95467 1.04642,3.50983 1.93489,4.65967 0.95954,1.7633 1.24385,1.83369 1.14909,1.15654 3.2972,2.90643 2.42058,1.28057 1.9033,0.50619 1.46894,0.1408 1.14119,-0.12068 2.05729,-0.68722 2.43243,-0.74086 1.17672,-0.46931 1.55976,-0.5766 4.41075,-2.17898"
       id="path107"
       style="stroke-linecap:butt;stroke-linejoin:round" />
    <path
       fill="none"
       stroke-width="1.53272"
       stroke-linecap="square"
       stroke-linejoin="round"
       stroke="#9467bd"
       stroke-opacity="1"
       stroke-miterlimit="10"
       d="m 77.024295,38.971358 38.989925,18.199522 17.24417,28.886592 11.09993,44.947358 8.16206,-39.634001 6.26667,1.126366 5.12152,6.198367 4.5766,6.620748 3.38802,14.4852 3.73157,14.22037 3.27746,1.91079 3.00894,-1.91079 2.85889,0.70397 2.02967,1.20012 1.81641,1.8404 2.15208,5.56143 2.07309,9.85906 1.88355,10.42894 1.78484,4.38478 1.78087,-1.56552 1.67033,-2.25608 1.53606,0.97216 1.65847,4.82393 1.4413,8.15944 1.46498,9.30593 1.31494,5.04518 1.23201,0.11063 1.20436,-2.63824 1.14908,-1.30404 1.08591,3.0137 1.00299,6.4632 0.99903,5.12898 0.97139,1.81358 0.9477,-0.19443 0.89636,-0.96545 0.88452,-0.16427 0.89636,2.03819 1.70981,6.24865 0.83713,1.56551 0.82134,0.74085 0.78975,0.15421 0.77396,0.0503 0.74236,0.29164 0.73052,0.86825 1.44525,2.39017 0.69498,1.14313 0.68313,0.82131 0.52518,0.42573 1.2557,0.33188 0.616,0.4358 1.78089,1.71637 1.69796,1.04256 1.08196,0.48272 1.30308,0.93529 1.00694,0.39892 1.85196,0.7241 2.13232,0.76767 2.47192,0.81795 1.58739,0.44921 4.01193,0.99897 5.88758,0.84478 6.40882,0.71068 1.05827,0.12403 1.42154,0.24472 2.50351,0.30842 3.06027,0.23465 3.03659,0.22796 3.09187,0.23466 2.48376,0.18437 2.9813,0.33523"
       id="path108"
       style="stroke-linecap:butt;stroke-linejoin:round" />
    <path
       fill="none"
       stroke-width="1.53272"
       stroke-linecap="square"
       stroke-linejoin="round"
       stroke="#8c564b"
       stroke-opacity="1"
       stroke-miterlimit="10"
       d="m 53.837254,38.971358 209.169076,0.0034"
       id="path109"
       style="stroke-linecap:butt;stroke-linejoin:round" />
    <path
       fill="none"
       stroke-width="1.53272"
       stroke-linecap="square"
       stroke-linejoin="round"
       stroke="#e377c2"
       stroke-opacity="1"
       stroke-miterlimit="10"
       d="m 57.102869,38.971358 h 33.611733 l 16.118778,61.142212 11.32896,-3.29864 9.25191,2.316426 13.8601,5.980464 4.52526,2.36001 11.66066,6.59058 3.29325,2.22927 13.11379,10.62672 2.16786,2.03819 6.09291,6.37938 1.81643,2.60807 3.59337,4.35797 3.22217,5.49438 1.54791,2.11529 1.64662,2.47398 1.73351,2.2125 1.59135,1.75996 1.41364,2.41028 1.52027,2.15887 4.18172,6.83194 1.20437,2.24938 1.22017,1.55546 1.12539,1.66608 1.07406,1.87058 4.40679,6.26205 1.98228,2.56785 2.99709,2.82597 0.92796,1.03921 4.41075,4.13001 1.16489,0.75761 1.01877,0.8079 3.34854,2.24938 1.0938,0.75761 1.60319,1.49512 6.10476,5.75251 5.10968,5.11893 1.47684,1.11295 2.50744,2.21251 1.23992,0.99898 1.58344,1.5387 1.22411,0.83472 1.08196,0.90176 5.65855,4.55574 2.11258,1.31075 1.67427,1.19341 3.54203,2.12199 1.78878,0.79114 1.1096,0.42239 2.92996,0.85818 1.55976,0.52295 2.39294,0.61012 1.38207,0.29165 4.237,0.68051 4.09486,0.45591 1.74534,0.43244 4.00403,0.44921 2.62591,0.22795 2.42058,0.29836 3.33669,0.67045 4.26465,0.52631"
       id="path110"
       style="stroke-linecap:butt;stroke-linejoin:round" />
    <path
       fill="none"
       stroke-width="1.53272"
       stroke-linecap="square"
       stroke-linejoin="round"
       stroke="#7f7f7f"
       stroke-opacity="1"
       stroke-miterlimit="10"
       d="m 46.085862,38.971358 47.894355,18.199522 17.816743,18.63197 9.19663,17.659801 5.93891,-68.01774 6.4878,28.169202 5.60722,10.321664 4.78983,5.672061 3.66838,14.753375 2.75228,24.887317 2.46007,23.53301 2.74043,11.46814 2.45217,4.80717 2.46797,3.02376 2.00202,3.12097 2.83914,2.86955 2.59827,2.28625 2.28239,1.82029 4.35151,3.00029 3.929,2.38012 14.81965,8.07564 7.34073,4.25739 2.57063,1.14648 3.16294,1.38784 0.55283,0.38217 1.53211,0.64028 3.62495,1.21352 1.62294,0.35535 2.76807,0.34528 3.20243,0.22461 3.49859,0.10391 0.65155,0.17433 0.64364,0.27488 0.64759,0.41568 1.52817,1.65938 2.72069,2.88967 0.54097,0.29835 0.23298,0.0201 0.43831,-0.26148 0.85688,-0.79114 0.61601,-0.0872 0.5923,-0.0972 0.38699,-0.20783 0.56862,-0.42575 0.18558,-0.01 0.18165,0.12069 0.37117,0.67716 0.77396,1.80018 0.44226,0.47602 0.45016,0.16091 0.42251,0.01 0.41857,-0.19444 0.87267,-0.64364 1.5716,-0.84812 0.21719,0.067 0.21718,0.22126 0.37908,0.85818 0.29616,0.87829 0.44226,0.53302 0.43436,0.18773 0.21718,-0.0336 0.44226,-0.40897 0.462,-0.39223 0.24087,0.0704 0.44621,0.75762 0.44226,0.9688 0.4857,0.61682 1.67821,1.37443 0.46596,0.0704 0.50939,-0.0838 0.53703,-0.22125 0.29616,-0.21455 0.49359,-0.78107 1.65452,-3.0137 0.55282,-0.5129 0.58047,-0.21119 0.29616,0.0603 0.28825,0.20113 0.54493,0.84812 1.72955,3.67076 0.56862,0.60005 1.05827,0.62015 0.97533,1.04256 1.00694,0.48944 0.39487,-0.0167 0.45411,-0.37545 0.43436,-0.82466 0.65944,-1.85382 0.87662,-2.91983 0.21718,-0.38551 0.22904,-0.0737 0.22902,0.22125 1.05432,2.08512 0.4462,0.45591 0.69893,0.59335 0.58047,0.99563 0.84108,1.31409 0.41462,0.37545 0.20928,0.0503 0.37908,-0.22124 0.29221,-0.29835 0.154,-0.0201 0.31195,0.32852 0.58441,1.06267 0.16191,0.0369 0.17769,-0.0905 0.36328,-0.53301 0.35539,-0.56989 0.35934,-0.2179 1.28728,0.0134 0.35145,0.21789 0.54887,0.7241 0.32775,0.81796 0.67128,1.74988 0.3396,0.31848 0.16189,-0.0469 0.22904,-0.16762 0.52123,-1.00568 0.66339,-1.13307 0.59231,-0.56653 0.31984,-0.0268 0.88058,0.38551 0.308,-0.23466 0.4541,-0.39892 0.15006,-0.007"
       id="path111"
       style="stroke-linecap:butt;stroke-linejoin:round" />
    <path
       fill="none"
       stroke-width="1.53272"
       stroke-linecap="square"
       stroke-linejoin="round"
       stroke="#bcbd22"
       stroke-opacity="1"
       stroke-miterlimit="10"
       d="m 78.749896,38.971358 38.160694,0.305059 16.79006,0.368753 10.5787,0.449199 8.0357,0.543075 6.49174,0.657043 4.15408,0.801191 3.64864,0.97887 3.71972,1.203465 2.9892,1.478358 3.08397,1.780062 2.33372,1.843755 2.91417,1.914144 2.83915,1.99126 2.3574,2.075062 2.17971,2.162219 7.59344,9.728307 1.72955,2.758931 1.67427,2.919832 3.02474,6.406211 1.37022,3.540007 1.31887,3.808189 0.99509,4.123296 0.94375,4.495406 1.17672,4.934558 1.11356,5.47763 1.01877,6.09108 1.76509,13.49293 1.03852,6.41626 1.72561,8.04882 0.72657,3.42938 3.98823,12.14196 5.18075,13.44934 2.90233,6.09109 2.2113,4.39149 1.70191,2.85949 1.94673,3.78472 2.00596,3.51319 1.99808,3.21484 1.42944,1.93427 2.61407,3.16455 1.23201,1.2504 3.46305,3.37239 1.27939,0.99563 2.8431,2.31978 4.44234,2.77904 5.06624,3.01704 1.22016,0.74421 0.75816,0.72409 0.99114,0.99228 0.90426,0.68386 3.22218,1.91415 2.49166,1.1599 1.5795,0.70397 1.08985,0.5129 8.29237,3.41932 2.9734,0.99898"
       id="path112"
       style="stroke-linecap:butt;stroke-linejoin:round" />
    <path
       fill="none"
       stroke-width="1.53272"
       stroke-linecap="butt"
       stroke-linejoin="round"
       stroke="#17becf"
       stroke-opacity="1"
       stroke-dasharray="5.55, 2.4"
       stroke-miterlimit="10"
       d="m 210.87102,72.517612 24.91659,1.163242 11.13547,1.035853 6.69312,3.439445 5.38609,3.489717 5.33476,3.483023 3.42356,1.086134 5.63882,4.052909 4.7148,1.12301 2.91023,4.324438 2.71278,4.042851 2.65356,1.166596 2.21525,4.08978 2.00596,1.04926 2.06915,4.03614 1.8717,3.72774 1.40575,0.97216 1.79274,3.73779 1.88355,0.91517 1.50447,0.93529 1.57555,3.4629 1.07801,0.30841 1.06221,0.27154 1.01878,0.8917 1.29519,0.91182 1.08195,0.91182 1.01878,0.91853 0.90032,0.91852 0.85687,0.92188 1.04247,0.91517 0.86478,0.91182 0.7858,0.89506 0.78975,0.885 0.82134,0.86824 0.85293,0.25813 0.71867,0.885 1.07801,0.8783 0.68708,0.85483 0.73842,0.84477 0.74236,0.24807 0.98324,0.83137 0.75816,0.8213 0.74236,0.80791 0.84899,0.79448 0.63969,0.78109 0.67524,0.24136 0.67918,0.77773 0.61995,0.76767 0.55283,0.74756 0.63969,0.73415 0.66734,0.2246 0.66734,0.7308 0.65549,0.72409 0.6318,0.71403 0.55677,0.70063 0.4778,0.21119 0.52914,0.69728 0.51728,0.69392 0.50149,0.67716 0.46596,0.67046 0.44226,0.20113 0.50148,0.67046 0.48964,0.6671 0.50544,0.65705 0.42252,0.65369 0.39488,0.19779 0.51729,0.65369 0.52518,0.64364 0.44226,0.63023 0.4699,0.62353 0.39488,0.18772 0.39487,0.62017 0.37908,0.61347 0.42647,0.60005 0.37512,0.58666 0.48175,0.18102 0.37908,0.58329 0.36723,0.5833 0.35934,0.57324 0.37118,0.56654 0.37513,0.17431 0.49754,0.55983 0.41067,0.54978 0.35539,0.54307 0.3317,0.15756 0.34353,0.53301 0.41067,0.52966 0.3159,0.5196 0.35145,0.50284 0.2922,0.15085 0.3317,0.49949 0.41067,0.48608 0.33958,0.47603 0.3554,0.46597 0.50149,0.14415 0.39092,0.46261 0.3238,0.45926 0.37118,0.45256 0.31986,0.13409 0.30405,0.44921"
       id="path113"
       style="stroke-linecap:butt;stroke-linejoin:round" />
    <path
       fill="none"
       stroke-width="1.53272"
       stroke-linecap="butt"
       stroke-linejoin="round"
       stroke="#1f77b4"
       stroke-opacity="1"
       stroke-dasharray="5.55, 2.4"
       stroke-miterlimit="10"
       d="m 179.76279,96.479707 11.84624,7.126943 7.49078,3.91547 6.52332,1.78005 5.54799,1.54541 4.09091,1.42136 3.48279,1.3141 3.20639,1.25374 3.1274,1.19677 2.48376,0.96545 3.12741,9.79871 2.27053,4.54234 1.98227,2.06166 1.76904,1.43477 2.27842,4.91109 1.78089,3.55007 1.54001,0.92522 1.4255,0.76767 1.66242,0.70734 1.44129,0.68051 1.19647,0.67381 1.1333,0.6671 1.20831,0.6604 1.18068,0.64699 1.03062,0.64364 1.01877,0.63693 0.91217,0.63023 0.88846,0.62017 0.86873,0.61682 0.82134,0.61011 0.82134,0.60676 0.86478,0.60342 0.90031,0.6034 0.88056,0.58666 0.84504,0.59335 0.90426,0.57995 0.75026,0.57323 0.70683,0.56654 0.71077,0.56318 0.65549,0.55313 0.69498,0.54642 0.65155,0.53972 0.64759,0.53971 0.60811,0.52631 0.58442,0.53301 0.78184,0.52296 0.62391,0.51625 0.56466,0.50284 0.61601,0.50284 0.58837,0.49279 0.55677,0.48608 0.54098,0.47938 0.58047,0.47937 0.65943,0.46932 0.67919,0.46261 0.61205,0.45591 0.72263,0.43915 0.65943,0.4358 0.53703,0.42909 0.54493,0.42574 1.03457,0.83136 0.54493,0.40899 0.48175,0.40897 0.49754,0.40227 0.4936,0.39892 0.48964,0.39557 0.65154,0.39557 0.54493,0.38552 0.55678,0.38216 0.56071,0.37881 0.56468,0.3788 0.60415,0.37211 0.66339,0.36874 0.44621,0.36205 0.50939,0.3654 0.61996,0.35534 0.462,0.35534 0.43436,0.34863 0.46201,0.34529 0.33564,0.34194 0.31195,0.33858 0.30405,0.33522 0.60021,0.67046 0.30405,0.32852 0.29616,0.32517 0.29615,0.31847 0.30801,0.31511 0.32379,0.31176 0.3396,0.30506 0.48964,0.30506 0.4778,0.3017 0.462,0.29836 0.42252,0.29164 0.41856,0.28495 0.39488,0.29165 0.39487,0.28494 0.27642,0.27824 0.30011,0.27489"
       id="path114"
       style="stroke-linecap:butt;stroke-linejoin:round" />
    <path
       fill="none"
       stroke-width="1.53272"
       stroke-linecap="butt"
       stroke-linejoin="round"
       stroke="#ff7f0e"
       stroke-opacity="1"
       stroke-dasharray="5.55, 2.4"
       stroke-miterlimit="10"
       d="m 291.57945,135.46671 h 82.60779"
       id="path115"
       style="stroke-linecap:butt;stroke-linejoin:round" />
    <path
       fill="none"
       stroke-width="1.53272"
       stroke-linecap="butt"
       stroke-linejoin="round"
       stroke="#2ca02c"
       stroke-opacity="1"
       stroke-dasharray="5.55, 2.4"
       stroke-miterlimit="10"
       d="M 133.23076,38.971358 H 269.84555"
       id="path116"
       style="stroke-linecap:butt;stroke-linejoin:round" />
  </g>
</svg>
