<?xml version="1.0" encoding="UTF-8" standalone="no"?>
<!-- Created with matplotlib (https://matplotlib.org/) -->

<svg
   height="277.31436pt"
   version="1.1"
   viewBox="0 0 400 277.31437"
   width="400pt"
   id="svg179"
   sodipodi:docname="TGG119HN-iter.svg"
   inkscape:version="1.3.2 (091e20e, 2023-11-25, custom)"
   xmlns:inkscape="http://www.inkscape.org/namespaces/inkscape"
   xmlns:sodipodi="http://sodipodi.sourceforge.net/DTD/sodipodi-0.dtd"
   xmlns:xlink="http://www.w3.org/1999/xlink"
   xmlns="http://www.w3.org/2000/svg"
   xmlns:svg="http://www.w3.org/2000/svg"
   xmlns:rdf="http://www.w3.org/1999/02/22-rdf-syntax-ns#"
   xmlns:cc="http://creativecommons.org/ns#"
   xmlns:dc="http://purl.org/dc/elements/1.1/">
  <sodipodi:namedview
     id="namedview179"
     pagecolor="#ffffff"
     bordercolor="#000000"
     borderopacity="0.25"
     inkscape:showpageshadow="2"
     inkscape:pageopacity="0.0"
     inkscape:pagecheckerboard="0"
     inkscape:deskcolor="#d1d1d1"
     inkscape:document-units="pt"
     inkscape:zoom="1.5158054"
     inkscape:cx="325.5695"
     inkscape:cy="185.05014"
     inkscape:window-width="1920"
     inkscape:window-height="1009"
     inkscape:window-x="1912"
     inkscape:window-y="-8"
     inkscape:window-maximized="1"
     inkscape:current-layer="svg179" />
  <metadata
     id="metadata1">
    <rdf:RDF>
      <cc:Work>
        <dc:type
           rdf:resource="http://purl.org/dc/dcmitype/StillImage" />
        <dc:date>2023-05-25T09:37:53.795609</dc:date>
        <dc:format>image/svg+xml</dc:format>
        <dc:creator>
          <cc:Agent>
            <dc:title>Matplotlib v3.3.2, https://matplotlib.org/</dc:title>
          </cc:Agent>
        </dc:creator>
      </cc:Work>
    </rdf:RDF>
  </metadata>
  <defs
     id="defs1">
    <style
       type="text/css"
       id="style1">*{stroke-linecap:butt;stroke-linejoin:round;}</style>
  </defs>
  <g
     id="patch_1">
    <path
       d="M 0,277.31437 H 488.35425 V 0 H 0 Z"
       style="fill:none"
       id="path1" />
  </g>
  <g
     id="patch_2">
    <path
       d="M 45.478125,239.75812 H 380.27812 V 22.318125 H 45.478125 Z"
       style="fill:#ffffff"
       id="path2" />
  </g>
  <g
     id="matplotlib.axis_1">
    <g
       id="xtick_1">
      <g
         id="line2d_1">
        <defs
           id="defs2">
          <path
             d="M 0,0 V 3.5"
             id="m5d73434d37"
             style="stroke:#000000;stroke-width:0.8" />
        </defs>
        <g
           id="g2">
          <use
             style="stroke:#000000;stroke-width:0.8"
             x="60.696308"
             xlink:href="#m5d73434d37"
             y="239.75812"
             id="use2" />
        </g>
      </g>
      <g
         id="text_1">
        <!-- $\mathdefault{10^{0}}$ -->
        <g
           transform="matrix(0.1,0,0,-0.1,51.896307,254.35656)"
           id="g5">
          <defs
             id="defs3">
            <path
               d="m 12.40625,8.296875 h 16.109375 v 55.625 L 10.984375,60.40625 v 8.984375 l 17.4375,3.515625 H 38.28125 V 8.296875 H 54.390625 V 0 H 12.40625 Z"
               id="DejaVuSans-49" />
            <path
               d="m 31.78125,66.40625 q -7.609375,0 -11.453125,-7.5 Q 16.5,51.421875 16.5,36.375 q 0,-14.984375 3.828125,-22.484375 3.84375,-7.5 11.453125,-7.5 7.671875,0 11.5,7.5 3.84375,7.5 3.84375,22.484375 0,15.046875 -3.84375,22.53125 -3.828125,7.5 -11.5,7.5 z m 0,7.8125 q 12.265625,0 18.734375,-9.703125 6.46875,-9.6875 6.46875,-28.140625 0,-18.40625 -6.46875,-28.109375 -6.46875,-9.6875 -18.734375,-9.6875 -12.25,0 -18.71875,9.6875 Q 6.59375,17.96875 6.59375,36.375 q 0,18.453125 6.46875,28.140625 6.46875,9.703125 18.71875,9.703125 z"
               id="DejaVuSans-48" />
          </defs>
          <use
             transform="translate(0,0.765625)"
             xlink:href="#DejaVuSans-49"
             id="use3" />
          <use
             transform="translate(63.623047,0.765625)"
             xlink:href="#DejaVuSans-48"
             id="use4" />
          <use
             transform="matrix(0.7,0,0,0.7,128.20312,39.046875)"
             xlink:href="#DejaVuSans-48"
             id="use5" />
        </g>
      </g>
    </g>
    <g
       id="xtick_2">
      <g
         id="line2d_2">
        <g
           id="g6">
          <use
             style="stroke:#000000;stroke-width:0.8"
             x="213.21097"
             xlink:href="#m5d73434d37"
             y="239.75812"
             id="use6" />
        </g>
      </g>
      <g
         id="text_2">
        <!-- $\mathdefault{10^{1}}$ -->
        <g
           transform="matrix(0.1,0,0,-0.1,204.41097,254.35656)"
           id="g9">
          <use
             transform="translate(0,0.684375)"
             xlink:href="#DejaVuSans-49"
             id="use7" />
          <use
             transform="translate(63.623047,0.684375)"
             xlink:href="#DejaVuSans-48"
             id="use8" />
          <use
             transform="matrix(0.7,0,0,0.7,128.20312,38.965625)"
             xlink:href="#DejaVuSans-49"
             id="use9" />
        </g>
      </g>
    </g>
    <g
       id="xtick_3">
      <g
         id="line2d_3">
        <g
           id="g10">
          <use
             style="stroke:#000000;stroke-width:0.8"
             x="365.72565"
             xlink:href="#m5d73434d37"
             y="239.75812"
             id="use10" />
        </g>
      </g>
      <g
         id="text_3">
        <!-- $\mathdefault{10^{2}}$ -->
        <g
           transform="matrix(0.1,0,0,-0.1,356.92564,254.35656)"
           id="g13">
          <defs
             id="defs10">
            <path
               d="M 19.1875,8.296875 H 53.609375 V 0 H 7.328125 v 8.296875 q 5.609375,5.8125 15.296875,15.59375 9.703125,9.796875 12.1875,12.640625 4.734375,5.3125 6.609375,9 1.890625,3.6875 1.890625,7.25 0,5.8125 -4.078125,9.46875 -4.078125,3.671875 -10.625,3.671875 -4.640625,0 -9.796875,-1.609375 -5.140625,-1.609375 -11,-4.890625 v 9.96875 Q 13.765625,71.78125 18.9375,73 q 5.1875,1.21875 9.484375,1.21875 11.328125,0 18.0625,-5.671875 6.734375,-5.65625 6.734375,-15.125 0,-4.5 -1.6875,-8.53125 Q 49.859375,40.875 45.40625,35.40625 44.1875,33.984375 37.640625,27.21875 31.109375,20.453125 19.1875,8.296875 Z"
               id="DejaVuSans-50" />
          </defs>
          <use
             transform="translate(0,0.765625)"
             xlink:href="#DejaVuSans-49"
             id="use11" />
          <use
             transform="translate(63.623047,0.765625)"
             xlink:href="#DejaVuSans-48"
             id="use12" />
          <use
             transform="matrix(0.7,0,0,0.7,128.20312,39.046875)"
             xlink:href="#DejaVuSans-50"
             id="use13" />
        </g>
      </g>
    </g>
    <g
       id="xtick_4">
      <g
         id="line2d_4">
        <defs
           id="defs13">
          <path
             d="M 0,0 V 2"
             id="ma484fdf630"
             style="stroke:#000000;stroke-width:0.6" />
        </defs>
        <g
           id="g14">
          <use
             style="stroke:#000000;stroke-width:0.6"
             x="45.916107"
             xlink:href="#ma484fdf630"
             y="239.75812"
             id="use14" />
        </g>
      </g>
    </g>
    <g
       id="xtick_5">
      <g
         id="line2d_5">
        <g
           id="g15">
          <use
             style="stroke:#000000;stroke-width:0.6"
             x="53.717617"
             xlink:href="#ma484fdf630"
             y="239.75812"
             id="use15" />
        </g>
      </g>
    </g>
    <g
       id="xtick_6">
      <g
         id="line2d_6">
        <g
           id="g16">
          <use
             style="stroke:#000000;stroke-width:0.6"
             x="106.6078"
             xlink:href="#ma484fdf630"
             y="239.75812"
             id="use16" />
        </g>
      </g>
    </g>
    <g
       id="xtick_7">
      <g
         id="line2d_7">
        <g
           id="g17">
          <use
             style="stroke:#000000;stroke-width:0.6"
             x="133.46429"
             xlink:href="#ma484fdf630"
             y="239.75812"
             id="use17" />
        </g>
      </g>
    </g>
    <g
       id="xtick_8">
      <g
         id="line2d_8">
        <g
           id="g18">
          <use
             style="stroke:#000000;stroke-width:0.6"
             x="152.51929"
             xlink:href="#ma484fdf630"
             y="239.75812"
             id="use18" />
        </g>
      </g>
    </g>
    <g
       id="xtick_9">
      <g
         id="line2d_9">
        <g
           id="g19">
          <use
             style="stroke:#000000;stroke-width:0.6"
             x="167.29948"
             xlink:href="#ma484fdf630"
             y="239.75812"
             id="use19" />
        </g>
      </g>
    </g>
    <g
       id="xtick_10">
      <g
         id="line2d_10">
        <g
           id="g20">
          <use
             style="stroke:#000000;stroke-width:0.6"
             x="179.37578"
             xlink:href="#ma484fdf630"
             y="239.75812"
             id="use20" />
        </g>
      </g>
    </g>
    <g
       id="xtick_11">
      <g
         id="line2d_11">
        <g
           id="g21">
          <use
             style="stroke:#000000;stroke-width:0.6"
             x="189.58615"
             xlink:href="#ma484fdf630"
             y="239.75812"
             id="use21" />
        </g>
      </g>
    </g>
    <g
       id="xtick_12">
      <g
         id="line2d_12">
        <g
           id="g22">
          <use
             style="stroke:#000000;stroke-width:0.6"
             x="198.43077"
             xlink:href="#ma484fdf630"
             y="239.75812"
             id="use22" />
        </g>
      </g>
    </g>
    <g
       id="xtick_13">
      <g
         id="line2d_13">
        <g
           id="g23">
          <use
             style="stroke:#000000;stroke-width:0.6"
             x="206.23228"
             xlink:href="#ma484fdf630"
             y="239.75812"
             id="use23" />
        </g>
      </g>
    </g>
    <g
       id="xtick_14">
      <g
         id="line2d_14">
        <g
           id="g24">
          <use
             style="stroke:#000000;stroke-width:0.6"
             x="259.12247"
             xlink:href="#ma484fdf630"
             y="239.75812"
             id="use24" />
        </g>
      </g>
    </g>
    <g
       id="xtick_15">
      <g
         id="line2d_15">
        <g
           id="g25">
          <use
             style="stroke:#000000;stroke-width:0.6"
             x="285.97897"
             xlink:href="#ma484fdf630"
             y="239.75812"
             id="use25" />
        </g>
      </g>
    </g>
    <g
       id="xtick_16">
      <g
         id="line2d_16">
        <g
           id="g26">
          <use
             style="stroke:#000000;stroke-width:0.6"
             x="305.03397"
             xlink:href="#ma484fdf630"
             y="239.75812"
             id="use26" />
        </g>
      </g>
    </g>
    <g
       id="xtick_17">
      <g
         id="line2d_17">
        <g
           id="g27">
          <use
             style="stroke:#000000;stroke-width:0.6"
             x="319.81415"
             xlink:href="#ma484fdf630"
             y="239.75812"
             id="use27" />
        </g>
      </g>
    </g>
    <g
       id="xtick_18">
      <g
         id="line2d_18">
        <g
           id="g28">
          <use
             style="stroke:#000000;stroke-width:0.6"
             x="331.89044"
             xlink:href="#ma484fdf630"
             y="239.75812"
             id="use28" />
        </g>
      </g>
    </g>
    <g
       id="xtick_19">
      <g
         id="line2d_19">
        <g
           id="g29">
          <use
             style="stroke:#000000;stroke-width:0.6"
             x="342.10083"
             xlink:href="#ma484fdf630"
             y="239.75812"
             id="use29" />
        </g>
      </g>
    </g>
    <g
       id="xtick_20">
      <g
         id="line2d_20">
        <g
           id="g30">
          <use
             style="stroke:#000000;stroke-width:0.6"
             x="350.94543"
             xlink:href="#ma484fdf630"
             y="239.75812"
             id="use30" />
        </g>
      </g>
    </g>
    <g
       id="xtick_21">
      <g
         id="line2d_21">
        <g
           id="g31">
          <use
             style="stroke:#000000;stroke-width:0.6"
             x="358.74695"
             xlink:href="#ma484fdf630"
             y="239.75812"
             id="use31" />
        </g>
      </g>
    </g>
    <g
       id="text_4">
      <!-- iteration -->
      <g
         transform="matrix(0.1,0,0,-0.1,191.75547,268.03469)"
         id="g40">
        <defs
           id="defs31">
          <path
             d="M 9.421875,54.6875 H 18.40625 V 0 H 9.421875 Z m 0,21.296875 H 18.40625 V 64.59375 H 9.421875 Z"
             id="DejaVuSans-105" />
          <path
             d="M 18.3125,70.21875 V 54.6875 h 18.5 v -6.984375 h -18.5 v -29.6875 q 0,-6.6875 1.828125,-8.59375 1.828125,-1.90625 7.453125,-1.90625 H 36.8125 V 0 H 27.59375 Q 17.1875,0 13.234375,3.875 9.28125,7.765625 9.28125,18.015625 v 29.6875 H 2.6875 V 54.6875 h 6.59375 v 15.53125 z"
             id="DejaVuSans-116" />
          <path
             d="m 56.203125,29.59375 v -4.390625 h -41.3125 q 0.59375,-9.28125 5.59375,-14.140625 5,-4.859375 13.9375,-4.859375 5.171875,0 10.03125,1.265625 4.859375,1.265625 9.65625,3.8125 v -8.5 q -4.84375,-2.046875 -9.921875,-3.125 -5.078125,-1.078125 -10.296875,-1.078125 -13.09375,0 -20.734375,7.609375 -7.640625,7.625 -7.640625,20.625 0,13.421875 7.25,21.296875 Q 20.015625,56 32.328125,56 q 11.03125,0 17.453125,-7.109375 6.421875,-7.09375 6.421875,-19.296875 z m -8.984375,2.640625 q -0.09375,7.359375 -4.125,11.75 -4.03125,4.40625 -10.671875,4.40625 -7.515625,0 -12.03125,-4.25 -4.515625,-4.25 -5.203125,-11.96875 z"
             id="DejaVuSans-101" />
          <path
             d="m 41.109375,46.296875 q -1.515625,0.875 -3.296875,1.28125 Q 36.03125,48 33.890625,48 26.265625,48 22.1875,43.046875 18.109375,38.09375 18.109375,28.8125 V 0 h -9.03125 v 54.6875 h 9.03125 v -8.5 q 2.84375,4.984375 7.375,7.390625 Q 30.03125,56 36.53125,56 q 0.921875,0 2.046875,-0.125 1.125,-0.109375 2.484375,-0.359375 z"
             id="DejaVuSans-114" />
          <path
             d="m 34.28125,27.484375 q -10.890625,0 -15.09375,-2.484375 -4.203125,-2.484375 -4.203125,-8.5 0,-4.78125 3.15625,-7.59375 3.15625,-2.796875 8.5625,-2.796875 7.484375,0 12,5.296875 4.515625,5.296875 4.515625,14.078125 v 2 z m 17.921875,3.71875 V 0 H 43.21875 v 8.296875 q -3.078125,-4.96875 -7.671875,-7.34375 -4.59375,-2.375 -11.234375,-2.375 -8.390625,0 -13.359375,4.71875 Q 6,8.015625 6,15.921875 q 0,9.21875 6.171875,13.90625 6.1875,4.6875 18.4375,4.6875 H 43.21875 v 0.890625 q 0,6.203125 -4.078125,9.59375 -4.078125,3.390625 -11.453125,3.390625 -4.6875,0 -9.140625,-1.125 -4.4375,-1.125 -8.53125,-3.375 v 8.3125 q 4.921875,1.90625 9.5625,2.84375 Q 24.21875,56 28.609375,56 q 11.875,0 17.734375,-6.15625 5.859375,-6.140625 5.859375,-18.640625 z"
             id="DejaVuSans-97" />
          <path
             d="m 30.609375,48.390625 q -7.21875,0 -11.421875,-5.640625 -4.203125,-5.640625 -4.203125,-15.453125 0,-9.8125 4.171875,-15.453125 4.1875,-5.640625 11.453125,-5.640625 7.1875,0 11.375,5.65625 4.203125,5.671875 4.203125,15.4375 0,9.71875 -4.203125,15.40625 -4.1875,5.6875 -11.375,5.6875 z m 0,7.609375 q 11.71875,0 18.40625,-7.625 6.703125,-7.609375 6.703125,-21.078125 0,-13.421875 -6.703125,-21.078125 -6.6875,-7.640625 -18.40625,-7.640625 -11.765625,0 -18.4375,7.640625 -6.65625,7.65625 -6.65625,21.078125 0,13.46875 6.65625,21.078125 Q 18.84375,56 30.609375,56 Z"
             id="DejaVuSans-111" />
          <path
             d="M 54.890625,33.015625 V 0 H 45.90625 v 32.71875 q 0,7.765625 -3.03125,11.609375 -3.03125,3.859375 -9.078125,3.859375 -7.28125,0 -11.484375,-4.640625 -4.203125,-4.625 -4.203125,-12.640625 V 0 h -9.03125 v 54.6875 h 9.03125 v -8.5 q 3.234375,4.9375 7.59375,7.375 4.375,2.4375 10.09375,2.4375 9.421875,0 14.25,-5.828125 4.84375,-5.828125 4.84375,-17.15625 z"
             id="DejaVuSans-110" />
        </defs>
        <use
           xlink:href="#DejaVuSans-105"
           id="use32" />
        <use
           x="27.783203"
           xlink:href="#DejaVuSans-116"
           id="use33" />
        <use
           x="66.992188"
           xlink:href="#DejaVuSans-101"
           id="use34" />
        <use
           x="128.51562"
           xlink:href="#DejaVuSans-114"
           id="use35" />
        <use
           x="169.62891"
           xlink:href="#DejaVuSans-97"
           id="use36" />
        <use
           x="230.9082"
           xlink:href="#DejaVuSans-116"
           id="use37" />
        <use
           x="270.11719"
           xlink:href="#DejaVuSans-105"
           id="use38" />
        <use
           x="297.90039"
           xlink:href="#DejaVuSans-111"
           id="use39" />
        <use
           x="359.08203"
           xlink:href="#DejaVuSans-110"
           id="use40" />
      </g>
    </g>
  </g>
  <g
     id="matplotlib.axis_2">
    <g
       id="ytick_1">
      <g
         id="line2d_22">
        <defs
           id="defs40">
          <path
             d="M 0,0 H -3.5"
             id="m6157a9c06b"
             style="stroke:#000000;stroke-width:0.8" />
        </defs>
        <g
           id="g41">
          <use
             style="stroke:#000000;stroke-width:0.8"
             x="45.478127"
             xlink:href="#m6157a9c06b"
             y="237.26135"
             id="use41" />
        </g>
      </g>
      <g
         id="text_5">
        <!-- $\mathdefault{10^{5}}$ -->
        <g
           transform="matrix(0.1,0,0,-0.1,20.878125,241.06056)"
           id="g44">
          <defs
             id="defs41">
            <path
               d="m 10.796875,72.90625 h 38.71875 v -8.3125 h -29.6875 V 46.734375 q 2.140625,0.734375 4.28125,1.09375 2.15625,0.359375 4.3125,0.359375 Q 40.625,48.1875 47.75,41.5 54.890625,34.8125 54.890625,23.390625 54.890625,11.625 47.5625,5.09375 40.234375,-1.421875 26.90625,-1.421875 q -4.59375,0 -9.359375,0.78125 -4.75,0.78125 -9.828125,2.34375 V 11.625 q 4.390625,-2.390625 9.078125,-3.5625 4.6875,-1.171875 9.90625,-1.171875 8.453125,0 13.375,4.4375 4.9375,4.4375 4.9375,12.0625 0,7.609375 -4.9375,12.046875 -4.921875,4.453125 -13.375,4.453125 -3.953125,0 -7.890625,-0.875 -3.921875,-0.875 -8.015625,-2.734375 z"
               id="DejaVuSans-53" />
          </defs>
          <use
             transform="translate(0,0.684375)"
             xlink:href="#DejaVuSans-49"
             id="use42" />
          <use
             transform="translate(63.623047,0.684375)"
             xlink:href="#DejaVuSans-48"
             id="use43" />
          <use
             transform="matrix(0.7,0,0,0.7,128.20312,38.965625)"
             xlink:href="#DejaVuSans-53"
             id="use44" />
        </g>
      </g>
    </g>
    <g
       id="ytick_2">
      <g
         id="line2d_23">
        <g
           id="g45">
          <use
             style="stroke:#000000;stroke-width:0.8"
             x="45.478127"
             xlink:href="#m6157a9c06b"
             y="158.36963"
             id="use45" />
        </g>
      </g>
      <g
         id="text_6">
        <!-- $\mathdefault{10^{6}}$ -->
        <g
           transform="matrix(0.1,0,0,-0.1,20.878125,162.16884)"
           id="g48">
          <defs
             id="defs45">
            <path
               d="m 33.015625,40.375 q -6.640625,0 -10.53125,-4.546875 -3.875,-4.53125 -3.875,-12.4375 0,-7.859375 3.875,-12.4375 3.890625,-4.5625 10.53125,-4.5625 6.640625,0 10.515625,4.5625 3.875,4.578125 3.875,12.4375 0,7.90625 -3.875,12.4375 Q 39.65625,40.375 33.015625,40.375 Z M 52.59375,71.296875 V 62.3125 q -3.71875,1.75 -7.5,2.671875 -3.78125,0.9375 -7.5,0.9375 -9.765625,0 -14.921875,-6.59375 -5.140625,-6.59375 -5.875,-19.921875 2.875,4.25 7.21875,6.515625 4.359375,2.265625 9.578125,2.265625 10.984375,0 17.359375,-6.671875 6.375,-6.65625 6.375,-18.125 0,-11.234375 -6.640625,-18.03125 -6.640625,-6.78125 -17.671875,-6.78125 -12.65625,0 -19.34375,9.6875 -6.6875,9.703125 -6.6875,28.109375 0,17.28125 8.203125,27.5625 8.203125,10.28125 22.015625,10.28125 3.71875,0 7.5,-0.734375 3.78125,-0.734375 7.890625,-2.1875 z"
               id="DejaVuSans-54" />
          </defs>
          <use
             transform="translate(0,0.765625)"
             xlink:href="#DejaVuSans-49"
             id="use46" />
          <use
             transform="translate(63.623047,0.765625)"
             xlink:href="#DejaVuSans-48"
             id="use47" />
          <use
             transform="matrix(0.7,0,0,0.7,128.20312,39.046875)"
             xlink:href="#DejaVuSans-54"
             id="use48" />
        </g>
      </g>
    </g>
    <g
       id="ytick_3">
      <g
         id="line2d_24">
        <g
           id="g49">
          <use
             style="stroke:#000000;stroke-width:0.8"
             x="45.478127"
             xlink:href="#m6157a9c06b"
             y="79.477905"
             id="use49" />
        </g>
      </g>
      <g
         id="text_7">
        <!-- $\mathdefault{10^{7}}$ -->
        <g
           transform="matrix(0.1,0,0,-0.1,20.878125,83.277122)"
           id="g52">
          <defs
             id="defs49">
            <path
               d="m 8.203125,72.90625 h 46.875 V 68.703125 L 28.609375,0 H 18.3125 L 43.21875,64.59375 H 8.203125 Z"
               id="DejaVuSans-55" />
          </defs>
          <use
             transform="translate(0,0.684375)"
             xlink:href="#DejaVuSans-49"
             id="use50" />
          <use
             transform="translate(63.623047,0.684375)"
             xlink:href="#DejaVuSans-48"
             id="use51" />
          <use
             transform="matrix(0.7,0,0,0.7,128.20312,38.965625)"
             xlink:href="#DejaVuSans-55"
             id="use52" />
        </g>
      </g>
    </g>
    <g
       id="ytick_4">
      <g
         id="line2d_25">
        <defs
           id="defs52">
          <path
             d="M 0,0 H -2"
             id="m0e3bd637fc"
             style="stroke:#000000;stroke-width:0.6" />
        </defs>
        <g
           id="g53">
          <use
             style="stroke:#000000;stroke-width:0.6"
             x="45.478127"
             xlink:href="#m0e3bd637fc"
             y="213.51257"
             id="use53" />
        </g>
      </g>
    </g>
    <g
       id="ytick_5">
      <g
         id="line2d_26">
        <g
           id="g54">
          <use
             style="stroke:#000000;stroke-width:0.6"
             x="45.478127"
             xlink:href="#m0e3bd637fc"
             y="199.62042"
             id="use54" />
        </g>
      </g>
    </g>
    <g
       id="ytick_6">
      <g
         id="line2d_27">
        <g
           id="g55">
          <use
             style="stroke:#000000;stroke-width:0.6"
             x="45.478127"
             xlink:href="#m0e3bd637fc"
             y="189.76379"
             id="use55" />
        </g>
      </g>
    </g>
    <g
       id="ytick_7">
      <g
         id="line2d_28">
        <g
           id="g56">
          <use
             style="stroke:#000000;stroke-width:0.6"
             x="45.478127"
             xlink:href="#m0e3bd637fc"
             y="182.11839"
             id="use56" />
        </g>
      </g>
    </g>
    <g
       id="ytick_8">
      <g
         id="line2d_29">
        <g
           id="g57">
          <use
             style="stroke:#000000;stroke-width:0.6"
             x="45.478127"
             xlink:href="#m0e3bd637fc"
             y="175.87166"
             id="use57" />
        </g>
      </g>
    </g>
    <g
       id="ytick_9">
      <g
         id="line2d_30">
        <g
           id="g58">
          <use
             style="stroke:#000000;stroke-width:0.6"
             x="45.478127"
             xlink:href="#m0e3bd637fc"
             y="170.5901"
             id="use58" />
        </g>
      </g>
    </g>
    <g
       id="ytick_10">
      <g
         id="line2d_31">
        <g
           id="g59">
          <use
             style="stroke:#000000;stroke-width:0.6"
             x="45.478127"
             xlink:href="#m0e3bd637fc"
             y="166.01501"
             id="use59" />
        </g>
      </g>
    </g>
    <g
       id="ytick_11">
      <g
         id="line2d_32">
        <g
           id="g60">
          <use
             style="stroke:#000000;stroke-width:0.6"
             x="45.478127"
             xlink:href="#m0e3bd637fc"
             y="161.97951"
             id="use60" />
        </g>
      </g>
    </g>
    <g
       id="ytick_12">
      <g
         id="line2d_33">
        <g
           id="g61">
          <use
             style="stroke:#000000;stroke-width:0.6"
             x="45.478127"
             xlink:href="#m0e3bd637fc"
             y="134.62085"
             id="use61" />
        </g>
      </g>
    </g>
    <g
       id="ytick_13">
      <g
         id="line2d_34">
        <g
           id="g62">
          <use
             style="stroke:#000000;stroke-width:0.6"
             x="45.478127"
             xlink:href="#m0e3bd637fc"
             y="120.72871"
             id="use62" />
        </g>
      </g>
    </g>
    <g
       id="ytick_14">
      <g
         id="line2d_35">
        <g
           id="g63">
          <use
             style="stroke:#000000;stroke-width:0.6"
             x="45.478127"
             xlink:href="#m0e3bd637fc"
             y="110.87208"
             id="use63" />
        </g>
      </g>
    </g>
    <g
       id="ytick_15">
      <g
         id="line2d_36">
        <g
           id="g64">
          <use
             style="stroke:#000000;stroke-width:0.6"
             x="45.478127"
             xlink:href="#m0e3bd637fc"
             y="103.22668"
             id="use64" />
        </g>
      </g>
    </g>
    <g
       id="ytick_16">
      <g
         id="line2d_37">
        <g
           id="g65">
          <use
             style="stroke:#000000;stroke-width:0.6"
             x="45.478127"
             xlink:href="#m0e3bd637fc"
             y="96.979935"
             id="use65" />
        </g>
      </g>
    </g>
    <g
       id="ytick_17">
      <g
         id="line2d_38">
        <g
           id="g66">
          <use
             style="stroke:#000000;stroke-width:0.6"
             x="45.478127"
             xlink:href="#m0e3bd637fc"
             y="91.698387"
             id="use66" />
        </g>
      </g>
    </g>
    <g
       id="ytick_18">
      <g
         id="line2d_39">
        <g
           id="g67">
          <use
             style="stroke:#000000;stroke-width:0.6"
             x="45.478127"
             xlink:href="#m0e3bd637fc"
             y="87.123299"
             id="use67" />
        </g>
      </g>
    </g>
    <g
       id="ytick_19">
      <g
         id="line2d_40">
        <g
           id="g68">
          <use
             style="stroke:#000000;stroke-width:0.6"
             x="45.478127"
             xlink:href="#m0e3bd637fc"
             y="83.087791"
             id="use68" />
        </g>
      </g>
    </g>
    <g
       id="ytick_20">
      <g
         id="line2d_41">
        <g
           id="g69">
          <use
             style="stroke:#000000;stroke-width:0.6"
             x="45.478127"
             xlink:href="#m0e3bd637fc"
             y="55.72913"
             id="use69" />
        </g>
      </g>
    </g>
    <g
       id="ytick_21">
      <g
         id="line2d_42">
        <g
           id="g70">
          <use
             style="stroke:#000000;stroke-width:0.6"
             x="45.478127"
             xlink:href="#m0e3bd637fc"
             y="41.836987"
             id="use70" />
        </g>
      </g>
    </g>
    <g
       id="ytick_22">
      <g
         id="line2d_43">
        <g
           id="g71">
          <use
             style="stroke:#000000;stroke-width:0.6"
             x="45.478127"
             xlink:href="#m0e3bd637fc"
             y="31.980354"
             id="use71" />
        </g>
      </g>
    </g>
    <g
       id="ytick_23">
      <g
         id="line2d_44">
        <g
           id="g72">
          <use
             style="stroke:#000000;stroke-width:0.6"
             x="45.478127"
             xlink:href="#m0e3bd637fc"
             y="24.334955"
             id="use72" />
        </g>
      </g>
    </g>
    <g
       id="text_8">
      <!-- cost -->
      <g
         transform="matrix(0,-0.1,-0.1,0,14.798438,141.41156)"
         id="g76">
        <defs
           id="defs72">
          <path
             d="M 48.78125,52.59375 V 44.1875 q -3.8125,2.109375 -7.640625,3.15625 -3.828125,1.046875 -7.734375,1.046875 -8.75,0 -13.59375,-5.546875 -4.828125,-5.53125 -4.828125,-15.546875 0,-10.015625 4.828125,-15.5625 4.84375,-5.53125 13.59375,-5.53125 3.90625,0 7.734375,1.046875 3.828125,1.046875 7.640625,3.15625 v -8.3125 q -3.765625,-1.75 -7.796875,-2.625 -4.015625,-0.890625 -8.5625,-0.890625 -12.359375,0 -19.640625,7.765625 -7.265625,7.765625 -7.265625,20.953125 0,13.375 7.34375,21.03125 Q 20.21875,56 33.015625,56 q 4.140625,0 8.09375,-0.859375 3.953125,-0.84375 7.671875,-2.546875 z"
             id="DejaVuSans-99" />
          <path
             d="m 44.28125,53.078125 v -8.5 Q 40.484375,46.53125 36.375,47.5 q -4.09375,0.984375 -8.5,0.984375 -6.6875,0 -10.03125,-2.046875 Q 14.5,44.390625 14.5,40.28125 q 0,-3.125 2.390625,-4.90625 2.390625,-1.78125 9.625,-3.390625 l 3.078125,-0.6875 Q 39.15625,29.25 43.1875,25.515625 47.21875,21.78125 47.21875,15.09375 q 0,-7.625 -6.03125,-12.078125 -6.03125,-4.4375 -16.578125,-4.4375 -4.390625,0 -9.15625,0.859375 Q 10.6875,0.296875 5.421875,2 v 9.28125 q 4.984375,-2.59375 9.8125,-3.890625 4.828125,-1.28125 9.578125,-1.28125 6.34375,0 9.75,2.171875 3.421875,2.171875 3.421875,6.125 0,3.65625 -2.46875,5.609375 -2.453125,1.953125 -10.8125,3.765625 l -3.125,0.734375 q -8.34375,1.75 -12.0625,5.390625 -3.703125,3.640625 -3.703125,9.984375 0,7.71875 5.46875,11.90625 Q 16.75,56 26.8125,56 q 4.96875,0 9.359375,-0.734375 4.40625,-0.71875 8.109375,-2.1875 z"
             id="DejaVuSans-115" />
        </defs>
        <use
           xlink:href="#DejaVuSans-99"
           id="use73" />
        <use
           x="54.980469"
           xlink:href="#DejaVuSans-111"
           id="use74" />
        <use
           x="116.16211"
           xlink:href="#DejaVuSans-115"
           id="use75" />
        <use
           x="168.26172"
           xlink:href="#DejaVuSans-116"
           id="use76" />
      </g>
    </g>
  </g>
  <g
     id="line2d_45">
    <path
       clip-path="url(#pa730d0fd80)"
       d="m -1,34.933921 61.696307,0.0011 45.911493,2.059873 26.8565,1.963398 19.05499,1.999597 14.78019,2.080722 12.0763,2.178737 10.21037,2.28286 8.84462,2.388667 7.80151,2.494358 6.97869,2.599227 6.31299,2.70302 5.76331,2.805659 5.30174,2.907094 4.90863,3.007251 4.56983,3.10589 4.27479,3.202639 4.01555,3.297086 3.78596,3.388647 3.58122,3.476477 3.39747,3.559824 3.23168,3.637686 3.08131,3.70859 2.94432,3.770899 2.81899,3.825508 2.7039,3.86984 2.59783,3.8992 2.49978,3.91306 2.40886,3.90896 2.32432,3.8837 2.24551,3.836 2.17188,3.75951 2.10291,3.65666 2.0382,3.52324 1.97735,3.36201 1.92003,3.17181 1.86593,2.95807 1.81481,2.72998 1.76641,2.50496 1.72051,2.29155 1.67696,2.10643 1.63555,1.94476 1.59613,1.79014 1.55857,1.64237 1.52274,1.52335 1.48852,1.40853 1.4558,1.29953 1.42449,1.1954 1.3945,1.10804 1.36575,1.03461 1.33815,0.97359 1.31165,0.92204 1.28619,0.87847 1.26168,0.84053 1.23809,0.80215 1.21538,0.75911 1.19348,0.70971 1.17235,0.67237 1.15197,0.6503 1.13227,0.62614 1.11324,0.60255 1.09484,0.58918 1.07704,0.56372 1.0598,0.53277 1.04311,0.50719 1.02694,0.50542 1.01126,0.51476 0.99606,0.49999 0.98129,0.47052 0.96697,0.43693 0.95306,0.40044 0.93954,0.36402 0.92639,0.34981 0.91362,0.37351 0.90119,0.39668 0.88909,0.38073 0.87731,0.34884 0.86585,0.34095 0.85467,0.34111 0.84379,0.33211 0.83317,0.31337 0.82282,0.28929 0.81273,0.26681 0.80287,0.24965 0.79326,0.24191 0.78387,0.23794 0.7747,0.2371 0.76575,0.23478 0.75699,0.23377 0.74844,0.23349 0.74008,0.23473 0.7319,0.23485 0.7239,0.2317 0.71608,0.22546 0.70841,0.21689 0.70092,0.20796 0.69358,0.19901 0.6864,0.19127 0.67935,0.18412 0.67245,0.17791"
       style="fill:none;stroke:#1f77b4;stroke-width:1.5;stroke-linecap:square"
       id="path76" />
  </g>
  <g
     id="line2d_46">
    <path
       clip-path="url(#pa730d0fd80)"
       d="m -1,32.212873 61.696307,4e-6 45.911493,0.01112 26.8565,0.01112 19.05499,0.01112 14.78019,0.01112 12.0763,1.1e-5 10.21037,1e-5 8.84462,7e-6 7.80151,1.4e-5 6.97869,7e-6 6.31299,1.4e-5 5.76331,1.3e-5 5.30174,2.1e-5 4.90863,1.4e-5 4.56983,2.1e-5 4.27479,1.7e-5 4.01555,2.1e-5 3.78596,1.7e-5 3.58122,2.1e-5 3.39747,2e-5 3.23168,2.5e-5 3.08131,2.4e-5 2.94432,2.4e-5 2.81899,2.4e-5 2.7039,2.4e-5 2.59783,2.4e-5 2.49978,2.8e-5 2.40886,2.8e-5 2.32432,2.7e-5 2.24551,2.8e-5 2.17188,2.8e-5 2.10291,3.1e-5 2.0382,3.1e-5 1.97735,2.7e-5 1.92003,3.5e-5 1.86593,2.8e-5 1.81481,3.1e-5 1.76641,3.4e-5 1.72051,3.1e-5 1.67696,3.5e-5 1.63555,3.4e-5 1.59613,3.5e-5 1.55857,3.4e-5 1.52274,3.5e-5 1.48852,3.5e-5 1.4558,3.8e-5 1.42449,3.8e-5 1.3945,3.4e-5 1.36575,3.5e-5 1.33815,4.1e-5 1.31165,4.2e-5 1.28619,3.4e-5 1.26168,4.2e-5 1.23809,3.4e-5 1.21538,4.1e-5 1.19348,4.2e-5 1.17235,4.1e-5 1.15197,4.2e-5 1.13227,4.1e-5 1.11324,4.2e-5 1.09484,4.1e-5 1.07704,4.5e-5 1.0598,4.2e-5 1.04311,4.4e-5 1.02694,4.2e-5 1.01126,4.5e-5 0.99606,4.5e-5 0.98129,4.1e-5 0.96697,4.9e-5 0.95306,4.8e-5 0.93954,4.1e-5 0.92639,4.9e-5 0.91362,4.8e-5 0.90119,4.5e-5 0.88909,4.5e-5 0.87731,4.8e-5 0.86585,4.9e-5 0.85467,4.8e-5 0.84379,4.8e-5 0.83317,4.9e-5 0.82282,4.8e-5 0.81273,5.2e-5 0.80287,5.2e-5 0.79326,4.8e-5 0.78387,5.2e-5 0.7747,4.8e-5 0.76575,5.2e-5 0.75699,5.5e-5 0.74844,4.9e-5 0.74008,5.1e-5 0.7319,5.6e-5 0.7239,5.2e-5 0.71608,5.1e-5 0.70841,5.6e-5 0.70092,5.1e-5 0.69358,5.6e-5 0.6864,5.2e-5 0.67935,5.8e-5 0.67245,5.2e-5"
       style="fill:none;stroke:#ff7f0e;stroke-width:1.5;stroke-linecap:square"
       id="path77" />
  </g>
  <g
     id="line2d_47">
    <path
       clip-path="url(#pa730d0fd80)"
       d="m -1,63.866923 61.696307,0.01282 45.911493,52.660447 26.8565,56.819 19.05499,-32.75826 14.78019,-33.32876 12.0763,-16.745391 10.21037,-7.314355 8.84462,-1.033975 7.80151,3.828364 6.97869,8.242046 6.31299,12.803011 5.76331,18.40769 5.30174,25.0678 4.90863,28.35161 4.56983,6.43569 4.27479,-13.6079 4.01555,-20.57473 3.78596,-16.04709 3.58122,-7.91257 3.39747,-0.30819 3.23168,6.57098 3.08131,12.95556 2.94432,17.95919 2.81899,17.2248 2.7039,10.49147 2.59783,3.92207 2.49978,-4.62322 2.40886,-10.352 2.32432,-9.42274 2.24551,-5.96012 2.17188,-2.28367 2.10291,1.28358 2.0382,4.70918 1.97735,7.83639 1.92003,10.20969 1.86593,10.75448 1.81481,7.59152 1.76641,1.99595 1.72051,-2.04104 1.67696,-3.08437 1.63555,-3.01821 1.59613,-2.67856 1.55857,-1.70602 1.52274,-0.54471 1.48852,0.81403 1.4558,2.10852 1.42449,3.07497 1.3945,3.55348 1.36575,3.45065 1.33815,2.893 1.31165,2.19804 1.28619,1.35108 1.26168,0.54333 1.23809,0.004 1.21538,-0.27136 1.19348,-0.43807 1.17235,-0.20902 1.15197,0.24701 1.13227,0.7658 1.11324,1.08275 1.09484,1.28504 1.07704,1.35493 1.0598,1.06483 1.04311,0.70943 1.02694,0.34338 1.01126,0.14877 0.99606,0.0507 0.98129,-0.0261 0.96697,0.0625 0.95306,0.32471 0.93954,0.3415 0.92639,0.30859 0.91362,0.38238 0.90119,0.43668 0.88909,0.50418 0.87731,0.34299 0.86585,0.20268 0.85467,0.32018 0.84379,0.2042 0.83317,0.0768 0.82282,0.20524 0.81273,0.14668 0.80287,0.18634 0.79326,0.20038 0.78387,0.1116 0.7747,0.21891 0.76575,0.15922 0.75699,0.10888 0.74844,0.18244 0.74008,0.12679 0.7319,0.17963 0.7239,0.12306 0.71608,0.0473 0.70841,0.0949 0.70092,0.1104 0.69358,0.16269 0.6864,0.15874 0.67935,0.11052 0.67245,0.10137"
       style="fill:none;stroke:#2ca02c;stroke-width:1.5;stroke-linecap:square"
       id="path78" />
  </g>
  <g
     id="line2d_48">
    <path
       clip-path="url(#pa730d0fd80)"
       d="m -1,33.013836 61.696307,3.29e-4 45.911493,0.8385 26.8565,0.856624 19.05499,0.870805 14.78019,0.882641 12.0763,0.892941 10.21037,0.902155 8.84462,0.910571 7.80151,0.918378 6.97869,0.925711 6.31299,0.932669 5.76331,0.939322 5.30174,0.945728 4.90863,0.951928 4.56983,0.957962 4.27479,0.963856 4.01555,0.96964 3.78596,0.975326 3.58122,0.980929 3.39747,0.986476 3.23168,0.991973 3.08131,0.997432 2.94432,1.002852 2.81899,1.008259 2.7039,1.013646 2.59783,1.019026 2.49978,1.0244 2.40886,1.029787 2.32432,1.035175 2.24551,1.040574 2.17188,1.045981 2.10291,1.051412 2.0382,1.056866 1.97735,1.062335 1.92003,1.067833 1.86593,1.073347 1.81481,1.078861 1.76641,1.084397 1.72051,1.089946 1.67696,1.095514 1.63555,1.101093 1.59613,1.106687 1.55857,1.11228 1.52274,1.117881 1.48852,1.123485 1.4558,1.129068 1.42449,1.134642 1.3945,1.140203 1.36575,1.145747 1.33815,1.151262 1.31165,1.156761 1.28619,1.162229 1.26168,1.167676 1.23809,1.173078 1.21538,1.178446 1.19348,1.183764 1.17235,1.189028 1.15197,1.194229 1.13227,1.199358 1.11324,1.204396 1.09484,1.209334 1.07704,1.214171 1.0598,1.218865 1.04311,1.223422 1.02694,1.227832 1.01126,1.23207 0.99606,1.23611 0.98129,1.23995 0.96697,1.24356 0.95306,1.24691 0.93954,1.24999 0.92639,1.25278 0.91362,1.25524 0.90119,1.25735 0.88909,1.25909 0.87731,1.26041 0.86585,1.26131 0.85467,1.26173 0.84379,1.26165 0.83317,1.26094 0.82282,1.25964 0.81273,1.25764 0.80287,1.25496 0.79326,1.25153 0.78387,1.24733 0.7747,1.2423 0.76575,1.23642 0.75699,1.22962 0.74844,1.22184 0.74008,1.21304 0.7319,1.20332 0.7239,1.19265 0.71608,1.18089 0.70841,1.16821 0.70092,1.15431 0.69358,1.13942 0.6864,1.12331 0.67935,1.10605 0.67245,1.08778"
       style="fill:none;stroke:#d62728;stroke-width:1.5;stroke-linecap:square"
       id="path79" />
  </g>
  <g
     id="line2d_49">
    <path
       clip-path="url(#pa730d0fd80)"
       d="m -1,63.866928 61.696307,0.01281 45.911493,41.271462 26.8565,47.97783 19.05499,22.54744 14.78019,-12.79835 12.0763,-19.10733 10.21037,-13.25124 8.84462,-8.17589 7.80151,-4.60676 6.97869,-1.96625 6.31299,0.0643 5.76331,1.75472 5.30174,3.21848 4.90863,4.51829 4.56983,5.72469 4.27479,6.83239 4.01555,7.84938 3.78596,8.71737 3.58122,9.27359 3.39747,9.26481 3.23168,8.37506 3.08131,6.35331 2.94432,3.57387 2.81899,0.80215 2.7039,-0.99501 2.59783,-1.68595 2.49978,-1.77697 2.40886,-1.67657 2.32432,-1.49253 2.24551,-1.24155 2.17188,-0.93999 2.10291,-0.60888 2.0382,-0.25659 1.97735,0.0976 1.92003,0.43795 1.86593,0.74341 1.81481,1.00054 1.76641,1.20638 1.72051,1.3468 1.67696,1.4382 1.63555,1.46954 1.59613,1.45348 1.55857,1.40054 1.52274,1.32573 1.48852,1.23204 1.4558,1.12622 1.42449,1.01671 1.3945,0.91036 1.36575,0.80667 1.33815,0.70958 1.31165,0.62041 1.28619,0.53993 1.26168,0.47315 1.23809,0.41439 1.21538,0.36665 1.19348,0.32684 1.17235,0.29485 1.15197,0.27083 1.13227,0.25259 1.11324,0.24028 1.09484,0.2329 1.07704,0.22984 1.0598,0.23029 1.04311,0.23308 1.02694,0.23693 1.01126,0.2412 0.99606,0.24455 0.98129,0.24693 0.96697,0.24974 0.95306,0.25158 0.93954,0.25099 0.92639,0.2482 0.91362,0.243 0.90119,0.23561 0.88909,0.22915 0.87731,0.22281 0.86585,0.21549 0.85467,0.20786 0.84379,0.20051 0.83317,0.19328 0.82282,0.18649 0.81273,0.1802 0.80287,0.17453 0.79326,0.16863 0.78387,0.16446 0.7747,0.16161 0.76575,0.15962 0.75699,0.15784 0.74844,0.15592 0.74008,0.15326 0.7319,0.14985 0.7239,0.14889 0.71608,0.14811 0.70841,0.14719 0.70092,0.14477 0.69358,0.1417 0.6864,0.141 0.67935,0.14065 0.67245,0.14027"
       style="fill:none;stroke:#9467bd;stroke-width:1.5;stroke-linecap:square"
       id="path80" />
  </g>
  <g
     id="line2d_50">
    <path
       clip-path="url(#pa730d0fd80)"
       d="m -1,32.212873 61.696307,4e-6 45.911493,0.01112 26.8565,0.01112 19.05499,0.01112 14.78019,0.01111 12.0763,0.01112 10.21037,0.01112 8.84462,0.01111 7.80151,0.01112 6.97869,0.01111 6.31299,0.01111 5.76331,0.01112 5.30174,0.01111 4.90863,0.01111 4.56983,0.01112 4.27479,0.01111 4.01555,0.01112 3.78596,0.01111 3.58122,0.01112 3.39747,0.01112 3.23168,0.01111 3.08131,0.01111 2.94432,0.01111 2.81899,0.01111 2.7039,0.01111 2.59783,0.01111 2.49978,0.01111 2.40886,0.01111 2.32432,0.01111 2.24551,0.01111 2.17188,0.01111 2.10291,0.01111 2.0382,0.01111 1.97735,0.01111 1.92003,0.0111 1.86593,0.01111 1.81481,0.01111 1.76641,0.01111 1.72051,0.01111 1.67696,0.01111 1.63555,0.01111 1.59613,0.01111 1.55857,0.01111 1.52274,0.0111 1.48852,0.01111 1.4558,0.01111 1.42449,0.01111 1.3945,0.0111 1.36575,0.01111 1.33815,0.01111 1.31165,0.01111 1.28619,0.0111 1.26168,0.01111 1.23809,0.01111 1.21538,0.0111 1.19348,0.01111 1.17235,0.01111 1.15197,0.0111 1.13227,0.01111 1.11324,0.01111 1.09484,0.0111 1.07704,0.0111 1.0598,0.01111 1.04311,0.0111 1.02694,0.01111 1.01126,0.01111 0.99606,0.0111 0.98129,0.0111 0.96697,0.0111 0.95306,0.0111 0.93954,0.0111 0.92639,0.0111 0.91362,0.0111 0.90119,0.0111 0.88909,0.0111 0.87731,0.0111 0.86585,0.0111 0.85467,0.0111 0.84379,0.0111 0.83317,0.0111 0.82282,0.0111 0.81273,0.0111 0.80287,0.0111 0.79326,0.0111 0.78387,0.0111 0.7747,0.0111 0.76575,0.0111 0.75699,0.0111 0.74844,0.0111 0.74008,0.0111 0.7319,0.0111 0.7239,0.01109 0.71608,0.0111 0.70841,0.01109 0.70092,0.0111 0.69358,0.0111 0.6864,0.0111 0.67935,0.0111 0.67245,0.01109"
       style="fill:none;stroke:#8c564b;stroke-width:1.5;stroke-linecap:square"
       id="path81" />
  </g>
  <g
     id="line2d_51">
    <path
       clip-path="url(#pa730d0fd80)"
       d="m -1,32.201779 h 61.696307 l 45.911493,43.741572 26.8565,34.699999 19.05499,27.42993 14.78019,14.34168 12.0763,10.51337 10.21037,6.17685 8.84462,2.94636 7.80151,1.51391 6.97869,3.05136 6.31299,4.0151 5.76331,2.91217 5.30174,2.864 4.90863,2.39707 4.56983,1.36485 4.27479,1.40112 4.01555,1.8243 3.78596,1.6362 3.58122,1.59711 3.39747,1.49155 3.23168,1.33931 3.08131,1.50093 2.94432,1.23398 2.81899,1.23983 2.7039,1.31601 2.59783,1.11978 2.49978,0.99008 2.40886,0.95235 2.32432,0.84559 2.24551,0.80564 2.17188,0.90035 2.10291,0.94686 2.0382,0.86169 1.97735,0.99043 1.92003,0.93896 1.86593,0.86771 1.81481,0.87157 1.76641,0.79007 1.72051,0.7153 1.67696,0.6633 1.63555,0.58193 1.59613,0.79326 1.55857,0.6822 1.52274,0.78544 1.48852,0.68071 1.4558,0.59426 1.42449,0.50508 1.3945,0.51891 1.36575,0.48155 1.33815,0.46914 1.31165,0.40482 1.28619,0.3745 1.26168,0.32265 1.23809,0.30073 1.21538,0.29454 1.19348,0.26191 1.17235,0.29609 1.15197,0.28189 1.13227,0.19769 1.11324,0.18643 1.09484,0.18633 1.07704,0.16348 1.0598,0.19255 1.04311,0.15238 1.02694,0.1659 1.01126,0.12042 0.99606,0.10573 0.98129,0.0921 0.96697,0.0838 0.95306,0.1326 0.93954,0.10215 0.92639,0.0919 0.91362,0.0825 0.90119,0.0692 0.88909,0.0896 0.87731,0.0665 0.86585,0.0868 0.85467,0.0587 0.84379,0.0531 0.83317,0.0678 0.82282,0.064 0.81273,0.0511 0.80287,0.0491 0.79326,0.0473 0.78387,0.0341 0.7747,0.0335 0.76575,0.0417 0.75699,0.0317 0.74844,0.0334 0.74008,0.0358 0.7319,0.0322 0.7239,0.0337 0.71608,0.0319 0.70841,0.0219 0.70092,0.0334 0.69358,0.0209 0.6864,0.0295 0.67935,0.0164 0.67245,0.0458"
       style="fill:none;stroke:#e377c2;stroke-width:1.5;stroke-linecap:square"
       id="path82" />
  </g>
  <g
     id="line2d_52">
    <path
       clip-path="url(#pa730d0fd80)"
       d="m -1,63.86693 61.696307,0.01281 45.911493,24.715848 26.8565,21.063392 19.05499,17.07535 14.78019,5.52035 12.0763,-0.77554 10.21037,9.11437 8.84462,9.7642 7.80151,7.2666 6.97869,4.6037 6.31299,3.26643 5.76331,2.66292 5.30174,2.27896 4.90863,2.17763 4.56983,2.0096 4.27479,1.78616 4.01555,1.62802 3.78596,1.51872 3.58122,1.37827 3.39747,1.22723 3.23168,1.08048 3.08131,0.94754 2.94432,0.83232 2.81899,0.72849 2.7039,0.63485 2.59783,0.54789 2.49978,0.4767 2.40886,0.42348 2.32432,0.39392 2.24551,0.37569 2.17188,0.36486 2.10291,0.34671 2.0382,0.33035 1.97735,0.31398 1.92003,0.29255 1.86593,0.26423 1.81481,0.24639 1.76641,0.23336 1.72051,0.2141 1.67696,0.18305 1.63555,0.14803 1.59613,0.11509 1.55857,0.0936 1.52274,0.0867 1.48852,0.10006 1.4558,0.12515 1.42449,0.15885 1.3945,0.1896 1.36575,0.21403 1.33815,0.22948 1.31165,0.23745 1.28619,0.24401 1.26168,0.24877 1.23809,0.25583 1.21538,0.25715 1.19348,0.25346 1.17235,0.23223 1.15197,0.19237 1.13227,0.11472 1.11324,-0.0131 1.09484,-0.22772 1.07704,-0.53231 1.0598,-0.85604 1.04311,-0.96754 1.02694,-0.68658 1.01126,-0.13564 0.99606,0.35437 0.98129,0.61187 0.96697,0.65632 0.95306,0.58481 0.93954,0.47136 0.92639,0.36411 0.91362,0.28064 0.90119,0.22504 0.88909,0.19017 0.87731,0.17379 0.86585,0.17117 0.85467,0.1856 0.84379,0.20679 0.83317,0.22993 0.82282,0.24235 0.81273,0.24594 0.80287,0.24099 0.79326,0.23019 0.78387,0.21757 0.7747,0.20251 0.76575,0.19082 0.75699,0.17837 0.74844,0.1704 0.74008,0.15956 0.7319,0.15025 0.7239,0.13382 0.71608,0.11484 0.70841,0.0875 0.70092,0.0605 0.69358,0.0328 0.6864,0.0139 0.67935,5.5e-4 0.67245,-0.004"
       style="fill:none;stroke:#7f7f7f;stroke-width:1.5;stroke-linecap:square"
       id="path83" />
  </g>
  <g
     id="line2d_53">
    <path
       clip-path="url(#pa730d0fd80)"
       d="m -1,34.802559 61.696307,0.0011 45.911493,2.701853 26.8565,2.809601 19.05499,2.925994 14.78019,3.052081 12.0763,3.189054 10.21037,3.338302 8.84462,3.501465 7.80151,3.680417 6.97869,3.877363 6.31299,4.094865 5.76331,4.335639 5.30174,4.602838 4.90863,4.899785 4.56983,5.229986 4.27479,5.597175 4.01555,6.004037 3.78596,6.450026 3.58122,6.9278 3.39747,7.41526 3.23168,7.85711 3.08131,8.13342 2.94432,8.041 2.81899,7.45729 2.7039,6.59511 2.59783,5.69903 2.49978,5.16129 2.40886,4.64246 2.32432,3.49777 2.24551,2.197 2.17188,1.48368 2.10291,1.14485 2.0382,1.19629 1.97735,1.17112 1.92003,1.12338 1.86593,1.02566 1.81481,0.91536 1.76641,0.82781 1.72051,0.73107 1.67696,0.67165 1.63555,0.59851 1.59613,0.53087 1.55857,0.51764 1.52274,0.46533 1.48852,0.41287 1.4558,0.39346 1.42449,0.37103 1.3945,0.37238 1.36575,0.36783 1.33815,0.34034 1.31165,0.33279 1.28619,0.33062 1.26168,0.31881 1.23809,0.29898 1.21538,0.30335 1.19348,0.29239 1.17235,0.28772 1.15197,0.28388 1.13227,0.27074 1.11324,0.26802 1.09484,0.27154 1.07704,0.25869 1.0598,0.25556 1.04311,0.25168 1.02694,0.24617 1.01126,0.2396 0.99606,0.24307 0.98129,0.2378 0.96697,0.23294 0.95306,0.22669 0.93954,0.2291 0.92639,0.22872 0.91362,0.22511 0.90119,0.21877 0.88909,0.20302 0.87731,0.2115 0.86585,0.20368 0.85467,0.18446 0.84379,0.18696 0.83317,0.18488 0.82282,0.18384 0.81273,0.17588 0.80287,0.17123 0.79326,0.17297 0.78387,0.16532 0.7747,0.17037 0.76575,0.16659 0.75699,0.16126 0.74844,0.15809 0.74008,0.15624 0.7319,0.15798 0.7239,0.15945 0.71608,0.16207 0.70841,0.16199 0.70092,0.16025 0.69358,0.15471 0.6864,0.15744 0.67935,0.14933 0.67245,0.14896"
       style="fill:none;stroke:#bcbd22;stroke-width:1.5;stroke-linecap:square"
       id="path84" />
  </g>
  <g
     id="line2d_54">
    <path
       clip-path="url(#pa730d0fd80)"
       d="m -1,49.315494 61.696307,0.0037 45.911493,10.291502 26.8565,11.864896 19.05499,13.873453 14.78019,16.348145 12.0763,18.84244 10.21037,4.97299 8.84462,5.01355 7.80151,5.02449 6.97869,5.01177 6.31299,4.98491 5.76331,4.95406 5.30174,4.91047 4.90863,4.83343 4.56983,4.67231 4.27479,4.3866 4.01555,3.95542 3.78596,3.34187 3.58122,0.24426 3.39747,0.21592 3.23168,0.77871 3.08131,0.7375 2.94432,0.20075 2.81899,0.74171 2.7039,0.69771 2.59783,0.19204 2.49978,0.7042 2.40886,0.64469 2.32432,0.18894 2.24551,0.66091 2.17188,0.17789 2.10291,2.35357 2.0382,0.26924 1.97735,0.18588 1.92003,0.5548 1.86593,0.17374 1.81481,0.58036 1.76641,0.16022 1.72051,2.20404 1.67696,0.0651 1.63555,0.0582 1.59613,0.0521 1.55857,0.0469 1.52274,0.15026 1.48852,2.17721 1.4558,0.0461 1.42449,0.0414 1.3945,0.13557 1.36575,1.95759 1.33815,0.0616 1.31165,0.0536 1.28619,0.0466 1.26168,0.0411 1.23809,0.12854 1.21538,0.48097 1.19348,0.0375 1.17235,0.12253 1.15197,0.45449 1.13227,0.0418 1.11324,0.0368 1.09484,0.11995 1.07704,0.43313 1.0598,0.0447 1.04311,0.0385 1.02694,0.0344 1.01126,0.11885 0.99606,0.42451 0.98129,0.045 0.96697,0.0385 0.95306,0.0342 0.93954,0.11662 0.92639,0.11936 0.91362,0.44364 0.90119,0.0392 0.88909,0.0343 0.87731,0.11366 0.86585,0.11661 0.85467,0.41437 0.84379,0.044 0.83317,0.0372 0.82282,0.0328 0.81273,0.11265 0.80287,0.11461 0.79326,0.39477 0.78387,0.0467 0.7747,0.0388 0.76575,0.0334 0.75699,0.10899 0.74844,0.11128 0.74008,0.11232 0.7319,0.11279 0.7239,0.38469 0.71608,0.0471 0.70841,0.0387 0.70092,0.033 0.69358,0.10605 0.6864,0.10765 0.67935,0.1084 0.67245,0.10871"
       style="fill:none;stroke:#17becf;stroke-width:1.5;stroke-dasharray:5.55, 2.4;stroke-dashoffset:0"
       id="path85" />
  </g>
  <g
     id="line2d_55">
    <path
       clip-path="url(#pa730d0fd80)"
       d="m -1,147.50238 61.696307,0.004 45.911493,4.8462 26.8565,3.43615 19.05499,2.22556 14.78019,1.97856 12.0763,1.779 10.21037,1.61527 8.84462,1.47485 7.80151,1.35346 6.97869,1.24676 6.31299,1.15409 5.76331,0.90599 5.30174,6.91325 4.90863,3.82347 4.56983,1.65174 4.27479,1.08448 4.01555,1.10529 3.78596,0.75806 3.58122,0.44257 3.39747,0.35083 3.23168,0.33968 3.08131,0.33064 2.94432,0.32224 2.81899,0.31605 2.7039,0.30836 2.59783,0.30111 2.49978,0.29388 2.40886,0.29391 2.32432,0.28723 2.24551,0.28072 2.17188,0.27421 2.10291,0.2741 2.0382,0.26785 1.97735,0.26208 1.92003,0.25639 1.86593,0.25473 1.81481,0.24932 1.76641,0.24421 1.72051,0.23922 1.67696,0.23688 1.63555,0.23221 1.59613,0.22778 1.55857,0.22342 1.52274,0.22128 1.48852,0.21678 1.4558,0.21347 1.42449,0.20959 1.3945,0.20805 1.36575,0.2044 1.33815,0.2016 1.31165,0.19414 1.28619,0.19227 1.26168,0.18238 1.23809,0.18077 1.21538,0.1732 1.19348,0.17125 1.17235,0.16729 1.15197,0.1656 1.13227,0.16311 1.11324,0.16151 1.09484,0.15935 1.07704,0.15777 1.0598,0.15576 1.04311,0.15421 1.02694,0.13004 1.01126,2.60984 0.99606,2.10334 0.98129,0.15112 0.96697,0.14063 0.95306,5.37836 0.93954,1.15356 0.92639,0.15035 0.91362,0.0827 0.90119,0.0685 0.88909,0.0667 0.87731,0.0663 0.86585,0.0659 0.85467,0.0655 0.84379,0.0653 0.83317,0.065 0.82282,0.0647 0.81273,0.0643 0.80287,0.0643 0.79326,0.064 0.78387,0.0638 0.7747,0.0635 0.76575,0.0637 0.75699,0.0634 0.74844,0.0632 0.74008,0.0628 0.7319,0.0634 0.7239,0.0628 0.71608,0.0629 0.70841,0.0623 0.70092,0.0626 0.69358,0.062 0.6864,0.0623 0.67935,0.0616 0.67245,0.0617"
       style="fill:none;stroke:#1f77b4;stroke-width:1.5;stroke-dasharray:5.55, 2.4;stroke-dashoffset:0"
       id="path86" />
  </g>
  <g
     id="line2d_56">
    <path
       clip-path="url(#pa730d0fd80)"
       d="m -1,165.65601 61.696307,0.0114 45.911493,20.5765 26.8565,18.33457 19.05499,11.94308 14.78019,6.46338 12.0763,1.26488 10.21037,1.34995 8.84462,1.52225 7.80151,1.01595"
       style="fill:none;stroke:#ff7f0e;stroke-width:1.5;stroke-dasharray:5.55, 2.4;stroke-dashoffset:0"
       id="path87" />
  </g>
  <g
     id="line2d_57">
    <path
       clip-path="url(#pa730d0fd80)"
       d="m -1,32.201761 h 61.696307 45.911493 26.8565 19.05499 14.78019 12.0763 10.21037 8.84462 7.80151 6.97869 6.31299 5.76331 5.30174 4.90863 4.56983 4.27479 4.01555 3.78596 3.58122 3.39747 3.23168 3.08131 2.94432 2.81899 2.7039 2.59783 2.49978 2.40886 2.32432 2.24551 2.17188 2.10291 2.0382 1.97735 1.92003 1.86593 1.81481 1.76641 1.72051 1.67696 1.63555 1.59613 1.55857 1.52274 1.48852 1.4558 1.42449 1.3945 1.36575 1.33815 1.31165 1.28619 1.26168 1.23809 1.21538 1.19348 1.17235 1.15197 1.13227 1.11324 1.09484 1.07704 1.0598 1.04311 1.02694 1.01126 0.99606 0.98129 0.96697 0.95306 0.93954 0.92639 0.91362 0.90119 0.88909 0.87731 0.86585 0.85467 0.84379 0.83317 0.82282 0.81273 0.80287 0.79326 0.78387 0.7747 0.76575 0.75699 0.74844 0.74008 0.7319 0.7239 0.71608 0.70841 0.70092 0.69358 0.6864 0.67935 0.67245"
       style="fill:none;stroke:#2ca02c;stroke-width:1.5;stroke-dasharray:5.55, 2.4;stroke-dashoffset:0"
       id="path88" />
  </g>
  <g
     id="patch_3">
    <path
       d="M 45.478125,239.75812 V 22.318125"
       style="fill:none;stroke:#000000;stroke-width:0.8;stroke-linecap:square;stroke-linejoin:miter"
       id="path89" />
  </g>
  <g
     id="patch_4">
    <path
       d="M 380.27812,239.75812 V 22.318125"
       style="fill:none;stroke:#000000;stroke-width:0.8;stroke-linecap:square;stroke-linejoin:miter"
       id="path90" />
  </g>
  <g
     id="patch_5">
    <path
       d="M 45.478125,239.75812 H 380.27812"
       style="fill:none;stroke:#000000;stroke-width:0.8;stroke-linecap:square;stroke-linejoin:miter"
       id="path91" />
  </g>
  <g
     id="patch_6">
    <path
       d="M 45.478125,22.318125 H 380.27812"
       style="fill:none;stroke:#000000;stroke-width:0.8;stroke-linecap:square;stroke-linejoin:miter"
       id="path92" />
  </g>
  <defs
     id="defs179">
    <clipPath
       id="pa730d0fd80">
      <rect
         height="217.44"
         width="334.79999"
         x="45.478127"
         y="22.318125"
         id="rect179" />
    </clipPath>
  </defs>
</svg>
