<?xml version="1.0" encoding="UTF-8" standalone="no"?>
<!-- Created with matplotlib (https://matplotlib.org/) -->

<svg
   height="277.314pt"
   version="1.1"
   viewBox="0 0 400 277.314"
   width="400pt"
   id="svg185"
   sodipodi:docname="TGG119Multi-time.svg"
   inkscape:version="1.3.2 (091e20e, 2023-11-25, custom)"
   xmlns:inkscape="http://www.inkscape.org/namespaces/inkscape"
   xmlns:sodipodi="http://sodipodi.sourceforge.net/DTD/sodipodi-0.dtd"
   xmlns:xlink="http://www.w3.org/1999/xlink"
   xmlns="http://www.w3.org/2000/svg"
   xmlns:svg="http://www.w3.org/2000/svg"
   xmlns:rdf="http://www.w3.org/1999/02/22-rdf-syntax-ns#"
   xmlns:cc="http://creativecommons.org/ns#"
   xmlns:dc="http://purl.org/dc/elements/1.1/">
  <sodipodi:namedview
     id="namedview185"
     pagecolor="#ffffff"
     bordercolor="#000000"
     borderopacity="0.25"
     inkscape:showpageshadow="2"
     inkscape:pageopacity="0.0"
     inkscape:pagecheckerboard="0"
     inkscape:deskcolor="#d1d1d1"
     inkscape:document-units="pt"
     inkscape:zoom="1.0718363"
     inkscape:cx="241.1749"
     inkscape:cy="274.76211"
     inkscape:window-width="1920"
     inkscape:window-height="1009"
     inkscape:window-x="1912"
     inkscape:window-y="-8"
     inkscape:window-maximized="1"
     inkscape:current-layer="svg185" />
  <metadata
     id="metadata1">
    <rdf:RDF>
      <cc:Work>
        <dc:type
           rdf:resource="http://purl.org/dc/dcmitype/StillImage" />
        <dc:date>2023-05-25T09:39:14.857828</dc:date>
        <dc:format>image/svg+xml</dc:format>
        <dc:creator>
          <cc:Agent>
            <dc:title>Matplotlib v3.3.2, https://matplotlib.org/</dc:title>
          </cc:Agent>
        </dc:creator>
      </cc:Work>
    </rdf:RDF>
  </metadata>
  <defs
     id="defs1">
    <style
       type="text/css"
       id="style1">*{stroke-linecap:butt;stroke-linejoin:round;}</style>
  </defs>
  <g
     id="patch_1">
    <path
       d="M 0,277.31437 H 488.35425 V 0 H 0 Z"
       style="fill:none"
       id="path1" />
  </g>
  <g
     id="patch_2">
    <path
       d="M 45.478125,239.75812 H 380.27812 V 22.318125 H 45.478125 Z"
       style="fill:#ffffff"
       id="path2" />
  </g>
  <g
     id="matplotlib.axis_1">
    <g
       id="xtick_1">
      <g
         id="line2d_1">
        <defs
           id="defs2">
          <path
             d="M 0,0 V 3.5"
             id="m2876c6c63c"
             style="stroke:#000000;stroke-width:0.8" />
        </defs>
        <g
           id="g2">
          <use
             style="stroke:#000000;stroke-width:0.8"
             x="50.88615"
             xlink:href="#m2876c6c63c"
             y="239.75812"
             id="use2" />
        </g>
      </g>
      <g
         id="text_1">
        <!-- $\mathdefault{10^{-3}}$ -->
        <g
           transform="matrix(0.1,0,0,-0.1,39.13615,254.35656)"
           id="g6">
          <defs
             id="defs3">
            <path
               d="m 12.40625,8.296875 h 16.109375 v 55.625 L 10.984375,60.40625 v 8.984375 l 17.4375,3.515625 H 38.28125 V 8.296875 H 54.390625 V 0 H 12.40625 Z"
               id="DejaVuSans-49" />
            <path
               d="m 31.78125,66.40625 q -7.609375,0 -11.453125,-7.5 Q 16.5,51.421875 16.5,36.375 q 0,-14.984375 3.828125,-22.484375 3.84375,-7.5 11.453125,-7.5 7.671875,0 11.5,7.5 3.84375,7.5 3.84375,22.484375 0,15.046875 -3.84375,22.53125 -3.828125,7.5 -11.5,7.5 z m 0,7.8125 q 12.265625,0 18.734375,-9.703125 6.46875,-9.6875 6.46875,-28.140625 0,-18.40625 -6.46875,-28.109375 -6.46875,-9.6875 -18.734375,-9.6875 -12.25,0 -18.71875,9.6875 Q 6.59375,17.96875 6.59375,36.375 q 0,18.453125 6.46875,28.140625 6.46875,9.703125 18.71875,9.703125 z"
               id="DejaVuSans-48" />
            <path
               d="M 10.59375,35.5 H 73.1875 V 27.203125 H 10.59375 Z"
               id="DejaVuSans-8722" />
            <path
               d="M 40.578125,39.3125 Q 47.65625,37.796875 51.625,33 q 3.984375,-4.78125 3.984375,-11.8125 0,-10.78125 -7.421875,-16.703125 -7.421875,-5.90625 -21.09375,-5.90625 -4.578125,0 -9.4375,0.90625 -4.859375,0.90625 -10.03125,2.71875 v 9.515625 q 4.09375,-2.390625 8.96875,-3.609375 4.890625,-1.21875 10.21875,-1.21875 9.265625,0 14.125,3.65625 4.859375,3.65625 4.859375,10.640625 0,6.453125 -4.515625,10.078125 -4.515625,3.640625 -12.5625,3.640625 h -8.5 v 8.109375 h 8.890625 q 7.265625,0 11.125,2.90625 3.859375,2.90625 3.859375,8.375 0,5.609375 -3.984375,8.609375 -3.96875,3.015625 -11.390625,3.015625 -4.0625,0 -8.703125,-0.890625 Q 15.375,64.15625 9.8125,62.3125 v 8.78125 q 5.625,1.5625 10.53125,2.34375 4.90625,0.78125 9.25,0.78125 11.234375,0 17.765625,-5.109375 6.546875,-5.09375 6.546875,-13.78125 0,-6.0625 -3.46875,-10.234375 -3.46875,-4.171875 -9.859375,-5.78125 z"
               id="DejaVuSans-51" />
          </defs>
          <use
             transform="translate(0,0.765625)"
             xlink:href="#DejaVuSans-49"
             id="use3" />
          <use
             transform="translate(63.623047,0.765625)"
             xlink:href="#DejaVuSans-48"
             id="use4" />
          <use
             transform="matrix(0.7,0,0,0.7,128.20312,39.046875)"
             xlink:href="#DejaVuSans-8722"
             id="use5" />
          <use
             transform="matrix(0.7,0,0,0.7,186.85547,39.046875)"
             xlink:href="#DejaVuSans-51"
             id="use6" />
        </g>
      </g>
    </g>
    <g
       id="xtick_2">
      <g
         id="line2d_2">
        <g
           id="g7">
          <use
             style="stroke:#000000;stroke-width:0.8"
             x="128.27335"
             xlink:href="#m2876c6c63c"
             y="239.75812"
             id="use7" />
        </g>
      </g>
      <g
         id="text_2">
        <!-- $\mathdefault{10^{-2}}$ -->
        <g
           transform="matrix(0.1,0,0,-0.1,116.52334,254.35656)"
           id="g11">
          <defs
             id="defs7">
            <path
               d="M 19.1875,8.296875 H 53.609375 V 0 H 7.328125 v 8.296875 q 5.609375,5.8125 15.296875,15.59375 9.703125,9.796875 12.1875,12.640625 4.734375,5.3125 6.609375,9 1.890625,3.6875 1.890625,7.25 0,5.8125 -4.078125,9.46875 -4.078125,3.671875 -10.625,3.671875 -4.640625,0 -9.796875,-1.609375 -5.140625,-1.609375 -11,-4.890625 v 9.96875 Q 13.765625,71.78125 18.9375,73 q 5.1875,1.21875 9.484375,1.21875 11.328125,0 18.0625,-5.671875 6.734375,-5.65625 6.734375,-15.125 0,-4.5 -1.6875,-8.53125 Q 49.859375,40.875 45.40625,35.40625 44.1875,33.984375 37.640625,27.21875 31.109375,20.453125 19.1875,8.296875 Z"
               id="DejaVuSans-50" />
          </defs>
          <use
             transform="translate(0,0.765625)"
             xlink:href="#DejaVuSans-49"
             id="use8" />
          <use
             transform="translate(63.623047,0.765625)"
             xlink:href="#DejaVuSans-48"
             id="use9" />
          <use
             transform="matrix(0.7,0,0,0.7,128.20312,39.046875)"
             xlink:href="#DejaVuSans-8722"
             id="use10" />
          <use
             transform="matrix(0.7,0,0,0.7,186.85547,39.046875)"
             xlink:href="#DejaVuSans-50"
             id="use11" />
        </g>
      </g>
    </g>
    <g
       id="xtick_3">
      <g
         id="line2d_3">
        <g
           id="g12">
          <use
             style="stroke:#000000;stroke-width:0.8"
             x="205.66054"
             xlink:href="#m2876c6c63c"
             y="239.75812"
             id="use12" />
        </g>
      </g>
      <g
         id="text_3">
        <!-- $\mathdefault{10^{-1}}$ -->
        <g
           transform="matrix(0.1,0,0,-0.1,193.91053,254.35656)"
           id="g16">
          <use
             transform="translate(0,0.684375)"
             xlink:href="#DejaVuSans-49"
             id="use13" />
          <use
             transform="translate(63.623047,0.684375)"
             xlink:href="#DejaVuSans-48"
             id="use14" />
          <use
             transform="matrix(0.7,0,0,0.7,128.20312,38.965625)"
             xlink:href="#DejaVuSans-8722"
             id="use15" />
          <use
             transform="matrix(0.7,0,0,0.7,186.85547,38.965625)"
             xlink:href="#DejaVuSans-49"
             id="use16" />
        </g>
      </g>
    </g>
    <g
       id="xtick_4">
      <g
         id="line2d_4">
        <g
           id="g17">
          <use
             style="stroke:#000000;stroke-width:0.8"
             x="283.04773"
             xlink:href="#m2876c6c63c"
             y="239.75812"
             id="use17" />
        </g>
      </g>
      <g
         id="text_4">
        <!-- $\mathdefault{10^{0}}$ -->
        <g
           transform="matrix(0.1,0,0,-0.1,274.24773,254.35656)"
           id="g20">
          <use
             transform="translate(0,0.765625)"
             xlink:href="#DejaVuSans-49"
             id="use18" />
          <use
             transform="translate(63.623047,0.765625)"
             xlink:href="#DejaVuSans-48"
             id="use19" />
          <use
             transform="matrix(0.7,0,0,0.7,128.20312,39.046875)"
             xlink:href="#DejaVuSans-48"
             id="use20" />
        </g>
      </g>
    </g>
    <g
       id="xtick_5">
      <g
         id="line2d_5">
        <g
           id="g21">
          <use
             style="stroke:#000000;stroke-width:0.8"
             x="360.43491"
             xlink:href="#m2876c6c63c"
             y="239.75812"
             id="use21" />
        </g>
      </g>
      <g
         id="text_5">
        <!-- $\mathdefault{10^{1}}$ -->
        <g
           transform="matrix(0.1,0,0,-0.1,351.63492,254.35656)"
           id="g24">
          <use
             transform="translate(0,0.684375)"
             xlink:href="#DejaVuSans-49"
             id="use22" />
          <use
             transform="translate(63.623047,0.684375)"
             xlink:href="#DejaVuSans-48"
             id="use23" />
          <use
             transform="matrix(0.7,0,0,0.7,128.20312,38.965625)"
             xlink:href="#DejaVuSans-49"
             id="use24" />
        </g>
      </g>
    </g>
    <g
       id="xtick_6">
      <g
         id="line2d_6">
        <defs
           id="defs24">
          <path
             d="M 0,0 V 2"
             id="m28c905158f"
             style="stroke:#000000;stroke-width:0.6" />
        </defs>
        <g
           id="g25">
          <use
             style="stroke:#000000;stroke-width:0.6"
             x="47.345104"
             xlink:href="#m28c905158f"
             y="239.75812"
             id="use25" />
        </g>
      </g>
    </g>
    <g
       id="xtick_7">
      <g
         id="line2d_7">
        <g
           id="g26">
          <use
             style="stroke:#000000;stroke-width:0.6"
             x="74.182014"
             xlink:href="#m28c905158f"
             y="239.75812"
             id="use26" />
        </g>
      </g>
    </g>
    <g
       id="xtick_8">
      <g
         id="line2d_8">
        <g
           id="g27">
          <use
             style="stroke:#000000;stroke-width:0.6"
             x="87.809227"
             xlink:href="#m28c905158f"
             y="239.75812"
             id="use27" />
        </g>
      </g>
    </g>
    <g
       id="xtick_9">
      <g
         id="line2d_9">
        <g
           id="g28">
          <use
             style="stroke:#000000;stroke-width:0.6"
             x="97.477882"
             xlink:href="#m28c905158f"
             y="239.75812"
             id="use28" />
        </g>
      </g>
    </g>
    <g
       id="xtick_10">
      <g
         id="line2d_10">
        <g
           id="g29">
          <use
             style="stroke:#000000;stroke-width:0.6"
             x="104.97748"
             xlink:href="#m28c905158f"
             y="239.75812"
             id="use29" />
        </g>
      </g>
    </g>
    <g
       id="xtick_11">
      <g
         id="line2d_11">
        <g
           id="g30">
          <use
             style="stroke:#000000;stroke-width:0.6"
             x="111.10509"
             xlink:href="#m28c905158f"
             y="239.75812"
             id="use30" />
        </g>
      </g>
    </g>
    <g
       id="xtick_12">
      <g
         id="line2d_12">
        <g
           id="g31">
          <use
             style="stroke:#000000;stroke-width:0.6"
             x="116.28591"
             xlink:href="#m28c905158f"
             y="239.75812"
             id="use31" />
        </g>
      </g>
    </g>
    <g
       id="xtick_13">
      <g
         id="line2d_13">
        <g
           id="g32">
          <use
             style="stroke:#000000;stroke-width:0.6"
             x="120.77375"
             xlink:href="#m28c905158f"
             y="239.75812"
             id="use32" />
        </g>
      </g>
    </g>
    <g
       id="xtick_14">
      <g
         id="line2d_14">
        <g
           id="g33">
          <use
             style="stroke:#000000;stroke-width:0.6"
             x="124.7323"
             xlink:href="#m28c905158f"
             y="239.75812"
             id="use33" />
        </g>
      </g>
    </g>
    <g
       id="xtick_15">
      <g
         id="line2d_15">
        <g
           id="g34">
          <use
             style="stroke:#000000;stroke-width:0.6"
             x="151.56921"
             xlink:href="#m28c905158f"
             y="239.75812"
             id="use34" />
        </g>
      </g>
    </g>
    <g
       id="xtick_16">
      <g
         id="line2d_16">
        <g
           id="g35">
          <use
             style="stroke:#000000;stroke-width:0.6"
             x="165.19641"
             xlink:href="#m28c905158f"
             y="239.75812"
             id="use35" />
        </g>
      </g>
    </g>
    <g
       id="xtick_17">
      <g
         id="line2d_17">
        <g
           id="g36">
          <use
             style="stroke:#000000;stroke-width:0.6"
             x="174.86507"
             xlink:href="#m28c905158f"
             y="239.75812"
             id="use36" />
        </g>
      </g>
    </g>
    <g
       id="xtick_18">
      <g
         id="line2d_18">
        <g
           id="g37">
          <use
             style="stroke:#000000;stroke-width:0.6"
             x="182.36467"
             xlink:href="#m28c905158f"
             y="239.75812"
             id="use37" />
        </g>
      </g>
    </g>
    <g
       id="xtick_19">
      <g
         id="line2d_19">
        <g
           id="g38">
          <use
             style="stroke:#000000;stroke-width:0.6"
             x="188.49228"
             xlink:href="#m28c905158f"
             y="239.75812"
             id="use38" />
        </g>
      </g>
    </g>
    <g
       id="xtick_20">
      <g
         id="line2d_20">
        <g
           id="g39">
          <use
             style="stroke:#000000;stroke-width:0.6"
             x="193.67311"
             xlink:href="#m28c905158f"
             y="239.75812"
             id="use39" />
        </g>
      </g>
    </g>
    <g
       id="xtick_21">
      <g
         id="line2d_21">
        <g
           id="g40">
          <use
             style="stroke:#000000;stroke-width:0.6"
             x="198.16093"
             xlink:href="#m28c905158f"
             y="239.75812"
             id="use40" />
        </g>
      </g>
    </g>
    <g
       id="xtick_22">
      <g
         id="line2d_22">
        <g
           id="g41">
          <use
             style="stroke:#000000;stroke-width:0.6"
             x="202.11949"
             xlink:href="#m28c905158f"
             y="239.75812"
             id="use41" />
        </g>
      </g>
    </g>
    <g
       id="xtick_23">
      <g
         id="line2d_23">
        <g
           id="g42">
          <use
             style="stroke:#000000;stroke-width:0.6"
             x="228.95641"
             xlink:href="#m28c905158f"
             y="239.75812"
             id="use42" />
        </g>
      </g>
    </g>
    <g
       id="xtick_24">
      <g
         id="line2d_24">
        <g
           id="g43">
          <use
             style="stroke:#000000;stroke-width:0.6"
             x="242.5836"
             xlink:href="#m28c905158f"
             y="239.75812"
             id="use43" />
        </g>
      </g>
    </g>
    <g
       id="xtick_25">
      <g
         id="line2d_25">
        <g
           id="g44">
          <use
             style="stroke:#000000;stroke-width:0.6"
             x="252.25227"
             xlink:href="#m28c905158f"
             y="239.75812"
             id="use44" />
        </g>
      </g>
    </g>
    <g
       id="xtick_26">
      <g
         id="line2d_26">
        <g
           id="g45">
          <use
             style="stroke:#000000;stroke-width:0.6"
             x="259.75186"
             xlink:href="#m28c905158f"
             y="239.75812"
             id="use45" />
        </g>
      </g>
    </g>
    <g
       id="xtick_27">
      <g
         id="line2d_27">
        <g
           id="g46">
          <use
             style="stroke:#000000;stroke-width:0.6"
             x="265.87949"
             xlink:href="#m28c905158f"
             y="239.75812"
             id="use46" />
        </g>
      </g>
    </g>
    <g
       id="xtick_28">
      <g
         id="line2d_28">
        <g
           id="g47">
          <use
             style="stroke:#000000;stroke-width:0.6"
             x="271.0603"
             xlink:href="#m28c905158f"
             y="239.75812"
             id="use47" />
        </g>
      </g>
    </g>
    <g
       id="xtick_29">
      <g
         id="line2d_29">
        <g
           id="g48">
          <use
             style="stroke:#000000;stroke-width:0.6"
             x="275.54813"
             xlink:href="#m28c905158f"
             y="239.75812"
             id="use48" />
        </g>
      </g>
    </g>
    <g
       id="xtick_30">
      <g
         id="line2d_30">
        <g
           id="g49">
          <use
             style="stroke:#000000;stroke-width:0.6"
             x="279.50668"
             xlink:href="#m28c905158f"
             y="239.75812"
             id="use49" />
        </g>
      </g>
    </g>
    <g
       id="xtick_31">
      <g
         id="line2d_31">
        <g
           id="g50">
          <use
             style="stroke:#000000;stroke-width:0.6"
             x="306.3436"
             xlink:href="#m28c905158f"
             y="239.75812"
             id="use50" />
        </g>
      </g>
    </g>
    <g
       id="xtick_32">
      <g
         id="line2d_32">
        <g
           id="g51">
          <use
             style="stroke:#000000;stroke-width:0.6"
             x="319.97079"
             xlink:href="#m28c905158f"
             y="239.75812"
             id="use51" />
        </g>
      </g>
    </g>
    <g
       id="xtick_33">
      <g
         id="line2d_33">
        <g
           id="g52">
          <use
             style="stroke:#000000;stroke-width:0.6"
             x="329.63947"
             xlink:href="#m28c905158f"
             y="239.75812"
             id="use52" />
        </g>
      </g>
    </g>
    <g
       id="xtick_34">
      <g
         id="line2d_34">
        <g
           id="g53">
          <use
             style="stroke:#000000;stroke-width:0.6"
             x="337.13904"
             xlink:href="#m28c905158f"
             y="239.75812"
             id="use53" />
        </g>
      </g>
    </g>
    <g
       id="xtick_35">
      <g
         id="line2d_35">
        <g
           id="g54">
          <use
             style="stroke:#000000;stroke-width:0.6"
             x="343.26666"
             xlink:href="#m28c905158f"
             y="239.75812"
             id="use54" />
        </g>
      </g>
    </g>
    <g
       id="xtick_36">
      <g
         id="line2d_36">
        <g
           id="g55">
          <use
             style="stroke:#000000;stroke-width:0.6"
             x="348.44748"
             xlink:href="#m28c905158f"
             y="239.75812"
             id="use55" />
        </g>
      </g>
    </g>
    <g
       id="xtick_37">
      <g
         id="line2d_37">
        <g
           id="g56">
          <use
             style="stroke:#000000;stroke-width:0.6"
             x="352.93533"
             xlink:href="#m28c905158f"
             y="239.75812"
             id="use56" />
        </g>
      </g>
    </g>
    <g
       id="xtick_38">
      <g
         id="line2d_38">
        <g
           id="g57">
          <use
             style="stroke:#000000;stroke-width:0.6"
             x="356.89386"
             xlink:href="#m28c905158f"
             y="239.75812"
             id="use57" />
        </g>
      </g>
    </g>
    <g
       id="text_6">
      <!-- time (s) -->
      <g
         transform="matrix(0.1,0,0,-0.1,193.48672,268.03469)"
         id="g65">
        <defs
           id="defs57">
          <path
             d="M 18.3125,70.21875 V 54.6875 h 18.5 v -6.984375 h -18.5 v -29.6875 q 0,-6.6875 1.828125,-8.59375 1.828125,-1.90625 7.453125,-1.90625 H 36.8125 V 0 H 27.59375 Q 17.1875,0 13.234375,3.875 9.28125,7.765625 9.28125,18.015625 v 29.6875 H 2.6875 V 54.6875 h 6.59375 v 15.53125 z"
             id="DejaVuSans-116" />
          <path
             d="M 9.421875,54.6875 H 18.40625 V 0 H 9.421875 Z m 0,21.296875 H 18.40625 V 64.59375 H 9.421875 Z"
             id="DejaVuSans-105" />
          <path
             d="M 52,44.1875 Q 55.375,50.25 60.0625,53.125 64.75,56 71.09375,56 q 8.546875,0 13.1875,-5.984375 4.640625,-5.96875 4.640625,-17 V 0 h -9.03125 v 32.71875 q 0,7.859375 -2.796875,11.65625 -2.78125,3.8125 -8.484375,3.8125 -6.984375,0 -11.046875,-4.640625 -4.046875,-4.625 -4.046875,-12.640625 V 0 h -9.03125 v 32.71875 q 0,7.90625 -2.78125,11.6875 -2.78125,3.78125 -8.59375,3.78125 -6.890625,0 -10.953125,-4.65625 -4.046875,-4.65625 -4.046875,-12.625 V 0 h -9.03125 v 54.6875 h 9.03125 v -8.5 q 3.078125,5.03125 7.375,7.421875 Q 29.78125,56 35.6875,56 41.65625,56 45.828125,52.96875 50,49.953125 52,44.1875 Z"
             id="DejaVuSans-109" />
          <path
             d="m 56.203125,29.59375 v -4.390625 h -41.3125 q 0.59375,-9.28125 5.59375,-14.140625 5,-4.859375 13.9375,-4.859375 5.171875,0 10.03125,1.265625 4.859375,1.265625 9.65625,3.8125 v -8.5 q -4.84375,-2.046875 -9.921875,-3.125 -5.078125,-1.078125 -10.296875,-1.078125 -13.09375,0 -20.734375,7.609375 -7.640625,7.625 -7.640625,20.625 0,13.421875 7.25,21.296875 Q 20.015625,56 32.328125,56 q 11.03125,0 17.453125,-7.109375 6.421875,-7.09375 6.421875,-19.296875 z m -8.984375,2.640625 q -0.09375,7.359375 -4.125,11.75 -4.03125,4.40625 -10.671875,4.40625 -7.515625,0 -12.03125,-4.25 -4.515625,-4.25 -5.203125,-11.96875 z"
             id="DejaVuSans-101" />
          <path
             id="DejaVuSans-32"
             d="" />
          <path
             d="M 31,75.875 Q 24.46875,64.65625 21.28125,53.65625 18.109375,42.671875 18.109375,31.390625 18.109375,20.125 21.3125,9.0625 24.515625,-2 31,-13.1875 H 23.1875 Q 15.875,-1.703125 12.234375,9.375 8.59375,20.453125 8.59375,31.390625 q 0,10.890625 3.609375,21.921875 3.625,11.046875 10.984375,22.5625 z"
             id="DejaVuSans-40" />
          <path
             d="m 44.28125,53.078125 v -8.5 Q 40.484375,46.53125 36.375,47.5 q -4.09375,0.984375 -8.5,0.984375 -6.6875,0 -10.03125,-2.046875 Q 14.5,44.390625 14.5,40.28125 q 0,-3.125 2.390625,-4.90625 2.390625,-1.78125 9.625,-3.390625 l 3.078125,-0.6875 Q 39.15625,29.25 43.1875,25.515625 47.21875,21.78125 47.21875,15.09375 q 0,-7.625 -6.03125,-12.078125 -6.03125,-4.4375 -16.578125,-4.4375 -4.390625,0 -9.15625,0.859375 Q 10.6875,0.296875 5.421875,2 v 9.28125 q 4.984375,-2.59375 9.8125,-3.890625 4.828125,-1.28125 9.578125,-1.28125 6.34375,0 9.75,2.171875 3.421875,2.171875 3.421875,6.125 0,3.65625 -2.46875,5.609375 -2.453125,1.953125 -10.8125,3.765625 l -3.125,0.734375 q -8.34375,1.75 -12.0625,5.390625 -3.703125,3.640625 -3.703125,9.984375 0,7.71875 5.46875,11.90625 Q 16.75,56 26.8125,56 q 4.96875,0 9.359375,-0.734375 4.40625,-0.71875 8.109375,-2.1875 z"
             id="DejaVuSans-115" />
          <path
             d="m 8.015625,75.875 h 7.8125 q 7.3125,-11.515625 10.953125,-22.5625 3.640625,-11.03125 3.640625,-21.921875 0,-10.9375 -3.640625,-22.015625 -3.640625,-11.078125 -10.953125,-22.5625 h -7.8125 Q 14.5,-2 17.703125,9.0625 20.90625,20.125 20.90625,31.390625 q 0,11.28125 -3.203125,22.265625 -3.203125,11 -9.6875,22.21875 z"
             id="DejaVuSans-41" />
        </defs>
        <use
           xlink:href="#DejaVuSans-116"
           id="use58" />
        <use
           x="39.208984"
           xlink:href="#DejaVuSans-105"
           id="use59" />
        <use
           x="66.992188"
           xlink:href="#DejaVuSans-109"
           id="use60" />
        <use
           x="164.4043"
           xlink:href="#DejaVuSans-101"
           id="use61" />
        <use
           x="225.92773"
           xlink:href="#DejaVuSans-32"
           id="use62" />
        <use
           x="257.71484"
           xlink:href="#DejaVuSans-40"
           id="use63" />
        <use
           x="296.72852"
           xlink:href="#DejaVuSans-115"
           id="use64" />
        <use
           x="348.82812"
           xlink:href="#DejaVuSans-41"
           id="use65" />
      </g>
    </g>
  </g>
  <g
     id="matplotlib.axis_2">
    <g
       id="ytick_1">
      <g
         id="line2d_39">
        <defs
           id="defs65">
          <path
             d="M 0,0 H -3.5"
             id="mf2ef374975"
             style="stroke:#000000;stroke-width:0.8" />
        </defs>
        <g
           id="g66">
          <use
             style="stroke:#000000;stroke-width:0.8"
             x="45.478127"
             xlink:href="#mf2ef374975"
             y="163.30803"
             id="use66" />
        </g>
      </g>
      <g
         id="text_7">
        <!-- $\mathdefault{10^{6}}$ -->
        <g
           transform="matrix(0.1,0,0,-0.1,20.878125,167.10725)"
           id="g69">
          <defs
             id="defs66">
            <path
               d="m 33.015625,40.375 q -6.640625,0 -10.53125,-4.546875 -3.875,-4.53125 -3.875,-12.4375 0,-7.859375 3.875,-12.4375 3.890625,-4.5625 10.53125,-4.5625 6.640625,0 10.515625,4.5625 3.875,4.578125 3.875,12.4375 0,7.90625 -3.875,12.4375 Q 39.65625,40.375 33.015625,40.375 Z M 52.59375,71.296875 V 62.3125 q -3.71875,1.75 -7.5,2.671875 -3.78125,0.9375 -7.5,0.9375 -9.765625,0 -14.921875,-6.59375 -5.140625,-6.59375 -5.875,-19.921875 2.875,4.25 7.21875,6.515625 4.359375,2.265625 9.578125,2.265625 10.984375,0 17.359375,-6.671875 6.375,-6.65625 6.375,-18.125 0,-11.234375 -6.640625,-18.03125 -6.640625,-6.78125 -17.671875,-6.78125 -12.65625,0 -19.34375,9.6875 -6.6875,9.703125 -6.6875,28.109375 0,17.28125 8.203125,27.5625 8.203125,10.28125 22.015625,10.28125 3.71875,0 7.5,-0.734375 3.78125,-0.734375 7.890625,-2.1875 z"
               id="DejaVuSans-54" />
          </defs>
          <use
             transform="translate(0,0.765625)"
             xlink:href="#DejaVuSans-49"
             id="use67" />
          <use
             transform="translate(63.623047,0.765625)"
             xlink:href="#DejaVuSans-48"
             id="use68" />
          <use
             transform="matrix(0.7,0,0,0.7,128.20312,39.046875)"
             xlink:href="#DejaVuSans-54"
             id="use69" />
        </g>
      </g>
    </g>
    <g
       id="ytick_2">
      <g
         id="line2d_40">
        <defs
           id="defs69">
          <path
             d="M 0,0 H -2"
             id="m8ed7250b4e"
             style="stroke:#000000;stroke-width:0.6" />
        </defs>
        <g
           id="g70">
          <use
             style="stroke:#000000;stroke-width:0.6"
             x="45.478127"
             xlink:href="#m8ed7250b4e"
             y="237.40059"
             id="use70" />
        </g>
      </g>
    </g>
    <g
       id="ytick_3">
      <g
         id="line2d_41">
        <g
           id="g71">
          <use
             style="stroke:#000000;stroke-width:0.6"
             x="45.478127"
             xlink:href="#m8ed7250b4e"
             y="219.69662"
             id="use71" />
        </g>
      </g>
    </g>
    <g
       id="ytick_4">
      <g
         id="line2d_42">
        <g
           id="g72">
          <use
             style="stroke:#000000;stroke-width:0.6"
             x="45.478127"
             xlink:href="#m8ed7250b4e"
             y="205.96436"
             id="use72" />
        </g>
      </g>
    </g>
    <g
       id="ytick_5">
      <g
         id="line2d_43">
        <g
           id="g73">
          <use
             style="stroke:#000000;stroke-width:0.6"
             x="45.478127"
             xlink:href="#m8ed7250b4e"
             y="194.74428"
             id="use73" />
        </g>
      </g>
    </g>
    <g
       id="ytick_6">
      <g
         id="line2d_44">
        <g
           id="g74">
          <use
             style="stroke:#000000;stroke-width:0.6"
             x="45.478127"
             xlink:href="#m8ed7250b4e"
             y="185.25783"
             id="use74" />
        </g>
      </g>
    </g>
    <g
       id="ytick_7">
      <g
         id="line2d_45">
        <g
           id="g75">
          <use
             style="stroke:#000000;stroke-width:0.6"
             x="45.478127"
             xlink:href="#m8ed7250b4e"
             y="177.0403"
             id="use75" />
        </g>
      </g>
    </g>
    <g
       id="ytick_8">
      <g
         id="line2d_46">
        <g
           id="g76">
          <use
             style="stroke:#000000;stroke-width:0.6"
             x="45.478127"
             xlink:href="#m8ed7250b4e"
             y="169.79192"
             id="use76" />
        </g>
      </g>
    </g>
    <g
       id="ytick_9">
      <g
         id="line2d_47">
        <g
           id="g77">
          <use
             style="stroke:#000000;stroke-width:0.6"
             x="45.478127"
             xlink:href="#m8ed7250b4e"
             y="120.65171"
             id="use77" />
        </g>
      </g>
    </g>
    <g
       id="ytick_10">
      <g
         id="line2d_48">
        <g
           id="g78">
          <use
             style="stroke:#000000;stroke-width:0.6"
             x="45.478127"
             xlink:href="#m8ed7250b4e"
             y="95.699364"
             id="use78" />
        </g>
      </g>
    </g>
    <g
       id="ytick_11">
      <g
         id="line2d_49">
        <g
           id="g79">
          <use
             style="stroke:#000000;stroke-width:0.6"
             x="45.478127"
             xlink:href="#m8ed7250b4e"
             y="77.995392"
             id="use79" />
        </g>
      </g>
    </g>
    <g
       id="ytick_12">
      <g
         id="line2d_50">
        <g
           id="g80">
          <use
             style="stroke:#000000;stroke-width:0.6"
             x="45.478127"
             xlink:href="#m8ed7250b4e"
             y="64.263123"
             id="use80" />
        </g>
      </g>
    </g>
    <g
       id="ytick_13">
      <g
         id="line2d_51">
        <g
           id="g81">
          <use
             style="stroke:#000000;stroke-width:0.6"
             x="45.478127"
             xlink:href="#m8ed7250b4e"
             y="53.043041"
             id="use81" />
        </g>
      </g>
    </g>
    <g
       id="ytick_14">
      <g
         id="line2d_52">
        <g
           id="g82">
          <use
             style="stroke:#000000;stroke-width:0.6"
             x="45.478127"
             xlink:href="#m8ed7250b4e"
             y="43.556599"
             id="use82" />
        </g>
      </g>
    </g>
    <g
       id="ytick_15">
      <g
         id="line2d_53">
        <g
           id="g83">
          <use
             style="stroke:#000000;stroke-width:0.6"
             x="45.478127"
             xlink:href="#m8ed7250b4e"
             y="35.339069"
             id="use83" />
        </g>
      </g>
    </g>
    <g
       id="ytick_16">
      <g
         id="line2d_54">
        <g
           id="g84">
          <use
             style="stroke:#000000;stroke-width:0.6"
             x="45.478127"
             xlink:href="#m8ed7250b4e"
             y="28.090693"
             id="use84" />
        </g>
      </g>
    </g>
    <g
       id="text_8">
      <!-- cost -->
      <g
         transform="matrix(0,-0.1,-0.1,0,14.798438,141.41156)"
         id="g88">
        <defs
           id="defs84">
          <path
             d="M 48.78125,52.59375 V 44.1875 q -3.8125,2.109375 -7.640625,3.15625 -3.828125,1.046875 -7.734375,1.046875 -8.75,0 -13.59375,-5.546875 -4.828125,-5.53125 -4.828125,-15.546875 0,-10.015625 4.828125,-15.5625 4.84375,-5.53125 13.59375,-5.53125 3.90625,0 7.734375,1.046875 3.828125,1.046875 7.640625,3.15625 v -8.3125 q -3.765625,-1.75 -7.796875,-2.625 -4.015625,-0.890625 -8.5625,-0.890625 -12.359375,0 -19.640625,7.765625 -7.265625,7.765625 -7.265625,20.953125 0,13.375 7.34375,21.03125 Q 20.21875,56 33.015625,56 q 4.140625,0 8.09375,-0.859375 3.953125,-0.84375 7.671875,-2.546875 z"
             id="DejaVuSans-99" />
          <path
             d="m 30.609375,48.390625 q -7.21875,0 -11.421875,-5.640625 -4.203125,-5.640625 -4.203125,-15.453125 0,-9.8125 4.171875,-15.453125 4.1875,-5.640625 11.453125,-5.640625 7.1875,0 11.375,5.65625 4.203125,5.671875 4.203125,15.4375 0,9.71875 -4.203125,15.40625 -4.1875,5.6875 -11.375,5.6875 z m 0,7.609375 q 11.71875,0 18.40625,-7.625 6.703125,-7.609375 6.703125,-21.078125 0,-13.421875 -6.703125,-21.078125 -6.6875,-7.640625 -18.40625,-7.640625 -11.765625,0 -18.4375,7.640625 -6.65625,7.65625 -6.65625,21.078125 0,13.46875 6.65625,21.078125 Q 18.84375,56 30.609375,56 Z"
             id="DejaVuSans-111" />
        </defs>
        <use
           xlink:href="#DejaVuSans-99"
           id="use85" />
        <use
           x="54.980469"
           xlink:href="#DejaVuSans-111"
           id="use86" />
        <use
           x="116.16211"
           xlink:href="#DejaVuSans-115"
           id="use87" />
        <use
           x="168.26172"
           xlink:href="#DejaVuSans-116"
           id="use88" />
      </g>
    </g>
  </g>
  <g
     id="line2d_55">
    <path
       clip-path="url(#p9a5652c1d3)"
       d="m 262.12419,32.201761 1.63645,2.330593 0.21937,1.737433 0.22303,1.637289 0.2465,1.648192 0.22855,1.694632 0.23065,1.75251 0.22973,1.811048 0.23371,1.837909 0.24569,1.868953 0.24582,1.981448 0.25469,2.033382 0.25372,2.066545 0.2571,2.098497 0.27926,2.123773 0.27634,2.169633 0.29044,2.203096 0.28545,2.22794 0.2921,2.251971 0.30211,2.276218 0.29908,2.298658 0.23361,2.318066 0.23359,2.33506 0.23889,2.348887 0.24078,2.362271 0.24524,2.370653 0.24029,2.379988 0.24511,2.384243 0.23162,2.392217 0.23413,2.391648 0.27219,2.391969 0.29061,2.386033 0.29502,2.380994 0.30054,2.37099 0.30483,2.36112 0.30919,2.3467 0.3091,2.33218 0.36473,2.31335 0.32643,2.2946 0.33231,2.27201 0.32503,2.24993 0.3184,2.22389 0.32544,2.19743 0.32931,2.16746 0.32896,2.13674 0.32624,2.10433 0.33031,2.07045 0.31853,2.03567 0.31421,1.99895 0.31714,1.96068 0.31396,1.92195 0.30707,1.88113 0.30382,1.84159 0.31158,1.8001 0.29837,1.75994 0.29936,1.71986 0.29223,1.67881 0.29018,1.63854 0.28724,1.59484 0.28405,1.55211 0.2832,1.50625 0.2801,1.46209 0.2902,1.41608 0.27576,1.37337 0.27403,1.32973 0.27298,1.29045 0.26905,1.25055 0.26725,1.21449 0.26522,1.17904 0.27144,1.14576 0.26196,1.11362 0.25926,1.08205 0.2565,1.05062 0.25459,1.01993 0.25292,0.98826 0.25137,0.96022 0.24789,0.93263 0.24613,0.91377 0.24521,0.89852 0.24674,0.891 0.24313,0.88158 0.24675,0.86884 0.23964,0.84883 0.23924,0.82681 0.23722,0.80364 0.23476,0.7819 0.23289,0.76088 0.23092,0.74135 0.23012,0.72248 0.22726,0.70467 0.2261,0.68721 0.22398,0.67019 0.22315,0.65322 0.22111,0.63633 0.22287,0.6196 0.21757,0.60276 0.21666,0.58623 0.21469,0.56972 0.21428,0.55431 0.2137,0.53952"
       style="fill:none;stroke:#1f77b4;stroke-width:1.5;stroke-linecap:square"
       id="path88" />
  </g>
  <g
     id="line2d_56">
    <path
       clip-path="url(#p9a5652c1d3)"
       d="m 92.932617,32.201761 39.928743,0.0036 17.21687,0.0035 11.36242,0.0035 8.55516,0.0035 6.72759,0.0035 5.83268,7e-6 h 4.89384 l 4.24805,1.5e-5 3.81434,1.5e-5 h 3.38723 l 3.11255,1.4e-5 2.84947,1.5e-5 2.60494,1.5e-5 2.42172,1.4e-5 2.24825,1.5e-5 2.11127,1.4e-5 2.01791,1.5e-5 1.87363,2.2e-5 1.78988,1.5e-5 1.85817,2.2e-5 1.60836,1.4e-5 1.52621,2.2e-5 1.46251,2.2e-5 1.40168,2.2e-5 1.51701,2.2e-5 1.28752,1.5e-5 1.25486,2.9e-5 1.19259,1.4e-5 1.15015,3e-5 1.11427,2.2e-5 1.08012,2.9e-5 1.05539,2.2e-5 1.03029,2.9e-5 0.97818,2.9e-5 0.95405,3e-5 0.7052,2.1e-5 0.92471,3e-5 0.90806,2.9e-5 0.89109,2.2e-5 1.1215,3.6e-5 1.08361,3e-5 0.80184,2.2e-5 0.84654,3.6e-5 0.74909,2.9e-5 0.73388,3e-5 0.724,2.9e-5 0.70538,3.7e-5 0.68903,2.9e-5 0.6787,2.9e-5 0.66057,2.9e-5 0.6517,3.7e-5 0.64634,3.6e-5 0.62292,3e-5 0.6355,3.6e-5 0.60525,3.7e-5 0.59057,2.9e-5 0.5781,3.7e-5 0.57112,3.6e-5 0.5613,3.7e-5 0.55049,3.6e-5 0.54178,3.7e-5 0.53362,3.6e-5 0.52584,3e-5 0.53315,4.3e-5 0.52925,3.7e-5 0.50868,3.7e-5 0.49336,4.3e-5 0.48491,3.7e-5 0.4788,3.7e-5 0.4728,4.3e-5 0.50369,3.7e-5 0.46585,3.7e-5 0.53251,4.3e-5 0.45885,4.4e-5 0.44956,3.7e-5 0.4926,4.4e-5 0.42907,3.6e-5 0.4277,4.4e-5 0.42685,4.4e-5 0.41301,4.4e-5 0.40891,3.7e-5 0.40095,3.6e-5 0.41506,4.4e-5 0.40333,5.1e-5 0.38766,4.4e-5 0.383,4.4e-5 0.37905,4.4e-5 0.37417,4.4e-5 0.37467,4.4e-5 0.36892,5.1e-5 0.40838,4.4e-5 0.39057,4.4e-5 0.36103,4.3e-5 0.35886,4.4e-5 0.34748,4.4e-5 0.34367,4.4e-5 0.34219,5.9e-5 0.33784,4.3e-5 0.33445,4.4e-5"
       style="fill:none;stroke:#ff7f0e;stroke-width:1.5;stroke-linecap:square"
       id="path89" />
  </g>
  <g
     id="line2d_57">
    <path
       clip-path="url(#p9a5652c1d3)"
       d="m 93.575444,32.201761 45.546896,23.891656 14.93686,27.852688 10.27442,31.540745 7.92614,31.49711 6.45655,10.91631 5.33649,2.89929 4.56648,-12.13587 4.06702,-7.51186 3.58404,-3.87269 3.2283,0.12846 3.02965,4.894 2.73597,9.18261 2.52306,10.70986 2.41289,9.30426 2.1799,8.83906 2.04652,7.42246 1.94342,3.21641 1.83666,0.8886 1.74613,0.055 1.6516,-1.30023 1.56799,-1.77216 1.50068,-0.87169 1.44499,0.41541 1.38428,1.60181 1.33595,3.03241 1.39444,4.26129 1.21038,4.49391 1.17248,4.44322 1.13378,4.14816 1.10324,3.06268 1.06862,2.15673 1.04895,1.53061 1.01043,0.62605 0.98062,-0.12684 0.95081,-0.39644 0.91641,-0.64815 0.89183,-0.42303 0.8742,0.10457 0.85267,0.63517 0.82526,1.13951 0.81471,1.38161 0.79654,1.47014 0.76717,1.38626 0.75153,1.08534 0.73808,0.712 0.71918,0.38985 0.70494,0.23523 0.6906,0.0738 0.67722,-0.0673 0.66556,0.0206 0.64931,0.0842 0.63841,0.11355 0.62376,0.21604 0.61451,0.29715 0.60188,0.34093 0.59165,0.34881 0.58341,0.35406 0.57378,0.29628 0.56526,0.24892 0.55419,0.22665 0.54481,0.13079 0.45697,0.0817 0.50262,0.0902 0.51211,0.0487 0.4557,0.0324 0.52342,0.0694 0.49908,0.0783 0.49272,0.0825 0.56432,0.1281 0.53647,0.15547 0.50769,0.1379 0.47597,0.097 0.47253,0.0803 0.45973,0.0856 0.45958,0.0627 0.43739,0.0392 0.46411,0.0416 0.43053,0.0555 0.45367,0.0508 0.42103,0.0504 0.43776,0.0613 0.40682,0.067 0.40566,0.0571 0.39556,0.0515 0.40922,0.0522 0.38654,0.0437 0.38976,0.0332 0.51637,0.0364 0.40618,0.0313 0.37328,0.0322 0.3886,0.0339 0.36154,0.0351 0.37223,0.0359 0.35656,0.0362 0.35057,0.0328 0.34569,0.0306 0.34182,0.0317 0.32865,0.0294 0.34088,0.0199"
       style="fill:none;stroke:#2ca02c;stroke-width:1.5;stroke-linecap:square"
       id="path90" />
  </g>
  <g
     id="line2d_58">
    <path
       clip-path="url(#p9a5652c1d3)"
       d="m 91.820497,32.201761 39.624523,0.698193 17.33089,0.717728 11.308,0.730908 8.37302,0.74094 6.57437,0.7491 5.57124,0.756023 4.84912,0.762068 4.08329,0.767466 3.58901,0.772325 3.25027,0.776375 2.93164,0.77769 2.71845,0.780967 2.5862,0.781728 2.37445,0.782812 2.1817,0.785294 2.04833,0.790584 1.92948,0.794023 1.85815,0.797673 1.71877,0.800804 1.64584,0.803873 1.59534,0.806155 1.52338,0.808209 1.43061,0.810415 1.36773,0.810324 1.37529,0.811661 1.2832,0.810871 1.25355,0.814711 1.334,0.817028 1.17605,0.821168 1.15409,0.824622 1.09731,0.827652 1.04986,0.830695 1.00126,0.832976 0.96101,0.835566 0.93648,0.837554 0.91124,0.839829 0.88698,0.841607 0.86911,0.84336 0.91708,0.845213 0.825,0.847097 0.83337,0.849257 0.79726,0.851167 0.76531,0.853209 0.76156,0.855035 0.7285,0.85694 0.71062,0.858623 0.70044,0.86033 0.68553,0.861767 0.67146,0.863412 0.66844,0.865117 0.64539,0.866964 0.63898,0.868679 0.62124,0.87039 0.6059,0.872013 0.59811,0.873663 0.59672,0.875195 0.57859,0.876802 0.56598,0.878254 0.55925,0.879824 0.55631,0.881198 0.54501,0.882711 0.53218,0.884009 0.52567,0.885471 0.51879,0.886688 0.51497,0.888087 0.50698,0.889212 0.50123,0.890548 0.49915,0.891574 0.49505,0.892839 0.51009,0.893776 0.48555,0.894948 0.48541,0.895833 0.48457,0.896878 0.47794,0.89773 0.47623,0.898653 0.47515,0.899446 0.46969,0.900245 0.5102,0.900962 0.5009,0.901632 0.45526,0.902254 0.44471,0.902797 0.43816,0.90332 0.43049,0.90372 0.42541,0.90412 0.41986,0.90441 0.41522,0.90467 0.411,0.90483 0.41421,0.90494 0.41202,0.90496 0.40002,0.90492 0.40274,0.90479 0.43618,0.90461 0.38279,0.90431 0.37775,0.90397 0.3742,0.90351 0.30376,0.90301 0.34787,0.90238 0.42901,0.90171 0.36819,0.90089"
       style="fill:none;stroke:#d62728;stroke-width:1.5;stroke-linecap:square"
       id="path91" />
  </g>
  <g
     id="line2d_59">
    <path
       clip-path="url(#p9a5652c1d3)"
       d="m 92.829258,32.201761 39.453932,23.891656 17.07967,25.085777 11.52246,25.694446 8.59082,22.52961 7.09966,20.75293 5.46629,15.18057 4.88346,9.83881 4.24519,4.2424 3.7599,0.34551 3.36083,-1.65175 3.05235,-1.92771 2.77661,-1.50734 2.50682,-0.18076 2.37616,1.52212 2.24031,2.52781 2.07673,3.06484 1.96018,3.5 1.80036,3.85471 1.74858,3.92074 1.6459,3.52772 1.5688,3.15172 1.48974,2.81965 1.41291,2.25754 1.34858,1.69878 1.33007,1.40926 1.29448,1.19991 1.36833,0.9037 1.22603,0.62407 1.18118,0.48232 1.14666,0.436 1.10721,0.3973 1.07408,0.4059 1.03158,0.44664 0.999,0.44281 0.97826,0.42527 0.9469,0.48135 0.92875,0.56381 0.89676,0.60321 0.87707,0.59519 0.85549,0.56047 0.81109,0.5635 0.78151,0.58388 0.79339,0.5657 0.76942,0.5211 0.75834,0.4799 0.74172,0.45314 0.73297,0.41788 0.70811,0.37064 0.69541,0.33312 0.69779,0.30727 0.66623,0.27263 0.66657,0.22825 0.64605,0.19761 0.63024,0.18126 0.6199,0.16422 0.6112,0.14237 0.59966,0.1237 0.59573,0.11851 0.44856,0.12068 0.47126,0.11691 0.43153,0.11041 0.43752,0.11043 0.43287,0.11398 0.41998,0.11537 0.41993,0.11514 0.41366,0.11641 0.48995,0.11745 0.48531,0.11467 0.49642,0.11064 0.48553,0.10816 0.47364,0.10573 0.48265,0.10097 0.47957,0.0958 0.50726,0.0917 0.48165,0.0877 0.45558,0.0836 0.44998,0.0792 0.44312,0.0751 0.43934,0.0721 0.43319,0.0696 0.42784,0.067 0.42465,0.0648 0.41992,0.0635 0.41106,0.0622 0.4067,0.0608 0.40322,0.0597 0.39696,0.0589 0.40417,0.0581 0.38747,0.0574 0.38233,0.0567 0.37852,0.056 0.376,0.0553 0.36847,0.0546 0.3655,0.0537 0.36301,0.0528 0.35852,0.052 0.36125,0.0511 0.35613,0.0501 0.35554,0.0492"
       style="fill:none;stroke:#9467bd;stroke-width:1.5;stroke-linecap:square"
       id="path92" />
  </g>
  <g
     id="line2d_60">
    <path
       clip-path="url(#p9a5652c1d3)"
       d="m 92.628525,32.201761 38.603635,0.0036 17.39671,0.0035 11.37783,0.0035 8.47276,0.0035 6.85979,0.0035 5.5783,0.0035 4.81784,0.0035 4.21415,0.0035 3.84488,0.0036 3.35748,0.0035 3.07061,0.0035 2.80759,0.0035 2.5737,0.0035 2.40169,0.0035 2.23984,0.0035 2.11069,0.0035 1.98432,0.0035 1.89204,0.0035 1.76026,0.0035 1.6895,0.0035 1.60453,0.0035 1.55122,0.0035 1.48056,0.0035 1.52422,0.0036 1.34662,0.0035 1.29055,0.0035 1.28325,0.0035 1.19289,0.0035 1.17023,0.0035 1.22633,0.0036 1.0771,0.0035 1.03718,0.0035 1.00817,0.0035 0.97278,0.0035 0.95906,0.0035 0.92085,0.0035 0.91339,0.0035 0.8723,0.0035 0.85452,0.0035 0.83437,0.0035 0.81418,0.0035 0.85401,0.0035 0.78111,0.0035 0.75021,0.0036 0.73577,0.0035 0.7219,0.0035 0.72534,0.0035 0.69428,0.0035 0.68009,0.0035 0.66591,0.0035 0.64665,0.0035 0.63893,0.0035 0.62663,0.0035 0.61508,0.0035 0.61329,0.0035 0.60824,0.0035 0.58594,0.0035 0.58423,0.0035 0.58256,0.0035 0.58889,0.0035 0.53907,0.0035 0.53617,0.0035 0.52971,0.0035 0.52827,0.0035 0.50755,0.0035 0.51218,0.0035 0.50357,0.0035 0.48994,0.0035 0.48528,0.0035 0.47394,0.0035 0.46915,0.0035 0.45747,0.0035 0.45605,0.0035 0.4906,0.0035 0.45057,0.0035 0.47707,0.0035 0.43409,0.0035 0.42587,0.0035 0.42146,0.0035 0.4122,0.0035 0.408,0.0035 0.40451,0.0035 0.40208,0.0035 0.39562,0.0035 0.42114,0.0035 0.39862,0.0035 0.39599,0.0035 0.4063,0.0035 0.38212,0.0035 0.3937,0.0035 0.36238,0.0035 0.37124,0.0035 0.35949,0.0035 0.36416,0.0035 0.35529,0.0035 0.34819,0.0035 0.34487,0.0035 0.36,0.0035 0.34031,0.0035"
       style="fill:none;stroke:#8c564b;stroke-width:1.5;stroke-linecap:square"
       id="path93" />
  </g>
  <g
     id="line2d_61">
    <path
       clip-path="url(#p9a5652c1d3)"
       d="m 93.122427,32.201761 43.181053,6.6e-5 18.8447,30.868491 12.57058,59.204282 9.17367,25.62812 7.27038,10.5923 6.21508,4.44468 5.36909,3.19029 4.7704,3.69664 4.21066,5.32117 3.8701,6.9228 3.53093,6.82539 3.28844,4.73842 2.97026,3.76437 2.84227,1.98052 2.6975,1.1904 2.37745,1.04895 2.28257,1.31561 2.5432,1.66929 2.04584,1.72592 1.9205,1.78814 1.61472,1.5408 1.54645,1.24441 1.4649,1.11037 1.42233,1.03989 1.3406,1.11838 1.27515,1.10034 1.18669,0.89579 1.18898,0.76105 1.17564,0.58925 1.15774,0.50798 1.1563,0.50912 1.17612,0.54362 1.14513,0.62291 1.22881,0.59478 1.16576,0.5567 1.09322,0.49967 1.03444,0.40965 1.00332,0.38839 0.98575,0.38681 0.99236,0.37732 0.94664,0.35267 1.11656,0.31284 1.04688,0.28397 1.19538,0.25429 0.93047,0.27358 0.77479,0.25599 0.69383,0.25957 0.67953,0.21913 0.68671,0.22232 0.92259,0.25805 0.70478,0.22219 0.70857,0.18149 0.67629,0.23115 0.69202,0.20141 0.74165,0.17897 0.65942,0.17409 0.71904,0.15217 0.68709,0.17885 0.64551,0.18062 0.62658,0.16788 0.82177,0.15959 0.76665,0.13092 0.63405,0.11343 0.58515,0.10202 0.55296,0.11458 0.5701,0.077 0.5609,0.14042 0.53855,0.0595 0.57163,0.0772 0.57798,0.0842 0.59538,0.0567 0.53671,0.0633 0.52031,0.0373 0.53731,0.0403 0.54433,0.0254 0.53671,0.0635 0.54828,0.0487 0.50219,0.0274 0.498,0.0401 0.54018,0.0328 0.51228,0.0246 0.52845,0.024 0.51539,0.0175 0.45381,0.0266 0.44061,0.0473 0.57205,0.0619 0.48262,0.0377 0.38861,0.0651 0.54044,0.0808 0.42647,0.0589 0.42047,0.0474 0.41459,0.0596 0.41254,0.055 0.41227,0.0545 0.40836,0.0347 0.4258,0.0303 0.40958,0.035 0.44903,0.0676 0.42375,0.0756"
       style="fill:none;stroke:#e377c2;stroke-width:1.5;stroke-linecap:square"
       id="path94" />
  </g>
  <g
     id="line2d_62">
    <path
       clip-path="url(#p9a5652c1d3)"
       d="m 60.696307,32.201761 50.845543,23.891662 19.05926,17.129705 12.46514,14.081154 8.78539,-1.979132 6.99121,8.379455 5.8457,15.096315 5.42468,10.07983 4.20491,8.07088 3.84179,6.8844 3.72338,5.75459 3.30283,4.87315 2.91062,4.617 2.77434,4.15127 2.71417,3.60349 2.34567,3.1221 2.20201,2.86379 2.27987,2.70837 2.49966,2.58102 2.45314,2.42828 2.75937,2.25391 2.29258,2.07863 2.0523,1.91998 1.66361,1.78682 1.55737,1.67681 1.42429,1.58322 1.34076,1.49823 1.30476,1.41913 1.41792,1.34081 0.94448,1.26455 1.37444,1.18874 1.19349,1.11618 1.36663,1.05029 1.15138,0.99057 1.15376,0.93983 1.22417,0.89167 1.07379,0.84911 1.06632,0.80569 1.00907,0.76634 1.039,0.72637 1.02724,0.69079 1.00024,0.65592 0.92389,0.62587 0.92841,0.597 0.86185,0.57161 0.86915,0.54679 0.84138,0.52421 0.8081,0.50196 0.75769,0.48109 0.77465,0.46038 0.82732,0.43978 0.71411,0.41787 0.7372,0.39403 0.668,0.36764 0.65652,0.33923 0.64995,0.30901 0.65536,0.2789 0.64569,0.24988 0.65364,0.22503 0.61162,0.20522 0.61097,0.19397 0.64032,0.1903 0.60886,0.19676 0.59197,0.20933 0.57253,0.22902 0.54316,0.24881 0.54046,0.26851 0.54999,0.28044 0.47152,0.28569 0.47278,0.28008 0.41451,0.26814 0.49295,0.24962 0.40462,0.23051 0.45514,0.21103 0.41169,0.19614 0.47217,0.18401 0.44931,0.17709 0.46884,0.17033 0.45784,0.165 0.48257,0.1576 0.4563,0.15261 0.44641,0.15126 0.44201,0.15694 0.44537,0.16768 0.41532,0.17871 0.4053,0.18502 0.44024,0.18366 0.42892,0.17712 0.4099,0.16779 0.40508,0.16058 0.39889,0.15456 0.39044,0.15148 0.4015,0.14622 0.38828,0.13999 0.37955,0.12871 0.36969,0.11594 0.37631,0.10072 0.35978,0.0861 0.35408,0.072 0.36186,0.058"
       style="fill:none;stroke:#7f7f7f;stroke-width:1.5;stroke-linecap:square"
       id="path95" />
  </g>
  <g
     id="line2d_63">
    <path
       clip-path="url(#p9a5652c1d3)"
       d="m 88.0755,32.201761 44.89821,2.219742 16.24809,2.25495 11.34531,2.291061 9.03086,2.328071 7.02101,2.366011 5.46047,2.404873 4.52612,2.444679 5.06398,2.48543 3.41511,2.527117 3.10638,2.569728 2.81443,2.613259 2.58159,2.65768 2.40696,2.702961 2.29417,2.749039 2.18165,2.79585 2.44568,2.843322 2.26608,2.891345 2.12861,2.939779 2.02015,2.98847 2.02409,3.037213 1.69603,3.08575 1.54942,3.133804 1.40024,3.181022 1.36843,3.226942 1.68553,3.271111 1.16177,3.31287 0.88168,3.35155 0.93154,3.3863 0.95824,3.41612 0.84581,3.43993 0.9924,3.45637 0.79067,3.46396 0.92298,3.461 0.74984,3.44558 0.93085,3.4156 0.50853,3.36875 0.40807,3.3026 0.40492,3.2146 0.58924,3.1009 0.41916,2.9535 0.42869,2.77498 0.35818,2.60179 0.44033,2.4724 0.53162,2.33142 0.51467,2.20286 0.42062,2.03014 0.32585,1.91552 0.33122,1.78808 0.33045,1.66363 0.34292,1.59123 0.343,1.51763 0.304,1.43066 0.29984,1.37291 0.34723,1.31064 0.32195,1.29911 0.29027,1.24372 0.40084,1.175 0.29107,1.13065 0.33817,1.10301 0.30152,1.04843 0.3048,1.01941 0.34225,0.96593 0.3213,0.9323 0.32345,0.90112 0.39813,0.89043 0.37875,0.88861 0.39245,0.859 0.38147,0.83828 0.40269,0.81472 0.38273,0.78419 0.38797,0.75669 0.38073,0.74575 0.37763,0.73901 0.3864,0.72643 0.40117,0.72529 0.36311,0.70998 0.37125,0.6884 0.42274,0.66371 0.44041,0.64952 0.40207,0.63095 0.40965,0.6217 0.39535,0.60018 0.41902,0.57906 0.37308,0.57395 0.39789,0.55739 0.37291,0.53268 0.33952,0.52394 0.32612,0.50309 0.40117,0.49431 0.35913,0.48517 0.3909,0.4866 0.44462,0.47058 0.48261,0.46629 0.4994,0.45531 0.57556,0.45717 0.45098,0.43557 0.43578,0.43507 0.45225,0.41374 0.42507,0.39174"
       style="fill:none;stroke:#bcbd22;stroke-width:1.5;stroke-linecap:square"
       id="path96" />
  </g>
  <g
     id="line2d_64">
    <path
       clip-path="url(#p9a5652c1d3)"
       d="m 210.74421,45.241276 19.42651,14.135137 9.81341,15.239449 11.28188,15.48062 8.68532,4.443073 4.60951,17.787445 4.07932,4.55545 5.04027,17.70558 2.52114,1.39756 3.99038,1.23586 3.47869,4.42376 3.01297,4.2206 2.69321,1.1963 2.63445,4.36071 1.76932,1.1471 1.46214,4.40214 2.35816,4.08137 1.34255,1.13482 1.29268,4.18387 1.21474,1.05989 1.18144,4.12836 1.36421,3.90355 0.99696,0.9692 1.05103,3.75199 0.92245,0.90006 1.00644,3.30316 0.74982,0.27291 0.7428,0.24048 0.82035,0.81243 0.79914,0.81409 0.78195,0.80644 0.77721,0.79642 0.74589,0.78333 0.73528,0.76807 0.73191,0.75096 0.70135,0.72908 0.68866,0.70376 0.70043,0.6702 0.57407,0.19424 0.65614,0.69679 0.6431,0.65887 0.54324,0.18511 0.62155,0.67342 0.59951,0.62986 0.5167,0.17883 0.58675,0.64344 0.97706,0.58628 0.81706,0.17587 0.54255,0.60499 0.47091,0.16517 0.57485,0.61073 0.83525,0.55684 0.44516,0.16354 0.50084,0.56899 0.4306,0.15352 0.57017,2.03855 0.44885,0.21706 0.4122,0.15338 0.46845,0.50392 0.40185,0.13915 0.87825,1.81562 0.74738,0.2062 0.48691,0.1376 0.57068,0.45738 0.37798,0.12156 0.48073,1.7206 0.50411,0.14199 0.46925,0.1182 0.3993,0.42109 0.40001,0.40557 0.34491,0.10847 0.44085,1.47371 0.37423,0.13925 0.33199,0.10854 0.37553,0.37128 0.32319,0.0983 0.41427,1.34724 0.48576,0.12844 0.32554,0.0986 0.35248,0.32918 0.31098,0.0896 0.41661,1.16226 0.67037,0.13845 0.40956,0.0983 0.39648,0.0836 0.3426,0.31017 0.33869,0.28129 0.23924,0.0234 0.27659,0.0761 0.49467,0.0744 0.31003,0.0743 0.29774,0.0742 0.31952,0.25848 0.23306,0.0284 0.22021,0.0235 0.23133,0.0205 0.26474,0.0708 0.261,0.0707 0.25661,0.0699 0.33596,0.0697"
       style="fill:none;stroke:#17becf;stroke-width:1.5;stroke-dasharray:5.55, 2.4;stroke-dashoffset:0"
       id="path97" />
  </g>
  <g
     id="line2d_65">
    <path
       clip-path="url(#p9a5652c1d3)"
       d="m 201.63141,131.7332 10.38019,10.98004 7.07438,3.97976 7.52611,3.25375 6.87611,2.63181 5.91984,2.38998 4.77468,2.20562 3.48986,2.07035 3.04002,1.94652 2.65773,1.8498 2.5783,1.75403 3.09145,1.67599 3.11721,1.59716 3.20051,1.52693 3.22858,1.46072 3.22697,1.3974 2.53475,1.3394 2.44692,1.2827 2.38269,1.231 2.56411,1.17973 2.58353,1.13084 2.31862,1.08134 1.893,0.90722 2.35913,9.11411 1.89269,3.48264 1.83679,1.9408 1.49951,0.85693 1.78535,0.9324 1.37985,0.80945 1.49329,0.59678 1.35299,0.60152 1.27526,0.4538 1.19984,0.33519 1.16783,0.32733 1.10679,0.31861 1.09407,0.31206 1.05935,0.30343 1.00605,0.29748 0.97009,0.28945 1.01055,0.28476 0.91443,0.27764 0.88725,0.27306 0.85897,0.26779 0.83955,0.26063 0.76892,0.25719 0.78171,0.24878 0.75868,0.25286 0.75926,0.24405 0.74735,0.24024 0.73192,0.23144 0.71241,0.23051 0.70592,0.22199 0.68824,0.22104 0.6751,0.2128 0.65746,0.21247 0.64459,0.20475 0.66527,0.20485 0.64878,0.19752 0.62108,0.19762 0.61621,0.19049 0.57881,0.19055 0.6742,0.18386 0.61149,0.18387 0.4917,0.17749 0.49603,0.17739 0.50739,0.17125 0.57318,0.17283 0.55088,0.16673 0.47787,0.17007 0.4859,0.16388 0.47539,0.16223 0.48147,0.15655 0.44261,0.15735 0.43248,0.15193 0.4571,0.15449 0.3934,0.14915 0.41515,0.14792 0.42319,0.14294 0.45698,0.14554 0.50154,0.13866 0.4127,0.14069 0.40888,0.13304 0.4328,0.13342 0.41062,0.1281 0.40632,0.12723 0.41095,0.1245 0.41305,0.12318 0.38157,0.12139 0.21135,0.1199 0.24422,0.11829 0.28917,0.11681 0.29914,0.11531 0.24255,0.097 0.44601,1.79961 0.35832,1.52501 0.33495,0.13081 0.29641,0.0815 0.33465,0.21219 0.27507,0.11359 0.35788,0.35052"
       style="fill:none;stroke:#1f77b4;stroke-width:1.5;stroke-dasharray:5.55, 2.4;stroke-dashoffset:0"
       id="path98" />
  </g>
  <g
     id="line2d_66">
    <path
       clip-path="url(#p9a5652c1d3)"
       d="m 289.58924,144.23438 22.48608,50.94307 14.08248,18.22498 8.76743,3.31179 7.58454,7.58579 5.88479,3.09022 5.05257,0.60121 4.29453,0.78345 3.82051,0.28616 3.49777,0.29248"
       style="fill:none;stroke:#ff7f0e;stroke-width:1.5;stroke-dasharray:5.55, 2.4;stroke-dashoffset:0"
       id="path99" />
  </g>
  <g
     id="line2d_67">
    <path
       clip-path="url(#p9a5652c1d3)"
       d="m 126.58409,32.201761 h 37.67272 10.98889 8.26661 6.45628 3.18584 2.92773 2.81248 2.57686 2.40241 2.26602 2.16145 2.03269 1.92786 1.84364 1.77453 1.72143 1.69254 1.62771 1.61222 1.6088 1.56567 1.48483 1.42827 1.58588 1.38206 1.31567 1.28808 1.25084 1.22704 1.21317 1.18673 1.15892 1.14494 1.17979 1.10987 1.08234 1.10015 1.07199 1.04193 1.01871 0.97734 0.95402 0.92721 0.90291 0.89288 0.89116 0.82904 0.83859 0.8111 0.79275 0.7834 0.73127 0.69029 0.69282 0.69193 0.72222 0.68718 0.67572 0.6639 0.64974 0.64335 0.63063 0.616 0.6143 0.59453 0.58138 0.57299 0.56413 0.54394 0.56623 0.58659 0.56374 0.53868 0.53027 0.52843 0.54308 0.50365 0.50115 0.47622 0.47048 0.48193 0.46278 0.45826 0.45332 0.44412 0.45727 0.43577 0.43825 0.42372 0.42313 0.39092 0.41696 0.44031 0.40624 0.39726 0.39025 0.38423 0.38798 0.37906"
       style="fill:none;stroke:#2ca02c;stroke-width:1.5;stroke-dasharray:5.55, 2.4;stroke-dashoffset:0"
       id="path100" />
  </g>
  <g
     id="patch_3">
    <path
       d="M 45.478125,239.75812 V 22.318125"
       style="fill:none;stroke:#000000;stroke-width:0.8;stroke-linecap:square;stroke-linejoin:miter"
       id="path101" />
  </g>
  <g
     id="patch_4">
    <path
       d="M 380.27812,239.75812 V 22.318125"
       style="fill:none;stroke:#000000;stroke-width:0.8;stroke-linecap:square;stroke-linejoin:miter"
       id="path102" />
  </g>
  <g
     id="patch_5">
    <path
       d="M 45.478125,239.75812 H 380.27812"
       style="fill:none;stroke:#000000;stroke-width:0.8;stroke-linecap:square;stroke-linejoin:miter"
       id="path103" />
  </g>
  <g
     id="patch_6">
    <path
       d="M 45.478125,22.318125 H 380.27812"
       style="fill:none;stroke:#000000;stroke-width:0.8;stroke-linecap:square;stroke-linejoin:miter"
       id="path104" />
  </g>
  <defs
     id="defs185">
    <clipPath
       id="p9a5652c1d3">
      <rect
         height="217.44"
         width="334.79999"
         x="45.478127"
         y="22.318125"
         id="rect185" />
    </clipPath>
  </defs>
</svg>
