<?xml version="1.0" encoding="UTF-8" standalone="no"?>
<!-- Created with matplotlib (https://matplotlib.org/) -->

<svg
   height="277.31436pt"
   version="1.1"
   viewBox="0 0 400 277.31437"
   width="400pt"
   id="svg188"
   sodipodi:docname="TGG119Prostate-time.svg"
   inkscape:version="1.3.2 (091e20e, 2023-11-25, custom)"
   xmlns:inkscape="http://www.inkscape.org/namespaces/inkscape"
   xmlns:sodipodi="http://sodipodi.sourceforge.net/DTD/sodipodi-0.dtd"
   xmlns:xlink="http://www.w3.org/1999/xlink"
   xmlns="http://www.w3.org/2000/svg"
   xmlns:svg="http://www.w3.org/2000/svg"
   xmlns:rdf="http://www.w3.org/1999/02/22-rdf-syntax-ns#"
   xmlns:cc="http://creativecommons.org/ns#"
   xmlns:dc="http://purl.org/dc/elements/1.1/">
  <sodipodi:namedview
     id="namedview188"
     pagecolor="#ffffff"
     bordercolor="#000000"
     borderopacity="0.25"
     inkscape:showpageshadow="2"
     inkscape:pageopacity="0.0"
     inkscape:pagecheckerboard="0"
     inkscape:deskcolor="#d1d1d1"
     inkscape:document-units="pt"
     inkscape:zoom="1.5158054"
     inkscape:cx="325.5695"
     inkscape:cy="185.05014"
     inkscape:window-width="1920"
     inkscape:window-height="1009"
     inkscape:window-x="1912"
     inkscape:window-y="-8"
     inkscape:window-maximized="1"
     inkscape:current-layer="svg188" />
  <metadata
     id="metadata1">
    <rdf:RDF>
      <cc:Work>
        <dc:type
           rdf:resource="http://purl.org/dc/dcmitype/StillImage" />
        <dc:date>2023-05-25T09:18:38.187230</dc:date>
        <dc:format>image/svg+xml</dc:format>
        <dc:creator>
          <cc:Agent>
            <dc:title>Matplotlib v3.3.2, https://matplotlib.org/</dc:title>
          </cc:Agent>
        </dc:creator>
      </cc:Work>
    </rdf:RDF>
  </metadata>
  <defs
     id="defs1">
    <style
       type="text/css"
       id="style1">*{stroke-linecap:butt;stroke-linejoin:round;}</style>
  </defs>
  <g
     id="patch_1">
    <path
       d="M 0,277.31437 H 488.35425 V 0 H 0 Z"
       style="fill:none"
       id="path1" />
  </g>
  <g
     id="patch_2">
    <path
       d="M 45.478125,239.75812 H 380.27812 V 22.318125 H 45.478125 Z"
       style="fill:#ffffff"
       id="path2" />
  </g>
  <g
     id="matplotlib.axis_1">
    <g
       id="xtick_1">
      <g
         id="line2d_1">
        <defs
           id="defs2">
          <path
             d="M 0,0 V 3.5"
             id="m8764133d53"
             style="stroke:#000000;stroke-width:0.8" />
        </defs>
        <g
           id="g2">
          <use
             style="stroke:#000000;stroke-width:0.8"
             x="48.890354"
             xlink:href="#m8764133d53"
             y="239.75812"
             id="use2" />
        </g>
      </g>
      <g
         id="text_1">
        <!-- $\mathdefault{10^{-3}}$ -->
        <g
           transform="matrix(0.1,0,0,-0.1,37.140356,254.35656)"
           id="g6">
          <defs
             id="defs3">
            <path
               d="m 12.40625,8.296875 h 16.109375 v 55.625 L 10.984375,60.40625 v 8.984375 l 17.4375,3.515625 H 38.28125 V 8.296875 H 54.390625 V 0 H 12.40625 Z"
               id="DejaVuSans-49" />
            <path
               d="m 31.78125,66.40625 q -7.609375,0 -11.453125,-7.5 Q 16.5,51.421875 16.5,36.375 q 0,-14.984375 3.828125,-22.484375 3.84375,-7.5 11.453125,-7.5 7.671875,0 11.5,7.5 3.84375,7.5 3.84375,22.484375 0,15.046875 -3.84375,22.53125 -3.828125,7.5 -11.5,7.5 z m 0,7.8125 q 12.265625,0 18.734375,-9.703125 6.46875,-9.6875 6.46875,-28.140625 0,-18.40625 -6.46875,-28.109375 -6.46875,-9.6875 -18.734375,-9.6875 -12.25,0 -18.71875,9.6875 Q 6.59375,17.96875 6.59375,36.375 q 0,18.453125 6.46875,28.140625 6.46875,9.703125 18.71875,9.703125 z"
               id="DejaVuSans-48" />
            <path
               d="M 10.59375,35.5 H 73.1875 V 27.203125 H 10.59375 Z"
               id="DejaVuSans-8722" />
            <path
               d="M 40.578125,39.3125 Q 47.65625,37.796875 51.625,33 q 3.984375,-4.78125 3.984375,-11.8125 0,-10.78125 -7.421875,-16.703125 -7.421875,-5.90625 -21.09375,-5.90625 -4.578125,0 -9.4375,0.90625 -4.859375,0.90625 -10.03125,2.71875 v 9.515625 q 4.09375,-2.390625 8.96875,-3.609375 4.890625,-1.21875 10.21875,-1.21875 9.265625,0 14.125,3.65625 4.859375,3.65625 4.859375,10.640625 0,6.453125 -4.515625,10.078125 -4.515625,3.640625 -12.5625,3.640625 h -8.5 v 8.109375 h 8.890625 q 7.265625,0 11.125,2.90625 3.859375,2.90625 3.859375,8.375 0,5.609375 -3.984375,8.609375 -3.96875,3.015625 -11.390625,3.015625 -4.0625,0 -8.703125,-0.890625 Q 15.375,64.15625 9.8125,62.3125 v 8.78125 q 5.625,1.5625 10.53125,2.34375 4.90625,0.78125 9.25,0.78125 11.234375,0 17.765625,-5.109375 6.546875,-5.09375 6.546875,-13.78125 0,-6.0625 -3.46875,-10.234375 -3.46875,-4.171875 -9.859375,-5.78125 z"
               id="DejaVuSans-51" />
          </defs>
          <use
             transform="translate(0,0.765625)"
             xlink:href="#DejaVuSans-49"
             id="use3" />
          <use
             transform="translate(63.623047,0.765625)"
             xlink:href="#DejaVuSans-48"
             id="use4" />
          <use
             transform="matrix(0.7,0,0,0.7,128.20312,39.046875)"
             xlink:href="#DejaVuSans-8722"
             id="use5" />
          <use
             transform="matrix(0.7,0,0,0.7,186.85547,39.046875)"
             xlink:href="#DejaVuSans-51"
             id="use6" />
        </g>
      </g>
    </g>
    <g
       id="xtick_2">
      <g
         id="line2d_2">
        <g
           id="g7">
          <use
             style="stroke:#000000;stroke-width:0.8"
             x="124.53558"
             xlink:href="#m8764133d53"
             y="239.75812"
             id="use7" />
        </g>
      </g>
      <g
         id="text_2">
        <!-- $\mathdefault{10^{-2}}$ -->
        <g
           transform="matrix(0.1,0,0,-0.1,112.78557,254.35656)"
           id="g11">
          <defs
             id="defs7">
            <path
               d="M 19.1875,8.296875 H 53.609375 V 0 H 7.328125 v 8.296875 q 5.609375,5.8125 15.296875,15.59375 9.703125,9.796875 12.1875,12.640625 4.734375,5.3125 6.609375,9 1.890625,3.6875 1.890625,7.25 0,5.8125 -4.078125,9.46875 -4.078125,3.671875 -10.625,3.671875 -4.640625,0 -9.796875,-1.609375 -5.140625,-1.609375 -11,-4.890625 v 9.96875 Q 13.765625,71.78125 18.9375,73 q 5.1875,1.21875 9.484375,1.21875 11.328125,0 18.0625,-5.671875 6.734375,-5.65625 6.734375,-15.125 0,-4.5 -1.6875,-8.53125 Q 49.859375,40.875 45.40625,35.40625 44.1875,33.984375 37.640625,27.21875 31.109375,20.453125 19.1875,8.296875 Z"
               id="DejaVuSans-50" />
          </defs>
          <use
             transform="translate(0,0.765625)"
             xlink:href="#DejaVuSans-49"
             id="use8" />
          <use
             transform="translate(63.623047,0.765625)"
             xlink:href="#DejaVuSans-48"
             id="use9" />
          <use
             transform="matrix(0.7,0,0,0.7,128.20312,39.046875)"
             xlink:href="#DejaVuSans-8722"
             id="use10" />
          <use
             transform="matrix(0.7,0,0,0.7,186.85547,39.046875)"
             xlink:href="#DejaVuSans-50"
             id="use11" />
        </g>
      </g>
    </g>
    <g
       id="xtick_3">
      <g
         id="line2d_3">
        <g
           id="g12">
          <use
             style="stroke:#000000;stroke-width:0.8"
             x="200.18079"
             xlink:href="#m8764133d53"
             y="239.75812"
             id="use12" />
        </g>
      </g>
      <g
         id="text_3">
        <!-- $\mathdefault{10^{-1}}$ -->
        <g
           transform="matrix(0.1,0,0,-0.1,188.43079,254.35656)"
           id="g16">
          <use
             transform="translate(0,0.684375)"
             xlink:href="#DejaVuSans-49"
             id="use13" />
          <use
             transform="translate(63.623047,0.684375)"
             xlink:href="#DejaVuSans-48"
             id="use14" />
          <use
             transform="matrix(0.7,0,0,0.7,128.20312,38.965625)"
             xlink:href="#DejaVuSans-8722"
             id="use15" />
          <use
             transform="matrix(0.7,0,0,0.7,186.85547,38.965625)"
             xlink:href="#DejaVuSans-49"
             id="use16" />
        </g>
      </g>
    </g>
    <g
       id="xtick_4">
      <g
         id="line2d_4">
        <g
           id="g17">
          <use
             style="stroke:#000000;stroke-width:0.8"
             x="275.82602"
             xlink:href="#m8764133d53"
             y="239.75812"
             id="use17" />
        </g>
      </g>
      <g
         id="text_4">
        <!-- $\mathdefault{10^{0}}$ -->
        <g
           transform="matrix(0.1,0,0,-0.1,267.02601,254.35656)"
           id="g20">
          <use
             transform="translate(0,0.765625)"
             xlink:href="#DejaVuSans-49"
             id="use18" />
          <use
             transform="translate(63.623047,0.765625)"
             xlink:href="#DejaVuSans-48"
             id="use19" />
          <use
             transform="matrix(0.7,0,0,0.7,128.20312,39.046875)"
             xlink:href="#DejaVuSans-48"
             id="use20" />
        </g>
      </g>
    </g>
    <g
       id="xtick_5">
      <g
         id="line2d_5">
        <g
           id="g21">
          <use
             style="stroke:#000000;stroke-width:0.8"
             x="351.47122"
             xlink:href="#m8764133d53"
             y="239.75812"
             id="use21" />
        </g>
      </g>
      <g
         id="text_5">
        <!-- $\mathdefault{10^{1}}$ -->
        <g
           transform="matrix(0.1,0,0,-0.1,342.67123,254.35656)"
           id="g24">
          <use
             transform="translate(0,0.684375)"
             xlink:href="#DejaVuSans-49"
             id="use22" />
          <use
             transform="translate(63.623047,0.684375)"
             xlink:href="#DejaVuSans-48"
             id="use23" />
          <use
             transform="matrix(0.7,0,0,0.7,128.20312,38.965625)"
             xlink:href="#DejaVuSans-49"
             id="use24" />
        </g>
      </g>
    </g>
    <g
       id="xtick_6">
      <g
         id="line2d_6">
        <defs
           id="defs24">
          <path
             d="M 0,0 V 2"
             id="m737ebcc96f"
             style="stroke:#000000;stroke-width:0.6" />
        </defs>
        <g
           id="g25">
          <use
             style="stroke:#000000;stroke-width:0.6"
             x="71.661835"
             xlink:href="#m737ebcc96f"
             y="239.75812"
             id="use25" />
        </g>
      </g>
    </g>
    <g
       id="xtick_7">
      <g
         id="line2d_7">
        <g
           id="g26">
          <use
             style="stroke:#000000;stroke-width:0.6"
             x="84.9823"
             xlink:href="#m737ebcc96f"
             y="239.75812"
             id="use26" />
        </g>
      </g>
    </g>
    <g
       id="xtick_8">
      <g
         id="line2d_8">
        <g
           id="g27">
          <use
             style="stroke:#000000;stroke-width:0.6"
             x="94.433311"
             xlink:href="#m737ebcc96f"
             y="239.75812"
             id="use27" />
        </g>
      </g>
    </g>
    <g
       id="xtick_9">
      <g
         id="line2d_9">
        <g
           id="g28">
          <use
             style="stroke:#000000;stroke-width:0.6"
             x="101.76409"
             xlink:href="#m737ebcc96f"
             y="239.75812"
             id="use28" />
        </g>
      </g>
    </g>
    <g
       id="xtick_10">
      <g
         id="line2d_10">
        <g
           id="g29">
          <use
             style="stroke:#000000;stroke-width:0.6"
             x="107.75378"
             xlink:href="#m737ebcc96f"
             y="239.75812"
             id="use29" />
        </g>
      </g>
    </g>
    <g
       id="xtick_11">
      <g
         id="line2d_11">
        <g
           id="g30">
          <use
             style="stroke:#000000;stroke-width:0.6"
             x="112.81798"
             xlink:href="#m737ebcc96f"
             y="239.75812"
             id="use30" />
        </g>
      </g>
    </g>
    <g
       id="xtick_12">
      <g
         id="line2d_12">
        <g
           id="g31">
          <use
             style="stroke:#000000;stroke-width:0.6"
             x="117.2048"
             xlink:href="#m737ebcc96f"
             y="239.75812"
             id="use31" />
        </g>
      </g>
    </g>
    <g
       id="xtick_13">
      <g
         id="line2d_13">
        <g
           id="g32">
          <use
             style="stroke:#000000;stroke-width:0.6"
             x="121.07424"
             xlink:href="#m737ebcc96f"
             y="239.75812"
             id="use32" />
        </g>
      </g>
    </g>
    <g
       id="xtick_14">
      <g
         id="line2d_14">
        <g
           id="g33">
          <use
             style="stroke:#000000;stroke-width:0.6"
             x="147.30705"
             xlink:href="#m737ebcc96f"
             y="239.75812"
             id="use33" />
        </g>
      </g>
    </g>
    <g
       id="xtick_15">
      <g
         id="line2d_15">
        <g
           id="g34">
          <use
             style="stroke:#000000;stroke-width:0.6"
             x="160.62752"
             xlink:href="#m737ebcc96f"
             y="239.75812"
             id="use34" />
        </g>
      </g>
    </g>
    <g
       id="xtick_16">
      <g
         id="line2d_16">
        <g
           id="g35">
          <use
             style="stroke:#000000;stroke-width:0.6"
             x="170.07854"
             xlink:href="#m737ebcc96f"
             y="239.75812"
             id="use35" />
        </g>
      </g>
    </g>
    <g
       id="xtick_17">
      <g
         id="line2d_17">
        <g
           id="g36">
          <use
             style="stroke:#000000;stroke-width:0.6"
             x="177.40932"
             xlink:href="#m737ebcc96f"
             y="239.75812"
             id="use36" />
        </g>
      </g>
    </g>
    <g
       id="xtick_18">
      <g
         id="line2d_18">
        <g
           id="g37">
          <use
             style="stroke:#000000;stroke-width:0.6"
             x="183.39899"
             xlink:href="#m737ebcc96f"
             y="239.75812"
             id="use37" />
        </g>
      </g>
    </g>
    <g
       id="xtick_19">
      <g
         id="line2d_19">
        <g
           id="g38">
          <use
             style="stroke:#000000;stroke-width:0.6"
             x="188.4632"
             xlink:href="#m737ebcc96f"
             y="239.75812"
             id="use38" />
        </g>
      </g>
    </g>
    <g
       id="xtick_20">
      <g
         id="line2d_20">
        <g
           id="g39">
          <use
             style="stroke:#000000;stroke-width:0.6"
             x="192.85001"
             xlink:href="#m737ebcc96f"
             y="239.75812"
             id="use39" />
        </g>
      </g>
    </g>
    <g
       id="xtick_21">
      <g
         id="line2d_21">
        <g
           id="g40">
          <use
             style="stroke:#000000;stroke-width:0.6"
             x="196.71945"
             xlink:href="#m737ebcc96f"
             y="239.75812"
             id="use40" />
        </g>
      </g>
    </g>
    <g
       id="xtick_22">
      <g
         id="line2d_22">
        <g
           id="g41">
          <use
             style="stroke:#000000;stroke-width:0.6"
             x="222.95227"
             xlink:href="#m737ebcc96f"
             y="239.75812"
             id="use41" />
        </g>
      </g>
    </g>
    <g
       id="xtick_23">
      <g
         id="line2d_23">
        <g
           id="g42">
          <use
             style="stroke:#000000;stroke-width:0.6"
             x="236.27274"
             xlink:href="#m737ebcc96f"
             y="239.75812"
             id="use42" />
        </g>
      </g>
    </g>
    <g
       id="xtick_24">
      <g
         id="line2d_24">
        <g
           id="g43">
          <use
             style="stroke:#000000;stroke-width:0.6"
             x="245.72375"
             xlink:href="#m737ebcc96f"
             y="239.75812"
             id="use43" />
        </g>
      </g>
    </g>
    <g
       id="xtick_25">
      <g
         id="line2d_25">
        <g
           id="g44">
          <use
             style="stroke:#000000;stroke-width:0.6"
             x="253.05453"
             xlink:href="#m737ebcc96f"
             y="239.75812"
             id="use44" />
        </g>
      </g>
    </g>
    <g
       id="xtick_26">
      <g
         id="line2d_26">
        <g
           id="g45">
          <use
             style="stroke:#000000;stroke-width:0.6"
             x="259.04422"
             xlink:href="#m737ebcc96f"
             y="239.75812"
             id="use45" />
        </g>
      </g>
    </g>
    <g
       id="xtick_27">
      <g
         id="line2d_27">
        <g
           id="g46">
          <use
             style="stroke:#000000;stroke-width:0.6"
             x="264.10843"
             xlink:href="#m737ebcc96f"
             y="239.75812"
             id="use46" />
        </g>
      </g>
    </g>
    <g
       id="xtick_28">
      <g
         id="line2d_28">
        <g
           id="g47">
          <use
             style="stroke:#000000;stroke-width:0.6"
             x="268.49524"
             xlink:href="#m737ebcc96f"
             y="239.75812"
             id="use47" />
        </g>
      </g>
    </g>
    <g
       id="xtick_29">
      <g
         id="line2d_29">
        <g
           id="g48">
          <use
             style="stroke:#000000;stroke-width:0.6"
             x="272.36469"
             xlink:href="#m737ebcc96f"
             y="239.75812"
             id="use48" />
        </g>
      </g>
    </g>
    <g
       id="xtick_30">
      <g
         id="line2d_30">
        <g
           id="g49">
          <use
             style="stroke:#000000;stroke-width:0.6"
             x="298.5975"
             xlink:href="#m737ebcc96f"
             y="239.75812"
             id="use49" />
        </g>
      </g>
    </g>
    <g
       id="xtick_31">
      <g
         id="line2d_31">
        <g
           id="g50">
          <use
             style="stroke:#000000;stroke-width:0.6"
             x="311.91794"
             xlink:href="#m737ebcc96f"
             y="239.75812"
             id="use50" />
        </g>
      </g>
    </g>
    <g
       id="xtick_32">
      <g
         id="line2d_32">
        <g
           id="g51">
          <use
             style="stroke:#000000;stroke-width:0.6"
             x="321.36896"
             xlink:href="#m737ebcc96f"
             y="239.75812"
             id="use51" />
        </g>
      </g>
    </g>
    <g
       id="xtick_33">
      <g
         id="line2d_33">
        <g
           id="g52">
          <use
             style="stroke:#000000;stroke-width:0.6"
             x="328.69974"
             xlink:href="#m737ebcc96f"
             y="239.75812"
             id="use52" />
        </g>
      </g>
    </g>
    <g
       id="xtick_34">
      <g
         id="line2d_34">
        <g
           id="g53">
          <use
             style="stroke:#000000;stroke-width:0.6"
             x="334.68942"
             xlink:href="#m737ebcc96f"
             y="239.75812"
             id="use53" />
        </g>
      </g>
    </g>
    <g
       id="xtick_35">
      <g
         id="line2d_35">
        <g
           id="g54">
          <use
             style="stroke:#000000;stroke-width:0.6"
             x="339.75363"
             xlink:href="#m737ebcc96f"
             y="239.75812"
             id="use54" />
        </g>
      </g>
    </g>
    <g
       id="xtick_36">
      <g
         id="line2d_36">
        <g
           id="g55">
          <use
             style="stroke:#000000;stroke-width:0.6"
             x="344.14044"
             xlink:href="#m737ebcc96f"
             y="239.75812"
             id="use55" />
        </g>
      </g>
    </g>
    <g
       id="xtick_37">
      <g
         id="line2d_37">
        <g
           id="g56">
          <use
             style="stroke:#000000;stroke-width:0.6"
             x="348.00989"
             xlink:href="#m737ebcc96f"
             y="239.75812"
             id="use56" />
        </g>
      </g>
    </g>
    <g
       id="xtick_38">
      <g
         id="line2d_38">
        <g
           id="g57">
          <use
             style="stroke:#000000;stroke-width:0.6"
             x="374.24271"
             xlink:href="#m737ebcc96f"
             y="239.75812"
             id="use57" />
        </g>
      </g>
    </g>
    <g
       id="text_6">
      <!-- time (s) -->
      <g
         transform="matrix(0.1,0,0,-0.1,193.48672,268.03469)"
         id="g65">
        <defs
           id="defs57">
          <path
             d="M 18.3125,70.21875 V 54.6875 h 18.5 v -6.984375 h -18.5 v -29.6875 q 0,-6.6875 1.828125,-8.59375 1.828125,-1.90625 7.453125,-1.90625 H 36.8125 V 0 H 27.59375 Q 17.1875,0 13.234375,3.875 9.28125,7.765625 9.28125,18.015625 v 29.6875 H 2.6875 V 54.6875 h 6.59375 v 15.53125 z"
             id="DejaVuSans-116" />
          <path
             d="M 9.421875,54.6875 H 18.40625 V 0 H 9.421875 Z m 0,21.296875 H 18.40625 V 64.59375 H 9.421875 Z"
             id="DejaVuSans-105" />
          <path
             d="M 52,44.1875 Q 55.375,50.25 60.0625,53.125 64.75,56 71.09375,56 q 8.546875,0 13.1875,-5.984375 4.640625,-5.96875 4.640625,-17 V 0 h -9.03125 v 32.71875 q 0,7.859375 -2.796875,11.65625 -2.78125,3.8125 -8.484375,3.8125 -6.984375,0 -11.046875,-4.640625 -4.046875,-4.625 -4.046875,-12.640625 V 0 h -9.03125 v 32.71875 q 0,7.90625 -2.78125,11.6875 -2.78125,3.78125 -8.59375,3.78125 -6.890625,0 -10.953125,-4.65625 -4.046875,-4.65625 -4.046875,-12.625 V 0 h -9.03125 v 54.6875 h 9.03125 v -8.5 q 3.078125,5.03125 7.375,7.421875 Q 29.78125,56 35.6875,56 41.65625,56 45.828125,52.96875 50,49.953125 52,44.1875 Z"
             id="DejaVuSans-109" />
          <path
             d="m 56.203125,29.59375 v -4.390625 h -41.3125 q 0.59375,-9.28125 5.59375,-14.140625 5,-4.859375 13.9375,-4.859375 5.171875,0 10.03125,1.265625 4.859375,1.265625 9.65625,3.8125 v -8.5 q -4.84375,-2.046875 -9.921875,-3.125 -5.078125,-1.078125 -10.296875,-1.078125 -13.09375,0 -20.734375,7.609375 -7.640625,7.625 -7.640625,20.625 0,13.421875 7.25,21.296875 Q 20.015625,56 32.328125,56 q 11.03125,0 17.453125,-7.109375 6.421875,-7.09375 6.421875,-19.296875 z m -8.984375,2.640625 q -0.09375,7.359375 -4.125,11.75 -4.03125,4.40625 -10.671875,4.40625 -7.515625,0 -12.03125,-4.25 -4.515625,-4.25 -5.203125,-11.96875 z"
             id="DejaVuSans-101" />
          <path
             id="DejaVuSans-32"
             d="" />
          <path
             d="M 31,75.875 Q 24.46875,64.65625 21.28125,53.65625 18.109375,42.671875 18.109375,31.390625 18.109375,20.125 21.3125,9.0625 24.515625,-2 31,-13.1875 H 23.1875 Q 15.875,-1.703125 12.234375,9.375 8.59375,20.453125 8.59375,31.390625 q 0,10.890625 3.609375,21.921875 3.625,11.046875 10.984375,22.5625 z"
             id="DejaVuSans-40" />
          <path
             d="m 44.28125,53.078125 v -8.5 Q 40.484375,46.53125 36.375,47.5 q -4.09375,0.984375 -8.5,0.984375 -6.6875,0 -10.03125,-2.046875 Q 14.5,44.390625 14.5,40.28125 q 0,-3.125 2.390625,-4.90625 2.390625,-1.78125 9.625,-3.390625 l 3.078125,-0.6875 Q 39.15625,29.25 43.1875,25.515625 47.21875,21.78125 47.21875,15.09375 q 0,-7.625 -6.03125,-12.078125 -6.03125,-4.4375 -16.578125,-4.4375 -4.390625,0 -9.15625,0.859375 Q 10.6875,0.296875 5.421875,2 v 9.28125 q 4.984375,-2.59375 9.8125,-3.890625 4.828125,-1.28125 9.578125,-1.28125 6.34375,0 9.75,2.171875 3.421875,2.171875 3.421875,6.125 0,3.65625 -2.46875,5.609375 -2.453125,1.953125 -10.8125,3.765625 l -3.125,0.734375 q -8.34375,1.75 -12.0625,5.390625 -3.703125,3.640625 -3.703125,9.984375 0,7.71875 5.46875,11.90625 Q 16.75,56 26.8125,56 q 4.96875,0 9.359375,-0.734375 4.40625,-0.71875 8.109375,-2.1875 z"
             id="DejaVuSans-115" />
          <path
             d="m 8.015625,75.875 h 7.8125 q 7.3125,-11.515625 10.953125,-22.5625 3.640625,-11.03125 3.640625,-21.921875 0,-10.9375 -3.640625,-22.015625 -3.640625,-11.078125 -10.953125,-22.5625 h -7.8125 Q 14.5,-2 17.703125,9.0625 20.90625,20.125 20.90625,31.390625 q 0,11.28125 -3.203125,22.265625 -3.203125,11 -9.6875,22.21875 z"
             id="DejaVuSans-41" />
        </defs>
        <use
           xlink:href="#DejaVuSans-116"
           id="use58" />
        <use
           x="39.208984"
           xlink:href="#DejaVuSans-105"
           id="use59" />
        <use
           x="66.992188"
           xlink:href="#DejaVuSans-109"
           id="use60" />
        <use
           x="164.4043"
           xlink:href="#DejaVuSans-101"
           id="use61" />
        <use
           x="225.92773"
           xlink:href="#DejaVuSans-32"
           id="use62" />
        <use
           x="257.71484"
           xlink:href="#DejaVuSans-40"
           id="use63" />
        <use
           x="296.72852"
           xlink:href="#DejaVuSans-115"
           id="use64" />
        <use
           x="348.82812"
           xlink:href="#DejaVuSans-41"
           id="use65" />
      </g>
    </g>
  </g>
  <g
     id="matplotlib.axis_2">
    <g
       id="ytick_1">
      <g
         id="line2d_39">
        <defs
           id="defs65">
          <path
             d="M 0,0 H -3.5"
             id="m48f0175aac"
             style="stroke:#000000;stroke-width:0.8" />
        </defs>
        <g
           id="g66">
          <use
             style="stroke:#000000;stroke-width:0.8"
             x="45.478127"
             xlink:href="#m48f0175aac"
             y="163.30803"
             id="use66" />
        </g>
      </g>
      <g
         id="text_7">
        <!-- $\mathdefault{10^{6}}$ -->
        <g
           transform="matrix(0.1,0,0,-0.1,20.878125,167.10725)"
           id="g69">
          <defs
             id="defs66">
            <path
               d="m 33.015625,40.375 q -6.640625,0 -10.53125,-4.546875 -3.875,-4.53125 -3.875,-12.4375 0,-7.859375 3.875,-12.4375 3.890625,-4.5625 10.53125,-4.5625 6.640625,0 10.515625,4.5625 3.875,4.578125 3.875,12.4375 0,7.90625 -3.875,12.4375 Q 39.65625,40.375 33.015625,40.375 Z M 52.59375,71.296875 V 62.3125 q -3.71875,1.75 -7.5,2.671875 -3.78125,0.9375 -7.5,0.9375 -9.765625,0 -14.921875,-6.59375 -5.140625,-6.59375 -5.875,-19.921875 2.875,4.25 7.21875,6.515625 4.359375,2.265625 9.578125,2.265625 10.984375,0 17.359375,-6.671875 6.375,-6.65625 6.375,-18.125 0,-11.234375 -6.640625,-18.03125 -6.640625,-6.78125 -17.671875,-6.78125 -12.65625,0 -19.34375,9.6875 -6.6875,9.703125 -6.6875,28.109375 0,17.28125 8.203125,27.5625 8.203125,10.28125 22.015625,10.28125 3.71875,0 7.5,-0.734375 3.78125,-0.734375 7.890625,-2.1875 z"
               id="DejaVuSans-54" />
          </defs>
          <use
             transform="translate(0,0.765625)"
             xlink:href="#DejaVuSans-49"
             id="use67" />
          <use
             transform="translate(63.623047,0.765625)"
             xlink:href="#DejaVuSans-48"
             id="use68" />
          <use
             transform="matrix(0.7,0,0,0.7,128.20312,39.046875)"
             xlink:href="#DejaVuSans-54"
             id="use69" />
        </g>
      </g>
    </g>
    <g
       id="ytick_2">
      <g
         id="line2d_40">
        <defs
           id="defs69">
          <path
             d="M 0,0 H -2"
             id="m254e496a1f"
             style="stroke:#000000;stroke-width:0.6" />
        </defs>
        <g
           id="g70">
          <use
             style="stroke:#000000;stroke-width:0.6"
             x="45.478127"
             xlink:href="#m254e496a1f"
             y="237.40059"
             id="use70" />
        </g>
      </g>
    </g>
    <g
       id="ytick_3">
      <g
         id="line2d_41">
        <g
           id="g71">
          <use
             style="stroke:#000000;stroke-width:0.6"
             x="45.478127"
             xlink:href="#m254e496a1f"
             y="219.69662"
             id="use71" />
        </g>
      </g>
    </g>
    <g
       id="ytick_4">
      <g
         id="line2d_42">
        <g
           id="g72">
          <use
             style="stroke:#000000;stroke-width:0.6"
             x="45.478127"
             xlink:href="#m254e496a1f"
             y="205.96436"
             id="use72" />
        </g>
      </g>
    </g>
    <g
       id="ytick_5">
      <g
         id="line2d_43">
        <g
           id="g73">
          <use
             style="stroke:#000000;stroke-width:0.6"
             x="45.478127"
             xlink:href="#m254e496a1f"
             y="194.74428"
             id="use73" />
        </g>
      </g>
    </g>
    <g
       id="ytick_6">
      <g
         id="line2d_44">
        <g
           id="g74">
          <use
             style="stroke:#000000;stroke-width:0.6"
             x="45.478127"
             xlink:href="#m254e496a1f"
             y="185.25783"
             id="use74" />
        </g>
      </g>
    </g>
    <g
       id="ytick_7">
      <g
         id="line2d_45">
        <g
           id="g75">
          <use
             style="stroke:#000000;stroke-width:0.6"
             x="45.478127"
             xlink:href="#m254e496a1f"
             y="177.0403"
             id="use75" />
        </g>
      </g>
    </g>
    <g
       id="ytick_8">
      <g
         id="line2d_46">
        <g
           id="g76">
          <use
             style="stroke:#000000;stroke-width:0.6"
             x="45.478127"
             xlink:href="#m254e496a1f"
             y="169.79192"
             id="use76" />
        </g>
      </g>
    </g>
    <g
       id="ytick_9">
      <g
         id="line2d_47">
        <g
           id="g77">
          <use
             style="stroke:#000000;stroke-width:0.6"
             x="45.478127"
             xlink:href="#m254e496a1f"
             y="120.65171"
             id="use77" />
        </g>
      </g>
    </g>
    <g
       id="ytick_10">
      <g
         id="line2d_48">
        <g
           id="g78">
          <use
             style="stroke:#000000;stroke-width:0.6"
             x="45.478127"
             xlink:href="#m254e496a1f"
             y="95.699364"
             id="use78" />
        </g>
      </g>
    </g>
    <g
       id="ytick_11">
      <g
         id="line2d_49">
        <g
           id="g79">
          <use
             style="stroke:#000000;stroke-width:0.6"
             x="45.478127"
             xlink:href="#m254e496a1f"
             y="77.995392"
             id="use79" />
        </g>
      </g>
    </g>
    <g
       id="ytick_12">
      <g
         id="line2d_50">
        <g
           id="g80">
          <use
             style="stroke:#000000;stroke-width:0.6"
             x="45.478127"
             xlink:href="#m254e496a1f"
             y="64.263123"
             id="use80" />
        </g>
      </g>
    </g>
    <g
       id="ytick_13">
      <g
         id="line2d_51">
        <g
           id="g81">
          <use
             style="stroke:#000000;stroke-width:0.6"
             x="45.478127"
             xlink:href="#m254e496a1f"
             y="53.043041"
             id="use81" />
        </g>
      </g>
    </g>
    <g
       id="ytick_14">
      <g
         id="line2d_52">
        <g
           id="g82">
          <use
             style="stroke:#000000;stroke-width:0.6"
             x="45.478127"
             xlink:href="#m254e496a1f"
             y="43.556599"
             id="use82" />
        </g>
      </g>
    </g>
    <g
       id="ytick_15">
      <g
         id="line2d_53">
        <g
           id="g83">
          <use
             style="stroke:#000000;stroke-width:0.6"
             x="45.478127"
             xlink:href="#m254e496a1f"
             y="35.339069"
             id="use83" />
        </g>
      </g>
    </g>
    <g
       id="ytick_16">
      <g
         id="line2d_54">
        <g
           id="g84">
          <use
             style="stroke:#000000;stroke-width:0.6"
             x="45.478127"
             xlink:href="#m254e496a1f"
             y="28.090693"
             id="use84" />
        </g>
      </g>
    </g>
    <g
       id="text_8">
      <!-- cost -->
      <g
         transform="matrix(0,-0.1,-0.1,0,14.798438,141.41156)"
         id="g88">
        <defs
           id="defs84">
          <path
             d="M 48.78125,52.59375 V 44.1875 q -3.8125,2.109375 -7.640625,3.15625 -3.828125,1.046875 -7.734375,1.046875 -8.75,0 -13.59375,-5.546875 -4.828125,-5.53125 -4.828125,-15.546875 0,-10.015625 4.828125,-15.5625 4.84375,-5.53125 13.59375,-5.53125 3.90625,0 7.734375,1.046875 3.828125,1.046875 7.640625,3.15625 v -8.3125 q -3.765625,-1.75 -7.796875,-2.625 -4.015625,-0.890625 -8.5625,-0.890625 -12.359375,0 -19.640625,7.765625 -7.265625,7.765625 -7.265625,20.953125 0,13.375 7.34375,21.03125 Q 20.21875,56 33.015625,56 q 4.140625,0 8.09375,-0.859375 3.953125,-0.84375 7.671875,-2.546875 z"
             id="DejaVuSans-99" />
          <path
             d="m 30.609375,48.390625 q -7.21875,0 -11.421875,-5.640625 -4.203125,-5.640625 -4.203125,-15.453125 0,-9.8125 4.171875,-15.453125 4.1875,-5.640625 11.453125,-5.640625 7.1875,0 11.375,5.65625 4.203125,5.671875 4.203125,15.4375 0,9.71875 -4.203125,15.40625 -4.1875,5.6875 -11.375,5.6875 z m 0,7.609375 q 11.71875,0 18.40625,-7.625 6.703125,-7.609375 6.703125,-21.078125 0,-13.421875 -6.703125,-21.078125 -6.6875,-7.640625 -18.40625,-7.640625 -11.765625,0 -18.4375,7.640625 -6.65625,7.65625 -6.65625,21.078125 0,13.46875 6.65625,21.078125 Q 18.84375,56 30.609375,56 Z"
             id="DejaVuSans-111" />
        </defs>
        <use
           xlink:href="#DejaVuSans-99"
           id="use85" />
        <use
           x="54.980469"
           xlink:href="#DejaVuSans-111"
           id="use86" />
        <use
           x="116.16211"
           xlink:href="#DejaVuSans-115"
           id="use87" />
        <use
           x="168.26172"
           xlink:href="#DejaVuSans-116"
           id="use88" />
      </g>
    </g>
  </g>
  <g
     id="line2d_55">
    <path
       clip-path="url(#p8121431e4d)"
       d="m 268.39124,32.201761 1.35137,2.330593 0.15724,1.737433 0.15517,1.637289 0.15894,1.648192 0.14555,1.694632 0.15332,1.75251 0.15183,1.811048 0.24067,1.837909 0.18636,1.868953 0.18941,1.981448 0.19215,2.033382 0.20465,2.066545 0.21227,2.098497 0.19407,2.123773 0.20116,2.169633 0.21741,2.203096 0.26405,2.22794 0.21402,2.251971 0.2174,2.276218 0.2082,2.298658 0.21085,2.318066 0.21475,2.33506 0.227,2.348887 0.22452,2.362271 0.26036,2.370653 0.2072,2.379988 0.20901,2.384243 0.21136,2.392217 0.16471,2.391648 0.15841,2.391969 0.1554,2.386033 0.15389,2.380994 0.25044,2.37099 0.16057,2.36112 0.16494,2.3467 0.15197,2.33218 0.1484,2.31335 0.14826,2.2946 0.15002,2.27201 0.14975,2.24993 0.22138,2.22389 0.2111,2.19743 0.20164,2.16746 0.21352,2.13674 0.2114,2.10433 0.20299,2.07045 0.21597,2.03567 0.15995,1.99895 0.17912,1.96068 0.22315,1.92195 0.28277,1.88113 0.23783,1.84159 0.2291,1.8001 0.21698,1.75994 0.14208,1.71986 0.14956,1.67881 0.16248,1.63854 0.18353,1.59484 0.1741,1.55211 0.19947,1.50625 0.18293,1.46209 0.16197,1.41608 0.14687,1.37337 0.1258,1.32973 0.12906,1.29045 0.12976,1.25055 0.14004,1.21449 0.12394,1.17904 0.129,1.14576 0.12865,1.11362 0.12389,1.08205 0.12707,1.05062 0.1201,1.01993 0.11753,0.98826 0.12112,0.96022 0.12244,0.93263 0.11764,0.91377 0.1135,0.89852 0.11197,0.891 0.11012,0.88158 0.11261,0.86884 0.11063,0.84883 0.10968,0.82681 0.11214,0.80364 0.11108,0.7819 0.1113,0.76088 0.11247,0.74135 0.11242,0.72248 0.11081,0.70467 0.12026,0.68721 0.12648,0.67019 0.13768,0.65322 0.10003,0.63633 0.0874,0.6196 0.0765,0.60276 0.0921,0.58623 0.0877,0.56972 0.0868,0.55431 0.0954,0.53952"
       style="fill:none;stroke:#1f77b4;stroke-width:1.5;stroke-linecap:square"
       id="path88" />
  </g>
  <g
     id="line2d_56">
    <path
       clip-path="url(#p8121431e4d)"
       d="m 66.678698,32.201761 37.729232,0.0036 16.6822,0.0035 10.81956,0.0035 7.93568,0.0035 6.32043,0.0035 6.3695,7e-6 h 4.74405 l 4.35294,1.5e-5 3.65579,1.5e-5 h 3.43808 l 2.94074,1.4e-5 2.683,1.5e-5 2.48241,1.5e-5 2.2328,1.4e-5 2.17427,1.5e-5 2.0352,1.4e-5 1.96005,1.5e-5 1.77279,2.2e-5 1.89732,1.5e-5 1.68083,2.2e-5 1.27105,1.4e-5 1.21593,2.2e-5 1.16981,2.2e-5 1.11987,2.2e-5 1.05732,2.2e-5 1.03176,1.5e-5 1.00627,2.9e-5 0.96908,1.4e-5 0.94326,3e-5 0.90761,2.2e-5 0.8855,2.9e-5 0.86038,2.2e-5 0.84711,2.9e-5 0.83032,2.9e-5 0.92678,3e-5 0.92569,2.1e-5 0.92679,3e-5 0.89251,2.9e-5 1.12059,2.2e-5 0.92674,3.6e-5 0.88808,3e-5 0.91432,2.2e-5 0.8756,3.6e-5 0.85137,2.9e-5 0.82856,3e-5 0.79435,2.9e-5 0.78638,3.7e-5 0.79164,2.9e-5 0.72926,2.9e-5 0.7076,2.9e-5 0.69488,3.7e-5 0.68585,3.6e-5 0.69256,3e-5 0.66741,3.6e-5 0.64952,3.7e-5 0.6766,2.9e-5 0.75247,3.7e-5 0.55713,3.6e-5 0.50973,3.7e-5 0.53179,3.6e-5 0.59193,3.7e-5 0.58249,3.6e-5 0.56033,3e-5 0.54792,4.3e-5 0.55277,3.7e-5 0.54296,3.7e-5 0.53292,4.3e-5 0.60031,3.7e-5 0.59317,3.7e-5 0.52439,4.3e-5 0.57794,3.7e-5 0.53366,3.7e-5 0.44686,4.3e-5 0.41355,4.4e-5 0.41224,3.7e-5 0.41388,4.4e-5 0.41216,3.6e-5 0.37972,4.4e-5 0.40169,4.4e-5 0.38295,4.4e-5 0.3703,3.7e-5 0.40096,3.6e-5 0.37814,4.4e-5 0.44025,5.1e-5 0.40269,4.4e-5 0.40724,4.4e-5 0.38688,4.4e-5 0.46211,4.4e-5 0.49751,4.4e-5 0.41578,5.1e-5 0.37988,4.4e-5 0.37808,4.4e-5 0.37547,4.3e-5 0.36739,4.4e-5 0.35829,4.4e-5 0.36508,4.4e-5 0.35614,5.9e-5 0.35287,4.3e-5 0.34515,4.4e-5"
       style="fill:none;stroke:#ff7f0e;stroke-width:1.5;stroke-linecap:square"
       id="path89" />
  </g>
  <g
     id="line2d_57">
    <path
       clip-path="url(#p8121431e4d)"
       d="m 66.94199,32.201761 49.85452,23.891656 13.10164,27.852688 8.97962,31.540745 7.12503,31.49711 5.89644,10.91631 4.94504,2.89929 4.2933,-12.13587 3.77362,-7.51186 3.52455,-3.87269 3.08286,0.12846 2.80652,4.894 2.57279,9.18261 2.38438,10.70986 2.23141,9.30426 2.14867,8.83906 2.02404,7.42246 1.94213,3.21641 1.86777,0.8886 1.76151,0.055 1.65348,-1.30023 1.55196,-1.77216 1.29017,-0.87169 1.25124,0.41541 1.19452,1.60181 1.48444,3.03241 1.17665,4.26129 1.32205,4.49391 1.24615,4.44322 1.15693,4.14816 1.03384,3.06268 0.95365,2.15673 0.93797,1.53061 0.88303,0.62605 0.93162,-0.12684 0.87113,-0.39644 0.86133,-0.64815 0.87523,-0.42303 0.82235,0.10457 0.89143,0.63517 0.86115,1.13951 0.77121,1.38161 0.75888,1.47014 0.80657,1.38626 0.69857,1.08534 0.61608,0.712 0.74807,0.38985 0.71661,0.23523 0.72026,0.0738 0.69376,-0.0673 0.66234,0.0206 0.67995,0.0842 0.70893,0.11355 0.55888,0.21604 0.55025,0.29715 0.60263,0.34093 0.58311,0.34881 0.5962,0.35406 0.51308,0.29628 0.54617,0.24892 0.53624,0.22665 0.51923,0.13079 0.47215,0.0817 0.464,0.0902 0.41942,0.0487 0.38612,0.0324 0.43046,0.0694 0.45597,0.0783 0.4226,0.0825 0.41688,0.1281 0.42778,0.15547 0.44107,0.1379 0.4088,0.097 0.42376,0.0803 0.40866,0.0856 0.45887,0.0627 0.43842,0.0392 0.44699,0.0416 0.43661,0.0555 0.43894,0.0508 0.41549,0.0504 0.41961,0.0613 0.40355,0.067 0.39321,0.0571 0.40072,0.0515 0.36013,0.0522 0.38753,0.0437 0.34732,0.0332 0.30214,0.0364 0.30418,0.0313 0.36334,0.0322 0.35524,0.0339 0.35886,0.0351 0.35645,0.0359 0.35128,0.0362 0.34986,0.0328 0.34319,0.0306 0.33636,0.0317 0.34322,0.0294 0.3357,0.0199"
       style="fill:none;stroke:#2ca02c;stroke-width:1.5;stroke-linecap:square"
       id="path90" />
  </g>
  <g
     id="line2d_58">
    <path
       clip-path="url(#p8121431e4d)"
       d="m 68.253775,32.201761 39.280185,0.698193 16.0657,0.717728 10.56383,0.730908 7.89409,0.74094 6.3989,0.7491 5.17686,0.756023 3.60001,0.762068 3.76332,0.767466 3.86316,0.772325 3.39944,0.776375 3.04517,0.77769 2.84626,0.780967 2.60627,0.781728 2.41209,0.782812 2.25965,0.785294 2.07244,0.790584 1.98264,0.794023 1.87856,0.797673 1.76629,0.800804 1.71136,0.803873 1.62501,0.806155 1.50501,0.808209 1.44151,0.810415 1.42049,0.810324 1.39254,0.811661 1.34413,0.810871 1.28339,0.814711 1.27391,0.817028 1.0808,0.821168 0.9873,0.824622 1.09207,0.827652 1.17256,0.830695 1.09806,0.832976 1.02429,0.835566 0.92593,0.837554 0.87564,0.839829 0.92667,0.841607 0.83573,0.84336 0.83968,0.845213 0.84564,0.847097 0.81484,0.849257 0.80201,0.851167 0.81201,0.853209 0.74762,0.855035 0.74618,0.85694 0.75549,0.858623 0.90411,0.86033 0.83952,0.861767 0.73921,0.863412 0.7877,0.865117 0.83991,0.866964 0.78971,0.868679 0.72035,0.87039 0.67659,0.872013 0.91917,0.873663 0.62615,0.875195 0.63083,0.876802 0.75572,0.878254 0.61912,0.879824 0.58079,0.881198 0.56328,0.882711 0.56403,0.884009 0.55933,0.885471 0.54981,0.886688 0.4523,0.888087 0.44539,0.889212 0.89791,0.890548 0.46539,0.891574 0.35004,0.892839 0.38358,0.893776 0.43477,0.894948 0.45118,0.895833 0.42432,0.896878 0.41999,0.89773 0.40518,0.898653 0.39131,0.899446 0.39856,0.900245 0.3898,0.900962 0.37889,0.901632 0.38603,0.902254 0.38268,0.902797 0.37987,0.90332 0.36951,0.90372 0.35719,0.90412 0.35052,0.90441 0.26242,0.90467 0.29322,0.90483 0.32192,0.90494 0.35019,0.90496 0.34598,0.90492 0.34158,0.90479 0.32681,0.90461 0.31974,0.90431 0.32449,0.90397 0.32559,0.90351 0.31558,0.90301 0.31458,0.90238 0.31339,0.90171 0.31941,0.90089"
       style="fill:none;stroke:#d62728;stroke-width:1.5;stroke-linecap:square"
       id="path91" />
  </g>
  <g
     id="line2d_59">
    <path
       clip-path="url(#p8121431e4d)"
       d="m 65.038662,32.201761 47.306958,23.891656 14.51206,25.085777 9.98256,25.694446 7.84431,22.52961 5.55128,20.75293 4.93941,15.18057 4.59846,9.83881 3.94293,4.2424 3.51808,0.34551 3.29574,-1.65175 2.92109,-1.92771 2.6342,-1.50734 2.40993,-0.18076 2.33281,1.52212 2.13962,2.52781 2.05276,3.06484 1.93025,3.5 1.82565,3.85471 1.69017,3.92074 1.61457,3.52772 1.6014,3.15172 1.56021,2.81965 1.44601,2.25754 1.34686,1.69878 1.31831,1.40926 1.14302,1.19991 1.08177,0.9037 1.06466,0.62407 0.99502,0.48232 1.02684,0.436 0.97622,0.3973 0.9742,0.4059 0.89937,0.44664 0.90126,0.44281 0.88913,0.42527 0.84436,0.48135 0.80493,0.56381 0.80401,0.60321 0.83166,0.59519 0.83452,0.56047 0.81395,0.5635 0.81714,0.58388 0.79954,0.5657 0.7646,0.5211 0.73559,0.4799 0.64458,0.45314 0.68943,0.41788 0.61969,0.37064 0.59348,0.33312 0.57936,0.30727 0.67013,0.27263 0.62792,0.22825 0.57829,0.19761 0.67589,0.18126 0.61797,0.16422 0.56137,0.14237 0.56039,0.1237 0.54509,0.11851 0.50566,0.12068 0.48305,0.11691 0.49706,0.11041 0.5186,0.11043 0.55506,0.11398 0.53108,0.11537 0.5209,0.11514 0.51651,0.11641 0.45286,0.11745 0.44623,0.11467 0.43424,0.11064 0.4567,0.10816 0.43024,0.10573 0.41981,0.10097 0.43211,0.0958 0.43836,0.0917 0.48549,0.0877 0.44075,0.0836 0.41524,0.0792 0.37072,0.0751 0.3927,0.0721 0.43162,0.0696 0.43124,0.067 0.44316,0.0648 0.43964,0.0635 0.39275,0.0622 0.39222,0.0608 0.36047,0.0597 0.38027,0.0589 0.39965,0.0581 0.35808,0.0574 0.40603,0.0567 0.37065,0.056 0.30827,0.0553 0.337,0.0546 0.30837,0.0537 0.30377,0.0528 0.33248,0.052 0.36306,0.0511 0.3201,0.0501 0.35567,0.0492"
       style="fill:none;stroke:#9467bd;stroke-width:1.5;stroke-linecap:square"
       id="path92" />
  </g>
  <g
     id="line2d_60">
    <path
       clip-path="url(#p8121431e4d)"
       d="m 63.125065,32.201761 41.378115,0.0036 18.73914,0.0035 12.03275,0.0035 8.21079,0.0035 7.50707,0.0035 5.39737,0.0035 4.67754,0.0035 3.92324,0.0035 3.22967,0.0036 2.79722,0.0035 2.64073,0.0035 2.94403,0.0035 2.18025,0.0035 2.27634,0.0035 2.15611,0.0035 1.69752,0.0035 1.6869,0.0035 1.77076,0.0035 1.3299,0.0035 1.17933,0.0035 1.21398,0.0035 1.20106,0.0035 1.1531,0.0035 1.07404,0.0036 0.98647,0.0035 1.02858,0.0035 0.99044,0.0035 0.94993,0.0035 0.89676,0.0035 0.8953,0.0036 1.10573,0.0035 1.07057,0.0035 0.80315,0.0035 0.84434,0.0035 1.00737,0.0035 0.95358,0.0035 0.82639,0.0035 0.91066,0.0035 0.95115,0.0035 0.98291,0.0035 0.88385,0.0035 0.86015,0.0035 0.73878,0.0035 0.70876,0.0036 1.10792,0.0035 1.00367,0.0035 0.95874,0.0035 0.82365,0.0035 0.88033,0.0035 0.94589,0.0035 0.88671,0.0035 0.77342,0.0035 0.7205,0.0035 0.59847,0.0035 0.74339,0.0035 0.71328,0.0035 0.6757,0.0035 0.65903,0.0035 0.61227,0.0035 0.54711,0.0035 0.67028,0.0035 0.61139,0.0035 0.61662,0.0035 0.62641,0.0035 0.51087,0.0035 0.53223,0.0035 0.5213,0.0035 0.559,0.0035 0.55113,0.0035 0.51379,0.0035 0.48391,0.0035 0.4762,0.0035 0.51332,0.0035 0.50717,0.0035 0.46623,0.0035 0.48226,0.0035 0.46929,0.0035 0.45456,0.0035 0.47982,0.0035 0.44384,0.0035 0.41912,0.0035 0.39107,0.0035 0.5229,0.0035 0.60251,0.0035 0.54418,0.0035 0.56376,0.0035 0.5441,0.0035 0.46747,0.0035 0.46255,0.0035 0.56511,0.0035 0.50926,0.0035 0.55471,0.0035 0.41219,0.0035 0.4132,0.0035 0.51452,0.0035 0.51898,0.0035 0.46782,0.0035 0.44415,0.0035 0.41346,0.0035"
       style="fill:none;stroke:#8c564b;stroke-width:1.5;stroke-linecap:square"
       id="path93" />
  </g>
  <g
     id="line2d_61">
    <path
       clip-path="url(#p8121431e4d)"
       d="m 64.990716,32.201761 60.775484,6.6e-5 15.20247,30.868491 9.51128,59.204282 7.45967,25.62812 5.92355,10.5923 3.50494,4.44468 3.2345,3.19029 3.03659,3.69664 2.82517,5.32117 3.63774,6.9228 3.67752,6.82539 3.28984,4.73842 3.12525,3.76437 2.89251,1.98052 2.70759,1.1904 2.57333,1.04895 2.34966,1.31561 2.22051,1.66929 2.13108,1.72592 1.95356,1.78814 1.91721,1.5408 1.8724,1.24441 1.8043,1.11037 1.69589,1.03989 1.9309,1.11838 1.55287,1.10034 2.04983,0.89579 2.21352,0.76105 1.92551,0.58925 2.55575,0.50798 1.54592,0.50912 1.54767,0.54362 1.49657,0.62291 1.32396,0.59478 1.10597,0.5567 0.99495,0.49967 1.3913,0.40965 1.13831,0.38839 0.91463,0.38681 0.91349,0.37732 0.87101,0.35267 0.90712,0.31284 0.86589,0.28397 0.81831,0.25429 0.90614,0.27358 0.83576,0.25599 0.86414,0.25957 0.82143,0.21913 0.86357,0.22232 0.774,0.25805 0.78647,0.22219 0.80648,0.18149 0.78932,0.23115 0.94327,0.20141 0.92977,0.17897 0.78242,0.17409 0.7243,0.15217 0.79082,0.17885 0.80585,0.18062 0.75268,0.16788 0.76193,0.15959 0.79672,0.13092 0.64503,0.11343 0.72513,0.10202 0.65728,0.11458 0.8109,0.077 0.69551,0.14042 0.63336,0.0595 0.6197,0.0772 0.6119,0.0842 0.6098,0.0567 0.62082,0.0633 0.60591,0.0373 0.63129,0.0403 0.59219,0.0254 0.62001,0.0635 0.60488,0.0487 0.60171,0.0274 0.62259,0.0401 0.67691,0.0328 0.63277,0.0246 0.61264,0.024 0.6085,0.0175 0.6242,0.0266 0.62331,0.0473 0.57042,0.0619 0.6539,0.0377 0.55933,0.0651 0.62223,0.0808 0.57901,0.0589 0.56262,0.0474 0.56068,0.0596 0.54124,0.055 0.5373,0.0545 0.51611,0.0347 0.52034,0.0303 0.51219,0.035 0.51255,0.0676 0.50991,0.0756"
       style="fill:none;stroke:#e377c2;stroke-width:1.5;stroke-linecap:square"
       id="path94" />
  </g>
  <g
     id="line2d_62">
    <path
       clip-path="url(#p8121431e4d)"
       d="m 60.696307,32.201761 56.683833,23.891662 19.98529,17.129705 12.15591,14.081154 6.25616,-1.979132 5.31275,8.379455 4.56035,15.096315 4.41047,10.07983 3.92419,8.07088 3.79072,6.8844 3.03739,5.75459 2.73434,4.87315 2.51968,4.617 2.54159,4.15127 2.32383,3.60349 2.32099,3.1221 2.08303,2.86379 2.04555,2.70837 1.4021,2.58102 1.34956,2.42828 1.23699,2.25391 1.21394,2.07863 1.1633,1.91998 1.18071,1.78682 1.14452,1.67681 1.11852,1.58322 0.97664,1.49823 0.92761,1.41913 1.20318,1.34081 0.9174,1.26455 0.83479,1.18874 0.96293,1.11618 0.80902,1.05029 0.80189,0.99057 0.76839,0.93983 0.98549,0.89167 0.7097,0.84911 0.79843,0.80569 0.84631,0.76634 0.69098,0.72637 0.67808,0.69079 0.81128,0.65592 0.61075,0.62587 0.74646,0.597 0.68124,0.57161 0.66456,0.54679 0.59565,0.52421 0.60888,0.50196 0.55479,0.48109 0.58398,0.46038 0.53126,0.43978 0.52329,0.41787 0.64497,0.39403 0.52459,0.36764 0.4955,0.33923 0.78346,0.30901 0.74563,0.2789 0.52424,0.24988 0.48088,0.22503 0.50194,0.20522 0.70138,0.19397 0.65277,0.1903 0.48279,0.19676 0.39373,0.20933 0.47415,0.22902 0.38552,0.24881 0.38545,0.26851 0.38618,0.28044 0.36838,0.28569 0.34739,0.28008 0.34675,0.26814 0.33571,0.24962 0.33536,0.23051 0.32556,0.21103 0.39245,0.19614 0.33532,0.18401 0.32712,0.17709 0.35182,0.17033 0.3724,0.165 0.34651,0.1576 0.30386,0.15261 0.42715,0.15126 0.32648,0.15694 0.30423,0.16768 0.37484,0.17871 0.35191,0.18502 0.30184,0.18366 0.3012,0.17712 0.34627,0.16779 0.29139,0.16058 0.29578,0.15456 0.33612,0.15148 0.34647,0.14622 0.33855,0.13999 0.28089,0.12871 0.28845,0.11594 0.33893,0.10072 0.33154,0.0861 0.28328,0.072 0.3218,0.058"
       style="fill:none;stroke:#7f7f7f;stroke-width:1.5;stroke-linecap:square"
       id="path95" />
  </g>
  <g
     id="line2d_63">
    <path
       clip-path="url(#p8121431e4d)"
       d="m 67.524572,32.201761 47.249098,2.219742 12.78083,2.25495 11.34604,2.291061 7.78619,2.328071 7.25495,2.366011 5.78938,2.404873 4.64272,2.444679 4.14688,2.48543 3.5289,2.527117 2.35617,2.569728 2.07379,2.613259 1.93299,2.65768 1.88041,2.702961 2.59917,2.749039 2.20956,2.79585 2.20755,2.843322 2.54129,2.891345 2.04577,2.939779 1.82261,2.98847 1.85365,3.037213 1.763,3.08575 1.57498,3.133804 1.51311,3.181022 1.30481,3.226942 1.25496,3.271111 1.35976,3.31287 1.17081,3.35155 1.25093,3.3863 1.29698,3.41612 1.21917,3.43993 1.23032,3.45637 1.08451,3.46396 1.25635,3.461 1.13473,3.44558 1.14095,3.4156 1.03025,3.36875 1.06636,3.3026 0.98178,3.2146 0.75304,3.1009 0.76668,2.9535 0.68697,2.77498 0.67957,2.60179 0.66755,2.4724 0.67475,2.33142 0.72847,2.20286 0.61055,2.03014 0.64453,1.91552 0.6154,1.78808 0.61391,1.66363 0.61337,1.59123 0.54984,1.51763 0.56311,1.43066 0.56425,1.37291 0.54374,1.31064 0.55299,1.29911 0.5485,1.24372 0.58386,1.175 0.48624,1.13065 0.4737,1.10301 0.5017,1.04843 0.40008,1.01941 0.42662,0.96593 0.40153,0.9323 0.41212,0.90112 0.40137,0.89043 0.45773,0.88861 0.50267,0.859 0.4026,0.83828 0.39337,0.81472 0.37112,0.78419 0.37353,0.75669 0.37484,0.74575 0.35116,0.73901 0.3541,0.72643 0.37838,0.72529 0.31372,0.70998 0.32732,0.6884 0.33922,0.66371 0.30493,0.64952 0.3148,0.63095 0.30984,0.6217 0.32023,0.60018 0.3116,0.57906 0.37691,0.57395 0.31849,0.55739 0.31062,0.53268 0.48665,0.52394 0.39725,0.50309 0.39314,0.49431 0.44333,0.48517 0.44593,0.4866 0.42941,0.47058 0.42406,0.46629 0.4265,0.45531 0.4581,0.45717 0.40141,0.43557 0.40365,0.43507 0.41639,0.41374 0.3487,0.39174"
       style="fill:none;stroke:#bcbd22;stroke-width:1.5;stroke-linecap:square"
       id="path96" />
  </g>
  <g
     id="line2d_64">
    <path
       clip-path="url(#p8121431e4d)"
       d="m 205.37589,45.241276 20.18402,14.135137 13.86058,15.239449 8.87702,15.48062 6.20449,4.443073 5.62683,17.787445 4.3752,4.55545 5.60513,17.70558 2.53646,1.39756 2.4121,1.23586 2.12658,4.42376 1.97397,4.2206 1.68291,1.1963 2.36042,4.36071 1.73801,1.1471 2.16874,4.40214 2.59142,4.08137 1.81153,1.13482 2.66976,4.18387 1.72333,1.05989 1.37277,4.12836 1.31567,3.90355 1.34495,0.9692 1.1168,3.75199 1.09193,0.90006 1.24168,3.30316 0.73095,0.27291 0.68691,0.24048 1.24562,0.81243 1.39207,0.81409 1.18395,0.80644 1.50405,0.79642 1.22766,0.78333 0.99667,0.76807 0.60114,0.75096 1.02041,0.72908 0.99178,0.70376 0.59384,0.6702 0.60116,0.19424 0.82243,0.69679 0.82217,0.65887 0.95255,0.18511 0.92558,0.67342 1.16892,0.62986 1.0102,0.17883 1.20059,0.64344 1.05388,0.58628 0.94442,0.17587 0.89784,0.60499 0.92934,0.16517 0.90585,0.61073 0.53433,0.55684 0.77848,0.16354 0.55447,0.56899 0.64231,0.15352 0.71122,2.03855 0.41271,0.21706 0.29166,0.15338 0.33627,0.50392 0.62291,0.13915 0.35432,1.81562 0.29398,0.2062 0.24166,0.1376 0.23729,0.45738 0.40682,0.12156 0.72719,1.7206 0.73986,0.14199 0.81614,0.1182 0.74542,0.42109 0.65489,0.40557 0.76594,0.10847 0.82364,1.47371 0.65875,0.13925 0.60434,0.10854 0.73895,0.37128 0.54753,0.0983 0.64989,1.34724 0.49176,0.12844 0.65686,0.0986 0.66208,0.32918 0.49748,0.0896 0.51882,1.16226 0.38496,0.13845 0.30926,0.0983 0.40862,0.0836 0.24537,0.31017 0.21061,0.28129 0.17694,0.0234 0.19325,0.0761 0.19371,0.0744 0.18455,0.0743 0.18729,0.0742 0.26827,0.25848 0.26753,0.0284 0.32973,0.0235 0.24717,0.0205 0.33069,0.0708 0.24364,0.0707 0.18584,0.0699 0.18351,0.0697"
       style="fill:none;stroke:#17becf;stroke-width:1.5;stroke-dasharray:5.55, 2.4;stroke-dashoffset:0"
       id="path97" />
  </g>
  <g
     id="line2d_65">
    <path
       clip-path="url(#p8121431e4d)"
       d="m 189.18758,131.7332 20.69997,10.98004 11.7911,3.97976 8.74839,3.25375 7.20004,2.63181 6.58914,2.38998 5.0061,2.20562 3.71226,2.07035 3.37993,1.94652 3.32547,1.8498 2.76825,1.75403 3.01383,1.67599 2.42598,1.59716 1.60431,1.52693 1.38148,1.46072 1.41202,1.3974 1.80305,1.3394 1.92166,1.2827 1.90418,1.231 1.86409,1.17973 1.99762,1.13084 1.88903,1.08134 1.45521,0.90722 1.88848,9.11411 1.365,3.48264 1.00632,1.9408 0.63848,0.85693 0.73681,0.9324 0.67451,0.80945 0.79946,0.59678 0.85278,0.60152 0.67043,0.4538 0.76113,0.33519 0.55509,0.32733 0.48865,0.31861 0.56418,0.31206 0.64631,0.30343 0.824,0.29748 0.78723,0.28945 0.76992,0.28476 0.77325,0.27764 0.77557,0.27306 0.87022,0.26779 0.83203,0.26063 0.82572,0.25719 0.65527,0.24878 0.80501,0.25286 0.54678,0.24405 0.52426,0.24024 0.60288,0.23144 0.63469,0.23051 0.70633,0.22199 0.65667,0.22104 0.65576,0.2128 0.63614,0.21247 0.61113,0.20475 0.67033,0.20485 0.6557,0.19752 0.63916,0.19762 0.628,0.19049 0.65983,0.19055 0.52384,0.18386 0.29592,0.18387 0.31012,0.17749 0.3431,0.17739 0.34595,0.17125 0.34633,0.17283 0.34179,0.16673 0.38091,0.17007 0.34155,0.16388 0.32104,0.16223 0.36103,0.15655 0.38708,0.15735 0.33195,0.15193 0.29456,0.15449 0.30872,0.14915 0.34509,0.14792 0.37376,0.14294 0.33842,0.14554 0.29237,0.13866 0.28523,0.14069 0.36144,0.13304 0.37013,0.13342 0.22878,0.1281 0.27729,0.12723 0.30376,0.1245 0.26822,0.12318 0.28625,0.12139 0.3313,0.1199 0.34027,0.11829 0.35002,0.11681 0.37785,0.11531 0.32458,0.097 0.5112,1.79961 0.39304,1.52501 0.45166,0.13081 0.38069,0.0815 0.46215,0.21219 0.36557,0.11359 0.49749,0.35052"
       style="fill:none;stroke:#1f77b4;stroke-width:1.5;stroke-dasharray:5.55, 2.4;stroke-dashoffset:0"
       id="path98" />
  </g>
  <g
     id="line2d_66">
    <path
       clip-path="url(#p8121431e4d)"
       d="m 286.19201,144.23438 23.95906,50.94307 14.03477,18.22498 9.75622,3.31179 7.69659,7.58579 6.25492,3.09022 5.26967,0.60121 4.53058,0.78345 3.93895,0.28616 3.42717,0.29248"
       style="fill:none;stroke:#ff7f0e;stroke-width:1.5;stroke-dasharray:5.55, 2.4;stroke-dashoffset:0"
       id="path99" />
  </g>
  <g
     id="line2d_67">
    <path
       clip-path="url(#p8121431e4d)"
       d="m 138.56243,32.201761 h 33.86411 6.6475 4.70585 4.21401 4.75331 3.38264 3.1342 3.41528 1.95291 1.87691 2.41122 2.25626 2.45332 2.11576 2.13255 2.26361 1.34541 1.58485 1.837 1.53243 1.44782 1.77081 1.93372 1.38144 1.22518 0.96307 1.59871 0.78468 1.13029 0.88111 1.24581 1.15835 0.88718 1.12866 0.75413 0.93848 0.65772 0.87897 0.74017 0.73405 0.73447 0.69249 0.8252 0.7537 0.65044 0.77126 0.53641 0.70892 0.77639 0.70676 0.74407 0.49615 0.72135 0.8998 0.52208 0.95557 0.48661 0.48261 0.51584 0.45116 0.57148 0.58208 0.43272 0.50823 0.37247 0.30661 0.30216 0.30691 0.36923 0.60014 0.53933 0.39362 0.47025 0.59389 0.35537 0.33974 0.4428 0.39655 0.54095 0.6108 0.54868 0.35189 0.3819 0.32814 0.4693 0.44286 0.37299 0.58636 0.41943 0.388 0.5847 0.2759 0.42697 0.36599 0.29303 0.30463 0.38026 0.30065 0.28718"
       style="fill:none;stroke:#2ca02c;stroke-width:1.5;stroke-dasharray:5.55, 2.4;stroke-dashoffset:0"
       id="path100" />
  </g>
  <g
     id="patch_3">
    <path
       d="M 45.478125,239.75812 V 22.318125"
       style="fill:none;stroke:#000000;stroke-width:0.8;stroke-linecap:square;stroke-linejoin:miter"
       id="path101" />
  </g>
  <g
     id="patch_4">
    <path
       d="M 380.27812,239.75812 V 22.318125"
       style="fill:none;stroke:#000000;stroke-width:0.8;stroke-linecap:square;stroke-linejoin:miter"
       id="path102" />
  </g>
  <g
     id="patch_5">
    <path
       d="M 45.478125,239.75812 H 380.27812"
       style="fill:none;stroke:#000000;stroke-width:0.8;stroke-linecap:square;stroke-linejoin:miter"
       id="path103" />
  </g>
  <g
     id="patch_6">
    <path
       d="M 45.478125,22.318125 H 380.27812"
       style="fill:none;stroke:#000000;stroke-width:0.8;stroke-linecap:square;stroke-linejoin:miter"
       id="path104" />
  </g>
  <defs
     id="defs188">
    <clipPath
       id="p8121431e4d">
      <rect
         height="217.44"
         width="334.79999"
         x="45.478127"
         y="22.318125"
         id="rect188" />
    </clipPath>
  </defs>
</svg>
