<?xml version="1.0" encoding="UTF-8" standalone="no"?>
<!-- Created with matplotlib (https://matplotlib.org/) -->

<svg
   height="277.31436pt"
   version="1.1"
   viewBox="0 0 400 277.31437"
   width="400pt"
   id="svg163"
   sodipodi:docname="TGG119Prostate-iter.svg"
   inkscape:version="1.3.2 (091e20e, 2023-11-25, custom)"
   xmlns:inkscape="http://www.inkscape.org/namespaces/inkscape"
   xmlns:sodipodi="http://sodipodi.sourceforge.net/DTD/sodipodi-0.dtd"
   xmlns:xlink="http://www.w3.org/1999/xlink"
   xmlns="http://www.w3.org/2000/svg"
   xmlns:svg="http://www.w3.org/2000/svg"
   xmlns:rdf="http://www.w3.org/1999/02/22-rdf-syntax-ns#"
   xmlns:cc="http://creativecommons.org/ns#"
   xmlns:dc="http://purl.org/dc/elements/1.1/">
  <sodipodi:namedview
     id="namedview163"
     pagecolor="#ffffff"
     bordercolor="#000000"
     borderopacity="0.25"
     inkscape:showpageshadow="2"
     inkscape:pageopacity="0.0"
     inkscape:pagecheckerboard="0"
     inkscape:deskcolor="#d1d1d1"
     inkscape:document-units="pt"
     inkscape:zoom="1.5158054"
     inkscape:cx="378.34672"
     inkscape:cy="185.05014"
     inkscape:window-width="1920"
     inkscape:window-height="1009"
     inkscape:window-x="-8"
     inkscape:window-y="-8"
     inkscape:window-maximized="1"
     inkscape:current-layer="svg163" />
  <metadata
     id="metadata1">
    <rdf:RDF>
      <cc:Work>
        <dc:type
           rdf:resource="http://purl.org/dc/dcmitype/StillImage" />
        <dc:date>2023-05-25T09:18:43.735978</dc:date>
        <dc:format>image/svg+xml</dc:format>
        <dc:creator>
          <cc:Agent>
            <dc:title>Matplotlib v3.3.2, https://matplotlib.org/</dc:title>
          </cc:Agent>
        </dc:creator>
      </cc:Work>
    </rdf:RDF>
  </metadata>
  <defs
     id="defs1">
    <style
       type="text/css"
       id="style1">*{stroke-linecap:butt;stroke-linejoin:round;}</style>
  </defs>
  <g
     id="patch_1">
    <path
       d="M 0,277.31437 H 488.35425 V 0 H 0 Z"
       style="fill:none"
       id="path1" />
  </g>
  <g
     id="patch_2">
    <path
       d="M 45.478125,239.75812 H 380.27812 V 22.318125 H 45.478125 Z"
       style="fill:#ffffff"
       id="path2" />
  </g>
  <g
     id="matplotlib.axis_1">
    <g
       id="xtick_1">
      <g
         id="line2d_1">
        <defs
           id="defs2">
          <path
             d="M 0,0 V 3.5"
             id="m4b63d39239"
             style="stroke:#000000;stroke-width:0.8" />
        </defs>
        <g
           id="g2">
          <use
             style="stroke:#000000;stroke-width:0.8"
             x="60.696308"
             xlink:href="#m4b63d39239"
             y="239.75812"
             id="use2" />
        </g>
      </g>
      <g
         id="text_1">
        <!-- $\mathdefault{10^{0}}$ -->
        <g
           transform="matrix(0.1,0,0,-0.1,51.896307,254.35656)"
           id="g5">
          <defs
             id="defs3">
            <path
               d="m 12.40625,8.296875 h 16.109375 v 55.625 L 10.984375,60.40625 v 8.984375 l 17.4375,3.515625 H 38.28125 V 8.296875 H 54.390625 V 0 H 12.40625 Z"
               id="DejaVuSans-49" />
            <path
               d="m 31.78125,66.40625 q -7.609375,0 -11.453125,-7.5 Q 16.5,51.421875 16.5,36.375 q 0,-14.984375 3.828125,-22.484375 3.84375,-7.5 11.453125,-7.5 7.671875,0 11.5,7.5 3.84375,7.5 3.84375,22.484375 0,15.046875 -3.84375,22.53125 -3.828125,7.5 -11.5,7.5 z m 0,7.8125 q 12.265625,0 18.734375,-9.703125 6.46875,-9.6875 6.46875,-28.140625 0,-18.40625 -6.46875,-28.109375 -6.46875,-9.6875 -18.734375,-9.6875 -12.25,0 -18.71875,9.6875 Q 6.59375,17.96875 6.59375,36.375 q 0,18.453125 6.46875,28.140625 6.46875,9.703125 18.71875,9.703125 z"
               id="DejaVuSans-48" />
          </defs>
          <use
             transform="translate(0,0.765625)"
             xlink:href="#DejaVuSans-49"
             id="use3" />
          <use
             transform="translate(63.623047,0.765625)"
             xlink:href="#DejaVuSans-48"
             id="use4" />
          <use
             transform="matrix(0.7,0,0,0.7,128.20312,39.046875)"
             xlink:href="#DejaVuSans-48"
             id="use5" />
        </g>
      </g>
    </g>
    <g
       id="xtick_2">
      <g
         id="line2d_2">
        <g
           id="g6">
          <use
             style="stroke:#000000;stroke-width:0.8"
             x="213.21097"
             xlink:href="#m4b63d39239"
             y="239.75812"
             id="use6" />
        </g>
      </g>
      <g
         id="text_2">
        <!-- $\mathdefault{10^{1}}$ -->
        <g
           transform="matrix(0.1,0,0,-0.1,204.41097,254.35656)"
           id="g9">
          <use
             transform="translate(0,0.684375)"
             xlink:href="#DejaVuSans-49"
             id="use7" />
          <use
             transform="translate(63.623047,0.684375)"
             xlink:href="#DejaVuSans-48"
             id="use8" />
          <use
             transform="matrix(0.7,0,0,0.7,128.20312,38.965625)"
             xlink:href="#DejaVuSans-49"
             id="use9" />
        </g>
      </g>
    </g>
    <g
       id="xtick_3">
      <g
         id="line2d_3">
        <g
           id="g10">
          <use
             style="stroke:#000000;stroke-width:0.8"
             x="365.72565"
             xlink:href="#m4b63d39239"
             y="239.75812"
             id="use10" />
        </g>
      </g>
      <g
         id="text_3">
        <!-- $\mathdefault{10^{2}}$ -->
        <g
           transform="matrix(0.1,0,0,-0.1,356.92564,254.35656)"
           id="g13">
          <defs
             id="defs10">
            <path
               d="M 19.1875,8.296875 H 53.609375 V 0 H 7.328125 v 8.296875 q 5.609375,5.8125 15.296875,15.59375 9.703125,9.796875 12.1875,12.640625 4.734375,5.3125 6.609375,9 1.890625,3.6875 1.890625,7.25 0,5.8125 -4.078125,9.46875 -4.078125,3.671875 -10.625,3.671875 -4.640625,0 -9.796875,-1.609375 -5.140625,-1.609375 -11,-4.890625 v 9.96875 Q 13.765625,71.78125 18.9375,73 q 5.1875,1.21875 9.484375,1.21875 11.328125,0 18.0625,-5.671875 6.734375,-5.65625 6.734375,-15.125 0,-4.5 -1.6875,-8.53125 Q 49.859375,40.875 45.40625,35.40625 44.1875,33.984375 37.640625,27.21875 31.109375,20.453125 19.1875,8.296875 Z"
               id="DejaVuSans-50" />
          </defs>
          <use
             transform="translate(0,0.765625)"
             xlink:href="#DejaVuSans-49"
             id="use11" />
          <use
             transform="translate(63.623047,0.765625)"
             xlink:href="#DejaVuSans-48"
             id="use12" />
          <use
             transform="matrix(0.7,0,0,0.7,128.20312,39.046875)"
             xlink:href="#DejaVuSans-50"
             id="use13" />
        </g>
      </g>
    </g>
    <g
       id="xtick_4">
      <g
         id="line2d_4">
        <defs
           id="defs13">
          <path
             d="M 0,0 V 2"
             id="mb309b86449"
             style="stroke:#000000;stroke-width:0.6" />
        </defs>
        <g
           id="g14">
          <use
             style="stroke:#000000;stroke-width:0.6"
             x="45.916107"
             xlink:href="#mb309b86449"
             y="239.75812"
             id="use14" />
        </g>
      </g>
    </g>
    <g
       id="xtick_5">
      <g
         id="line2d_5">
        <g
           id="g15">
          <use
             style="stroke:#000000;stroke-width:0.6"
             x="53.717617"
             xlink:href="#mb309b86449"
             y="239.75812"
             id="use15" />
        </g>
      </g>
    </g>
    <g
       id="xtick_6">
      <g
         id="line2d_6">
        <g
           id="g16">
          <use
             style="stroke:#000000;stroke-width:0.6"
             x="106.6078"
             xlink:href="#mb309b86449"
             y="239.75812"
             id="use16" />
        </g>
      </g>
    </g>
    <g
       id="xtick_7">
      <g
         id="line2d_7">
        <g
           id="g17">
          <use
             style="stroke:#000000;stroke-width:0.6"
             x="133.46429"
             xlink:href="#mb309b86449"
             y="239.75812"
             id="use17" />
        </g>
      </g>
    </g>
    <g
       id="xtick_8">
      <g
         id="line2d_8">
        <g
           id="g18">
          <use
             style="stroke:#000000;stroke-width:0.6"
             x="152.51929"
             xlink:href="#mb309b86449"
             y="239.75812"
             id="use18" />
        </g>
      </g>
    </g>
    <g
       id="xtick_9">
      <g
         id="line2d_9">
        <g
           id="g19">
          <use
             style="stroke:#000000;stroke-width:0.6"
             x="167.29948"
             xlink:href="#mb309b86449"
             y="239.75812"
             id="use19" />
        </g>
      </g>
    </g>
    <g
       id="xtick_10">
      <g
         id="line2d_10">
        <g
           id="g20">
          <use
             style="stroke:#000000;stroke-width:0.6"
             x="179.37578"
             xlink:href="#mb309b86449"
             y="239.75812"
             id="use20" />
        </g>
      </g>
    </g>
    <g
       id="xtick_11">
      <g
         id="line2d_11">
        <g
           id="g21">
          <use
             style="stroke:#000000;stroke-width:0.6"
             x="189.58615"
             xlink:href="#mb309b86449"
             y="239.75812"
             id="use21" />
        </g>
      </g>
    </g>
    <g
       id="xtick_12">
      <g
         id="line2d_12">
        <g
           id="g22">
          <use
             style="stroke:#000000;stroke-width:0.6"
             x="198.43077"
             xlink:href="#mb309b86449"
             y="239.75812"
             id="use22" />
        </g>
      </g>
    </g>
    <g
       id="xtick_13">
      <g
         id="line2d_13">
        <g
           id="g23">
          <use
             style="stroke:#000000;stroke-width:0.6"
             x="206.23228"
             xlink:href="#mb309b86449"
             y="239.75812"
             id="use23" />
        </g>
      </g>
    </g>
    <g
       id="xtick_14">
      <g
         id="line2d_14">
        <g
           id="g24">
          <use
             style="stroke:#000000;stroke-width:0.6"
             x="259.12247"
             xlink:href="#mb309b86449"
             y="239.75812"
             id="use24" />
        </g>
      </g>
    </g>
    <g
       id="xtick_15">
      <g
         id="line2d_15">
        <g
           id="g25">
          <use
             style="stroke:#000000;stroke-width:0.6"
             x="285.97897"
             xlink:href="#mb309b86449"
             y="239.75812"
             id="use25" />
        </g>
      </g>
    </g>
    <g
       id="xtick_16">
      <g
         id="line2d_16">
        <g
           id="g26">
          <use
             style="stroke:#000000;stroke-width:0.6"
             x="305.03397"
             xlink:href="#mb309b86449"
             y="239.75812"
             id="use26" />
        </g>
      </g>
    </g>
    <g
       id="xtick_17">
      <g
         id="line2d_17">
        <g
           id="g27">
          <use
             style="stroke:#000000;stroke-width:0.6"
             x="319.81415"
             xlink:href="#mb309b86449"
             y="239.75812"
             id="use27" />
        </g>
      </g>
    </g>
    <g
       id="xtick_18">
      <g
         id="line2d_18">
        <g
           id="g28">
          <use
             style="stroke:#000000;stroke-width:0.6"
             x="331.89044"
             xlink:href="#mb309b86449"
             y="239.75812"
             id="use28" />
        </g>
      </g>
    </g>
    <g
       id="xtick_19">
      <g
         id="line2d_19">
        <g
           id="g29">
          <use
             style="stroke:#000000;stroke-width:0.6"
             x="342.10083"
             xlink:href="#mb309b86449"
             y="239.75812"
             id="use29" />
        </g>
      </g>
    </g>
    <g
       id="xtick_20">
      <g
         id="line2d_20">
        <g
           id="g30">
          <use
             style="stroke:#000000;stroke-width:0.6"
             x="350.94543"
             xlink:href="#mb309b86449"
             y="239.75812"
             id="use30" />
        </g>
      </g>
    </g>
    <g
       id="xtick_21">
      <g
         id="line2d_21">
        <g
           id="g31">
          <use
             style="stroke:#000000;stroke-width:0.6"
             x="358.74695"
             xlink:href="#mb309b86449"
             y="239.75812"
             id="use31" />
        </g>
      </g>
    </g>
    <g
       id="text_4">
      <!-- iteration -->
      <g
         transform="matrix(0.1,0,0,-0.1,191.75547,268.03469)"
         id="g40">
        <defs
           id="defs31">
          <path
             d="M 9.421875,54.6875 H 18.40625 V 0 H 9.421875 Z m 0,21.296875 H 18.40625 V 64.59375 H 9.421875 Z"
             id="DejaVuSans-105" />
          <path
             d="M 18.3125,70.21875 V 54.6875 h 18.5 v -6.984375 h -18.5 v -29.6875 q 0,-6.6875 1.828125,-8.59375 1.828125,-1.90625 7.453125,-1.90625 H 36.8125 V 0 H 27.59375 Q 17.1875,0 13.234375,3.875 9.28125,7.765625 9.28125,18.015625 v 29.6875 H 2.6875 V 54.6875 h 6.59375 v 15.53125 z"
             id="DejaVuSans-116" />
          <path
             d="m 56.203125,29.59375 v -4.390625 h -41.3125 q 0.59375,-9.28125 5.59375,-14.140625 5,-4.859375 13.9375,-4.859375 5.171875,0 10.03125,1.265625 4.859375,1.265625 9.65625,3.8125 v -8.5 q -4.84375,-2.046875 -9.921875,-3.125 -5.078125,-1.078125 -10.296875,-1.078125 -13.09375,0 -20.734375,7.609375 -7.640625,7.625 -7.640625,20.625 0,13.421875 7.25,21.296875 Q 20.015625,56 32.328125,56 q 11.03125,0 17.453125,-7.109375 6.421875,-7.09375 6.421875,-19.296875 z m -8.984375,2.640625 q -0.09375,7.359375 -4.125,11.75 -4.03125,4.40625 -10.671875,4.40625 -7.515625,0 -12.03125,-4.25 -4.515625,-4.25 -5.203125,-11.96875 z"
             id="DejaVuSans-101" />
          <path
             d="m 41.109375,46.296875 q -1.515625,0.875 -3.296875,1.28125 Q 36.03125,48 33.890625,48 26.265625,48 22.1875,43.046875 18.109375,38.09375 18.109375,28.8125 V 0 h -9.03125 v 54.6875 h 9.03125 v -8.5 q 2.84375,4.984375 7.375,7.390625 Q 30.03125,56 36.53125,56 q 0.921875,0 2.046875,-0.125 1.125,-0.109375 2.484375,-0.359375 z"
             id="DejaVuSans-114" />
          <path
             d="m 34.28125,27.484375 q -10.890625,0 -15.09375,-2.484375 -4.203125,-2.484375 -4.203125,-8.5 0,-4.78125 3.15625,-7.59375 3.15625,-2.796875 8.5625,-2.796875 7.484375,0 12,5.296875 4.515625,5.296875 4.515625,14.078125 v 2 z m 17.921875,3.71875 V 0 H 43.21875 v 8.296875 q -3.078125,-4.96875 -7.671875,-7.34375 -4.59375,-2.375 -11.234375,-2.375 -8.390625,0 -13.359375,4.71875 Q 6,8.015625 6,15.921875 q 0,9.21875 6.171875,13.90625 6.1875,4.6875 18.4375,4.6875 H 43.21875 v 0.890625 q 0,6.203125 -4.078125,9.59375 -4.078125,3.390625 -11.453125,3.390625 -4.6875,0 -9.140625,-1.125 -4.4375,-1.125 -8.53125,-3.375 v 8.3125 q 4.921875,1.90625 9.5625,2.84375 Q 24.21875,56 28.609375,56 q 11.875,0 17.734375,-6.15625 5.859375,-6.140625 5.859375,-18.640625 z"
             id="DejaVuSans-97" />
          <path
             d="m 30.609375,48.390625 q -7.21875,0 -11.421875,-5.640625 -4.203125,-5.640625 -4.203125,-15.453125 0,-9.8125 4.171875,-15.453125 4.1875,-5.640625 11.453125,-5.640625 7.1875,0 11.375,5.65625 4.203125,5.671875 4.203125,15.4375 0,9.71875 -4.203125,15.40625 -4.1875,5.6875 -11.375,5.6875 z m 0,7.609375 q 11.71875,0 18.40625,-7.625 6.703125,-7.609375 6.703125,-21.078125 0,-13.421875 -6.703125,-21.078125 -6.6875,-7.640625 -18.40625,-7.640625 -11.765625,0 -18.4375,7.640625 -6.65625,7.65625 -6.65625,21.078125 0,13.46875 6.65625,21.078125 Q 18.84375,56 30.609375,56 Z"
             id="DejaVuSans-111" />
          <path
             d="M 54.890625,33.015625 V 0 H 45.90625 v 32.71875 q 0,7.765625 -3.03125,11.609375 -3.03125,3.859375 -9.078125,3.859375 -7.28125,0 -11.484375,-4.640625 -4.203125,-4.625 -4.203125,-12.640625 V 0 h -9.03125 v 54.6875 h 9.03125 v -8.5 q 3.234375,4.9375 7.59375,7.375 4.375,2.4375 10.09375,2.4375 9.421875,0 14.25,-5.828125 4.84375,-5.828125 4.84375,-17.15625 z"
             id="DejaVuSans-110" />
        </defs>
        <use
           xlink:href="#DejaVuSans-105"
           id="use32" />
        <use
           x="27.783203"
           xlink:href="#DejaVuSans-116"
           id="use33" />
        <use
           x="66.992188"
           xlink:href="#DejaVuSans-101"
           id="use34" />
        <use
           x="128.51562"
           xlink:href="#DejaVuSans-114"
           id="use35" />
        <use
           x="169.62891"
           xlink:href="#DejaVuSans-97"
           id="use36" />
        <use
           x="230.9082"
           xlink:href="#DejaVuSans-116"
           id="use37" />
        <use
           x="270.11719"
           xlink:href="#DejaVuSans-105"
           id="use38" />
        <use
           x="297.90039"
           xlink:href="#DejaVuSans-111"
           id="use39" />
        <use
           x="359.08203"
           xlink:href="#DejaVuSans-110"
           id="use40" />
      </g>
    </g>
  </g>
  <g
     id="matplotlib.axis_2">
    <g
       id="ytick_1">
      <g
         id="line2d_22">
        <defs
           id="defs40">
          <path
             d="M 0,0 H -3.5"
             id="mda3a4202b7"
             style="stroke:#000000;stroke-width:0.8" />
        </defs>
        <g
           id="g41">
          <use
             style="stroke:#000000;stroke-width:0.8"
             x="45.478127"
             xlink:href="#mda3a4202b7"
             y="163.30803"
             id="use41" />
        </g>
      </g>
      <g
         id="text_5">
        <!-- $\mathdefault{10^{6}}$ -->
        <g
           transform="matrix(0.1,0,0,-0.1,20.878125,167.10725)"
           id="g44">
          <defs
             id="defs41">
            <path
               d="m 33.015625,40.375 q -6.640625,0 -10.53125,-4.546875 -3.875,-4.53125 -3.875,-12.4375 0,-7.859375 3.875,-12.4375 3.890625,-4.5625 10.53125,-4.5625 6.640625,0 10.515625,4.5625 3.875,4.578125 3.875,12.4375 0,7.90625 -3.875,12.4375 Q 39.65625,40.375 33.015625,40.375 Z M 52.59375,71.296875 V 62.3125 q -3.71875,1.75 -7.5,2.671875 -3.78125,0.9375 -7.5,0.9375 -9.765625,0 -14.921875,-6.59375 -5.140625,-6.59375 -5.875,-19.921875 2.875,4.25 7.21875,6.515625 4.359375,2.265625 9.578125,2.265625 10.984375,0 17.359375,-6.671875 6.375,-6.65625 6.375,-18.125 0,-11.234375 -6.640625,-18.03125 -6.640625,-6.78125 -17.671875,-6.78125 -12.65625,0 -19.34375,9.6875 -6.6875,9.703125 -6.6875,28.109375 0,17.28125 8.203125,27.5625 8.203125,10.28125 22.015625,10.28125 3.71875,0 7.5,-0.734375 3.78125,-0.734375 7.890625,-2.1875 z"
               id="DejaVuSans-54" />
          </defs>
          <use
             transform="translate(0,0.765625)"
             xlink:href="#DejaVuSans-49"
             id="use42" />
          <use
             transform="translate(63.623047,0.765625)"
             xlink:href="#DejaVuSans-48"
             id="use43" />
          <use
             transform="matrix(0.7,0,0,0.7,128.20312,39.046875)"
             xlink:href="#DejaVuSans-54"
             id="use44" />
        </g>
      </g>
    </g>
    <g
       id="ytick_2">
      <g
         id="line2d_23">
        <defs
           id="defs44">
          <path
             d="M 0,0 H -2"
             id="m1645a14d2e"
             style="stroke:#000000;stroke-width:0.6" />
        </defs>
        <g
           id="g45">
          <use
             style="stroke:#000000;stroke-width:0.6"
             x="45.478127"
             xlink:href="#m1645a14d2e"
             y="237.40059"
             id="use45" />
        </g>
      </g>
    </g>
    <g
       id="ytick_3">
      <g
         id="line2d_24">
        <g
           id="g46">
          <use
             style="stroke:#000000;stroke-width:0.6"
             x="45.478127"
             xlink:href="#m1645a14d2e"
             y="219.69662"
             id="use46" />
        </g>
      </g>
    </g>
    <g
       id="ytick_4">
      <g
         id="line2d_25">
        <g
           id="g47">
          <use
             style="stroke:#000000;stroke-width:0.6"
             x="45.478127"
             xlink:href="#m1645a14d2e"
             y="205.96436"
             id="use47" />
        </g>
      </g>
    </g>
    <g
       id="ytick_5">
      <g
         id="line2d_26">
        <g
           id="g48">
          <use
             style="stroke:#000000;stroke-width:0.6"
             x="45.478127"
             xlink:href="#m1645a14d2e"
             y="194.74428"
             id="use48" />
        </g>
      </g>
    </g>
    <g
       id="ytick_6">
      <g
         id="line2d_27">
        <g
           id="g49">
          <use
             style="stroke:#000000;stroke-width:0.6"
             x="45.478127"
             xlink:href="#m1645a14d2e"
             y="185.25783"
             id="use49" />
        </g>
      </g>
    </g>
    <g
       id="ytick_7">
      <g
         id="line2d_28">
        <g
           id="g50">
          <use
             style="stroke:#000000;stroke-width:0.6"
             x="45.478127"
             xlink:href="#m1645a14d2e"
             y="177.0403"
             id="use50" />
        </g>
      </g>
    </g>
    <g
       id="ytick_8">
      <g
         id="line2d_29">
        <g
           id="g51">
          <use
             style="stroke:#000000;stroke-width:0.6"
             x="45.478127"
             xlink:href="#m1645a14d2e"
             y="169.79192"
             id="use51" />
        </g>
      </g>
    </g>
    <g
       id="ytick_9">
      <g
         id="line2d_30">
        <g
           id="g52">
          <use
             style="stroke:#000000;stroke-width:0.6"
             x="45.478127"
             xlink:href="#m1645a14d2e"
             y="120.65171"
             id="use52" />
        </g>
      </g>
    </g>
    <g
       id="ytick_10">
      <g
         id="line2d_31">
        <g
           id="g53">
          <use
             style="stroke:#000000;stroke-width:0.6"
             x="45.478127"
             xlink:href="#m1645a14d2e"
             y="95.699364"
             id="use53" />
        </g>
      </g>
    </g>
    <g
       id="ytick_11">
      <g
         id="line2d_32">
        <g
           id="g54">
          <use
             style="stroke:#000000;stroke-width:0.6"
             x="45.478127"
             xlink:href="#m1645a14d2e"
             y="77.995392"
             id="use54" />
        </g>
      </g>
    </g>
    <g
       id="ytick_12">
      <g
         id="line2d_33">
        <g
           id="g55">
          <use
             style="stroke:#000000;stroke-width:0.6"
             x="45.478127"
             xlink:href="#m1645a14d2e"
             y="64.263123"
             id="use55" />
        </g>
      </g>
    </g>
    <g
       id="ytick_13">
      <g
         id="line2d_34">
        <g
           id="g56">
          <use
             style="stroke:#000000;stroke-width:0.6"
             x="45.478127"
             xlink:href="#m1645a14d2e"
             y="53.043041"
             id="use56" />
        </g>
      </g>
    </g>
    <g
       id="ytick_14">
      <g
         id="line2d_35">
        <g
           id="g57">
          <use
             style="stroke:#000000;stroke-width:0.6"
             x="45.478127"
             xlink:href="#m1645a14d2e"
             y="43.556599"
             id="use57" />
        </g>
      </g>
    </g>
    <g
       id="ytick_15">
      <g
         id="line2d_36">
        <g
           id="g58">
          <use
             style="stroke:#000000;stroke-width:0.6"
             x="45.478127"
             xlink:href="#m1645a14d2e"
             y="35.339069"
             id="use58" />
        </g>
      </g>
    </g>
    <g
       id="ytick_16">
      <g
         id="line2d_37">
        <g
           id="g59">
          <use
             style="stroke:#000000;stroke-width:0.6"
             x="45.478127"
             xlink:href="#m1645a14d2e"
             y="28.090693"
             id="use59" />
        </g>
      </g>
    </g>
    <g
       id="text_6">
      <!-- cost -->
      <g
         transform="matrix(0,-0.1,-0.1,0,14.798438,141.41156)"
         id="g63">
        <defs
           id="defs59">
          <path
             d="M 48.78125,52.59375 V 44.1875 q -3.8125,2.109375 -7.640625,3.15625 -3.828125,1.046875 -7.734375,1.046875 -8.75,0 -13.59375,-5.546875 -4.828125,-5.53125 -4.828125,-15.546875 0,-10.015625 4.828125,-15.5625 4.84375,-5.53125 13.59375,-5.53125 3.90625,0 7.734375,1.046875 3.828125,1.046875 7.640625,3.15625 v -8.3125 q -3.765625,-1.75 -7.796875,-2.625 -4.015625,-0.890625 -8.5625,-0.890625 -12.359375,0 -19.640625,7.765625 -7.265625,7.765625 -7.265625,20.953125 0,13.375 7.34375,21.03125 Q 20.21875,56 33.015625,56 q 4.140625,0 8.09375,-0.859375 3.953125,-0.84375 7.671875,-2.546875 z"
             id="DejaVuSans-99" />
          <path
             d="m 44.28125,53.078125 v -8.5 Q 40.484375,46.53125 36.375,47.5 q -4.09375,0.984375 -8.5,0.984375 -6.6875,0 -10.03125,-2.046875 Q 14.5,44.390625 14.5,40.28125 q 0,-3.125 2.390625,-4.90625 2.390625,-1.78125 9.625,-3.390625 l 3.078125,-0.6875 Q 39.15625,29.25 43.1875,25.515625 47.21875,21.78125 47.21875,15.09375 q 0,-7.625 -6.03125,-12.078125 -6.03125,-4.4375 -16.578125,-4.4375 -4.390625,0 -9.15625,0.859375 Q 10.6875,0.296875 5.421875,2 v 9.28125 q 4.984375,-2.59375 9.8125,-3.890625 4.828125,-1.28125 9.578125,-1.28125 6.34375,0 9.75,2.171875 3.421875,2.171875 3.421875,6.125 0,3.65625 -2.46875,5.609375 -2.453125,1.953125 -10.8125,3.765625 l -3.125,0.734375 q -8.34375,1.75 -12.0625,5.390625 -3.703125,3.640625 -3.703125,9.984375 0,7.71875 5.46875,11.90625 Q 16.75,56 26.8125,56 q 4.96875,0 9.359375,-0.734375 4.40625,-0.71875 8.109375,-2.1875 z"
             id="DejaVuSans-115" />
        </defs>
        <use
           xlink:href="#DejaVuSans-99"
           id="use60" />
        <use
           x="54.980469"
           xlink:href="#DejaVuSans-111"
           id="use61" />
        <use
           x="116.16211"
           xlink:href="#DejaVuSans-115"
           id="use62" />
        <use
           x="168.26172"
           xlink:href="#DejaVuSans-116"
           id="use63" />
      </g>
    </g>
  </g>
  <g
     id="line2d_38">
    <path
       clip-path="url(#p8950399d9e)"
       d="m -1,34.531411 61.696307,9.43e-4 45.911493,1.737433 26.8565,1.637289 19.05499,1.648192 14.78019,1.694632 12.0763,1.75251 10.21037,1.811048 8.84462,1.837909 7.80151,1.868953 6.97869,1.981448 6.31299,2.033382 5.76331,2.066545 5.30174,2.098497 4.90863,2.123773 4.56983,2.169633 4.27479,2.203096 4.01555,2.22794 3.78596,2.251971 3.58122,2.276218 3.39747,2.298658 3.23168,2.318066 3.08131,2.33506 2.94432,2.348887 2.81899,2.362271 2.7039,2.370653 2.59783,2.379988 2.49978,2.384243 2.40886,2.392217 2.32432,2.391648 2.24551,2.391969 2.17188,2.386033 2.10291,2.380994 2.0382,2.37099 1.97735,2.36112 1.92003,2.3467 1.86593,2.33218 1.81481,2.31335 1.76641,2.2946 1.72051,2.27201 1.67696,2.24993 1.63555,2.22389 1.59613,2.19743 1.55857,2.16746 1.52274,2.13674 1.48852,2.10433 1.4558,2.07045 1.42449,2.03567 1.3945,1.99895 1.36575,1.96068 1.33815,1.92195 1.31165,1.88113 1.28619,1.84159 1.26168,1.8001 1.23809,1.75994 1.21538,1.71986 1.19348,1.67881 1.17235,1.63854 1.15197,1.59484 1.13227,1.55211 1.11324,1.50625 1.09484,1.46209 1.07704,1.41608 1.0598,1.37337 1.04311,1.32973 1.02694,1.29045 1.01126,1.25055 0.99606,1.21449 0.98129,1.17904 0.96697,1.14576 0.95306,1.11362 0.93954,1.08205 0.92639,1.05062 0.91362,1.01993 0.90119,0.98826 0.88909,0.96022 0.87731,0.93263 0.86585,0.91377 0.85467,0.89852 0.84379,0.891 0.83317,0.88158 0.82282,0.86884 0.81273,0.84883 0.80287,0.82681 0.79326,0.80364 0.78387,0.7819 0.7747,0.76088 0.76575,0.74135 0.75699,0.72248 0.74844,0.70467 0.74008,0.68721 0.7319,0.67019 0.7239,0.65322 0.71608,0.63633 0.70841,0.6196 0.70092,0.60276 0.69358,0.58623 0.6864,0.56972 0.67935,0.55431 0.67245,0.53952"
       style="fill:none;stroke:#1f77b4;stroke-width:1.5;stroke-linecap:square"
       id="path63" />
  </g>
  <g
     id="line2d_39">
    <path
       clip-path="url(#p8950399d9e)"
       d="m -1,32.205313 61.696307,1e-6 45.911493,0.0035 26.8565,0.0035 19.05499,0.0035 14.78019,0.0035 12.0763,7e-6 h 10.21037 l 8.84462,1.5e-5 7.80151,1.5e-5 h 6.97869 l 6.31299,1.4e-5 5.76331,1.5e-5 5.30174,1.5e-5 4.90863,1.4e-5 4.56983,1.5e-5 4.27479,1.4e-5 4.01555,1.5e-5 3.78596,2.2e-5 3.58122,1.5e-5 3.39747,2.2e-5 3.23168,1.4e-5 3.08131,2.2e-5 2.94432,2.2e-5 2.81899,2.2e-5 2.7039,2.2e-5 2.59783,1.5e-5 2.49978,2.9e-5 2.40886,1.4e-5 2.32432,3e-5 2.24551,2.2e-5 2.17188,2.9e-5 2.10291,2.2e-5 2.0382,2.9e-5 1.97735,2.9e-5 1.92003,3e-5 1.86593,2.1e-5 1.81481,3e-5 1.76641,2.9e-5 1.72051,2.2e-5 1.67696,3.6e-5 1.63555,3e-5 1.59613,2.2e-5 1.55857,3.6e-5 1.52274,2.9e-5 1.48852,3e-5 1.4558,2.9e-5 1.42449,3.7e-5 1.3945,2.9e-5 1.36575,2.9e-5 1.33815,2.9e-5 1.31165,3.7e-5 1.28619,3.6e-5 1.26168,3e-5 1.23809,3.6e-5 1.21538,3.7e-5 1.19348,2.9e-5 1.17235,3.7e-5 1.15197,3.6e-5 1.13227,3.7e-5 1.11324,3.6e-5 1.09484,3.7e-5 1.07704,3.6e-5 1.0598,3e-5 1.04311,4.3e-5 1.02694,3.7e-5 1.01126,3.7e-5 0.99606,4.3e-5 0.98129,3.7e-5 0.96697,3.7e-5 0.95306,4.3e-5 0.93954,3.7e-5 0.92639,3.7e-5 0.91362,4.3e-5 0.90119,4.4e-5 0.88909,3.7e-5 0.87731,4.4e-5 0.86585,3.6e-5 0.85467,4.4e-5 0.84379,4.4e-5 0.83317,4.4e-5 0.82282,3.7e-5 0.81273,3.6e-5 0.80287,4.4e-5 0.79326,5.1e-5 0.78387,4.4e-5 0.7747,4.4e-5 0.76575,4.4e-5 0.75699,4.4e-5 0.74844,4.4e-5 0.74008,5.1e-5 0.7319,4.4e-5 0.7239,4.4e-5 0.71608,4.3e-5 0.70841,4.4e-5 0.70092,4.4e-5 0.69358,4.4e-5 0.6864,5.9e-5 0.67935,4.3e-5 0.67245,4.4e-5"
       style="fill:none;stroke:#ff7f0e;stroke-width:1.5;stroke-linecap:square"
       id="path64" />
  </g>
  <g
     id="line2d_40">
    <path
       clip-path="url(#p8950399d9e)"
       d="m -1,56.083752 61.696307,0.0097 45.911493,27.852688 26.8565,31.54075 19.05499,31.4971 14.78019,10.91631 12.0763,2.89929 10.21037,-12.13587 8.84462,-7.51186 7.80151,-3.87269 6.97869,0.12846 6.31299,4.894 5.76331,9.18261 5.30174,10.70986 4.90863,9.30426 4.56983,8.83906 4.27479,7.42246 4.01555,3.21641 3.78596,0.8886 3.58122,0.055 3.39747,-1.30023 3.23168,-1.77216 3.08131,-0.87169 2.94432,0.41541 2.81899,1.60181 2.7039,3.03241 2.59783,4.26129 2.49978,4.49391 2.40886,4.44322 2.32432,4.14816 2.24551,3.06268 2.17188,2.15673 2.10291,1.53061 2.0382,0.62605 1.97735,-0.12684 1.92003,-0.39644 1.86593,-0.64815 1.81481,-0.42303 1.76641,0.10457 1.72051,0.63517 1.67696,1.13951 1.63555,1.38161 1.59613,1.47014 1.55857,1.38626 1.52274,1.08534 1.48852,0.712 1.4558,0.38985 1.42449,0.23523 1.3945,0.0738 1.36575,-0.0673 1.33815,0.0206 1.31165,0.0842 1.28619,0.11355 1.26168,0.21604 1.23809,0.29715 1.21538,0.34093 1.19348,0.34881 1.17235,0.35406 1.15197,0.29628 1.13227,0.24892 1.11324,0.22665 1.09484,0.13079 1.07704,0.0817 1.0598,0.0902 1.04311,0.0487 1.02694,0.0324 1.01126,0.0694 0.99606,0.0783 0.98129,0.0825 0.96697,0.1281 0.95306,0.15547 0.93954,0.1379 0.92639,0.097 0.91362,0.0803 0.90119,0.0856 0.88909,0.0627 0.87731,0.0392 0.86585,0.0416 0.85467,0.0555 0.84379,0.0508 0.83317,0.0504 0.82282,0.0613 0.81273,0.067 0.80287,0.0571 0.79326,0.0515 0.78387,0.0522 0.7747,0.0437 0.76575,0.0332 0.75699,0.0364 0.74844,0.0313 0.74008,0.0322 0.7319,0.0339 0.7239,0.0351 0.71608,0.0359 0.70841,0.0362 0.70092,0.0328 0.69358,0.0306 0.6864,0.0317 0.67935,0.0294 0.67245,0.0199"
       style="fill:none;stroke:#2ca02c;stroke-width:1.5;stroke-linecap:square"
       id="path65" />
  </g>
  <g
     id="line2d_41">
    <path
       clip-path="url(#p8950399d9e)"
       d="m -1,32.899672 61.696307,2.82e-4 45.911493,0.717728 26.8565,0.730908 19.05499,0.74094 14.78019,0.7491 12.0763,0.756023 10.21037,0.762068 8.84462,0.767466 7.80151,0.772325 6.97869,0.776375 6.31299,0.77769 5.76331,0.780967 5.30174,0.781728 4.90863,0.782812 4.56983,0.785294 4.27479,0.790584 4.01555,0.794023 3.78596,0.797673 3.58122,0.800804 3.39747,0.803873 3.23168,0.806155 3.08131,0.808209 2.94432,0.810415 2.81899,0.810324 2.7039,0.811661 2.59783,0.810871 2.49978,0.814711 2.40886,0.817028 2.32432,0.821168 2.24551,0.824622 2.17188,0.827652 2.10291,0.830695 2.0382,0.832976 1.97735,0.835566 1.92003,0.837554 1.86593,0.839829 1.81481,0.841607 1.76641,0.84336 1.72051,0.845213 1.67696,0.847097 1.63555,0.849257 1.59613,0.851167 1.55857,0.853209 1.52274,0.855035 1.48852,0.85694 1.4558,0.858623 1.42449,0.86033 1.3945,0.861767 1.36575,0.863412 1.33815,0.865117 1.31165,0.866964 1.28619,0.868679 1.26168,0.87039 1.23809,0.872013 1.21538,0.873663 1.19348,0.875195 1.17235,0.876802 1.15197,0.878254 1.13227,0.879824 1.11324,0.881198 1.09484,0.882711 1.07704,0.884009 1.0598,0.885471 1.04311,0.886688 1.02694,0.888087 1.01126,0.889212 0.99606,0.890548 0.98129,0.891574 0.96697,0.892839 0.95306,0.893776 0.93954,0.894948 0.92639,0.895833 0.91362,0.896878 0.90119,0.89773 0.88909,0.898653 0.87731,0.899446 0.86585,0.900245 0.85467,0.900962 0.84379,0.901632 0.83317,0.902254 0.82282,0.902797 0.81273,0.90332 0.80287,0.90372 0.79326,0.90412 0.78387,0.90441 0.7747,0.90467 0.76575,0.90483 0.75699,0.90494 0.74844,0.90496 0.74008,0.90492 0.7319,0.90479 0.7239,0.90461 0.71608,0.90431 0.70841,0.90397 0.70092,0.90351 0.69358,0.90301 0.6864,0.90238 0.67935,0.90171 0.67245,0.90089"
       style="fill:none;stroke:#d62728;stroke-width:1.5;stroke-linecap:square"
       id="path66" />
  </g>
  <g
     id="line2d_42">
    <path
       clip-path="url(#p8950399d9e)"
       d="m -1,56.083752 61.696307,0.0097 45.911493,25.085777 26.8565,25.694441 19.05499,22.52961 14.78019,20.75293 12.0763,15.18057 10.21037,9.83881 8.84462,4.2424 7.80151,0.34551 6.97869,-1.65175 6.31299,-1.92771 5.76331,-1.50734 5.30174,-0.18076 4.90863,1.52212 4.56983,2.52781 4.27479,3.06484 4.01555,3.5 3.78596,3.85471 3.58122,3.92074 3.39747,3.52772 3.23168,3.15172 3.08131,2.81965 2.94432,2.25754 2.81899,1.69878 2.7039,1.40926 2.59783,1.19991 2.49978,0.9037 2.40886,0.62407 2.32432,0.48232 2.24551,0.436 2.17188,0.3973 2.10291,0.4059 2.0382,0.44664 1.97735,0.44281 1.92003,0.42527 1.86593,0.48135 1.81481,0.56381 1.76641,0.60321 1.72051,0.59519 1.67696,0.56047 1.63555,0.5635 1.59613,0.58388 1.55857,0.5657 1.52274,0.5211 1.48852,0.4799 1.4558,0.45314 1.42449,0.41788 1.3945,0.37064 1.36575,0.33312 1.33815,0.30727 1.31165,0.27263 1.28619,0.22825 1.26168,0.19761 1.23809,0.18126 1.21538,0.16422 1.19348,0.14237 1.17235,0.1237 1.15197,0.11851 1.13227,0.12068 1.11324,0.11691 1.09484,0.11041 1.07704,0.11043 1.0598,0.11398 1.04311,0.11537 1.02694,0.11514 1.01126,0.11641 0.99606,0.11745 0.98129,0.11467 0.96697,0.11064 0.95306,0.10816 0.93954,0.10573 0.92639,0.10097 0.91362,0.0958 0.90119,0.0917 0.88909,0.0877 0.87731,0.0836 0.86585,0.0792 0.85467,0.0751 0.84379,0.0721 0.83317,0.0696 0.82282,0.067 0.81273,0.0648 0.80287,0.0635 0.79326,0.0622 0.78387,0.0608 0.7747,0.0597 0.76575,0.0589 0.75699,0.0581 0.74844,0.0574 0.74008,0.0567 0.7319,0.056 0.7239,0.0553 0.71608,0.0546 0.70841,0.0537 0.70092,0.0528 0.69358,0.052 0.6864,0.0511 0.67935,0.0501 0.67245,0.0492"
       style="fill:none;stroke:#9467bd;stroke-width:1.5;stroke-linecap:square"
       id="path67" />
  </g>
  <g
     id="line2d_43">
    <path
       clip-path="url(#p8950399d9e)"
       d="m -1,32.205313 61.696307,1e-6 45.911493,0.0035 26.8565,0.0035 19.05499,0.0035 14.78019,0.0035 12.0763,0.0035 10.21037,0.0035 8.84462,0.0035 7.80151,0.0036 6.97869,0.0035 6.31299,0.0035 5.76331,0.0035 5.30174,0.0035 4.90863,0.0035 4.56983,0.0035 4.27479,0.0035 4.01555,0.0035 3.78596,0.0035 3.58122,0.0035 3.39747,0.0035 3.23168,0.0035 3.08131,0.0035 2.94432,0.0035 2.81899,0.0036 2.7039,0.0035 2.59783,0.0035 2.49978,0.0035 2.40886,0.0035 2.32432,0.0035 2.24551,0.0036 2.17188,0.0035 2.10291,0.0035 2.0382,0.0035 1.97735,0.0035 1.92003,0.0035 1.86593,0.0035 1.81481,0.0035 1.76641,0.0035 1.72051,0.0035 1.67696,0.0035 1.63555,0.0035 1.59613,0.0035 1.55857,0.0035 1.52274,0.0036 1.48852,0.0035 1.4558,0.0035 1.42449,0.0035 1.3945,0.0035 1.36575,0.0035 1.33815,0.0035 1.31165,0.0035 1.28619,0.0035 1.26168,0.0035 1.23809,0.0035 1.21538,0.0035 1.19348,0.0035 1.17235,0.0035 1.15197,0.0035 1.13227,0.0035 1.11324,0.0035 1.09484,0.0035 1.07704,0.0035 1.0598,0.0035 1.04311,0.0035 1.02694,0.0035 1.01126,0.0035 0.99606,0.0035 0.98129,0.0035 0.96697,0.0035 0.95306,0.0035 0.93954,0.0035 0.92639,0.0035 0.91362,0.0035 0.90119,0.0035 0.88909,0.0035 0.87731,0.0035 0.86585,0.0035 0.85467,0.0035 0.84379,0.0035 0.83317,0.0035 0.82282,0.0035 0.81273,0.0035 0.80287,0.0035 0.79326,0.0035 0.78387,0.0035 0.7747,0.0035 0.76575,0.0035 0.75699,0.0035 0.74844,0.0035 0.74008,0.0035 0.7319,0.0035 0.7239,0.0035 0.71608,0.0035 0.70841,0.0035 0.70092,0.0035 0.69358,0.0035 0.6864,0.0035 0.67935,0.0035 0.67245,0.0035"
       style="fill:none;stroke:#8c564b;stroke-width:1.5;stroke-linecap:square"
       id="path68" />
  </g>
  <g
     id="line2d_44">
    <path
       clip-path="url(#p8950399d9e)"
       d="m -1,32.201827 h 61.696307 l 45.911493,30.868491 26.8565,59.204282 19.05499,25.62812 14.78019,10.5923 12.0763,4.44468 10.21037,3.19029 8.84462,3.69664 7.80151,5.32117 6.97869,6.9228 6.31299,6.82539 5.76331,4.73842 5.30174,3.76437 4.90863,1.98052 4.56983,1.1904 4.27479,1.04895 4.01555,1.31561 3.78596,1.66929 3.58122,1.72592 3.39747,1.78814 3.23168,1.5408 3.08131,1.24441 2.94432,1.11037 2.81899,1.03989 2.7039,1.11838 2.59783,1.10034 2.49978,0.89579 2.40886,0.76105 2.32432,0.58925 2.24551,0.50798 2.17188,0.50912 2.10291,0.54362 2.0382,0.62291 1.97735,0.59478 1.92003,0.5567 1.86593,0.49967 1.81481,0.40965 1.76641,0.38839 1.72051,0.38681 1.67696,0.37732 1.63555,0.35267 1.59613,0.31284 1.55857,0.28397 1.52274,0.25429 1.48852,0.27358 1.4558,0.25599 1.42449,0.25957 1.3945,0.21913 1.36575,0.22232 1.33815,0.25805 1.31165,0.22219 1.28619,0.18149 1.26168,0.23115 1.23809,0.20141 1.21538,0.17897 1.19348,0.17409 1.17235,0.15217 1.15197,0.17885 1.13227,0.18062 1.11324,0.16788 1.09484,0.15959 1.07704,0.13092 1.0598,0.11343 1.04311,0.10202 1.02694,0.11458 1.01126,0.077 0.99606,0.14042 0.98129,0.0595 0.96697,0.0772 0.95306,0.0842 0.93954,0.0567 0.92639,0.0633 0.91362,0.0373 0.90119,0.0403 0.88909,0.0254 0.87731,0.0635 0.86585,0.0487 0.85467,0.0274 0.84379,0.0401 0.83317,0.0328 0.82282,0.0246 0.81273,0.024 0.80287,0.0175 0.79326,0.0266 0.78387,0.0473 0.7747,0.0619 0.76575,0.0377 0.75699,0.0651 0.74844,0.0808 0.74008,0.0589 0.7319,0.0474 0.7239,0.0596 0.71608,0.055 0.70841,0.0545 0.70092,0.0347 0.69358,0.0303 0.6864,0.035 0.67935,0.0676 0.67245,0.0756"
       style="fill:none;stroke:#e377c2;stroke-width:1.5;stroke-linecap:square"
       id="path69" />
  </g>
  <g
     id="line2d_45">
    <path
       clip-path="url(#p8950399d9e)"
       d="m -1,56.083758 61.696307,0.0097 45.911493,17.129705 26.8565,14.081154 19.05499,-1.979132 14.78019,8.379455 12.0763,15.09632 10.21037,10.07983 8.84462,8.07088 7.80151,6.8844 6.97869,5.75459 6.31299,4.87315 5.76331,4.617 5.30174,4.15127 4.90863,3.60349 4.56983,3.1221 4.27479,2.86379 4.01555,2.70837 3.78596,2.58101 3.58122,2.42829 3.39747,2.2539 3.23168,2.07863 3.08131,1.91999 2.94432,1.78682 2.81899,1.6768 2.7039,1.58323 2.59783,1.49823 2.49978,1.41913 2.40886,1.34081 2.32432,1.26455 2.24551,1.18874 2.17188,1.11618 2.10291,1.05029 2.0382,0.99057 1.97735,0.93983 1.92003,0.89167 1.86593,0.84911 1.81481,0.80569 1.76641,0.76634 1.72051,0.72637 1.67696,0.69079 1.63555,0.65592 1.59613,0.62587 1.55857,0.597 1.52274,0.57161 1.48852,0.54679 1.4558,0.52421 1.42449,0.50196 1.3945,0.48109 1.36575,0.46038 1.33815,0.43978 1.31165,0.41787 1.28619,0.39403 1.26168,0.36763 1.23809,0.33923 1.21538,0.30901 1.19348,0.2789 1.17235,0.24988 1.15197,0.22503 1.13227,0.20522 1.11324,0.19397 1.09484,0.1903 1.07704,0.19676 1.0598,0.20933 1.04311,0.22902 1.02694,0.24881 1.01126,0.26851 0.99606,0.28044 0.98129,0.28569 0.96697,0.28008 0.95306,0.26814 0.93954,0.24962 0.92639,0.23051 0.91362,0.21103 0.90119,0.19614 0.88909,0.18401 0.87731,0.17709 0.86585,0.17033 0.85467,0.165 0.84379,0.1576 0.83317,0.15261 0.82282,0.15126 0.81273,0.15694 0.80287,0.16768 0.79326,0.17871 0.78387,0.18502 0.7747,0.18366 0.76575,0.17712 0.75699,0.16779 0.74844,0.16058 0.74008,0.15456 0.7319,0.15148 0.7239,0.14622 0.71608,0.13999 0.70841,0.12871 0.70092,0.11594 0.69358,0.10072 0.6864,0.0861 0.67935,0.072 0.67245,0.058"
       style="fill:none;stroke:#7f7f7f;stroke-width:1.5;stroke-linecap:square"
       id="path70" />
  </g>
  <g
     id="line2d_46">
    <path
       clip-path="url(#p8950399d9e)"
       d="m -1,34.420605 61.696307,8.98e-4 45.911493,2.25495 26.8565,2.291061 19.05499,2.328071 14.78019,2.366011 12.0763,2.404873 10.21037,2.444679 8.84462,2.48543 7.80151,2.527117 6.97869,2.569728 6.31299,2.613259 5.76331,2.65768 5.30174,2.702961 4.90863,2.749039 4.56983,2.79585 4.27479,2.843322 4.01555,2.891345 3.78596,2.939779 3.58122,2.98847 3.39747,3.037213 3.23168,3.08575 3.08131,3.133804 2.94432,3.181022 2.81899,3.226942 2.7039,3.271111 2.59783,3.31287 2.49978,3.35155 2.40886,3.3863 2.32432,3.41612 2.24551,3.43993 2.17188,3.45637 2.10291,3.46396 2.0382,3.461 1.97735,3.44558 1.92003,3.4156 1.86593,3.36875 1.81481,3.3026 1.76641,3.2146 1.72051,3.1009 1.67696,2.9535 1.63555,2.77498 1.59613,2.60179 1.55857,2.4724 1.52274,2.33142 1.48852,2.20286 1.4558,2.03014 1.42449,1.91552 1.3945,1.78808 1.36575,1.66363 1.33815,1.59123 1.31165,1.51763 1.28619,1.43066 1.26168,1.37291 1.23809,1.31064 1.21538,1.29911 1.19348,1.24372 1.17235,1.175 1.15197,1.13065 1.13227,1.10301 1.11324,1.04843 1.09484,1.01941 1.07704,0.96593 1.0598,0.9323 1.04311,0.90112 1.02694,0.89043 1.01126,0.88861 0.99606,0.859 0.98129,0.83828 0.96697,0.81472 0.95306,0.78419 0.93954,0.75669 0.92639,0.74575 0.91362,0.73901 0.90119,0.72643 0.88909,0.72529 0.87731,0.70998 0.86585,0.6884 0.85467,0.66371 0.84379,0.64952 0.83317,0.63095 0.82282,0.6217 0.81273,0.60018 0.80287,0.57906 0.79326,0.57395 0.78387,0.55739 0.7747,0.53268 0.76575,0.52394 0.75699,0.50309 0.74844,0.49431 0.74008,0.48517 0.7319,0.4866 0.7239,0.47058 0.71608,0.46629 0.70841,0.45531 0.70092,0.45717 0.69358,0.43557 0.6864,0.43507 0.67935,0.41374 0.67245,0.39174"
       style="fill:none;stroke:#bcbd22;stroke-width:1.5;stroke-linecap:square"
       id="path71" />
  </g>
  <g
     id="line2d_47">
    <path
       clip-path="url(#p8950399d9e)"
       d="m -1,59.370695 61.696307,0.0057 45.911493,15.239449 26.8565,15.48062 19.05499,4.443073 14.78019,17.787443 12.0763,4.55545 10.21037,17.70558 8.84462,1.39756 7.80151,1.23586 6.97869,4.42376 6.31299,4.2206 5.76331,1.1963 5.30174,4.36071 4.90863,1.1471 4.56983,4.40214 4.27479,4.08137 4.01555,1.13482 3.78596,4.18387 3.58122,1.05989 3.39747,4.12836 3.23168,3.90355 3.08131,0.9692 2.94432,3.75199 2.81899,0.90006 2.7039,3.30316 2.59783,0.27291 2.49978,0.24048 2.40886,0.81243 2.32432,0.81409 2.24551,0.80644 2.17188,0.79642 2.10291,0.78333 2.0382,0.76807 1.97735,0.75096 1.92003,0.72908 1.86593,0.70376 1.81481,0.6702 1.76641,0.19424 1.72051,0.69679 1.67696,0.65887 1.63555,0.18511 1.59613,0.67342 1.55857,0.62986 1.52274,0.17883 1.48852,0.64344 1.4558,0.58628 1.42449,0.17587 1.3945,0.60499 1.36575,0.16517 1.33815,0.61073 1.31165,0.55684 1.28619,0.16354 1.26168,0.56899 1.23809,0.15352 1.21538,2.03855 1.19348,0.21706 1.17235,0.15338 1.15197,0.50392 1.13227,0.13915 1.11324,1.81562 1.09484,0.2062 1.07704,0.1376 1.0598,0.45738 1.04311,0.12156 1.02694,1.7206 1.01126,0.14199 0.99606,0.1182 0.98129,0.42109 0.96697,0.40557 0.95306,0.10847 0.93954,1.47371 0.92639,0.13925 0.91362,0.10854 0.90119,0.37128 0.88909,0.0983 0.87731,1.34724 0.86585,0.12844 0.85467,0.0986 0.84379,0.32918 0.83317,0.0896 0.82282,1.16226 0.81273,0.13845 0.80287,0.0983 0.79326,0.0836 0.78387,0.31017 0.7747,0.28129 0.76575,0.0234 0.75699,0.0761 0.74844,0.0744 0.74008,0.0743 0.7319,0.0742 0.7239,0.25848 0.71608,0.0284 0.70841,0.0235 0.70092,0.0205 0.69358,0.0708 0.6864,0.0707 0.67935,0.0699 0.67245,0.0697"
       style="fill:none;stroke:#17becf;stroke-width:1.5;stroke-dasharray:5.55, 2.4;stroke-dashoffset:0"
       id="path72" />
  </g>
  <g
     id="line2d_48">
    <path
       clip-path="url(#p8950399d9e)"
       d="m -1,142.7088 61.696307,0.004 45.911493,3.97976 26.8565,3.25375 19.05499,2.63181 14.78019,2.38998 12.0763,2.20562 10.21037,2.07035 8.84462,1.94652 7.80151,1.8498 6.97869,1.75403 6.31299,1.67599 5.76331,1.59716 5.30174,1.52693 4.90863,1.46072 4.56983,1.3974 4.27479,1.3394 4.01555,1.2827 3.78596,1.231 3.58122,1.17973 3.39747,1.13084 3.23168,1.08134 3.08131,0.90722 2.94432,9.11411 2.81899,3.48264 2.7039,1.9408 2.59783,0.85693 2.49978,0.9324 2.40886,0.80945 2.32432,0.59678 2.24551,0.60152 2.17188,0.4538 2.10291,0.33519 2.0382,0.32733 1.97735,0.31861 1.92003,0.31206 1.86593,0.30343 1.81481,0.29748 1.76641,0.28945 1.72051,0.28476 1.67696,0.27764 1.63555,0.27306 1.59613,0.26779 1.55857,0.26063 1.52274,0.25719 1.48852,0.24878 1.4558,0.25286 1.42449,0.24405 1.3945,0.24024 1.36575,0.23144 1.33815,0.23051 1.31165,0.22199 1.28619,0.22104 1.26168,0.2128 1.23809,0.21247 1.21538,0.20475 1.19348,0.20485 1.17235,0.19752 1.15197,0.19762 1.13227,0.19049 1.11324,0.19055 1.09484,0.18386 1.07704,0.18387 1.0598,0.17749 1.04311,0.17739 1.02694,0.17125 1.01126,0.17283 0.99606,0.16673 0.98129,0.17007 0.96697,0.16388 0.95306,0.16223 0.93954,0.15655 0.92639,0.15735 0.91362,0.15193 0.90119,0.15449 0.88909,0.14915 0.87731,0.14792 0.86585,0.14294 0.85467,0.14554 0.84379,0.13866 0.83317,0.14069 0.82282,0.13304 0.81273,0.13342 0.80287,0.1281 0.79326,0.12723 0.78387,0.1245 0.7747,0.12318 0.76575,0.12139 0.75699,0.1199 0.74844,0.11829 0.74008,0.11681 0.7319,0.11531 0.7239,0.097 0.71608,1.79961 0.70841,1.52501 0.70092,0.13081 0.69358,0.0815 0.6864,0.21219 0.67935,0.11359 0.67245,0.35052"
       style="fill:none;stroke:#1f77b4;stroke-width:1.5;stroke-dasharray:5.55, 2.4;stroke-dashoffset:0"
       id="path73" />
  </g>
  <g
     id="line2d_49">
    <path
       clip-path="url(#p8950399d9e)"
       d="m -1,195.15684 61.696307,0.0206 45.911493,18.22498 26.8565,3.31179 19.05499,7.58579 14.78019,3.09022 12.0763,0.60121 10.21037,0.78345 8.84462,0.28616 7.80151,0.29248"
       style="fill:none;stroke:#ff7f0e;stroke-width:1.5;stroke-dasharray:5.55, 2.4;stroke-dashoffset:0"
       id="path74" />
  </g>
  <g
     id="line2d_50">
    <path
       clip-path="url(#p8950399d9e)"
       d="m -1,32.201761 h 61.696307 45.911493 26.8565 19.05499 14.78019 12.0763 10.21037 8.84462 7.80151 6.97869 6.31299 5.76331 5.30174 4.90863 4.56983 4.27479 4.01555 3.78596 3.58122 3.39747 3.23168 3.08131 2.94432 2.81899 2.7039 2.59783 2.49978 2.40886 2.32432 2.24551 2.17188 2.10291 2.0382 1.97735 1.92003 1.86593 1.81481 1.76641 1.72051 1.67696 1.63555 1.59613 1.55857 1.52274 1.48852 1.4558 1.42449 1.3945 1.36575 1.33815 1.31165 1.28619 1.26168 1.23809 1.21538 1.19348 1.17235 1.15197 1.13227 1.11324 1.09484 1.07704 1.0598 1.04311 1.02694 1.01126 0.99606 0.98129 0.96697 0.95306 0.93954 0.92639 0.91362 0.90119 0.88909 0.87731 0.86585 0.85467 0.84379 0.83317 0.82282 0.81273 0.80287 0.79326 0.78387 0.7747 0.76575 0.75699 0.74844 0.74008 0.7319 0.7239 0.71608 0.70841 0.70092 0.69358 0.6864 0.67935 0.67245"
       style="fill:none;stroke:#2ca02c;stroke-width:1.5;stroke-dasharray:5.55, 2.4;stroke-dashoffset:0"
       id="path75" />
  </g>
  <g
     id="patch_3">
    <path
       d="M 45.478125,239.75812 V 22.318125"
       style="fill:none;stroke:#000000;stroke-width:0.8;stroke-linecap:square;stroke-linejoin:miter"
       id="path76" />
  </g>
  <g
     id="patch_4">
    <path
       d="M 380.27812,239.75812 V 22.318125"
       style="fill:none;stroke:#000000;stroke-width:0.8;stroke-linecap:square;stroke-linejoin:miter"
       id="path77" />
  </g>
  <g
     id="patch_5">
    <path
       d="M 45.478125,239.75812 H 380.27812"
       style="fill:none;stroke:#000000;stroke-width:0.8;stroke-linecap:square;stroke-linejoin:miter"
       id="path78" />
  </g>
  <g
     id="patch_6">
    <path
       d="M 45.478125,22.318125 H 380.27812"
       style="fill:none;stroke:#000000;stroke-width:0.8;stroke-linecap:square;stroke-linejoin:miter"
       id="path79" />
  </g>
  <defs
     id="defs163">
    <clipPath
       id="p8950399d9e">
      <rect
         height="217.44"
         width="334.79999"
         x="45.478127"
         y="22.318125"
         id="rect163" />
    </clipPath>
  </defs>
</svg>
